<svg width="254" height="42" viewBox="0 0 254 42" fill="none" xmlns="http://www.w3.org/2000/svg">
<path d="M1.3536 39.0456V39.692H2H22.2701H22.9165V39.0456V29.8081V29.1617H22.2701H10.8725V2.14744V1.50104H10.2261H2H1.3536V2.14744V39.0456ZM94.2088 39.0456V39.692H94.8552H103.081H103.728V39.0456V27.3223L104.803 25.7282L111.475 39.3302L111.652 39.692H112.055H121.62H122.669L122.197 38.7548L111.272 17.066L121.557 2.52063L122.278 1.50104H121.029H111.583H111.248L111.054 1.77533L103.728 12.1822V2.14744V1.50104H103.081H94.8552H94.2088V2.14744V39.0456ZM126.327 39.0456V39.692H126.973H141.811C144.847 39.692 147.22 38.8808 149.057 37.2003L149.06 37.1977C151.233 35.1863 152.494 32.0006 152.494 27.8987C152.494 23.9651 150.977 20.5489 148.165 18.8834C149.04 18.2314 149.728 17.423 150.222 16.4346C150.86 15.1579 151.156 13.6192 151.156 11.7977C151.156 8.61508 150.126 5.91121 148.292 4.06565L148.291 4.06437C146.66 2.43279 144.442 1.50104 141.536 1.50104H126.973H126.327V2.14744V39.0456ZM224.255 39.0456V39.692H224.902H233.128H233.774V39.0456V27.3223L234.85 25.7282L241.522 39.3302L241.699 39.692H242.102H251.666H252.716L252.244 38.7548L241.319 17.066L251.604 2.52063L252.325 1.50104H251.076H241.63H241.294L241.101 1.77533L233.774 12.1822V2.14744V1.50104H233.128H224.902H224.255V2.14744V39.0456ZM40.8448 40.5693C45.4395 40.5693 49.208 38.4159 51.8074 34.846C54.396 31.291 55.818 26.3486 55.818 20.7255C55.818 15.1025 54.396 10.1476 51.8081 6.58012C49.2094 2.99787 45.4411 0.830162 40.8448 0.830162C36.2477 0.830162 32.4983 2.99865 29.9194 6.58209C27.3516 10.15 25.9502 15.1044 25.9502 20.7255C25.9502 26.3467 27.3516 31.2887 29.92 34.8441C32.4998 38.4151 36.2493 40.5693 40.8448 40.5693ZM40.8841 30.6583C39.221 30.6583 37.9245 29.7202 37.0086 27.9785C36.0817 26.2156 35.5872 23.687 35.5872 20.7255C35.5872 17.7641 36.0816 15.2217 37.0095 13.4451C37.927 11.6883 39.2243 10.7411 40.8841 10.7411C42.5439 10.7411 43.8413 11.6883 44.7588 13.4451C45.6866 15.2217 46.181 17.7641 46.181 20.7255C46.181 23.687 45.6865 26.2156 44.7596 27.9785C43.8438 29.7202 42.5473 30.6583 40.8841 30.6583ZM74.423 40.5693C79.0178 40.5693 82.7863 38.4159 85.3857 34.846C87.9743 31.291 89.3963 26.3486 89.3963 20.7255C89.3963 15.1025 87.9743 10.1476 85.3864 6.58012C82.7877 2.99787 79.0193 0.830162 74.423 0.830162C69.826 0.830162 66.0766 2.99865 63.4976 6.58209C60.9299 10.15 59.5285 15.1044 59.5285 20.7255C59.5285 26.3467 60.9299 31.2887 63.4983 34.8441C66.078 38.4151 69.8275 40.5693 74.423 40.5693ZM74.4624 30.6583C72.7992 30.6583 71.5027 29.7202 70.5869 27.9785C69.66 26.2156 69.1655 23.687 69.1655 20.7255C69.1655 17.7641 69.6599 15.2217 70.5877 13.4451C71.5052 11.6883 72.8026 10.7411 74.4624 10.7411C76.1222 10.7411 77.4195 11.6883 78.337 13.4451C79.2649 15.2217 79.7593 17.7641 79.7593 20.7255C79.7593 23.687 79.2648 26.2156 78.3379 27.9785C77.4221 29.7202 76.1255 30.6583 74.4624 30.6583ZM135.688 29.9358V24.0554H140.867C141.557 24.0554 142.133 24.2939 142.541 24.7369C142.952 25.1834 143.251 25.903 143.251 26.9698C143.251 27.9649 142.978 28.7088 142.571 29.192C142.173 29.6654 141.609 29.9358 140.906 29.9358H135.688ZM135.688 15.8474V11.154H140.119C140.743 11.154 141.231 11.3745 141.568 11.7474C141.91 12.1259 142.149 12.7202 142.149 13.5523C142.149 14.4196 141.915 14.9776 141.597 15.3149C141.283 15.6481 140.809 15.8474 140.158 15.8474H135.688ZM170.891 40.5693C175.486 40.5693 179.255 38.4159 181.854 34.846C184.443 31.291 185.865 26.3486 185.865 20.7255C185.865 15.1025 184.443 10.1476 181.855 6.58012C179.256 2.99787 175.488 0.830162 170.891 0.830162C166.294 0.830162 162.545 2.99865 159.966 6.58209C157.398 10.15 155.997 15.1044 155.997 20.7255C155.997 26.3467 157.398 31.2887 159.967 34.8441C162.546 38.4151 166.296 40.5693 170.891 40.5693ZM170.931 30.6583C169.268 30.6583 167.971 29.7202 167.055 27.9785C166.128 26.2156 165.634 23.687 165.634 20.7255C165.634 17.7641 166.128 15.2217 167.056 13.4451C167.974 11.6883 169.271 10.7411 170.931 10.7411C172.59 10.7411 173.888 11.6883 174.805 13.4451C175.733 15.2217 176.228 17.7641 176.228 20.7255C176.228 23.687 175.733 26.2156 174.806 27.9785C173.89 29.7202 172.594 30.6583 170.931 30.6583ZM204.47 40.5693C209.064 40.5693 212.833 38.4159 215.432 34.846C218.021 31.291 219.443 26.3486 219.443 20.7255C219.443 15.1025 218.021 10.1476 215.433 6.58012C212.834 2.99787 209.066 0.830162 204.47 0.830162C199.873 0.830162 196.123 2.99865 193.544 6.58209C190.976 10.15 189.575 15.1044 189.575 20.7255C189.575 26.3467 190.977 31.2887 193.545 34.8441C196.125 38.4151 199.874 40.5693 204.47 40.5693ZM204.509 30.6583C202.846 30.6583 201.549 29.7202 200.633 27.9785C199.707 26.2156 199.212 23.687 199.212 20.7255C199.212 17.7641 199.707 15.2217 200.634 13.4451C201.552 11.6883 202.849 10.7411 204.509 10.7411C206.169 10.7411 207.466 11.6883 208.384 13.4451C209.311 15.2217 209.806 17.7641 209.806 20.7255C209.806 23.687 209.311 26.2156 208.384 27.9785C207.469 29.7202 206.172 30.6583 204.509 30.6583Z" fill="white" stroke="white" stroke-width="1.2928"/>
</svg>
