<svg width="323" height="54" viewBox="0 0 323 54" fill="none" xmlns="http://www.w3.org/2000/svg">
<path d="M1.17797 50.376V51.198H2H27.7775H28.5995V50.376V38.6288V37.8068H27.7775H13.2832V3.45276V2.63074H12.4611H2H1.17797V3.45276V50.376ZM119.262 50.376V51.198H120.084H130.545H131.367V50.376V35.4676L132.735 33.4404L141.219 50.738L141.445 51.198H141.957H154.12H155.455L154.854 50.0062L140.961 22.4246L154.04 3.92735L154.957 2.63074H153.369H141.356H140.93L140.684 2.97955L131.367 16.2139V3.45276V2.63074H130.545H120.084H119.262V3.45276V50.376ZM160.106 50.376V51.198H160.928H179.798C183.658 51.198 186.676 50.1665 189.012 48.0293L189.015 48.0261C191.779 45.4682 193.383 41.4169 193.383 36.2006C193.383 31.1983 191.454 26.8539 187.878 24.7358C188.99 23.9067 189.865 22.8787 190.494 21.6217C191.305 19.9981 191.682 18.0413 191.682 15.725C191.682 11.6777 190.372 8.23914 188.039 5.89214L188.037 5.89052C185.964 3.81564 183.143 2.63074 179.447 2.63074H160.928H160.106V3.45276V50.376ZM284.642 50.376V51.198H285.464H295.925H296.747V50.376V35.4676L298.115 33.4404L306.599 50.738L306.825 51.198H307.337H319.5H320.834L320.234 50.0062L306.341 22.4246L319.42 3.92735L320.337 2.63074H318.749H306.736H306.31L306.064 2.97955L296.747 16.2139V3.45276V2.63074H295.925H285.464H284.642V3.45276V50.376ZM51.3988 52.3137C57.2419 52.3137 62.0343 49.5753 65.34 45.0355C68.6319 40.5146 70.4402 34.2293 70.4402 27.0785C70.4402 19.9276 68.6319 13.6266 65.3408 9.08979C62.0361 4.53425 57.2439 1.77758 51.3988 1.77758C45.5527 1.77758 40.7846 4.53525 37.505 9.0923C34.2396 13.6296 32.4575 19.93 32.4575 27.0785C32.4575 34.2269 34.2396 40.5116 37.5059 45.033C40.7865 49.5743 45.5547 52.3137 51.3988 52.3137ZM51.4488 39.7099C49.3338 39.7099 47.685 38.517 46.5204 36.302C45.3416 34.0602 44.7128 30.8446 44.7128 27.0785C44.7128 23.3124 45.3415 20.0793 46.5215 17.82C47.6882 15.5859 49.3381 14.3813 51.4488 14.3813C53.5596 14.3813 55.2094 15.5859 56.3762 17.82C57.5561 20.0793 58.1849 23.3124 58.1849 27.0785C58.1849 30.8446 57.5561 34.0602 56.3773 36.302C55.2126 38.517 53.5639 39.7099 51.4488 39.7099ZM94.1002 52.3137C99.9433 52.3137 104.736 49.5753 108.041 45.0355C111.333 40.5146 113.142 34.2293 113.142 27.0785C113.142 19.9276 111.333 13.6266 108.042 9.08979C104.738 4.53425 99.9453 1.77758 94.1002 1.77758C88.2541 1.77758 83.486 4.53525 80.2064 9.0923C76.941 13.6296 75.1589 19.93 75.1589 27.0785C75.1589 34.2269 76.941 40.5116 80.2073 45.033C83.4879 49.5743 88.2561 52.3137 94.1002 52.3137ZM94.1502 39.7099C92.0352 39.7099 90.3865 38.517 89.2218 36.302C88.043 34.0602 87.4142 30.8446 87.4142 27.0785C87.4142 23.3124 88.043 20.0793 89.2229 17.82C90.3896 15.5859 92.0395 14.3813 94.1502 14.3813C96.261 14.3813 97.9109 15.5859 99.0776 17.82C100.258 20.0793 100.886 23.3124 100.886 27.0785C100.886 30.8446 100.257 34.0602 99.0787 36.302C97.914 38.517 96.2653 39.7099 94.1502 39.7099ZM172.011 38.7912V31.3131H178.597C179.475 31.3131 180.207 31.6163 180.726 32.1797C181.248 32.7475 181.629 33.6627 181.629 35.0193C181.629 36.2848 181.281 37.2308 180.764 37.8453C180.258 38.4473 179.541 38.7912 178.647 38.7912H172.011ZM172.011 20.875V14.9063H177.646C178.439 14.9063 179.06 15.1868 179.488 15.661C179.923 16.1423 180.227 16.8982 180.227 17.9563C180.227 19.0592 179.93 19.7688 179.525 20.1978C179.126 20.6215 178.524 20.875 177.696 20.875H172.011ZM216.779 52.3137C222.622 52.3137 227.414 49.5753 230.72 45.0355C234.012 40.5146 235.82 34.2293 235.82 27.0785C235.82 19.9276 234.012 13.6266 230.721 9.08979C227.416 4.53425 222.624 1.77758 216.779 1.77758C210.933 1.77758 206.165 4.53525 202.885 9.0923C199.62 13.6296 197.837 19.93 197.837 27.0785C197.837 34.2269 199.62 40.5116 202.886 45.033C206.166 49.5743 210.935 52.3137 216.779 52.3137ZM216.829 39.7099C214.714 39.7099 213.065 38.517 211.9 36.302C210.722 34.0602 210.093 30.8446 210.093 27.0785C210.093 23.3124 210.721 20.0793 211.901 17.82C213.068 15.5859 214.718 14.3813 216.829 14.3813C218.94 14.3813 220.589 15.5859 221.756 17.82C222.936 20.0793 223.565 23.3124 223.565 27.0785C223.565 30.8446 222.936 34.0602 221.757 36.302C220.593 38.517 218.944 39.7099 216.829 39.7099ZM259.48 52.3137C265.323 52.3137 270.116 49.5753 273.421 45.0355C276.713 40.5146 278.522 34.2293 278.522 27.0785C278.522 19.9276 276.713 13.6266 273.422 9.08979C270.117 4.53425 265.325 1.77758 259.48 1.77758C253.634 1.77758 248.866 4.53525 245.586 9.0923C242.321 13.6296 240.539 19.93 240.539 27.0785C240.539 34.2269 242.321 40.5116 245.587 45.033C248.868 49.5743 253.636 52.3137 259.48 52.3137ZM259.53 39.7099C257.415 39.7099 255.766 38.517 254.602 36.302C253.423 34.0602 252.794 30.8446 252.794 27.0785C252.794 23.3124 253.423 20.0793 254.603 17.82C255.77 15.5859 257.419 14.3813 259.53 14.3813C261.641 14.3813 263.291 15.5859 264.458 17.82C265.637 20.0793 266.266 23.3124 266.266 27.0785C266.266 30.8446 265.637 34.0602 264.459 36.302C263.294 38.517 261.645 39.7099 259.53 39.7099Z" fill="black" stroke="black" stroke-width="1.64405"/>
</svg>
