<?xml version="1.0" encoding="UTF-8"?>
<svg id="Layer_1" data-name="Layer 1" xmlns="http://www.w3.org/2000/svg" viewBox="0 0 180 180">
  <path d="m34.2,135.85c-.01-.2-.03-.36.24-.46.12-.05.12-.39.18-.64.14,0,.29,0,.44-.03.07-.01.16-.08.17-.13.01-.05-.06-.14-.12-.18-.29-.2-.29-.54,0-.75.01,0,.04,0,.04-.01.02-.41.29-.7.48-1.03.09-.16.15-.33.23-.5.05.01.09.03.14.04,0-.27-.06-.56.02-.81.06-.2.27-.36.44-.57.15,0,.35-.02.61-.04-.05-.11-.06-.22-.12-.26-.36-.24-.36-.53,0-.79.02-.02.07-.04.07-.05-.08-.51.53-.79.41-1.33-.03-.14.14-.33.21-.49.04.01.09.03.13.04.01-.2.03-.39.04-.62.09-.01.17-.02.25-.04.14-.03.28-.07.42-.11-.09-.08-.24-.16-.25-.25-.03-.23-.05-.67.02-.68.31-.07.24-.28.24-.46,0-.24,0-.49,0-.73,0-.08.02-.23.05-.24.46-.1.24-.46.31-.72.04-.18.14-.34.27-.49.15-.21-.07-.59.37-.67-.04-.1-.04-.23-.11-.28-.24-.16-.25-.27,0-.43.09-.06.16-.21.17-.32.02-.42.06-.84,0-1.25-.08-.51.33-.64.57-.92.06-.06.12-.12.18-.17-.07-.05-.15-.1-.19-.16-.07-.09-.15-.19-.16-.29-.02-.53-.01-1.06,0-1.59,0-.09.05-.26.08-.26.38-.02.27-.3.28-.5,0-.55,0-1.09,0-1.64,0-.23-.06-.51.35-.43-.05-.3.14-.58-.27-.71-.23-.08-.04-.66.27-.79-.08-.21.19-.53-.27-.64-.19-.04-.08-.98.11-1.09.06-.04.12-.1.14-.16,0-.03-.08-.09-.12-.14-.07-.08-.2-.17-.2-.25,0-1.93,0-3.85,0-5.78,0-.03.02-.05.04-.11.19-.02.4-.04.64-.06-.03-.1-.02-.2-.07-.24-.19-.16-.41-.29-.58-.46-.04-.04,0-.26.07-.31.31-.24.28-.45.04-.72-.13-.14-.05-.48-.03-.72,0-.07.14-.12.22-.19-.1-.08-.2-.15-.32-.25v-4.57c.28-.09.64.07.8-.35.03-.09.46-.02.7-.04.09-.01.18-.1.26-.15-.06-.06-.13-.12-.19-.18-.1-.12-.2-.24-.32-.39-.11.13-.19.31-.33.37-.14.07-.34.03-.44.04-.13.14-.22.24-.32.34-.06-.06-.17-.13-.17-.18.01-.2.02-.52.12-.56.35-.14.33-.2.02-.35-.07-.03-.14-.14-.14-.21-.01-.46-.11-.96.03-1.37.11-.32.29-.53-.03-.79v-4.81c.2-.01.37,0,.53-.04.06-.01.11-.1.16-.15-.06-.05-.11-.13-.17-.14-.15-.02-.31,0-.52,0,0-.34,0-.64,0-.94,0-.06.04-.13.09-.17.07-.08.16-.14.25-.21-.11-.07-.21-.14-.33-.22v-9.18c.11-.13.77-.2.06-.47-.07-.03-.06-.29-.07-.44-.01-.18,0-.37,0-.55.67-.2.15-.79.45-1.03.3-.17.62-.31.87-.54.1-.09.05-.37.05-.56,0,0-.18-.05-.2-.02-.16.18-.3.39-.46.57-.06.07-.19.07-.33.12v-1.23c.18.16.27.24.37.33.06.05.13.13.18.12.05,0,.14-.11.13-.17-.02-.19.12-.4-.21-.53-.13-.05-.13-.43-.2-.7.3-.03.51-.05.76-.07-.06-.48-.5-.14-.7-.4,0-.33-.06-.74.02-1.12.05-.23.35-.39.52-.6.06-.07.06-.18.08-.27-.38-.06-.25-.35-.26-.57-.01-.2,0-.4,0-.6,0-.1.02-.26.07-.27.42-.12.24-.46.27-.71.02-.19-.07-.42.27-.43.04,0,.11-.18.11-.27.01-.37-.01-.75.02-1.12.01-.16.13-.32.19-.47.05.01.11.03.16.04,0-.23-.02-.46,0-.68.02-.12.13-.23.2-.34.05-.09.12-.18.13-.27.02-.24.02-.49,0-.73-.02-.27.02-.48.36-.48,0-.26,0-.49,0-.72,0-.09.03-.26.07-.27.44-.1.26-.44.29-.69.03-.18-.07-.43.25-.45.03,0,.08-.06.07-.09-.04-.55.34-.79.73-1.04.04-.03.03-.13.04-.2,0-.09-.03-.22.01-.25.28-.24.4-.46,0-.69.09-.12.18-.23.27-.35.02.01.05.03.07.04,0-.23-.02-.46,0-.69.02-.12.13-.23.21-.33.03-.04.12-.07.12-.1-.06-.53.35-.75.67-1.03.06-.06.02-.22.06-.32.05-.12.17-.22.22-.35.07-.21.1-.43.17-.65.05-.17.14-.34.27-.48.16-.22-.09-.62.39-.69.02,0,.05-.08.04-.11-.08-.53.36-.68.64-.98.23-.24.57-.51.44-.97-.05-.18-.05-.42.25-.44.03,0,.09-.05.09-.08-.06-.36.16-.59.39-.81.22-.2.42-.42.72-.7.05-.13-.17-.53.29-.61.03,0,.05-.15.05-.24,0-.46.4-.6.71-.89-.06-.45.31-.69.62-1.02.18-.2.59-.35.49-.8-.03-.13.23-.34.37-.49.26-.27.53-.54.8-.79.05-.05.16-.05.25-.07-.09-.53.21-.8.61-1.04.11-.07.15-.24.25-.34.22-.21.43-.46.8-.38.03,0,.13-.14.12-.19-.14-.45.3-.59.48-.85.26-.37.64-.66.97-.97.32-.3.66-.58.97-.88.17-.16.3-.37.46-.55.14-.16.28-.32.43-.47.34-.35.68-.7,1.05-1.02.06-.05.25,0,.35.05.09.04.14.15.21.24.04-.02.08-.04.12-.06v-.98c.3-.11.71.1.84-.37.02-.07.46-.02.7-.04.09-.01.18-.09.26-.14-.06-.06-.13-.11-.19-.17-.06-.08-.17-.18-.15-.24.02-.07.15-.15.24-.16.24-.02.48,0,.74,0,.02-.11.07-.2.05-.27-.13-.44.41-.46.47-.78.1.05.2.09.29.15.07.05.12.12.18.18.05-.07.15-.15.14-.21-.07-.47.33-.6.58-.85.09-.09.14-.21.24-.35.22-.08.63.12.72-.35,0-.02.13-.03.2-.03.32-.03.75-.37.87-.7h.53c.26-.34.43-.74.94-.72.07,0,.21-.05.21-.09.03-.33.27-.26.47-.29.1-.01.18-.12.27-.18.08-.06.16-.11.24-.17.05.07.11.14.14.22.07.16.12.34.17.5.05-.19.15-.37.15-.56,0-.35.03-.61.48-.53.05,0,.15,0,.16-.02.21-.6.74-.19,1.11-.38.21-.3.39-.69.9-.66.07,0,.16-.08.23-.14.09-.07.16-.15.24-.23.08.1.16.2.3.37.14,0,.38.01.62,0,.09,0,.17-.09.26-.14-.09-.06-.18-.16-.28-.17-.24-.03-.53.02-.36-.43.17,0,.36,0,.54,0,.2,0,.4.07.52-.24.04-.11.4-.1.59-.24.17-.07.33-.16.5-.21.25-.07.63.17.71-.3.12.04.31.05.34.12.09.23.22.24.32.07.25-.39.52-.68,1.08-.62v-1.78c.21,0,.36.02.51,0,.07-.01.12-.11.18-.17-.06-.05-.11-.13-.17-.14-.15-.02-.31,0-.52,0v-1.11c0-.73.02-1.47,0-2.2-.01-.36.02-.66.36-.86-.37-.17-.39-.48-.35-.82.01-.13.01-.25.02-.42.29.03.64-.25.77.25.1-.02.28-.04.28-.07.02-.26.02-.52,0-.77,0-.03-.17-.04-.26-.07-.11.5-.47.24-.81.29,0-.2,0-.37,0-.54,0-1.25,0-2.5,0-3.75,0-.18-.05-.37.24-.42.06-.01.12-.29.12-.44,0-.37-.03-.72.52-.63.06,0,.13-.07.2-.11-.04-.07-.07-.19-.12-.19-.35-.04-.27-.31-.24-.49.02-.14.18-.25.33-.45-.09-.41.31-.63.63-.93.13-.12.11-.41.15-.55.25-.25.47-.48.7-.69.05-.05.13-.15.18-.14.08.01.14.1.21.15.06.06.12.12.18.19.05-.07.11-.14.16-.21.03-.04.05-.12.09-.13.42-.11.48-.22.02-.38-.03-.01-.03-.27.03-.35.16-.19.46-.3.54-.51.17-.43.5-.23.71-.18.18.05.32.3.43.48.15.25.23.24.35-.01.03-.07.14-.11.2-.17.07-.07.12-.16.22-.3-.31-.02-.52-.03-.77-.04v-.69c.21-.01.41-.03.64-.04.03-.36.28-.39.59-.37.22,0,.48.11.6-.25.03-.08.33-.06.51-.09.21-.03.52.12.54-.28.12.03.24.04.35.09.07.03.12.12.18.18.05-.06.09-.14.16-.16.19-.08.39-.17.58-.18.18,0,.37.1.54.17.06.03.1.11.15.17.06-.06.11-.13.18-.18.09-.06.19-.16.29-.16.4-.02.81-.04,1.2,0,.17.02.32.31.48.31.15,0,.31-.3.47-.31.64-.04,1.29-.03,1.94,0,.11,0,.2.16.31.23.08.04.18.05.27.07.09-.49.48-.26.75-.31.11-.02.23,0,.39.02.01.17,0,.34.04.5.01.06.09.11.14.17.06-.06.16-.12.17-.18.03-.15,0-.31,0-.51.47.08.98-.26,1.19.26.27-.1.5-.2.74-.24.07-.01.17.12.26.19.06.05.11.14.16.14.05,0,.1-.1.15-.15.06-.06.12-.18.18-.18.77-.01,1.54,0,2.34,0-.04.33.22.7-.29.8.03.1.04.26.09.27.15.04.31.01.55.01,0-.28-.02-.53,0-.78,0-.1.1-.2.16-.3.08.06.19.11.23.19.13.26.22.22.34,0,.11-.21.66-.29.7-.1.07.36.32.26.52.27.61.01.89.26.98.87.01.08.09.15.14.22.09-.1.18-.2.33-.35.46-.22.65.31.97.52.05.03.07.16.1.16.32-.02.56.05.74.36.12.21.37.33.56.51.21.2.41.41.62.61.14.13.28.26.42.39.25.23.49.47.73.71.05.05.05.16.05.24.01.19-.04.37.24.47.11.04.1.4.16.65.47-.01.26.39.33.64.48.25.51.56.08.89-.05.04-.09.12-.08.17.01.05.09.11.14.12.11.02.23,0,.34.02.08.02.18.1.2.16.01.06-.07.18-.13.21-.26.12-.25.21,0,.34.08.04.14.16.15.26.02.26,0,.52,0,.78,0,.18-.05.38.23.43.06,0,.12.18.12.27,0,2.69,0,5.37,0,8.06,0,.1-.11.24-.2.3-.19.12-.21.21-.01.33.32.19.32.55.01.75-.06.04-.07.17-.11.26.45.07.28.45.4.67.1.13.17.29.3.37.12.08.3.11.44.08.49-.09.71.26.98.55.07.07.15.15.24.17.2.04.49-.09.5.29.09,0,.24.02.28-.03.28-.35.53-.35.81-.01.06.07.19.08.29.11.11.02.22.02.4.04,0,.25-.02.5,0,.73.01.11.11.21.17.32.05-.1.11-.2.15-.3.02-.06-.02-.15.01-.21.04-.07.1-.16.17-.18.04-.02.18.08.18.12,0,.27.19.22.35.25.15.03.28.15.43.22.09.05.2.11.3.11.25,0,.49,0,.41.37h.61s-.03.08-.05.12c.73.35,1.46.7,2.26,1.08,0,.11.02.32.04.58h1.4c.02.25.04.46.06.72h1c.02.24.04.44.06.68.2.01.4.05.59.03.38-.04.54.09.48.48,0,.07.02.14.03.22.12.01.24.05.35.03.54-.1.77.29,1.1.6.2.19.35.54.77.5.18-.02.45.22.56.41.25.45.55.74.95.68.23.38.4.68.58.97.02.03.07.06.1.06.54-.06.68.42,1.01.67.27.2.26.39.34.63.06.2.29.34.45.51.07-.07.13-.16.21-.2.11-.05.27-.1.36-.06.12.05.27.18.3.31.08.32.61.39.44.83-.02.05.08.2.11.19.36-.07.58.16.8.38.06.06.15.14.15.2,0,.06-.11.12-.17.18-.07.08-.13.16-.26.33h1.13c.02.24.03.44.04.64.49.61,1.39.87,1.49,1.84.19.02.39.04.63.06.01.23.03.44.04.65.52.2.75.54.71,1.1-.08.03-.18.04-.25.09-.05.04-.06.14-.09.21.34.02.38.59.8.44.48-.18.64.29.93.47.08.04.03.3.04.45,0,.16,0,.31,0,.54.45-.16.7.13.98.35.04.03.1.09.09.13-.06.52.3.75.67.98.04.03.06.12.06.19.02.22-.07.48.29.56.07.02.06.36.09.56.22.17.45.33.66.53.03.03-.06.21-.12.31-.04.07-.13.11-.19.17.07.06.13.11.2.17.18.17.32.39.53.5.52.29.31.79.36,1.09.28.3.46.59.71.74.47.27.32.7.36,1.08,0,.06.07.11.11.16.08.09.16.18.24.26-.12.04-.24.11-.37.13-.18.03-.44-.05-.32.33h.95c.2.25-.09.72.41.77,0,0-.01.2-.02.3-.1-.01-.23,0-.31-.04-.1-.06-.16-.18-.24-.27-.03.15-.07.29-.09.44,0,.07.02.14.04.24h.94s.06.07.09.11c-.13.17-.26.34-.45.58.3.02.51.03.77.05,0,.24-.03.46,0,.68.02.13.14.25.22.37.05.09.12.18.13.28.02.24,0,.49,0,.77.35-.02.42.18.39.46,0,.07,0,.19.04.2.47.14.24.53.31.82.03.13.13.24.2.35.05.09.14.17.14.26.02.24,0,.49,0,.73,0,.19-.06.37.24.46.21.06.19.28-.06.38-.06.03-.11.09-.17.14.05.05.1.11.16.16.16.15.32.3.51.49v.96c-.15.01-.29.02-.43.03-.07,0-.15.01-.2.05-.03.02-.05.13-.03.15.16.16.33.31.5.45.01,0,.1-.07.15-.11.08-.07.16-.14.24-.21.05.1.14.2.15.3.02.23,0,.46.01.69.03.28-.03.48-.34.49-.09.29.14.69-.35.76.02.08.02.17.06.22.04.04.14,0,.2.03.14.05.28.11.41.17-.1.11-.2.22-.35.38v1.15c.24.18.57.32.68.56.13.26.06.61.08,1.01.13-.1.19-.15.26-.2.09-.07.18-.13.27-.2.05.1.15.2.15.3.01.85,0,1.7,0,2.54,0,.18-.03.34.23.43.11.04.11.39.16.58-.44.2-.44.2-.12.47.05.04.07.12.07.18,0,.36,0,.72,0,1.08,0,.06-.05.12-.09.17-.07.08-.16.14-.24.22.11.07.22.14.34.22v2.71c-.07.14-.81.19-.07.46.04.01.07.12.07.19,0,.51,0,1.03,0,1.58-.19.01-.34,0-.49.03-.08.02-.14.1-.21.15.07.05.13.14.2.16.15.03.31.03.5.04v2.48c0,.59,0,1.18,0,1.77,0,.19.11.47-.26.47.01.1-.02.24.04.28.31.22.29.54.02.8-.12.11-.12.56-.09.57.52.16.22.58.3.87.02.08,0,.17-.01.33-.14-.04-.26-.06-.36-.12-.09-.05-.15-.15-.22-.23-.04.12-.09.25-.11.37-.01.08.02.17.03.27.21.02.41.03.68.05,0,.66.1,1.35-.05,1.99-.06.27-.13.36,0,.67.18.43.07.99.03,1.49,0,.12-.21.23-.33.35.11.11.31.22.33.34.05.35.02.72.01,1.08,0,.06-.04.17-.07.18-.48.05-.2.41-.24.51.14.2.29.33.3.46.01.18.17.49-.23.52.01.1.02.28.05.28.33.06.2.32.19.48,0,.21-.09.42-.16.63-.04.1-.17.19-.17.28-.02.36,0,.72,0,1.07.05-.01.09-.02.14-.04.07.17.18.33.21.51.04.22.01.46,0,.69,0,.17.05.35-.23.43-.1.03-.11.35-.16.54.43.17.49.42.34,1.2-.15,0-.3,0-.45.04-.07.02-.13.11-.19.17.06.05.11.13.18.14.15.02.31,0,.52,0,0,1.05,0,2.07,0,3.09,0,.05-.03.13-.07.14-.39.12-.43.23-.01.37.05.02.08.14.08.22,0,.27,0,.54,0,.85-.24.02-.44.03-.68.05v.63c.21.02.41.03.65.05v4.55c-.1.1-.21.21-.31.31.2.06.41.13.69.22,0,.73.01,1.52-.01,2.3,0,.1-.19.19-.32.31v.45c.23.18.46.34.66.53.03.03-.05.2-.11.29-.05.07-.14.11-.21.16.06.06.12.12.18.18.06.07.17.15.16.2-.02.08-.13.14-.19.22-.05.07-.14.22-.12.23.21.18.43.35.71.56,0,.21-.01.48,0,.75.01.23-.11.53.27.63.05.01.05.23.08.35.09.37-.25.87.33,1.1.04.02.03.19.03.29,0,.33,0,.66,0,.98.46.19.46.2.09.51-.05.04-.03.16-.04.25.5.05.21.47.32.69.36.28.79.5.69,1.08-.03.18-.08.42.25.44.05,0,.11.15.12.24.03.21-.06.48.28.53.02,0,.02.17.03.26-.1,0-.22.04-.3,0-.11-.05-.2-.17-.3-.26-.03.16-.06.32-.08.48,0,.04.02.08.05.18.46-.24.63.25.96.39.05.02.06.18.07.27.01.18-.04.38.24.42.05,0,.11.18.11.28.02.23,0,.46,0,.65.29.32.66.47.75.97.05.29.26.69.46.89.21.22.2.39.23.61.03.22-.11.52.28.56.03,0,.07.12.08.18.03.24-.08.52.31.6.06.01.05.37.07.57.03-.01.07-.02.1-.04.07.17.14.34.22.5.06.11.18.2.22.32.04.12.03.37,0,.38-.36.05-.21.32-.22.51,0,.06.07.17.12.18.05.01.13-.07.19-.11.09-.06.17-.13.26-.2.06.1.14.19.16.3.03.19.16.32.23.45.15.27.05.67.06,1.01-.11-.03-.23-.03-.32-.08-.09-.05-.15-.15-.23-.23-.04.14-.12.29-.11.42.01.1.14.25.23.26.26.04.54.01.82.01.02.26.03.45.04.63.33.23.56.46.73.86.14.34.19.8.57,1.03.21.13.18.62-.05.74-.08.04-.15.11-.23.16.01.04.03.07.04.11.22.02.43.05.71.07,0,.42.14.91-.04,1.23-.19.34-.08.46,0,.76.15.67.09,1.4.02,2.1-.02.22-.34.4-.52.6-.05.06-.11.1-.17.15.06.06.13.12.19.18.06.06.14.12.16.2,0,.04-.1.17-.14.16-.09-.02-.18-.09-.26-.15-.07-.05-.13-.11-.19-.17-.05.06-.09.13-.15.17-.52.31-.3.82-.33,1.25-.03.41-.38.68-1.04.77-.01.07-.03.15-.03.24-.02.35-.43.75-.77.79-.12.02-.21.16-.34.2-.12.03-.26.03-.37,0-.09-.02-.15-.12-.22-.18-.04.1-.12.2-.11.29.04.37-.15.44-.46.42-.2-.02-.41.03-.6-.01-.17-.03-.33-.14-.5-.22.01-.04.03-.08.04-.13h-.6c-.02.23-.05.44-.08.72h-.81c-.91,0-1.81,0-2.72,0-.14,0-.38-.09-.39-.17-.05-.31.22-.21.38-.24.08-.01.17-.02.27-.03v-1c-.27,0-.53-.01-.8,0-.07,0-.13.1-.2.16.07.05.13.12.2.16.16.08.49-.15.47.22,0,.06-.34.12-.53.16-.1.02-.2-.01-.3.01-.07.02-.16.07-.18.13-.01.05.07.12.11.19.06.09.13.18.19.28-.1.05-.21.13-.31.14-.27.02-.55.03-.82,0-.11-.01-.24-.12-.32-.22-.14-.18-.22-.17-.33.02-.05.09-.17.2-.26.2-.38.02-.77,0-1.19,0v-1.1c.12,0,.26,0,.39-.03.1-.03.18-.11.28-.17-.08-.05-.17-.14-.25-.14-.47-.01-.94,0-1.45,0v1.1c.23-.19.39-.33.55-.46l.1.06v.75c-1.15,0-2.29.06-3.41-.04-.25-.02-.44-.34-.71.03-.05.06-.49.19-.57-.21,0-.04-.25-.07-.25-.07-.16.53-.6.22-.9.3-.06.02-.14-.01-.24-.02-.02-.23-.04-.45-.06-.72-.29,0-.56,0-.83,0-.06,0-.13.09-.16.15-.01.03.06.11.1.16.08.1.15.19.23.28-.06.05-.13.14-.18.13-.19-.02-.47-.01-.53-.12-.16-.3-.23-.36-.39,0-.03.07-.17.13-.27.13-.42.01-.84.04-1.25,0-.16-.02-.3-.31-.45-.31-.15,0-.29.3-.44.31-.54.04-1.09.02-1.64,0-.09,0-.22-.06-.27-.14-.22-.31-.48-.31-.7.01-.05.07-.18.12-.28.12-2.21,0-4.43.01-6.64,0-.16,0-.31-.19-.5-.31-.13.45-.53.32-.87.33-1.06,0-2.13.01-3.19,0-.14,0-.27-.17-.42-.22-.09-.03-.21-.02-.3.01-.13.05-.25.21-.38.21-.7.02-1.4.01-2.15.01,0,.4.01.75,0,1.11,0,.11-.1.24-.19.3-.23.15-.23.23.02.34.19.09.27.69.1.72-.37.07-.25.32-.27.52-.01.17,0,.34,0,.55-.23.02-.44.04-.67.06-.03.27-.21.57.23.69.04.01.09.15.07.22-.01.06-.1.13-.16.15-.11.03-.23,0-.34.02-.06.01-.14.08-.16.14-.02.04.04.13.09.16.33.25.33.87,0,1.15-.07.06-.07.19-.12.29-.08.17-.16.34-.29.49-.26.31.22.88-.3,1.01-.21.39-.35.71-.55.98-.06.09-.29.04-.44.08-.08.02-.15.09-.22.14.04.06.09.12.13.18.07.08.14.16.21.25-.09.04-.18.11-.28.12-.14.02-.28,0-.38,0-.09-.27-.17-.48-.24-.69-.09.1-.19.2-.32.34-.14,0-.34.02-.57.03,0,.1-.02.21.02.25.32.28.66.54.98.83.05.05.04.25.03.26-.33.09-.42.63-.88.46-.03-.01-.08.02-.23.05.11.12.21.18.25.27.05.11.13.29.08.34-.17.17-.44.27-.58.46-.3.41-.67.74-1.06,1.07-.32.26-.49.71-.83.93-.25.17-.36.61-.81.49-.1-.03-.28.2-.41.32-.22.21-.42.43-.61.67-.22.12-.6-.12-.7.34-.01.06-.34.05-.53.07-.29.31-.46.78-1.02.74-.05,0-.11.07-.16.1-.12.08-.25.15-.37.23-.12.08-.24.18-.37.23-.11.04-.25.05-.36.01-.09-.03-.16-.14-.24-.22-.04.11-.09.22-.11.34-.02.1-.01.2-.02.36-.2,0-.4,0-.59,0-.19.01-.42-.09-.5.25-.02.09-.42.08-.71.13,0-.36,0-.65,0-.93,0-.05.02-.12.05-.16.08-.1.17-.18.25-.27-.16-.02-.32-.05-.48-.07-.03,0-.05.02-.14.04v1.26c-.28.21-.78-.14-.77.42-.27.1-.67-.12-.74.35,0,.03-.15.07-.18.05-.07-.05-.12-.14-.15-.22-.07-.16-.12-.33-.17-.5-.05.17-.1.34-.17.5-.04.09-.12.15-.18.23-.07-.07-.14-.14-.2-.21-.05-.05-.1-.15-.16-.15-.05,0-.11.09-.16.15-.22.29-.42.58-.87.57-1.26-.02-2.53,0-3.79-.02-.15,0-.28-.16-.44-.21-.08-.03-.24,0-.27.05-.14.22-.25.23-.42.03-.08-.1-.22-.19-.34-.2-.43-.02-.86,0-1.29-.01-.22,0-.52.11-.55-.29,0-.04-.16-.08-.25-.09-.21-.01-.44-.05-.64,0-.45.12-.53-.36-.83-.47,0,0,.02-.18.07-.25.06-.1.15-.18.22-.26-.12-.03-.23-.07-.35-.08-.08,0-.17.02-.27.03-.02.21-.03.41-.05.65-.11,0-.31,0-.31-.03-.07-.45-.41-.27-.66-.3-.21-.02-.48.08-.52-.28,0-.03-.14-.07-.22-.07-.2-.02-.45.06-.48-.28,0-.03-.1-.09-.13-.08-.41.16-.54-.28-.82-.41-.14-.07-.17-.29.09-.37.09-.03.14-.15.21-.23-.02-.03-.05-.07-.07-.1h-1.39c-.01-.21-.01-.38-.04-.54,0-.05-.08-.12-.13-.13-.05,0-.13.03-.18.08-.09.08-.16.17-.24.26-.07-.1-.15-.21-.25-.35-.5.16-.71-.27-1-.58-.18-.19-.44-.32-.59-.53-.12-.16-.12-.41-.19-.71-.09.07-.21.12-.24.2-.09.27-.25.21-.37.08-.18-.18-.3-.41-.48-.58-.29-.27-.62-.5-.91-.78-.07-.06-.04-.21-.08-.31-.06-.17-.14-.34-.22-.51-.04.01-.09.02-.13.03v-.58c-.1-.02-.18-.04-.26-.04-.45-.02-.74-.35-.85-.79-.07-.25-.34-.45-.52-.67-.07-.09-.14-.18-.21-.26.02-.04.04-.07.06-.11.17,0,.34.01.5,0,.06,0,.12-.09.18-.13-.06-.06-.12-.17-.18-.17-.27-.02-.54,0-.83,0-.08-.32.02-.65-.36-.85-.14-.07-.05-.56-.06-.86-.42-.26-.8-.53-.72-1.12.03-.19.04-.38-.25-.46-.2-.06-.14-.58.06-.7.07-.04.12-.12.18-.18-.06-.05-.12-.09-.17-.15-.24-.27-.63-.45-.55-.94.03-.19.16-.52-.26-.53.03-.12.04-.24.09-.35.03-.07.12-.12.18-.18-.05-.05-.1-.11-.16-.15-.03-.02-.08-.02-.12-.03.13-.47-.43-.68-.42-1.11,0-.43,0-.86,0-1.36-.36,0-.68,0-1,0-.75,0-1.49.01-2.24-.01-.12,0-.24-.14-.36-.22-.05-.03-.11-.12-.14-.11-.06.02-.11.09-.17.14-.06.06-.14.19-.17.18-.09-.03-.14-.14-.23-.18-.31-.14-.38-.67-.85-.54-.07.02-.16.08-.18.13-.01.05.07.12.12.18.07.1.15.19.22.29-.11.05-.21.13-.32.13-.46.01-.92.01-1.38,0-.22,0-.49.08-.52-.28-.1.02-.21.01-.29.05-.13.06-.25.21-.37.21-.9.02-1.81,0-2.72.02-.41.01-.64-.07-.56-.53,0-.05-.02-.11-.03-.16q-.56-.13-.68.65h-1.75c-.01-.17,0-.34-.04-.5-.02-.08-.1-.14-.15-.21-.05.07-.14.13-.16.21-.02.15,0,.31,0,.53-.58,0-1.13,0-1.67,0-.65,0-1.29.01-1.94-.01-.13,0-.29-.11-.38-.22-.17-.21-.91-.18-1.04.05-.04.07-.12.17-.19.17-.07,0-.15-.09-.2-.16-.14-.22-.58-.28-.65-.06-.08.25-.24.24-.43.24-.16,0-.32-.03-.47,0-.52.11-.71-.31-1-.59-.05-.05-.11-.1-.17-.15-.04.07-.1.13-.11.2-.02.11,0,.23-.02.34-.02.07-.09.15-.15.17-.07.02-.21-.03-.22-.07-.07-.46-.41-.22-.63-.27.01.04.02.08.03.12-.17.08-.34.22-.51.22-1.78.02-3.56.01-5.35,0-.17,0-.4.08-.42-.23,0-.01-.19,0-.29-.01,0,.3-.22.24-.4.24-.46,0-.92,0-1.38,0-.19,0-.38.06-.44-.25-.03-.16-.22-.16-.31.07-.1.28-.28.27-.4.01-.12-.26-.18-.29-.31-.01-.12.26-.26.26-.41.02-.12-.19-.27-.37-.42-.54-.02-.02-.23.08-.24.14-.04.16-.01.34-.01.53-.15.01-.26.02-.38.03-.29.04-.43-.07-.41-.38,0-.11-.06-.23-.09-.35-.07.08-.13.2-.22.24-.11.04-.26.04-.37,0-.09-.03-.14-.16-.21-.25-.07.11-.14.22-.25.37-.45,0-.95,0-1.45,0-.29,0-.26-.18-.28-.38,0-.11-.07-.22-.11-.34-.08.07-.14.18-.23.22-.1.04-.23.02-.34.02,0-.32-.26-.2-.43-.27-.23-.1-.45-.24-.63-.41-.36-.33-.72-.67-1.04-1.05-.22-.26-.37-.58-.56-.9-.09-.22-.18-.43-.26-.63-.01-.03,0-.07-.01-.08-.32-.22-.48-.44-.01-.67,0,0-.02-.14-.06-.18-.18-.15-.39-.27-.56-.43-.06-.05-.06-.18-.07-.28,0-.46,0-.92,0-1.38,0-.21-.09-.45.27-.52.17-.03.11-.54-.07-.65-.29-.17-.29-.58-.02-.77.08-.06.16-.18.17-.28.03-.19-.03-.41.27-.46.04,0,.07-.2.08-.3.01-.23,0-.45,0-.69.16-.02.26-.02.35-.04.13-.03.26-.07.38-.1-.09-.08-.18-.16-.26-.25-.05-.06-.11-.18-.08-.22.07-.1.18-.17.37-.33.15-.22-.34-.78.29-.97.1-.24-.15-.64.33-.72.03,0,.02-.22.06-.32.05-.12.15-.22.21-.34.06-.11.14-.24.14-.36-.01-.29.11-.38.39-.36.16.01.32.02.47,0,.1-.02.18-.11.27-.17-.02-.05-.03-.09-.05-.14-.17,0-.34.02-.5,0-.08-.01-.19-.09-.2-.16-.01-.07.07-.16.12-.24.07-.11.17-.21.24-.32.09-.16.16-.34.24-.51.04.01.09.02.13.04,0-.23.01-.46,0-.69-.02-.29.12-.35.36-.28.05.1.09.21.14.31.07.12.17.23.23.36.04.1.03.22.04.34.09.01.16.04.23.03.13-.02.26-.06.39-.09-.08-.09-.19-.16-.22-.26-.03-.11,0-.25.05-.36.04-.09.13-.15.29-.32h-1.16Zm16.56-83.02c-.02-.21-.04-.42-.05-.63-.12-.06-.31-.1-.32-.18-.08-.37-.35-.21-.55-.23-.05,0-.13.07-.14.11,0,.05.05.13.09.16.07.04.16.05.24.07.02.22.04.43.06.67h.68c-.04.31.15.7-.33.84-.03,0-.05.11-.03.16.12.42-.29.68-.46.76-.31.14-.21.33-.28.52-.06.18-.24.31-.34.48-.04.06,0,.17,0,.25,0,.07-.02.2-.04.2-.48.07-.21.51-.36.76-.27,0-.55.01-.82,0-.08,0-.16-.08-.23-.13-.08-.06-.14-.14-.21-.21-.04.11-.11.21-.13.32-.02.11.02.22.03.36.28,0,.54-.01.8,0,.08,0,.16.08.24.12-.05.08-.1.17-.16.25-.06.08-.19.16-.18.23.04.42-.12.58-.53.52-.06,0-.13.07-.19.11.05.06.08.16.14.18.41.13.27.5.17.66-.13.23-.43.36-.71.58v1.24c-.62-.01-.02.89-.7.83v1.03c-.17.01-.3,0-.42.03-.09.02-.17.07-.25.1.06.07.15.14.17.22.05.22.13.64.08.65-.36.12-.28.4-.27.64.02.31-.02.56-.36.6-.1.4.18.89-.38,1.11-.11.04-.2.18-.28.29-.04.07-.04.25-.04.25.51.1.24.48.21.72-.13.13-.23.27-.25.42-.03.27,0,.55-.01.82,0,.09-.05.25-.08.26-.35.03-.26.28-.26.48,0,.33,0,.66,0,.99,0,.11-.04.3-.08.31-.37.07-.27.35-.28.57,0,.32,0,.63,0,.95q0,.64-.62.71s-.05.03-.14.09c.04.16.06.49.15.51.29.08.26.26.26.46,0,.36.02.72-.01,1.08-.01.13-.17.23-.23.36-.04.08-.07.21-.04.28.06.1.18.17.27.25-.11.09-.22.17-.4.31v6.99c-.08.02-.11.02-.14.03-.18.06-.36.12-.54.17.17.06.34.1.5.17.07.03.16.08.18.14.02.07,0,.19-.05.23-.18.15-.4.27-.58.42-.05.04-.03.17-.05.27.25.02.46.03.69.04-.06.29.21.66-.29.74.04.1.04.24.11.29.21.15.27.62.08.76-.09.06-.17.14-.25.21.11.07.21.14.36.23,0,2.38,0,4.8,0,7.21,0,.09-.12.18-.18.28-.06.11-.17.22-.16.33,0,.12.12.23.18.35.05.09.14.16.16.25.12.45-.33.57-.52.84-.05.07-.12.12-.18.18.09.05.17.12.26.14.17.05.44-.09.44.25,0,.27.07.57-.44.56.09.25.15.44.23.63.05.12.2.23.2.34.02.75.02,1.49,0,2.24,0,.12-.11.27-.21.33-.19.13-.19.19-.01.33.11.09.22.24.23.36.02.99.01,1.98.01,2.97q0,.61-.6.66s-.05.02-.14.07c.18.2.32.43.52.57.32.23.32.91,0,1.13-.05.03-.02.29-.01.29.28.03.25.23.25.42,0,.2,0,.4,0,.6-.01.21.1.49-.27.52,0,0,0,.17,0,.27.38,0,.28.29.28.49,0,.83,0,1.67,0,2.5,0,.33,0,.65,0,1.03h-1.03v.67c.25,0,.46-.02.67,0,.13.02.34.13.33.2,0,.19.18.48-.18.57-.06.01-.14.1-.14.16,0,.05.09.11.14.16.07.07.16.13.19.21.01.04-.11.12-.17.18-.05.05-.11.1-.17.15.05.05.11.1.15.16.07.1.18.19.2.3.03.23.04.46,0,.69-.04.21-.14.42-.22.62-.05-.01-.09-.02-.14-.03,0,.69,0,1.38,0,2.07,0,.17.03.31-.23.38-.19.05-.2.21.05.3.07.03.07.24.1.37-.39.04-.22.35-.27.56-.11.45.31,1.03-.33,1.35-.03.02-.02.14-.02.21,0,.23.02.46,0,.69-.04.31.21.74-.32.89-.03,0-.04.16-.04.24,0,.22-.03.43,0,.65.06.44-.34.56-.53.82-.05.07-.13.11-.2.16.07.06.12.14.2.17.25.1.25.3.05.35-.3.08-.25.26-.26.45,0,.21,0,.42,0,.57-.29.1-.49.17-.7.24.1.09.2.18.32.3.27.44-.3.61-.4.98-.32.02-.64.03-1,.05.03.25.05.44.07.64.29-.41.62-.4,1.12-.25-.18.17-.29.29-.4.39-.06.19-.1.4-.18.6-.05.13-.17.24-.23.37-.05.1-.03.3-.08.31-.38.1-.27.4-.26.63,0,.29,0,.54-.39.55-.01.33.11.69-.35.72-.06.3.12.67-.33.75-.02,0-.03.13-.03.2,0,.14,0,.27,0,.41-.27.01-.46.02-.8.04.13.15.19.25.28.3.23.14.22.24,0,.39-.09.06-.15.2-.2.31-.04.12-.01.34-.07.36-.44.13-.25.48-.28.74-.02.18-.02.3-.24.42-.32.18-.57.5-.83.78-.02.02.08.16.13.24.06.1.18.27.16.29-.2.19-.42.36-.69.58v.91c-.32.06-.68-.05-.79.38-.02.08-.17.13-.26.19.11.07.22.15.37.25-.12.34.24.78-.33,1.11-.32.18-.46.7-.97.65-.04,0-.13.1-.12.13.03.06.09.15.15.16.16.03.33.03.5.04.02.03.05.07.07.1-.08.09-.16.18-.24.26-.04.05-.1.08-.14.13-.17.19-.32.39-.5.57-.13.14-.28.26-.42.39-.03.03.04.17.16.43.04.07.03.17.03.25,0,.29-.01.58,0,.86.03.39,0,.7-.53.62-.05,0-.13.11-.19.16.07.05.14.13.22.15.15.03.3.02.42.03.08.26.09.61.2.65.27.09.23.24.24.42,0,.1,0,.25.06.28.44.24.71.57.66,1.11.67-.03,1.05.25,1.08.92,0,.05.11.14.12.14.07-.04.15-.09.2-.16.13-.2.66-.25.71-.05.07.28.24.23.42.23.7,0,1.41.02,2.11,0,.29-.01.4.14.49.35.18-.11.35-.31.53-.32.77-.04,1.55-.02,2.33,0,.09,0,.19.11.27.18.06.05.1.11.15.16.06-.06.11-.13.17-.19.06-.06.18-.16.2-.14.13.1.26.33.36.31.15-.02.26-.29.41-.31.39-.05.79-.02,1.21-.02,0,.23-.02.39,0,.54.01.07.1.13.16.2.05-.07.14-.13.15-.21.03-.16.02-.33.03-.5h1.8c0,.19-.01.36,0,.53,0,.06.09.12.13.18.06-.06.17-.11.18-.18.03-.16,0-.33,0-.56.58,0,1.11,0,1.64,0,.07,0,.13.11.19.17.05.05.09.15.15.16.05,0,.12-.08.18-.13.1-.07.2-.2.3-.2,1.13-.01,2.27-.01,3.41,0,.09,0,.22.06.27.13.2.31.5.32.72,0,.05-.07.15-.14.23-.14.33-.02.66-.02.99,0,.08,0,.15.11.23.18.06.05.1.15.16.15.06,0,.11-.09.17-.13.1-.07.2-.19.31-.2,1.02-.01,2.04-.01,3.06,0,.09,0,.18.11.27.18.06.05.1.15.15.15.05,0,.1-.09.16-.14.1-.07.2-.19.3-.19.53-.02,1.06-.02,1.59,0,.1,0,.19.1.28.17.07.05.12.12.18.18.05-.06.09-.12.15-.17.07-.06.16-.12.24-.17.06.08.14.16.17.25.03.15.03.3.04.46.1.02.16.04.21.03.14-.03.28-.07.42-.11-.09-.08-.19-.15-.27-.24-.05-.06-.09-.15-.08-.22.01-.06.11-.15.16-.15.08,0,.16.07.23.13.06.06.11.14.16.21.06-.06.12-.13.18-.18.06-.06.13-.14.2-.15.04,0,.11.09.16.14.06.06.12.13.17.19.06-.07.12-.13.16-.2.13-.21.98-.22,1.11-.01.21.33.49.32.69,0,.04-.06.12-.12.19-.12.41-.01.82,0,1.26,0,.01.18,0,.31.03.44.03.11.1.2.15.3.06-.11.14-.21.17-.32.03-.12.02-.25.03-.41,1.5,0,2.98,0,4.45.02.11,0,.24.32.33.31.15-.03.25-.25.4-.31.22-.09.83.24.89.47.02.08-.13.27-.22.28-.26.04-.54.01-.82.01.08.34.75.42,1.39.23.01-.19.02-.39.03-.58.26-.16.7.1.76-.39,0-.02.13-.04.2-.04.32,0,.63,0,.95,0,.08,0,.19.05.24.12.22.32.49.33.7.02.05-.07.18-.14.27-.14,1.49,0,2.99,0,4.48,0,.09,0,.21.02.27.09.16.19.28.4.44.59.03.04.14.06.19.04.05-.02.1-.1.1-.16.01-.18,0-.36,0-.56.58,0,1.08-.02,1.58.02.14.01.27.32.39.31.15,0,.27-.26.43-.31.2-.06.51-.1.63,0,.3.27.49.07.79.02.68-.12,1.4-.04,2.11-.03.07,0,.19.09.2.15.01.07-.06.17-.11.24-.06.08-.14.14-.21.2.1.05.2.12.31.13.11.02.22-.02.34-.03.02-.25.03-.47.05-.71,1.02,0,2,0,2.97,0,.09,0,.21.11.27.19.13.22.2.21.3-.02.13-.29.27-.29.43,0,.03.06.2.06.3.08,0-.38.29-.27.5-.27,1.71,0,3.42.02,5.13-.02.49,0,.63.34.89.6.05.05.11.14.16.14.05,0,.11-.09.15-.15.24-.28.41-.63.9-.59.53.04,1.06,0,1.59.01.19,0,.43-.07.47.24,0,0,.18,0,.26-.03.12-.06.23-.21.34-.21,1.24-.02,2.47-.01,3.71,0,.1,0,.29.08.28.11-.04.36.16.61.41.82.06.06.14.1.21.15.04-.07.1-.13.11-.2.02-.13,0-.26,0-.35-.03-.05-.04-.06-.05-.07-.1-.09-.21-.18-.3-.28,0,0,.09-.11.14-.17.08.08.15.2.26.24.08.03.21,0,.3-.04.08-.04.13-.16.21-.19.04-.01.15.1.18.17.12.24.2.26.34,0,.15-.29.6-.28.76,0,.04.06.11.14.16.14.05,0,.11-.09.16-.14.06-.06.12-.13.18-.19.07.07.12.16.2.2.09.04.2.04.31.05.01-.35.28-.26.48-.26,1.81,0,3.62,0,5.43,0,.18,0,.37,0,.55,0,.03.04.06.07.09.11-.08.1-.16.21-.24.31-.05.06-.14.16-.14.17.15.17.31.34.48.49.02.02.13-.03.17-.07.04-.05.03-.17.08-.19.29-.14.5-.26.03-.45-.01,0,.05-.33.09-.33.27-.03.7-.12.79,0,.28.4.34.18.64.02.34-.18.85-.04,1.29-.04.02.27.03.47.04.67.11.05.23.07.31.14.09.07.16.17.24.26.03-.13.07-.25.1-.38.02-.09.02-.19.04-.29.29-.09.69.09.77-.37,0-.02.08-.03.12-.03.47,0,.95-.01,1.42,0,.07,0,.12.17.21.2.09.04.29.03.29.02.04-.28.25-.24.43-.24,1.31,0,2.62,0,3.92,0,.13,0,.29.11.38.22.15.17.21.17.33-.02.06-.09.19-.18.3-.2.26-.03.52,0,.77,0,.18,0,.39-.04.43.24,0,.02.23.04.24.03.15-.5.5-.19.81-.25,0,.2-.02.36,0,.52.01.07.1.14.15.2.05-.07.14-.13.15-.21.02-.16,0-.33,0-.53,1.77,0,3.48,0,5.19,0,.05,0,.15.02.16.04.07.48.51.24.78.38,0,.12,0,.25.03.37.03.1.1.19.15.29.05-.1.14-.19.15-.29.02-.25,0-.5,0-.79.81,0,1.56,0,2.3,0,.06,0,.15,0,.16.03.18.47.34.37.51,0,0-.02.1-.04.12-.02.12.11.25.33.36.31.14-.02.26-.21.4-.32.03-.02.08,0,.13,0,1.68,0,3.36,0,5.04,0,.13,0,.29.11.38.22.14.16.17.14.3-.02.24-.31.48-.65.96-.56.13.02.4,0,.4-.04.09-.45.46-.27.63-.31.26-.27.44-.51.66-.7.3-.26.66-.47.58-.97-.02-.14,0-.28,0-.43.05.01.09.02.14.03.07-.17.2-.33.21-.5.02-.69,0-1.37,0-1.98.21-.27.65.08.71-.45h-1.03c-.01-.16,0-.27-.03-.38-.06-.27.2-.66-.3-.75.03-.11.04-.24.1-.34.05-.09.15-.16.31-.31-.23-.02-.31-.01-.38-.03-.14-.03-.28-.08-.42-.12.09-.09.19-.18.26-.28.04-.07.03-.17.05-.26-.54.04-.77-.23-.78-.74-.32-.03-.26-.28-.27-.49,0-.08-.04-.23-.07-.23-.35-.03-.28-.29-.3-.51,0-.08-.08-.16-.13-.23-.07-.13-.19-.25-.21-.38-.04-.21,0-.43,0-.58-.14-.13-.3-.21-.33-.32-.06-.23-.08-.39-.28-.61-.18-.19-.26-.6-.46-.9-.1-.15.07-.48-.29-.5.04-.12.06-.25.11-.36.04-.09.11-.16.19-.28-.29-.02-.49-.04-.7-.06-.02-.23,0-.6-.07-.63-.5-.17-.25-.56-.32-.85-.02-.1-.06-.27-.11-.28-.3-.03-.22-.24-.24-.42-.01-.1-.03-.27-.06-.27-.38-.04-.28-.32-.31-.55,0-.07-.07-.19-.12-.2-.34-.04-.23-.29-.26-.49-.03-.24.08-.47-.26-.68-.29-.18-.59-.55-.47-1.04.03-.12-.16-.3-.24-.45-.16-.2.06-.54-.38-.65-.06-.01-.02-.42-.03-.64.11.01.3,0,.31.04.16.46.26.35.39-.01.02-.05.19-.05.21-.11.06-.14.1-.31.11-.46,0-.06-.08-.12-.12-.19-.07.08-.14.17-.21.25-.05.04-.11.1-.17.1-.29.01-.59,0-.79,0-.36-.49.08-.71.27-1.04-.3-.02-.51-.03-.7-.04-.03-.06-.06-.08-.06-.11-.01-.21,0-.43-.03-.64-.01-.11-.07-.24-.15-.31-.27-.21-.27-.58,0-.77.19-.13.14-.16-.01-.32-.2-.21-.53-.33-.57-.72-.04-.4.3-.92-.32-1.18-.04-.01-.02-.16-.02-.25,0-.26,0-.52,0-.78,0-.09-.03-.26-.07-.27-.39-.05-.27-.34-.27-.56-.01-.45,0-.89-.01-1.34,0-.1-.08-.27-.15-.29-.36-.1-.19-.38-.19-.57,0-.19-.17-.46.21-.55.21-.05.19-.18,0-.32-.11-.08-.21-.24-.22-.37-.02-.6,0-1.21-.02-1.81,0-.28.17-.66-.32-.75-.03,0-.06-.13-.06-.19,0-.86,0-1.72,0-2.55.15-.1.26-.17.37-.24-.09-.06-.2-.12-.26-.2-.06-.07-.1-.17-.1-.26-.01-.29,0-.57,0-.86,0-.58,0-1.17,0-1.8h1.32c.07-.45.72-.17.86-.61-.45-.15-.98.17-1.22-.39,0-.01-.1.01-.17.02-.01.22-.03.43-.04.66h-.72v-4.95c.12-.08.23-.16.34-.23-.09-.06-.2-.11-.27-.19-.06-.07-.09-.17-.09-.26,0-1.74,0-3.48,0-5.22,0-.09.08-.26.13-.26.26-.01.25-.18.25-.36,0-.19-.02-.38.26-.39.03,0,.1-.21.07-.23-.22-.2-.46-.38-.71-.58,0-.33-.02-.67,0-1.01,0-.11.12-.21.2-.3.05-.06.15-.11.15-.16,0-.05-.1-.1-.14-.16-.08-.11-.19-.23-.21-.35-.03-.21-.02-.43,0-.64,0-.21-.09-.49.28-.5,0-.09,0-.2-.03-.28-.06-.13-.23-.23-.24-.36-.03-.5-.02-1.01,0-1.51,0-.12.11-.27.21-.33.18-.12.21-.18.03-.33-.11-.09-.24-.24-.24-.36-.02-.62-.02-1.24,0-1.85,0-.12.16-.24.22-.37.04-.08.02-.19.02-.29-.32,0-.25-.25-.25-.44,0-2.85,0-5.69,0-8.54,0-.11.01-.23.02-.32.13-.09.24-.16.35-.24-.09-.06-.19-.12-.27-.19-.05-.04-.09-.12-.09-.18,0-.3,0-.59,0-.9.28-.02.49-.03.75-.05-.03-.11-.04-.2-.08-.28,0-.02-.1,0-.12-.02-.16-.28-.62-.34-.57-.78,0-.09-.08-.19-.13-.28-.07-.12-.18-.24-.2-.36-.03-.23-.01-.46,0-.69,0-.19-.07-.43.24-.45-.03-.1-.02-.24-.08-.28-.22-.14-.25-.29-.01-.41.32-.16.24-.21-.02-.37-.21-.13-.43-.39-.47-.63-.08-.4-.03-.83-.02-1.25,0-.1.07-.2.13-.28.05-.08.14-.13.21-.2-.1-.04-.19-.1-.29-.12-.12-.03-.25-.02-.35-.03-.03-.04-.04-.05-.04-.06,0-.34,0-.69-.02-1.03,0-.1-.06-.27-.11-.28-.28-.05-.23-.25-.23-.43,0-.26,0-.52,0-.78,0-.09-.05-.24-.1-.24-.45-.08-.24-.44-.25-.66,0-.21.14-.42.22-.63.04.01.07.02.11.03v-.6c-.12.05-.21.08-.29.11-.02,0,0,.07-.02.08-.09.07-.18.13-.26.19-.05-.09-.12-.17-.15-.27-.08-.29.18-.68-.29-.88-.08-.03-.03-.42.01-.64.02-.1.16-.17.25-.26-.14-.03-.29-.07-.43-.1-.07-.02-.14-.02-.25-.04,0-.25.02-.49,0-.73,0-.1-.1-.19-.16-.29-.06-.09-.12-.18-.18-.27.09-.05.18-.13.27-.14.25-.02.5,0,.8,0-.03-.28-.05-.47-.07-.67-.04,0-.08-.01-.12-.02-.04.08-.07.18-.14.22-.09.06-.21.07-.32.11-.07-.47-.49-.24-.76-.36-.01-.2-.02-.4-.03-.63-.4.02-.34-.26-.35-.52,0-.19-.02-.54-.08-.55-.34-.07-.28-.3-.3-.52,0-.08-.08-.16-.12-.24-.07-.13-.22-.27-.2-.38.09-.61-.32-.88-.72-1.17-.07-.25.16-.65-.36-.66v-.53c-.14-.13-.25-.22-.35-.31.09-.08.19-.16.27-.26.04-.05.09-.14.08-.17-.03-.06-.11-.12-.18-.13-.17-.02-.33,0-.46,0-.17-.48-.31-.9-.46-1.32-.01-.03-.06-.06-.09-.08-.31-.24-.69-.43-.61-.92,0-.04-.01-.12-.03-.12-.48-.07-.24-.49-.41-.72-.13-.12-.21-.26-.27-.41-.03-.09.01-.24-.04-.29-.3-.28-.63-.54-.93-.82-.07-.07-.08-.22-.13-.37.3,0,.52.02.73,0,.13-.02.24-.11.36-.17-.11-.05-.23-.1-.34-.16-.13-.07-.28-.12-.38-.23-.15-.16-.22-.15-.34.04-.05.08-.32.14-.33.13-.17-.31-.61-.51-.4-.91-.27-.21-.5-.38-.72-.56-.13-.11-.33-.24-.33-.35,0-.36-.17-.59-.41-.82-.17-.16-.31-.37-.49-.52-.31-.26-.67-.47-.58-.98.03-.18.02-.37,0-.56,0-.08-.08-.15-.13-.23-.06.06-.15.1-.19.17-.15.26-.26.25-.41-.01-.11-.2-.26-.41-.44-.53-.41-.25-.7-.54-.63-1.05-.07-.02-.12-.05-.15-.03-.43.17-.56-.31-.86-.42-.02,0,0-.22.05-.32.04-.09.14-.17.21-.25-.11-.04-.23-.08-.34-.11-.26-.07-.63.18-.77-.3-.04-.16-.24-.28-.38-.4-.2-.17-.46-.29-.62-.49-.28-.34-.51-.71-1.03-.6-.04-.13-.05-.27-.12-.33-.18-.16-.4-.27-.57-.43-.04-.04.03-.24.09-.34.05-.09.15-.15.31-.3-.26-.02-.37-.03-.48-.03-.21-.01-.57.05-.62-.05-.15-.32-.39-.3-.66-.31-.05,0-.12-.06-.16-.11-.14-.19-.26-.41-.42-.58-.15-.15-.35-.36-.52-.36-.53,0-.68-.42-.96-.72-.63-.05-.88-.27-.98-.88-.01-.08-.09-.15-.14-.22-.06.06-.11.14-.18.18-.11.06-.32.13-.34.11-.24-.37-.48-.7-.99-.66-.04,0-.08-.09-.13-.14-.25-.23-.4-.54-.84-.6-.3-.04-.54-.4-.92-.36-.01,0-.02-.05-.04-.07-.29-.34-.74-.39-1.08-.63-.07-.05-.27-.01-.28-.05-.11-.44-.48-.25-.68-.31-.21-.25-.39-.46-.62-.73-.23,0-.7.12-.8-.02-.23-.33-.53-.28-.85-.33,0-.15,0-.28-.03-.4-.02-.11-.09-.21-.14-.31-.06.07-.11.18-.19.22-.11.05-.24.05-.36.07-.03-.39-.32-.27-.55-.29-.18-.02-.51-.01-.52-.07-.09-.41-.4-.21-.62-.28-.22-.06-.42-.15-.63-.23l.03-.12c-.19-.01-.39-.02-.59-.04-.02-.24-.04-.43-.07-.68-.7,0-1.39,0-2.07,0-.12,0-.35-.02-.36-.07-.09-.46-.44-.25-.69-.29-.18-.03-.39.06-.46-.25-.05-.21-.2-.19-.31.03-.04.09-.19.13-.29.19-.07-.32-.6-.38-.48-.83.02-.07-.12-.17-.19-.26-.04.02-.07.05-.11.07-.02.21-.03.42-.05.69-.24-.04-.61-.01-.65-.11-.12-.35-.38-.24-.6-.26-.17-.02-.47,0-.48-.06-.1-.44-.42-.28-.63-.29-.11.13-.2.24-.29.35-.11-.1-.22-.2-.4-.36-.84,0-1.77,0-2.7,0-.12,0-.33-.05-.33-.09-.04-.35-.3-.23-.49-.26-.23-.04-.58.16-.65-.28,0,0-.22-.02-.26.04-.29.35-.89.34-1.16,0-.04-.05-.18-.03-.27-.04-.03.43-.37.29-.58.27-.35-.03-.81.23-1.02-.31-.04-.11-.17-.22-.28-.28-.07-.04-.21.01-.3.06-.07.04-.14.19-.17.18-.09-.03-.15-.12-.23-.18-.07-.05-.14-.1-.21-.15-.04.07-.09.13-.11.21-.02.08.02.2-.02.25-.07.09-.18.21-.28.21-.15,0-.3-.07-.45-.12.08-.09.16-.18.24-.26.37-.41-.48-.27-.27-.61-.09-.02-.17-.03-.26-.05,0,.33-.57.39-.41.82.02.05-.11.15-.17.23-.07-.08-.18-.16-.2-.25-.03-.15,0-.32-.02-.47-.02-.12-.1-.23-.15-.35-.06.12-.14.24-.17.37-.03.17,0,.35-.02.51-.01.07-.11.17-.18.18-.06,0-.14-.09-.19-.16-.03-.04,0-.12-.01-.17-.04-.12-.1-.23-.15-.34-.06.12-.15.24-.16.37-.03.21,0,.42,0,.63-.04.03-.08.05-.12.08-.13-.11-.26-.22-.43-.36-.13.04-.49-.22-.53.25-.13-.03-.27-.05-.39-.1-.07-.03-.18-.16-.18-.15-.17.15-.32.32-.49.47-.1.09-.22.21-.33.21-.62.02-1.24,0-1.85.01-.11,0-.3.04-.3.08-.04.38-.33.22-.53.26-.35.07-.82-.22-1.01.33-.02.04-.18.04-.28.04-.26,0-.52,0-.78,0-.09,0-.26.05-.26.08-.04.37-.31.25-.52.28-.24.03-.57-.14-.65.28,0,.04-.18.06-.27.06-.27,0-.55,0-.82.01-.09,0-.19.08-.28.13-.13.07-.25.19-.38.21-.21.04-.43,0-.71,0,.1.43-.19.36-.44.37-.07,0-.19,0-.2.04-.13.48-.53.24-.81.31-.12.03-.31.07-.32.12-.04.31-.26.25-.45.26-.08,0-.23.02-.24.05-.08.47-.45.27-.71.31-.11.02-.32,0-.33.04-.11.46-.51.24-.68.3-.16.16-.25.26-.34.36-.09-.1-.18-.21-.31-.35-.04,0-.14-.02-.24,0-.11.03-.21.09-.31.14.07.06.15.12.21.19.05.07.11.15.12.23,0,.04-.08.14-.12.13-.09,0-.19-.04-.25-.09-.08-.07-.12-.18-.18-.27-.03.02-.06.03-.1.05-.02.21-.05.42-.07.66-.22.01-.44.03-.64.04-.12.36-.12.35-.5.37-.2,0-.5-.01-.59.11-.29.36-.54.71-1.1.6-.02.11-.02.25-.05.26-.33.07-.39.62-.85.47-.05-.02-.14.07-.19.12-.29.31-.49.75-.93.62-.21.19-.42.3-.5.46-.16.34-.26.32-.42.02-.03-.06-.12-.11-.19-.12-.03,0-.12.09-.12.14,0,.27-.09.43-.31.64-.33.33-.58.69-1.06.63-.08.14-.11.26-.2.34-.18.16-.38.3-.57.45-.1.08-.2.18-.3.27-.04-.14-.08-.28-.13-.42-.04-.09-.1-.18-.15-.26-.06.09-.16.18-.17.28-.03.24,0,.48,0,.72-.35.19-.67.37-.91.5-.2.34-.32.69-.57.91-.26.23-.49.65-.87.46-.54.41-.74,1.14-1.52,1.07-.05.24-.01.56-.14.66-.4.31-.71.69-1.06,1.05-.32.32-.73.52-.69,1.06,0,.02-.03.05-.05.06-.31.16-.5.59-.91.38-.1.15-.17.26-.25.35-.27.27-.63.46-.56.95.02.16-.03.37-.12.5-.16.22-.36.47-.6.58-.3.14-.37.63-.83.51-.06-.02-.16.07-.24.11.06.06.12.12.16.19.06.1.17.26.14.31-.1.17-.25.33-.41.45-.32.23-.68.42-.63.91,0,.04-.02.11-.04.12-.39.06-.26.37-.31.6-.02.07-.13.16-.2.16-.07,0-.16-.09-.2-.16-.03-.07.01-.18-.02-.25-.04-.1-.11-.19-.17-.28-.05.1-.14.19-.15.29-.02.47,0,.95,0,1.39-.13.09-.32.16-.33.24-.04.28-.21.22-.38.19Zm39.97,116.58s0,.09,0,.14c.67,0,1.35,0,2.02,0,.18,0,.39-.04.43.24,0,0,.18.02.26-.02.11-.05.2-.2.3-.21.43-.02.86-.02,1.29,0,.09,0,.23.07.26.15.15.35.2.38.48.22.08-.04.14-.11.21-.17-.07-.06-.15-.1-.2-.17-.06-.07-.11-.17-.16-.25.08-.04.15-.13.23-.13.4-.01.8,0,1.21,0,.02.26.04.47.06.72.29,0,.54.01.8,0,.07,0,.14-.09.22-.15-.07-.06-.13-.15-.2-.16-.15-.03-.31,0-.47,0v-.74h1.36c0-.56.44-.29.68-.39.19-.44.18-.43.51-.06.03.04.22,0,.28-.05.24-.26.4-.63.85-.59.07,0,.2-.06.21-.1.03-.34.29-.25.49-.26.19,0,.39,0,.6,0,.02-.27.04-.47.06-.68.24-.01.44-.02.55-.03.23-.28.41-.66.61-.68.36-.03.57-.22.8-.41.12-.1.19-.24.31-.35.18-.17.38-.31.55-.49.17-.18.31-.39.48-.57.31-.3.64-.57.96-.86.22-.2.43-.4.63-.62.16-.18.38-.37.43-.59.1-.45.37-.78.85-.83.06,0,.16-.01.16-.03.08-.48.52-.26.79-.38v-.81c-.14-.18-.24-.28-.31-.41-.01-.02.12-.17.18-.17.27,0,.49-.01.6-.32.04-.12.19-.2.3-.29.06-.05.15-.1.21-.09.06.01.14.1.15.16.03.16.03.33.04.53.25-.02.45-.03.66-.04-.01-.1,0-.15-.03-.18-.1-.12-.22-.24-.33-.35.16-.05.33-.08.49-.15.09-.04.16-.15.24-.22-.23-.1-.38-.08-.51-.1-.23-.03-.58.16-.63-.28-.08.02-.18.03-.25.08-.11.07-.21.17-.32.25-.04-.03-.08-.06-.12-.09.03-.22,0-.6.09-.63.41-.12.26-.42.29-.66.02-.21-.07-.45.27-.54.16-.04.33-.22.4-.38.03-.08-.16-.25-.3-.46.05-.14-.21-.52.28-.61.03,0,.07-.09.07-.14,0-.63,0-1.25,0-1.87-.11-.02-.15-.03-.19-.04-.17-.04-.34-.08-.51-.12.09-.12.21-.22.26-.35.03-.07-.05-.25-.11-.27-.33-.11-.48.01-.5.39,0,.1-.02.2-.04.34-.65,0-1.3,0-1.94,0-.07,0-.14-.15-.22-.19-.09-.05-.21-.05-.31-.07,0,.36-.26.27-.46.27-1.48,0-2.96,0-4.44,0-.38,0-.61-.05-.56-.5,0-.07-.13-.15-.2-.22-.15.18-.33.34-.46.53-.18.27-.95.28-1.1,0-.13-.23-.21-.25-.34,0-.15.29-.59.27-.76-.01-.04-.06-.11-.14-.17-.14-.05,0-.1.1-.16.15-.06.06-.12.17-.18.17-.06,0-.16-.09-.18-.16-.07-.24-.26-.24-.31-.07-.11.41-.41.23-.63.22-.07,0-.12-.29-.16-.45-.02-.09.02-.21-.01-.3-.03-.1-.1-.2-.16-.3-.06.1-.15.19-.16.29-.05.46-.4.79-.86.79-.1,0-.22.04-.3,0-.16-.09-.31-.32-.45-.31-.17,0-.31.27-.49.3-.28.06-.57.03-.86,0-.1,0-.24-.08-.29-.16-.13-.25-.21-.26-.35,0-.15.27-.96.24-1.11-.02-.03-.06-.1-.12-.16-.14-.03-.01-.09.08-.14.11-.12.08-.24.22-.36.22-.73.02-1.47.02-2.2,0-.13,0-.25-.16-.38-.21-.08-.03-.26-.02-.26-.01-.04.28-.24.24-.43.24-.95,0-1.9,0-2.84,0-.35,0-.75.12-.93-.5-.13.61-.51.49-.83.5-.14,0-.3.03-.43,0-.13-.04-.24-.17-.37-.22-.09-.03-.21-.03-.3,0-.14.05-.25.21-.38.21-.5.03-1.01.02-1.51,0-.1,0-.27-.04-.29-.1-.13-.32-.22-.39-.36-.01-.02.06-.13.11-.2.11-.28.01-.57,0-.86,0-.02-.28-.04-.5-.06-.72-.11,0-.18-.03-.25-.02-.13.02-.26.06-.39.1.08.09.18.16.24.26.05.07.1.19.07.26-.03.06-.15.12-.24.12-.37.01-.75,0-1.12.01-.27.01-.48-.02-.49-.35-.29,0-.61-.15-.71.28,0,.03-.25.05-.26.02-.2-.56-.34-.26-.52.02-.04.06-.17.06-.25.08v1.15c.15.17.32.27.33.39.03.21.13.48-.25.57-.16.04-.15.25.1.3.07.01.16.13.16.19,0,.06-.11.12-.16.19-.07.08-.14.15-.27.3.35.02.56.03.81.04-.04.3.24.64-.26.8-.07.02-.08.3-.09.46,0,.05.07.11.11.16.07-.08.14-.17.22-.24.06-.05.14-.12.2-.11.06,0,.16.09.16.15,0,.08-.05.21-.11.23-.27.09-.29.19-.05.35.18.12.36.25.5.41.04.05,0,.21-.04.29-.06.1-.17.17-.25.26.13.04.26.07.38.1.09.02.19.03.3.05v.91c.58.56,1.38.9,1.08,1.89.28.03.48.04.69.06.02.22.03.41.04.58.22.17.47.28.6.48.2.3.61.53.45,1.01-.02.06-.02.15,0,.21.02.07.08.13.12.2.07-.05.14-.1.2-.15.07-.06.14-.19.18-.18.09.03.15.12.22.19.16.16.31.33.47.49.23.22.47.43.78.71.1.02.34,0,.5.1.18.13.27.39.44.55.19.18.42.32.64.45.16.09.33.15.5.22l-.04.13h.57c.29.39.5.75,1.08.74.37,0,.75.25,1.12.39.02,0,.04.05.04.07.01.29.22.24.41.24.2,0,.4,0,.49,0,.23.22.38.36.52.51.06.06.11.13.16.2.06-.06.11-.15.18-.18.12-.04.26-.05.39-.07.02.35.28.25.48.25.3,0,.61-.02.9.01.18.02.35.13.52.2Zm-6.88-158.58c-.17.41.15.9-.38,1.22-.37.22-.62.63-.93.95-.18.19-.36.39-.54.57-.05.05-.13.12-.19.11-.07-.01-.13-.1-.19-.16-.08-.07-.16-.13-.31-.25v.65c.13.1.23.18.33.26-.08.09-.17.18-.24.28-.05.07-.1.17-.1.25.03.27-.03.48-.28.48-.09.25-.14.45-.23.65-.06.13-.2.24-.21.37-.03.35-.01.7-.01,1.09-.23,0-.4-.03-.54.01-.07.02-.16.23-.14.25.15.15.31.3.5.4.27.15.25.25,0,.41-.06.04-.05.2-.07.3.33.05.25.3.25.5,0,2.4,0,4.8,0,7.2,0,.18.02.36.03.58.3,0,.56-.01.81,0,.08,0,.19.08.2.15.01.06-.07.15-.12.22-.06.08-.13.14-.19.21.08.04.16.11.24.12.22.02.47-.05.51.31,0,.04.28.07.43.07.06,0,.12-.09.18-.14-.07-.07-.18-.12-.21-.21-.04-.11-.06-.25-.03-.36.03-.09.15-.15.23-.22-.12-.04-.25-.07-.37-.12-.11-.05-.21-.13-.31-.19.1-.06.2-.18.3-.19.59-.02,1.18,0,1.68,0,.17-.16.27-.34.39-.35.41-.04.82-.01,1.26-.01,0,.22-.02.38,0,.53.01.07.11.12.17.18.05-.06.12-.11.13-.17.02-.15,0-.31,0-.35.17-.19.25-.35.38-.41.1-.05.27,0,.39.03.06.02.1.13.16.22.21-.33.8-.5,1.14-.36.05.02.1.09.12.14.12.26.21.25.34,0,.04-.07.16-.14.25-.14.05,0,.13.13.15.21.03.15.02.31.03.46.05.02.1.04.14.07.22-.34.44-.67.72-1.1h6.97c0,.13.02.23.02.33,0,.1.01.2.01.24.14.13.25.22.35.32.05.05.1.11.15.17.06-.06.12-.12.18-.18.19-.17.36-.38.58-.5.06-.03.26.28.39.28.13,0,.25-.27.4-.29.29-.05.6-.02.9-.01.08,0,.22.03.23.07.09.39.39.26.62.27.32.01.63,0,.95,0,.49,0,.89.26,1.09.72.21-.07.57.2.62-.28,0-.03.12-.06.18-.07.28,0,.57,0,.88,0,.02.21,0,.39.05.55.02.05.26.09.26.09.19-.54.64-.18.96-.27.04-.01.17.09.17.13,0,.08-.07.16-.12.23-.07.08-.16.15-.31.29h1.1c-.12-.24-.3-.44-.31-.65-.03-1.31-.02-2.61,0-3.92,0-.14.17-.27.22-.42.03-.09.02-.26-.04-.3-.25-.19-.28-.57-.03-.75.18-.12.29-.93.11-.99-.38-.14-.26-.42-.27-.67-.01-.4-.02-.81,0-1.21,0-.13.15-.25.21-.39.04-.09.03-.2.05-.3-.35-.01-.23-.28-.27-.47-.02-.08-.06-.19-.13-.23-.32-.22-.33-.94,0-1.15.06-.04.13-.13.12-.18,0-.05-.11-.12-.17-.13-.16-.02-.33,0-.52,0,0-.22,0-.38,0-.53,0-.16.01-.44-.04-.45-.43-.11-.26-.47-.31-.68-.26-.22-.57-.37-.71-.62-.21-.38-.31-.83-.45-1.24-.24-.12-.7.16-.68-.39-.29-.09-.63.08-.8-.36-.05-.14-.4-.57-.83-.39-.03.01-.12-.06-.12-.09,0-.29-.21-.24-.39-.26-.28-.03-.66.16-.76-.31,0-.03-.13-.04-.2-.04-.21-.01-.45.05-.49-.27-.1.02-.24.01-.29.07-.22.28-.56.28-.76-.01-.04-.06-.13-.13-.19-.13-.32.02-.58-.03-.68-.56-.2.71-.66.54-1.04.55-.5.01-1.01.01-1.51,0-.23,0-.55.13-.58-.3,0-.03-.14-.07-.22-.07-.22-.01-.43,0-.65,0-.21,0-.48-.09-.53.27,0,.02-.25.06-.34.01-.1-.05-.16-.18-.23-.28-.07.11-.14.22-.23.37-.14,0-.31,0-.48,0-1.22,0-2.44,0-3.66,0-.13,0-.38.04-.38.09-.05.35-.3.24-.5.25-.33.01-.66,0-.99,0-.1,0-.28,0-.28.04-.08.44-.44.29-.68.39-.35.24-.73.43-1.12.62-.01,0-.04-.03-.07-.04-.17-.17.16-.57-.31-.65Zm-11.56,141s.07.08.1.12c.31,0,.63,0,.94,0,.43,0,.77.35.78.79,0,.11-.02.23,0,.34.03.11.1.2.15.3.06-.11.15-.21.17-.33.03-.24,0-.48,0-.73.18-.01.3,0,.4-.03.11-.04.2-.12.3-.18-.1-.05-.2-.11-.3-.14-.29-.08-.71.2-.85-.31,0-.02-.1-.03-.16-.03-.43,0-.86-.01-1.29,0-.09,0-.17.12-.25.18Zm-32.04-26.41c-.11,0-.23-.02-.34,0-.1.02-.19.08-.28.12.07.07.14.13.2.21.06.08.09.17.14.26-.5.21-.21.38,0,.62.09.11.03.35.04.56.18,0,.33.01.47,0,.06,0,.14-.07.17-.13.02-.04-.04-.15-.08-.16-.42-.08-.24-.41-.23-.62,0-.12.31-.24.29-.34-.02-.14-.21-.25-.32-.38-.03-.03-.03-.07-.06-.13Zm-3.85,26.17h1.82c-.08-.13-.13-.29-.18-.28-.32.01-.59-.04-.75-.36-.05-.1-.14-.19-.23-.25-.08-.04-.19-.02-.29-.02.04.34-.08.59-.38.76-.01,0,0,.08.02.15Zm105.45-88.72c.14.16.23.26.32.37.05-.13.09-.26.16-.37.06-.12.16-.22.21-.34.04-.09.04-.19.06-.29-.22,0-.47-.17-.62.16-.04.09-.21.17-.32.17-.14,0-.28-.1-.41-.17-.08-.04-.14-.11-.2-.16-.04.08-.11.16-.12.24-.01.12.01.25.02.41h.89Zm-99.03,47.18s-.08-.07-.12-.11c-.19.2-.46.37-.53.61-.09.3-.03.65-.01.98,0,.06.13.12.21.18.15-.21.38-.4.43-.63.08-.32.02-.68.02-1.02Zm51,60.99c-.19,0-.35-.02-.5.01-.05.01-.07.16-.11.25.49.05.2.52.38.74h1.36c-.06-.25-.1-.45-.15-.65-.11.11-.23.21-.35.32h-.58c-.02-.22-.03-.42-.05-.67Zm-32.69-19.43c0-.3.01-.56,0-.81,0-.07-.09-.14-.14-.21-.17.2-.4.37-.51.6-.14.3.16.38.34.54.19.16.8.35,1,.2.05-.04.04-.16.07-.27-.26-.01-.47-.02-.75-.04Zm23.41,17.61c.03.25-.02.52.09.64.26.3.6.51,1.04.39.09-.03.17-.09.26-.14-.09-.05-.18-.14-.26-.14-.36.04-.49-.12-.45-.47.01-.08-.02-.16-.03-.26-.07-.01-.12-.03-.18-.03-.13,0-.25,0-.48,0Zm-47.17-36.22c-.56-.12-.57-.11-.63.42-.01.1-.11.19-.18.27-.05.07-.11.12-.17.18.08.04.15.11.23.12.54.06.87-.38.75-.99Zm74.82,19.73c-.33,0-.6,0-.87,0-.06,0-.12.09-.18.13.06.05.11.13.18.14.18.02.38-.03.56.02.43.13.66-.2.91-.41.03-.03-.18-.36-.29-.54-.03-.05-.16-.09-.21-.06-.05.03-.08.14-.09.21-.01.14,0,.28,0,.51Zm-9.01-124.98c-.43-.05-.41-.07-.77-.35-.12-.09-.37-.02-.56-.02,0,.08-.01.22.01.23.3.1.39.61.84.44.03,0,.1.13.16.19.05.05.12.09.18.13.04-.06.11-.12.12-.19.02-.14,0-.28,0-.44Zm-20.89-16.26c.05-.24.09-.45.16-.66.03-.09.15-.16.23-.24-.07-.04-.14-.12-.2-.11-.15.02-.31.06-.44.14-.12.07-.21.21-.35.35v.52h.6Zm23.3,1.86s.07-.04.11-.07c0-.27.02-.54-.01-.8,0-.07-.16-.12-.24-.17-.07.46-.49.25-.75.37,0,.12-.04.23-.02.34.02.1.09.2.14.3.06-.07.12-.14.19-.21.05-.05.12-.14.17-.13.07.02.13.1.2.15.08.07.15.15.22.22Zm-25.42,137.63h-1c0,.05-.02.11-.03.16.13.03.26.06.39.1.11.04.22.11.33.17-.08.08-.16.14-.23.23-.06.08-.09.17-.15.29h.69v-.95Zm-39.46.3c0,.22-.01.36,0,.5,0,.06.07.14.13.17.04.02.15-.03.17-.08.16-.45.28-.37.48,0,.05.09.33.08.5.08.04,0,.13-.16.12-.17-.2-.17-.38-.39-.61-.48-.22-.08-.5-.02-.79-.02Z"/>
  <path d="m145.23,69.98c0,.44.02.72-.01,1,0,.07-.17.2-.24.19-.26-.05-.64-.75-.48-.94.13-.15.42-.15.73-.25Z"/>
</svg>