<?xml version="1.0" encoding="UTF-8"?>
<svg id="Layer_1" data-name="Layer 1" xmlns="http://www.w3.org/2000/svg" viewBox="0 0 180 180">
  <path d="m172.86,104.69c.08.3.22.57.22.84.02,1.92.02,3.85,0,5.77,0,.27-.14.54-.22.8.07.25.2.53.22.82.04.6,0,1.21.02,1.82.01.43-.06.73-.58.68-.06,0-.12.04-.23.08.07.08.11.16.15.16.62-.03.68.33.67.83-.03,1.58-.02,3.16,0,4.73,0,.49-.15.76-.64.64-.61-.15-.71.43-1.06.69.41,0,.85.34,1.19-.18.05-.07.22-.13.31-.1.08.03.18.18.18.27.01,1.13.06,2.26-.02,3.38-.03.4-.41.78-.64,1.17-.04.07-.14.14-.14.2.05.77-.7.98-1.06,1.45-.23.3-.78.35-1.19.51-.08.03-.22,0-.25.05-.33.57-.88.35-1.35.37-.71.03-1.42.03-2.13,0-.3-.01-.6-.15-.85-.22-.28.08-.56.22-.84.22-1.65.02-3.29.02-4.94,0-.2,0-.4-.17-.59-.27-.09-.04-.17-.1-.26-.14-.24-.1-.49-.19-.81-.31-.1.1-.28.33-.52.47-.22.13-.5.21-.76.21-.08,0-.21-.35-.22-.54-.04-.74-.38-1.08-1.13-1.12-.26-.01-.51-.14-.87-.24-.06.05-.23.21-.39.36.24.4.49.79.71,1.2.04.07-.04.31-.07.31-.26.01-.67.1-.77-.04-.37-.48-.6-.45-.94.03-.19.27-1.19.05-1.38-.17-.37.1-.66.23-.97.25-.78.03-1.56,0-2.34.02-.38,0-.54-.13-.51-.51.01-.24-.03-.48-.05-.72-.08,0-.15,0-.23,0-.02.23-.07.46-.06.69.02.4-.12.57-.54.55-.52-.03-1.05-.06-1.56,0-.73.09-1.23-.2-1.58-.79-.06.02-.12.02-.12.04q-.25.75-1.07.75c-1.91,0-3.81,0-5.72,0-.77,0-.77,0-.8-.75,0-.14-.03-.29-.05-.43-.05,0-.11,0-.16-.01-.02.21-.07.43-.07.64,0,.38-.11.57-.53.56-1.87-.02-3.75,0-5.62-.02-.17,0-.38-.11-.51-.23-.25-.24-.45-.25-.71-.01-.13.12-.33.25-.5.25-3.76.01-7.53,0-11.29.02-.39,0-.52-.16-.52-.53,0-.23-.04-.45-.06-.68-.06,0-.11,0-.17,0-.02.17-.05.34-.06.51-.02.68-.02.68-.71.68-1.75,0-3.5,0-5.25,0-.18,0-.37.05-.62.09.72.65.73,1.39.09,1.81.77.43.42,1.17.42,1.76,0,.57.38,1.3-.51,1.71.68.26.53.81.53,1.3,0,.83,0,1.66,0,2.5q0,.64-.51,1c.68.24.51.79.51,1.28,0,.85.02,1.7,0,2.55-.01.46.13.69.62.63.15-.02.32-.03.47,0,.2.04.39.13.59.2-.1.17-.21.34-.34.56.03.02.1.12.17.13.65.06,1.02.39,1.12,1.04,0,.06.06.12.09.18.09.16.18.32.27.47-.19.05-.38.12-.57.15-.2.03-.42.03-.62,0-.27-.05-.53-.15-.81-.23-.25.07-.55.22-.85.22-1.33.03-2.67.02-4,0-.22,0-.43-.22-.65-.26-.21-.04-.45-.01-.66.04-.18.04-.35.23-.52.23-3.88.01-7.77,0-11.65.02-.4,0-.58-.13-.56-.54.01-.21-.02-.43-.14-.66-.04.07-.12.14-.13.22-.11.6-.56.98-1.17.98-2.32,0-4.65,0-6.97,0-.26,0-.53.06-.71-.28-.05-.1-.45-.05-.67,0-.21.05-.4.27-.59.27-4.3.02-8.6.02-12.9,0-.25,0-.49-.19-.77-.3-.13.41-.56.32-.94.32-3.14,0-6.28,0-9.42,0-.26,0-.53.06-.71-.28-.05-.09-.45-.05-.67,0-.21.05-.4.27-.6.27-2.84.02-5.69.02-8.53,0-.24,0-.49-.18-.79-.29-.3.57-.92.28-1.45.3-.95.04-1.16.28-1.29,1.22-.05.41-.44.77-.7,1.21-.04-.09-.03-.06-.02-.06q.75.31.75,1.18c0,4.32,0,8.63,0,12.95,0,.41-.04.8.56.72.02,0,.04,0,.05,0,.64.74,1.51.27,2.26.41.19.03.36.13.54.19-.09.14-.23.27-.27.42-.07.21-.07.45-.09.67.07.02.15.04.22.06.18-.35.33-.72.55-1.04.1-.15.33-.3.49-.29.16,0,.33.19.46.34.11.13.17.44.23.43.21-.02.44-.1.59-.24.39-.37.78-.58,1.38-.58,4.21.04,8.43.01,12.64.03.25,0,.69.12.72.26.06.27-.1.59-.2.99.02,0,.26.12.32.05.27-.25.59-.53.68-.86.1-.35.22-.46.54-.45,1.56,0,3.12,0,4.68.02.23,0,.46.19.56.24.42-.09.77-.24,1.12-.24,1.72-.02,3.43-.02,5.15,0,.22,0,.43.22.66.26.23.04.48.03.72-.02.2-.04.37-.24.56-.24,5.03-.01,10.06-.01,15.09,0,.24,0,.47.17.62.23.34-.09.64-.23.94-.23,2.88-.02,5.76-.01,8.63,0,.14,0,.29-.03.41.02.12.05.2.18.3.28-.11.09-.2.22-.32.26-.15.05-.32.03-.53.13.62.09,1.04.34,1.04,1.02.13-.33.25-.66.41-1.07,0,0-.14-.05-.16-.13-.03-.14-.04-.35.04-.44.19-.18,1.07-.05,1.24.16.26.31.49.28.78.02.13-.12.34-.23.52-.23,3-.01,6-.04,9,.02.41,0,.8.44,1.24.71-.06.03-.03.02-.03.01q.29-.75,1.18-.75c3.07,0,6.14,0,9.21.01.27,0,.54.14.8.22.28-.07.6-.21.92-.22,1.72-.02,3.43-.02,5.15,0,.31,0,.61.14.96.23.14-.56.52-1.14.52-1.94-.06-4.94-.03-9.88-.03-14.82,0-.77-.34-1.11-1.11-1.11-1.6,0-3.19,0-4.79-.01-.2,0-.39-.2-.6-.25-.22-.05-.62-.12-.67-.03-.19.36-.48.29-.76.3-.09,0-.17,0-.26,0-.38-.01-.84.1-1.11-.08-.2-.13-.15-.65-.21-.99-.01-.06-.07-.11-.21-.31-.22.42-.38.77-.57,1.09-.07.12-.19.24-.31.27-.18.05-.38.02-.57.02-3.09,0-6.17,0-9.26,0q-.78,0-.8-.75c0-.12-.02-.24-.04-.36,0-.03-.05-.04-.18-.15-.03.31-.07.54-.07.77,0,.34-.13.52-.49.5-.35-.02-.69,0-1.04-.02-.11,0-.28-.1-.31-.19-.03-.09.05-.26.14-.34.19-.18.44-.31.61-.51.09-.11.13-.33.09-.47-.02-.1-.21-.21-.33-.22-.26-.03-.52-.02-.78-.01-.36.01-.64,0-.63-.5,0-.47.29-.47.62-.47,2.43,0,4.85,0,7.28,0,.4,0,.8,0,1.2,0,.34,0,.57.07.56.49,0,.13.15.39.21.38.19-.02.42-.09.54-.22.34-.36.63-.7,1.22-.67,1.14.05,2.29,0,3.43.03.28,0,.55.14.83.22.28-.07.6-.21.93-.22,1.13-.03,2.25-.03,3.38,0,.27,0,.54.19.82.29.11.04.23.06.34.11.14.06.28.14.42.22-.1.14-.2.27-.3.41-.02.03-.03.06-.08.18.18.03.44.13.49.07.22-.3.77-.35.71-.89-.04-.29.14-.41.41-.41.62,0,1.25-.04,1.87.02.24.03.48.27.68.45.46.42.9.86,1.32,1.33.07.08.05.39-.04.46-.35.29-.32.51,0,.79.11.09.17.3.17.45.01,1.02,0,2.05.01,3.07,0,.31-.11.44-.43.52-.3.08-.67.26-.82.51-.33.55-.5.27-.73-.16-.29.46-.2.83-.11,1.22.47-.3.86-.59,1.29-.82.41-.23.8,0,.81.48,0,.52.03,1.04,0,1.56-.02.27-.15.54-.21.77.07.27.21.56.21.85.03,1.18.02,2.36,0,3.54,0,.28-.14.56-.21.83.07.27.2.56.21.85.02,1.21.02,2.43,0,3.64,0,.2-.17.41-.26.61-.04.07-.11.14-.12.21-.08.65-.43.98-1.08,1.12-.42.09-.78.44-1.17.66-.13.07-.28.14-.42.14-1.73,0-3.47,0-5.2,0-.33,0-.51-.1-.53-.47,0-.13-.23-.34-.36-.35-.13,0-.36.21-.37.34-.01.42-.23.48-.57.48-.64,0-1.28.01-1.92-.01-.22,0-.43-.12-.64-.19.11-.18.23-.35.34-.53-.43-.23-.56-.16-.69.32-.04.16-.26.28-.42.39-.04.03-.13,0-.2,0q-1.08.02-1.19-1.04c0-.09-.06-.18-.12-.33-.21.25-.39.46-.49.57.06.28.11.5.16.72-.21-.06-.42-.12-.54-.15-.33.09-.62.23-.9.23-2.18.02-4.37.02-6.55,0-.29,0-.57-.14-.85-.22-.26.07-.56.21-.87.21-1.06.03-2.12.02-3.17,0-.21,0-.43-.14-.61-.27-.25-.19-.44-.19-.68.02-.15.13-.37.25-.56.25-3.73.01-7.46.02-11.18,0-.24,0-.47-.16-.75-.26-.23.22-1.47.45-1.78.22-.13-.09-.17-.35-.18-.54,0-.12.14-.24.21-.36.12.09.24.19.36.28.04.03.08.06.05.04.39-.18.73-.34,1.17-.55-.21-.07-.32-.13-.43-.13-.42-.01-.83,0-1.25,0-.81,0-1.06.22-1.3,1.02-.04.14-.32.3-.49.31-.87.03-1.73.02-2.6.02-2.25,0-4.51,0-6.76-.01-.23,0-.46-.23-.7-.27-.23-.04-.48,0-.72.04-.16.04-.31.22-.46.23-.74.03-1.49.03-2.24,0-.22-.01-.43-.19-.67-.3-.41.47-2.1.48-2.52-.03-.62.51-1.69.49-2.19-.06-.25.33-.53.69-.77.16-.37.09-.68.23-1,.24-.8.03-1.59,0-2.39.01-.39,0-.8.05-.99-.41-.35.35-1.94.59-2.3.35-.08-.05-.12-.19-.15-.3-.04-.15-.06-.3-.12-.58-.14.19-.23.25-.22.31.06.62-.33.66-.79.63-.22-.02-.46.03-.67,0-.34-.05-.66-.15-.96-.22-.33.07-.68.22-1.03.22-3.24.02-6.48.01-9.73,0-.33,0-.62,0-.93-.3-.17-.17-.71,0-1.07.06-.18.03-.34.23-.51.23-2.44.02-4.89.02-7.33,0-.19,0-.37-.17-.56-.26-.07-.04-.14-.1-.21-.13-.43-.17-.9-.26-1.28-.51-.27-.18-.41-.56-.59-.86-.06-.1-.04-.24-.1-.33-.11-.15-.36-.27-.37-.42-.03-.59-.05-1.18.04-1.76.04-.27.32-.27.48.01.15.24.91.39,1.08.19.09-.11.12-.33.08-.47-.03-.1-.22-.16-.35-.22-.14-.07-.29-.13-.44-.19.08-.13.16-.26.23-.4.06-.12.15-.24.15-.36.02-.42.03-.83,0-1.25-.01-.14-.15-.34-.28-.38-.12-.04-.4.06-.42.14-.04.18.03.38.09.57.05.15.26.37.22.41-.17.21-.41.38-.62.56-.1-.12-.28-.23-.28-.35-.02-1.09-.03-2.18,0-3.28,0-.19.23-.37.38-.58-.44-.12-.41-.51-.41-.91,0-3.17.03-6.35-.02-9.52,0-.63.18-1.08.63-1.42.27-.2.45-.63.92-.52.04,0,.14-.29.23-.44.09-.14.19-.27.29-.4.09.14.22.28.25.43.05.26.04.53.06.95.14-.2.22-.26.22-.32-.02-.46.14-.73.65-.69.07,0,.16-.05.23-.11.47-.42.73-.42,1.09-.05.34-.1.62-.24.89-.24,4.94-.01,9.88,0,14.82,0,.09,0,.18-.02.26,0,.14.05.26.12.39.19-.07.12-.15.23-.2.36-.07.19-.15.4-.14.59,0,.06.28.16.42.15.11,0,.21-.17.29-.27.03-.04,0-.14.01-.2.07-.27-.19-.71.26-.79.43-.07.94-.24,1.19.2.36-.09.66-.23.97-.24,1.73-.02,3.47,0,5.2-.02.22,0,.42-.19.64-.28.24-.09.5-.16.71-.23-.18-.21-.36-.4-.52-.62-.1-.14-.22-.31-.23-.47-.02-1.77-.02-3.54,0-5.31,0-.17.21-.32.25-.5.05-.2.12-.5.02-.62-.43-.51-.41-1.22.15-1.64-.58-.24-.44-.73-.44-1.18,0-1.06-.03-2.12,0-3.17.02-.5-.16-.62-.63-.61-1.07.03-2.15.01-3.22,0-.15,0-.31-.1-.46-.15.07-.14.12-.29.2-.42.31-.48.14-.97.12-1.45l-.18-.06c-.16.33-.32.66-.5.98-.07.11-.2.22-.32.26-.15.05-.32.03-.49.04,0,.05,0,.11-.01.16.18.03.37.04.53.11.12.05.19.2.28.3-.1.08-.19.22-.29.22-.55.02-1.11.03-1.66,0-.16-.01-.31-.2-.36-.23-.39.1-.71.23-1.03.24-.66.03-1.32.02-1.98,0-.13,0-.26-.11-.38-.18.07-.12.14-.24.2-.37.07-.16.18-.34.16-.49-.01-.09-.25-.2-.4-.21-.71-.06-.75-.03-.75.72,0,.41-.14.57-.55.54-.36-.02-.73.02-1.09-.01-.2-.02-.39-.12-.59-.18.1-.18.19-.36.29-.54-.39-.21-.51-.23-1.01.4-.25.31-.49.32-.79.32-.4,0-.8.01-1.2,0-.12,0-.3-.07-.34-.16-.2-.45-.36-.91-.53-1.37-.01-.03-.05-.05-.17-.15-.05.45-.24.8.15,1.15.09.08.17.25.14.34-.03.09-.2.18-.31.19-.52.02-1.04.03-1.56,0-.13,0-.28-.19-.37-.32-.07-.12-.06-.29-.1-.56-.15.2-.21.3-.3.39-.36.39-.78.53-1.34.52-2.98-.04-5.96-.02-8.95-.02-.14,0-.28.02-.42,0-.19-.04-.37-.1-.56-.16.08-.18.16-.36.23-.51-.14-.14-.32-.32-.51-.52-.15.29-.66.44-.55.97,0,.05-.16.2-.19.18-.17-.07-.33-.19-.39-.22-.37.09-.68.24-1,.24-1.13.03-2.25.02-3.38,0-.24,0-.48-.1-.72-.15.11-.2.21-.4.32-.6-.75-.14-1.45-.85-2.39-.38.06.06.14.11.16.17.08.24.18.49.18.73,0,.08-.31.22-.48.22-1.01.02-2.01-.04-3.02.03-.6.04-.94-.25-1.29-.62-.08-.08-.17-.22-.25-.21-.61.03-.8-.54-1.24-.78-.12.17-.27.36-.37.51.23.14.56.33.88.56.09.06.2.27.16.32-.07.1-.22.18-.35.21-.17.03-.35.01-.52.01-4.61,0-9.22-.02-13.84.02-.62,0-.99-.28-1.39-.62-.09-.07-.16-.19-.26-.22-.78-.24-1.34-.68-1.47-1.54-.01-.08-.08-.14-.12-.21-.08-.13-.17-.25-.25-.38.14-.07.28-.15.43-.21.1-.04.21-.06.32-.09v-.15c-.25-.02-.51-.05-.76-.04-.35.01-.51-.13-.51-.48,0-.45-.08-.92.03-1.35.09-.33.38-.64.66-.88.28-.24.25-.44.1-.75-.09.07-.15.12-.21.16-.11.08-.23.15-.35.23-.07-.12-.21-.24-.21-.37-.02-.5-.03-1.01,0-1.51.01-.15.24-.27.29-.43.06-.21.11-.6.03-.64-.38-.18-.34-.49-.34-.79,0-3.61,0-7.21,0-10.82,0-.31.01-.62,0-.94-.02-.43.07-.72.59-.66.08,0,.18-.05.27-.08-.29-.17-.56-.33-.82-.49.13-.13.26-.27.42-.43-.72-.34-.45-1.02-.45-1.59-.01-5.18,0-10.37,0-15.55,0-.42-.11-.89.68-1.06-.81-.22-.68-.72-.68-1.17,0-1.66,0-3.33,0-4.99,0-.27-.04-.53.33-.68.27-.11.2-.94-.02-1.15-.14-.13-.29-.34-.29-.52-.02-4.73-.02-9.47,0-14.2,0-.24.23-.49.38-.78-.54-.13-.4-.64-.4-1.08,0-6.02.01-12.03-.02-18.05,0-.64.24-1.04.67-1.4.32-.27.33-.32.11-.78-.07.05-.12.11-.19.15-.11.08-.23.15-.34.23-.07-.12-.21-.24-.21-.37-.02-.78-.03-1.56,0-2.34,0-.15.24-.31.4-.41.11-.07.28-.06.52-.1-.31-.28-.55-.47-.76-.69-.1-.1-.17-.27-.17-.4-.01-1.18-.02-2.36,0-3.54,0-.17.15-.36.28-.49.26-.26.25-.45,0-.73-.16-.17-.25-.46-.25-.69,0-.09.32-.19.5-.28.11-.06.25-.09.34-.18.24-.23.46-.48.67-.73.08-.1.17-.22.18-.34.04-.35-.57-.88-.9-.77-.12.04-.25.22-.27.35-.04.32,0,.66-.03.99-.01.11-.17.2-.26.3-.09-.09-.25-.18-.25-.27-.02-.71-.02-1.42,0-2.13,0-.1.14-.23.25-.28.34-.18.69-.33,1.04-.48-.01-.06-.03-.13-.04-.19-.21-.02-.41-.07-.62-.06-.5.05-.68-.15-.67-.65.02-1.33,0-2.67,0-4.01,0-1.08.05-2.15-.02-3.22-.05-.84.14-1.51.81-1.88-.12-.3-.21-.52-.3-.75-.04-.09-.05-.25-.11-.27-.45-.16-.37-.53-.37-.87,0-.38,0-.76,0-1.14,0-.33-.11-.72.38-.84.04,0,.09-.08.08-.12-.05-.72.6-.99.94-1.45.31-.41.81-.67,1.11-1.08.22-.3.46-.31.75-.31.29,0,.59.06.74-.32.03-.08.28-.1.43-.1,3.88,0,7.77,0,11.65,0,.22,0,.45.18.72.3q.51-.43.8.5c.11-.13.2-.24.29-.35.36-.43.83-.51,1.36-.48.8.04,1.6-.01,2.39.02.22,0,.43.2.65.26.19.05.55.11.58.04.2-.41.54-.31.85-.32.23,0,.46-.03.67.01.15.03.28.17.42.26-.14.1-.27.21-.42.28-.11.05-.25.05-.38.07,0,.06,0,.11,0,.17.46,0,.93,0,1.39-.01.05,0,.13-.17.13-.25-.03-.51.28-.54.67-.53,3.07,0,6.14,0,9.21,0,.29,0,.57-.05.76.3.05.09.45.03.67-.03.21-.05.39-.26.59-.26,6.29-.01,12.59-.01,18.88,0,.24,0,.49.15.7.23.31-.08.62-.23.94-.23,4.73-.01,9.47-.01,14.2-.01.09,0,.18-.02.26,0,.17.06.33.16.5.24-.14.11-.29.21-.43.32-.13.12-.25.25-.38.37.14.11.27.26.42.32.52.19.77-.27,1.15-.54-.07-.06-.16-.11-.2-.19-.07-.11-.17-.25-.14-.34.03-.09.2-.18.31-.18,1.37-.01,2.74-.02,4.11,0,.13,0,.28.14.39.24.26.23.49.23.75-.01.12-.11.3-.23.45-.24,1.46-.02,2.91-.02,4.37,0,.21,0,.41.19.68.32.25-.5.8-.32,1.28-.33,1.35,0,2.71-.01,4.06,0,.23,0,.46.15.77.26.08-.05.26-.23.46-.25.92-.12.96-.07,1.03.86,0,.09.01.17.04.25.01.04.07.06.24.2.03-.35.07-.6.06-.84,0-.35.12-.51.49-.49.31.02.62,0,.94,0,.1,0,.27,0,.29.05.22.5.65.31,1.02.38.21.04.39.19.63.31-.03.02.03,0,.03-.02-.03-.67.35-.77.92-.74.81.04,1.63-.01,2.44.02.29.01.58.16.84.23.37-.08.75-.23,1.12-.23,4.21-.02,8.43-.01,12.64,0,.28,0,.76.08.8.22.07.28-.09.62-.17,1.02.45.32.6-.36,1-.51-.09-.08-.19-.13-.23-.2-.07-.11-.14-.24-.13-.35,0-.07.17-.13.27-.17.1-.03.21-.01.31-.01,2.2,0,4.4,0,6.61,0,.39,0,.68.02.65.53-.02.38.31.31.53.3.25-.01.63.14.63-.31,0-.51.29-.54.68-.53.87.01,1.73,0,2.6,0,.31,0,.65-.09.84.32.04.08.54.08.58,0,.2-.41.53-.31.85-.32.14,0,.28,0,.42,0,.32.01.71-.11.74.62.35-.77.86-.62,1.32-.62,2.9,0,5.79,0,8.69,0,.48,0,.84.04.75.65,0,.03.02.07.04.09.02.03.05.04.09.07.78-.56,1.6-.84,2.6-.82,4.02.05,8.05.02,12.07.03.32,0,.69-.11.89.32.03.07.56.06.62-.04.22-.38.55-.34.81-.23.15.06.17.42.24.64.05.16.02.37.11.48.07.09.3.1.43.06.09-.03.18-.18.22-.29.04-.13.03-.28.01-.41-.05-.42.15-.55.54-.53.5.02,1.01,0,1.51,0,.27,0,.58-.07.67.31,0,.03.05.05.08.06.44.16.9.28,1.33.48.25.11.46.31.66.51.43.41.84.84,1.25,1.28.07.08.13.22.1.31-.03.09-.16.17-.26.19-.19.03-.38,0-.57.03-.14.02-.35.05-.41.14-.23.35-.39.28-.64.01-.11-.12-.37-.12-.56-.17-.03.08-.06.15-.1.23.31.17.63.32.93.5.11.07.2.19.3.28-.1.09-.2.21-.32.26-.13.05-.29.04-.48.07.42.34,1.31.29,1.61-.02.11-.11.23-.2.36-.29.14-.1.28-.18.43-.27.06.17.17.34.17.51.01,1.4,0,2.81.01,4.21,0,.37-.08.6-.51.59-.4,0-.34.33-.33.57,0,.24-.1.53.3.61.19.04.5.17.5.28.02.36.04.79-.14,1.08-.28.44-.28,1.28.01,1.72.18.28.17.72.16,1.08,0,.29-.14.57-.24.94.39.22.25.74.25,1.22,0,1.63,0,3.26,0,4.89,0,.35-.04.59-.49.62-.43.02-.82.57-.85,1.01-.03.45.22.99-.39,1.28.54.29.8.18.72-.33-.08-.54.3-.79.53-1.13.14-.2.39-.14.45.14.04.17.02.34.02.52,0,3.23,0,6.45,0,9.68q0,.85-.8,1.1c.13.12.23.24.36.33.46.34.45.82.45,1.33,0,9.95,0,19.9,0,29.85,0,.35.03.66-.3.98-.17.16.02.7.08,1.07.03.18.21.35.21.53.02,1.86.02,3.71,0,5.57,0,.18-.11.38-.23.52-.23.27-.24.49-.01.76.12.14.24.34.24.51.01,3.45.01,6.9,0,10.35,0,.18-.14.35-.22.53-.06.13-.13.26-.18.4-.03.1,0,.25-.06.3-.23.19-.5.38-.34.71.11.23.36.39.51.6.13.18.27.39.28.59.04.66.04,1.32,0,1.98-.01.26-.15.51-.22.74Zm-62.47-2.84c.42-.64.9-.93,1.64-.87,1.05.07,2.11,0,3.17.03.28,0,.56.15.9.24.15-.38.6-.26,1-.24.37.02.8-.17,1.06.32.03.07.39,0,.58-.06.19-.06.36-.21.56-.26.6-.15,1.02.17,1.34.6.22.3.41.26.61.15-.1-.23-.18-.41-.26-.59.19-.06.37-.15.56-.16.69-.02,1.39-.02,2.08,0,.17,0,.36.13.5.25.27.22.51.25.75-.02.29-.34.67-.31,1.02,0,.13.11.49.16.61.07.58-.43,1.61-.44,2.14.05.34-.48.73-.47,1.14-.06.22.21.41.37.39.71,0,.08.15.23.26.25.45.09.5-.19.5-.55,0-.69.01-.69.69-.7.36,0,.73,0,1.09,0q.81,0,1.02.74s.06.02.1.03c.03-.04.08-.08.08-.12-.06-.63.32-.67.81-.66,1.35.02,2.7,0,4.06,0,1.18,0,2.36,0,3.54.01.13,0,.26.11.38.17-.07.12-.12.26-.2.36-.05.05-.16.05-.24.07.88.4.33.68.05.98.36.07.67.26.77-.25.05-.24.18-.46.28-.71-.06-.1-.16-.28-.26-.46.21-.06.42-.18.64-.19,1.65-.02,3.29-.02,4.94,0,.2,0,.44.08.57.22.27.27.49.28.72,0,.35-.42.8-.19,1.2-.18.1,0,.18.37.28.57.03.06.09.11.15.19q.28-.81,1.18-.81c1.77,0,3.54.02,5.31-.01.54,0,.72.17.67.68-.02.18.05.38.08.57.07,0,.13-.01.2-.02.02-.21.05-.42.06-.63.02-.54.25-.74.74-.57.15.05.27.23.4.34,0-.05-.01-.1-.02-.15.28-.07.57-.21.85-.21,2.9-.02,5.79-.02,8.69,0,.45,0,.61-.13.61-.59,0-.32.15-.64.22-.92-.08-.24-.22-.5-.22-.75-.02-2.95-.02-5.89,0-8.84,0-.27.15-.54.22-.78-.07-.3-.21-.62-.22-.94-.02-1.73-.02-3.47,0-5.2,0-.29.15-.57.21-.78-.08-.32-.21-.6-.21-.89-.01-3.52-.01-7.04,0-10.56,0-.43-.13-.91.42-1.14-.55-.47-.54-.68-.11-1.24.09-.12.02-.4-.03-.59-.06-.23-.24-.43-.27-.66-.05-.36-.02-.73-.01-1.09,0-.45-.13-.94.46-1.22-.48-.27-.63-.51-.1-.82.18-.11.28-.37.4-.55,0,0-.13-.05-.26-.05-.39.02-.51-.17-.51-.54,0-4.46,0-8.91.01-13.37,0-.17.11-.38.24-.51.25-.27.24-.49.01-.76-.12-.14-.25-.34-.25-.51-.02-1.32-.02-2.64,0-3.95,0-.16.12-.34.23-.47.23-.26.26-1.23.06-1.51-.14-.2-.29-.46-.29-.7-.02-1.7-.03-3.4,0-5.1,0-.37.14-.74.22-1.18-.33-.25-.33-.3.15-.76-.6-.24-.45-.79-.34-1.16.11-.38.51-.69.8-1.05-.1-.02-.22-.07-.35-.06-.36,0-.49-.16-.49-.51,0-2.03,0-4.06.02-6.09,0-.17.12-.4.26-.5.3-.23.65-.41.99-.62-.19-.16-.46-.34-.66-.57-.31-.35-.59-.67-.63-1.25-.12-1.73.46-3.51-.36-5.2-.19-.38-.89-1.23-1.33-1.3-.12-.02-.3-.04-.33-.11-.21-.52-.64-.35-1.02-.38-.32-.02-.69.12-.89-.33-.03-.07-.42,0-.63.04-.14.04-.25.17-.38.26-.08-.15-.15-.31-.23-.46-.06-.11-.12-.31-.19-.32-.45-.03-.9-.01-1.35-.01.13.28.22.47.31.66-.21.05-.41.14-.62.14-.62.02-1.25,0-1.87.01-.37,0-.61-.06-.57-.51,0-.1-.08-.22-.14-.38-.26.24-.37.72-.75.28-.28-.31-.78-.34-1.1-.11.11.17.22.34.33.51-.19.07-.39.19-.58.19-1.68.02-3.36,0-5.05.01-.38,0-.54-.13-.52-.51.01-.24-.04-.49-.05-.64-.21.21-.38.38-.55.54.03.07.13.25.22.43-.2.06-.4.17-.6.17-.69.02-1.39,0-2.08,0-.3,0-.43-.1-.46-.41-.05-.48-.17-.52-.57-.32.09.18.18.37.27.55-.2.06-.4.12-.6.18-.03,0-.07,0-.1,0-4.75,0-9.5,0-14.25,0-.14,0-.28.02-.41-.01-.1-.02-.25-.09-.28-.17-.03-.08.04-.21.08-.32.09-.26.24-.5.26-.76.01-.13-.18-.37-.31-.4-.3-.07-.37.17-.37.42,0,.23-.02.45,0,.68.03.42-.14.58-.57.57-1.54-.02-3.09-.05-4.63.01-.66.03-1.05-.27-1.47-.66-.12-.11-.33-.17-.49-.16-.08,0-.13.23-.21.35-.1.15-.2.42-.31.42-.45.02-.98.24-1.21-.33-.24.13-.44.34-.65.34-1.79.03-3.57.02-5.36,0-.14,0-.31-.16-.4-.29-.2-.31-.37-.65-.54-.98-.07-.04-.13-.07-.2-.11.04.81-.56.41-.75.57.08.29.14.52.21.74-.22-.06-.45-.12-.58-.16-.3.09-.57.22-.83.23-.73.03-1.46,0-2.18.02-.46.01-.85,0-.78-.63,0-.06-.08-.13-.16-.24-.07.13-.16.22-.15.29.06.52-.23.6-.66.59-.88-.02-1.77.01-2.65-.02-.3-.01-.59-.15-.86-.23-.23.08-.48.22-.72.23-1.25.02-2.5.01-3.74.01-3.54,0-7.07,0-10.61,0-.77,0-.77,0-.8-.76,0-.15-.04-.3-.08-.58-.29.37-.62.6-.66.87-.07.4-.23.47-.57.47-1.53,0-3.05,0-4.58,0-.36,0-.62-.05-.58-.5,0-.11-.07-.22-.09-.27-.41.28-.76.72-1.13.73-2.04.07-4.09.03-6.14.04-.3,0-.43-.1-.45-.42,0-.15-.16-.29-.25-.43-.07-.12-.16-.24-.22-.37-.05-.13-.06-.27-.1-.44-.23.43-.52.77-.58,1.14-.07.43-.24.59-.63.52-.35-.06-.68-.16-1.05-.25-.16.06-.41.24-.65.24-3.57.02-7.14.02-10.71,0-.2,0-.38-.22-.59-.26-.23-.04-.48-.02-.72.02-.16.03-.3.24-.44.24-1.91.02-3.81,0-5.72.02-.34,0-.44-.14-.47-.46-.02-.26-.06-.64-.23-.76-.28-.2-.51.07-.68.34-.04.07-.16.1-.21.12.12.21.22.39.32.56-.21.06-.42.18-.64.18-.71.02-1.42-.02-2.13.02-.52.03-.85-.07-.81-.67,0-.07-.03-.14-.04-.21-.16.16-.21.22-.2.28.05.49-.2.6-.66.6-2.36-.02-4.72,0-7.07,0-.27,0-.53.03-.72-.29-.06-.09-.46,0-.69.05-.14.03-.26.22-.4.22-.48.03-.97.02-1.46,0-.13,0-.25-.12-.38-.19.07-.12.14-.24.21-.36.04-.06.09-.12.17-.22-.35-.05-.58-.14-.81.21-.26.39-.66.6-1.23.6-3.48-.04-6.97-.01-10.45-.03-.38,0-.76-.15-1.13-.23-.16.03-.46.18-.57.1-.41-.31-.75-.71-1.12-1.07-.06.03-.11.06-.17.09.09.2.2.39.27.59.05.14.07.29.1.44-.15-.04-.31-.06-.46-.12-.06-.02-.1-.11-.15-.17,0,.05,0,.1,0,.15-.27.08-.53.21-.8.22-.9.03-1.8.03-2.7,0-.3-.01-.6-.16-.82-.22-.32.08-.59.22-.87.22-2.03.02-4.06,0-6.09.02-.41,0-.92-.2-1.14.4-.01.03-.09.06-.14.06-.72.02-1.03.65-1.47,1.04-.34.3-.68.33-1.03.03-.14-.12-.47-.17-.61-.08-.18.11-.25.39-.36.59.25-.02.31.63.9.49.53-.13.67.17.66.67-.02,2.43-.03,4.86,0,7.28.01.77-.09,1.41-.85,1.79.52.48.95.91.85,1.66-.08.56.01,1.14-.02,1.71-.02.35-.13.7-.22,1.1.05.14.21.38.21.61.02,3.73.02,7.46,0,11.18,0,.2-.21.39-.27.6-.05.19-.1.55-.03.58.38.19.31.51.31.81,0,.42.03.84,0,1.25-.03.32-.15.63-.24,1,.05.09.23.27.24.45.02,1.51.01,3.02.02,4.53,0,.32-.16.43-.45.42-.14,0-.29-.04-.41.01-.15.06-.34.17-.38.3-.04.11.1.41.16.41.17,0,.35-.1.51-.18.12-.06.23-.15.35-.23.07.14.21.27.21.41.02.64.04,1.28,0,1.92-.02.33-.15.66-.25,1.08.04.1.24.35.24.59.03,1.42.02,2.84.01,4.26,0,.48-.38.72-.79.5-.14-.08-.23-.26-.35-.41-.24.59-.16.72.4.73.74.02.74.02.74.76,0,2.57,0,5.13,0,7.7,0,.74,0,.74-.74.75-.31,0-.56.03-.53.44.03.41.33.29.57.34.23.05.6.1.64.24.1.3.08.67-.01.96-.04.13-.4.15-.61.23-.04.01-.06.07-.12.13.07.04.13.1.18.1.57-.04.64.29.62.75-.03.97-.03,1.94,0,2.91.02.54-.04.93-.71.89-.02,0-.05.07-.1.15.12.04.21.09.3.09.38,0,.51.17.5.54-.01,1.87-.01,3.75,0,5.62,0,.39-.16.52-.53.52-.23,0-.45.04-.62.05.16.38.3.69.4.93.21-.09.39-.16.57-.24.06.19.16.37.16.56.02.8.01,1.59,0,2.39,0,.44.14.94-.26,1.11.1.38.25.67.25.97.02,2.62.01,5.24.01,7.85,0,1.41,0,1.4,1.42,1.41.48,0,1.04-.2,1.31.35.23-.11.41-.21.6-.3-.05.23-.1.47-.15.72h.96c-.12-.23-.22-.41-.31-.59.22-.06.43-.18.65-.18,1.63-.02,3.26-.02,4.89,0,.22,0,.45.15.65.27.28.18.51.22.76-.06.1-.11.27-.22.41-.22,1.06-.02,2.12-.05,3.17.02.28.02.56.36.79.6.04.05-.18.34-.28.52q.73.59,1.02.4c-.12-.14-.36-.29-.35-.42.02-.16.24-.3.4-.48-.1-.06-.28-.1-.29-.17-.03-.14-.03-.4.06-.44.36-.21,1.56.02,1.76.22.31-.1.56-.25.8-.25,1.27-.02,2.53-.01,3.8-.01q.8,0,1.01.74s.06.02.12.04c.41-.56.93-.81,1.69-.8,4.89.04,9.78.02,14.67.02.16,0,.32-.02.47.01.11.03.27.12.29.21.02.09-.1.22-.18.32-.06.07-.14.11-.2.16.23.19.42.35.56.46.2-.32.34-.66.59-.89.18-.16.49-.21.75-.22.07,0,.16.31.23.48.04.1.08.2.14.35.09-.1.18-.15.17-.19-.07-.71.38-.69.88-.69,5.01.01,10.02,0,15.03.02.3,0,.59.16.82.22.29-.08.55-.22.81-.22,2.77-.02,5.55-.02,8.32,0,.3,0,.6.15.85.22.3-.08.6-.22.89-.22,7.59-.01,15.19,0,22.78,0,.4,0,.84-.11,1.02.4.07-.03.12-.03.13-.05.22-.3,1.51-.51,1.78-.28.04.03.08.08.08.13-.02.77.75.95.99,1.4.49-.33.93-.64,1.39-.96-.07-.02-.2-.03-.31-.08-.15-.08-.27-.19-.41-.29.14-.09.28-.24.42-.25.55-.03,1.11-.01,1.66-.01q.9,0,1.19.85Zm-57.27,25.45c.27-.11.49-.28.72-.28,2.17-.02,4.33-.02,6.5,0,.17,0,.33.19.51.23.21.05.45.07.66.03.23-.04.43-.26.65-.26,1.46-.02,2.91-.01,4.37-.01,1.13,0,2.25,0,3.38.01.13,0,.26.12.38.18-.07.12-.11.27-.2.37-.19.2-.4.37-.64.59.57.16,1.19-.15,1.2-.59,0-.55.29-.56.7-.56,2.18,0,4.37,0,6.55.02.3,0,.6.16.94.25.22-.5.78-.16,1.21-.27.74-.2.6.52.86.94.09-.21.16-.3.15-.38-.05-.5.24-.57.64-.55.43.02.87-.02,1.3.01.34.03.67.14,1.04.22.14-.06.37-.22.6-.22,1.56-.02,3.12-.02,4.68,0,.17,0,.48.14.48.23,0,.24-.1.49-.18.74-.02.05-.09.09-.14.13.07-.06.15-.12.22-.18.11.23.21.47.32.72.23-.35.47-.61.74-.06.02.05.11.07.18.09.29.1.58.19.87.29.21-.62.12-.85-.53-1.42-.1-.09-.14-.24-.21-.36.13-.06.25-.17.38-.18.42-.02.9-.15,1.14.37.16-.14.27-.34.4-.35.46-.04.93-.02,1.4,0,.08,0,.22.17.2.23-.03.11-.13.23-.24.27-.18.07-.39.08-.59.11,0,.06.01.12.02.18.44,0,.88.02,1.31-.02.09,0,.22-.22.22-.34.01-.41.23-.47.58-.47,4.3,0,8.6,0,12.9.02.18,0,.35.2.54.25.22.06.63.13.67.05.21-.4.55-.31.86-.31,12.22,0,24.45,0,36.67,0,.14,0,.31-.05.41.01.29.17.55.38.82.58-.1.12-.18.29-.31.36-.14.08-.33.07-.43.09.17.4.32.72.49,1.11.28-.59.59-.54.97-.04-.17-.86.41-.88,1.09-.92-.26-.16-.41-.2-.44-.28-.06-.13-.1-.38-.04-.42.37-.29.72-.59,1.29-.51.61.08,1.25,0,1.87.03.32.02.63.15.98.23.14-.06.37-.23.6-.23,1.58-.02,3.16-.02,4.73,0,.17,0,.36.13.51.24.27.22.49.23.76,0,.15-.12.36-.25.54-.25,1.37-.02,2.74-.01,4.11-.01.46,0,.96-.15,1.22.43.38-.51.35-.48.8-.14.13.09.46.01.64-.09.33-.19.6-.63.91-.65.53-.03.9-.22,1.22-.63-.29-.21-.62-.42-.08-.74.09-.05.11-.28.12-.42.01-.45-.02-.9.02-1.35.03-.32.15-.63.22-.93-.07-.23-.21-.48-.22-.73-.03-.69-.01-1.39-.01-2.08q0-.79.76-.99s.09-.05.19-.11c-.15-.06-.22-.13-.29-.12-.6.08-.68-.26-.67-.75.02-1.16,0-2.32.02-3.48,0-.29.14-.57.23-.94-.22-.19-.39-.77-.15-.89.16-.08.45.08.72.14.12-.24.29-.59.51-1.06-.27.05-.5.07-.71.14-.16.06-.29.2-.44.3-.06-.19-.16-.37-.16-.56-.01-1.51,0-3.02-.01-4.53,0-.41.07-.68.56-.63.11.01.23-.06.42-.12-.12-.11-.16-.18-.22-.2-.24-.07-.59-.06-.69-.22-.13-.2-.06-.53-.08-.81,0-.16,0-.31,0-.47q0-.71-.72-.71c-4.99,0-9.99,0-14.98,0-1.63,0-3.26-.01-4.89,0-.46,0-.69-.11-.64-.61.02-.2-.04-.4-.08-.71-.21.23-.33.34-.43.47-.1.12-.25.25-.25.38.01.43-.22.48-.56.47-.9-.01-1.8.02-2.7-.01-.32-.01-.63-.15-.99-.24-.09.35-.47.25-.81.25-10,0-20.01,0-30.01,0-.44,0-.94.14-1.1-.27-.36.11-.63.25-.91.26-1.4.02-2.81.01-4.21,0-.38,0-.81.11-1-.51-.25.64-.71.51-1.12.51-.41,0-.86.12-1.08-.6-.17.66-.55.7-.86.56-.16-.07-.23-.43-.27-.67-.05-.23,0-.49-.04-.72-.02-.1-.18-.23-.27-.23-.13,0-.37.13-.36.18.03.32.11.63.19.94.03.12.18.29.14.34-.08.1-.23.19-.37.2-.4.03-.8.04-1.19,0-.3-.03-.6-.15-.92-.25-.1.05-.27.24-.45.24-1.53.02-3.05.02-4.58,0-.11,0-.29-.09-.32-.18-.03-.09.05-.25.13-.34.05-.07.18-.07.28-.1-.07-.09-.13-.17-.2-.26-.19.1-.41.17-.58.3-.42.32-.77.66-1.4.61-1.03-.08-2.08-.02-3.12-.02-.38,0-.76.02-1.14-.01-.16-.01-.31-.13-.47-.2.09-.13.18-.26.26-.38.03-.04.05-.08.1-.16-.09-.03-.17-.09-.24-.08-.52.06-.67-.2-.64-.67.01-.17-.05-.35-.08-.53-.15.09-.2.18-.19.25.12.58-.22.94-.56,1.33-.4.46-.89.49-1.43.46-.45-.02-.9,0-1.35,0-.47-.01-1,.17-1.2-.26-.37.1-.64.24-.92.25-.94.03-1.87.02-2.81,0-.42,0-.9.13-1.1-.37-.2.14-.37.34-.54.36-.66.04-1.32.02-1.98,0-.11,0-.28-.09-.31-.18-.03-.09.07-.23.14-.34.05-.07.13-.12.26-.25-.38-.02-.76-.25-.78.28-.01.44-.22.51-.59.51-1.98-.01-3.95,0-5.93,0-.1,0-.22.01-.31-.02-.08-.03-.19-.13-.19-.2,0-.1.07-.23.15-.28.09-.06.26,0,.35-.07.13-.1.3-.26.29-.38-.01-.11-.22-.27-.36-.29-.27-.05-.79.45-.78.77,0,.41-.2.49-.55.48-.94-.01-1.87.02-2.81-.02-.28,0-.56-.16-.89-.26-.33.53-.96.24-1.48.25-.52.02-1.15.26-1.44-.3-.28.12-.5.3-.73.3-3.61.02-7.21.02-10.82,0-.17,0-.37-.13-.5-.25-.26-.23-.46-.22-.71.02-.12.12-.31.23-.46.23-3.48.01-6.97.01-10.46,0-.15,0-.33-.12-.45-.23-.28-.27-.52-.27-.79.01-.1.1-.24.22-.37.22-1.96.01-3.92.02-5.88,0-.12,0-.34-.25-.33-.37,0-.19.13-.42.28-.56.18-.17.47-.23.64-.4.14-.14.2-.38.29-.57-.27-.06-.54-.15-.81-.18-.31-.03-.32.2-.37.44-.03.15-.22.28-.36.39-.13.1-.42.16-.42.24,0,.17.14.34.22.51.05.12.13.24.12.35-.01.07-.18.15-.28.16-.31.02-.62,0-.94.02-.37.02-.61-.07-.58-.51,0-.11-.08-.22-.12-.33-.2.32-.31.7-.54.8-.31.13-.72.04-1.08.04-.1,0-.21,0-.31,0-.42-.01-.9.13-1.2-.61-.08.72-.47.61-.81.61-1.58,0-3.16.01-4.73,0-.32,0-.63-.15-.92-.22-.22.07-.47.22-.72.22-1.94.02-3.88,0-5.83.01-.23,0-.49-.05-.53.32-.03.26-.17.5-.23.69.08.32.22.62.23.91.03,1.23.01,2.46.01,3.69,0,1.05-.26,1.31-1.31,1.35-.13,0-.27.04-.4.06.16.23.38.4.37.56-.01.14-.27.27-.43.41.55.34.53.32.13.77-.11.13-.06.4-.08.6.44-.33,1.15-.57,1.47-.32.19.15.23.57.24.86.02,3.52,0,7.04.02,10.56,0,.43-.22.95.36,1.23.03.01.04.09.04.15.04.64.4.96,1.02,1.02.1,0,.19.12.3.17.19.1.38.28.57.29,1.7.02,3.4.01,5.1.01.38,0,.81-.11,1.03.49.14-.62.56-.49.93-.49,1.89,0,3.78,0,5.67,0,.44,0,.93-.14,1.1.26.35-.1.62-.25.9-.25,1.18-.03,2.36-.01,3.54-.01,2.2,0,4.4.01,6.61,0,.46,0,.64.15.6.6-.02.2.04.41.06.61-.04-.08-.09-.15-.13-.23.21-.11.42-.23.61-.33-.05-.1-.14-.28-.23-.46.2-.06.4-.17.6-.17,1.21-.02,2.43.05,3.64-.03.99-.07,1.78.29,2.58.85.04-.12.1-.23.09-.34-.03-.46.24-.52.59-.49.3.03.77.51.83.83.02.14.09.27.13.41.05,0,.11-.01.16-.02.02-.2.07-.39.05-.58-.05-.5.14-.66.64-.65,1.13.03,2.25,0,3.38.01.38,0,.81-.1.98.42.53-.58,1.31-.59,1.69-.13Zm28.62,1.6c.11.24.2.42.29.61-.2.06-.4.13-.6.17-.15.03-.31,0-.47,0-2.5,0-4.99,0-7.49,0-.4,0-.58.11-.54.53.03.31.01.62,0,.94,0,.3.08.61-.31.8-.09.04-.1.49.02.63.4.5.42.75-.01,1.15.11.24.29.45.29.67.02,3.33.01,6.66,0,9.98,0,.15-.03.38-.11.42-.44.19-.3.56-.28.85,0,.14.18.34.32.39.25.08.42-.04.43-.35,0-.15.1-.3.17-.45.07-.16.23-.3.23-.46.01-.38.2-.48.53-.47.21,0,.42.01.62,0,.45-.03.76.06.69.61-.01.09.08.19.16.35.09-.15.17-.22.17-.28-.09-.68.34-.69.84-.69,1.8.01,3.61,0,5.41.02.34,0,.67.14,1.01.22.27-.07.59-.22.91-.22,2.69-.02,5.37-.02,8.06,0,.34,0,.67.15,1.1.24.38-.38.5-.38,1.11.06.09.06.23.1.34.09.47-.04,1.01.2,1.36-.35.03-.04.13-.05.2-.05,1.53,0,3.05,0,4.58,0,.11,0,.31.13.31.19,0,.12-.16.23-.19.35-.06.22-.16.49-.09.68.08.2.34.32.52.48.16-.36.31-.7.46-1.05-.07-.12-.18-.29-.29-.46.21-.07.42-.17.64-.2.2-.03.41,0,.62,0,.34-.01.57.08.56.49,0,.13.11.35.22.38.15.05.35-.03.53-.06-.16-.26-.27-.43-.38-.6.21-.07.42-.2.63-.21.73-.03,1.46-.03,2.18,0,.45.02.61-.13.6-.59-.03-1.28,0-2.57,0-3.85,0-.52-.02-1.04.01-1.56.01-.16.18-.31.27-.46.09.14.2.27.28.42.05.1.06.23.11.41.19-.42.34-.75.51-1.11-.28-.35-.99.27-1.14-.37-.1-.43-.23-.97.22-1.19-.1-.34-.23-.61-.24-.88-.03-1.02-.03-2.05,0-3.07,0-.32.15-.64.24-1-.65-.38.04-1.24-.47-1.89-.15.66-.62.49-1.01.49-1.42,0-2.84.01-4.26,0-.2,0-.38-.21-.58-.26-.22-.05-.62-.11-.67-.02-.19.35-.48.29-.76.3-2.84,0-5.69,0-8.53,0-.37,0-.73-.14-1.13-.22-.14.05-.35.21-.56.22-2.17.02-4.33,0-6.5.01-.31,0-.51-.07-.51-.42,0-.49-.29-.46-.62-.36Zm90.67-44.22s0-.01-.02-.02c-.08-.02-.17-.03-.26-.03-.77-.04-.75-.03-.8.74-.01.21-.19.4-.25.61-.06.19-.14.44-.06.59.1.2.34.33.53.48-.05-.06-.1-.12-.14-.18.2-.14.4-.28.61-.42-.31-.19-.55-.43.01-.71.06-.03.05-.19.09-.28.09-.24.18-.47.3-.77ZM70.86,14.03c.4.75,1.03.67,1.63.64.31-.02.52-.38.3-.57-.29-.26-.52-.74-1.04-.55-.32.12-.61.32-.9.48Zm25.98,130.7c-.31.24-.65.43-.89.71-.21.25,0,.59.34.6.35.01.67.04.95-.33.17-.22.36-.41.23-.64-.08-.15-.34-.19-.64-.34Zm48.66-43.14c-.31.3-.6.57-.89.85-.21.2-.17.54.06.64.39.17,1.25-.16,1.38-.56.05-.15-.02-.37-.11-.51-.1-.16-.28-.27-.44-.42Zm-134.77,1.58c.31-.53.59-1.01.93-1.58-.49,0-.94-.01-1.39.01-.07,0-.15.2-.19.31-.17.54.24.82.65,1.25Zm142.59-1.19c-.3.45-.24.64.18.71.13.02.33,0,.39.09.39.54.95.28,1.43.3.1,0,.31-.23.3-.34,0-.11-.2-.3-.33-.32-.3-.05-.62-.01-.93-.02-.4,0-.84.11-1.04-.42ZM48.97,13.78v-.24c-.31,0-.61.02-.91,0-.47-.04-1,.2-1.37-.35-.06-.09-.36-.01-.55-.01.32.3.48.78,1.01.68.06-.01.2.11.21.18.01.1-.04.23-.1.31-.07.08-.19.1-.32.16.53.26.72.2.75-.24.03-.38.23-.45.55-.45.25,0,.49-.03.74-.04Zm86.95,89.14c.34-.08.66-.17.99-.23.2-.03.43.03.62-.03.14-.04.32-.22.32-.34,0-.12-.19-.32-.31-.34-.3-.05-.62-.04-.93-.01-.47.05-.82.63-.68.94Zm19.67-88.18c0-.68.23-1.05.9-.93.12.02.33-.13.41-.26.05-.07-.07-.36-.14-.37-.18-.03-.39.02-.57.08-.1.03-.15.18-.25.24-.34.19-.7.35-1.09.54.27.26.45.43.73.7ZM48.47,144.99c-.29.11-.55.21-.82.3-.27.09-.35.5-.13.71.15.14.31.27.45.39.52-.38.74-.85.49-1.4ZM66.12,13.13c-.02.05-.04.1-.06.15.38.23.6.45.09.76-.1.06-.07.36-.11.65.43-.37.75-.61,1.02-.89.1-.1.15-.3.14-.44,0-.08-.18-.2-.29-.21-.26-.03-.53-.01-.79-.01Zm4.95,152.79c0-.08-.02-.17-.03-.25-.35.03-.8-.06-1.03.12-.17.14-.18.78-.01.92.21.19.66.11,1.01.15,0-.06.02-.12.02-.18-.1-.03-.21-.06-.3-.11-.16-.08-.31-.19-.47-.28.15-.09.29-.2.45-.28.11-.05.23-.07.35-.1Zm48.74-.21c.18.36.28.62.43.85.08.12.23.27.35.27.11,0,.31-.18.32-.28,0-.28,0-.74-.13-.8-.28-.13-.66-.04-.96-.04ZM17.72,14.73c.07.01.15.02.22.04.24-.27.49-.53.69-.82.03-.04-.18-.33-.32-.38-.25-.08-.85.45-.83.72.02.16.15.3.24.45Zm114.77,131.72c.21-.2.45-.34.55-.55.07-.14-.01-.54-.07-.54-.34-.05-.69-.03-1.01-.03.21.44.36.77.53,1.12Zm33.35-43.85c.27-.13.47-.28.69-.33.42-.1.48-.25.21-.66-.34.3-.33.28-.78.02-.16-.09-.4-.03-.54-.04.17.4.31.73.42,1.01Z"/>
  <path d="m153.02,48.32c-.81,0-1.48-.2-1.89-1.02-.26.47-.46.64-.8.15-.11-.15-.55-.07-.84-.09-.31-.02-.66.09-.87-.3-.04-.08-.25-.1-.38-.11-.37-.02-.77.08-.97-.4-.03-.07-.25-.08-.38-.09-.36-.01-.73.03-1.09-.02-.2-.03-.39-.18-.58-.28-.04-.02-.07-.09-.12-.09-.69-.15-1.37-.31-2.06-.45-.15-.03-.32.02-.47-.01-.13-.03-.25-.13-.37-.2.09-.12.17-.25.27-.37.04-.05.09-.08.27-.23-.56,0-.94-.24-1.35.2-.14.15-.58.08-.87.03-.22-.03-.42-.24-.64-.27-.45-.07-.98.15-1.31-.38-.03-.04-.14-.06-.2-.04-.69.17-1-.38-1.42-.73-.12-.1-.29-.18-.44-.18-.57-.02-1.14,0-1.72-.01-.35,0-.68.07-.97-.31-.12-.16-.58-.08-.89-.1-.28-.02-.61.08-.73-.31-.01-.04-.08-.07-.12-.08-.76-.16-1.52-.3-2.27-.47-.23-.05-.45-.18-.68-.27-.14-.05-.28-.12-.43-.13-.35-.03-.74.09-.9-.41-.02-.06-.25-.08-.38-.09-.38-.01-.77.03-1.14-.02-.21-.02-.4-.17-.6-.27-.04-.02-.07-.09-.11-.1-.65-.16-1.3-.3-1.95-.46-.18-.05-.35-.16-.52-.24-.15-.07-.3-.16-.45-.17-.38-.03-.77.02-1.14-.02-.21-.02-.4-.18-.61-.26-.19-.07-.38-.13-.57-.15-.42-.06-.91.16-1.21-.36-.04-.06-.23-.05-.35-.06-.36-.02-.77.1-.96-.4-.03-.08-.35-.07-.53-.09-.43-.05-.92.17-1.27-.35-.09-.13-.49-.06-.75-.07-.33-.02-.68.1-.9-.32-.05-.1-.38-.07-.58-.09-.42-.05-.92.17-1.2-.36-.03-.05-.16-.05-.24-.06-.38-.03-.77.07-1.05-.36-.08-.13-.49-.06-.75-.07-.35-.02-.64-.05-.98-.29-.34-.24-.93-.11-1.55-.15.6.64.59.78.14,1.37-.09.12-.1.34-.06.49.03.1.23.19.36.19.34,0,.48.14.45.47,0,.08,0,.22.04.25.58.3.32.84.37,1.29.03.26-.07.56.33.66.09.02.14.29.15.45.03.32-.07.68.34.84.03.01.06.06.05.08-.18.73.51,1.26.47,1.96,0,.13.01.29.09.39.46.63.47.78-.08,1.25.23.21.46.42.69.62.03.02.08.05.08.06-.09.67.42,1.18.47,1.8.01.17-.21.37-.33.56.51.49.52,1.27,0,1.84.28,0,.55,0,.83,0,.29,0,.43.12.46.43.02.18.17.34.24.51.07.15.15.31.16.47.02.36-.03.73.02,1.09.03.22.19.42.28.64.05.11.08.22.13.32.08.17.17.33.27.5.02.04.11.08.1.1-.16.7.48,1.19.47,1.85,0,.26-.07.55.31.68.11.04.14.35.17.55.07.45-.2.98.37,1.29.06.03.05.19.06.29.02.35-.07.72.33.96.09.06.07.32.09.49.03.29-.11.64.32.79.03,0-.03.31-.08.46-.06.18-.19.35-.2.52,0,.07.25.19.4.2.32.02.4.18.41.47.01.35-.11.72.32,1,.16.11.07.62.09.94.01.27-.04.54.31.7.11.05.15.32.18.5.04.31-.09.68.34.84.03,0,.05.05.06.08.16.64.3,1.28.47,1.91.05.19.18.37.26.56.07.17.13.34.16.52.07.45-.18.98.37,1.3.06.04.04.23.05.35.02.34-.09.7.33.96.1.06,0,.59-.13.84-.21.44-.67.39-1.08.47-.31.06-.55.42-.83.64-.1.08-.21.13-.32.2-.07-.12-.19-.24-.2-.36-.03-.36-.1-.76.01-1.08.14-.38.46-.68.73-1.05-.1-.02-.24-.09-.35-.06-.6.17-.84-.37-1.23-.61-.06-.04-.07-.19-.08-.29-.03-.36.08-.77-.36-1-.08-.04-.06-.29-.08-.44-.02-.31.09-.67-.32-.85-.07-.03-.09-.25-.09-.38-.01-.38.02-.77-.02-1.14-.02-.18-.15-.35-.24-.52-.06-.12-.12-.23-.17-.35-.1-.19-.2-.39-.3-.58-.02-.04-.08-.08-.09-.12-.15-.67-.29-1.34-.46-2.01-.04-.16-.16-.3-.26-.43-.05-.07-.16-.11-.17-.17-.17-.7-.34-1.41-.47-2.12-.06-.29.04-.59-.31-.81-.12-.08-.11-.45-.07-.67.02-.09.26-.2.4-.21.29-.02.39-.15.39-.43,0-.32-.21-.36-.46-.35-.44.02-.91.07-.83-.63,0-.05-.05-.14-.1-.17-.57-.29-.25-.5.1-.75-.13-.1-.25-.17-.35-.27-.34-.33-.59-.69-.48-1.21.02-.11-.03-.29-.12-.37-.52-.49-.51-1.01.04-1.52.17-.15.3-.34.55-.63-.31-.03-.55-.08-.79-.07-.36,0-.62-.05-.6-.5,0-.09-.03-.25-.09-.28-.4-.19-.27-.54-.33-.85-.04-.21-.18-.4-.27-.59-.02-.04-.09-.07-.1-.11-.16-.72-.32-1.44-.46-2.16-.05-.29.09-.61-.31-.8-.1-.05-.09-.38-.1-.58-.01-.28.03-.57-.33-.67-.04-.01-.09-.07-.1-.11-.17-.63-.35-1.26-.49-1.9-.1-.46.1-.73.62-.67.07,0,.15-.04.31-.08-.12-.09-.19-.17-.24-.17-.49.03-.75-.14-.72-.68,0-.08-.26-.23-.42-.24-.29-.03-.4-.16-.39-.43,0-.33-.02-.66.01-.99.01-.15.16-.27.22-.42.07-.18.17-.37.16-.54,0-.09-.26-.14-.38-.23-.28-.19-.57-.37-.8-.61-.05-.05.15-.34.27-.58-.16-.14-.42-.32-.61-.55-.12-.14-.16-.36-.18-.56-.03-.3.05-.62-.32-.8-.09-.04-.1-.28-.11-.43-.01-.38.02-.77-.02-1.14-.02-.19-.17-.37-.25-.56-.06-.14-.14-.28-.15-.42-.02-.43-.02-.87,0-1.3.01-.51.5-.98,1-.98,1.42-.02.92-.05,1.88.85.39-.5.69-.51,1.17-.05.04.03.08.07.13.08.72.15,1.44.31,2.17.44.28.05.58-.04.74.32.05.1.34.09.53.11.45.06.95-.15,1.32.36.1.14.53.11.8.06.51-.1.81.21,1.1.51.07.07.06.37-.02.43-.42.33-.39.59.03.88.1.07.15.21.25.36.4-.42.72-.9,1.17-1.16.3-.17.96-.18,1.16.02.32.32.63.28.97.3.07,0,.14-.02.21,0,.22.07.62.12.64.23.06.41-.32.27-.55.34-.08.02-.21.07-.21.11-.01.49,0,.98,0,1.34.33-.26.67-.52,1-.79.06-.05.08-.14.12-.22.1-.19.2-.55.29-.55.39.01.83-.26,1.17.24.27.4.67.69,1.25.59.37-.07.76-.04,1.14,0,.21.02.41.18.62.25.17.06.35.12.52.14.22.02.45.01.68,0,.36-.01.57.1.54.5,0,.12.05.25.11.54.33-.69.88-.68,1.27-.52.49.21,1.12.23,1.45.48.48.37.92.24,1.37.33.21.04.4.19.6.27.15.06.31.12.47.14.49.06,1.01-.15,1.42.37.16.2.55.21.92.33.15-.15.38-.52.67.04.03.06.15.06.23.09.25.1.51.21.84.35-.04.05.02,0,.05-.07.16-.35.34-.35.55-.04.05.08.14.23.18.22.82-.17,1.42.68,2.26.48.18-.04.42.19.64.27.19.06.39.09.59.12.43.06.95-.19,1.25.36.04.07.26.07.39.06.57-.03,1.15-.04,1.5.51.25.39.6.34.96.35.42,0,.88-.11,1.04.6.11-.22.14-.36.22-.4.14-.06.43-.09.44-.06.15.44.51.33.83.35.38.03.79-.13,1.1.34.11.16.62.03.94.09.24.05.47.18.71.28.11.04.21.11.32.12.38.03.76-.08,1.05.36.1.15.55.06.85.07.32.02.63-.06.86.31.08.13.44.1.68.12.4.03.8-.09,1.13.33.11.15.54.13.79.07.6-.14.77.45,1.17.62-.07.15-.11.34-.22.43-.3.23-.23.44-.1.62.24-.2.47-.39.71-.56.1-.07.23-.15.34-.14.07,0,.17.17.18.27.02.4.05.8-.01,1.19-.03.2-.26.37-.4.55-.45.59-1.31.87-2.03.65-.11-.04-.24-.19-.27-.31-.05-.2-.04-.42-.02-.62.08-.71-.05-1.31-.72-1.71-.12-.07-.18-.27-.27-.41-.34.43-.27,1.36.09,1.66.04.03.1.06.11.1.18.44.34.88.52,1.31.05.12.18.2.22.31.08.23.16.48.14.71,0,.1-.27.17-.42.26-.25.15-.52.27-.75.46-.21.17-.39.39-.54.62-.19.3-.38.3-.53.02-.2-.37-.43-.29-.78-.1.63.34.43.64.04.95-.33.26-.51.7-1.06.69-.22,0-.45.3-.65.49-.2.2-.34.44-.52.65-.05.06-.14.13-.21.13-.73.05-1.03.69-1.5,1.09-.07.06-.15.18-.22.18-.77,0-.99.72-1.48,1.09-.08.06-.14.21-.2.21-.61,0-.91.44-1.24.84-.06.07-.17.1-.31.18,1.14,1.1,2.24,2.17,3.34,3.24.31.3.65.59.9.94.08.11-.12.41-.21.69.57.02,1.13.19,1.68.73.61.6.11,1.33.54,2.04.08-.25.11-.38.16-.5.06-.14.14-.28.2-.42.12.07.24.14.36.22.29.19.48.42.45.79,0,.07.13.2.19.2.75-.03.9.73,1.39,1.05.23.15.03,1.1-.18,1.31-.62.62-1.22,1.26-1.84,1.88-.68.68-1.38,1.33-2.07,2-.88.87-1.76,1.75-2.63,2.64-.05.05-.09.16-.08.24.1.5-.35.67-.58.96-.22.29-.52.55-.82.76-.1.07-.33-.01-.49-.05-.18-.05-.36-.17-.53-.17-.07,0-.14.26-.19.42-.03.08-.02.17,0,.26.11.69-.17,1.17-.78,1.5-.17.09-.31.25-.41.42-.18.28-.41.43-.75.41-.07,0-.15.12-.23.17-.12.07-.24.14-.36.2-.06-.13-.18-.26-.18-.39-.01-.31-.14-.48-.44-.42-.95.22-1.52-.36-2.08-.96-.79-.82-1.54-1.68-2.39-2.44-.36-.32-.25-.64-.3-.97-.08-.55.31-.56.68-.61.03,0,.06-.07.09-.11-.65-.28-.91-.18-1.08.42-.03.1-.12.25-.2.25-.11,0-.24-.07-.33-.15-.25-.21-.48-.44-.72-.66-.02-.02-.09-.04-.08-.05.07-.81-.78-.73-1.11-1.16-.35-.45-.76-.85-1.16-1.26-.17-.17-.39-.29-.64-.47-.1.84-.79,1.25-1.35,1.77-.03.03-.06.09-.06.14.01.76-.72.98-1.08,1.47-.24.32-.53.56-.67,1-.18.54-.44,1.17-.98,1.53-.13.09-.33.05-.5.07-.2.02-.41.05-.67.08.6.64.6.76.06,1.38-.23.26-.49.5-.73.75-.05.05-.12.11-.12.16.05.59-.5.77-.76,1.14-.05.07-.15.13-.15.2.04.76-.71.96-1.05,1.45-.25.35-.65.56-.73,1.08-.05.29-.55.47-.73.77-.22.39-.54.32-.87.38-.52.1-.69-.37-1.01-.58-.03-.02.03-.34.13-.41.34-.23.23-.47.11-.83-.1.16-.14.28-.23.35-.08.07-.22.14-.3.12-.08-.02-.18-.16-.19-.26-.03-.27,0-.53-.33-.69-.11-.06-.05-.42-.11-.63-.06-.21-.19-.39-.28-.59-.08-.18-.16-.36-.19-.55-.07-.45.14-.93-.36-1.32-.17-.13-.06-.62-.08-.95-.01-.27.06-.55-.28-.72-.06-.03.05-.42.1-.71.04.01-.05-.05-.13-.04-.32,0-.53-.06-.53-.45,0-.35.07-.55.48-.57.13,0,.34-.23.35-.37.03-.38.22-.45.54-.45.33,0,.76.16.87-.37.15.04.44.08.44.13.03.51.15.95.44,1.4.24.38,0,.62-.49.7-.14.02-.28.14-.4.23-.13.09-.25.21-.38.31.34.32.94.29,1.19-.03.07-.09.26-.22.3-.19.11.07.22.21.23.34.04.27-.02.56.03.83.03.2.16.38.24.57.06.13.15.27.16.41.08.8.09,1.59-.88,2l.11.12c.32.02.69-.05.93.09.21.12.29.49.43.76.28-.4.14-.77-.03-1.14-.17-.37-.14-.87-.09-1.3,0-.09.44-.14.71-.22-.54-.44-.52-.52.15-1.13.14-.13.19-.36.31-.52.34-.42.7-.83,1.06-1.24.07-.09.24-.16.24-.23-.03-.77.74-.97,1.06-1.48.06-.09.21-.18.21-.26-.03-.37.16-.59.41-.83.24-.23.53-.45.52-.89,0-.16.29-.32.45-.48.22-.22.43-.44.65-.66.05-.05.13-.1.13-.15-.04-.76.68-.99,1.03-1.47.28-.38.79-.54.83-1.16.02-.25.41-.54.39-.92,0-.02.01-.04.02-.04.57.03.93-.74,1.51-.49.57.25,1.11.61,1.57,1.02.87.78,1.68,1.63,2.51,2.46.46.46.9.94,1.35,1.41.52.53,1.06,1.04,1.58,1.57.5.51.98,1.03,1.48,1.54.34.34.67.69,1.04.99.09.08.4.06.47-.03.22-.26.34-.59.55-.86.24-.32.43-.69.91-.75.14-.02.38-.15.37-.23-.01-.78.72-1.01,1.08-1.5.2-.27.46-.62.75-.69.61-.14.82-.52.98-1.03.03-.1.16-.17.25-.24.1-.08.26-.21.31-.18.11.06.21.21.23.34.11.5.22.56.78.3-.71-.24-.48-.8-.44-1.26.02-.18.3-.32.45-.49.31-.34.57-.74.94-1.01.35-.25.76-.17,1.02.27.04-.02.09-.03.13-.05-.03-.19,0-.48-.11-.55-.49-.32-.3-.53.1-.74-.73-.77-1.41-1.53-2.13-2.25-.66-.66-1.37-1.25-2.02-1.91-.8-.8-1.55-1.63-2.33-2.44-.19-.2-.45-.35-.62-.57-.11-.13-.14-.33-.16-.51-.04-.25-.04-.51-.05-.76-.05,0-.11,0-.16-.01-.05.09-.09.24-.16.27-.15.05-.39.12-.49.05-.28-.22-.5-.52-.75-.78-.02-.02-.06-.04-.08-.07-.21-.28-.04-1.52.23-1.76.61-.54.73-.54,1.38.08.05-.58.1-1.14.85-.98-.13-.25-.35-.55-.3-.61.22-.25.51-.43.79-.63.14-.1.33-.15.45-.26.35-.32.63-.86,1.02-.96.8-.2,1.15-.82,1.66-1.31.04-.04.14-.08.19-.06.49.14.7-.3.96-.53.37-.33.62-.73,1.18-.89.42-.12.72-.62,1.08-.95.07-.07.14-.21.2-.2.7.06,1.02-.55,1.33-.94.3-.38.66-.39,1.04-.6Z"/>
  <path d="m37.6,50.02c.21.12.41.23.61.33-.08.08-.16.16-.24.24.2-.16.41-.32.63-.5-.05-.05-.1-.08-.14-.13-.09-.12-.18-.25-.27-.37.14-.06.29-.18.44-.18.75-.02,1.49,0,2.24,0,1.96,0,3.92,0,5.88,0,.21,0,.42.13.63.2-.12.17-.23.33-.36.52.16.13.36.3.53.44.2-.32.35-.69.62-.94.17-.16.51-.14.78-.17.01,0,.13.34.08.4-.35.38-.73.72-1.11,1.08l.05.16c.2-.06.43-.08.6-.19.27-.19.5-.44.74-.66.06-.06.13-.12.15-.2.07-.24-.09-.63.35-.62.42.01.92-.22,1.12.24.37-.09.69-.24,1-.24,4.58-.02,9.15,0,13.73-.01.21,0,.42-.04.74-.07-.81-.69-.39-1.5-.45-2.23,0-.09.24-.26.39-.28.26-.04.42-.1.42-.4,0-.3-.16-.36-.42-.4-.15-.02-.39-.18-.39-.29-.01-.35.06-.7.1-1.05.13.04.3.04.39.12.26.25.55.51.5.94,0,.03.07.07.13.12.46-.35-.18-1.13.55-1.44-.13-.03-.27-.04-.39-.09-.16-.07-.31-.17-.46-.26-.12-.07-.25-.21-.37-.21-.41.01-.49-.2-.49-.55,0-1.4,0-2.81.01-4.21,0-.16.12-.33.18-.49.13.08.25.19.39.24.22.07.46.1.69.15.03-.08.05-.16.08-.24-.35-.18-.72-.33-1.04-.54-1.28-.83-2.7-.24-4.05-.39-.69-.08-1.39-.04-2.08,0-.54.03-.72-.18-.66-.69.02-.21,0-.42,0-.62-.02-.5-.25-.6-.72-.31.12.19.31.36.35.56.1.53-.39,1.05-.96,1.05-1.58,0-3.16,0-4.73,0-3.05,0-6.1,0-9.15,0-.16,0-.32.03-.47-.01-.13-.03-.25-.13-.37-.2.07-.12.12-.29.22-.34.36-.2.25-.42-.04-.74-.17.33-.33.68-.53.99-.08.13-.27.28-.41.28-1.06.02-2.11,0-3.17.01-.28,0-.41-.12-.41-.41,0-.14-.05-.27-.11-.56-.13.22-.23.3-.22.37.05.51-.21.62-.65.6-.5-.03-1.01.02-1.51-.02-.17-.01-.34-.18-.51-.28.16-.09.31-.2.47-.28.08-.04.19-.05.3-.07q-.63-.78-1.53-.06c.08.06.18.1.23.18.06.09.15.23.12.3-.05.1-.19.21-.3.21-.68.02-1.35.02-2.03,0-.11,0-.31-.12-.31-.18,0-.12.08-.28.18-.36.63-.47,1.27-.92,2.12-.87.06,0,.13-.08.28-.17-.17-.08-.27-.17-.36-.15-.48.09-.56-.44-.9-.57.07-.13.1-.33.2-.38.14-.07.34-.04.51-.04,2.69,0,5.37,0,8.06,0,.34,0,.67.14,1.01.22.27-.07.59-.22.91-.22,2.84-.02,5.69-.01,8.53-.01.14,0,.28-.02.41.02.12.03.22.13.32.2-.07.12-.14.24-.22.35-.04.05-.1.08-.15.13.29.28,1.55.31,2,.04-.08-.07-.17-.12-.21-.2-.07-.1-.15-.23-.14-.34.01-.07.17-.15.28-.18.13-.03.28-.02.41-.02,2.7,0,5.41,0,8.11,0,.45,0,.8,0,.8.63,0,.22.38.44.69.76.02-.38.05-.65.05-.91,0-.33.13-.48.46-.48.45,0,.9-.01,1.35,0,.49.02.93.47.93.96,0,.5.03,1.01,0,1.51-.02.28-.15.56-.25.94.6.7.17,1.66.21,2.56,0,.06-.26.18-.41.2-.51.07-.6.27-.27.77.07-.08.12-.17.19-.22.1-.07.23-.15.34-.14.07,0,.18.16.19.26.02.4.04.8,0,1.19-.01.12-.22.25-.37.32-.15.07-.34.07-.5.1,0,.05,0,.11,0,.16.11.04.23.11.34.1.43-.04.58.15.57.57-.02,1.25-.01,2.5,0,3.74,0,.35-.09.57-.5.55-.11,0-.3,0-.34.08-.29.59-.51.27-.75-.13-.29.39-.19.77-.1,1.11,0,.04.45-.02.69-.06.26-.05.52-.17.78-.17.07,0,.19.32.21.51.03.31.01.62,0,.94,0,.84-.4,1.24-1.23,1.24-2.08,0-4.16,0-6.24,0-.42,0-.89.11-1.07-.68-.21.81-.72.68-1.16.68-1.49,0-2.98,0-4.47,0-.31,0-.59.02-.79-.35-.12-.23-.42-.22-.64.04-.13.14-.34.3-.52.3-4.46.02-8.91.01-13.37.02-.35,0-.57-.1-.53-.5.01-.12-.04-.25-.08-.44-.25.22-.54.35-.62.56-.15.41-.44.38-.75.38-1.91,0-3.81,0-5.72,0-.6,0-1.11-.5-1.11-1.09,0-2.38,0-4.75,0-7.13,0-.29.02-.53.34-.69.08-.04.02-.42-.03-.63-.06-.2-.28-.38-.29-.58-.04-.64-.02-1.28-.01-1.92,0-.34-.09-.74.54-.78-.62-.22-.54-.66-.54-1.07,0-.73,0-1.46,0-2.18,0-.47.49-.97.96-.99.43-.01.87-.02,1.3,0,.16,0,.31.11.46.17.16.07.32.15.47.24.13.08.25.18.37.28-.12.09-.23.19-.35.27-.16.11-.33.22-.5.32-.13.07-.28.11-.41.18-.14.07-.34.15-.37.26-.03.12.05.34.16.43.28.23.27.38-.01.61-.12.1-.15.36-.14.54,0,.07.23.13.36.2.14.07.28.14.42.21-.07.12-.13.26-.23.36-.22.23-.22.84-.04,1.1.14.2.28.46.28.7.02,2.6.03,5.2,0,7.8,0,.54.16.69.68.67.41-.02.86-.15,1.23.31.13.16.79.12.98-.06.24-.24.45-.26.72-.27.19,0,.38-.02.57,0,.19.03.37.11.56.16-.08.18-.16.37-.2.45Z"/>
  <path d="m31.65,74.76c-.11-.07-.24-.12-.33-.21-.09-.09-.14-.21-.24-.37-.09.12-.13.21-.2.27-.08.07-.22.17-.28.15-.1-.04-.23-.18-.23-.28-.02-1.13-.02-2.25,0-3.38,0-.1.16-.29.23-.28.39.04.6-.21.86-.43.32-.27.25-.49.09-.77-.2.14-.47.38-.51.35-.26-.21-.6-.45-.66-.74-.11-.5-.06-1.04,0-1.55.02-.18.26-.34.41-.52-.12-.14-.33-.28-.41-.47-.13-.33.28-1.02.64-1.05.15-.01.33.2.46.29.13-.2.26-.42.42-.68-.16-.26-.55-.57-1.17-.44-.08.02-.24-.04-.24-.06,0-.58,0-1.16.05-1.73,0-.12.22-.29.35-.31.2-.02.42.07.7.13.14-.38.59-.27.99-.27,1.27,0,2.53-.01,3.8,0,.27,0,.54.14.82.22.24-.07.54-.22.84-.22,2.46-.02,4.92-.01,7.39,0,.28,0,.57-.06.76.3.05.08.44.01.67-.04.18-.04.33-.24.5-.24.73-.03,1.46,0,2.18-.02.36,0,.51.14.5.49,0,.31.02.63-.02.93-.02.14-.16.27-.24.41-.08.13-.23.27-.22.4.02.45-.22.52-.59.51-1.8,0-3.61,0-5.41-.01-.2,0-.39-.13-.59-.2.1-.18.2-.35.36-.64-.28-.02-.57-.09-.83-.03-.12.02-.24.29-.26.46-.05.44-.35.41-.65.41-2.43,0-4.85,0-7.28,0-.09,0-.17,0-.26,0-1.07,0-.92-.05-.96.96-.01.32-.16.63-.23.87.08.35.22.67.23,1.01.03.95.01,1.91.01,2.86q0,.76-.77.78c-.54.02-.63.21-.38.67.18-.12.48-.36.51-.33.24.23.58.51.61.79.08.93.04,1.87.02,2.81,0,.13-.15.36-.25.37-.46.04-.98.23-1.29-.37-.05.01-.1.02-.15.03-.01.3-.08.61-.01.88.03.11.36.18.56.2.3.04.6-.02.82.31.06.1.43.02.64-.03.23-.06.43-.25.66-.26.74-.03,1.49,0,2.24-.02.48-.02.79.09.74.65,0,.05.02.1.05.14.01.03.05.04.14.09.06-.27.12-.52.18-.77.21.05.42.1.56.13.32-.08.61-.22.9-.23,1.91-.02,3.81-.02,5.72,0,.24,0,.47.21.71.27.19.05.42.05.61,0,.26-.06.51-.28.77-.28,2.62-.02,5.24-.02,7.85,0,.22,0,.43.13.65.2-.12.17-.24.35-.4.58.36.22.73.11,1.25.03-.17-.16-.26-.21-.31-.29-.07-.1-.15-.23-.14-.34,0-.07.17-.18.27-.18.69-.02,1.39-.07,2.08.01.37.04.98.26,1.03.49.14.68.06,1.41.06,2.12-.42,0-.86.08-1.24-.04-.26-.08-.43-.44-.67-.72-.11.14-.22.25-.31.39-.33.51-.84.47-1.36.47-7.92,0-15.85,0-23.77,0-.96,0-1.31-.35-1.31-1.3,0-.78,0-1.56,0-2.34,0-.78,0-.78.76-.79.18,0,.35-.04.53-.06,0-.05.01-.11.02-.16Zm1.45,3.59h1.89c-.3-.23-.56-.49-.87-.64-.15-.07-.43.05-.61.15-.14.08-.23.26-.41.48Z"/>
  <path d="m65.27,64.66c-.37.59-.4.59-.82-.04-.24.68-.79.52-1.28.52-1.3,0-2.6.01-3.9,0-.24,0-.47-.12-.71-.18.1-.19.2-.38.31-.58-.37-.27-.59-.2-.61.28-.02.36-.17.49-.51.49-1.73,0-3.47,0-5.2-.01-.17,0-.37-.13-.48-.26-.23-.28-.57-.3-.78.01-.17.26-1.12.39-1.31.16-.06-.08-.08-.29-.02-.37.21-.25.46-.47.7-.7-.34-.33-.5-.96-.25-1.05.16-.06.41.11.66.18,0-1.14.92-.68,1.53-.68.85,0,.18.85.65,1.23.03-.3.07-.53.06-.76,0-.35.13-.52.49-.5.24.01.49.02.73,0,.42-.03.68.04.72.56.02.23.32.44.48.63.2-.31.36-.63.59-.87.15-.16.42-.3.63-.3,7.59-.01,15.19-.02,22.78,0,.26,0,.51.18.83.29.4-.41.41-.41.8.09.26-.4.55-.62.81,0,.54-.55,2.2-.55,2.62-.03.31-.29,1.49-.5,1.87-.32.27.13.22.32-.16.66.41.24.59.19.61-.22.02-.41.23-.48.57-.48,1.39,0,2.77,0,4.16.01.27,0,.53.15.75.22.29-.08.57-.2.86-.22.55-.04,1.11-.01,1.66-.01.91,0,1.22.3,1.22,1.2,0,1.04.01,2.08-.01,3.12,0,.18-.16.37-.25.55-.01.03-.08.05-.08.06.15.81-.69.75-1.01,1.15-.05.07-.19.11-.28.1-.36-.02-.49.15-.51.5,0,.12-.19.22-.29.33-.08-.13-.23-.26-.23-.39-.02-1.01-.01-2.01-.01-3.02q0-.86-.84-.86c-2.17,0-4.33,0-6.5,0-.16,0-.32.03-.47-.01-.14-.04-.27-.16-.4-.24.08-.11.16-.23.26-.32.05-.05.13-.05.23-.08-.45-.39-.72-.83-1.28-.67-.14.04-.36.11-.37.18-.02.18.05.38.12.56.05.13.17.23.21.36.01.04-.16.19-.19.18-.12-.05-.25-.14-.33-.25-.21-.26-.56-.25-.77-.01-.13.14-.34.29-.51.29-4,.02-8.01.02-12.01,0-.18,0-.5-.13-.5-.22-.02-.26,0-.61.16-.79.28-.33.33-.54-.06-.78-.08-.05-.11-.21-.18-.23-.21-.05-.43-.05-.65-.08.02.2-.03.45.07.6.19.27.43,1.18.2,1.31-.28.16-.68.17-1.02.16-.11,0-.24-.26-.32-.42-.06-.12-.06-.27-.1-.53-.29.42-.06,1.1-.76.98-.5-.09-1.13.29-1.44-.43-.16.14-.32.38-.46.37-.16,0-.3-.25-.48-.42Zm8.71-1.71c-.36,1.05.13,1.76,1.09,1.6.4-.07.76-.41,1.04-.57-.4-.28-.84-.6-1.32-.94-.21.33-.49.57-.82-.09Z"/>
  <path d="m78.85,79.17c-.36.1-.64.24-.93.24-4.92.01-9.85,0-14.77.01-.42,0-.79,0-.72-.58,0-.08-.07-.19-.14-.26-.37-.37-.93-.61-.87-1.29-.16.2-.31.4-.41.53.07.3.2.64.22.97.01.2-.11.52-.25.58-.24.09-.55.14-.76-.22-.14-.25-.45-.4-.63-.64-.08-.11-.08-.4,0-.47.35-.3.34-.54.01-.83-.09-.08-.16-.23-.15-.33,0-.07.16-.15.27-.18.11-.03.24-.02.36-.02,2.46,0,4.92,0,7.39,0,.67,0,.66.04.74.7.05.36.29.69.44,1.04.05-.01.1-.03.16-.04.03-.11.08-.21.08-.32,0-.32.11-.5.46-.47.37.04.5-.14.47-.49-.03-.29.13-.41.4-.41,1.2,0,2.39,0,3.59,0,.3,0,.44.14.43.45,0,.13.03.26.06.43.23-.19.47-.31.58-.51.25-.45.65-.37,1.04-.37,5.27,0,10.54,0,15.81,0,.29,0,.58.13.94.22.14-.05.39-.18.65-.23.37-.06.31-.31.31-.55,0-1.84,0-3.68,0-5.51,0-.27.03-.68.19-.78.33-.19.72-.1,1.03.29.01-.2,0-.4.05-.59.05-.22.13-.42.2-.64.18.1.36.2.61.33.03-.11.05-.25.11-.37.06-.14.15-.26.23-.39.08.14.22.28.24.43.04.31.01.62.01.93,0,1.54,0,3.09,0,4.63,0,.27.05.57-.39.58-.37.01-.59-.07-.6-.5,0-.48-.4-.31-.67-.34-.29-.03-.46.08-.46.41,0,.39-.1.85.55.8.08,0,.26.16.25.19-.06.18-.17.34-.27.5.39.22.55.17.59-.29.04-.39.25-.43.56-.43.36,0,.43.2.42.5,0,.87,0,1.73,0,2.6,0,.44-.46.9-.89.91-.45,0-.9.02-1.35,0-.14,0-.31-.1-.42-.21-.27-.29-.5-.27-.78-.01-.12.11-.31.22-.46.23-.87.02-1.73,0-2.6.01-.34,0-.53-.1-.52-.47.01-.47-.35-.38-.63-.39-.29,0-.59-.02-.56.4.03.39-.2.45-.52.45-1.86,0-3.71,0-5.57,0-.15,0-.33-.02-.44-.1-.56-.44-.79-.45-1.35.02-.27.22-1.18.06-1.38-.17Z"/>
  <path d="m89.11,115.57c-.08-.3-.2-.6-.22-.9-.04-.57-.01-1.14,0-1.71,0-.3-.01-.56.3-.81.27-.22.43-.66.51-1.02.07-.32.1-.6.41-.76.2-.1.42-.17.58-.32.44-.39,1.09-.27,1.49-.52.43-.28.61-.43.84.12.54-.56.65-.56,1.28-.1.09.06.24.1.34.08.51-.12.86.16,1.13.5.1.13-.03.43-.07.75.12.05.37.14.59-.2.05-.08.31-.15.33-.12.22.28.72.38.62.86-.12.58.27.89.6,1.25.12.14.23.33.24.51.03.5,0,1,.02,1.51.02.46-.05.8-.62.74-.05,0-.11.05-.06.02.05.29.09.52.12.74-.2-.07-.39-.13-.65-.22-.12.18-.18.42.14.63.29.19.26.35.01.56-.27.22-.51.48-.76.72-.06.05-.14.09-.22.11-.08.02-.22-.02-.25.03-.4.65-1.28.15-1.72.75-.17.23-1.09.05-1.34-.13-.19-.13-.47-.22-.69-.19-.64.1-1.06-.19-1.41-.66-.01-.01-.01-.04-.02-.04-1.01-.01-.9-1.16-1.57-1.54-.45-.26.07-.44.07-.62Zm4.28-3.51c-.07.06-.2.28-.31.26-.45-.06-.65.29-.89.51-.33.31-.61.63-.61,1.2,0,.59.31.9.67,1.22.22.2.26.34.04.54-.32.3-.35.75-.09,1.15.18-.19.5-.39.5-.58,0-.77.5-.68.99-.68.25,0,.61.02.73-.12.35-.42.61-.91.9-1.38.03-.05.04-.15.01-.2-.21-.4-.4-.81-.64-1.18-.11-.17-.3-.31-.49-.41-.23-.13-.5-.2-.82-.32Zm-2.5,4.06c.05-.02.1-.04.16-.07,0-.38.03-.75-.02-1.12-.02-.14-.23-.35-.36-.35-.13,0-.28.19-.38.34-.09.13-.1.32-.19.45-.17.23-.37.44-.6.71.19-.02.46.04.52-.06.32-.46.59-.35.86.1Z"/>
</svg>