<?xml version="1.0" encoding="UTF-8"?>
<svg id="Layer_1" data-name="Layer 1" xmlns="http://www.w3.org/2000/svg" viewBox="0 0 180 180">
  <path d="m115.49,60.04c-.21-.06-.33-.13-.43-.11-.63.15-1-.26-1.38-.63-.75-.73-1.51-1.47-2.25-2.21-.66-.67-1.3-1.37-1.96-2.06-.08-.08-.22-.19-.31-.17-.52.07-.73-.37-1.02-.63-.59-.54-1.14-1.13-1.68-1.71-.37-.39-.87-.71-.71-1.39.07-.32-.12-.48-.45-.45-.07,0-.15,0-.22,0-.71.1-1.19-.17-1.62-.76-.4-.55-.95-.99-1.44-1.47-.04-.04-.1-.08-.14-.07-.52.15-.76-.3-1.02-.55-.86-.82-1.6-1.77-2.49-2.56-.46-.41-.82-.96-1.56-1.09-.41-.07-.74-.63-1.09-.98-.4-.4-.77-.83-1.17-1.23-.5-.5-1.03-.98-1.53-1.47-.06-.06-.1-.17-.1-.24.06-.59-.42-.78-.76-1.1-.55-.52-1.03-1.12-1.59-1.64-.53-.49-.53-1.33-1.28-1.69-.27-.13-.29-.71-.54-.98-.37-.4-.47-.82-.51-1.34-.02-.27-.39-.51-.6-.77-.09-.11-.22-.21-.23-.33-.04-.29.03-.59-.37-.71-.06-.02-.09-.26-.09-.4-.01-.46,0-.92,0-1.38-.02-.37.18-.83-.4-1-.07-.02-.1-.3-.1-.46,0-1.66,0-3.32,0-4.97,0-.16.02-.42.11-.46.55-.22.39-.68.4-1.08.01-.48,0-.96,0-1.44,0-.33-.1-.7.34-.9.1-.05.08-.33.11-.51.01-.11,0-.22,0-.33.01-.4-.1-.9.09-1.18.15-.22.69-.17,1.05-.24.05,0,.09-.06.14-.1-.03-.05-.06-.13-.09-.13-.69.05-.84-.34-.75-.92.06-.42-.19-.93.39-1.2.08-.04.05-.31.06-.47.02-.34-.05-.67.34-.91.14-.08.09-.47.12-.72.04-.4-.12-.84.35-1.14.1-.07.05-.37.07-.57-.04-.01-.09-.02-.13-.03-.52.56-1.04,1.12-1.57,1.67-.05.05-.12.11-.18.11-.83,0-1.1.75-1.61,1.19-.36.31-.67.68-1.01,1.02-.02.02-.06.05-.1.05-.91-.06-1.11.82-1.66,1.24-.45.34-.85.74-1.26,1.13-.36.35-.68.74-1.03,1.09-.33.33-.58.68-1.13.81-.45.1-.82.62-1.18.99-.54.55-1.05,1.13-1.58,1.7-.07.08-.22.15-.21.23.03.63-.52.81-.85,1.16-.51.53-1,1.09-1.52,1.62-.37.39-.81.72-1.16,1.12-.28.31-.67.54-.71,1.06-.02.25-.3.5-.51.7-.38.36-.8.69-1.2,1.03-.05.04-.12.12-.12.17.05.87-.76,1.12-1.16,1.67-.06.08-.17.16-.18.25-.05.78-.76,1.06-1.17,1.57-.07.09-.24.16-.25.25-.04.76-.47,1.1-1.19,1.15-.06,0-.1.08-.16.13.55.56.53.54-.16,1.22-.23.23-.27.65-.5.88-.21.21-.59.02-.89.38-.26.31-.3.55-.35.88-.04.24-.19.46-.29.69-.02.05-.1.09-.1.12.2.7-.38,1.18-.52,1.78-.1.44-.4.84-.62,1.25-.09.17-.17.33-.27.49-.1.15-.21.3-.32.44-.03.04-.11.05-.13.09-.18.45-.28.93-.53,1.33-.31.52-.26,1.2-.54,1.6-.29.43-.19.86-.38,1.21-.28.51-.29,1.12-.54,1.56-.23.39-.32.73-.33,1.13,0,.32-.14.48-.47.47-.15,0-.3.04-.33.05.11.38.23.69.28,1.02.04.34.04.65-.33.91-.16.12-.11.58-.1.89,0,.45.03.85-.63.82-.25-.01-.4.88-.2,1.15.12.16.37.41.33.46-.18.25-.4.55-.67.65-.28.1-.56.11-.79.39-.11.14-.48.1-.73.09-.36-.01-.55.09-.54.49,0,.15-.18.3-.27.45-.11-.16-.29-.31-.3-.48-.04-.48-.04-.96,0-1.43.01-.19.18-.36.26-.54.07-.16.11-.33.2-.48.08-.14.2-.25.3-.37.09.13.2.25.26.4.06.14.06.3.1.52.51-.29-.01-1.08.86-1.02l-.14-.21c-.21-.03-.42-.06-.63-.1-.31-.05-.38-.25-.2-.46.23-.26.52-.46.83-.72-.11-.06-.19-.11-.27-.15-.22-.11-.62-.21-.63-.34-.02-.42-.29-.92.26-1.24.12-.07.12-.31.21-.45.1-.16.23-.38.38-.41.66-.13.67-.11,1.43-.67-.49-.1-.86-.25-1.25.12-.11.1-.33.07-.5.1.07-.16.13-.32.2-.47.02-.04.13-.07.12-.1-.07-.68.72-1.11.52-1.86-.08-.3-.12-.71.33-.88.07-.03.09-.23.1-.35.03-.41-.1-.85.39-1.11.07-.04.07-.24.07-.36.02-.35-.08-.74.35-.96.08-.04.04-.28.1-.41.08-.17.2-.31.3-.46.07-.1.14-.19.19-.3.08-.18.15-.37.22-.56.19.11.37.22.56.33-.05-.04-.11-.08-.16-.12.17-.17.34-.34.52-.51.05.02.11.03.16.05-.16-.03-.32-.05-.47-.1-.12-.05-.3-.12-.33-.22-.03-.09.09-.24.17-.34.04-.06.15-.07.17-.13.18-.46.33-.94.52-1.4.16-.4.37-.78.56-1.17.12-.24.26-.48.35-.73.1-.28.28-.38.49-.21.27.23.48.53.72.82.21-.2.4-.38.63-.6-.36-.22-.51-.69-1.07-.66-.34.01-.33-.28-.14-.51.09-.11.3-.19.29-.28-.03-.39.18-.61.45-.86.27-.25.6-.51.51-.98-.01-.06.13-.15.2-.24.28-.33.67-.55.73-1.08.03-.27.44-.49.68-.73.07-.07.21-.16.2-.22-.05-.54.17-.77.71-.79.08,0,.2-.36.2-.55,0-.45.02-.83.63-.77.06,0,.17-.03.19-.08.21-.45.39-.91.62-1.35.14-.27.3-.55.51-.77.35-.37.75-.68,1.11-1.03.07-.07.16-.18.16-.27,0-.59.44-.83.82-1.17.55-.49,1.02-1.08,1.53-1.62.35-.36.71-.7,1.05-1.07.14-.15.22-.35.34-.52.1-.15.2-.3.32-.43.64-.68,1.28-1.36,1.92-2.04.34-.36.69-.72,1.05-1.07.54-.53,1.09-1.05,1.63-1.58.46-.45.45-.45.86.09.22-.37.66-.52.68-1.08,0-.27.4-.53.64-.78.54-.55,1.1-1.08,1.65-1.63.05-.05.1-.14.15-.14.85.03,1.11-.75,1.6-1.18.54-.47,1.01-1.02,1.51-1.53.05-.05.14-.08.2-.07.58.07.76-.44,1.1-.73.33-.27.54-.68,1.06-.73.26-.03.5-.36.74-.56.13-.11.25-.25.38-.36.65-.55,1.02-.48,1.77-.07.37.2.93.08,1.39.04.04,0,.13-.48.04-.66-.1-.22-.38-.36-.56-.55-.09-.09-.18-.23-.17-.35,0-.07.18-.2.27-.2.75-.02,1.51-.01,2.26,0,.08,0,.18.05.24.11.19.2.08,1.64-.12,1.84-.09.09-.21.18-.23.28-.07.47-.21.9-.38,1.34-.22.6-.66.88-1.03,1.33.31.23.76.48.07.81-.07.03-.11.24-.09.35.13.67-.25,1.07-.71,1.45-.12.09-.17.31-.18.48-.02.48,0,.96-.01,1.44,0,.34.07.68-.33.92-.13.08-.1.44-.13.67-.05.41.15.89-.37,1.17-.08.05-.08.31-.07.47.02.42,0,.8-.58.96.2.11.36.15.4.23.06.14.07.44.05.45-.51.12-.36.52-.38.85-.01.24-.03.48,0,.72.12.82-.12,1.47-.73,1.77.11.5.25.9.27,1.31.04.99,0,1.99.02,2.98,0,.22.18.43.27.64.06.14.15.29.16.44.02.37,0,.74,0,1.1,0,.32-.09.69.36.81.04.01.08.08.1.12.17.47.32.95.52,1.41.08.18.3.29.42.46.32.47.56.99.93,1.4.28.32.35.7.53,1.03.23.41.71.68,1.06,1.02.52.49,1.02,1,1.53,1.5.02.02.05.07.05.1-.05.84.77,1.04,1.15,1.57.3.42.74.73,1.1,1.1.06.07.07.27.02.35-.05.07-.24.11-.33.07-.12-.05-.2-.2-.31-.31-.16.21-.32.42-.53.69.37,0,.77,0,1.18,0,.27,0,.5.02.53.39.05.56.17.6.79.36-.1-.07-.22-.11-.25-.19-.06-.15-.06-.31-.08-.47.16.03.36,0,.46.09,1.19,1.16,2.37,2.34,3.55,3.52.13.13.21.33.35.46.27.27.53.51.99.51.21,0,.47.32.61.55.14.24,0,.42-.3.43-.28,0-.57-.02-.64.36-.23-.05-.47-.1-.81-.17,0,.23-.02.57.01.91,0,.07.2.17.3.16.16-.02.38-.07.45-.19.34-.51.74-.91,1.4-.74.3.08.6.27.84.48.4.35.75.75,1.12,1.13.06.06.13.19.18.19.82-.07,1.08.69,1.55,1.09.73.62,1.34,1.37,2.01,2.06.06.06.16.08.25.1.61.13.95.49,1.04,1.07.02.12.12.32.2.33,1.07.08,1.43,1.06,2.1,1.63.57.49,1.07,1.06,1.61,1.6.53.53,1.1,1.03,1.6,1.6.37.42.63.93.96,1.38.14.2.33.36.5.54.48.5.7,1.12.9,1.76.08.27.41.46.61.69.12.14.23.28.32.44.11.18.19.36.29.54.03.06.13.13.11.18-.19.7.37,1.19.54,1.79.12.44.47.82.7,1.23.08.13.14.29.16.44.05.38-.14.82.39,1.03.05.02.06.2.07.31.02.4-.12.86.42,1.07.08.03.09.27.09.41.01.42-.02.85.02,1.27.01.18.14.35.22.52.04.08.17.15.16.21-.14.92.77,1.61.53,2.57-.09.35-.17.82.36,1.03.07.03.07.27.07.41,0,.48,0,.96,0,1.44,0,.33-.13.7.34.89.1.04.1.37.1.57,0,1.86,0,3.72.02,5.58,0,.23.19.45.29.68.05.11.12.22.13.34.02.2.01.4,0,.61,0,.44.08.89-.42,1.2-.33.21-.57.57-.85.87,0,.01,0,.07.03.08q.79.26.79,1.14c0,.5,0,.99,0,1.49,0,.37.13.81-.38.88.22.27.44.49.6.75.16.26.25.55.42.97.08-.25.2-.41.16-.54-.16-.61.3-.95.59-1.34.23-.31.55-.56.84-.82.09-.08.23-.09.34-.15.2-.1.4-.29.61-.31.61-.07.8-.45,1.02-.98.18-.43.7-.72,1.07-1.08.05-.05.1-.14.09-.19-.13-.58.47-.7.69-1.05.2-.31.48-.59.78-.81.18-.14.46-.13.7-.2.2-.06.39-.13.58-.2-.08-.2-.2-.39-.24-.59-.05-.3-.14-.66-.04-.91.1-.24.44-.38.67-.57.04-.03.12-.08.11-.11-.05-.45.35-.74.44-1.08.15-.6.63-1.07.56-1.79-.04-.38.45-.81.7-1.22.05-.09.15-.19.14-.28-.09-.74.27-1.2.84-1.61.13-.1.14-.44.13-.66-.04-.55.02-1.04.5-1.37.1-.07.22-.12.34-.13.2-.02.42.03.61-.02.6-.16.98.22,1.35.57.4.37.77.77,1.12,1.19.16.19.22.45.37.65.21.29.47.54.67.83.24.34.81.49.65,1.06-.05.16-.22.37-.37.41-.56.13-.59.14-.37.95.18-.67.61-.66,1.05-.64.52.02.99.51,1.14,1,.1.32.41.58.62.87.07.1.22.18.22.28.02.58.4.9.83,1.18.04.03.09.07.1.12.17.45.32.92.52,1.36.11.23.28.48.5.61.55.34.47.6-.13.9.19.09.29.14.39.18.18.08.53.16.53.23,0,.28-.15.55-.2.82-.07.34-.14.69-.15,1.03,0,.07.24.21.36.21.14,0,.28-.14.42-.23.11-.07.27-.24.3-.21.12.07.21.22.28.35.27.51.55,1.02.79,1.54.09.19.1.42.12.63.03.3-.09.65.34.77.05.02.08.15.1.24.02.09-.02.24.02.27.71.4.1,1.39.8,1.81.09.05.07.31.08.47.03.34-.13.76.4.89.03,0,.05.05.06.09.17.64.35,1.28.49,1.93.06.28-.02.56.32.75.13.07.12.43.14.66.05.46-.14.96.4,1.32.15.1.05.59.06.9,0,.31-.06.62.32.81.09.05.11.29.12.45.01.52,0,1.03,0,1.55,0,.29-.04.57.31.76.11.06.13.36.14.55.01,1.55,0,3.09,0,4.64,0,.3,0,.54.33.78.5.38-.12.46-.41.67.94.4.51,1.16.58,1.77.01.1-.05.27-.11.29-.52.14-.39.55-.39.9,0,1.36,0,2.73,0,4.09,0,.27.05.55-.31.68-.09.03-.13.28-.13.44-.02.52,0,1.03,0,1.55,0,.3.07.62-.32.8-.1.05-.09.36-.11.56-.07.47.2,1.02-.39,1.38-.17.1-.18.47-.27.72-.21-.13-.41-.32-.64-.38-.29-.08-.53-.05-.6.4-.11.69.38.94.75,1.29.22.21.33,1.18.12,1.38-.08.08-.23.09-.35.11-.16.04-.33.06-.4.07.15.36.29.65.39.95.03.08-.04.27-.11.29-.49.16-.35.56-.4.91-.03.2-.18.38-.28.57-.02.03-.07.04-.08.07-.18.52-.37,1.04-.51,1.57-.07.27.04.59-.35.73-.08.03-.07.27-.12.39-.07.15-.16.29-.25.43-.04.06-.13.09-.15.15-.18.47-.33.96-.52,1.43-.05.12-.19.19-.27.3-.08.1-.19.21-.21.33-.04.25.02.52-.34.6-.06.01-.08.19-.12.28-.11.23-.23.45-.33.68-.05.11-.07.24-.12.35-.09.18-.19.35-.29.52-.02.03-.07.04-.08.07-.19.46-.32.95-.56,1.37-.34.6-.5,1.34-1.15,1.74-.06.04-.16.06-.18.12-.18.47-.33.94-.52,1.4-.05.13-.17.29-.29.33-.82.24-1.01.46-1.06,1.33,0,.14-.02.37-.1.41-.35.17-.42.44-.45.79,0,.09-.26.21-.41.24-.27.05-.56.04-1.02.07.56.36.82.64.2.93-.03.01-.05.06-.05.1,0,.9-.82,1.17-1.28,1.72-.24.28-.64.46-.65.98,0,.28-.39.54-.59.81-.31.43-.74.53-1.24.48-.13-.01-.26.05-.54.11.24.12.41.16.44.23.05.16.1.41.02.5-.86.89-1.7,1.81-2.65,2.6-.49.41-.78,1.12-1.61,1.17-.24.01-.55.51-.64.83-.1.37-.2.54-.59.55-.14,0-.28.23-.39.38-.12.15-.2.32-.3.48-.1-.17-.21-.33-.29-.51-.05-.09-.06-.2-.21-.31-.03.12-.11.25-.08.35.16.58-.24.93-.54,1.31-.2.27-.8.15-.97-.16-.04-.07-.09-.14-.16-.25-.21.25-.4.47-.65.77.23.03.43.03.62.09.11.04.27.16.28.25.01.1-.14.3-.21.3-.83-.04-1.03.79-1.58,1.12-.09.05-.14.23-.21.22-.65-.05-.89.5-1.26.85-.05.05-.12.12-.18.11-.42-.05-.63.25-.9.49-.53.47-1.16.77-1.86.94-.25.06-.43.38-.66.57-.16.13-.34.26-.52.36-.46.26-.93.5-1.4.74-.11.06-.22.1-.33.16-.19.1-.38.2-.57.31-.03.02-.04.07-.07.08-.47.17-.94.35-1.41.51-.07.02-.19,0-.21.04-.55.95-.86.01-1.11-.22-.36-.33-.56-.38-.88-.02-.09.1-.27.16-.42.18-.55.07-.63.23-.32.86.3-.64.86-.48,1.36-.46.11,0,.21.15.31.23-.09.11-.17.28-.28.32-.59.2-1.17.39-1.65.82-.07.06-.34-.04-.46-.14-.07-.05,0-.27-.07-.36-.09-.12-.26-.25-.4-.26-.1,0-.27.16-.31.28-.06.19,0,.4-.03.6-.01.12-.04.31-.11.35-.4.2-.81.41-1.24.52-.38.1-.85-.12-1.09.4-.03.07-.27.06-.42.06-.36.01-.71-.07-.92.39-.12.26-.78.15-.96-.11-.06-.08-.11-.16-.2-.29-.11.35-.11.74-.3.88-.22.16-.6.08-.91.12-.07,0-.16.04-.19.09-.31.56-.57.37-.8-.08-.44.29-.84.62-1.3.81-.3.13-.69.06-1.03.07-.28.02-.57-.07-.76.3-.06.12-.39.11-.6.14-.44.06-.97-.19-1.27.39-.04.07-.27.06-.42.06-.52,0-1.03,0-1.55,0-.29,0-.59-.05-.73.34-.04.1-.28.16-.43.17-.42.02-.85,0-1.27.01-.41,0-.78-.03-1.16.32-.22.2-.77.07-1.16.05-.03,0-.09-.31-.06-.47.01-.08.17-.14.32-.25-.35-.2-.55-.28-.81.09-.21.29-.57.54-.91.67-.34.13-.59-.06-.56-.5.02-.28-.03-.57-.04-.86-.06,0-.13,0-.19-.01-.04.1-.11.2-.12.31-.11.84-.88,1.33-1.69,1.05-.09-.03-.23-.14-.23-.2.04-.42-.16-.72-.48-.93-.17-.11-.39-.2-.59-.21-.07,0-.21.27-.21.42,0,.32-.16.72.32.89.06.02.1.27.05.34-.07.1-.24.17-.37.17-.7.02-1.4.01-2.1.01-.55,0-1.11-.01-1.66,0-.37,0-.56-.13-.52-.52,0-.11.02-.23,0-.33-.05-.19-.09-.48-.22-.54-.24-.1-.46-.05-.65.28-.23.39-.61.76-1.2.65-.3-.05-.63.02-.94-.02-.3-.04-.58-.15-.86-.23-.27.07-.57.2-.88.23-.46.04-.92.05-1.38,0-.3-.03-.57-.21-.87-.31-.17-.06-.35-.11-.52-.11-.68-.01-1.36.02-2.04-.02-.21-.01-.41-.21-.61-.31-.14-.07-.27-.17-.42-.18-.48-.02-.96,0-1.44-.01-.36,0-.79.14-.98-.37-.01-.04-.09-.05-.14-.07-.29-.11-.58-.22-.93-.35-.2.39-.43.47-.84-.02-.15-.18-.66-.1-1.01-.08-.46.03-.76-.13-.63-.62.16-.61-.46-.8-.59-1.33-.12.14-.24.23-.23.28.12.5-.3.74-.53,1.05-.06.08-.32.05-.47,0-.08-.02-.11-.23-.19-.25-.65-.19-1.3-.36-1.96-.51-.28-.06-.61.05-.71-.36-.01-.05-.07-.12-.1-.12-.56-.03-1.11-.03-1.56-.48-.17-.17-.44-.24-.67-.34-.13-.06-.27-.1-.41-.11-.36-.04-.79.12-.99-.37-.02-.06-.2-.04-.3-.08-.2-.09-.4-.19-.59-.29-.06-.03-.11-.11-.17-.13-.45-.17-.91-.33-1.36-.52-.1-.04-.15-.18-.25-.26-.1-.08-.22-.16-.33-.22-.22-.12-.45-.22-.67-.33-.11-.05-.24-.07-.35-.13-.18-.09-.35-.19-.53-.29-.08-.04-.15-.14-.22-.13-.37.03-.56-.19-.8-.43-.51-.5-1.18-.75-1.86-.98-.25-.09-.45-.36-.66-.55-.32-.29-.65-.57-.92-.9-.07-.08.02-.42.13-.49.36-.21.75-.34,1.11-.57-.31-.24-.56-.33-.8.02-.07.1-.23.14-.35.2-.19.11-.4.19-.56.33-.24.2-.77.18-1-.05-.42-.44-.89-.83-1.27-1.3-.09-.12.09-.46.16-.75-.11-.21-.29-.54-.55-1.03-.03.39-.02.66-.07.91-.04.17-.17.31-.26.46-.11-.13-.3-.26-.32-.4-.03-.31-.12-.46-.46-.48-.16-.01-.34-.15-.47-.28-.72-.67-1.44-1.34-2.12-2.05-.27-.29-.74-.5-.65-1.04.01-.07-.12-.24-.17-.24-.82.07-1-.79-1.55-1.1-.06-.03.09-.44.16-.8-.24-.35-.7-.47-1.28-.52-.3-.02-.78-.44-.8-.71-.05-.45-.32-.68-.56-.94-.37-.41-.8-.7-.95-1.34-.1-.43-.67-.75-1.04-1.12-.05-.05-.17-.05-.18-.1-.19-.52-.42-1.04-.52-1.58-.07-.38-.05-.7-.57-.65-.11,0-.33-.13-.32-.2.03-.6-.41-.86-.78-1.18-.08-.07-.09-.22-.15-.33-.1-.19-.21-.38-.32-.56-.04-.06-.12-.1-.14-.16-.18-.47-.31-.96-.53-1.41-.21-.43-.5-.81-.75-1.22-.06-.1-.09-.23-.14-.34-.1-.21-.22-.41-.31-.62-.05-.11-.11-.23-.12-.35-.04-.4.11-.86-.4-1.1-.06-.03-.02-.25-.07-.36-.07-.16-.17-.31-.28-.45-.05-.07-.18-.11-.18-.18-.04-.35-.4-.7-.39-.87.03-.7-.37-1.23-.61-1.79-.22-.52-.27-1.13-.51-1.54-.26-.43-.32-.8-.35-1.24,0-.09-.02-.23-.07-.25-.53-.21-.34-.66-.37-1.04-.03-.37.11-.77-.39-.98-.1-.04-.1-.36-.12-.56-.05-.47.12-.95-.35-1.36-.18-.16-.07-.66-.09-1.01-.01-.29.05-.58-.32-.75-.09-.04-.13-.29-.14-.44-.02-.4.03-.81-.02-1.21-.03-.22-.19-.41-.29-.62-.06-.14-.14-.29-.15-.44-.02-.5,0-.99-.01-1.49,0-.33.12-.7-.34-.89-.09-.03-.09-.34-.09-.52,0-1.12.01-2.25-.02-3.37,0-.21-.19-.42-.28-.64-.06-.14-.15-.29-.15-.44,0-2.63-.01-5.27,0-7.9,0-.16.17-.32.24-.49.08-.17.19-.35.19-.53.02-.98.02-1.95,0-2.93-.01-.45.06-.77.61-.72.07,0,.16-.06.11-.04-.1-.4-.23-.73-.26-1.07-.04-.44-.02-.88,0-1.33,0-.32-.08-.67.34-.85.08-.03.1-.26.11-.4.02-.33.06-.67,0-.99-.12-.58.3-.85.59-1.2.05-.06.29-.07.34-.02.07.09.12.28.07.39-.05.11-.21.17-.47.35h1.19c-.1-.28-.17-.56-.31-.79-.09-.15-.28-.29-.46-.33-.43-.1-.73-.69-.38-.93.42-.3.3-.65.34-1.02.04-.39-.17-.86.42-1.07.09-.03.08-.4.09-.62.02-.29-.06-.59.31-.75.08-.03.12-.21.13-.33.04-.4-.12-.85.39-1.1.07-.03.05-.27.06-.42.02-.35-.1-.76.36-.94.03-.01.06-.06.05-.09-.15-.67.34-1.16.51-1.74.03-.09.04-.23.09-.25.45-.18.33-.56.34-.9,0-.28,0-.55.36-.65.08-.02.1-.21.16-.31.1-.19.2-.38.3-.56.02-.03.07-.04.08-.07.17-.54.41-1.07.49-1.63.06-.44.17-.61.62-.6.75.01.75,0,.76-.76,0-.33-.04-.67.02-.99.03-.2.21-.37.3-.56.08-.15.13-.31.2-.47.06-.13.12-.3.22-.37.06-.04.22.11.35.17.18.08.37.19.56.19.07,0,.19-.28.2-.43.03-.3.16-.44.45-.41.34.03.46-.13.47-.46,0-.15.07-.39.17-.43.53-.21.32-.65.31-1,0-.1-.27-.2-.43-.29-.15-.08-.3-.15-.45-.23.09-.13.16-.28.27-.4.31-.33.64-.65.96-.98.05-.05.11-.12.11-.18-.04-.39.15-.62.43-.86.28-.24.42-.58.55-.97.15-.44.66-.78,1.03-1.14.22-.22.57-.34.71-.59.34-.63.53-.24.77.07.11-.29.21-.57.32-.84.1.06.2.12.3.17-.19-.04-.39-.06-.57-.11-.11-.03-.23-.11-.27-.2-.03-.07.01-.23.08-.29.68-.64,1.36-1.27,2.05-1.9.16-.15.4-.28.47-.47.24-.63.75-.45,1.2-.47.24-.01.48.01.72,0,.44-.03.72.1.69.61,0,.1.04.22.1.3.46.55.46.82.02,1.19.11.3.21.57.31.84.04.1.06.27.12.29.39.13.32.44.33.73,0,.29-.04.56.3.76.13.07.12.42.15.65.04.27-.1.61.31.73.06.02.12.15.12.22-.04.58.41.8.78,1.1.06.04.13.09.15.15.18.47.34.96.52,1.43.04.11.16.18.23.28.23.35.74.5.7,1.07-.01.18.26.4.44.57.55.54,1.11,1.06,1.66,1.59.06.06.15.14.15.22.03.82.78,1.12,1.21,1.64.39.46.85.85,1.4,1.39-.07-.57.31-1.06-.32-1.41-.09-.05-.1-.3-.1-.46-.01-.4,0-.81,0-1.22,0-.13,0-.33-.06-.36-.54-.29-.36-.79-.37-1.22-.02-.79,0-1.58,0-2.38,0-.3.08-.63-.34-.78-.08-.03-.1-.29-.11-.45-.01-.72,0-1.44,0-2.16,0-.29.09-.5.28-.76.19-.25.03-.78-.03-1.18-.02-.17-.24-.31-.24-.47-.02-1.4-.03-2.8,0-4.2,0-.19.22-.39.36-.57.29-.36.59-.71.85-1.22-.21.08-.43.16-.64.24-.14.06-.27.17-.4.17-.06,0-.17-.22-.17-.34-.02-.7-.01-1.4,0-2.1,0-.09,0-.24.05-.26.61-.3.37-.86.39-1.32.03-.7,0-1.4.01-2.1,0-.35-.11-.74.35-.95.07-.03.08-.27.08-.41,0-.57.02-1.14,0-1.71-.01-.4.14-.59.55-.55.49.05.88,0,.87-.65,0-.08.34-.24.52-.23.47.03,1.11-.03,1.35.24.21.24.34.94-.23,1.3-.1.06-.13.29-.13.45-.02.53.01,1.07-.01,1.6-.02.43.13.88-.35,1.25-.17.13-.05.63-.09.95-.06.47.24,1.06-.44,1.34-.03.01.03.48.17.62.32.31.36.8.07,1.09-.15.15-.3.4-.3.61-.02,2.01-.03,4.02,0,6.02,0,.54-.13.8-.71.73-.2-.02-.41.04-.62.12.34.28.47.79,1.03.73.08,0,.26.31.27.48.03.88,0,1.77.02,2.65,0,.16.07.37.19.46.47.39.46.83-.08,1.11-.04.02-.06.08-.14.19.69.16.52.7.55,1.17.03.49-.11.97.35,1.42.25.24.2.79-.37,1.03.57.32.6.64,0,.95.81.44,1.06,1.07.95,1.89-.02.18.18.39.26.59.07.19.13.4.17.6.09.46-.24,1.04.38,1.38.08.04.06.27.06.42.02.34-.09.71.34.91.04.02-.11.43-.17.65l-.14-.03c.14.19.36.36.39.56.17,1.07.08,1.16-1.01,1.16-.13,0-.26-.02-.39,0-1.13.22-1.8-.44-2.39-1.25-.23-.31-.43-.64-.65-.97-.24.39-.46.46-.84-.05-.51-.66-1.16-1.21-1.76-1.8-.54-.51-1.1-1-1.64-1.51-.18-.17-.38-.34-.52-.55-.16-.24-.07-.42.23-.46.2-.02.4-.05.51-.07-.32-.38-.63-.76-.95-1.12-.05-.06-.17-.08-.26-.07-.7.11-1.03-.39-1.52-.75-.51-.38-.34-1.03-.86-1.35-.63-.39-.58-1.34-1.3-1.71-.08-.04-.04-.28-.09-.41-.06-.15-.16-.29-.25-.43-.02-.03-.09-.03-.09-.05-.08-.43-.22-.81-.58-1.12-.2-.18-.34-.5-.38-.78-.04-.28.06-.6.13-.89.06-.24.16-.47.25-.7-.06-.03-.12-.05-.18-.08-.05.04-.09.09-.14.13-.12.09-.24.17-.36.25-.08-.12-.22-.24-.23-.38-.04-.27,0-.55-.02-.83,0-.17-.04-.33-.07-.54-.26.41-.42.8-.69,1.06-.32.31-.44.65-.6,1.05-.17.42-.65.71-1,1.05-.05.05-.15.06-.18.12-.28.57-.55.42-.8-.09-.23.33-.25.57.06.79.25.18.23.33,0,.57-.32.33-.84.51-.8,1.16.02.21-.4.46-.61.69-.07.08-.21.16-.2.23.05.61-.42.85-.8,1.16-.03.02-.07.04-.08.07-.17.46-.3.94-.52,1.37-.16.31-.45.55-.68.82-.06.06-.19.08-.21.15-.18.47-.31.95-.51,1.41-.06.14-.27.31-.41.31-.41.01-.5.22-.48.57.01.22.03.45,0,.66-.11.6-.38,1.13-.8,1.59-.08.08-.1.22-.15.33-.1.19-.2.38-.3.56-.03.05-.1.08-.1.12,0,.59-.06,1.16-.48,1.64-.14.16-.21.38-.31.56-.03.05-.11.09-.1.12.21.79-.55,1.33-.52,2.08,0,.18-.16.37-.25.55-.06.13-.15.25-.17.38-.04.42.11.9-.45,1.12-.06.02-.06.23-.07.36-.03.36.09.73-.35,1.01-.16.1-.08.62-.1.94-.02.32.05.63-.32.87-.14.09-.09.47-.13.72-.06.38.19.86-.36,1.1-.07.03-.08.23-.08.36-.01.41.03.81-.02,1.21-.03.24-.2.46-.3.69-.06.15-.14.3-.14.45-.02.5-.07,1,0,1.49.09.56-.3.83-.59,1.14-.07.08-.43-.12-.77-.23,0,.09-.08.31-.03.5.02.09.26.19.39.18.43-.02.54.2.53.58-.01.42-.02.85,0,1.27.02.43-.17.59-.6.56-.42-.03-.89.12-1.15-.53-.11.42-.25.69.13.92.11.07.14.27.21.4.09.16.17.42.27.43.17.02.37-.12.55-.2.12-.05.23-.16.35-.18.06,0,.2.15.19.21-.02.12-.12.23-.19.35-.1.17-.27.34-.27.51-.02,2.08-.02,4.16,0,6.24,0,.17.18.34.27.51.09.18.22.37.22.56.02.98,0,1.95.02,2.93,0,.22.2.43.25.66.04.17-.02.35-.04.53-.03.26-.18.68-.09.73.35.22.3.51.32.82.02.44-.14.93.39,1.22.08.04.07.27.07.42,0,.42,0,.85.01,1.27,0,.15.05.38.16.43.38.2.35.54.25.81-.06.15-.4.19-.6.28-.08.03-.15.08-.37.2.26.08.4.15.53.16.55.07.98.57.92,1.1-.02.14-.15.26-.21.4-.08.18-.19.38-.19.56,0,.09.25.24.39.24.37,0,.48.16.47.5,0,.36-.15.8.4.94-.05.17-.09.35-.16.52-.07.2-.2.39-.21.59,0,.07.27.22.41.22.39,0,.52.17.52.53,0,.36-.06.74.37.95.08.04.07.27.09.41.04.36-.15.8.37.98.06.02.09.21.07.3-.13.67.27,1.05.7,1.45.16.15.15.49.19.74.04.26-.08.58.33.65.04,0,.1.06.12.11.18.43.34.87.52,1.31.05.13.14.24.21.36.08.13.16.26.23.4.11.2.24.4.32.62.07.2.14.41.13.62-.01.42.04.74.57.7.08,0,.24.05.24.09.05.45.39.77.53,1.13.18.48.47.77.79,1.09.07.07.17.17.17.26-.01.56.43.81.74,1.15.06.06.15.14.15.2-.02.61.4.9.84,1.17.06.04.12.11.12.17.05.82.74,1.16,1.21,1.66.06.06.16.14.16.21-.03.8.73,1.03,1.1,1.55.4.57,1.18.83,1.28,1.67.03.24.37.59.6.62,1.02.13,1.3,1.14,2.04,1.6.08.05.04.28.09.42.05.12.15.31.23.31.81,0,1.05.79,1.57,1.17.37.27.56.74,1.13.77.22.01.47.29.64.51.33.43.63.84,1.25.86.15,0,.32.23.43.38.43.63,1.39.56,1.7,1.34.01.03.1.06.15.05.61-.08.87.4,1.2.76.04.04.07.1.11.11.45.17.91.33,1.36.51.12.05.23.15.34.24.04.03.05.14.08.14.95-.03.83.99,1.36,1.36.1.07.24.09.36.1.24.02.48,0,.72,0q.98,0,1.31.87c.29-.37.59-.58.9-.03.04.08.28.05.42.06.36.01.72-.06.94.4.06.13.47.07.71.13.18.04.35.12.52.19-.09.14-.19.27-.25.43-.08.2-.11.42-.16.64.05.02.1.03.15.05.24-.25.46-.52.73-.73.1-.07.37-.06.46.02.5.43.91.42,1.36-.04.1-.1.22-.17.34-.26-.05-.08-.07-.16-.1-.16-.83,0-1.14-.74-1.66-1.17-.29-.24-.48-.51-.51-.94-.02-.23-.38-.43-.57-.67-.13-.17-.21-.38-.34-.55-.22-.29-.45-.57-.68-.85-.07-.08-.2-.16-.2-.23,0-.59-.41-.89-.8-1.23-.08-.07-.07-.23-.12-.34-.1-.18-.24-.34-.32-.53-.06-.14-.06-.31-.09-.47.15,0,.34-.04.43.03.26.21.47.47.7.71.36-.6.13-1.39-.48-1.56-.17-.05-.41.11-.62.19-.12.05-.27.18-.36.15-.1-.04-.15-.21-.22-.33-.11-.2-.23-.4-.34-.61-.06-.11-.08-.24-.13-.35-.09-.18-.19-.35-.29-.52-.02-.03-.07-.04-.08-.07-.18-.47-.35-.94-.53-1.4-.05-.13-.09-.3-.19-.35-.39-.2-.32-.36-.04-.61.12-.11.22-.34.2-.5,0-.1-.25-.24-.39-.24-.37,0-.53-.14-.55-.52,0-.14-.13-.28-.21-.41-.04-.06-.15-.11-.15-.15.13-.87-.71-1.51-.54-2.4.05-.28.1-.62-.31-.79-.1-.04-.1-.36-.13-.55-.07-.46.2-1.01-.38-1.33-.08-.04-.06-.28-.06-.42,0-.48,0-.96,0-1.44,0-.32-.03-.58-.31-.87-.21-.22-.15-.76-.13-1.15.01-.3.15-.6.24-.91-.07-.24-.23-.56-.24-.87-.03-1.73-.01-3.46-.01-5.19,0-.27-.06-.55.3-.69.1-.04.13-.32.14-.49.02-.72-.01-1.44.02-2.15,0-.18.18-.35.26-.53.07-.16.14-.32.17-.49.03-.2.02-.41,0-.61-.04-.49.04-.85.66-.77.05,0,.1-.04.15-.06.01,0,.02-.03.03-.05-.52-.56-.52-.69,0-1.38.03-.04.08-.11.07-.15-.19-.69.21-1.36.55-1.7.48-.5.34-1,.48-1.5.04-.14.29-.22.37-.36.19-.32.63-.52.51-1,.6-.3.31-.89.47-1.33.16-.44.49-.82.73-1.23.07-.12.08-.27.14-.4.09-.18.2-.35.3-.53.07-.12.14-.23.21-.35.12-.2.23-.4.34-.61.05-.09.09-.2.11-.3.1-.62.52-.99,1.14-.99.29,0,.61.07.72-.33,0-.02.01-.04.03-.05.43-.19.85-.52,1.28-.54.58-.02,1-.19,1.35-.69-.5-.12-.98-.23-1.47-.35-.28.06-.6.19-.93.19-.29,0-.38-.27-.18-.47.58-.62,1.17-1.24,1.82-1.78.18-.15.59-.03.9-.03-.04.3-.07.6-.14.9-.02.08-.15.13-.33.27.42.08.7.33.94-.17.21-.45.52-.86.81-1.31-.21-.19-.47-.39-.68-.62-.09-.1-.15-.35-.09-.42.46-.51.9-1.05,1.44-1.45.38-.28.93-.35,1.39-.54.38-.15.74-.34,1.11-.51.02,0,.04-.03.04-.04-.08-1.13,1.27-.88,1.62-1.66.09-.2.71-.15.96-.53.14-.21.45-.31.58-.52.2-.33.46-.43.82-.4.06,0,.15-.03.2-.08.6-.62,1.33-1.16,1.74-1.89.3-.55.79-.98,1-1.48.23-.54.59-.87.9-1.29.28-.38.31-.94.56-1.35.32-.5.39-1.04.53-1.58.12-.45.53-.81.79-1.23.06-.1.06-.24.07-.37.03-.36-.14-.79.37-.98.06-.03.07-.23.08-.36.03-.39-.12-.82.37-1.06.07-.03.07-.24.08-.36,0-.41,0-.81,0-1.22,0-.13-.03-.32.04-.37.8-.61.26-1.46.41-2.18.06-.31-.08-.66.34-.84.1-.04.12-.33.12-.5.01-1.11-.01-2.21.02-3.32,0-.3.14-.6.22-.89-.07-.3-.21-.62-.22-.95-.03-.92,0-1.84-.02-2.76,0-.21-.19-.42-.28-.64-.07-.16-.15-.33-.16-.5-.02-.48,0-.96-.01-1.44,0-.33.11-.71-.35-.89-.07-.03-.09-.27-.09-.41-.01-.44,0-.88,0-1.33,0-.13,0-.33-.06-.37-.56-.28-.34-.78-.38-1.21-.02-.3.07-.63-.33-.8-.08-.04-.11-.26-.12-.39-.02-.37,0-.74,0-1.11,0-1.02.3-1.34,1.3-1.32.42,0,.94-.2,1.2.38,0,.01.03.02.05.02.92-.05,1.19.81,1.76,1.25.07.05.17.13.23.12.55-.15.65.43.97.64.25.17.05.43-.29.49-.84.14-1.18.8-.87,1.48.33-.09.64-.19.95-.24.08-.01.24.12.26.21.02.09-.08.21-.12.32-.09.21-.22.41-.25.63,0,.05.31.15.47.22.15.07.3.15.45.23.12.07.23.18.36.19.26.03.57.01.53.39-.02.23-.1.58-.24.63-.25.09-.53.1-.82-.19-.45-.46-.8-1.11-1.59-1.15-.13,0-.26-.26-.38-.4-.25.33-.22.48.03.74.12.13.24.32.25.49.03.53.01,1.07.01,1.6,0,.29-.06.59.32.74.08.03.12.25.13.39.01.81.03,1.62,0,2.43,0,.21-.18.41-.23.52.09.42.23.79.24,1.16.02,1.99.02,3.98,0,5.97,0,.23-.2.46-.29.69-.06.15-.14.3-.14.45-.02.5,0,.99,0,1.49,0,.32.05.64-.32.87-.13.08-.11.43-.14.66-.05.41.15.87-.36,1.18-.12.08-.06.45-.09.68-.05.42.2.95-.44,1.16-.05.02-.06.2-.08.3-.02.13,0,.34-.06.37-.54.22-.27.72-.42,1.07-.23.55-.28,1.2-.53,1.66-.32.57-.42,1.37-1.16,1.68-.05.02-.08.14-.07.2.15.77-.37,1.19-.86,1.62-.05.04-.11.12-.1.18.03.36-.17.57-.41.82-.24.26-.65.49-.54.98.01.05-.1.15-.17.18-.43.2-1.66-.03-2.08-.47.13.83-.39,1.2-.89,1.59.63.37.99.22,1.19-.41.04-.12.21-.27.32-.28.22-.02.45.06.68.1-.03.13,0,.31-.09.39-.57.59-1.16,1.16-1.74,1.73-.38.37-.5-.03-.73-.36-.06.23-.12.36-.12.48,0,.55-.47.87-.81.92-.49.07-.78.39-.98.67-.39.51-.55.3-.81-.12-.2.4-.84.46-.7,1.08.01.06-.1.2-.14.2-.66-.06-.88.5-1.24.86-.06.06-.16.08-.24.13-.36.2-.78.34-1.08.61-.93.87-1.82,1.79-2.72,2.68-.29.29-.59.59-.88.89-.05.05-.1.13-.09.19.1.61-.41.83-.72,1.17-.08.09-.2.21-.19.3.07.53-.37.77-.65.98-.25.19-.31.34-.33.6-.01.14-.12.28-.2.41-.07.13-.16.26-.24.39-.11.19-.21.38-.32.57-.02.03-.07.05-.07.08.07.67-.35.87-1,.83-.02.08-.03.15-.05.23.1.03.24.04.3.1.1.1.23.3.19.38-.22.4-.5.78-.74,1.17-.06.1-.08.24-.11.36-.03.12-.03.34-.1.36-.58.19-.38.66-.43,1.05-.02.16-.13.31-.21.46-.07.15-.15.3-.23.45-.09.16-.17.33-.26.48-.03.04-.12.08-.12.1.15.74-.43,1.28-.53,1.96-.04.25-.21.49-.31.74-.06.16-.12.34-.14.51-.06.51.12,1.03-.37,1.48-.18.17-.06.67-.08,1.02-.01.27.03.55-.35.66-.09.02-.16.31-.16.47-.01,1.03,0,2.06-.02,3.09,0,.2-.21.38-.25.59-.05.23-.07.48-.02.7.05.22.26.42.27.64.04.59-.05,1.19.03,1.76.09.64-.21,1.1-.62,1.42-.5.4-.23.79-.25,1.19.06.01.12.02.18.03.03-.18.02-.38.11-.53.07-.12.25-.19.38-.28.16.38.78.42.71.98-.03.25-.06.53,0,.77.19.64.36,1.3.68,1.88.17.31.29.41-.06.63-.23.14-.39.4-.62.65.13.05.23.13.33.14.64.09.98.5,1.03,1.13.02.25.2.49.3.74.05.13.07.27.13.4.08.18.2.34.27.52.08.19.15.39.17.6.03.32-.08.69.37.81.04.01.08.08.1.13.17.47.31.96.53,1.41.22.44.55.82.77,1.26.11.21.11.49.1.74-.01.38.08.61.51.57.1,0,.26.03.3.09.22.44.39.9.61,1.33.24.47.55.91.75,1.39.08.19-.06.46-.12.76.6-.06.95.49,1.31.97.44.56,1.22.81,1.33,1.69.03.25.41.54.43.92,0,.05.1.13.15.13.81-.04.96.85,1.55,1.13.12.06.03.49.12.73.06.18.22.36.37.49.3.25.64.47.96.69.15.1.3.25.46.26.46.04.92,0,1.38.02.38.02.82-.15,1.04.37.03.07.27.07.41.08.48,0,.96,0,1.44,0,.33,0,.7-.09.9.34.04.09.33.09.51.09,1.55,0,3.09,0,4.64,0,.3,0,.63-.08.79.33.03.09.29.12.45.12.72.01,1.44.02,2.16,0,.4,0,.57.14.55.55-.02.28.02.57.04.86.08.01.15.02.23.03.18-.38.35-.76.56-1.13.08-.13.24-.27.39-.29.29-.05.59.02.88-.03.22-.04.41-.19.62-.29.13-.06.26-.14.39-.14,1.12-.01,2.25-.02,3.37,0,.21,0,.42.19.53.25.37-.1.7-.21,1.05-.26.43-.06.86.09,1.23-.37.15-.19.7-.06,1.06-.08.26-.01.51.05.68-.3.16-.32.79-.16,1.06.16.3-.11.56-.21.82-.31.07-.02.18-.02.2-.06.3-.68.9-.4,1.39-.45.42-.04.84.08,1.21-.33.17-.19.66-.09,1.01-.11.29-.02.61.06.74-.32.01-.04.09-.1.12-.09.7.18,1.17-.44,1.8-.51.11-.01.24-.08.32-.16.54-.55,1.07-1.11,1.59-1.67.1-.11.21-.27.21-.41,0-.42.21-.55.59-.52.29.02.6.05.88-.02.15-.03.37-.24.37-.38,0-.13-.2-.3-.35-.41-.14-.11-.33-.16-.49-.23.1-.14.21-.26.28-.41.19-.35.66-.5.62-1.02-.02-.3.71-.43.95-.18.23.24.44.5.7.8.15-.25.29-.49.43-.73.05.04.09.09.14.13-.01-.03-.02-.09-.04-.09-.5-.07-.96-.17-.79-.86.1-.43-.26-.97.33-1.29.08-.04.06-.23.12-.34.09-.18.19-.35.29-.52.06-.11.1-.22.15-.33.1-.19.2-.38.3-.56.04-.08.14-.16.13-.22-.07-.43.2-.66.47-.91.25-.24.56-.48.49-.91,0-.06.09-.19.15-.2.37-.06.33-.33.33-.59,0-.35-.1-.75.36-.95.07-.03.05-.24.1-.35.07-.17.18-.32.26-.48.06-.12.11-.25.17-.37.09-.18.2-.34.28-.52.07-.17.15-.36.17-.54.04-.35-.09-.76.37-.94.01,0,.03-.03.03-.04.17-.65.35-1.31.5-1.97.06-.28-.05-.61.36-.7.05-.01.12-.07.12-.11,0-.57.06-1.11.48-1.56.17-.17.29-.43.33-.67.04-.23.04-.56-.1-.7-.24-.25-.29-.37-.01-.6.12-.1.21-.29.22-.44.03-.42-.02-.85.02-1.27.02-.22.2-.42.27-.64.08-.23.16-.48.16-.71,0-.4.06-.69.55-.68.38,0,.36-.3.35-.56,0-.26.09-.62-.34-.63-.79,0-.5-.59-.56-1-.07-.5.24-.59.64-.59.06,0,.13-.05.24-.1-.26-.25-.51-.44-.71-.68-.1-.13-.16-.32-.16-.49-.02-.63-.02-1.25,0-1.88,0-.38-.14-.82.37-1.05.07-.03.11-.26.07-.35-.19-.42-.41-.82-.61-1.23-.1-.19-.25-.38-.27-.58-.04-.42,0-.85-.02-1.27-.01-.38.12-.77-.34-1.07-.16-.1-.07-.58-.1-.89-.03-.34.14-.72-.35-.94-.13-.06-.07-.54-.09-.83-.03-.36.11-.75-.38-.99-.15-.07-.17-.55-.13-.82.09-.61-.25-.98-.63-1.34-.08-.07-.24-.15-.23-.2.18-.87-.72-1.51-.51-2.39.09-.39-.03-.69-.53-.66-.09,0-.28-.08-.28-.12,0-.46-.29-.73-.54-1.07-.27-.38-.35-.9-.54-1.34-.04-.1-.24-.19-.35-.18-.13.02-.27.14-.35.26-.15.23-.27.47-.37.72-.06.13-.08.28-.09.42-.03.37.1.79-.41.97-.07.02-.06.23-.11.34-.07.17-.17.32-.25.49-.07.14-.13.28-.2.42-.08.16-.17.32-.27.48-.03.04-.1.06-.12.11-.18.47-.31.95-.53,1.4-.14.29-.4.53-.62.78-.07.08-.23.14-.23.21.02.65-.53.9-.89,1.28-.04.04-.09.09-.09.13,0,.85-.78,1.11-1.21,1.64-.07.08-.16.18-.16.27.03.59-.43.81-.79,1.14-.54.49-1.06,1.01-1.53,1.57-.35.42-.55.96-.91,1.36-.52.58-1.12,1.08-1.67,1.63-.38.38-.73.78-1.09,1.17-.05.05-.08.15-.13.17-.46.18-.93.34-1.38.54-.13.06-.24.21-.33.34-.13.19-.27.38-.35.59-.23.58-.72.45-1.16.46-.24,0-.48.03-.72,0-.23-.04-.58-.1-.64-.25-.1-.28-.17-.63.21-.88.3-.2.28-.48,0-.73-.36-.31-.34-1.18-.03-1.51.14-.15.17-.4.23-.62.07-.25.13-.5.2-.75.2.11.4.22.63.35.25-.52.57-.5.88.03.22-.61.15-.69-.38-.75-.29-.03-.8-.15-.82-.28-.06-.44-.34-1,.3-1.31.07-.04.13-.18.14-.28.04-.43-.09-.87.39-1.22.17-.13.02-.67.08-1.01.04-.24.19-.46.29-.69.04-.1.1-.19.13-.29.1-.26.19-.52.27-.71-.05-.24-.1-.47-.15-.71.25-.05.51-.1.91-.17-.88-.55-.49-1.27-.55-1.9,0-.03,0-.09.03-.1.69-.45.35-1.15.41-1.75.04-.32-.05-.66.34-.86.08-.04.1-.26.1-.41.01-.4,0-.81,0-1.22,0-.15-.01-.38.06-.42.77-.42.36-1.13.44-1.71.05-.32-.07-.66.34-.85.09-.04.11-.3.11-.45.01-.68.03-1.36,0-2.04-.03-.53.2-.72.68-.64.34.05.67.16,1.04.24.18-.39.1-.53-.43-.56q-.84-.05-.84-.86c0-1.11-.01-2.21.01-3.32,0-.2.18-.39.26-.6.07-.16.16-.32.17-.49.02-.68,0-1.36,0-2.04q0-.96.88-1.25c-.27-.26-.51-.5-.76-.74-.01-.01-.04-.02-.04-.03.08-.7-.52-1.25-.49-1.89.02-.37.49-.71.79-1.09.01.02-.02-.07-.03-.07-.92.17-.69-.89-1.2-1.16-.03-.02,0-.27.07-.33.07-.06.26-.05.34,0,.11.07.17.21.27.34.4-.82.03-1.57-.8-1.69-.02,0-.04,0-.06,0-.14-.03-.87-1.26-.79-1.31.72-.37.43-1.03.45-1.59.04-.84,0-.84-.59-1.55-.24.11-.45.27-.69.31-.35.07-.53-.07-.61-.49-.06-.33-.4-.61-.63-.9-.05-.07-.19-.11-.19-.17-.01-.88-.85-1.11-1.27-1.67-.1-.13-.17-.32-.18-.48-.03-.42-.02-.85,0-1.27.02-.37-.12-.55-.51-.53-.36.01-.75.09-.95-.36-.02-.05-.17-.07-.25-.07-.41.01-.61-.13-.61-.58,0-.47.25-.55.63-.55.09,0,.19-.06.13-.04-.12-.18-.2-.46-.39-.57-.16-.09-.54-.07-.64.06-.29.35-.39.32-.69-.04-.48-.58-1.07-1.06-1.61-1.59-.34-.33-.7-.65-1.03-.99-.06-.07-.08-.21-.07-.31.02-.36-.19-.39-.48-.52-.62-.27-1.3-.48-1.75-1.04-.06-.08-.04-.31.03-.39.28-.32.57-.66.92-.9.2-.14.51-.12.79-.17-.33-.58-.79-.74-1.4-.69-.28.02-.72-.05-.81-.23-.15-.29-.18-.71.27-.95.1-.05.08-.34.14-.5.04-.11.12-.25.21-.27.09-.03.26.03.33.11.34.38.62.81,1,1.15.29.25.68.38,1.03.57.1.06.29.17.28.19-.08.2-.2.38-.32.58.31.45.77.61,1.36.62.26,0,.55.3.76.52.82.84,1.6,1.72,2.43,2.56.53.54,1.11,1.03,1.65,1.55.08.08.09.23.14.34.1.2.21.39.3.58.06.14.1.3.15.45.03.12.01.32.08.36.65.31.35.57-.07.83.55.22,1.08.39,1.56.63.27.14.6.37.69.63.12.34.39.7.42.95.09.86.89,1.06,1.25,1.62.03.04.11.06.13.1.2.46.37.93.58,1.37.22.46.48.89.73,1.33.03.06.14.12.13.16-.17.69.38,1.17.49,1.78.01.07.02.19.06.2.67.24.41.81.45,1.27.03.31-.04.62.33.81.09.05.11.3.11.46.01.59,0,1.18,0,1.77,0,.37-.12.78.36,1,.08.04.09.27.09.41,0,2.16,0,4.31,0,6.47,0,.15-.09.3-.15.45-.1.23-.29.45-.29.68-.03,1.12,0,2.25-.03,3.37,0,.22-.18.43-.27.65-.06.16-.15.33-.15.5-.02.7.02,1.4-.02,2.1-.01.2-.22.39-.32.6-.07.14-.16.28-.17.43-.02.46,0,.92-.01,1.38-.02.37.16.82-.36,1.04-.08.03-.07.3-.08.46-.01.37.03.74-.02,1.1-.03.24-.2.45-.29.68-.06.15-.13.3-.13.45-.02.4.03.81-.02,1.21-.03.22-.2.42-.28.64-.07.18-.13.36-.16.55-.07.5.17,1.04-.39,1.46-.17.13-.03.63-.09.96-.05.24-.22.46-.28.7-.08.29-.11.59-.15.89-.05.37.1.76-.39,1.04-.19.11-.09.73-.12,1.12.09.02.18.04.28.06.18-.39.34-.8.56-1.17.15-.25.36-.48.58-.68.68-.66,1.36-1.3,2.05-1.95.04-.04.09-.09.09-.13-.07-.84.77-1.04,1.12-1.59.26-.41.84-.57.83-1.22,0-.21.35-.41.52-.64.13-.17.22-.36.33-.55.08-.13.15-.26.23-.39.06-.1.21-.19.2-.29-.02-.37.16-.58.41-.82.25-.24.62-.47.54-.94-.01-.07.16-.17.23-.26.09-.12.24-.25.23-.37-.03-.47.18-.63.61-.61.08,0,.16-.05.32-.11-.47-.29-.69-.56-.11-.88.08-.04.07-.27.08-.41.03-.35-.11-.75.37-.93.06-.02.11-.24.08-.35-.14-.58.16-1.02.57-1.3.37-.26.34-.56.34-.9,0-1.25,1.12-2.06,2.23-1.45.47.26,1.08.66,1.16,1.43.03.28.41.53.63.78.06.07.19.09.21.16.19.48.27,1.04.57,1.44.4.53.45,1.28,1.08,1.65.06.04.17.08.17.12.04.4.31.68.48,1,.32.59.37,1.33.54,2,.05.19.16.37.26.55.02.04.1.06.12.11.18.48.36.96.53,1.44.02.07.03.18.07.2.56.26.33.75.35,1.16,0,.14-.17.28-.23.43-.08.19-.17.39-.16.58,0,.08.23.21.36.22.34,0,.5.11.51.48,0,.16.19.31.26.47.1.22.19.45.23.68.08.44-.18.96.37,1.29.09.05.08.31.08.47,0,.57,0,1.14,0,1.71,0,.37-.1.78.36,1.01.09.04.1.3.1.46,0,3.19,0,6.37,0,9.56,0,.2-.16.41-.25.61-.07.16-.18.32-.19.48-.03.46,0,.92-.01,1.38,0,.36.05.71-.32.99-.14.1-.1.48-.11.73-.02.31,0,.63,0,.94,0,.14-.02.38-.09.41-.59.25-.38.76-.41,1.19-.03.31.11.68-.34.83-.07.02-.09.23-.1.35-.03.4.12.85-.37,1.12-.08.05-.06.31-.07.47-.02.32.08.68-.35.83-.06.02-.06.2-.1.29-.1.22-.2.43-.31.64-.02.05-.1.09-.1.12.06.62-.24,1.12-.5,1.64-.07.15-.17.28-.25.43-.12-.1-.24-.21-.37-.31-.04-.03-.09-.06-.21-.16-.05.18-.12.31-.12.45-.01.5,0,.99,0,1.49,0,.35.12.76-.36.94-.04.02-.08.13-.07.2.03.36-.12.58-.4.82-.28.24-.52.52-.6.98-.05.3-.4.71-.91.7-.14,0-.39.15-.39.24-.01.18.06.45.19.55.29.22.28.35.03.59-.32.31-.76.54-.73,1.11,0,.14-.29.28-.41.45-.29.44-.56.9-.93,1.52.45-.03.99.07,1.12-.11.41-.58.62-.26.84.09.07-.02.13-.03.13-.05.1-.45.13-.85.81-.89.41-.03.8-.5,1.19-.78.03-.02.06-.05.09-.06.47-.17.96-.31,1.41-.52.44-.22.83-.52,1.25-.78.06-.04.13-.09.19-.09.38.05.61-.14.86-.42.24-.26.5-.63.97-.51.02,0,.05,0,.05-.02.19-.44.56-.64.96-.42.31.17.5.55.75.83.02.02.07.03.13.05.32-.36.66-.73,1.08-1.2-.37-.02-.67,0-.95-.06-.14-.03-.26-.17-.39-.27.12-.11.24-.31.36-.3.51.03.63-.48.97-.67.1-.06.18-.22.28-.22.58-.02.88-.41,1.19-.82.06-.08.33-.03.49.03.09.03.13.19.25.4.15-1.26,1.14-1.72,1.83-2.45.27-.29.52-.34.84-.44.23-.07.39-.38.59-.57.75-.73,1.52-1.44,2.26-2.19.52-.53.99-1.11,1.5-1.65.34-.36.72-.69,1.08-1.04.55-.54,1.09-1.1,1.64-1.64.17-.17.33-.37.53-.48.43-.24.33-.72.52-1.03.25-.41.7-.7,1.05-1.05.08-.08.2-.19.2-.3.02-.54.45-.74.77-1.07.27-.28.63-.52.69-1.01.04-.29.39-.55.61-.82.02-.03.1-.03.1-.04-.07-.82.81-.76,1.13-1.22.08-.12.26-.18.45-.3-.12-.07-.21-.1-.27-.17-.09-.1-.15-.22-.22-.33.48-.23.4-.8.7-1.15.29-.33.66-.54.73-1.1.05-.45.46-.85.72-1.27.03-.05.08-.08.1-.12.17-.47.34-.94.52-1.41.04-.09.13-.16.19-.25.1-.15.2-.31.29-.46.1-.17.2-.34.3-.51.06-.11.1-.22.15-.33.1-.19.2-.38.3-.56.02-.03.07-.04.08-.07.18-.47.28-.98.54-1.39.32-.5.29-1.14.55-1.54.26-.4.15-1.09.78-1.27.05-.01.06-.23.07-.36.03-.36-.13-.78.38-.98.07-.03.06-.27.07-.41.02-.37-.11-.78.37-1,.07-.03.06-.23.08-.36.03-.36-.09-.73.36-1,.16-.09.08-.58.1-.89.02-.35-.11-.75.36-.95.08-.04.1-.26.1-.4.01-.42,0-.85.01-1.27,0-.14,0-.37.09-.41.51-.29.29-.77.35-1.18.04-.25.13-.5.2-.75.2.13.4.25.64.41.14-.81.95-.27,1.39-.7-.23-.02-.46-.06-.69-.06-1.16-.01-1.02.09-1.03-1.05,0-1.49-.01-2.98.01-4.48,0-.21.18-.42.28-.63.06-.13.14-.26.15-.39.02-.59.01-1.18,0-1.77,0-.12-.03-.33-.09-.35-.46-.18-.37-.56-.34-.89.03-.3.16-.59.28-.96-.63-.37-.18-1.13-.28-1.77-.05-.27.09-.6-.35-.7-.08-.02-.15-.28-.16-.43-.02-.48,0-.96-.01-1.44,0-.35.06-.69-.33-.97-.18-.13-.09-.62-.11-.95-.02-.31.05-.62-.32-.81-.1-.05-.13-.29-.14-.44-.02-.39.03-.78-.02-1.16-.03-.24-.2-.45-.3-.68-.04-.08-.09-.15-.12-.24-.02-.07.02-.19-.02-.21-.66-.47-.11-1.45-.81-1.9-.06-.04-.07-.17-.07-.26-.03-.43.13-.93-.44-1.18-.08-.03-.07-.31-.08-.47-.02-.32-.05-.57-.31-.87-.32-.37-.41-.94-.6-1.42-.04-.11-.11-.22-.16-.32-.09-.17-.2-.34-.28-.52-.04-.1-.02-.27-.09-.3-.59-.31-.39-.59.04-.81-.03-.07-.04-.1-.04-.1-.77-.02-.89-.49-.82-1.13.01-.11-.12-.29-.23-.36-.32-.19-.31-.34-.04-.58.13-.11.25-.3.27-.46.06-.38-.06-.75.38-1.06.16-.11.08-.66,0-.99-.02-.09-.42-.1-.65-.14-.02.05-.03.1-.05.14.12.11.27.21.37.34.11.15-.59,1.34-.78,1.37-.39.04-.63-.02-.7-.52-.04-.31-.39-.58-.6-.86-.08-.11-.23-.2-.24-.32-.04-.28,0-.56-.36-.66-.04-.01-.08-.09-.08-.13.06-.65-.5-.88-.84-1.26-.05-.05-.11-.12-.11-.18.02-.38-.22-.59-.45-.86-.37-.44-.6-1-.96-1.45-.32-.4-.71-.75-1.12-1.07-.1-.08-.42.02-.56.14-.31.25-.58.56-.89.88.52.3.44.8.4,1.28-.01.13-.1.26-.17.38-.08.17-.18.32-.26.49-.06.13-.09.36-.16.37-.35.08-.34.31-.37.58-.02.15-.15.29-.24.44-.05.07-.16.13-.16.2-.04.82-.54,1.13-1.27,1.22-.02,0-.04.06-.06.09.44.53.45.88-.18,1.13-.81.32-.18-.7-.62-.8-.34.37-.27.94.1,1.27.1.09.16.41.08.48-.35.36-.74.67-1.12.99-.05.05-.14.11-.13.16.09.87-.72,1.14-1.13,1.65-.48.6-1.1,1.1-1.66,1.64-.09.08-.2.23-.28.21-.54-.06-.71.43-1.06.66-.57.38-.83,1.16-1.68,1.23-.24.02-.44.42-.66.65-.05.05-.08.14-.14.17-.48.19-.96.37-1.44.56-.03.01-.09,0-.1.03-.58.79-1.42.3-2.13.4-.14.02-.32-.19-.48-.29.15-.1.29-.22.45-.29.13-.06.29-.06.44-.08,0-.06,0-.11,0-.17-.22-.02-.44-.03-.66-.08-.22-.05-.43-.13-.64-.2.1-.19.2-.38.32-.61-.31-.22-.57-.49-.02-.84.09-.06.09-.31.09-.47,0-.79-.01-1.58.01-2.38,0-.23.14-.45.21-.68.18.11.37.22.68.41.02-.39.04-.75.06-1.16-.18.03-.24.03-.28.05-.15.1-.29.21-.44.31-.08-.19-.22-.37-.22-.56-.02-1.1-.01-2.21-.01-3.32,0-1.38,0-2.76,0-4.14,0-.17-.03-.35.03-.49.05-.12.2-.2.31-.29.08.1.2.19.24.31.06.17.07.36.09.54.22-.27.39-.49.53-.66-.1-.26-.24-.63-.4-1.06-.09.11-.14.2-.22.26-.1.08-.24.2-.33.18-.1-.03-.21-.19-.23-.31-.04-.25.02-.52-.03-.77-.05-.26-.2-.51-.29-.76-.06-.17-.13-.34-.14-.51-.02-.44,0-.88,0-1.33,0-.36.08-.74-.35-.96-.08-.04-.1-.26-.1-.4-.01-.42,0-.85,0-1.27,0-.13.01-.33-.05-.37-.62-.35-.31-.94-.41-1.43-.04-.22-.19-.42-.28-.63-.06-.13-.13-.26-.14-.39-.02-.26,0-.52-.01-.77-.04-.47.05-.81.64-.74.07,0,.15-.07.3-.13-.31-.14-.57-.26-.82-.38.06-.09.13-.17.19-.26-.06.08-.11.17-.19.23-.11.07-.25.16-.36.15-.07,0-.17-.18-.18-.28-.02-.28-.01-.53-.37-.64-.09-.03-.14-.31-.15-.49-.03-.34.06-.7-.34-.92-.08-.04-.06-.24-.11-.35-.09-.18-.2-.35-.29-.52-.06-.11-.11-.22-.16-.33-.1-.19-.2-.39-.3-.58-.02-.03-.07-.04-.08-.07-.18-.47-.27-.99-.54-1.39-.33-.5-.33-1.05-.51-1.55-.16-.45-.72-.76-1.1-1.13-.07-.07-.21-.16-.2-.22.11-.51-.3-.81-.57-1.01-.53-.38-.37-.59.12-.89Zm-59.93,104.14c-.87-.87-1.46-.94-2.05-.15-.45.6.32.78.53,1.23.17-.19.32-.46.43-.44.57.08.71-.45,1.1-.64Zm73.04-72c.16.24.28.48.46.66.26.26,1.04.08,1.12-.21.09-.29.2-.57.3-.85-.28-.12-.62-.27-1.01-.44.11.7-.41.85-.87.84Zm-3.8,2.23c0,.85.07.92.88.83.13-.01.34-.13.35-.23.02-.17-.05-.37-.12-.54-.04-.08-.23-.1-.25-.18-.11-.38-.42-.37-.65-.27-.14.06-.18.34-.2.38Zm27.46,23.22c-.18-.2-.31-.39-.49-.52-.12-.09-.31-.13-.45-.1-.1.02-.21.19-.23.3-.04.19-.03.41,0,.6.07.52.68.85,1.12.64-.5-.49-.5-.5.05-.93Zm-119.94-27.43c.38-.4.72-.68.96-1.03.11-.16.11-.47.04-.66-.08-.18-.32-.3-.51-.46-.1.29-.11.65-.29.8-.48.41-.21.83-.2,1.34ZM84.17,14.15h0c.15,0,.29,0,.44,0,.28,0,.51-.09.43-.4-.04-.15-.25-.32-.41-.35-.28-.06-.59-.06-.87,0-.15.03-.26.25-.39.38.12.12.23.28.38.35.12.06.29.01.43.01Zm3.83,5.43c.61.24,1.07.11,1.43-.35.11-.14.21-.3.25-.46.02-.07-.13-.25-.2-.26-.18,0-.42,0-.55.12-.32.27-.59.6-.93.95Zm23.01,35.76c.01.09.02.18.03.27.55,0,1.1,0,1.64,0,.28,0,.51-.09.43-.4-.04-.15-.25-.3-.42-.36-.7-.24-1,.67-1.69.49Zm40.45,49.67c.23-.12.46-.23.63-.32-.07-.19-.14-.47-.27-.71-.08-.14-.24-.34-.36-.33-.13,0-.32.19-.36.34-.17.57.18.94.37,1.02Zm-67.61-18.15c.39-.18.66-.29.9-.43.12-.07.27-.2.28-.32.01-.12-.11-.38-.18-.38-.33,0-.86-.06-.96.11-.16.28-.04.72-.04,1.01Zm-28.21-2.51q1.03.96,1.82,0h-1.82Zm64.77,46c-.23.18-.37.34-.54.43-.17.08-.38.08-.57.12-.04.06-.09.13-.13.19.85-.05.34.74.86,1.02.03-.25.04-.42.08-.59.04-.12.1-.28.2-.34.4-.24.27-.51.11-.83Zm-16.57-27.66c-.34.06-.92,0-1.06.22-.34.53.34.7.57,1.12.16-.44.3-.81.49-1.34Z"/>
</svg>