<?xml version="1.0" encoding="UTF-8"?>
<svg id="Layer_1" data-name="Layer 1" xmlns="http://www.w3.org/2000/svg" viewBox="0 0 180 180">
  <path d="m15.49,168.5c-.03.18-.05.36-.09.53-.08.31-.28.36-.5.14-.61-.64-1.18-1.31-1.8-1.94-.64-.64-1.32-1.24-1.97-1.86-.63-.61-1.27-1.21-1.86-1.86-.14-.15-.1-.46-.13-.7-.05-.39.13-.82-.34-1.14-.15-.1-.13-.54-.07-.8.07-.3.36-.55.39-.84.04-.44.27-.5.62-.53.09,0,.19-.17.24-.28.04-.11.04-.25.01-.37-.15-.64.19-1.06.61-1.47.69-.67,1.36-1.37,2.05-2.06.06-.06.13-.17.19-.17.6.05,1.12-.19,1.62-.48.12-.07.34-.13.35-.22.03-.17,0-.44-.11-.52-.38-.27-.31-.45.03-.67.08-.05.11-.22.18-.24.34-.11.47-.95,1.1-.23.2.23.92.12,1.35-.02.15-.05.11-.66.17-1.14-.31.25-.56.52-.62.48-.25-.15-.45-.39-.64-.61-.03-.04.02-.21.08-.27.94-.92,1.9-1.84,2.84-2.76.16-.15.27-.35.43-.5.53-.52.76-.52,1.21-.04.29-.12.57-.22.83-.35.11-.05.24-.18.25-.27,0-.13-.07-.33-.17-.38-.78-.39-.78-.37-.1-1,.14-.13.19-.37.31-.53.22-.29.4-.66.7-.82.43-.23.71.02.73.54,0,.25.04.49.06.82.42-.41.4-1.46.05-1.7-.32-.21-.33-.38.02-.57.1-.05.16-.17.26-.23.09-.06.25-.16.29-.13.23.19.46.39.64.62.15.19.23.43.32.66.09.23.16.47.27.79.16-.37.29-.68.39-.92-.08-.36-.16-.71-.23-1.05-.01-.07.02-.18-.01-.21-.65-.49-.09-.97.04-1.42.07-.26.32-.48.52-.68.66-.65,1.38-1.25,1.98-1.96.22-.26.25-.7.56-.99.79-.75,1.45-1.65,2.32-2.27.41-.29.66-.51.96-.93.62-.87,1.53-1.54,2.32-2.29.06-.06.16-.13.16-.19-.08-.81.65-1.08,1.06-1.54.79-.89,1.66-1.7,2.5-2.53.79-.79,1.6-1.57,2.39-2.36.07-.07.17-.15.19-.23.17-.9.97-1.31,1.49-1.94.48-.57,1.08-1.02,1.61-1.54.68-.66,1.38-1.31,2-2.02.41-.46,1.1-.72,1.1-1.52,0-.19.3-.4.48-.58.69-.69,1.44-1.33,2.08-2.07.31-.35,1.08-.03,1.06-.9,0-.34.61-.72.98-1.03.42-.35.89-.62,1.32-.95.22-.16.41-.35.58-.51-.1-.21-.32-.54-.28-.58.27-.25.43-.65.93-.63.71.03.76-.01.7-.72-.04-.5.31-.69.55-.94.83-.89,1.72-1.73,2.58-2.59.15-.15.31-.31.49-.43.32-.2.31-.52.44-.81.17-.4.53-.79.91-1.01.46-.28,1.01-.42,1.54-.54.19-.05.44.11.66.17-.11.18-.22.36-.39.64.46,0,.92,0,1.37,0,.06,0,.17-.1.18-.17.06-.77.79-1,1.2-1.49.43-.53.95-.98,1.41-1.48.19-.21.08-.91-.14-1.11-.34-.32-.7-.62-.98-.98-.23-.3-.35-.67-.52-1.01-.02-.05-.03-.12-.07-.14-.55-.27-.32-.49.13-.74-.16-.09-.25-.18-.34-.19-.65-.04-.96-.39-1.1-1.01-.06-.27-.36-.49-.51-.75-.26-.45-.48-.92-.75-1.36-.18-.29-.42-.55-.65-.81-.05-.06-.18-.09-.2-.15-.18-.43-.32-.87-.51-1.29-.19-.42-.44-.81-.65-1.23-.08-.15-.13-.3-.19-.46-.05-.13-.04-.29-.12-.38-.35-.4-.36-.4.09-.8-.13-.04-.23-.08-.34-.11-.12-.03-.31-.01-.35-.08-.23-.45-.48-.9-.63-1.37-.09-.3-.09-.57-.32-.88-.31-.41-.38-1.02-.56-1.54-.07-.2-.16-.39-.25-.58-.06-.14-.16-.27-.17-.41-.04-.35.1-.75-.35-.97-.05-.02-.07-.29-.02-.32.27-.21.59-.37.86-.57.14-.1.31-.27.32-.42.01-.11-.21-.33-.33-.34-.32,0-.73-.19-.93.27,0,.01-.34-.04-.39-.14-.07-.14-.02-.34-.04-.52,0-.12,0-.32-.05-.35-.71-.36-.38-1.01-.44-1.54-.04-.34.07-.7-.32-.94-.05-.03.09-.4.16-.67-.83-.76-1.02-2.28-.31-3.06-.05-.04-.1-.13-.14-.13-.68.05-.71-.37-.69-.87.02-.42.03-.85,0-1.27-.02-.19-.18-.37-.25-.57-.07-.19-.16-.38-.16-.58-.01-1.78,0-3.56-.02-5.34,0-.23-.13-.48-.27-.67-.24-.32-.17-.74.14-1.02-.1-.38-.28-.72-.24-1.02.05-.34.27-.68.46-.98.04-.06.31,0,.47.05.21.06.4.17.6.26l.11-.25c-.33-.17-.67-.32-.98-.53-.13-.09-.27-.28-.27-.43-.02-1.36-.01-2.71-.01-4.07,0-.07-.02-.17.02-.21.74-.69.31-1.58.39-2.37.05-.43-.05-.89.44-1.13.22-.11.45-.19.69-.25.35-.08.88-.01,1.04-.23.32-.41-.32-.59-.45-.92,0-.02-.06-.02-.18-.05-.14.39-.11,1.07-.82.79-.15-.06-.22-.41-.27-.64-.15-.62.25-.79.85-.79-.68-.59-.56-1.36-.35-1.89.18-.45.16-1.06.42-1.3.58-.53.37-1.13.44-1.71.01-.11.1-.21.17-.3.05-.07.17-.1.19-.17.17-.64.31-1.29.49-1.93.06-.22.19-.41.29-.61.17-.34.51-.68.5-1.01-.03-.65.33-1.13.51-1.68.04-.12.14-.23.22-.32.06-.06.2-.09.21-.14.02-.38.43-.72.41-.92-.06-.68.35-1.17.54-1.72.13-.36.45-.66.47-1.09,0-.05.17-.11.27-.13.74-.18,1-.51,1.01-1.24,0-.36-.14-.79.34-1,.03-.01.07-.09.06-.14-.09-.6.39-.83.72-1.16.07-.07.14-.18.14-.26,0-.39.13-.6.56-.57.08,0,.2-.04.23-.1.21-.44.34-.93.61-1.33.35-.52.46-1.17.98-1.6.34-.28.71-.58.75-1.11,0-.11.3-.24.48-.26.28-.04.4-.12.43-.42.01-.16.15-.31.24-.47.04-.07.15-.14.15-.2-.06-.81.66-1.08,1.08-1.54.93-1.01,1.92-1.97,2.9-2.92.29-.28.52-.72,1.06-.63.07.01.23-.11.23-.16-.07-.78.65-1.05,1.03-1.52.37-.46.84-.83,1.28-1.23.07-.07.28-.08.36-.02.27.19.52.42.77.64.1-.09.24-.21.36-.35.24-.26.25-.54-.04-.76-.27-.21-.27-.36,0-.58.24-.2.44-.44.66-.65.07-.07.17-.18.24-.17.4.05.62-.19.87-.44.23-.24.58-.34.84-.5.7-.45,1.54-.74,2.03-1.49.06-.09.18-.22.26-.22.53.05.73-.4,1.03-.68.3-.27.7-.28.98.03.26.29.5.25.8,0,.37-.3.46-.66.42-1.1-.03-.32.11-.5.45-.5.13,0,.35-.01.39-.09.3-.58.52-.19.76.12.36-.37.67-.72,1.02-1.04.14-.13.33-.23.52-.26.36-.05.75.09.97-.4.09-.21.38-.09.44.19.03.18.04.37.06.51.32-.12.62-.19.85-.34.14-.09.23-.32.24-.5.05-.81.04-.79.83-.84.2-.01.38-.16.57-.25.12-.06.25-.11.37-.17.16-.08.31-.18.48-.24.23-.08.48-.17.72-.15.1,0,.16.29.26.42.11.14.25.36.38.36.13,0,.29-.19.4-.34.18-.24.29-.52.48-.74.34-.39.68-.85,1.32-.68.09.02.26,0,.3-.06.28-.51.76-.31,1.17-.37.25-.04.49-.19.73-.27.21-.07.43-.12.65-.14.43-.05.92.15,1.23-.36.05-.08.26-.06.4-.07.39,0,.78,0,1.16,0,.14,0,.35,0,.39-.08.24-.46.65-.33,1.02-.34.48-.01.95,0,1.43,0,.31,0,.59.03.84-.29.13-.16.55-.1.84-.13.43-.05.48.24.48.57,0,.08.08.17.15.31.08-.11.18-.18.17-.24-.05-.57.26-.68.75-.64.4.03.81,0,1.21,0,.3,0,.63.08.78-.35.03-.1.34-.14.52-.15,1.09-.01,2.18-.02,3.28,0,.2,0,.52.12.58.27.1.25.13.6-.26.75-.04.01-.06.08-.08.12q.3.25,1.16-.38c-.05-.06-.1-.12-.14-.19-.08-.12-.16-.23-.24-.35.12-.08.24-.21.37-.22.49-.03.99-.02,1.48,0,.11,0,.3.06.32.13.14.46.5.36.82.36,1.04,0,2.08-.01,3.12.01.2,0,.39.15.58.24.11.05.2.11.31.16.23.1.47.2.76.33.35-.57,1.01-.26,1.58-.31.11,0,.33.1.33.17.01.12-.11.25-.15.39-.06.18-.13.37-.14.56,0,.04.26.17.34.13.13-.06.28-.21.3-.34.09-.79.68-.42,1.07-.47.44-.06.43.29.45.6,0,.2.04.4.07.71.49-.58.9-1.07,1.63-.89.1.02.26.01.3.07.29.5.76.32,1.18.35.31.02.64-.06.82.32.04.07.21.1.33.11.4.03.86-.11,1.07.43.03.07.26.07.39.08.32.02.69-.07.86.34.01.04.1.08.13.07.65-.18,1.27.17,1.64.5.53.48,1.26.16,1.76.7.28.31.84.37,1.27.53.08.03.23.02.24.07.23.57.75.35,1.16.45.38.1.74.3,1.08.5.08.05.1.25.11.38.03.24.03.47.04.83.5-.52.87-.63,1.38-.12.3.3.85.35,1.28.53.14.06.26.18.39.28.08.06.15.19.22.19.57-.03.8.45,1.16.73.07.05.14.11.22.13.73.22.73.24.2.82.31.02.57.08.81.04.65-.11,1.01.31,1.38.71.07.07.14.21.21.21.76,0,.97.74,1.49,1.07.1.06.18.22.26.21.78-.03,1.04.67,1.49,1.08.33.3.53.67,1.06.79.29.06.74.34.78.84,0,.12.11.33.18.34.83.06,1.07.83,1.56,1.29.15.14.36.33.36.5,0,.27-.15.54-.25.85.21.07.46.15.69-.19.05-.08.33-.08.47-.02.15.06.25.22.37.34.36.36.6.75.55,1.32-.07.82-.02.83.84.82.43,0,.8,0,1.11.4.32.4.35,1.1-.03,1.48-.19.19-.34.42-.51.65.52.39.65-.26.97-.38.19-.07.46-.34.5-.3.23.21.5.46.57.74.09.39-.03.81.44,1.08.13.07.07.49.09.75.02.27.03.53.05.93.3-.32.49-.54.7-.74.08-.07.21-.15.3-.13.09.02.21.16.21.24-.02.34.19.51.4.73.25.26.51.5.52.96,0,.23.42.44.65.66.08.08.16.17.22.27.15.26.25.54.43.77.22.28.42.52.49.92.08.42.44.78.67,1.17.06.1.07.23.13.33.09.17.19.33.29.49.06.1.2.2.19.29-.06.53.38.73.65,1.05.06.06.19.13.18.17-.12.65.36,1.11.49,1.68.03.14.14.26.22.38.05.07.14.11.17.18.17.43.31.87.48,1.3.03.07.12.12.16.2.11.21.26.41.31.64.06.29-.07.64.32.82.05.02.02.38,0,.38-.34.04-.7.1-1.03.05-.12-.02-.18-.35-.26-.53-.04-.1-.08-.21-.12-.34-.25.28-.38,1.4-.15,1.54.56.35.26.59-.1.85.02.05.03.1.05.15.34,0,.69.05,1.01-.03.1-.02.12-.39.16-.6.03-.14,0-.29.03-.42.07-.28.26-.32.47-.15.15.11.38.26.38.4.02.65.71,1.05.56,1.76-.06.3-.11.67.3.87.08.04.1.25.11.38.04.36-.13.79.35,1.01.02,0-.03.33-.13.42-.3.28-.33.51.02.77.51.38.81.84.71,1.53-.03.22.14.51.28.71.2.29.16,1.1-.07,1.37-.12.14-.2.36-.19.53,0,.09.24.23.38.24.4.02.44.27.43.58,0,.37-.22.45-.52.43-.42-.04-.8,0-1.03.42-.08.14-.15.28-.23.43-.07.14-.11.33-.22.43-.3.25-.23.49-.05.82.51-.52,1-1.01,1.48-1.49.1-.1.21-.2.33-.27.03-.02.21.14.2.18-.05.13-.14.25-.22.36-.04.05-.09.1-.1.12.37.69.82,1.26.82,2.09-.03,4.28-.01,8.56-.02,12.84,0,.32.08.67-.33.87-.08.04-.09.25-.1.39-.01.46,0,.92,0,1.37,0,.32.08.67-.31.88-.08.04-.1.25-.1.39-.01.42-.04.85,0,1.27.07.64-.23,1.02-.74,1.35-.23.15-.38.42-.59.66.24.2.52.37.72.61.08.09.03.43-.02.45-.36.11-.3.38-.32.64-.04.46.2,1-.36,1.33-.05.03-.07.17-.05.25.14.72-.34,1.09-.88,1.49.11.09.23.15.26.24.05.15.07.33.04.48-.06.25-.19.48-.29.72-.1.22-.19.45-.29.67-.02.05-.09.08-.09.13,0,.56-.06,1.09-.46,1.53-.15.16-.25.37-.37.55-.05.08-.1.18-.14.26-.1.2-.2.4-.31.6-.02.05-.09.09-.08.13.12.64-.26,1.13-.47,1.67-.16.4-.31.81-.53,1.17-.07.11-.35.12-.53.13-.5.02-.99,0-1.49,0,0,.09,0,.18,0,.26.31,0,.61.02.92.03.18,0,.36-.02.52.03.1.03.25.24.22.28-.21.38-.45.75-.69,1.12-.05.08-.18.16-.18.23.06.56-.38.81-.69,1.13-.05.05-.12.09-.14.15-.17.43-.31.87-.5,1.3-.09.19-.28.33-.4.52-.48.72-.91,1.48-1.64,1.99-.04.03-.08.07-.1.12-.17.45-.26.95-.51,1.35-.27.42-.66.78-1.04,1.12-.34.3-.66.54-.76,1.07-.05.28-.52.5-.81.74-.12.1-.39.18-.38.25.05.43-.27.63-.51.85-.43.39-.8.74-.97,1.36-.1.39-.6.68-.93,1-.52.51-1.11.96-1.56,1.52-.26.32-.52.3-.83.3-.34,0-.49.09-.55.46-.07.44-.4.76-.86.81-.32.03-.48.1-.49.46,0,.16-.18.31-.28.46-.09-.15-.2-.29-.26-.45-.05-.12-.05-.26-.08-.45-.22.23-.46.38-.53.59-.06.17.01.46.13.62.2.26.26.48-.09.54-.73.13-1.08.69-1.53,1.16-.06.06-.11.17-.17.17-.79.04-1.05.76-1.56,1.17-.07.05-.14.15-.2.14-.41-.05-.67.18-.91.46-.23.27-.69.32-.83.48-.46.53-1.32.43-1.62,1.13-.04.09-.23.12-.36.17-.13.05-.29.04-.39.12-.6.47-1.19.46-1.71-.13-.06.15-.15.28-.13.38.13.55-.21.91-.5,1.28-.24.31-.77.16-1.08-.32-.05.08-.13.15-.12.21.02.46-.13.66-.65.73-.42.06-.8.42-1.2.65-.1.06-.21.1-.32.16-.19.1-.37.2-.56.3-.09.05-.18.09-.28.13-.05.02-.13-.01-.15.01-.49.52-1.36.16-1.8.8-.05.07-.18.11-.28.11-.42.03-.78.1-1.18.35-.54.34-1.28.35-1.92.52-.2.05-.38.17-.56.27-.04.02-.07.09-.12.1-.72.16-1.43.34-2.15.48-.31.06-.61-.04-.88.31-.17.22-.61.24-.87-.09-.25-.32-.57-.33-.79-.03-.42.58-.92.87-1.65.75-.29-.05-.6-.04-.9,0-.2.03-.38.19-.58.25-.25.07-.52.09-.78.13,0-.17-.07-.43.01-.49.32-.24.25-.48.16-.7-.37.16-.69.3-1.05.45.05.07.11.13.15.2.08.12.15.24.22.37-.13.07-.25.19-.38.21-.28.03-.56,0-.84.02-.14,0-.35,0-.4.07-.28.47-.73.35-1.13.35-2.84,0-5.67,0-8.51,0-.58,0-1.31.24-1.26-.79-.1.04-.15.05-.16.07-.12.31,0,.8-.6.73-.35-.04-.73.11-.99-.32-.07-.11-.39-.06-.59-.11-.28-.06-.55-.15-.9-.25-.38.38-1.51.4-2.03-.02-.13-.11-.35-.14-.53-.15-.33-.02-.67,0-1-.01-.14,0-.36,0-.4-.07-.4-.73-1.08-.34-1.64-.42-.3-.05-.61.06-.82-.32-.07-.12-.42-.09-.64-.11-.41-.05-.9.16-1.17-.36-.02-.04-.13-.06-.19-.06-.43-.01-.77-.12-1.18-.36-.56-.34-1.32-.31-1.97-.52-.33-.11-.63-.36-.9-.6-.04-.03.21-.37.36-.65-.13-.02-.33-.11-.49-.05-.11.04-.17.25-.24.39-.07.15-.13.3-.19.45-.14-.1-.26-.22-.41-.3-.15-.08-.31-.13-.47-.15-.32-.03-.68.08-.86-.34-.03-.06-.19-.05-.29-.09-.21-.09-.4-.2-.61-.29-.12-.06-.25-.09-.38-.14-.11-.04-.3-.03-.34-.11-.17-.39-.51-.28-.81-.34-.24-.04-.46-.17-.68-.28-.34-.17-.67-.38-1.01-.53-.46-.21-.95-.35-1.39-.58-.25-.13-.42-.39-.63-.59-.07-.07-.17-.2-.23-.18-.5.1-.74-.33-.97-.59-.23-.26-.45-.29-.72-.29-.32,0-.55-.07-.82-.32-.43-.38-.33-.57-.05-.74-.1-.44-.23-.81-.26-1.19-.04-.39-.28-.4-.55-.38-.27.02-.66-.13-.66.36,0,.37-.18.44-.51.51-.38.08-.73.3-1.09.47-.04.02-.09.08-.09.12.06.81-.75,1-1.09,1.52-.26.4-.68.62-1.21.52-.1-.02-.22.06-.36.1.48.53.52,1.29,1.17,1.66.05.03-.08.38-.15.67.42.53.4.81-.32,1.5-.78.76-1.59,1.48-2.37,2.24-.61.59-1.2,1.2-1.8,1.8-.04.04-.08.08-.09.13-.06.81-.77,1.15-1.21,1.69-.22.27-.43.39-.75.34-.1-.02-.23-.04-.28-.11-.33-.45-.63-.43-.95.01-.07.09-.28.05-.38.12-.14.1-.34.26-.35.39,0,.13.21.28.35.39.14.11.42.17.43.26.01.23-.02.56-.17.7-.57.54-1.24.93-2.07.9-.09,0-.19.05-.29.2.17.03.34.06.5.1.28.06.36.26.19.46-.27.34-.61.63-.89.96-.13.16-.19.38-.31.55-.17.25-.34.51-.55.73-.69.7-1.39,1.37-2.1,2.06-.07.07-.16.18-.24.18-.44,0-.61.18-.65.62-.01.16-.3.29-.45.44-.65.68-1.29,1.35-1.93,2.03-.07.07-.2.16-.19.23.09.57-.46.72-.7,1.06-.31.46-.75.84-1.19,1.2-.16.13-.45.16-.68.15-.44-.02-.71.11-.61.59.12.55-.27.83-.56,1.15-.52.56-1.09,1.09-1.64,1.62-.23.22-.46.43-.69.65-.06.06-.16.13-.16.2,0,.78-.71,1.05-1.13,1.51-.78.85-1.61,1.65-2.43,2.46-.66.66-1.32,1.31-1.99,1.97-.06.06-.16.12-.17.19-.1.94-.97,1.32-1.47,1.95-.45.58-1.09,1.01-1.62,1.53-.71.68-1.44,1.35-2.07,2.09-.39.45-1.08.71-1.06,1.5,0,.19-.3.4-.48.58-.69.69-1.39,1.37-2.1,2.05-.1.1-.24.15-.37.22-.07-.14-.14-.29-.22-.43-.08-.16-.12-.35-.24-.47-.25-.27-.29-.72,0-.96.28-.23.29-.44,0-.86-.22.43-.38.78-.57,1.11-.1.17-.24.31-.44.54.15.11.31.23.46.35.35.27.63.54.05.88-.06.03-.07.2-.05.3.12.61-.28.93-.66,1.28-.51.47-1.22.89-1.45,1.48-.47,1.22-1.51,1.89-2.31,2.77-.93,1.02-2.04,1.88-2.97,2.9-.38.42-1.02.68-1.03,1.45,0,.23-.53.63-.82.63-.59,0-.97.22-1.3.65.46.47.46.52-.18,1.12-.22.21-.45.43-.69.62-.15.12-.33.2-.51.29-.09.05-.25.03-.29.1-.31.5-.56.36-.78-.06-.84.74-1.81.31-2.7.36-.29.01-.32-.63-.08-.92.13-.17.2-.41.22-.62,0-.06-.32-.11-.46-.21-.29-.19-.6-.38-.83-.63-.27-.29-.48-.29-.74-.02-.32.34-.68.3-1-.02-.51-.51-1.05-.98-1.56-1.48-.34-.33-.68-.66-.98-1.02-.09-.11-.06-.33-.08-.51-.03-.21-.05-.42-.07-.63-.07,0-.14,0-.21,0Zm125.6-53.97c-.1-.38-.33-.76-.22-.97.15-.31.53-.53.86-.71.39-.22.82-.36,1.23-.53.03-.01.04-.06.06-.08.31-.3.52-.74,1.06-.7.06,0,.16-.07.2-.14.59-.88,1.47-1.33,2.44-1.65.06-.02.13-.05.18-.1.78-.8,1.52-1.64,2.35-2.39.44-.4.74-1.09,1.52-1.02.05,0,.12-.11.17-.17.27-.34.49-.75,1.03-.76.09,0,.25-.18.24-.27-.02-.51.41-.69.69-.97.31-.3.75-.48.71-1.03,0-.1.08-.22.16-.31.24-.26.5-.52.75-.77.14-.15.27-.39.44-.41.23-.03.48.1.8.18.12-.46.11-1.03.43-1.57.2-.33.43-.63.66-.92.4-.52,1.15-.78,1.16-1.6,0-.08.16-.16.26-.23.71-.48,1.24-1.21,1.4-1.94.18-.79,1.11-1.05,1.04-1.88.61-.2.46-.88.75-1.3.2-.28.44-.61.62-.94.22-.4.51-.76.71-1.17.21-.43.34-.9.51-1.35.02-.05.06-.11.1-.12.44-.11.31-.47.37-.76.05-.25.18-.48.31-.7.16-.27.42-.5.51-.79.2-.67.2-1.43.53-2.01.24-.41.31-.77.36-1.19.01-.1.12-.2.18-.3.07-.11.16-.21.22-.33.09-.19.17-.38.25-.57.15.14.3.28.46.41.02.02.07,0,.13,0,.12-.28.19-.52-.11-.77-.27-.22-.28-1.1-.09-1.36.14-.19.25-.42.29-.65.08-.46-.17-1,.39-1.32.06-.03.05-.2.05-.3,0-.21.02-.42,0-.63-.06-.52.13-.77.68-.71.18.02.36-.04.52-.05-.21-.25-.37-.47-.56-.66-.22-.23-.35-1.16-.1-1.31.38-.24.31-.56.31-.88,0-.6,0-1.2,0-1.8,0-.15,0-.39.09-.44.42-.26.33-.66.34-1.04,0-.53-.02-1.06,0-1.58.04-.58-.27-1.27.45-1.62-.17-.19-.42-.34-.43-.51-.04-.98-.03-1.97-.01-2.96,0-.11.17-.21.27-.32.09.11.22.2.27.32.07.17.08.36.11.55.04,0,.08,0,.12-.01.14-.37.29-.74.44-1.11-1.09-.36-1.31-.56-1.22-1.72.02-.3,0-.6,0-.9,0-.48-.15-1.03.58-1.32-.7-.1-.55-.57-.59-.96-.01-.13-.03-.34-.11-.38-.37-.19-.31-.52-.31-.83,0-.46,0-.92,0-1.37,0-.14,0-.35-.07-.4-.47-.29-.32-.73-.34-1.14-.02-.33.12-.81-.05-.98-.62-.58-.29-1.28-.38-1.92-.02-.14,0-.36-.07-.4-.46-.23-.33-.64-.36-1.01,0-.1-.02-.26-.08-.29-.46-.23-.32-.65-.34-1.02-.02-.36.13-.79-.39-.97-.08-.03-.1-.28-.11-.44-.02-.39,0-.78-.01-1.16,0-.15-.02-.39-.11-.43-.66-.31-.82-1.02-1.06-1.55-.22-.49-.26-1.12-.53-1.64-.06-.12-.09-.25-.16-.37-.24-.38-.58-.73-.72-1.15-.2-.59-.47-1.12-.81-1.64-.22-.33-.36-.71-.51-1.08-.18-.44-.29-.91-.52-1.33-.24-.44-.58-.83-.85-1.25-.2-.32-.29-.75-.55-.98-.27-.24-.32-.48-.3-.78.02-.37-.07-.61-.51-.61-.11,0-.27-.12-.3-.21-.03-.08.08-.23.17-.32.06-.07.18-.08.28-.12-.49-.29-.9-.43-1.17-.71-.44-.44-1.14-.71-1.12-1.51,0-.08-.09-.18-.17-.24-.34-.33-.69-.65-1.03-.97-.18-.17-.47-.34-.51-.54-.13-.75-.69-1.15-1.2-1.59-.7-.62-.72-.66-.03-1.33.08-.08.17-.14.26-.2,0-.05-.02-.1-.02-.16-.38,0-.76-.04-1.12,0-.55.07-.62-.48-.96-.68.07-.1.11-.25.2-.29.12-.06.29,0,.41-.05.1-.05.24-.18.24-.27,0-.15-.05-.38-.15-.45-.39-.25-.96.01-1.05.46-.06.3-.23.45-.47.25-.51-.44-.95-.97-1.46-1.41-.48-.41-.69-1.2-1.52-1.18-.05,0-.17-.16-.16-.22.02-.1.11-.24.2-.26.3-.05.63-.15.8.28.04.1.26.17.39.16.1,0,.25-.15.26-.25.02-.14,0-.37-.1-.43-.32-.2-.67-.43-1.03-.48-.42-.06-.59-.2-.57-.62,0-.1-.11-.29-.2-.31-.16-.03-.44-.02-.48.06-.32.68-.55.36-.79-.06-.37.53-.31.46-.81.07-.46-.35-.69-1.07-1.46-1-.07,0-.23-.19-.22-.3.02-.49-.27-.51-.65-.54-.24-.02-.53-.14-.69-.31-.66-.72-1.45-1.17-2.36-1.52-.34-.13-.65-.36-1.04-.46-.33-.08-.63-.29-.93-.48-.38-.24-.74-.53-1.12-.77-.08-.05-.21-.01-.31-.03-.12-.02-.23-.06-.34-.11-.21-.1-.4-.21-.61-.32-.09-.05-.19-.08-.28-.13-.48-.24-.98-.45-1.43-.74-.48-.3-.98-.46-1.53-.47-.04,0-.08-.07-.12-.09-.17-.1-.34-.19-.51-.29-.14-.08-.26-.18-.39-.28-.09-.07-.19-.21-.27-.2-.54.09-.77-.34-1.05-.63-.31-.32-.55-.35-.85,0-.07.08-.36.11-.37.1-.19-.45-.58-.3-.91-.33-.15-.02-.39-.02-.44-.11-.24-.44-.63-.34-.98-.31-.57.05-.97-.06-.98-.73,0-.02-.05-.04.04.02-.32.07-.69.21-.72.15-.23-.38-.56-.31-.89-.31-.58,0-1.16,0-1.74,0-.16,0-.44-.05-.47-.14-.15-.42-.47-.35-.78-.35-.46,0-.92,0-1.37,0-.14,0-.36.02-.4-.05-.27-.48-.72-.33-1.12-.38-.13-.02-.24-.14-.36-.22.08-.11.16-.23.25-.34.05-.06.11-.1.2-.18-.16-.08-.27-.12-.38-.18-.21-.11-.43-.21-.64-.32-.06.24-.17.47-.18.71-.01.37-.13.56-.53.54-.46-.02-.92,0-1.37-.01-.13,0-.34-.03-.38-.11-.19-.38-.52-.31-.82-.31-1.46,0-2.92,0-4.39-.01-.19,0-.44-.11-.55-.26-.22-.31-.37-.68-.5-.95-.46.2-.78.35-1.04.46.07.22.14.43.21.65-.23-.05-.46-.09-.71-.14q-.27.68-1.21.68c-.14,0-.29.02-.42,0-.33-.07-.65-.15-1.01-.24.05.93-.71.65-1.3.67-.12,0-.25,0-.37,0-.42.04-.93-.18-1.17.41-.02.06-.19.08-.29.08-.46.01-.96.13-1.2-.66-.36,1.05-1.06,1.18-1.88,1.11-.17-.01-.34.18-.53.22-.14.03-.33.04-.45-.03-.33-.19-.61-.51-.96-.61-.37-.11-.8-.04-1.21-.02-.14,0-.34.09-.38.19-.05.14.03.32.07.62.17-.23.23-.39.31-.4.28-.03.56,0,.84,0-.01.27.08.63-.05.77-.26.27-.38-.12-.54-.26-.02-.02-.07-.01-.14-.03-.37.65-.92.94-1.7.84-.19-.02-.4.2-.62.26-.15.04-.33.02-.48-.03-.09-.03-.14-.16-.3-.36-.04.31-.03.49-.1.63-.07.15-.19.33-.33.38-.55.19-1.03.63-1.68.49-.04-.01-.11.08-.17.11-.2.1-.41.24-.62.27-.32.04-.57.04-.81.35-.22.28-.49.65-.98.55-.07-.01-.18.09-.24.16-.32.34-.68.34-1,0-.24-.25-.45-.24-.6-.09.09.31.27.64.2.71-.26.24-.44.67-.92.58-.09-.02-.2.1-.31.15-.18.09-.37.27-.52.24-.55-.1-.81.29-1.15.57-.1.08-.2.19-.27.31-.3.54-1.03.36-1.4.9-.28.41-.88.57-1.28.92-.26.22-.46.45-.84.42-.08,0-.19.12-.27.2-.35.38-.71.77-1.31.62-.2-.05-.38-.17-.57-.26-.11-.05-.21-.12-.32-.14-.59-.14-.95.19-1.25.58.37.24.73.44,1.06.68.09.07.14.35.09.39-.27.21-.57.38-.87.57-.11.07-.25.11-.34.2-.52.51-1.02,1.04-1.54,1.55-.83.83-1.65,1.65-2.48,2.48-.49.49-1.03.95-1.48,1.48-.42.5-1.14.79-1.18,1.58,0,.04-.05.09-.08.13-.35.32-.7.64-1.04.97-.2.2-.52.45-.51.67.01.46-.3.64-.52.91-.06.08-.22.14-.31.11-.09-.03-.16-.17-.19-.27-.06-.16-.08-.33-.12-.49-.05,0-.1,0-.15,0-.03.12-.09.24-.09.37,0,.31-.15.42-.45.45-.46.05-.51.22-.28.73.04-.03.08-.06.12-.09.13-.1.27-.21.4-.31.07.17.19.33.18.49,0,.16-.15.31-.24.46-.2.34-.41.68-.61,1.02-.07.11-.14.23-.23.33-.2.23-.47.43-.59.7-.11.25-.08.49-.41.65-.24.12-.4.45-.54.72-.31.6-.3,1.43-1.22,1.54-.01,0-.02.06-.04.13.37.22.51.42.07.8-.29.25-.36.74-.54,1.11-.09.18-.22.34-.33.52-.06.1-.12.2-.16.31-.17.45-.31.92-.52,1.34-.2.41-.59.74-.71,1.16-.14.5-.13,1-.44,1.49-.29.47-.65,1.01-.51,1.66.01.05-.11.12-.15.19-.11.19-.23.38-.3.59-.07.21,0,.56-.13.63-.34.2-.29.48-.3.78,0,.17.03.45-.06.5-.44.27-.34.68-.38,1.07-.01.12-.12.32-.18.32-.12,0-.26-.1-.37-.18-.05-.03-.05-.13-.07-.2-.08.04-.16.08-.25.11.06.36,0,.83.22,1.07.38.43.37,1.02.15,1.25-.52.56-.26,1.16-.34,1.73-.03.2,0,.52-.11.59-.38.25-.32.59-.32.94,0,.56.01,1.13-.01,1.69,0,.17-.07.45-.18.5-.34.14-.31.39-.31.65,0,1.6,0,3.21,0,4.81,0,.3-.02.55-.28.84-.18.19-.03.73.03,1.1.03.22.24.42.24.63.02,1.57,0,3.13.01,4.7,0,.35-.11.74.37.94.09.04.12.31.12.48.01.67,0,1.34.01,2.01,0,.15,0,.4.09.44.47.26.32.69.34,1.08.02.35-.09.85.09,1.02.44.41.28.86.34,1.31.03.21.11.42.18.62.07.18.26.38.23.53-.22.87.62,1.52.47,2.36.52.3.36.81.4,1.26,0,.07.03.18.07.19.52.16.39.58.43.95.01.14.11.28.17.41.08.2.18.39.25.59.18.52.21,1.16.55,1.53.39.42.29.57-.07.81.32.44.86.69.83,1.31,0,.06.08.15.15.2.33.2.3.37.01.6-.3.24-.27.9-.04,1.1.23-.12.52-.37.6-.31.24.16.47.42.57.69.22.62.45,1.22.92,1.69.24.25.47.46.41.84,0,.06.04.13.08.19.26.38.66.73.77,1.16.15.54.47.89.85,1.23.39.36.6.77.51,1.32-.04.27-.04.57.01.84.03.14.23.37.32.36.87-.18,1.26.51,1.76.97.12.12.12.44.08.64-.02.11-.25.18-.39.25-.1.05-.22.06-.35.09q.39.47-.07,1.07c.24,0,.48.07.61-.02.22-.15.39-.38.54-.6.19-.28.34-.28.56-.02.22.26.5.48.74.73.35.37.72.73,1.03,1.13.23.3.31.73.56.99.71.75,1.48,1.44,2.23,2.16.18.17.34.49.53.51.74.07,1.03.72,1.54,1.08.71.51,1.01,1.52,2.04,1.64.06,0,.15.12.15.19.01.83.88.63,1.26,1.03.23.25.58.37.85.59.04.03-.05.27-.11.39-.05.09-.15.15-.23.22.01.06.02.12.04.18.37,0,.75,0,1.12,0,.17,0,.44,0,.5.09.4.68,1.22.74,1.74,1.23.14.13.26.29.43.36.42.19.87.34,1.3.52.08.03.1.17.18.24.08.08.18.15.29.19.45.17.9.33,1.35.5.05.02.09.1.13.16.21.33.42.65.61.95.17-.07.53-.24.54-.23.25.46.68.25,1.03.34.43.12.83.35,1.24.53.04.02.04.11.08.13.13.09.26.2.4.25.55.19,1.05.57,1.68.49.04,0,.08.11.13.15.11.08.21.17.33.21.55.18,1.08.4,1.65.54.39.09.79.31,1.24.34.05,0,.13.02.14.05.29.53.79.32,1.22.36.19.02.5-.01.55.08.31.64.87.35,1.33.42.2.03.39.1.57.17.16.07.31.22.48.24.28.03.42.15.41.43,0,.27.08.45.39.44.38-.01.49.2.47.54,0,.16-.02.32.01.47.03.12.12.31.19.31.17.02.4,0,.53-.1.17-.14.28-.36.43-.57-.09-.03-.15-.07-.22-.07-.42.02-.61-.15-.58-.59.03-.46.35-.41.64-.41.23,0,.46,0,.69,0,.33-.01.52.08.54.47.02.38.49.57.7.27.24-.33.52-.3.83-.3.46,0,.92,0,1.37,0,.17,0,.44-.02.5.08.31.47.77.33,1.19.34.58.01,1.16-.02,1.74.01.3.02.59.14.85.21.29-.07.6-.21.92-.21,2.01-.02,4.02,0,6.02-.01.17,0,.44.05.51-.05.5-.61,1.17-.34,1.76-.36.32-.01.65.14.93.21.32-.09.76-.09.92-.29.42-.54.95-.31,1.44-.36.35-.04.7.06.98-.33.23-.32.79-.09.88.29.04.16.16.43.25.43.31,0,.67,0,.94-.15.53-.27.4-1.29,1.3-1.18,0,0,.03-.02.03-.04.11-.47.49-.36.81-.38.29-.02.71.04.85-.12.29-.34.6-.3.95-.31.14,0,.35,0,.4-.07.3-.51.58-.35.83.02.41-.33.61-.88,1.24-.81.07,0,.15-.08.22-.11.22-.1.43-.22.65-.3.5-.17,1.01-.33,1.51-.5.03,0,.04-.06.07-.08.41-.26.8-.56,1.24-.77.41-.21.87-.33,1.31-.49.04-.02.07-.08.11-.11.41-.23.81-.49,1.24-.69.42-.19.87-.32,1.3-.48.05-.02.07-.12.12-.16.09-.09.19-.16.29-.24.07.13.17.25.19.38.08.54.23.61.65.4Zm-83.92,2.01c-.28-.03-.47-.09-.65-.06-.69.12-1.15-.23-1.64-.65-.22-.19-.79-.26-.99-.11-.69.54-1.28,1.2-1.91,1.81-.76.74-1.34,1.71-2.45,2.04-.08.02-.15.14-.19.22-.17.45-.33.91-.5,1.36-.03.07-.12.12-.19.17-.21.17-.44.33-.63.52-.75.78-1.48,1.59-2.24,2.37-.22.22-.52.57-.73.53-.26-.04-.54-.38-.69-.66-.25-.44-.4-.93-.6-1.41-.24.43-.22.88.08,1.16.22.21.23.36-.01.55-.33.27-.32.53.01.82.28.24.26.71-.01.96-.19.18-.39.34-.57.52-.2.2-.54.41-.55.62-.02.52-.41.74-.66,1.04-.46.55-1.02,1.01-1.51,1.54-.22.24-.36.28-.57,0-.24-.32-.85-.31-1.06-.11.1.38.2.68.27.99.1.4-.13.65-.42.88-.27.21-.54.42-.82.63-.06-.33-.13-.65-.18-.98-.04-.25-.05-.5-.09-.88-.3.36-.47.56-.64.77.5.44.5.65,0,1.31.11.18.21.34.3.5-.17.06-.34.11-.51.18-.1.04-.19.1-.15.08.08.32.22.58.16.76-.07.2-.33.33-.5.5-.55.55-1.06,1.14-1.65,1.64-.44.37-.68,1.04-1.4,1.04-.07,0-.22.13-.21.19.07.45-.29.64-.52.9-.12.14-.35.2-.43.34-.38.71-1.35,1-1.4,1.94-.55.27-.69,1.12-1.49,1.06-.06,0-.18.11-.17.16.04.76-.72.95-1.04,1.46-.14.22-.45.45-.69.46-.56.01-.82.48-.89.78-.11.51-.49.71-.74,1.06-.37.5-1.12.75-1.07,1.54,0,.05-.07.12-.11.17-.53.5-1.08.98-1.6,1.48-.43.41-.85.83-1.25,1.26-.38.41-1.15.44-1.16,1.21,0,.02-.1.03-.14.07-.51.52-.97,1.09-1.53,1.56-.33.27-.29.64-.47.93-.24.38-.61.67-.93,1-.87.88-1.75,1.75-2.62,2.63-.55.56-.55.56-.85.3-.24.14-.47.27-.68.39q.36.3-.05.73c-.13.13-.27.25-.39.4-.19.23-.38.47-.54.72-.13.21-.29.43-.31.66-.05.49-.16,1.04,0,1.48.13.38.59.64.91.95.83.83,1.62,1.7,2.49,2.47.64.56,1.05,1.42,2.02,1.62.23.04.55.4.55.62,0,.57.35,1.23-.31,1.7-.05.04-.08.17-.06.24.03.14.1.38.17.39.33.04.67,0,1.07,0-.1-.18-.11-.22-.13-.24-.1-.12-.32-.32-.3-.35.17-.25.38-.47.61-.67.04-.03.27.14.39.25.88.87,1.76,1.74,2.63,2.61.28.28,1.34.18,1.65-.08.31-.25.56-1.03,1.12-.24.03.04.13.03.2.04.39.09.78.17,1.24.27.07-.16.15-.38-.21-.57-.22-.12-.44-.31-.56-.52-.1-.18-.11-.44-.06-.65.02-.1.26-.21.41-.22.43-.03.81.03,1.11-.47.21-.35.33-.52-.02-.81-.09-.07-.12-.39-.04-.46.65-.66,1.34-1.29,2.01-1.94.43-.41.87-.81,1.25-1.26.35-.41,1.2-.38,1.07-1.21,0-.02.09-.04.13-.08.29-.29.74-.47.7-1,0-.08.07-.19.14-.26.67-.65,1.35-1.29,2.02-1.94,1.15-1.14,2.3-2.29,3.44-3.44.19-.19.49-.42.48-.62,0-.55.39-.78.69-1.09.53-.56,1.05-1.13,1.63-1.65.51-.46.89-1.19,1.8-1.01.31.06.34-.21.35-.46,0-.24-.04-.59.09-.71.82-.73,1.42-1.63,2.1-2.47.14-.17.31-.31.43-.49.27-.38.72-.37,1.02-.03.33.38.73.69,1.08,1.02.12-.1.24-.24.4-.33.33-.19.69-.35,1.01-.51-.27-.26-.46-.45-.65-.64q-.37.36-.86-.06c-.07.1-.13.26-.21.28-.15.02-.44-.05-.45-.08-.01-.44-.28-.94.27-1.28.24-.15.42-.38.62-.59.38-.38.79-.74,1.12-1.17.32-.42.58-.48.92.04.08-.46.02-.95.24-1.17.23-.23.47-.69.98-.54.33.1.68.16,1.05.25.06-.28.13-.61-.43-.63-.12,0-.33-.15-.34-.23-.01-.23-.02-.53.12-.68.68-.75,1.41-1.46,2.13-2.18.17-.17.33-.4.54-.45.17-.04.39.15.67.28,0-.25-.01-.47,0-.69.01-.15.02-.34.12-.44.33-.35.71-.67,1.05-1.01.35-.35.84-.66.98-1.09.12-.38.33-.63.54-.89.21-.25.47-.55.76-.62.36-.09.59-.15.57-.57,0-.09.15-.19.24-.29.1.1.23.18.29.3.07.13.07.3.1.45.05,0,.09,0,.14,0-.02-.63.7-1.02.51-1.71-.02-.07.02-.2.08-.24.5-.35.73-1.06,1.48-1.07.07,0,.19-.14.19-.21-.06-.54.43-.71.67-1.04.07-.09.2-.2.19-.28-.08-.43.24-.62.47-.88.66-.75,1.44-.85,2.09-.27.2-.34.79-.52.4-1.12-.21.16-.27.73-.64.31-.12-.14-.09-.54.03-.73.29-.47.67-.9,1.02-1.34.01.03-.15-.09-.29-.23-.53-.52-1.06-1.05-1.58-1.59-.52-.54-1.01-1.09-1.54-1.62-.33-.34-.66-.81-1.06-.91-.49-.12-.75-.44-1.08-.71-.4-.34-.72-.77-1.1-1.14-.67-.67-1.37-1.31-2.03-2-.55-.58-.53-.75.08-1.42Zm3.71-8.3c-.73.7-1.5,1.46-2.29,2.2-.11.11-.28.15-.43.22.06-.16.14-.33.16-.49.03-.24.02-.7,0-.7-.48-.04-.96-.03-1.44-.03-.02.05-.04.1-.06.14.46.29.62.59,0,.91.1.06.16.08.19.11.22.21.65.51.61.64-.11.31-.4.68-.69.75-.38.1-.55.2-.54.6,0,.11-.12.32-.19.32-.12,0-.25-.11-.37-.19-.07-.04-.12-.11-.24-.22-.32.53-.62,1.02-.91,1.5.12.17.3.33.35.52.14.56.66.72,1.09.4-.1-.36-.26-.66-.25-.95,0-.19.24-.41.43-.54.12-.08.4-.09.5,0,.23.19.37.49.59.7.78.75,1.58,1.48,2.36,2.24.08.08.03.32-.01.47-.02.09-.15.15-.3.27.2.05.32.12.43.11.49-.07.87.09,1.17.47.21.27.54.51.63.81.1.36.26.45.58.44.33,0,.66-.06.81.39.07.2.33.33.49.5.45.5,1.23.73,1.27,1.56,0,.05.09.14.14.14.39,0,.58.24.83.51.7.73,1.47,1.4,2.23,2.11.22-.34.77-.47.66-1.05,0-.03.06-.08.09-.12.54-.56,1.07-1.13,1.61-1.68.21-.21.47-.54.72-.54.49,0,.72-.35.96-.61.25-.28.35-.7.48-1.07.04-.1-.03-.29-.11-.38-.17-.19-.41-.32-.56-.52-.25-.32-.69-.53-.6-1.07.1-.61.02-1.18-.73-1.46-.02.16-.02.34-.08.48-.05.11-.24.28-.3.26-.35-.14-.74-.26-1.02-.51-.52-.46-.97-.99-1.45-1.49-.61-.62-1.19-1.27-1.85-1.83-.26-.21-.39-.39-.34-.68.06-.37.18-.72.29-1.1-.43-.16-.64-.11-1.08.23-.09.07-.36.04-.47-.05-.71-.54-1.09-1.49-2.1-1.66-.04,0-.07-.07-.11-.11-.38-.33-.76-.66-1.14-.99Zm4.02-.75s.11.06.19.13c.74.74,1.53,1.44,2.21,2.23.38.44,1.08.71,1.01,1.48,0,.06.17.2.25.2.52-.05.71.42,1.04.65.52.35.76,1.09,1.53,1.13.03,0,.08.32.05.47-.01.08-.16.14-.29.24.13.07.2.16.26.15.71-.09,1.23.17,1.63.76.06.09.38.1.52.03.22-.11.41-.3.58-.48.67-.69,1.35-1.38,1.99-2.11.12-.14.19-.53.09-.64-.23-.24-.57-.38-.87-.56-.1-.06-.22-.1-.3-.18-.51-.52-1-1.05-1.52-1.56-.19-.18-.43-.31-.65-.46-.17-.11-.39-.18-.53-.32-.65-.62-1.28-1.26-1.92-1.89-.5-.49-1-.96-1.5-1.45-.28-.28-.67-.51-.58-1.01,0-.05-.18-.19-.22-.17-.46.22-1.14.35-1.31.72-.22.46-.48.78-.82,1.11-.21.2-.38.46-.53.72-.12.22-.18.48-.3.81Zm9.22,1.48c.36-.63.25-.85-.32-.86-.66-.02-1.15-.34-1.25-.78-.05-.2-.15-.53-.24-.54-.45-.04-.94-.16-1.37.17.16.11.33.12.48.17.12.04.27.12.31.22.36.92.53,1.06,1.48,1.04.41,0,.76.03.92.58Zm88.49-74.39c-.04.14-.07.22-.08.3-.03.42.11.88-.37,1.18-.06.04-.02.37.07.51.1.17.29.28.45.42.33-.33.59-.63.59-1.19,0-.54-.25-.86-.66-1.23ZM29.63,166.79c-.17.28-.4.59-.54.93-.06.14,0,.46.09.51.15.08.4.04.58-.02.23-.07.44-.2.64-.34.12-.09.26-.24.26-.37,0-.13-.12-.31-.24-.38-.25-.14-.53-.22-.8-.33Zm31.91-73.9c-.42-.39-.39-.37-.09-.87.08-.13-.01-.47-.14-.58-.23-.19-.55-.28-.86-.41-.21.29-.17.82.1,1.11.11.11.18.28.2.44.07.52.24.61.79.31ZM144.47,16.23c.15.17.38.31.38.44-.04.72.44.64.88.61.33-.02.49-.36.33-.65-.31-.55-.94-.72-1.59-.4Zm-66.04,1.66l.06.23c.43,0,.9.11,1.27-.04.28-.12.45-.56.61-.88.09-.18.06-.42.09-.64-.05-.01-.1-.03-.16-.04-.27.29-.52.61-.83.84-.31.23-.69.35-1.04.52Zm-20.52,24.18c-.06.01-.11.02-.17.03-.02.26-.06.53-.04.79,0,.13.12.34.21.35.17.03.36-.04.53-.1.18-.07.34-.18.5-.28.13-.08.33-.15.37-.27.04-.13-.04-.42-.12-.45-.17-.06-.51-.05-.57.05-.33.57-.5.16-.71-.12Zm-23.87,121.52s.1.09.14.14c-.28-.25-.54-.51-.83-.73-.14-.11-.34-.15-.52-.22-.07.2-.19.4-.19.59,0,.17.12.39.25.49.23.17.52.27.79.39-.07-.04-.15-.08-.22-.12.19-.18.38-.36.57-.54ZM157.34,29.94c.5.32.92.19,1.5-.5-.15-.16-.28-.33-.44-.48-.22-.22-.63-.11-.73.16-.09.27-.21.54-.33.82Zm-13.89,84.06c.07-.42-.08-.66-.59-.6-.29.03-.64-.06-.62.42.01.3.5.79.81.8.44.02.41-.28.4-.62Zm-76.82-15.15c-.23.28-.42.56-.65.8-.23.24-.49.45-.76.68.47.19.48.2,1.41-.73.14-.14.09-.46.12-.69,0-.01-.06-.03-.12-.07Zm-10.43-51.11c.27.2.39.34.54.38.21.06.82-.56.79-.81-.02-.13-.17-.25-.26-.37-.01-.02-.08-.02-.1,0-.28.23-.56.47-.96.81Zm7.19,61.08q-.64-.59-.15-1.08c-.24,0-.54.02-.66.17-.19.25-.25.59-.37.91h1.17Z"/>
  <path d="m66.99,76.62c.39.37.81.73,1.18,1.12.24.25.05,1.15-.32,1.52.16.04.29.06.41.1.12.03.3.05.33.12.19.49.37.99.5,1.5.06.25,0,.48.32.64.37.2.24,1.17-.14,1.39-.06.03-.1.08-.15.13q.55.55.05.94c.47.19.94.39,1.42.58.08.03.22.08.22.12.02.43.33.73.47,1.09.11.28.19.51.42.72.55.48.78,1.16,1.01,1.84.05.16.26.26.37.41.3.44.56.9.88,1.32.42.54.61,1.24,1.23,1.65.24.16.28.59.48.85.25.33.62.58.85.93.19.3.58.46.57.95,0,.22.42.45.65.67.4.39.84.8.64,1.41-.14.41-.45.76-.7,1.16.1.12.26.32.42.51.15-.13.3-.35.47-.37.15-.01.33.2.52.33.01-.04.05-.18.11-.32.07-.16.13-.43.23-.45.22-.04.53-.03.68.1.48.43.9.92,1.34,1.39.31.33.62.67.94,1,.05.05.17.1.24.08.51-.1.73.32.97.59.32.38.59.72,1.14.84.29.06.5.53.72.83.19.25.35.52.54.79.48-.52.7-.46,1.18.27.07.1.19.25.28.25.75-.05.94.69,1.42,1.01.05.04-.1.38-.16.59.11.09.29.23.5.4.14-.13.37-.37.63-.59.06-.05.26-.06.28-.03.17.35.53.26.8.38.42.19.79.52,1.18.78.01,0,.02.03.04.04.43.17.86.33,1.28.5.14.06.27.12.4.2.08.05.14.15.23.2.54.28,1.06.59,1.63.81.28.11.63.02.94.08.27.05.51.19.77.29.11.04.22.09.33.13.12.04.32.03.34.09.25.62.78.37,1.22.41.29.03.57-.02.78.3.09.13.45.11.69.12.42.03.84-.07,1.19.36.13.16.61.02.91.08.23.04.44.19.67.28.14.06.29.13.43.13.47.02.95,0,1.43,0,.31,0,.63-.05.83.31.05.09.29.1.44.1.46.01.92,0,1.37,0,.31,0,.56.04.84.28.21.18.73.03,1.1-.02.22-.03.42-.24.63-.25,1.39-.02,2.78,0,4.17-.02.47,0,.7.14.65.63-.02.23-.01.46,0,.69.02.51.27.61.79.29-.09-.07-.15-.14-.24-.18-.31-.15-.3-.29-.03-.48.12-.09.26-.26.26-.38-.02-.46.21-.58.62-.56.33.02.67,0,1,0,.14,0,.33,0,.4-.07.65-.68,1.46-.23,2.19-.32.09-.01.18.15.29.19.22.09.45.16.68.23.02-.06.04-.12.06-.18-.08-.05-.18-.08-.23-.15-.08-.1-.17-.23-.16-.34,0-.07.16-.18.26-.19.22-.03.46-.01.69-.02.32-.01.65.07.88-.31.07-.12.42-.09.64-.12.41-.05.85.15,1.18-.34.1-.15.56-.07.86-.08.31-.01.65.07.78-.35.02-.05.12-.12.16-.11.63.13,1.19-.17,1.61-.5.62-.48,1.28-.29,1.92-.43.23-.05.41-.34.63-.5.17-.12.4-.18.53-.33.37-.41,1.06-.22,1.35-.76.03-.05.1-.09.16-.12.55-.28,1.08-.57,1.64-.82.44-.2.91-.31,1.34-.52.28-.14.49-.4.74-.6.08-.07.16-.21.22-.2.63.09.8-.48,1.17-.77.18-.14.47-.18.72-.19.33-.02.54-.07.55-.46,0-.13.17-.37.27-.37.79-.02,1.04-.73,1.51-1.15.3-.26.47-.66.97-.7.23-.02.52-.23.66-.44.31-.47.55-.39.84.08.07-.15.16-.24.15-.32-.15-.95.65-1.35,1.11-1.95.36-.47.81-.4,1.27-.39.09,0,.22,0,.25.06.38.56.95.33,1.45.34.12,0,.24-.21.36-.33-.12-.12-.22-.33-.35-.34-.45-.04-.92,0-1.37-.03-.15,0-.3-.12-.45-.19.08-.13.14-.28.25-.39.45-.49,1.11-.9,1.32-1.47.34-.96,1.25-1.33,1.74-2.1.05-.07.1-.14.14-.21.14-.26.28-.52.42-.78.16-.29.28-.61.49-.86.32-.4.69-.78,1.06-1.14.04-.04.28.03.35.11.26.28.66.54.44,1.01-.05.12-.26.22-.41.23-.91.09-.92.08-.91,1.03,0,.43.03.84-.6.8-.08,0-.23.14-.24.22-.03.3-.01.6-.01,1.01q.59-.57,1.05,0c.06-.16.13-.27.14-.38.02-.35,0-.7,0-1.06,0-.87.35-1.23,1.21-1.23.26,0,.53-.02.79.02.31.06.37.28.14.49-.36.32-.76.6-.76,1.15,0,.05-.07.11-.12.16-.32.32-.71.56-.74,1.11,0,.2-.33.4-.52.59-.35.34-.72.67-1.08,1.01-.06.06-.13.14-.13.22,0,.79-.71,1.04-1.12,1.52-.09.1-.19.19-.29.27-.35.32-.63.74-1.22.61-.33-.07-.51.13-.46.46.1.66-.29.98-.75,1.35-.53.42-1,.91-1.44,1.42-.32.36-.53.77-1.11.8-.23.01-.46.32-.66.52-.34.33-.65.69-.97,1.04-.03.04-.09.08-.13.08-.41-.05-.59.23-.83.49-.49.52-1.35.56-1.72,1.26-.82-.06-1.09.91-1.89.98-.38.03-.72.46-1.09.71-.08.06-.18.16-.26.15-.38-.04-.58.19-.84.41-.59.53-1.26.93-2.11.91-.15,0-.29.25-.47.34-.44.21-.98.3-1.32.61-.43.4-1.04.2-1.36.45-.55.42-1.12.25-1.66.4-.46.13-.86.45-1.29.69-.04.02-.08.08-.12.09-.72.16-1.43.33-2.16.46-.31.06-.69-.1-.82.37-.02.06-.2.12-.27.09-.09-.04-.19-.15-.22-.25-.05-.17-.04-.36-.07-.66-.12.13-.19.17-.2.22-.15.74-.15.75-.93.73-.41,0-.87.15-1.13-.4-.12-.25-.6-.07-.59.24.01.52-.24.64-.69.61-.29-.02-.59-.05-.78.29-.06.1-.32.12-.48.12-3.47,0-6.94,0-10.41,0-.24,0-.49-.15-.79-.25-.46.4-.97.4-1.58-.06-.1-.08-.26-.09-.4-.1-.48-.01-.95,0-1.43,0-.31,0-.64.05-.82-.32-.04-.07-.22-.1-.33-.11-.4-.03-.86.11-1.07-.44-.02-.06-.22-.07-.34-.07-.4,0-.81,0-1.22,0-.14,0-.36,0-.4-.07-.26-.46-.69-.33-1.07-.35-.32-.01-.68.08-.86-.33-.03-.07-.22-.07-.34-.1-.12-.02-.31,0-.35-.06-.32-.53-.85-.27-1.27-.39-.45-.13-.85-.42-1.32-.67-.18.27-.38.33-.78-.07-.33-.33-.91-.4-1.36-.62-.41-.2-.79-.47-1.19-.7-.1-.06-.22-.08-.33-.14-.17-.09-.35-.18-.51-.27-.06-.03-.1-.11-.16-.13-.45-.17-1.03-.2-1.34-.51-.36-.37-1.01-.2-1.2-.78-.02-.05-.15-.1-.23-.09-.33.03-.52-.14-.75-.37-.25-.25-.48-.62-.95-.53-.06.01-.14-.13-.22-.2-.32-.27-.53-.64-1.05-.66-.24-.01-.5-.34-.69-.57-.29-.35-.5-.76-1.06-.78-.18,0-.37-.27-.53-.43-.38-.39-.75-.72-1.32-.9-.4-.13-.67-.64-1.01-.97-.67-.67-1.35-1.34-2.02-2.01-.34-.34-.69-.69-1.03-1.03-.54-.54-1.09-1.08-1.63-1.62-.08-.08-.2-.19-.2-.28,0-.78-.74-1-1.11-1.49-.07-.09-.23-.16-.23-.25-.06-.72-.71-1.01-1.06-1.52-.11-.16-.25-.34-.25-.51-.03-.63-.04-1.27,0-1.9.03-.6-.01-1.14-.48-1.38-.41.11-.73.24-1.06.27-.2.02-.41-.1-.62-.16.09-.19.17-.37.23-.5-.24-.19-.49-.42-.78-.58-.53-.29-.37-.52.21-.79-.28-.09-.4-.16-.52-.16-.33,0-.5-.13-.48-.47,0-.09,0-.23-.05-.25-.74-.36-.39-1.04-.44-1.58-.04-.42.03-.84-.6-.8-.07,0-.17-.07-.2-.14-.17-.31-.38-.61-.45-.94-.07-.33-.25-.57-.38-.84-.28-.59-.34-1.28-.52-1.92-.06-.21-.19-.39-.3-.58-.03-.06-.14-.1-.14-.14.14-.81-.66-1.39-.52-2.21.04-.23-.2-.5-.28-.77-.07-.23-.09-.47-.12-.71-.05-.39.17-.85-.34-1.12-.08-.04-.08-.26-.08-.39-.01-.44,0-.88,0-1.32,0-.33.11-.71-.33-.91-.09-.04-.09-.32-.09-.49,0-.92.01-1.83-.02-2.75,0-.21-.17-.42-.25-.63-.06-.14-.15-.28-.15-.42-.01-1.04-.02-2.08,0-3.12,0-.22.19-.43.31-.71-.47-.25-.32-.78-.33-1.27,0-.49-.03-.99.01-1.48.02-.21.18-.42.26-.63.06-.17.14-.35.15-.53.01-.92-.01-1.83.02-2.75,0-.22.19-.44.28-.66.06-.14.12-.29.13-.43.02-.4-.02-.81.02-1.21.02-.18.16-.36.23-.54.07-.15.17-.31.18-.46.03-.4-.01-.81.02-1.21.02-.19.15-.36.23-.54.02-.04.1-.07.11-.11.17-.63.36-1.25.49-1.88.06-.27-.02-.58.35-.68.04-.01.11-.07.11-.1-.05-.59.26-1.05.45-1.57.13-.35-.07-.79.37-1.07.12-.08.08-.43.08-.65,0-.31.1-.52.45-.5.34.02.42-.18.41-.47,0-.25-.03-.5,0-.74.04-.2.16-.39.24-.59.06-.14.11-.28.18-.41.09-.15.19-.3.29-.44.04-.05.14-.07.16-.13.17-.43.31-.87.48-1.3.15-.37.31-.73.5-1.08.04-.08.21-.09.33-.12.14-.04.28-.06.58-.13-.83-.42-.45-.73-.12-1.03.09-.08.25-.18.34-.15.09.03.18.2.2.31.1.49.64.79,1.04.51.13-.09.16-.6.07-.65-.38-.23-.3-.56-.31-.88,0-.26,0-.53,0-.79,0-.74.3-1.08,1.04-1.21.06-.01.12-.05.19-.09-.47-.5-.46-.55.19-1.13.37-.33.9-.53.85-1.18,0-.07.27-.15.4-.23.13-.08.38-.19.37-.26-.07-.46.34-.63.55-.89.07-.09.43.06.77.13,0-.24,0-.58,0-.92,0-.32.06-.53.36-.78.69-.58,1.25-1.33,1.9-1.97.27-.26.46-.64.97-.63.23,0,.49-.28.69-.48.65-.65,1.27-1.32,1.91-1.97.05-.05.11-.12.16-.12.76,0,.99-.73,1.5-1.08.11-.08.21-.23.32-.23.56.03.79-.37,1.07-.73.06-.08.15-.14.23-.19.27-.16.57-.27.81-.46.27-.22.51-.38.88-.47.42-.09.77-.49,1.18-.66.25-.1.58-.04.87-.02.05,0,.09.19.15.2.54.07.97.24.78,1.08.06-.05.12-.11.18-.16.18-.15.39-.29.52-.47.09-.13.11-.35.06-.49-.03-.1-.23-.17-.36-.2-.15-.04-.32-.02-.47,0-.34.02-.47-.15-.48-.48,0-.31.11-.44.43-.53.48-.14.92-.42,1.38-.65.08-.04.15-.16.2-.15.64.13,1.13-.28,1.67-.49.42-.16.8-.45,1.2-.65.19-.09.41-.15.62-.18.45-.07.95.18,1.29-.41.14-.25.58-.4.91-.48.76-.19,1.54-.31,2.31-.48.2-.04.39-.17.59-.24.2-.07.41-.14.63-.18.44-.07.96.18,1.28-.37.04-.07.26-.06.4-.06.4,0,.81,0,1.21-.01.14,0,.28-.09.42-.15.19-.08.37-.21.57-.26.71-.16,1.08.36,1.4.75.32-.13.58-.24.85-.35.05-.02.11-.02.15-.04.19-.1.52-.33.55-.29.25.3.67.49.59,1.02-.08.48.15,1.03-.43,1.35-.17.09-.34.23-.52.25-.44.04-.88,0-1.32.01-.34,0-.66-.05-.93.31-.24.33-.81.07-.88-.34-.02-.13-.06-.25-.12-.48-.42.46-.76.84-1.12,1.2-.11.11-.29.2-.44.21-.35.03-.7.01-1.06.01-.29,0-.6-.05-.77.31-.04.08-.21.11-.33.12-.37.03-.78-.08-1.03.36-.04.08-.26.06-.4.07-.34.02-.72-.09-.91.34-.02.05-.16.08-.24.08-.41.02-.84-.07-1.12.38-.05.08-.3.05-.45.06-.3.02-.64-.09-.82.31-.04.08-.28.1-.44.1-.3.02-.6.02-.9,0-.48-.03-.88-.03-.84.66.01.17-.24.43-.43.54-.43.24-.9.56-1.36.56-.57,0-.89.29-1.22.63-.34.35-.67.36-1.04.01-.11-.1-.32-.16-.46-.14-.1.02-.16.22-.23.34-.12.19-.29.37-.33.58-.11.61-.61.77-1.03,1.07-.41.3-.71.75-1.32.63-.32-.07-.49.09-.48.44.02.47-.39.8-.69.85-.43.07-.66.32-.9.55-.67.64-1.3,1.33-1.94,2-.04.04-.07.08-.12.1-.45.17-.91.32-1.36.5-.11.04-.25.18-.25.27,0,.72-.74.88-1.02,1.4-.11.2-.38.03-.42-.24-.02-.18-.05-.36-.15-.52-.09.42-.35.84.13,1.21.07.06.06.37-.03.46-.61.63-1.24,1.24-1.87,1.85-.05.05-.12.11-.12.16-.01.77-.74,1.02-1.11,1.53-.06.08-.19.16-.18.23.02.39-.18.61-.47.85-.24.2-.61.44-.51.9.01.05-.11.17-.2.21-.35.18-.7.34-1.08.52.51.65.5.64-.1,1.25-.14.14-.22.36-.32.54-.06.1-.1.22-.16.32-.11.19-.22.38-.35.56-.11.16-.29.29-.36.47-.19.44-.3.91-.5,1.35-.19.42-.45.8-.68,1.2-.06.1-.1.21-.15.32-.11.22-.22.43-.32.66-.05.12-.1.26-.11.39-.03.35.08.76-.42.91-.05.01-.05.15-.09.23-.1.22-.26.43-.3.66-.12.87-.53.8-1.09.39-.16-.12-.33-.22-.51-.29-.18-.07-.53-.15-.56-.09-.12.21-.17.47-.17.71,0,.12.16.28.28.35.11.06.28.05.41.02.59-.12.84.41,1,.72.17.34.29.89-.2,1.24-.05.04-.13.11-.12.16.14.83-.7,1.46-.48,2.32.04.16-.16.38-.24.58-.06.15-.15.31-.16.47-.02.44,0,.88-.03,1.32,0,.13-.12.28-.23.35-.05.03-.23-.09-.32-.18-.21-.21-.4-.45-.6-.67-.53.59-.54.59-1.01.04,0,.32-.11.71.03.95.17.29.39.64.87.64.78,0,.78.03.78.8,0,.62-.01,1.23,0,1.85,0,.36-.08.56-.5.56-.42,0-.49-.22-.5-.57-.02-.76-.36-.94-1.06-.58.04.04.08.1.11.1.64-.04.71.35.67.85-.02.27-.02.56.38.54.43-.02.48.23.48.57,0,1.6,0,3.21,0,4.81,0,.32-.04.63.3.89.13.1,0,.55-.06.84-.02.1-.23.19-.22.25.11.52-.33.79-.58,1.02-.42.39-.29.75-.23,1.25.29-.26.52-.48.76-.68.07-.06.2-.12.27-.09.07.03.15.15.16.24.03.19-.02.4.03.58.05.18.18.33.27.5.08.14.2.29.21.44.03.35-.02.71.03,1.05.03.24.18.45.27.68.06.14.14.28.15.43.02.37.04.74,0,1.11-.03.31-.14.62-.22.93-.06.01-.12.02-.18.04Z"/>
  <path d="m124.05,19.69c-.38.15-.66.27-.95.36-.07.02-.25-.05-.27-.12-.14-.45-.5-.37-.82-.37-.53,0-1.06,0-1.58,0-.31,0-.63.07-.82-.31-.04-.09-.28-.1-.43-.11-.58-.01-1.16,0-1.74,0-.34,0-.7.1-.92-.33-.05-.09-.32-.09-.49-.09-.95,0-1.9,0-2.85,0-.53,0-.97-.45-.98-.99,0-.54-.13-1.13.42-1.51.16-.11.34-.26.51-.26,1.18-.02,2.36-.02,3.54,0,.13,0,.36.02.39.09.24.56.72.39,1.13.4.51.01,1.02,0,1.53,0,.38.01.79-.11,1.09.33.09.13.46.06.7.09.55.06,1.13-.18,1.6.37.13.15.58.01.87.07.23.04.45.18.66.28.06.03.12.12.17.11.58-.05.83.23.77.84.68-.54,1.56-.42,2.29-.09.59.27,1.11.88,1.91.65.18-.05.44.17.66.27.06.03.11.09.17.11.6.15,1.15.41,1.61.82.01.01.03.02.05.02.58-.04.87.24.8,1.02.37-.54.64-.73.92-.22.03.05.13.09.19.08.75-.14,1.12.41,1.57.83.25.23.64.15.94.46.3.31.88.34,1.31.54.26.12.47.34.69.52.12.1.2.24.31.34.44.38-.12.49-.23.75.27.2.5.24.71-.06.19-.28.38-.28.56.02.04.07.12.17.18.17.82-.04,1.06.73,1.59,1.1.08.06.17.19.23.18.48-.09.68.31.94.55.68.64,1.3,1.33,1.96,1.99.06.06.16.12.22.11.51-.07.74.37,1.01.62.69.63,1.32,1.33,1.93,2.03.17.19.23.51.27.77.05.35.45,1,.79.99.52,0,.68.42,1,.66.29.22.46.5.49.91.01.22.34.43.54.64.13.13.29.23.41.37.13.14.22.31.33.47-.19.07-.37.13-.56.2-.09.03-.18.06-.27.21.14.02.28.06.42.07.9.04,1.11.22,1.33,1.09.03.11.17.19.24.3.21.33.61.51.64,1.01.01.24.42.45.65.68.06.06.16.1.19.18.17.45.3.92.5,1.35.2.41.47.79.7,1.19.07.11.08.26.13.38.08.17.18.34.26.51.05.1.09.21.15.31.11.19.24.37.34.56.07.12.11.24.16.37.05.13.06.28.14.38.43.51.42.76-.08,1.2,0,.03,0,.09.02.1.96.27,1.05,1.06,1.24,1.87.13.55.3,1.13.53,1.64.14.31.28.59.28.93,0,.25,0,.47.32.59.11.04.16.32.18.5.05.47-.12.96.37,1.35.15.12.06.53.07.81.01.32.06.59.28.9.2.28.07.82.02,1.24-.03.21-.19.41-.3.6-.1.19-.21.37-.35.62.21.02.43.07.64.06.44-.03.6.17.58.6-.02.33.03.67-.01,1-.04.32-.15.62-.25,1,.43.39.42,1.54-.15,2.09.2.32.94-.02.84.68-.06.4.16.88-.53,1.05.46.31.79.58.2.79.11.34.24.64.29.95.02.09-.17.3-.26.3-.41,0-.87.22-1.21-.26-.08-.11-.39-.09-.58-.06-.07.01-.16.32-.11.39.09.13.29.22.45.24.37.05.8-.1.96.42.01.04.09.08.13.07.62-.07.71.31.64.79-.06.39.21.85-.3,1.14-.21.12-.34.37-.51.55.54.54.53,1.42.06,2.13-.1.15.03.46.08.69.03.14.15.39.14.39-.47.21-.31.62-.33.97-.02.41.1.86-.46,1.1.37.25.62.45.13.79-.14.09-.08.49-.09.75-.03.37.09.76-.33,1.04-.13.09-.08.46-.1.7-.03.4.03.74-.38,1.1-.34.3-.41.95-.53,1.46-.1.4.15.9-.37,1.16-.01,0-.03.03-.03.04-.02.53-.12,1.01-.45,1.47-.32.44-.51.99-.75,1.5-.06.14-.11.29-.13.44-.03.34.08.73-.4.85-.04.01-.1.12-.09.18.11.48-.25.77-.53.99-.3.24-.36.48-.34.81.02.36-.05.61-.5.62-.12,0-.33.26-.34.39,0,.87-.47,1.51-1.02,2.1-.05.06-.24.1-.27.06-.23-.27-.44-.56-.66-.84-.2-.27-.39-.55-.62-.79-.31-.33-.32-.72,0-1.02.2-.19.36-.4.54-.61-.44-.49-.4-.66.26-1.14.13-.09.27-.22.3-.36.12-.52.46-.86,1.01-.96.07-.01.13-.04.19-.07.02-.01.03-.06.06-.13-.58-.32-.44-.88-.35-1.38.06-.31.27-.6.43-.88.23-.41.49-.81.73-1.22.05-.09.07-.2.07-.3.03-.37-.1-.8.42-.95.01,0,.03-.03.03-.04-.11-.68.37-1.21.47-1.83.05-.28-.03-.57.31-.77.13-.08.1-.45.12-.69.04-.4-.1-.81.33-1.15.16-.12.08-.56.1-.86.02-.33-.05-.65.31-.89.12-.08.1-.39.11-.59.02-.32,0-.63,0-.95,0-.12,0-.31.06-.35.55-.34.34-.87.36-1.33.02-.69,0-1.37,0-2.06,0-.33-.06-.67.37-.84.1-.04.13-.34.13-.52.01-1.34,0-2.68.02-4.02,0-.24.2-.47.28-.72.06-.17.13-.37.1-.54-.02-.09-.23-.21-.35-.2-.44.02-.56-.21-.54-.59,0-.14.02-.28,0-.42-.07-.56.07-.94.74-.88.04,0,.08-.05.15-.11-.07-.05-.12-.13-.16-.13-.68.05-.78-.34-.74-.89.03-.39.05-.76-.33-1.09-.17-.14-.07-.6-.09-.91,0-.16,0-.32,0-.48,0-.78,0-.76.79-.81.18,0,.36-.13.54-.2-.09-.18-.15-.38-.27-.55-.3-.45-.61-.61-1.02-.08-.16.21-.39.12-.46-.16-.16-.7-.14-1.51-.51-2.07-.4-.62-.24-1.22-.41-1.81-.12-.43-.48-.79-.74-1.18-.03-.04-.1-.09-.09-.12.16-.73-.49-1.25-.5-1.94,0-.19-.16-.38-.26-.57-.02-.05-.08-.07-.1-.12-.17-.45-.3-.91-.5-1.34-.19-.41-.46-.79-.69-1.18,0-.01-.04-.02-.04-.03.1-.6-.45-.9-.65-1.36-.26-.57-.44-1.25-1.02-1.65-.09-.06-.22-.2-.2-.28.09-.54-.36-.75-.63-1.05-.31-.34-.31-.67-.03-1.03.13-.17.19-.57.09-.71-.4-.55-.43-.76.05-1.19,0-.05-.02-.1-.03-.16-.22.05-.54.03-.65.18-.37.44-.86.31-1.21.19-.32-.11-.73-.41-.68-.92.04-.47.05-.88-.64-.85-.2,0-.44-.3-.63-.48-.3-.28-.61-.56-.86-.88-.23-.29-.59-.51-.54-1.01.02-.19-.3-.42-.49-.61-.4-.37-.8-.73-1.22-1.08-.13-.11-.33-.15-.47-.26-.27-.19-.54-.39-.78-.62-.04-.04.03-.29.12-.34.39-.23.28-.49.12-.85-.1.11-.16.22-.23.24-.29.06-.68.22-.88.09-.58-.36-.57-.53-.26-.93.27-.34.16-.73.04-1.23-.1.17-.13.22-.16.28-.11.23-.19.65-.31.66-.39.04-.85.25-1.19-.25-.24-.36-.61-.63-.92-.93-.05-.05-.12-.11-.18-.1-.55.06-.75-.41-1.06-.69-.05-.05-.09-.12-.15-.14-.45-.17-.93-.28-1.36-.5-.27-.14-.46-.44-.7-.66-.1-.1-.23-.17-.36-.24-.18-.11-.36-.2-.54-.31-.03-.02-.05-.06-.08-.07-.45-.16-.91-.31-1.35-.49-.37-.15-.73-.33-1.06-.54-.08-.05-.09-.25-.1-.39-.02-.32.03-.64-.03-.95-.02-.13-.24-.3-.36-.3-.13,0-.3.16-.39.29-.13.18-.16.51-.31.57-.29.12-.63.09-.76-.33-.02-.06-.14-.09-.22-.12-.06-.02-.18.02-.2-.02-.44-.67-1.39-.11-1.85-.77-.04-.06-.2-.09-.29-.07-.53.12-.88-.21-1.22-.51-.07-.06-.04-.42.03-.45.55-.25.25-.7.27-1.07,0-.06-.29-.21-.41-.18-.14.04-.3.21-.33.35-.12.62-.57,1.11-1.05.95-.31-.1-.55-.46-.81-.7-.05-.04-.07-.11-.05-.08Z"/>
</svg>