<?xml version="1.0" encoding="UTF-8"?>
<svg id="Layer_1" data-name="Layer 1" xmlns="http://www.w3.org/2000/svg" viewBox="0 0 180 180">
  <path d="m134.78,62.34c.22-.12.47-.32.53-.28.25.2.59.46.61.72.07.96.17,1.95-.03,2.87-.1.47-.33.95-.42,1.46-.03.14-.44.2-.72.32.34.16.66.3,1.04.47.01-.03.05-.13.1-.23.09-.18.18-.36.27-.54.04-.07.13-.15.12-.21-.08-.52.42-.67.62-1.01.09-.15.24-.32.22-.45-.1-.62.26-.97.67-1.31.05-.04.14-.1.14-.14-.15-.67.39-1.12.55-1.69.11-.36.28-.72.48-1.04.14-.24.73-.09,1.07.27.1-.3.2-.53-.13-.76-.27-.18-.25-1.07-.04-1.33.12-.14.16-.34.27-.5.2-.27.42-.53.64-.78.08-.09.25-.19.24-.27-.05-.51.2-.68.66-.66.04,0,.08-.05.09-.06-.11-.22-.25-.42-.31-.64-.07-.27.02-.49.31-.62.06-.02.05-.19.09-.28.09-.2.19-.4.29-.59.03-.06.09-.11.11-.17.15-.58.45-1.08.78-1.59.27-.4.36-.92.58-1.36.19-.39.45-.75.68-1.13.02-.03.06-.04.07-.07.16-.44.29-.89.49-1.31.2-.42.46-.8.69-1.2.03-.06.11-.12.1-.17-.07-.59.45-.77.74-1.11.05-.06.16-.13.16-.18-.04-.78.7-.99,1.06-1.47.31-.4.72-.72,1.11-1.06.14-.12.32-.19.47-.29.26-.18.52-.38.78-.56.16-.1.33-.19.5-.27.06-.03.17,0,.19-.04.28-.5.75-.36,1.18-.39.09,0,.2-.06.26-.12.4-.45.39-.45.73.07.29-.39.79-.57,1.27-.39.13.05.23.29.26.47.07.34.33.56.59.36.25-.2.5-.5.57-.8.08-.34.19-.48.53-.47.45,0,.89,0,1.34,0,.1,0,.26,0,.29.05.34.51.85.3,1.3.37.2.03.36.22.55.31.16.07.33.14.5.16.32.04.71-.1.88.34,0,.02.06.06.08.05.65-.17,1.1.34,1.67.48.28.07.5.41.75.61.11.09.27.22.38.2.88-.16,1.17.64,1.71,1.03.09.06.07.29.07.44,0,.65.01,1.3,0,1.96,0,.41.06.79-.33,1.16-.32.31-.31.96-.62,1.3-.39.42-.28.88-.41,1.32-.12.41-.46.75-.69,1.12-.07.11-.06.26-.11.38-.24.5-.51,1-.46,1.59-.53.15-.19.95-.78,1.07-.05,0-.03.23-.08.33-.25.52-.32,1.1-.52,1.61-.21.54-.46,1.12-.78,1.61-.27.41-.37.79-.39,1.25,0,.08-.13.21-.22.22-.08.01-.23-.07-.27-.15-.18-.35-.33-.71-.5-1.07-.58.34-1.06.63-1.55.92,0,.07.01.14.02.21.24.02.5.1.73.05.56-.13.9.22,1.27.51.06.05.03.37-.02.38-.34.12-.26.43-.38.65-.15.29-.48.49-.76.69-.11.08-.29.07-.43.11,0,.06,0,.11,0,.17.17.03.34.05.5.09.1.03.24.09.27.17.03.08-.02.24-.09.31-.32.35-.69.6-1.19.47-.18-.05-.34-.19-.51-.24-.19-.06-.41-.1-.61-.09-.05,0-.15.32-.1.39.09.12.3.24.44.22.5-.08.85.16,1.13.51.07.09.04.3,0,.43-.07.22-.22.42-.26.65-.05.3.04.62-.33.8-.08.04-.06.25-.12.37-.07.14-.17.26-.25.4-.08.13-.15.27-.23.4-.08.15-.17.29-.25.44-.05.1-.11.2-.16.3-.1.21-.21.42-.3.64-.05.12-.1.25-.11.38-.03.34.03.65-.33.95-.28.23-.38.7-.49,1.09-.16.53-.61.96-.47,1.58-.57.18-.29.91-.76,1.18-.07.04-.05.22-.11.32-.27.51-.33,1.08-.51,1.6-.2.55-.46,1.16-.81,1.61-.33.43-.29.83-.38,1.25-.02.1-.12.19-.2.27-.06.06-.17.08-.2.15-.17.41-.29.85-.49,1.24-.07.15-.31.29-.47.3-.44.01-.85-.03-.78.62,0,.09-.17.19-.22.31-.07.14-.16.31-.14.45.02.1.2.17.33.24.14.08.29.13.44.2-.08.13-.17.25-.24.39-.06.12-.08.25-.13.37-.08.17-.17.34-.25.51-.06.13-.15.26-.17.4-.04.36.09.78-.42.92-.03,0-.07.1-.06.13.15.48-.28.75-.51.94-.37.31-.33.63-.34,1,0,.35.03.65-.33.95-.28.23-.38.7-.49,1.09-.16.53-.61.96-.47,1.58-.58.18-.28.92-.76,1.18-.06.03-.06.19-.1.27-.09.18-.18.36-.28.53-.04.07-.13.14-.12.21.06.65-.37.61-.8.59-.29-.01-.59.03-.87-.01-.26-.04-.51-.18-.85-.31-.01.1-.09.3-.04.45.04.1.26.15.4.21.03.01.09,0,.1.01.37.49.92.38,1.41.45.05,0,.14.34.08.43-.13.2-.35.35-.53.51-.04.03-.12.07-.11.1.17.74-.54,1.21-.57,1.89,0,.2-.16.4-.25.6-.01.03-.07.04-.07.06.02.6-.33.84-.96.8.02.04.04.09.06.13.09.06.2.11.25.2.06.12.11.37.08.38-.45.22-.31.63-.36.99-.02.13-.12.26-.19.39-.07.14-.14.28-.21.43-.09.17-.18.34-.26.51-.07.16-.07.39-.19.5-.43.4-.31,1.03-.56,1.39-.27.4-.29.74-.32,1.14,0,.07,0,.17-.04.2-.57.32-.3.87-.38,1.33-.03.19-.14.5-.25.51-.37.05-.28-.28-.31-.5-.01-.09-.05-.18-.14-.27-.11.38-.29.75.07,1.12.11.11.2.28.2.43.01,1.46.02,2.92,0,4.38,0,.2-.16.4-.28.67.25.19.48.44-.04.75-.09.05-.08.32-.08.48,0,1.27,0,2.54,0,3.81,0,.14.03.29-.02.41-.05.12-.17.21-.26.32-.09-.1-.21-.19-.27-.3-.07-.14-.05-.39-.16-.45-.14-.07-.45-.07-.51.02-.09.13-.06.38,0,.55.04.16.18.28.28.42-.18.06-.36.13-.54.19-.09.03-.16.08-.18.09.18.38.33.71.49,1.05.05-.02.09-.04.13-.07.14-.09.27-.19.41-.28.07.16.2.33.18.48-.02.16-.16.35-.3.44-.14.08-.34.05-.45.06.11.34.2.62.29.9.02.06.04.17.08.18.53.14.39.58.39.93.01,1.12.02,2.23-.01,3.35,0,.21-.2.4-.3.61-.07.16-.16.33-.16.5-.01,1.42,0,2.85-.02,4.27,0,.32-.14.65-.24,1.07.25.15.43.41-.1.73-.08.05-.03.3-.08.44-.04.1-.16.25-.25.25-.09,0-.22-.13-.26-.23-.07-.15-.07-.33-.18-.49-.1.38-.32.76.12,1.08.04.03.11.07.11.1-.06.94.77,1.72.46,2.69-.04.12-.2.23-.33.29-.14.06-.3.06-.5.09.58.66.58.93.05,1.42.13.04.24.06.34.11.16.07.43.16.43.24,0,.24-.11.48-.18.72,0,.02-.08.02-.09.05-.18.53-.36,1.07-.53,1.6-.02.07,0,.21.05.24.55.32.34.84.36,1.29.02.77.02,1.54,0,2.32,0,.39.14.82-.34,1.09-.09.05-.07.32-.07.49,0,1.44,0,2.88,0,4.32,0,.39-.04.66-.54.66-.3,0-.46.81-.21,1.08.16.16.49.27.2.53-.09.08-.4-.1-.65-.18-.25.12-.58.27-.91.43.31.14.62.28.93.43-.01.03-.02.06-.03.08.03,0,.07,0,.1,0,.17-.1.34-.21.5-.32.06.2.17.4.17.6.02.69.01,1.37,0,2.06,0,.34.1.71-.32.95-.07.04-.02.49.1.64.28.34.31.71-.01,1-.11.1-.18.24-.3.34-.1.08-.23.12-.36.18.68.54.66,2.55-.05,3.09.67.18.51.7.52,1.15,0,.38.03.76-.01,1.13-.02.18-.2.34-.29.51-.07.14-.17.29-.17.44-.02.6,0,1.2-.01,1.8,0,.33.1.7-.33.88-.01,0-.03.03-.03.04,0,.55-.17,1.03-.44,1.52-.15.27-.19.48-.53.45-.45-.04-.83-.02-.81.6,0,.09-.25.24-.4.28-.26.06-.53.04-.9.06.13.14.2.18.23.25.08.24.18.48.19.72,0,.08-.28.15-.42.25-.47.34-.99.48-1.57.45-.39.78-1.11.4-1.68.43-1.03.06-2.06.02-3.09.01-.25,0-.5.04-.62-.31-.1-.27-.52-.22-.72,0-.14.15-.37.3-.56.3-3.38.02-6.76.02-10.14,0-.19,0-.52-.14-.53-.24-.02-.26.07-.54.17-.78.1-.23.27-.43.41-.65.08,0,.16,0,.23,0-.08-.03-.22-.03-.23-.08-.08-.24-.18-.49-.17-.73,0-.09.31-.22.48-.22.91-.02,1.82-.03,2.73,0,.3.01.59.15.84.23.37-.08.74-.21,1.12-.23.98-.03,1.96-.02,2.93,0,.17,0,.48.13.49.21.02.24-.02.55-.16.73-.23.3-.3.8-.01,1.2.05-.07.14-.14.14-.19-.02-.43.06-.73.6-.73.08,0,.23-.3.24-.47.05-.75.04-.75.79-.75.58,0,1.17,0,1.75,0q.88,0,1.14.86c.25-.27.46-.51.69-.72.09-.08.24-.12.36-.13.26-.02.52,0,.77-.01.42-.04.67.09.63.56,0,.07.05.15.11.3.23-.42.71-.52.72-1.08,0-.18.33-.62.79-.71.3-.06.57-.36.81-.6.22-.23.34-.23.57,0,.15.15.42.18.69.18-.52-.38-.33-.89-.34-1.34,0-.06.02-.17.05-.19.51-.21.33-.65.34-1.02.02-.5-.02-1,.02-1.49.02-.24.19-.46.28-.69.06-.15.08-.32.14-.47.04-.1.1-.24.18-.27.08-.03.26.01.31.09.29.43.54.39.83-.01.08-.11.25-.15.39-.24-.19-.18-.33-.4-.53-.47-.18-.06-.42.02-.62.07-.13.03-.28.19-.37.16-.1-.04-.19-.23-.19-.36-.01-1.61-.01-3.23,0-4.84,0-.32.47-.8.79-.85.51-.08.57-.19.32-.73-.06.07-.1.15-.16.19-.1.07-.23.16-.33.15-.07,0-.18-.17-.18-.26-.01-.98-.05-1.96.02-2.93.02-.25.34-.53.58-.71.33-.24.21-.47.11-.88-.12.24-.15.38-.23.43-.11.06-.26.05-.4.07,0-.14-.03-.37.02-.39.38-.16.29-.47.29-.75,0-1.99,0-3.98.02-5.97,0-.23.19-.46.28-.69.06-.15.13-.31.13-.47.01-.77-.01-1.55.02-2.32,0-.2.15-.4.24-.61.15.12.31.25.58.47.02-.35.09-.66.04-.95-.02-.11-.32-.15-.46-.26-.15-.12-.37-.27-.38-.42-.05-.48-.02-.96-.01-1.44,0-.11.04-.3.11-.32.47-.18.36-.57.36-.91,0-1.66,0-3.33.01-4.99,0-.21.18-.42.26-.64.06-.15.13-.31.13-.47.01-.93-.01-1.85.02-2.78,0-.22.15-.44.28-.64.17-.27.19-.48-.08-.7-.1-.08-.14-.42-.11-.43.51-.21.26-.65.32-.99.06-.33.14-.66.23-1.1-.4-.4-.39-2.85.16-3.31-.72-.62-.27-1.45-.37-2.18.77-.77.25-1.74.41-2.6.05-.27.16-.53.26-.87-.39-.21-.26-.71-.26-1.16,0-.48-.03-.96.01-1.44.02-.23.18-.44.26-.66.06-.19.13-.38.13-.58.01-1.72,0-3.43.02-5.15,0-.23.19-.46.28-.69.05-.14.12-.28.12-.43.02-.43,0-.86,0-1.29,0-.34-.12-.75.39-.88.03,0,.07-.08.07-.13,0-.5.02-.97.4-1.4.14-.15.02-.54.36-.65.03-.01.08-.09.07-.13-.2-.66.24-1.18.5-1.66.25-.45.25-.91.41-1.34.18-.49.55-.93.88-1.35.33-.42.4.11.59.21.28-.28.3-.82.05-1.07-.35-.34-.35-.73,0-1.07.05-.05.11-.09.13-.15.17-.44.22-.99.52-1.28.41-.4.17-.93.4-1.23.3-.38.2-1,.75-1.22.06-.02.1-.14.1-.22.01-.26,0-.52.32-.61.03,0,.08-.09.07-.13-.17-.65.28-1.13.47-1.67.15-.44.45-.83.68-1.25,0-.01.04-.02.04-.03.04-.59.31-.93.87-.8-.13-.34-.26-.6-.33-.88-.02-.09.12-.21.19-.32.09-.14.26-.28.26-.42,0-.4.19-.5.54-.5.22,0,.44-.04.66-.06,0-.05,0-.11,0-.16-.16-.02-.32-.03-.47-.07-.1-.03-.26-.11-.26-.18-.01-.11.06-.24.13-.34.05-.08.22-.15.21-.19-.12-.63.26-1.11.47-1.63.18-.42.45-.8.66-1.22.09-.17.14-.37.15-.56.03-.3-.04-.63.35-.77.07-.03.09-.2.14-.3.09-.18.2-.35.28-.53.06-.12.08-.25.13-.37.07-.15.17-.29.25-.44.06-.13.18-.28.16-.4-.09-.51.14-.87.48-1.2.3-.29.59-.58.88-.87.03-.03.09-.08.13-.07.59.15.71-.42,1.13-.69-.37-.08-.63-.22-.83.15-.04.08-.27.06-.42.09.03-.14.05-.3.11-.42.06-.12.2-.21.26-.33.09-.16.14-.35.21-.52.15.11.3.22.48.36.15-.32.3-.66.48-1.06-.04-.01-.16-.04-.27-.09-.16-.07-.44-.14-.44-.21,0-.25.07-.51.17-.74.11-.25.28-.46.43-.68-.14-.14-.47-.4.12-.68.03-.02.05-.09.06-.14.1-.62.41-1.15.79-1.64.07-.09.05-.26.07-.4.02-.31-.09-.67.37-.79.06-.02.07-.21.11-.31.08-.19.18-.37.27-.55.04-.09.09-.17.14-.26.11-.2.21-.41.32-.62.02-.04.08-.09.07-.13-.15-.63.26-1.11.47-1.63.12-.29.4-.51.6-.76.07-.09.2-.19.19-.27-.13-.77.36-1.19.92-1.61-.36-.24-.67-.47-.09-.76.05-.02.09-.12.08-.18-.1-.51.43-.66.58-1.03.08-.2.22-.39.26-.6.08-.42-.18-.94.37-1.24.04-.02.02-.13.05-.19.1-.22.28-.42.29-.64.03-.61.8-.91.64-1.6-.03-.13.14-.3.22-.45.02-.04.1-.06.11-.1.16-.43.32-.87.48-1.31.02-.05,0-.13.03-.15.51-.26.35-.75.4-1.17.01-.11.13-.26.22-.28.09-.02.21.11.3.19.05.05.07.14.17.33.08-.52.89-.58.46-1.31-.11.15-.16.28-.25.33-.12.06-.27.04-.41.05,0-.14-.03-.29.02-.41.08-.2.21-.39.31-.58.03-.06.03-.17.06-.19.55-.2.38-.67.42-1.07.01-.12.1-.24.17-.34.03-.05.14-.07.16-.12.17-.43.33-.86.5-1.29.04-.09.07-.22.14-.25.48-.24.21-.66.24-1.01,0-.06-.12-.18-.2-.19-.3-.03-.49-.19-.73-.35-.42-.28-.97-.38-1.47-.5-.25-.06-.52,0-.61-.34-.02-.07-.16-.14-.24-.14-.26-.01-.48-.02-.63-.32-.05-.11-.37-.07-.57-.11-.41-.07-.84.16-1.21-.32-.16-.21-.68-.13-.91-.49-.04-.06-.33-.06-.38,0-.24.3-.71.27-.88.47-.38.44-.8.29-1.22.33-.28.02-.59-.06-.74.31-.03.08-.25.06-.37.12-.14.06-.28.15-.41.24-.07.05-.1.16-.17.18-.44.17-.89.3-1.31.5-.22.1-.39.3-.57.47-.43.4-.85.81-1.27,1.22-.06.05-.13.14-.12.21.05.37-.15.57-.39.82-.23.23-.58.43-.51.88,0,.05-.28.19-.44.21-.27.05-.54.04-.85.13.62.26.5.75.5,1.19,0,.05,0,.11-.02.15-.24.38-.49.76-.74,1.13-.02.03-.06.04-.07.07-.16.44-.31.88-.49,1.31-.15.37-.32.74-.51,1.09-.23.42-.49.82-.71,1.24-.05.1,0,.26-.05.35-.24.38-.52.74-.76,1.12-.06.09-.06.23-.1.33-.08.19-.18.36-.27.55-.04.07-.13.15-.12.21.09.51-.41.65-.59.99-.09.16-.22.33-.25.5-.05.34-.02.64-.32.96-.32.33-.4.88-.62,1.32-.21.42-.5.8-.72,1.22-.2.4-.33.84-.53,1.24-.21.44-.46.87-.7,1.3-.05.09-.09.18-.12.27-.02.08,0,.19-.03.25-.24.38-.5.75-.74,1.13-.05.08-.09.17-.13.26-.07.19-.14.38-.21.57-.16-.11-.33-.23-.56-.39-.07.25-.19.5.13.7.28.18.29.35.03.55-.05.04-.14.07-.16.12-.17.43-.29.89-.5,1.31-.21.42-.51.8-.76,1.2-.06.09-.08.21-.13.31-.08.17-.17.33-.26.49-.02.04-.09.06-.11.1-.16.44-.32.88-.47,1.31-.01.03,0,.08-.02.1-.6.41-.33,1.04-.4,1.58,0,.07,0,.17-.04.19-.56.36-.34.92-.35,1.4-.02,1.24,0,2.47-.02,3.71,0,.22-.17.44-.26.66-.05.11-.09.21-.14.31-.11.21-.22.43-.35.69.47.16.35.65.35,1.1,0,.79.02,1.58-.01,2.37-.01.23-.21.45-.31.67-.06.15-.15.3-.15.46-.02.53,0,1.06-.01,1.6,0,.13,0,.33-.09.38-.35.2-.71.41-1.09.53-.37.11-.98-.32-1.03-.69-.05-.34-.08-.66.46-.71.25-.02.47-.35.73-.57-.05-.06-.09-.1-.12-.15-.08-.11-.15-.23-.23-.35.12-.07.23-.19.36-.22.45-.08.75-.67.47-1.04-.09-.12-.53-.16-.57-.1-.19.33-.66.51-.56,1.01.04.18,0,.38,0,.57.02.36-.11.53-.5.53-.4,0-.5-.19-.48-.54.02-.27,0-.55,0-.82,0-.1-.01-.26.04-.3.61-.36.35-.94.36-1.43.03-1.22,0-2.44.01-3.66,0-.26-.06-.55.29-.7.09-.04.12-.27.12-.41.02-.38-.02-.76.02-1.13.02-.18.13-.35.2-.53.16.09.32.18.52.29.3-.27.64-.58,1.08-.98-.33-.07-.64-.04-.8-.19-.17-.15-.19-.46-.41-.69-.02.28,0,.56-.06.82-.03.13-.18.23-.28.34-.08-.11-.23-.22-.23-.33-.02-.65-.01-1.3,0-1.96,0-.07,0-.17.05-.19.54-.3.34-.8.35-1.24.02-1.25,0-2.51.02-3.76,0-.25.12-.49.19-.74.19.13.37.25.58.39.14-.17.31-.38.49-.59-.02-.03-.04-.07-.06-.07q-.77-.19-.77-1.01c0-.57,0-1.13,0-1.7,0-.31.12-.46.45-.48.49-.03.55-.19.27-.68-.08.1-.13.23-.22.26-.12.05-.31.08-.4.02-.21-.15-.1-1.09.08-1.29.14-.16.28-.38.28-.57.03-1.15.06-2.3,0-3.45-.04-.75.15-1.31.68-1.61-.1-.39-.21-.7-.24-1.01-.04-.36.04-.73-.02-1.08-.1-.59.21-.97.62-1.27.33-.24.23-.46.13-.82-.1.14-.14.23-.21.29-.1.08-.23.19-.32.17-.09-.02-.2-.2-.19-.3.03-.41-.2-.9.32-1.2.09-.05.08-.32.08-.48,0-1.32,0-2.64.02-3.96,0-.21.16-.41.24-.61.06-.15.15-.3.16-.46.02-.6.03-1.2,0-1.8-.02-.46.05-.79.62-.74.03,0,.07-.02.09-.04.02-.02.03-.05.05-.08,0-.02-.01-.05-.02-.05-.8-.05-.8-.6-.74-1.18.05-.47-.18-1,.36-1.35.08-.05.05-.29.05-.44,0-1.32,0-2.64.01-3.96,0-.21.16-.41.25-.61.06-.15.15-.3.16-.46.02-.48,0-.96.01-1.44,0-.33-.07-.7.3-.7-.11-.39-.24-.74-.3-1.09-.07-.39.1-.62.54-.61.11,0,.31-.14.32-.23.02-.14-.08-.3-.14-.44-.07-.17-.23-.34-.23-.51-.02-1.58,0-3.16-.02-4.74,0-.47.42-.56.62-.84.02-.02.33.17.52.26.24-.42.17-.62-.32-.65-.32-.02-.4-.17-.4-.46,0-1.17,0-2.33,0-3.5,0-.12.01-.31.07-.33.48-.21.32-.63.34-.98.02-.48,0-.96,0-1.44,0-.28-.05-.57.3-.75.09-.05.11-.54.03-.58-.45-.24-.31-.64-.34-.99,0-.12,0-.24,0-.36-.03-.37.07-.6.51-.57.1,0,.2-.07.23-.08-.12-.33-.17-.65-.34-.87-.22-.28-.4-.66-.87-.64-.6.02-1.2.03-1.8,0-.3-.02-.59-.15-.85-.22-.35.08-.71.19-1.08.23-.39.04-.79,0-1.18.01-.12,0-.31-.02-.35.04-.28.5-.78.28-1.16.41-.43.15-.8.5-1.23.68-.16.07-.42-.1-.69-.17.01-.02-.06.06-.07.14-.11.65-.36.87-.97,1.08-.28.09-.52.34-.75.54-.19.17-.31.43-.52.58-.09.06-.31-.03-.46-.08-.18-.05-.35-.18-.52-.18-.07,0-.12.27-.2.4-.08.14-.17.27-.25.4-.05.08-.12.16-.16.25-.12.27-.23.54-.35.84.49.37.49.57-.04,1.11-.09.09-.06.29-.12.42-.06.13-.16.25-.24.37-.08-.13-.17-.25-.23-.39-.05-.14-.06-.29-.09-.44-.06,0-.11,0-.17,0-.03.16-.09.33-.09.49,0,.93.01,1.85-.02,2.78,0,.21-.16.41-.24.61-.06.15-.15.3-.16.46-.02.51,0,1.03,0,1.54q0,.85-.78,1.08c.12.16.32.31.32.45,0,.15-.21.3-.33.45.51.52.53,1.49.06,2.06-.09.1-.1.28-.11.43-.01.45,0,.89,0,1.34,0,.31.08.66-.36.8-.08.02-.11.27-.12.41-.01.67,0,1.34-.02,2.01,0,.17-.16.34-.22.51-.08.25-.11.5-.19.75-.05.18-.12.49-.21.5-.24.02-.57,0-.74-.14-.3-.27-.51-.28-.76.02-.08.1-.25.13-.32.24-.08.12-.12.29-.1.42.02.09.17.17.28.23.22.12.47.2.68.34.29.18.53.05.63-.35.04-.14.16-.26.26-.37.01-.01.24.1.25.18.03.2.08.53-.02.59-.54.33-.3.84-.38,1.28-.03.21-.11.52-.25.58-.24.11-.54.11-.76-.21-.24-.37-.57-.68-.9-.98-.09-.09-.3-.03-.44-.09-.12-.05-.22-.16-.33-.24.1-.1.18-.23.29-.28.15-.06.33-.05.38-.06-.08-.42-.19-.79-.21-1.17-.04-.48-.02-.96,0-1.44,0-.31-.05-.6.3-.86.16-.12.07-.58.12-.87.06-.32.15-.63.24-1.01-.23-.14-.47-.37.07-.67.09-.05.1-.28.1-.43.01-.57,0-1.13,0-1.7,0-.33-.09-.69.33-.89.07-.03.08-.25.09-.38.01-.45,0-.89,0-1.34,0-.31-.08-.66.31-.85.08-.04.09-.25.09-.38.01-.46,0-.93,0-1.39,0-.3,0-.56.29-.81.18-.15.11-.6.13-.92.02-.34-.07-.73.58-.78-.2-.14-.27-.19-.35-.24-.28-.17-.27-.33-.03-.55.13-.11.28-.32.26-.46-.09-.59.25-.94.64-1.27.06-.05.17-.12.17-.18,0-.51.13-.94.42-1.39.14-.22.18-.52.41-.75.23-.23.53-.44.52-.88,0-.19.32-.38.5-.56.55-.56,1.1-1.13,1.65-1.69.06-.06.15-.12.21-.12.55.07.76-.38,1.07-.68.08-.07.19-.12.29-.17.19-.1.38-.21.58-.3.12-.05.25-.07.37-.13.15-.08.3-.17.44-.26.1-.06.18-.15.28-.2.22-.12.44-.29.68-.32.29-.04.6.03.89.1.2.04.38.15.57.23.03-.05.05-.1.08-.15-.05-.05-.11-.1-.14-.16-.07-.12-.17-.25-.16-.37,0-.07.21-.17.32-.18.69-.02,1.37,0,2.06-.03.21-.01.41-.16.61-.26.1-.05.21-.15.31-.14.55.09,1.21-.31,1.65.34.05.08.26.06.39.06.63,0,1.28.06,1.9-.01.62-.07,1.02.2,1.39.62.02.03.03.08.05.09.58.1.78.48,1.04.99.28.57.38,1.55-.12,2.04.51.53.51,1.05.06,1.65-.1.13-.11.35-.11.54,0,1.3,0,2.61,0,3.91,0,.27.02.54-.33.68-.1.04-.15.32-.15.49-.01,1.34,0,2.68-.01,4.02,0,.18-.11.36-.17.55-.16-.1-.32-.19-.52-.32-.25.28-.55.6-.87.96.22.19.54.45-.02.76-.08.04-.04.42.04.6.07.16.28.27.53.49.02-.36.03-.65.04-.94,0-.27-.02-.55.02-.82.02-.13.17-.24.27-.37.09.12.24.23.25.36.03.39.01.79.01,1.18,0,1.05.01,2.09-.01,3.14,0,.2-.18.39-.26.59-.06.17-.14.34-.14.51-.01,1.32,0,2.64-.02,3.96,0,.23-.19.45-.28.69-.05.14-.11.28-.12.43-.02.36-.02.72,0,1.08.02.39-.07.64-.53.61-.07,0-.15.04-.25.07.04.07.07.15.09.15.69-.01.73.42.7.95-.03.5,0,1,0,1.49,0,.3.07.62-.3.8-.08.04-.1.28-.1.42-.01.58.02,1.17-.02,1.75-.02.32-.15.62-.26,1.03.22.16.55.44-.1.72.5.5.5.69.06,1.22-.08.09-.1.25-.1.38-.01.34.03.69-.02,1.03-.04.29-.18.57-.29.89.34.1.31.5.3.9,0,.45.03.9-.02,1.34-.02.2-.2.37-.29.57-.07.16-.17.33-.17.49-.01,1.3,0,2.61,0,3.91,0,.14.02.28-.02.41-.03.11-.15.19-.23.28-.08-.09-.2-.17-.23-.28-.11-.45-.57-.7-1-.48-.09.05-.19.22-.17.32.02.12.18.32.24.31.52-.1.56.49.92.61.03.01.04.28-.02.35-.06.06-.26.05-.35-.01-.1-.06-.14-.21-.21-.34-.42.44-.78.86-.51,1.49Zm2.68-31.02c-.34.29-.68.51-.93.81-.12.15-.05.44-.07.67.43,0,.77.23,1.11.46.07.04.21-.03.41-.07-.79-.5-.24-1.28-.53-1.87Zm16.22,39.45c-.13.32-.27.68-.41,1.04.87.29.88.29.35.8q.37.17.97-.37c-.31-.5-.6-.98-.9-1.47Zm-18.77-.51c.16-.15.32-.29.47-.44-.25-.26-.46-.63-.76-.75-.34-.13-.33.25-.35.51-.03.4.1.64.64.67Zm-1.36,13.39s.09.06.13.09c-.14-.15-.25-.37-.43-.44-.19-.08-.43-.03-.65-.04,0,.21-.04.44.05.61.1.18.32.3.39.36.17-.2.34-.39.51-.58Zm4.59,26.81s.09-.01.13-.02c.2-.33.42-.65.57-1,.05-.13-.06-.43-.17-.49-.13-.06-.5.06-.5.13-.05.45-.02.92-.02,1.38Z"/>
  <path d="m95.09,161.24c-.32.02-.59-.04-.84.36-.41.66-.56.62-1.13.09-.23-.21-.23-.75,0-.97.11-.1.2-.22.31-.32.1-.09.21-.16.35-.27-.3-.2-.51-.21-.71.09-.16.24-.32.25-.52,0-.28-.33-.52-.7-1.07-.71-.21,0-.42-.3-.61-.49-.66-.67-1.32-1.35-1.98-2.03-.48-.49-.97-.97-1.46-1.46-.51-.51-1.02-1.02-1.53-1.53-.07-.07-.21-.15-.2-.21.09-.77-.65-.99-.99-1.46-.28-.4-.72-.63-.86-1.21-.1-.4-.62-.7-.97-1.02-.28-.26-.28-1.1-.03-1.39.13-.15.16-.4.18-.61,0-.04-.32-.18-.42-.13-.14.07-.2.28-.3.43-.09.13-.18.27-.27.4-.07-.13-.17-.26-.21-.41-.04-.15-.02-.31,0-.46.02-.29-.11-.38-.39-.41-.17-.02-.47-.16-.47-.24,0-.53-.41-.74-.7-1.05-.08-.08-.12-.19-.17-.3-.01-.03,0-.07,0-.1-.13-.27-.39-.54-.36-.79.03-.26.41-.42.38-.81-.03-.39-.13-.55-.54-.55-.71,0-1.08-.33-1.22-1.02-.01-.05,0-.11-.04-.15-.16-.22-.65-.34-.13-.73.24-.17.38-.44.75-.41.45.03.32-.35.33-.6,0-.18-.05-.36-.08-.54-.05,0-.11,0-.16,0-.06.26-.06.58-.21.77-.16.19-.48.24-.74.35-.12.05-.26.15-.35.12-.09-.03-.19-.21-.18-.31.03-.75-.5-1.26-.72-1.89-.18-.54-.82-.92-.63-1.61.03-.12-.12-.29-.19-.43-.07-.13-.15-.25-.21-.37-.09-.17-.17-.34-.26-.51-.02-.04-.11-.08-.1-.11.15-.71-.45-1.21-.49-1.88-.01-.2-.17-.4-.26-.6-.05-.12-.12-.24-.14-.36-.04-.37.05-.71-.33-1.05-.27-.24-.16-.74.27-1.05-.16-.02-.32-.08-.47-.06-.6.09-.9-.29-1.23-.7-.3-.38-.68-.7-1.03-1.04-.15-.15-.29-.3-.46-.42-.39-.28-.83-.51-1.2-.81-.39-.32-.72-.69-1.08-1.05-.5-.5-1-1.01-1.49-1.51-.37-.38-.74-.77-1.12-1.15-.09-.09-.21-.17-.32-.19-.57-.1-.86-.37-1.01-.97-.02-.09-.08-.23-.15-.24-1.08-.31-1.54-1.36-2.38-1.95-.14-.1-.29-.23-.45-.26-.49-.1-.88-.54-.83-1.02.02-.16.18-.3.24-.46.07-.19.1-.4.15-.6-.05-.01-.1-.03-.15-.04-.15.14-.3.29-.47.41-.17.13-.49.35-.51.33-.23-.24-.4-.53-.59-.81-.09-.13-.14-.29-.25-.41-.31-.34-.69-.62-.94-1-.25-.39-.38-.86-.56-1.29-.03-.06-.04-.15-.08-.18-.53-.29-.31-.54.14-.8-.15-.08-.25-.18-.33-.17-.5.04-.54-.25-.56-.64-.01-.23-.2-.45-.28-.69-.07-.2-.1-.42-.12-.63-.03-.26.06-.55-.3-.69-.07-.03-.13-.24-.11-.36.08-.52-.25-1.1.34-1.56.16-.13.02-.64.02-.98-.07,0-.14-.01-.21-.02-.03.18-.05.36-.11.53-.04.11-.13.21-.2.31-.09-.06-.2-.1-.26-.19-.29-.39-.57-.79-.84-1.19-.05-.08-.07-.19-.08-.29-.03-.36,0-.68-.32-1.01-.27-.28-.16-.77.32-1.05-.13-.05-.19-.1-.24-.1-.49.05-.61-.19-.61-.64,0-.23-.2-.46-.27-.69-.07-.2-.11-.42-.13-.63-.02-.27.03-.51-.29-.69-.28-.16-.13-.73.23-1.07-.26-.1-.62-.12-.75-.31-.14-.21-.05-.56-.11-.85-.03-.12-.21-.21-.27-.33-.07-.16-.12-.35-.13-.53-.03-.28.04-.58-.3-.76-.08-.04-.09-.24-.12-.37-.03-.11,0-.31-.07-.34-.5-.24-.33-.7-.35-1.08-.02-.3.06-.62-.31-.8-.08-.04-.07-.24-.11-.37-.03-.13-.03-.29-.1-.38-.44-.52-.44-.74.05-1.19-.04-.03-.07-.09-.11-.1q-.74-.19-.74-.95c0-.38.06-.77-.01-1.13-.12-.63.17-1.07.59-1.43.41-.34.86-.69,1.34-.89.34-.14.78-.05,1.17-.07.33-.02.69.1.89-.32.04-.08.28-.1.43-.1,1.84,0,3.67,0,5.51,0,.12,0,.3-.01.35.05.4.62,1.02.3,1.54.37.31.04.66-.06.86.31.04.07.21.09.33.1.36.03.77-.11.93.41.02.06.22.04.33.09.17.07.34.16.51.24.1.05.2.11.3.17.19.1.38.21.58.31.04.02.09.08.13.08.76,0,1.03.71,1.55,1.06.07.04.11.18.17.18.77-.03.97.72,1.45,1.08.59.44,1.07,1.03,1.59,1.56.08.08.21.18.2.26-.06.55.38.76.69,1.07.02.02.07.03.08.06.19.44.38.88.57,1.31.06.13.15.24.22.36.05.08.14.15.17.23.25.72.49,1.44,1.16,1.92.19.14.31.37.49.53.15.13.33.21.51.31.15.09.3.17.45.26.06.03.1.12.15.12.49-.02.69.19.71.69.01.27.9.3,1.11,0,.21-.3.38-.31.58-.02.04.05.1.15.13.14.65-.14,1.09.44,1.69.46.68.03.69.02,1.3.88.24-.25.49-.71.78-.05.02.04.1.08.13.07.66-.2,1.12.32,1.68.47.32.09.56.47.85.73.15-.1.33-.31.51-.32.21-.02.44.15.67.22.19.05.48.17.57.08.62-.53,1.2-1.11,1.78-1.68.05-.05.06-.16.06-.24-.03-.39.14-.58.53-.57.08,0,.21-.05.22-.1.06-.39.47-.68.51-.94.13-.74.74-1.02,1.1-1.51.06-.08.19-.15.18-.22-.06-.71.42-.65.88-.64.14,0,.28-.03.56-.07-.21-.13-.3-.17-.36-.24-.07-.08-.12-.19-.18-.28.47-.23.36-.8.66-1.12.3-.32.64-.62.95-.93.03-.03.07-.09.07-.13.04-.77.68-1.09,1.15-1.53.07-.07.18-.16.18-.22-.07-.53.37-.74.66-1.03.27-.27.28-.51,0-.77-.06-.05-.19-.12-.18-.16.12-.62-.32-1.09-.46-1.63-.03-.1-.03-.26-.08-.28-.51-.15-.27-.64-.43-.91-.32-.54-.24-1.21-.53-1.65-.28-.41-.29-.53.11-.77-.23-.22-.44-.42-.65-.61-.02-.02-.08-.04-.08-.06.04-.66-.35-1.2-.49-1.8-.02-.1.07-.26.15-.34.31-.32.35-.7.1-1.1-.17.1-.49.3-.5.28-.21-.3-.71-.37-.67-.87.03-.33.1-.7-.33-.88-.05-.02-.1-.16-.08-.23.19-.85-.53-1.23-.93-1.76-.25-.33-.61-.58-.94-.88-.19.24-.19.42.03.69.16.2.2.54.19.81,0,.07-.35.18-.55.2-.29.04-.58,0-.87.01-.28,0-.55-.04-.76.28-.17.26-1.08.17-1.31-.1-.24-.27-.44-.23-.7-.03-.16.12-.38.23-.57.24-.81.03-1.61.03-2.42,0-.19,0-.37-.16-.57-.24-.18-.07-.37-.14-.56-.16-.24-.03-.48.02-.72-.02-.15-.02-.28-.14-.42-.21.09-.12.18-.24.27-.36.03-.04.06-.08.09-.12-.35-.31-.86-.26-1.18.05-.09.08-.32.04-.48,0-.08-.02-.15-.21-.2-.2-.61.11-1.06-.29-1.57-.46-.13-.04-.24-.14-.36-.22-.08-.05-.16-.18-.23-.17-.41.06-.63-.22-.9-.46-.7-.62-1.18-.54-1.79.18-.24.29-.35.61-.51.93-.2.41-.64.7-.98,1.03-.3.29-.69.49-.71,1.02,0,.2-.29.41-.47.6-.56.57-1.14,1.14-1.71,1.7-.05.05-.12.1-.17.09-.53-.06-.72.41-1.04.67-.08.06-.16.16-.24.17-.54.02-.84.38-1.11.78-.04.05-.11.08-.16.11-.26.13-.5.31-.77.38-.69.19-1.39.35-2.09.48-.31.06-.57.14-.85.28-.44.21-1.05.07-1.59.08,0-.15-.05-.35.03-.44.31-.37.39-1.14.09-1.68-.06.13-.15.22-.15.31,0,.28-.02.52-.32.7-.1.06-.12.35-.1.52.06.53-.18.68-.68.67-1.32-.03-2.64,0-3.96-.01-.59,0-1-.36-1.08-.95-.01-.08-.04-.15-.19-.24-.03.16-.04.33-.09.49-.08.3-.26.33-.49.15-.51-.37-1.03-.73-1.7-.72-.14,0-.39-.04-.41-.12-.14-.44-.5-.39-.8-.35-.5.07-.65-.4-.97-.59-.7-.43-.51-1.16-.44-1.79.04-.36.3-.7.49-1.04.04-.07.18-.12.27-.11.45.03.6-.21.52-.6-.11-.54.35-.74.59-1.07.05-.06.17-.08.2-.14.17-.44.28-.9.49-1.32.12-.26.35-.47.56-.68.19-.19.43-.34.64-.51.01-.01.03-.03.03-.04,0-.44.24-.77.47-1.1.13-.19.23-.4.34-.61.17-.32.56-.49.55-.97,0-.22.39-.45.62-.68.06-.06.17-.08.2-.15.17-.43.3-.88.48-1.3.07-.17.28-.27.38-.43.18-.3.31-.63.48-.94.04-.08.16-.17.22-.16.1.01.22.1.26.19.06.17.06.35.08.49.31-.1.58-.21.85-.27.09-.02.27.1.3.19.03.08-.1.21-.15.33-.07.19-.19.38-.18.56,0,.08.29.14.44.22.14.07.36.15.37.25.02.22,0,.49-.11.66-.15.22-.42.35-.63.54-.06.05-.1.15-.1.22-.01.26.01.52-.33.61-.04.01-.09.12-.09.17.08.56-.39.77-.67,1.1-.06.07-.17.17-.16.24.08.49-.33.74-.59.92-.28.19-.28.38-.36.64-.08.26-.33.47-.5.72-.11.17-.21.35-.31.52-.07.12-.15.25-.22.37-.06.09-.18.19-.18.28.02.35-.16.55-.39.77-.24.23-.5.45-.53.88-.02.23-.4.44-.63.64-.28.24-.26.52,0,.79.24.24.63.29.81.45.53.47,1.2.15,1.65.41,1.38.79,2.82.19,4.22.37.44.06.89.01,1.34,0,.29,0,.56.03.76-.29.07-.12.37-.11.57-.13.28-.03.59.08.74-.3.03-.07.21-.07.31-.12.24-.12.47-.36.7-.36.21,0,.43.24.66.35.07.03.18-.03.36-.07-.14-.12-.3-.19-.3-.26,0-.16.09-.45.11-.45.6.1.74-.47,1.1-.72.12-.08.37-.14.45-.08.24.19.43.45.75.79.02-.36.08-.65.03-.92-.1-.56.24-.88.57-1.2.1-.1.23-.18.36-.25.12-.06.26-.1.4-.14-.02.15-.03.3-.08.44-.03.07-.14.12-.21.18.37.14.7.27,1.1.42-.05-.48.33-1.04-.25-1.56-.13-.12-.1-.63.04-.82.32-.43.75-.79,1.15-1.16.09-.08.24-.15.35-.14.39.02.52-.14.5-.51-.02-.35-.09-.73.34-.93.06-.03.07-.19.07-.29,0-.3.11-.45.43-.44.1,0,.23,0,.3-.06.79-.75,1.75-.2,2.62-.33.05,0,.13.09.19.15.31.28.55.58,1.02.71.44.13.76.64,1.12,1,.01.01-.15.27-.26.32-.17.07-.38.06-.57.08,0,.06-.01.12-.02.18.17.03.35.11.51.09.42-.04.92.21,1.22-.37.12-.23.66-.1.83.14.05.08.13.21.19.21.58-.04.87.19.76.89.51-.72,1.14-.45,1.67-.42.62.04.88.55.94,1.18.08-.05.16-.07.16-.1-.03-.7.4-.73.93-.7.62.03,1.24.01,1.85,0,.31,0,.63.08.85-.31.07-.13.47-.08.73-.1.34-.03.73.12.94-.33.04-.08.28-.09.43-.09.7,0,1.41.04,2.11-.02.62-.06,1,.21,1.33.66.12.17.34.26.47.42.48.57.87,1.18.85,1.97,0,.11.04.27.12.31.56.3.22.51-.1.74.23.22.45.42.66.62.02.02.08.05.08.06-.09.67.47,1.19.45,1.81,0,.27-.38.53-.59.78-.05.06-.12.1-.22.18.09.07.16.16.22.16.6-.07.68.27.64.75-.01.16.05.33.08.49.06,0,.11,0,.17,0,.03-.17.03-.34.1-.49.05-.11.18-.19.28-.29.08.09.22.17.24.28.16.66.18,1.39.48,1.98.24.46.34.72-.02,1.13-.14.17.04.43.34.42.35,0,.5.15.48.5,0,.11.02.29.09.33.47.24.4.61.2.94-.14.24-.66.08-.97-.24-.49.29-.76.74-.53,1.25.19.41.6.72.95,1.11.2-.23.4-.46.61-.67.08-.08.22-.2.3-.18.1.03.22.19.22.29-.02.41.23.91-.34,1.17-.08.04-.13.29-.11.41.13.57-.31.83-.59,1.17-.06.07-.21.13-.21.19.02.83-.73,1.09-1.14,1.6-.04.05-.11.1-.12.16-.05.76-.77,1.01-1.13,1.53-.06.08-.19.15-.19.22,0,.76-.74.97-1.08,1.47-.05.07-.17.11-.17.17-.03.82-.78,1.08-1.21,1.6-.04.05-.12.1-.12.16-.01.75-.69,1.04-1.07,1.54-.05.07-.17.12-.17.17.04.78-.76.94-1.07,1.46-.27.43-.72.75-1.11,1.11-.11.1-.26.15-.4.23-.06-.13-.13-.26-.18-.39-.04-.12-.06-.24-.09-.37-.06,0-.12,0-.17,0-.03.19-.1.39-.08.57.06.54-.17.71-.68.66-.34-.03-.69.02-1.03-.02-.19-.02-.37-.17-.55-.25-.12-.05-.25-.16-.35-.14-.65.11-1.02-.27-1.41-.69-.1-.11-.39-.08-.59-.05-.17.03-.43.27-.47.23-.22-.21-.4-.46-.54-.73-.07-.14.03-.35-.03-.5-.06-.15-.19-.34-.33-.39-.24-.08-.41.04-.44.34-.02.16-.15.43-.23.43-.37,0-.75-.05-1.12-.12-.14-.03-.26-.24-.38-.24-.46.02-.56-.22-.54-.61.01-.21,0-.41,0-.62q0-.54-.54-1.3c-.32.3-.64.59-.96.9-.06.05-.07.15-.11.22-.09.18-.16.51-.26.51-.38.02-.82.23-1.14-.18-.03-.04-.06-.12-.09-.12-.59,0-1.09-.31-1.63-.48-.33-.11-.77.09-.93-.42-.01-.04-.12-.06-.18-.08-.76-.19-1.23-.66-1.42-1.42-.02-.1-.12-.19-.2-.27-.06-.06-.17-.09-.2-.15-.18-.43-.32-.88-.51-1.3-.19-.4-.44-.78-.66-1.16-.06-.11-.1-.24-.16-.35-.09-.18-.19-.35-.28-.53-.06-.12-.1-.24-.14-.36-.04-.13-.03-.33-.1-.37-.58-.3-.23-.53.16-.83-.26-.04-.42-.09-.57-.07-.6.09-.91-.28-1.23-.69-.3-.38-.67-.7-1.02-1.04-.19-.18-.47-.3-.57-.51-.07-.14.09-.4.18-.71-.13-.05-.37-.14-.59.16-.19.26-.37.27-.56,0-.05-.07-.12-.16-.18-.16-.58.03-.77-.47-1.1-.79-.11-.11-.33-.12-.51-.15-.46-.07-.97.18-1.35-.35-.11-.15-.55-.06-.84-.06-.72,0-1.04-.28-1.17-1.01-.01-.06-.05-.11-.14-.29-.1.34-.12.61-.26.77-.06.07-.38-.1-.59-.16,0-.04,0-.09,0-.13-.06.05-.12.1-.18.14-.11.08-.23.15-.34.22-.07-.12-.2-.24-.21-.36-.04-.49-.29-.49-.62-.37.11.22.2.39.29.57-.2.06-.39.17-.59.18-.41.03-.82,0-1.24.01-.3,0-.62-.07-.8.31-.04.09-.27.1-.42.11-.41.01-.82-.01-1.23.02-.14.01-.35.12-.37.23-.03.15.06.34.13.5.07.17.22.32.25.49.06.32-.1.69.33.9.04.02-.08.37-.13.57-.05,0-.11.01-.16.02.26.23.55.44.77.71.1.12.09.35.11.54.04.42-.15.91.37,1.19.04.02.03.13.06.19.1.21.22.41.31.63.19.48.35.96.54,1.44.08.22.19.43.29.64.01.03.07.05.07.07-.16.71.47,1.21.49,1.87,0,.21.21.41.28.62.08.23.17.48.14.7-.02.11-.29.23-.46.27-.24.06-.49.04-.74.15.32.14.63.28.95.42.03.07.05.14.08.21.03-.08.03-.19.08-.24.1-.09.23-.15.35-.22.07.12.2.24.2.36.02.43.15.9-.44,1.17.45.28.69.56-.08.92.46.22.81.36,1.13.56.12.08.25.31.22.45-.11.55.19.94.55,1.19.32.22.25.47.31.74.05.22.18.42.29.63.02.04.11.07.11.1-.12.81.7,1.42.49,2.23-.04.17-.2.32-.27.44.31.22.65.44.97.69.29.23.18.72-.12.99.16.17.33.35.51.53.07-.05.32-.29.39-.24.25.16.62.42.62.65,0,.48.34.7.58.95.23.24.45.58.91.54.17-.02.38.27.55.45.91.94,1.82,1.89,2.73,2.83.3.31.6.62.93.89.11.09.35.04.47.12.11.08.24.36.22.38-.25.21-.53.38-.79.57-.14.1-.26.24-.39.36.13.12.26.25.4.35.19.12.39.21.59.31q.39-.84.86-.32c.28-.57.54-.45.87-.02.27.35.75.54.7,1.09,0,.07.14.23.21.23.54-.02.77.38,1.05.72.04.05.11.12.16.11.77-.09,1.02.63,1.48,1,.59.47,1.07,1.07,1.61,1.61.32.32.65.62.96.95.06.06.05.19.08.29.16.54.5,1,.51,1.61,0,.18.22.68.36.78.51.37.26,1.01.52,1.31.36.42.25.85.38,1.25.14.41.43.77.66,1.14.03.04.09.07.1.11.16.7.32,1.39.46,2.09.04.23.02.48,0,.72-.01.29.08.43.4.46.5.05.8.46.94.94.13.43.42.81.63,1.22.07.13.13.26.17.4.04.11.03.25.09.34.34.46.35.45-.07.81.04.05.09.13.13.13.45,0,.71.11.74.66.01.22.42.42.65.64.08.08.21.2.19.27-.12.47.26.74.5.91.5.34.36.55.02.77.29.19.55.39.84.53.31.15.28.41.35.67.06.22.3.4.48.57.37.36.78.65.9,1.26.07.36.48.73.83.94.55.34.32.55-.11.84,1.16.15,1.61,1.05,2.25,1.73.6.63,1.26,1.19,1.88,1.79.5.49.93,1.06,1.48,1.5.48.39.77,1.06,1.52,1.12.16.01.3.24.44.38.19.19.45.37.55.6.15.35.14.74-.46.99.27.06.4.07.5.13.17.09.43.18.47.32.07.23.12.55-.27.67-.08.03-.12.2-.18.31-.03.03-.06.06-.09.09Zm-10.48-10c.2-.13.37-.24.53-.35.08.17.13.36.24.5.09.12.25.26.38.27.09,0,.26-.19.28-.31.12-.73.02-.83-.71-.83-.12,0-.24,0-.36,0-.55.01-.65.22-.37.72Zm10.24-62.15c.35-.02.79.05.64-.39-.11-.31-.45-.66-.76-.76-.44-.15-.36.3-.39.57-.05.44.11.66.51.58Zm-.47,9.78c.42-.38.74-.68,1.06-.97-.12-.13-.23-.34-.39-.39-.2-.06-.64-.01-.64.02-.04.44-.03.88-.03,1.34Zm-3.26-18.18c.18-.06.43-.12.65-.23.14-.07.32-.22.32-.34,0-.12-.18-.3-.31-.34-.55-.16-.89.19-1.11.45.18.18.33.33.46.46Zm-15.15-1.79c.38-.12.71-.02.7-.5-.01-.45-.33-.35-.58-.36-.28,0-.67-.07-.58.39.04.18.3.31.46.47Zm-24.56,15.57c.2.18.35.44.55.49.3.08.65.04.97-.02.04,0,.02-.37.03-.46-.3.08-.5.14-.7.2-.05-.25-.11-.5-.17-.76-.25.2-.45.37-.68.55Z"/>
  <path d="m90.26,15.91c-.43-.35-.44-.6.01-1.12.06-.07.06-.19.1-.28.09-.2.18-.4.28-.6.03-.06.09-.1.11-.16.16-.42.24-.89.49-1.26.2-.3.42-.7.93-.64.32.03.67.11.85-.35.06-.14.44-.15.66-.29-.39-.05-.8-.35-1.15.15-.05.07-.23.05-.35.07,0-.14-.01-.28.03-.41.08-.2.18-.4.3-.58.13-.2.27-.4.44-.57.59-.62,1.1-1.47,1.83-1.75.67-.26.97-1.05,1.75-1,.23-.52.98-.2,1.24-.78.1-.21.51-.35.8-.39.57-.08.92-.66,1.56-.57.51.07,1.03,0,1.54.02.33,0,.7-.1.88.33.02.05.15.08.23.08.4-.02.61.14.6.57,0,.11.12.22.18.33.08.14.16.27.23.42.05.11.02.29.09.33.52.29.31.54-.1.81.73.39.95.99.86,1.75-.02.17.17.36.23.56.07.21.13.44.17.66.04.26-.04.5.27.71.13.09.05.57-.02.85-.08.29-.26.56-.39.84-.07-.04-.14-.09-.21-.13.24.02.49.05.73.05.37,0,.54.15.53.52,0,.24-.03.49.01.72.03.18.15.34.24.51.02.04.1.07.11.1.02.62.68,1.05.5,1.74-.07.27-.11.64.3.78.03,0,.05.05.06.08.16.63.3,1.26.47,1.88.06.21.22.38.26.59.07.37.12.76.1,1.14,0,.08-.32.15-.49.22-.09.04-.18.07-.27.11.24.18.46.34.67.5-.03.05-.05.09-.08.14.05-.08.1-.17.16-.22.08-.07.21-.17.27-.15.1.04.21.16.24.27.17.68.15,1.47.51,2.01.38.57.3,1.1.37,1.66,0,.06.03.14.07.19.47.63.46.76-.04,1.22,0,.03.02.09.03.09.68.03.87.42.78,1.04-.01.1.13.22.19.33.06.11.18.23.16.32-.02.09-.19.2-.29.2-.44-.03-.52.21-.5.58.02.33,0,.66,0,.98.36-.15.61-.3.87-.36.3-.07.43.12.44.41,0,.35-.08.73.33.95.03.02-.08.39-.09.39-.56-.1-.76.38-1.1.67.27.25.64.45.79.76.15.3.09.71.13,1.2.13-.17.17-.23.21-.27.1-.09.2-.2.32-.25.03-.02.21.14.2.17-.04.13-.12.26-.21.35-.48.46-.71,1-.57,1.67.02.11.12.28.21.3.13.03.32,0,.42-.08.19-.15.34-.37.52-.54.08-.07.23-.16.29-.12.1.05.19.18.21.29.03.25.01.51.02.77,0,.27-.07.56.29.69.06.02.1.17.11.26.04.4-.12.87.42,1.1.06.03.06.22.07.34.02.35-.03.67.33.95.16.13.05.58.11.88.05.24.18.47.27.71.06.15.11.31.13.48.03.33-.09.7.34.88.04.02.06.12.07.18.04.42-.05.84.38,1.2.17.15.02.66.07.99.03.19.18.36.24.56.07.23.11.48.16.72.03.18.06.37.08.55.04,0,.09,0,.13.01.05-.09.09-.24.16-.27.15-.05.4-.12.48-.04.36.35,1.15.46,1.61.16,0-.03,0-.09-.03-.09-.47-.18-.94-.33-1.4-.53-.12-.05-.25-.24-.25-.37-.03-.63-.01-1.27-.01-1.9,0-.07,0-.17.03-.2.69-.59.35-1.38.35-2.06,0-.52.32-.76.59-1.05.06-.06.38.12.65.21.21-.37.48-.41.83.06.09.12.43.03.64.07.15.03.28.13.42.21-.08.12-.16.23-.22.35-.07.14-.16.3-.16.45-.02.6,0,1.2-.01,1.8,0,.3.07.62-.31.8-.08.03-.09.24-.1.37-.01.38,0,.76,0,1.13,0,.14.02.35-.05.4-.62.43-.31,1.05-.37,1.6-.03.34.03.69-.02,1.03-.03.2-.2.37-.29.56-.07.13-.16.26-.17.39-.03.31,0,.62,0,.93,0,.38.1.8-.48.99.54.28.62.51.14.86-.23.17,0,1.19.18,1.46.12.17.13.43.16.66.03.27-.05.55.33.66.08.02.14.26.15.4.02.34,0,.69.01,1.03,0,.28.03.51.28.76.29.29.43.76.54,1.17.1.35-.07.74.36,1.03.29.2.03.75-.34.84-.15.04-.29.13-.42.22-.13.1-.24.22-.38.36.27.17.48.2.66-.08.18-.27.32-.23.56-.01.34.32.47.67.42,1.11-.01.11,0,.3.07.33.48.21.32.63.33.98.01.41.13.86-.46,1.09.14.08.2.16.27.16.45-.04.74.1.7.61.69.34.14,1.23.74,1.67.17.13.03.65.09.99.03.21.18.4.24.61.07.22.13.44.16.66.03.26-.05.53.3.69.11.05.11.36.12.56.02.27,0,.5.28.71.15.11.1.5.13.76.04.36-.15.76.38,1,.3.13.08.74-.37,1,.11.07.22.11.28.19.07.1.16.31.13.33-.27.21-.55.45-.86.57-.24.09-.54.02-.82.02-.47,0-.9-.4-.97-.88-.01-.08,0-.22-.05-.24-.53-.27-.34-.76-.37-1.18-.02-.3.08-.62-.32-.78-.07-.03-.08-.25-.09-.38-.01-.38,0-.76,0-1.13,0-.26.05-.53-.32-.6-.06-.01-.1-.16-.15-.25-.11-.21-.26-.4-.33-.62-.07-.22-.1-.47-.06-.69.02-.09.27-.14.4-.21.3-.17.59-.35.97-.57-.39-.22-.64-.33-.86.04-.15.25-.71.38-.82.17-.12-.23-.06-.54-.08-.82.15,0,.31-.03.44.02.08.03.1.19.14.26.49-.48.97-.94,1.45-1.41-.66-.3-.97-.17-1.13.44-.08.31-.25.32-.49.16-.18-.12-.39-.2-.57-.32-.12-.09-.26-.2-.3-.34-.05-.15,0-.34-.02-.51-.02-.35.08-.57.48-.54.1,0,.21-.06.47-.13-.57-.34-1.32,0-1.51-.94-.15-.75-.42-1.24.2-1.7-.23-.06-.38-.13-.54-.13-.36,0-.42-.22-.42-.51,0-.27.07-.45.4-.48.17-.02.36-.12.47-.25.05-.05-.09-.38-.12-.37-.21.02-.42.09-.63.16-.12.04-.28.17-.33.14-.1-.07-.19-.23-.21-.36-.05-.37.03-.72-.33-1.06-.26-.24-.17-.71.31-.94-.24-.23-.49-.4-.66-.64-.11-.16-.12-.4-.15-.61-.03-.26.08-.57-.29-.69-.04-.01-.09-.07-.09-.11-.15-.71-.32-1.43-.44-2.15-.05-.29.07-.6-.34-.77-.11-.05-.09-.4-.16-.6-.08-.24-.19-.46-.29-.69-.05-.12-.11-.24-.13-.37-.04-.34.05-.67-.32-.96-.25-.2-.02-.4.29-.44.49-.06.56-.23.28-.74-.05.11-.08.21-.14.27-.08.07-.2.16-.28.15-.09-.01-.2-.14-.22-.23-.04-.28,0-.59-.36-.72-.06-.02-.07-.18-.08-.28-.03-.38.09-.79-.37-1.04-.08-.04-.05-.32-.06-.49-.02-.28-.05-.49-.27-.76-.2-.25-.08-.77-.09-1.17,0-.03.17-.11.21-.09.09.05.15.15.21.24.11.18.16.48.31.53.44.16.54-.37.82-.55.04-.03-.12-.38-.19-.58-.05-.15-.13-.3-.15-.46-.03-.24-.03-.49-.04-.74-.05,0-.11,0-.16-.01-.03.18-.04.36-.09.53-.06.23-.14.45-.22.68-.17-.12-.34-.24-.55-.39.03,0,0-.01-.03,0-.15.13-.29.26-.44.38-.07-.19-.18-.38-.21-.58-.04-.3,0-.57-.32-.8-.15-.1-.08-.51-.11-.78-.04-.33.15-.73-.31-.95-.04-.02.09-.39.16-.69-.4-.29-.84-.72-.69-1.44.01-.05.01-.13-.02-.15-.77-.65-.27-1.53-.38-2.29-.03-.22.15-.47.27-.8-.2-.14-.34-.61-.87-.53-.08.01-.24-.08-.25-.13-.03-.6-.69-1-.52-1.68.07-.29.11-.67-.3-.83-.01,0-.03-.03-.03-.04.12-.67-.47-1.15-.49-1.78,0-.28.08-.59-.3-.74-.08-.03-.11-.24-.11-.37-.01-.39.02-.79-.02-1.18-.02-.2-.17-.39-.27-.59-.01-.03-.07-.05-.07-.07.18-.74-.55-1.2-.56-1.89,0-.2-.18-.4-.25-.6-.2-.63-.39-1.26-.55-1.9-.02-.07.17-.22.29-.27.14-.06.31-.05.47-.08,0-.07,0-.14.01-.21-.22-.03-.44-.09-.66-.07-.42.03-.58-.14-.57-.57,0-.45.16-.96-.36-1.29-.07-.04-.04-.26-.05-.39-.02-.31.09-.64-.31-.84-.11-.05-.04-.42-.11-.62-.06-.2-.2-.38-.28-.58-.08-.19-.16-.4-.19-.6-.06-.43.15-.94-.37-1.24-.07-.04-.05-.22-.06-.34-.03-.34.03-.64-.31-.95-.29-.27-.15-.73.26-.97-.04-.06-.06-.1-.08-.11-.71-.16-.7-.16-.71-.92,0-.35.14-.77-.34-.98-.06-.03-.07-.22-.07-.33-.02-.35.03-.67-.32-.96-.17-.15-.08-.61-.1-.93-.02-.28.08-.58-.32-.72-.1-.04-.1-.36-.16-.55-.08-.24-.19-.47-.28-.7-.05-.14-.15-.29-.13-.42.05-.46-.06-.85-.45-1.09-.16-.1-.45-.18-.59-.11-.39.19-.72.52-1.11.71-.43.21-.92.29-1.34.51-.26.13-.48.38-.66.63-.22.32-.4.29-.58,0-.54-.85-1.38-.67-2.16-.64-.32.01-.36.28-.17.63.29-.1.58-.31.83-.27.38.06.75.28,1.1.48.06.03.06.32,0,.39-.45.46-.92.88-1.39,1.32-.08.08-.22.17-.21.25.06.55-.38.77-.68,1.09-.03.04-.1.06-.12.1-.17.44-.29.89-.49,1.31-.21.42-.52.79-.75,1.21-.09.16-.11.38-.13.57-.03.26.07.55-.29.69-.08.03-.12.27-.12.41,0,1.66,0,3.33,0,4.99,0,.1-.02.26.04.3.66.43.29,1.09.37,1.64.04.29-.08.62.35.75.09.03.12.3.14.46.05.45-.14.93.36,1.31.15.12.06.55.07.84.02.3-.03.57.28.82.13.11.12.68-.03.8-.4.32-.21.69-.21,1.04,0,.07.22.2.34.2.38,0,.47.2.46.52-.01.26,0,.51,0,.77,0,.12,0,.31.06.34.56.26.27.77.37,1.17.06.24.21.46.28.7.07.22.09.45.12.68.05.39-.18.87.39,1.09.07.03.08.25.09.38.01.38-.02.76.02,1.13.02.19.17.37.24.56.07.18.15.37.17.56.06.44-.08.87.34,1.27.25.24.16.75-.35,1,.69.41.95.95.86,1.71-.04.38-.16.82.32,1.15.16.11.06.61.08.93.02.28-.07.57.3.74.11.05.09.4.11.62.05.4-.16.85.37,1.13.1.06.01.49,0,.75-.22-.07-.43-.14-.68-.22-.25.35-.16.59.33.64.44.05.87.49.88.93,0,.15-.01.31,0,.46.05.46-.15.95.34,1.36.29.24.01,1.48-.31,1.83.03.04.06.11.09.11.69-.05.77.37.72.91,0,.1,0,.26.07.29.45.22.33.62.35.98.02.35-.09.71.32,1,.18.13.22.59-.12.85-.11.08-.17.28-.18.42,0,.08.15.19.25.25.19.11.39.19.58.28-.13.15-.27.3-.42.46.15.13.33.27.47.44.48.55.72,1.18.87,1.91.1.48.39.87-.03,1.32-.03.04.04.18.19.35.03-.08.04-.18.1-.22.09-.08.27-.19.32-.16.1.07.18.22.21.35.03.16,0,.34.01.51,0,.12.02.3.08.33.58.29.28.52-.04.75.02.05.04.11.05.11.66-.02.9.31.81.95-.02.11.1.24.16.35.08.17.17.34.26.51.25.48.41.97.49,1.52.06.41.47.76.7,1.16.06.11.05.26.06.4.02.31-.08.66.32.84.07.03.06.21.09.33.02.1,0,.27.06.29.52.23.4.68.44,1.1,0,.12.12.23.18.34.08.14.16.28.23.42.08.15.16.31.24.47.03.06.13.11.12.15-.1.62.27,1.09.47,1.62.06.14.18.25.26.39.06.1.13.22.11.31-.02.08-.17.21-.24.19-.49-.08-.63.39-.94.58-.16.1-.27.28-.52.55.4.02.7.07.99.02.09-.02.13-.3.21-.45.06-.13.15-.24.23-.36.11.08.21.18.33.23.51.23.25.99.82,1.2.08.03.03.35.07.54.04.19.11.37.19.55.05.13.13.25.2.37-.14.07-.28.17-.43.19-.5.06-.59.28-.26.76.07-.08.11-.19.19-.22.23-.07.47-.16.7-.15.1,0,.22.27.24.42.05.35-.06.73.37.93.05.03.03.2.07.29.07.17.17.33.25.49.01.03.08.04.08.05-.09.68.43,1.19.48,1.82,0,.1-.11.23-.19.32-.21.24-.44.47-.64.72-.21.26-.72.27-.93,0-.08-.1-.16-.24-.26-.27-.81-.24-.97-.43-1.02-1.25,0-.13-.02-.29-.1-.38-.54-.61-.54-.78,0-1.13-.3-.34-.61-.69-.91-1.05-.13-.16-.21-.35-.31-.53-.06-.11-.11-.23-.19-.34-.06-.08-.21-.16-.2-.21.18-.65-.4-1.09-.47-1.67-.01-.09-.09-.17-.13-.26-.09-.22-.22-.43-.26-.65-.05-.28.09-.63-.35-.75-.07-.02-.09-.2-.14-.31-.09-.17-.19-.33-.27-.5-.06-.13-.13-.27-.15-.41-.05-.35.09-.71-.33-1-.22-.16-.01-.4.27-.42.33-.02.66.02.98-.03.15-.03.27-.22.4-.33-.13-.11-.27-.33-.39-.32-.46.02-.98-.22-1.35.33-.12.18-.45,0-.39-.25.18-.67-.32-1.16-.54-1.65-.18-.41-.27-.78-.33-1.19-.01-.1-.14-.17-.2-.27-.09-.13-.18-.26-.26-.4-.1-.17-.2-.35-.3-.53-.03-.06-.11-.12-.1-.17.13-.61-.33-1.05-.46-1.59-.03-.11-.11-.2-.18-.29-.06-.08-.21-.16-.2-.21.18-.65-.4-1.09-.46-1.67,0-.08-.04-.2-.1-.22-.41-.18-.29-.54-.3-.85-.01-.24.03-.48-.3-.57-.08-.02-.12-.22-.18-.33-.09-.17-.18-.33-.27-.5-.03-.06-.12-.11-.12-.16.11-.62-.29-1.09-.45-1.63-.09-.31-.55-.75-.89-.75-1.53,0-3.05,0-4.58,0-.12,0-.31,0-.34.06-.24.51-.69.35-1.08.35-1.18.01-2.37,0-3.55.01-.46,0-.79-.06-.72-.62,0-.04-.03-.1-.06-.14-.02-.02-.06-.03-.11-.05-.19.21-.38.43-.6.63-.09.08-.23.12-.34.18-.17.09-.33.18-.5.25-.15.06-.31.15-.46.15-.86.01-1.72.02-2.57,0-.17,0-.33-.2-.5-.23-.23-.05-.48-.06-.71-.02-.21.04-.39.23-.6.25-.46.04-.93.01-1.39.01-.27,0-.54-.04-.69.3-.05.1-.34.12-.51.12-1.89,0-3.78,0-5.66,0-.28,0-.58-.07-.71.33-.03.09-.33.14-.5.14-.75.02-1.51-.01-2.26.02-.21,0-.41.16-.61.25-.11.05-.21.12-.32.14-.52.09-.75.42-.93.9-.12.3-.44.53-.67.79-.06.07-.18.15-.18.22.06.57-.38.81-.7,1.13-.08.08-.1.2-.15.3-.09.18-.19.36-.29.54-.04.07-.12.15-.11.22.08.41-.19.62-.45.84-.28.22-.52.42-.52.85,0,.18-.26.43-.46.54-.28.15-.27.37-.35.61-.09.28-.35.5-.54.74-.05.06-.17.09-.2.16-.18.41-.3.86-.52,1.25-.17.3-.45.53-.67.8-.08.1-.13.22-.2.33-.17.29-.3.62-.53.85-.21.2-.44.05-.44-.24,0-.37-.23-.4-.5-.55-.47-.27-.93-.39-1.45-.43-.06,0-.17-.18-.16-.27,0-.08.13-.2.22-.21.18-.04.38,0,.56-.02.15-.01.3-.05.37-.07-.1-.29-.17-.51-.25-.72.21.05.43.1.7.16,0-.02.06-.13.06-.23,0-.32.14-.45.46-.48.13-.01.25-.2.37-.31-.13-.12-.24-.26-.38-.37-.12-.09-.28-.15-.41-.22.09-.13.18-.25.26-.38.04-.07.11-.15.1-.22-.05-.56.39-.77.71-1.07.08-.07.21-.19.19-.26-.1-.49.42-.61.56-.95.07-.18.18-.35.3-.51.19-.28.4-.55.6-.83.08-.12.16-.24.23-.36.1-.18.2-.36.3-.53.03-.06.11-.12.1-.17-.07-.59.45-.77.74-1.11.06-.07.17-.16.17-.23-.02-.34.16-.53.39-.75.24-.23.59-.47.5-.92-.01-.06.21-.23.33-.23.35-.01.49-.17.49-.51,0-.09.05-.24.12-.27.41-.18.82-.34,1.24-.5.08-.03.2,0,.24-.05.61-.72,1.41-.23,2.11-.33.08-.01.24.27.28.44.06.22.04.46.05.8.59-.56,1.08-1.05,1.59-1.52.1-.09.26-.16.39-.16,1.6-.01,3.19-.01,4.79,0,.13,0,.38.12.37.16-.07.55.41.71.7,1.06.19-.49.36-.95.55-1.41.05-.11.14-.23.25-.27.07-.02.2.08.28.16.06.07.09.17.16.34.34-.78.97-.53,1.5-.54,1.36-.02,2.71,0,4.07-.02.22,0,.43-.18.66-.25.2-.07.42-.14.63-.14,1.84-.01,3.67,0,5.51,0,.29,0,.63.1.79-.31.02-.05.29-.06.3-.03.15.37.48.31.77.37.14.03.26.19.38.3.03-.02.08-.03.08-.05-.01-.66.38-.75.93-.72.72.04,1.44,0,2.16.01.33,0,.47-.13.45-.46-.02-.24,0-.48,0-.72,0-.1,0-.27-.05-.29-.72-.33-.35-.98-.43-1.49-.05-.32.08-.66-.32-.9-.13-.08-.09-.47-.11-.72-.02-.37.05-.73-.34-1.01-.13-.1-.06-.48-.08-.74-.02-.34.1-.71-.33-.94-.1-.06-.08-.38-.09-.58-.01-.34.02-.69-.02-1.03-.02-.16-.12-.33-.23-.45-.21-.22-.25-.7-.04-.92.34-.34.4-1.15.05-1.73-.05.28-.06.47-.13.63-.05.12-.16.21-.25.31-.07-.1-.19-.19-.21-.3-.03-.27-.01-.55-.01-.82,0-.26.03-.49-.31-.63-.11-.05-.15-.35-.17-.54-.07-.44.04-.86-.32-1.32-.25-.31-.06-.98-.02-1.49,0-.06.32-.13.5-.14.37-.02.75,0,1.12,0,0-.06.01-.11.02-.17-.13-.14-.35-.26-.36-.41-.01-.15.18-.32.3-.51-.26-.11-.46-.17-.73.15-.23.27-.45.73-.95.58-.15-.05-.34-.21-.37-.36-.06-.26-.02-.55-.03-.82,0-.12,0-.3-.05-.34-.54-.32-.33-.84-.36-1.29-.02-.26.02-.51-.3-.64-.09-.04-.1-.27-.12-.41-.08-.48.2-1.03-.36-1.44-.15-.11-.04-.59-.06-.89-.03-.42.15-.87-.38-1.17-.14-.08-.08-.51-.1-.78-.02-.33.04-.64-.31-.91-.17-.13-.1-.57-.12-.88-.02-.46.35-.32.6-.43.26-.11.46-.38.55-.48-.17-.17-.34-.34-.51-.52,0-.01-.07.11-.07.24,0,.39-.21.45-.53.45-.34,0-.46-.16-.45-.47,0-.33,0-.65,0-.98,0-.29.08-.6-.3-.8-.11-.06-.09-.4-.11-.62-.05-.38.17-.84-.34-1.1-.03-.01.13-.38.22-.66-.42-.13-.29-.58-.32-.98,0-.13-.1-.28-.2-.38-.27-.28-.29-.73,0-.96.32-.27.31-.51,0-.79-.11-.1-.19-.28-.2-.42-.01-1.46-.06-2.92.02-4.37.02-.37.44-.72.68-1.08Zm14.05.48c.17.2.34.4.44.52.3-.15.58-.25.81-.4.12-.07.24-.25.23-.36,0-.11-.18-.26-.3-.3-.52-.15-.88.12-1.19.55Zm-6.9,41.13c-.01.08-.11.27-.05.35.31.4.65.77.99,1.15.05-.01.09-.02.14-.04.01-.26.06-.52.02-.77-.02-.13-.19-.27-.32-.35-.21-.12-.44-.2-.77-.34Zm11.68,24.88c.12.32.19.56.3.77.06.11.19.24.3.26.13.02.33-.04.39-.13.07-.1.06-.32,0-.43-.18-.29-.41-.54-.62-.82-.1.09-.26.25-.37.35Z"/>
  <path d="m23.29,57.71c-.11-.39-.2-.66-.25-.94-.01-.08.08-.24.16-.27.08-.03.22.04.32.08.2.09.43.16.58.31.48.45,1.26.43,1.61,1.13.14.28.6.4.9.6.24.16.52.29.71.5.33.37.59.82,1.18.8.05,0,.11.07.16.11.36.28.52.85,1.13.79.05,0,.17.21.17.32-.01.36.15.48.5.48.12,0,.24.14.35.22.08.05.16.16.24.16.79,0,1.02.72,1.5,1.12.07.06.13.2.2.2.76,0,1.02.71,1.53,1.05.09.06.17.2.26.2.72.02.93.7,1.38,1.06.33.27.62.54,1.02.75.54.27,1.21.39,1.57.98.21.35.45.68.69,1.04.02-.04.05-.19.13-.21.14-.05.38-.1.46-.02.34.33.63.7.95,1.05.05.06.15.11.22.1.34-.04.54.14.77.38.24.25.48.54.92.54.18,0,.36.27.52.44.37.38.68.83,1.1,1.15.27.21.32.41.32.69,0,.26,0,.52,0,.77,0,.11-.05.32-.09.33-.46.04-.78.31-1.15.55-.11.07-.42-.14-.63-.25-.08-.04-.15-.18-.22-.18-.74.01-.95-.7-1.44-1.03-.4-.27-1.07-.3-1.06-1.02,0-.02-.1-.05-.14-.04-.96.19-1.24-.7-1.81-1.13-.09-.07-.2-.2-.27-.18-.47.11-.67-.27-.91-.52-.09-.09.04-.41.09-.71-.03,0-.19-.03-.34-.04-.31-.02-.68.08-.78-.38,0-.04-.12-.1-.17-.09-.39.07-.62-.16-.85-.42-.23-.26-.49-.44-.89-.49-.22-.02-.4-.37-.6-.56-.09-.09-.2-.21-.31-.21-.52,0-.74-.39-1.04-.7-.26-.27-.44-.64-.93-.67-.25-.02-.5-.34-.7-.56-.26-.29-.46-.62-.69-.94-.34.32-.75.24-1.01-.28-.04-.09-.03-.26.03-.33.21-.24.46-.46.82-.81-.32.02-.54-.04-.67.04-.83.53-1.33.48-1.97-.26-.07-.08-.17-.21-.26-.21-.73-.03-.94-.72-1.41-1.09-.09-.07-.15-.24-.22-.23-.81.06-1.01-.72-1.53-1.06-.08-.05-.16-.2-.21-.19-.49.11-.64-.38-.97-.54-.06-.03-.08-.32-.02-.39.37-.38.77-.73,1.04-.97Z"/>
  <path d="m23.27,113.82c.19-.3.38-.63.61-.93.08-.11.25-.14.36-.22.32-.21.63-.42.94-.64.08-.05.12-.21.18-.21.76-.04,1.03-.72,1.51-1.13.07-.06.17-.16.24-.16.56.05.81-.35,1.09-.72.04-.05.11-.11.16-.11.39.05.59-.18.81-.46.21-.26.44-.53.88-.5.18.01.4-.25.56-.43.34-.37.6-.83,1.21-.84.13,0,.24-.26.38-.36.43-.31.87-.58,1.3-.89.2-.14.36-.35.56-.49.36-.26.72-.54,1.11-.72.11-.05.36.18.51.25.33-.16.67-.31.97-.45-.11-.19-.35-.47-.3-.54.17-.25.43-.44.69-.62.31-.21.69-.32.95-.57.33-.31.53-.75,1.09-.74.12,0,.3-.22.37-.37.27-.58,1.01-.4,1.35-.88.4-.56,1.22-.58,1.61-1.22.14-.22,1.05-.04,1.26.16.1.09.26.18.39.17.43-.02.54.2.52.57-.01.19-.01.38,0,.57.03.43-.03.77-.59.7-.08,0-.19.01-.24.07-.45.48-.89.96-1.34,1.45-.08.08-.18.2-.26.2-.52,0-.77.39-1.07.7-.2.2-.25.2-.64-.24-.04.03-.12.06-.12.08.07.77-.66,1.03-.99,1.54-.03.05-.12.08-.18.07-.32,0-.53.1-.76.37-.21.24-.45.56-.91.52-.18-.01-.46.29-.56.51-.14.3-.34.3-.6.37-.24.06-.46.24-.64.42-.37.37-.64.78-1.25.89-.46.08-.88.46-1.28.77-.3.24-.5.61-.81.85-.41.33-.92.54-1.31.89-.49.45-1.26.48-1.6,1.19-.13.26-.62.32-.92.5-.18.11-.3.31-.47.43-.43.3-.9.54-1.3.88-.26.23-.48.38-.85.44-.24.04-.43.4-.65.62-.08.08-.18.21-.26.21-.5-.05-.7.36-.97.63-.34.32-.71.35-1.02.02-.08-.09-.23-.18-.33-.17-.49.03-.57-.25-.55-.65.02-.29.06-.6,0-.87-.14-.58.35-.79.62-1.12.03-.04.36.15.54.23Zm11.67-6.72c.44,0,1-.57.93-.86-.03-.12-.19-.27-.31-.29-.34-.07-.88.46-.84.8.02.15.17.28.21.36Z"/>
  <path d="m95.18,161.15c.3,0,.5.1.48.44,0,.07-.01.17.03.2.73.61.26,1.44.41,2.15.05.24.19.46.28.69.04.11.11.22.11.33.01.5.02,1,0,1.49,0,.13-.16.26-.24.38-.1-.13-.27-.25-.28-.39-.03-.29-.07-.49-.44-.48-.37.01-.32.25-.36.49-.02.15-.16.27-.22.42-.07.16-.17.34-.14.49.02.09.26.18.4.19.39.03.79.03,1.18,0,.41-.02.56.16.53.55-.02.27.03.55-.01.82-.03.18-.16.34-.23.52-.06.16-.15.34-.13.5,0,.07.23.13.36.19.01,0,.03,0,.05,0,1.04-.22,1.61.43,2.13,1.16.02.03.03.07.06.08.48.17.96.47,1.44.48,3.83.04,7.65.02,11.48.02.29,0,.59-.07.8.3.07.12.44.1.67.1.33,0,.57.04.57.46,0,.36-.11.56-.5.53-.41-.04-.42.23-.42.53,0,.78-.01.78-.8.78-1.7,0-3.4,0-5.1,0-.4,0-.68-.06-.65-.55,0-.1-.08-.3-.13-.3-.61-.02-1.22-.01-1.83-.01,0,.07-.01.13-.02.2.13.04.26.06.38.11.15.07.28.17.42.26-.15.1-.29.26-.45.28-.32.05-.65.02-.98.02-1.34,0-2.68.01-4.02-.01-.23,0-.45-.2-.67-.31-.06-.03-.09-.1-.15-.13-.43-.16-.91-.26-1.3-.49-.69-.4-1.44-.74-1.94-1.42-.32-.43-.77-.75-1.09-1.17-.1-.13.04-.44.07-.67.04,0,.09.01.13.02-.02-.03-.04-.07-.06-.08-.77-.2-.76-.2-.78-1.01-.01-.46.2-1-.36-1.34-.07-.05-.06-.26-.06-.39,0-.5.02-1-.01-1.49-.01-.19-.16-.37-.23-.56-.06-.15-.15-.31-.16-.46-.02-.7,0-1.41,0-2.11,0-.31.05-.54.44-.54.35,0,.56.09.55.49,0,.1.06.21.1.31.05,0,.11,0,.16,0,.03-.19.07-.38.08-.58.03-.43-.15-.93.39-1.21.03-.02,0-.13.01-.2.03-.03.06-.06.09-.09Z"/>
  <path d="m20.59,84.63c.4-.11.69-.26.99-.27,1.32-.03,2.64-.02,3.96,0,.22,0,.46.14.65.28.25.17.86.17,1.08-.05.21-.21,1.08-.38,1.27-.18.16.17.2.46.3.7.05-.01.1-.02.1-.03q.22-.73,1.02-.73c2.28,0,4.56,0,6.84,0,1.07,0,1.32.25,1.32,1.35,0,.12,0,.24,0,.36-.01.53-.48,1-1,1-2.21,0-4.43.01-6.64-.01-.27,0-.54-.2-.85-.32-.1.32-.45.34-.84.34-1.48-.01-2.95,0-4.43,0-.43,0-.91.13-1.11-.66-.19.78-.67.66-1.1.66-2.2,0-4.39,0-6.59,0-.71,0-1.17-.46-1.18-1.15,0-.19,0-.38,0-.57.01-.5.47-.98.97-.99.62-.01,1.24,0,1.85,0,.29,0,.54,0,.81.28.17.18.77.16,1.02,0,.57-.37,1.19-.4,1.53,0Zm-2.97,1.75c.34.24,1.64.2,1.9-.11-.44-.27-1.14.19-1.31-.33-.19.14-.39.3-.59.44Z"/>
</svg>