<?xml version="1.0" encoding="UTF-8"?>
<svg id="Layer_1" data-name="Layer 1" xmlns="http://www.w3.org/2000/svg" viewBox="0 0 180 180">
  <path d="m116.61,161.7c.11.19.29.41.25.46-.14.18-.35.32-.54.46-.13.09-.28.16-.43.23-.08.04-.17.09-.24.07-.06-.02-.11-.13-.12-.2-.02-.11.01-.24-.01-.35-.02-.12-.09-.23-.13-.35-.04.11-.09.21-.12.32-.02.07-.02.15-.03.26-.15,0-.29,0-.42.03-.06.01-.11.08-.16.12.05.04.1.11.16.12.09.02.21-.02.27.02.08.06.11.18.17.27-.25.13-.33.53-.72.46-.15-.03-.32.01-.59.03.14.11.21.14.24.2.05.08.11.17.11.26,0,.05-.13.14-.19.14-.43-.05-.57.29-.8.53-.06.06-.3.07-.31.05-.13-.35-.42-.22-.66-.26-.13-.02-.24-.11-.37-.17.12-.08.24-.18.37-.22.17-.05.36-.04.54-.15-.36-.1-.72-.19-1.04-.27-.08.1-.2.26-.31.41-.01-.05-.03-.1-.04-.15.07.22.1.46.22.65.13.19.34.33.51.5.06.06.16.19.13.23-.05.08-.17.18-.25.17-.5-.06-.83.15-1.08.56-.03.05-.13.07-.2.08-.18.01-.37-.02-.43.23-.01.05-.15.08-.23.09-.19.02-.4-.04-.45.24,0,.04-.16.07-.24.07-.17,0-.35-.02-.37.23,0,.02-.02.06-.04.06-.32.13-.65.26-.97.4-.11.04-.2.12-.3.17-.08.05-.17.09-.25.13-.13.07-.28.12-.39.22-.29.26-.36-.01-.49-.22-.18.2-.32.4-.51.54-.12.09-.31.07-.47.1-.19.03-.34,0-.52.2-.23.25-.63.35-.98.46-.18.06-.39,0-.58.01-.08,0-.2,0-.22.03-.19.4-.56.27-.88.3-.04,0-.1,0-.11.03-.23.42-.63.25-.97.28-.19.02-.39-.03-.48.22-.02.06-.2.09-.31.1-.34.01-.68,0-1.02,0-.24,0-.52-.1-.66.25-.03.07-.29.05-.44.06-.2.02-.44-.08-.55.24-.02.05-.42-.02-.64-.05-.05,0-.08-.11-.11-.16-.14.1-.27.19-.39.28-.09-.19-.17-.39-.23-.51-.22.07-.45.12-.65.22-.09.05-.18.2-.18.31,0,.26-.1.35-.35.35-.89,0-1.77,0-2.66-.01-.11,0-.23-.11-.33-.18-.06-.04-.09-.1-.14-.15-.04.05-.08.11-.13.16-.06.06-.14.16-.17.15-.08-.03-.12-.14-.19-.18-.07-.04-.21-.08-.24-.05-.29.35-.31.35-.55-.1-.19.52-.61.37-.97.36-.35,0-.8.19-.97-.36-.34.52-1.62.52-2,0-.08.39-.37.38-.66.37-.33,0-.65,0-.98,0-.22,0-.45.04-.53-.26-.01-.05-.17-.08-.27-.09-.19-.01-.39,0-.62,0-.01-.17-.01-.31-.04-.45-.01-.06-.08-.11-.12-.16-.04.05-.1.1-.13.16-.02.04,0,.11-.01.15-.04.1-.09.19-.13.29-.1-.07-.2-.14-.3-.21-.03-.02-.06-.04-.1-.07-.17.2-.33.59-.57.05-.02-.05-.16-.06-.25-.06-.31,0-.63,0-.94,0-.13,0-.25-.08-.37-.12.07-.11.14-.21.21-.32.02-.03.03-.07.11-.23-.25.07-.45.06-.56.16-.27.26-.85.26-1.11,0-.09-.09-.27-.11-.41-.13-.22-.03-.48.07-.59-.25-.02-.05-.19-.06-.29-.07-.3,0-.6.02-.9-.01-.14-.01-.27-.14-.41-.19-.14-.05-.28-.1-.42-.12-.21-.04-.48.08-.56-.27-.01-.05-.22-.07-.35-.08-.26-.02-.54.08-.7-.26-.03-.07-.29-.04-.44-.05-.18-.02-.4.07-.46-.22,0-.04-.15-.09-.23-.09-.2,0-.37,0-.48-.24-.04-.08-.28-.07-.43-.09-.19-.02-.43.07-.51-.23-.01-.05-.16-.05-.24-.08-.14-.06-.27-.14-.41-.21-.1-.05-.21-.08-.31-.13-.1-.05-.2-.12-.3-.18.08-.08.15-.17.23-.26.02-.03.04-.06.04-.06-.23-.06-.45-.11-.66-.16.07-.1.15-.2.22-.31-.03.14-.06.27-.08.41-.04.22-.29.27-.32.16-.12-.4-.46-.2-.69-.3-.04-.19-.08-.38-.14-.66-.21.31-.39.62-.61.12-.02-.04-.15-.03-.21-.06-.13-.07-.26-.14-.39-.22-.05-.03-.12-.09-.16-.08-.37.1-.49-.27-.73-.41-.04-.02-.04-.25.02-.31.14-.14.33-.24.49-.36.04-.03.08-.11.07-.12-.04-.05-.1-.11-.16-.12-.39-.11-.51.27-.7.45-.2.19-.25.23-.45,0-.18-.2-.36-.36-.32-.66,0-.03-.08-.1-.09-.1-.06.03-.12.07-.16.13-.13.24-.24.19-.4.02-.22-.22-.39-.48-.77-.53-.22-.03-.52-.28-.52-.64,0-.1-.06-.2-.1-.3-.06.07-.11.15-.18.2-.07.05-.17.09-.23.07-.06-.02-.14-.13-.14-.19.01-.32-.12-.45-.44-.43-.07,0-.17-.13-.21-.22-.04-.11-.03-.24-.06-.46-.12.14-.16.22-.22.25-.1.04-.27.1-.32.05-.34-.31-.66-.64-.98-.97-.17-.17-.06-.54.24-.81-.21-.12-.38-.19-.54.08-.12.21-.24.17-.41-.01-.19-.21-.35-.47-.72-.51-.28-.03-.57-.28-.58-.64,0-.25-.09-.35-.34-.34-.09,0-.19-.08-.28-.13.05-.09.12-.18.16-.27.05-.13.13-.27.12-.4,0-.05-.21-.15-.31-.13-.49.09-.71-.26-.98-.55-.25-.27-.51-.52-.77-.77-.23-.23-.48-.39-.55-.78-.04-.25-.33-.47-.32-.79,0-.02-.21-.04-.31-.07-.11-.04-.3-.12-.3-.15.05-.32-.18-.48-.35-.67-.15-.16-.32-.31-.47-.46-.05-.05-.14-.11-.14-.16.04-.44-.25-.65-.57-.85-.06-.04-.1-.16-.08-.23.02-.06.11-.13.19-.15.14-.04.28-.04.32-.02-.13-.14-.27-.27-.4-.41.03-.04.05-.08.08-.12-.04.04-.08.08-.13.12-.08.06-.17.12-.25.18-.06-.1-.16-.2-.17-.3-.03-.22,0-.44-.01-.66,0-.11-.03-.21-.06-.43-.1.17-.12.26-.17.29-.08.05-.18.1-.26.09-.05,0-.12-.13-.13-.2-.02-.19.02-.4-.25-.46-.04,0-.05-.14-.08-.2-.07-.15-.15-.29-.22-.43-.04-.09-.08-.19-.09-.28-.01-.17.02-.35-.23-.37-.04,0-.09-.07-.1-.1-.02-.26-.11-.46-.31-.65-.14-.13-.1-.41-.29-.62-.22-.24-.27-.64-.4-.98-.02-.06-.02-.16-.06-.18-.52-.23-.19-.39.05-.56-.23-.32-.69-.48-.62-.98-.48-.19-.19-.74-.4-.96-.3-.31-.25-.61-.29-.94,0-.06-.04-.15-.07-.17-.26-.07-.23-.28-.23-.47,0-.23.05-.47-.24-.6-.07-.03-.06-.23-.08-.36-.06-.34.17-.74-.28-1.01-.1-.06-.02-.42-.04-.64-.02-.22.13-.52-.25-.59.04-.12.05-.29.13-.35.11-.07.28-.06.5-.09-.36-.33-.66-.59-.94-.87-.07-.07-.09-.21-.09-.32-.01-.34,0-.68,0-1.02,0-.24.06-.5-.24-.64-.03-.01.07-.29.12-.51-.33-.15-.2-.54-.21-.89,0-.2.04-.41-.22-.53-.06-.03-.09-.21-.09-.32,0-.47,0-.94,0-1.41,0-.21.1-.48-.24-.57-.05-.01-.07-.18-.07-.28,0-.43.01-.86,0-1.29-.01-.25.15-.59-.27-.71-.04-.01-.04-.17-.04-.26,0-.33,0-.65,0-.98,0-.17,0-.31.2-.44.13-.09.1-.44.09-.68,0-.06-.2-.16-.32-.17-.22-.02-.3-.11-.29-.32,0-.38,0-.76,0-1.13,0-.22.02-.39-.24-.57-.31-.21.08-.32.3-.46-.52-.17-.4-.56-.41-.9,0-.23.06-.47-.24-.59-.06-.03-.08-.21-.08-.32,0-.38-.03-.76,0-1.13.02-.23.12-.45.18-.67-.11-.08-.39-.17-.47-.34-.07-.15.09-.4.17-.67-.31-.15-.19-.54-.2-.89,0-.21.03-.41-.23-.52-.07-.03-.08-.23-.09-.35,0-.61,0-1.22-.01-1.84,0-.13-.13-.26-.2-.39-.05-.1-.1-.2-.11-.3-.01-.35,0-.7-.01-1.05-.01-.23.11-.5-.25-.64-.19-.07-.03-.6.15-.71-.07-.24-.15-.46-.19-.68-.01-.07.09-.15.13-.24.06-.14.14-.28.15-.42,0-.05-.18-.16-.28-.16-.47.02-.36-.31-.37-.56,0-.26-.05-.55.38-.51.09,0,.18-.06.27-.09-.06-.06-.16-.11-.19-.18-.12-.27-.56-.33-.48-.73.01-.05-.05-.14-.11-.19-.31-.29-.28-.77.02-1.11.09-.1.09-.44.03-.48-.46-.24-.22-.41.1-.62-.15-.04-.23-.05-.3-.09-.12-.06-.34-.14-.34-.21,0-.18.06-.39.16-.53.16-.21.16-.37.01-.57-.08-.11-.14-.24-.2-.37-.03-.07-.02-.2-.06-.21-.45-.19-.23-.58-.25-.89,0-.11.17-.23.29-.38-.4-.12-.3-.47-.31-.77,0-.01,0-.03,0-.04-.31-.25-.2-.73-.54-.97-.06-.04-.08-.15-.08-.24-.01-.17,0-.34,0-.51-.01-.28-.04-.56.35-.7-.09-.06-.13-.11-.17-.1-.51.05-.56-.25-.54-.65,0-.26.14-.59-.25-.74-.04-.02-.07-.18-.05-.2.08-.07.19-.13.29-.14.33-.05.45-.19.36-.46-.02-.05-.07-.1-.12-.12-.03-.01-.11.04-.11.07-.06.37-.33.26-.55.24-.07,0-.18-.12-.19-.2-.04-.23-.06-.48.25-.56.01,0,.02-.05.03-.1-.16-.15-.43-.27-.48-.46-.09-.31-.05-.67-.03-1,0-.06.12-.12.18-.19-.09-.03-.18-.07-.27-.09-.09-.02-.18-.02-.29-.03-.08-.32-.17-.63.25-.79-.22-.13-.51-.2-.59-.36-.1-.21-.02-.5-.02-.74.06-.04.08-.06.11-.06.17-.05.33-.11.5-.16-.15-.05-.3-.08-.44-.14-.07-.03-.17-.14-.15-.17.06-.12.15-.23.27-.4-.11-.02-.24-.02-.35-.06-.1-.03-.18-.11-.26-.17.06-.08.13-.16.18-.25.15-.24.55-.32.46-.71-.01-.06-.06-.1-.09-.16-.06.04-.11.07-.17.11-.08.06-.16.11-.24.17-.05-.09-.16-.18-.15-.27.02-.29-.18-.67.28-.83.04-.01.05-.16.06-.25,0-.35,0-.7,0-1.05,0-.24-.09-.51.25-.66.08-.03.04-.31.06-.48.02-.17-.07-.39.21-.42.02,0,.06-.03.06-.04.02-.32.2-.56.34-.83.27-.52.4-1.1.93-1.46.08-.06.07-.25.11-.38.03-.08.08-.18.14-.2.06-.02.14.06.21.11.06.04.12.09.18.14.03-.08.1-.16.09-.24-.08-.49.21-.74.55-1.03.42-.35.75-.8,1.12-1.2.03-.03.09-.08.12-.07.42.05.6-.27.82-.53.02-.02.03-.06.04-.06.49.11.7-.51,1.2-.42.27.05.61.12.77-.26.02-.05.17-.03.25-.06.13-.05.24-.14.37-.19.14-.05.28-.09.42-.12.32-.06.69.15.93-.28.1-.18.55-.01.75.25.46-.43,1.3-.43,1.66.03.27-.55.79-.36,1.18-.3.38.06.73.34,1.12.54.34-.3.53-.24.92.34.34-.34.6-.29.86.22.19.38.5.12.75.17.03,0,.14-.23.16-.36.03-.26-.05-.54.28-.7.06-.03.06-.38-.02-.45-.3-.24-.6-.44-.58-.88-.56-.4-.25-.99-.29-1.49-.05-.62-.02-1.25,0-1.87,0-.3-.15-.66.27-.85.04-.02.04-.17.04-.26,0-.3-.02-.6.01-.9.01-.13.11-.26.18-.39.04-.08.09-.15.12-.22.02-.05-.01-.12.01-.15.27-.32.37-.69.37-1.1,0-.04.24-.07.37-.11.08-.03.16-.06.23-.09-.05-.06-.12-.11-.15-.18-.04-.12-.11-.32-.06-.36.28-.24.59-.43.58-.88,0-.12.19-.28.34-.36.26-.14.36-.55.77-.46.04,0,.17-.18.17-.27,0-.25.09-.37.34-.35.21.02.32-.07.3-.3-.02-.24.06-.38.33-.34.25.03.3-.1.32-.32.01-.11.14-.22.22-.33.06.11.13.21.19.32.05.1.09.21.14.31.04-.11.09-.21.13-.32,0-.02,0-.05,0-.08.04-.19.04-.49.15-.54.24-.11.55-.12.65.31.08-.09.14-.12.14-.16,0-.33.07-.51.47-.54.19-.01.4-.26.54-.45.16-.21.25-.24.37,0,.1.2.16.18.28,0,.11-.17.25-.36.42-.43.1-.04.29.12.46.2.3-.37,1.61-.38,1.94.11.04-.15.09-.25.08-.35-.01-.3.15-.37.41-.37.31,0,.32.19.31.41,0,.09-.01.18,0,.27.02.09.06.19.09.28.06-.06.12-.13.19-.18.27-.17.42-.52.85-.44.33.06.67,0,1.01.01.21,0,.45-.07.54.24.01.04.16.04.24.07.12.06.23.14.36.19.12.05.25.1.38.12.24.03.54-.08.65.26,0,.02.05.04.06.04.47-.11.81.24,1.22.34.19.05.6.46.6.67,0,.21.06.37.31.32.08-.01.14-.07.22-.11-.05-.05-.1-.1-.14-.16-.06-.1-.15-.2-.15-.31-.02-.28,0-.57-.01-.86,0-.19.08-.43-.23-.5-.05-.01-.08-.18-.08-.27-.01-.3,0-.6,0-.9,0-.18.06-.38-.22-.48-.08-.03-.09-.32-.07-.49,0-.07.18-.14.28-.18.1-.04.21-.05.23-.05-.09-.24-.15-.43-.23-.62-.03-.08-.1-.14-.14-.21-.06-.1-.14-.2-.16-.31-.03-.16.04-.35-.23-.38-.02,0-.03-.24,0-.35.01-.06.14-.08.13-.08-.11-.25-.19-.46-.28-.67-.02-.04-.02-.09-.05-.1-.44-.22-.26-.4.09-.58-.28-.21-.59-.42-.13-.6-.09-.25-.1-.54-.25-.67-.48-.44-.21-.99-.29-1.48-.01-.09-.02-.23-.07-.25-.34-.11-.26-.39-.24-.62.02-.21.12-.41.24-.6-.04-.2-.65-.41.09-.64-.22-.2-.41-.34-.56-.52-.08-.09-.07-.26-.1-.39-.07-.32.17-.7-.25-.98-.12-.08-.07-.47-.05-.71.02-.2-.16-.5.22-.57.03,0,.08-.09.07-.12-.02-.05-.09-.12-.12-.12-.64.09-.52-.36-.53-.72,0-.03,0-.05,0-.08q0-.58.57-.59c.09,0,.19,0,.27-.01.05-.01.1-.07.12-.12.01-.03-.04-.08-.07-.12-.07-.11-.21-.22-.21-.33,0-.27-.12-.34-.36-.32-.12,0-.23,0-.35,0-.22,0-.31-.1-.3-.31,0-.21.02-.42,0-.62-.02-.14-.13-.26-.2-.4-.04-.09-.1-.18-.1-.28-.01-.27,0-.55,0-.82,0-.22.08-.45-.24-.58-.21-.08-.07-.56.21-.76-.46-.49-.38-.8.35-1.3-.14-.15-.28-.29-.44-.46-.05.07-.08.16-.14.21-.06.05-.16.1-.23.08-.06-.02-.13-.12-.13-.19-.02-.22.02-.45-.02-.66-.03-.15-.11-.32-.21-.43-.18-.21-.11-.56.24-.84-.52-.22-.28-.66-.33-1.03-.02-.18.06-.4-.24-.45-.06-.01-.09-.24-.12-.37-.06-.33.16-.74-.28-.97-.01,0,.12-.28.2-.5-.12-.12-.55-.33.08-.53-.15-.17-.24-.38-.4-.45-.29-.14-.25-.36-.25-.59,0-.34.02-.68-.01-1.01-.01-.15-.14-.29-.21-.44-.04-.1-.1-.21-.1-.31-.01-.29,0-.57,0-.86,0-.19.05-.4-.23-.47-.05-.01-.08-.18-.08-.27-.01-.3,0-.6,0-.9,0-.19.06-.41-.23-.45-.03,0-.06-.06-.06-.09,0-.48,0-.96,0-1.44,0-.04.09-.08.12-.13.07-.12.13-.24.17-.37.01-.05-.06-.13-.09-.19-.05.04-.11.08-.16.12-.08.06-.17.11-.25.17-.05-.09-.16-.2-.15-.27.05-.21.16-.4.21-.53-.08-.24-.17-.45-.22-.68-.04-.19.05-.43-.25-.5-.03,0-.01-.19-.02-.3.11,0,.29,0,.3.03.15.47.52.19.79.25.04,0,.09-.07.14-.11-.05-.05-.1-.14-.14-.14-.56.04-.69-.55-1.1-.74-.05-.02-.04-.17-.05-.25-.01-.09,0-.23-.04-.26-.51-.31-.2-.79-.26-1.19-.02-.11.16-.25.25-.38,0-.01-.02-.05-.04-.05-.59.01-.6-.36-.56-.8.02-.19,0-.39,0-.59,0-.09-.03-.23-.07-.24-.29-.08-.25-.3-.24-.5,0-.28-.09-.6.33-.7-.43-.4-.43-.41-.04-.69,0-.02-.01-.06-.03-.07q-.57-.15-.57-.77c0-.92.01-1.85,0-2.77,0-.35.05-.56.46-.51.05,0,.11-.05.19-.09-.07-.06-.1-.1-.14-.12-.16-.07-.47-.15-.47-.2.03-.32-.21-.66.19-.96.18-.14.31-.3.56-.29.04,0,.1-.03.13-.07.13-.16.02-1.02-.14-1.14-.19-.14-.19-.55-.02-.71.07-.06.2-.15.19-.21-.09-.38.25-.53.42-.71.15-.15.18-.29.26-.46.1-.22.32-.39.46-.59.24-.35.58-.35.94-.33.05,0,.11-.04.18-.15-.11-.03-.22-.03-.32-.08-.1-.05-.18-.13-.27-.2.09-.07.18-.19.27-.19.27,0,.32-.11.38-.36.05-.23.27-.42.43-.63.07-.09.16-.19.26-.23.09-.04.29-.03.3,0,.14.34.37.15.56.18.01-.03.02-.06.04-.09-.06-.04-.14-.07-.19-.13-.05-.06-.1-.16-.09-.23.01-.06.13-.16.18-.15.38.08.47-.32.74-.43.14-.06.27-.14.4-.21.1-.06.2-.14.3-.21.02-.01.02-.06.03-.07.35-.14.69-.3,1.05-.4.21-.07.42.02.63-.24.19-.23.57-.12.75.23.31-.31.52-.76,1.04-.63.19.05.38.12.63.21.27-.45.81-.15,1.27-.21.27-.03.55-.02.82,0,.11,0,.22.08.34.13-.07.1-.14.21-.21.31-.02.03-.04.06-.06.09.39.16.44.13.51-.24.02-.1.11-.26.19-.27.17-.02.46,0,.49.07.11.29.32.23.51.22.35-.03.59.05.55.47,0,.04.04.09.08.17.06-.07.09-.13.13-.16.09-.06.19-.13.28-.13.05,0,.09.15.13.24.06.13.09.35.18.39.16.07.4.08.43-.22,0-.01.31-.02.33.01.07.23.24.23.43.24.23,0,.55.4.59.66.01.09.07.17.11.26.06-.06.12-.11.17-.17.13-.17.23-.17.35.01.05.07.15.18.21.17.39-.09.55.24.75.44.18.18.48.36.38.72-.01.04.06.14.1.14.49-.03.7.34.96.64.11.12.16.28.26.41.14.21.3.41.45.61.03.04.12.03.13.07.13.32.24.64.37.96.04.09.12.17.18.26.05.08.13.18.11.25-.02.07-.14.13-.22.15-.11.03-.24-.02-.35.02-.12.04-.29.1-.33.2-.04.09.07.34.11.34.16,0,.31-.09.46-.13.19-.05.39-.12.58-.12.05,0,.11.25.13.4.03.22-.12.28-.32.29-.11,0-.21.04-.41.07.13.09.18.15.22.15.34-.02.41.14.57.44.19.36.14.84.34,1.06.35.38.19.76.26,1.14.02.11.05.28.11.3.33.11.21.37.18.55-.01.08-.22.16-.35.19-.39.08-.25.3-.18.59.09-.13.12-.21.18-.26.17-.13.33-.13.36.11.03.21,0,.41.26.51.05.02.06.18.07.28,0,.3-.02.6.01.9.01.14.13.27.19.4.04.09.1.18.1.27.01.25-.01.5.01.74.01.1.11.19.18.29.05.07.15.13.15.19-.01.17-.06.34-.1.51-.14-.07-.28-.15-.41-.22-.09.13-.2.3-.31.47-.04-.03-.08-.05-.12-.08.06.03.13.09.19.08.31-.02.47.09.42.43-.03.26.15.27.33.25.28-.03.37.1.36.36-.01.36,0,.73,0,1.09,0,.21-.07.44.23.56.07.03.07.28.08.43.02.2-.04.41.23.52.07.03.09.23.09.35,0,.59.05,1.18-.01,1.76-.04.4.24.56.43.76.3.33.31.62,0,.81.08.24.14.46.21.67,0,.02,0,.07.01.07.3.18.53.36.01.56,0,0,.02.15.05.16.3.03.28.25.29.46,0,.04,0,.1.03.11.45.23.28.65.28,1,0,.21-.11.42-.19.7.02,0,.13.01.24.05.09.03.22.07.24.14.02.06-.04.19-.11.25-.24.23-.22.39.03.63.25.24.54.48.44.92-.05.22-.01.47,0,.7,0,.09,0,.23.05.25.47.2.25.61.23.91-.01.18-.27.36-.46.48-.05.03-.24-.14-.38-.23-.27.24-.44.66-.94.6-.04,0-.09.07-.13.11.05.05.11.14.15.14.27-.05.63.2.81-.24.03-.08.3-.08.46-.1.2-.02.43.06.51-.24.01-.04.15-.09.19-.06.06.04.12.13.13.21.01.35,0,.7.02,1.05,0,.12.12.24.19.36.06.11.14.21.15.33.02.23,0,.47.01.7,0,.24-.07.49.25.66.22.12.04.87-.26,1.14.1.06.24.1.27.17.09.24.68.43.1.77-.04.02.02.31.1.42.11.16.34.25.42.41.05.11-.07.3-.12.46-.04,0-.08,0-.12,0,.1.11.27.21.28.33.01.1-.15.23-.25.37.14.12.32.27.48.43.05.05.1.12.11.19,0,.43.02.86,0,1.29,0,.08-.14.2-.24.23-.16.04-.34,0-.5.02-.17.03-.48.09-.49.16-.02.26-.22.6.19.77.08.04.12.17.27.26.01-.18.05-.36.04-.54-.03-.35.12-.48.45-.44.12.01.24-.01.35.01.09.02.22.09.22.15,0,.09-.08.18-.14.26-.04.06-.09.11-.13.16.06.04.12.08.18.1.06.02.14-.01.19.01.09.04.17.11.25.17-.08.06-.15.13-.23.19-.04.02-.11,0-.15,0-.08.03-.16.08-.24.13.08.05.16.14.24.13.38-.04.44.17.42.47-.01.22-.02.41.23.56.25.16.1.88-.21,1.13.17.16.35.31.52.46.17.16.13.86-.04,1-.06.05-.1.12-.14.18.07.03.13.09.2.09.38-.04.43.17.41.48-.01.21,0,.42,0,.62,0,.08,0,.17-.05.22-.06.09-.15.16-.23.24.13.03.26.06.4.09.05.01.1.02.21.04,0,.21,0,.43,0,.65.01.24-.1.53.25.66.05.02.06.19.06.29,0,.3-.02.6.01.9.01.13.12.27.21.38.15.17.2.3-.05.41-.06.03-.11.09-.16.13.05.04.1.09.16.13.03.02.09.02.1.04.14.33.32.65.4,1,.07.28.01.6.02.9,0,.09,0,.23.05.26.46.22.21.41.06.51.08.31.15.54.2.78.03.18-.04.39.23.47.06.02.07.2.09.31.06.35-.18.78.29,1.03.04.02.03.17.03.26,0,.29-.02.58.01.86.02.15.14.29.2.44.04.1.09.21.1.31.01.32,0,.65,0,.98.01.26-.11.55.27.72.21.09.03.81-.12.99-.1.11-.14.39-.07.52.09.17.31.26.48.38.03.02.09.05.08.07-.02.47.52.78.37,1.31-.06.21-.07.47.23.62.21.11.07.54-.15.73.09.25.1.53.25.66.53.46.2,1.05.31,1.57.02.08.09.16.15.24.05.08.16.19.14.22-.05.08-.15.15-.24.18-.11.04-.23.05-.4.08.45.37.45.4-.05.76.29.02.48.02.67.05.13.02.24.09.37.14-.08.09-.17.17-.22.27-.03.06-.01.17.02.24.06.12.16.22.22.34.05.09.04.25.1.27.27.1.23.31.23.52q0,.52.54.52c.08,0,.16,0,.23,0,.38,0,.72-.31.76-.69,0-.06,0-.17.03-.19.51-.3.23-.79.29-1.19.04-.23-.04-.46.24-.65.12-.08.06-.43.08-.66.02-.22-.07-.45.24-.59.09-.04.06-.36.09-.54.05-.27-.17-.65.3-.78.04-.01.05-.16.06-.25,0-.29,0-.57,0-.86,0-.2-.05-.41.23-.52.07-.03.06-.25.08-.39.06-.33-.19-.74.28-.96.03-.01.02-.1.04-.14.07-.18.14-.36.22-.58-.04-.06-.21-.31-.19-.33.61-.52.16-1.21.3-1.8.02-.07.01-.2.05-.22.37-.15.24-.47.26-.73.02-.27-.09-.57.26-.75.08-.04.05-.31.07-.48.02-.17-.03-.35.24-.41.18-.04.16-.17-.03-.25-.29-.12-.27-.26-.02-.42.08-.05.15-.17.16-.26.02-.22-.01-.45.02-.66.02-.12.12-.24.19-.35.03-.05.11-.1.1-.15-.08-.5.35-.66.63-.95-.52-.37-.42-1.02-.23-1.34.2-.35.2-.67.29-1.01.03-.1.17-.16.29-.26-.06-.05-.13-.09-.16-.14-.05-.1-.12-.29-.11-.3.44-.24.21-.65.26-.98.04-.28-.13-.63.28-.8.05-.02.05-.19.05-.29q.03-.9.69-1.41c-.5-.18-.3-.6-.32-.94,0-.05,0-.13.04-.14.41-.16.24-.52.27-.8.03-.24-.09-.53.26-.66.04-.01.05-.14.06-.21,0-.18.03-.37,0-.55-.11-.57.2-.91.56-1.17-.08-.24-.16-.45-.22-.66-.01-.04,0-.13.02-.15.51-.33.2-.85.28-1.27.03-.2-.02-.39.23-.53.1-.06.08-.32.11-.5.05-.29-.15-.67.3-.83.04-.02.07-.17.05-.25-.1-.53.25-.8.65-1.09-.55-.31-.26-.82-.33-1.25,0-.05,0-.13.02-.15.55-.33.21-.86.29-1.29.03-.18-.04-.39.22-.49.06-.02.09-.2.1-.3.06-.37-.14-.79.28-1.1.11-.08.04-.42.04-.64,0-.49.27-.77.75-.83.08,0,.16-.09.23-.13-.08-.04-.16-.09-.24-.13-.13-.07-.38-.13-.38-.2,0-.29-.19-.62.14-.86.08-.06.17-.18.18-.28.03-.23,0-.47.01-.7,0-.08,0-.21.03-.22.47-.23.21-.66.29-.99.03-.14.14-.26.19-.39.05-.12.12-.25.11-.38-.02-.38.01-.68.51-.63.03,0,.06-.04.18-.12-.19-.04-.31-.06-.43-.1-.09-.03-.2-.09-.22-.16-.02-.06.08-.16.12-.24.06-.1.16-.2.16-.3.02-.28,0-.57.01-.86,0-.2-.05-.42.22-.52.06-.02.07-.2.08-.31.06-.37-.17-.81.29-1.08.06-.03.04-.22.04-.34,0-.26,0-.52,0-.78,0-.1,0-.27.06-.29.43-.17.32-.54.28-.83-.06-.44.22-.65.5-.86.15-.11.19-.15.03-.27-.29-.21-.27-.84-.01-1.08.09-.08.11-.24.13-.37.03-.24-.09-.53.25-.66.05-.02.06-.19.07-.29,0-.29-.02-.58.01-.86.02-.14.13-.27.19-.41.04-.1.1-.2.11-.31.02-.27,0-.55,0-.82,0-.21-.06-.43.24-.55.08-.03.07-.3.09-.47.05-.3-.15-.68.3-.87.08-.03.05-.34.05-.52,0-.76.11-.9.84-1.07.04,0,.07-.04.16-.1-.16-.05-.23-.07-.31-.1-.13-.06-.35-.11-.35-.18-.01-.2-.17-.47.19-.58.14-.05.26-.21.36-.34.02-.03-.07-.14-.09-.22-.04-.12-.06-.24-.1-.37.25-.06.18-.31.27-.44.28-.4.35-.93.79-1.22.07-.05.17-.12.17-.17,0-.59.54-.76.83-1.12.16-.2.33-.38.62-.32.04,0,.13-.08.13-.12-.05-.34.16-.53.39-.72.06-.05.11-.14.16-.14.43.04.58-.3.82-.55.06-.06.18-.07.27-.11.13-.06.25-.13.37-.2.02-.01.03-.06.04-.06.43.09.67-.3.99-.45.38-.18.74-.31,1.16-.33.1,0,.19-.25.28-.25.23.01.45.1.67.16,0,.04,0,.07,0,.11.15-.18.27-.43.46-.51.26-.1.57-.09.86-.08.05,0,.1.22.14.34.03.07.03.2.06.21.33.06.27.33.31.55.03.17.35.27.46.15.03-.04.02-.18,0-.19-.5-.23-.11-.39.12-.62-.2-.03-.34-.02-.46-.07-.08-.04-.14-.14-.21-.22.07-.06.14-.17.21-.17.74-.01,1.48,0,2.23,0,.05,0,.13,0,.14.04.19.43.57.25.88.28.21.02.41-.02.58.22.07.11.36.06.54.1.12.03.24.1.35.15-.07.09-.17.18-.19.28-.06.28-.09.56-.06.86.19-.27.66-.33.55-.78,0-.04.09-.15.13-.14.07,0,.14.07.21.12.1.07.2.18.31.19.18.03.37,0,.42.24,0,.03.08.08.12.07.57-.06.67.55,1.07.74.02.01.03.07.03.11.02.28-.04.76.37.16.02-.03.21,0,.27.05.22.2.43.43.63.66.03.03.05.1.04.14-.1.38.27.5.43.72.22.29.55.49.81.74.06.06.05.19.08.29.05.12.12.22.18.33.03.05.1.1.11.15,0,.24.25.45.25.56.03.45.56.71.42,1.21-.03.09.13.23.18.36.05.11.1.23.11.34.02.22,0,.44,0,.66,0,.09.02.24.06.25.42.1.28.44.29.69.02.32,0,.65,0,.98,0,.18.03.38-.25.41-.01,0-.02.15-.03.23.35.02.26.29.27.49,0,.22.01.44-.01.66,0,.08-.09.18-.17.21-.05.02-.18-.05-.2-.11-.14-.34-.36-.14-.49-.15.08.25.15.47.22.69.01.04,0,.09.03.11.57.32.15.84.27,1.25.01.04-.02.13-.05.14-.41.11-.27.45-.24.68.05.46-.15.76-.5,1.01-.22.15-.22.45,0,.59.22.14.24.25-.02.37-.18.08-.17.16,0,.27.08.05.12.16.18.25-.09.06-.18.16-.27.16-.31-.01-.37.15-.36.41,0,.23.08.5-.25.62-.05.02-.08.25-.04.36.02.07.17.11.26.16.12.07.33.13.33.21.02.26-.03.53-.06.8-.15-.06-.3-.12-.47-.18-.17.26-.13.6.12.83.07.06.11.17.11.27.02.26,0,.52,0,.78,0,.06,0,.17-.03.19-.51.3-.23.79-.3,1.19-.04.23.07.51-.28.61-.05.01-.08.18-.08.27,0,.33,0,.65,0,.98-.01.26.12.58-.26.74-.06.03-.02.27-.06.4-.05.2-.12.4-.18.6-.05,0-.09.01-.14.02.06.05.12.1.18.14.21.12.17.24.03.4-.09.1-.14.23-.21.35-.09.15-.18.3-.28.47.43.16.25.55.27.89,0,.05,0,.13-.03.15-.48.26-.24.7-.29,1.07-.03.2,0,.42,0,.62,0,.08.01.2-.03.23-.5.36-.23.88-.28,1.32-.04.38-.33.72-.72.78-.1.02-.27.11-.27.18-.02.22.03.45.05.68.06-.01.14,0,.16-.04.03-.05.01-.13.04-.19.05-.14.11-.38.18-.39.28-.03.21.23.22.39.01.21,0,.42,0,.62,0,.09,0,.24-.05.25-.47.19-.25.59-.3.9-.05.3.18.68-.27.87-.04.02-.04.17-.04.26,0,.38,0,.76,0,1.13,0,.2.09.46-.24.53-.04,0-.07.18-.07.28,0,.3-.01.6,0,.9.01.27-.03.47-.38.42-.07,0-.16.06-.23.09.05.06.13.11.15.18.05.28.11.56.11.84,0,.07-.22.14-.35.2-.07.03-.15.05-.22.18.13.02.26.03.39.07.07.03.17.09.18.16.01.06-.06.15-.1.22-.06.12-.17.24-.18.37-.02.36,0,.73-.01,1.09,0,.21.07.45-.24.54-.05.01-.08.18-.08.28-.01.29,0,.57,0,.86,0,.2.04.42-.26.49-.05.01-.09.2-.09.3-.01.42-.02.83,0,1.25,0,.26-.07.38-.35.38-.19,0-.39.09-.58.14.18.06.36.13.61.21,0,.33,0,.7,0,1.07,0,.03,0,.07-.01.07-.52.32-.3.84-.28,1.26.03.57-.18.96-.58,1.2.09.26.26.51.21.68-.06.17-.35.27-.53.4.38.31.38.67-.09.97.45.17.34.54.34.87,0,.06,0,.16-.03.19-.52.33-.22.84-.29,1.27-.03.2,0,.39-.25.51-.1.05-.07.35-.12.52-.04.13-.1.26-.16.38-.07-.11-.14-.22-.2-.34-.04-.08-.08-.17-.12-.25-.05.09-.14.17-.15.26-.05.57-.04.58.58.65.01.26.19.54-.18.73-.06.03-.08.18-.09.27-.01.27-.04.55,0,.82.08.57-.15.96-.64,1.24.48.34.5.67-.29,1.3q.37.4.02.66c.38.37.39.8.03,1.22-.05.06-.06.17-.06.25,0,.3,0,.6,0,.9,0,.19.05.39-.22.48-.06.02-.09.2-.1.31-.02.25,0,.5-.02.74,0,.07-.08.18-.14.2-.06.02-.16-.04-.23-.08-.07-.04-.13-.11-.2-.17-.03.07-.08.14-.07.2.02.1.08.2.13.29,0,.01.05,0,.07.01.15.05.29.11.43.16-.09.1-.22.18-.27.29-.06.15-.03.33-.07.49-.04.19-.11.38-.18.62.23.08.26.38.16.63-.07.19-.29.34-.46.48-.18.14-.21.44-.03.58.28.23.28.53,0,.76-.07.06-.11.19-.11.3-.01.34,0,.68,0,1.02,0,.25.11.55-.26.69-.06.02-.03.26-.06.4-.04.16-.09.32-.14.48-.13-.09-.26-.18-.39-.27-.21.3-.15.5.22.53.23.02.32.11.32.34,0,.68.01,1.35-.01,2.03,0,.16-.15.31-.28.54-.01,0,.06,0,.1.04.07.06.11.14.17.21-.08.05-.15.11-.24.14-.06.02-.14,0-.19.01-.06.02-.11.09-.16.13.06.04.12.13.16.12.43-.05.45.2.45.53-.01,1.21,0,2.42,0,3.63,0,.2.04.4-.21.54-.07.04-.02.35.02.53.03.13.16.24.18.37.03.23,0,.47.01.7,0,.29.05.6-.39.76.47.16.39.49.39.79,0,.55,0,1.09,0,1.64,0,.26-.07.51.25.71.15.1.2.47-.11.64-.17.09-.15.16,0,.27.32.22.58.47.5.93-.04.23-.03.47,0,.7.01.11.12.22.18.33.04.08.11.17.12.25.02.23,0,.47.01.7,0,.09.02.23.06.25.48.17.23.57.29.87,0,.04,0,.09-.02.11-.09.12-.29.26-.26.34.04.13.2.25.34.3.35.14.27.42.29.68.01.29-.11.63.27.8.04.02.04.17.04.26,0,.38,0,.76,0,1.13,0,.2-.06.41.23.51.08.03.07.3.09.46.02.18-.06.4.22.48.06.02.09.17.1.26.01.3,0,.6,0,.9,0,.19-.04.37.21.48.2.09.11.86-.05,1.01-.09.09-.13.25-.16.38-.01.05.07.12.1.18.05-.05.1-.09.15-.14.07-.05.14-.13.22-.15.04,0,.16.09.15.12-.01.09-.06.19-.13.25-.28.22-.28.36.02.59.06.05.12.14.13.22.03.2,0,.42.27.5.05.01.07.18.07.28.01.27-.02.55.01.82.02.17.15.32.2.49.05.14.07.29.1.44.06.32-.17.71.28.92.05.02.04.17.04.26,0,.27,0,.55,0,.82,0,.2-.06.42.24.5.05.01.07.18.08.28.01.29,0,.57,0,.86,0,.19-.06.4.23.51.08.03.03.39.04.6-.11-.03-.22-.06-.32-.11-.06-.03-.11-.07-.17-.11-.03.05-.08.1-.09.16-.09.42.01.57.42.7.08.02.19.13.19.19-.02.17-.08.34-.14.51-.02.06-.09.1-.14.15.07.04.14.13.21.12.43-.06.45.2.45.52,0,1.63,0,3.25,0,4.88q0,.85-.68,1.32c.4.12.32.44.32.73,0,.34,0,.68,0,1.02,0,.18.04.37-.21.44-.05.01-.09.17-.09.27-.01.3,0,.6,0,.9,0,.19.04.39-.22.48-.06.02-.07.2-.09.31-.06.37.18.81-.29,1.08-.04.02-.02.15-.03.22-.02.26.06.52-.25.71-.11.07-.05.41-.06.63-.02.25.08.52-.25.67-.08.04-.06.28-.08.44-.02.2.04.43-.26.48-.05,0-.08.17-.09.26-.02.17,0,.34-.02.51,0,.06-.07.15-.12.16-.06.02-.14-.03-.2-.07-.09-.05-.17-.1-.25-.16.01.15-.04.34.04.43.32.37.32.44,0,.82-.08.1-.06.29-.07.44-.02.21.07.45-.24.55-.05.02-.06.15-.08.24-.03.1-.02.27-.07.29-.35.14-.27.43-.24.66.07.5-.17.8-.56,1.05-.07.05-.12.18-.13.28-.02.23.01.47-.01.7-.01.11-.1.21-.16.31-.04.06-.13.11-.13.17-.04.49-.28.77-.79.8-.05,0-.13.05-.14.1-.01.04.03.11.08.15.29.26.27.8,0,1.08-.24.24-.53.46-.45.89.07.36-.38.43-.5.7-.04.09-.14.16-.15.24-.01.2,0,.39-.26.46-.04,0-.06.13-.06.21-.01.18.02.37-.24.42-.04,0-.08.11-.08.16.04.41-.29.58-.51.82-.06.06-.13.15-.13.22.02.37-.17.45-.49.41-.1-.01-.21-.01-.31,0-.07.01-.12.07-.18.11.04.05.08.12.14.15.31.17.18.44.11.64-.06.16-.25.26-.38.39,0,0-.03,0-.03.02-.19.31-.25.75-.77.73-.01,0-.01.17-.05.25-.05.1-.12.19-.19.28-.04.06-.15.1-.14.15.04.64-.57.8-.85,1.2-.16.22-.32.34-.59.3-.04,0-.11.05-.11.08,0,.05.03.14.07.15.34.16.23.25,0,.45-.4.36-.75.79-1.13,1.17-.39.38-.81.73-1.2,1.11-.26.25-.45.59-.74.78-.32.2-.71.28-.7.77-.09,0-.2.04-.26,0-.14-.11-.25-.25-.38-.37-.07-.07-.16-.13-.24-.19,0,.16,0,.32,0,.49,0,.02.08.03.1.05.06.08.1.18.15.26-.09.05-.18.13-.28.14-.21.03-.42.03-.62.04Zm-12.78-34.26c-.28.09-.34-.05-.34-.29,0-.64,0-1.28,0-1.91,0-.11-.02-.25-.09-.31-.39-.34-.38-.6.11-.9-.37-.1-.38-.37-.38-.66,0-.3.12-.66-.28-.85-.04-.02-.04-.12-.04-.18,0-.34.04-.69-.32-.9-.4-.23-.54-.82-1.12-.79-.05,0-.1-.07-.15-.1-.14-.07-.27-.19-.41-.2-.29-.02-.59.03-.74-.39.02.41-.16.67-.43.89-.26.23-.48.51-.73.75-.35.34-.84.58-.89,1.16,0,.06-.12.16-.18.16-.34-.02-.53.09-.47.46,0,.04,0,.1-.03.11-.41.21-.55.82-1.13.79-.02,0-.05.05-.09.1.14.14.43.22.17.5-.23.24-.65.37-.56.84,0,.03-.02.08-.05.1-.31.21-.59.44-.58.87,0,.05-.1.1-.14.16-.16.18-.4.33-.47.54-.15.44-.36.69-.84.78-.05.01-.1.06-.12.07.09.16.27.39.24.42-.18.18-.4.32-.62.46-.08.05-.18.07-.27.1.06.06.15.12.18.19.04.1.07.27.02.31-.36.27-.63.56-.57,1.05.01.1-.12.2-.16.31-.1.26-.54.26-.5.63.03.29-.12.36-.37.36-.18,0-.37.03-.55.05v.15c.14.02.28.02.41.05.07.02.16.07.17.12.01.07-.03.21-.07.23-.29.09-.19.33-.21.52-.02.15-.02.4-.09.42-.27.08-.21.29-.24.47-.02.09-.09.23-.14.23-.09,0-.18-.08-.27-.14-.04-.03-.07-.08-.14-.16-.09.25-.16.42.09.57.06.04.04.25.01.37-.03.13-.13.25-.19.37-.04.09-.07.24-.13.25-.25.04-.22.21-.23.38-.01.27.11.59-.27.72-.03.01-.05.12-.04.18.11.56-.27.85-.54,1.1.07.22.17.52.16.52-.36.14-.24.45-.25.7-.02.29.08.6-.28.78-.05.03-.05.19-.05.29,0,.29,0,.57,0,.86,0,.1-.01.27-.06.29-.34.14-.23.42-.24.67-.01.38-.02.76,0,1.13.03.39-.06.64-.52.59-.05,0-.1.06-.05.03.08.28.19.5.19.72.02.94,0,1.87.01,2.81,0,.24-.1.54.27.63.04.01.05.14.08.21.13.43-.34.49-.47.76-.06.13-.23.31-.33.3-.57-.05-1.22.29-1.71-.27-.03.02-.06.05-.09.07-.08.07-.17.15-.25.22-.06-.1-.15-.2-.16-.31-.03-.27.07-.58-.29-.73-.05-.02-.05-.17-.05-.26,0-1.52,0-3.05,0-4.57,0-.1.02-.27.07-.29.36-.12.25-.41.26-.65.01-.29.02-.57,0-.86-.02-.34.04-.57.46-.51.06,0,.13-.06.2-.09-.05-.06-.1-.12-.15-.18-.07-.1-.17-.19-.18-.29-.02-.36-.02-.73,0-1.09,0-.1.09-.19.14-.29.07-.12.17-.22.2-.34.09-.37-.2-.83.3-1.09.02-.01.02-.07.02-.11.02-.32.01-.6.26-.91.19-.24.11-.69.34-1.05.14-.22.13-.46.48-.43.04,0,.09-.14.13-.21-.4-.16-.2-.51-.23-.78-.03-.23.09-.34.33-.31.29.04.36-.11.34-.37-.01-.14.01-.29,0-.43-.04-.36.05-.59.47-.53.04,0,.09-.06.04-.02-.06-.23-.09-.39-.13-.55.34-.08.22-.35.25-.57.02-.15.08-.3.14-.45.05-.12.12-.23.18-.34.06-.11.13-.22.21-.33.14-.2.37-.37.41-.59.06-.28.15-.38.42-.36.08,0,.17-.07.26-.11-.06-.05-.14-.1-.17-.17-.05-.1-.06-.22-.09-.33.11,0,.23,0,.33.03.06.02.1.12.15.18.04,0,.07-.01.11-.02,0-.39,0-.79,0-1.18,0-.11.01-.27.08-.32.31-.23.57-.47.61-.89,0-.06.15-.15.23-.15.38.04.44-.17.41-.47,0-.08-.02-.16,0-.23.03-.09.08-.16.13-.25.09.05.18.1.27.15.05.03.08.09.11.13.04,0,.08,0,.11-.01,0-.3-.02-.6,0-.9.01-.14.11-.28.2-.4.13-.18.39-.32.41-.5.05-.4.38-.55.57-.82.26-.37.83-.51.78-1.1,0-.04.03-.1.07-.13.16-.13.36-.22.48-.38.17-.21.32-.45.4-.7.07-.21.16-.27.35-.27.21,0,.41-.02.62-.03-.06-.15-.17-.18-.19-.25-.04-.1-.06-.26,0-.33.13-.15.32-.25.47-.38.04-.03.04-.17.01-.19-.26-.17-.45-.48-.85-.37-.16.04-.34.02-.5,0-.07,0-.18-.08-.19-.14-.02-.07.03-.17.08-.23.04-.06.12-.09.19-.14-.02-.05-.04-.09-.06-.14-.15.05-.3.11-.46.16-.19.06-.39.14-.58.15-.05,0-.11-.24-.16-.37-.03-.07-.06-.15-.12-.31-.18.42-.48.39-.77.38-.12,0-.24.02-.35,0-.13-.03-.35-.1-.37-.17-.03-.19-.16-.45.17-.55.04-.01.07-.09.1-.14-.06-.04-.11-.09-.18-.11-.37-.11-.49.26-.66.42-.31.3-.52.35-.79,0-.05-.07-.17-.09-.26-.12-.1-.03-.28,0-.29-.05-.13-.4-.46-.26-.72-.26-.38,0-.75.03-.68-.53,0-.03-.03-.07-.05-.1-.04,0-.08.01-.12.02-.01.2-.07.42-.02.61.13.5-.36.78-.41,1.22-.02.13-.25.33-.26.57,0,.05-.06.11-.11.14-.28.21-.61.38-.55.81,0,.04-.02.11-.05.14-.32.33-.64.67-.99.98-.16.14-.35.27-.55.33-.17.05-.37,0-.39.26,0,.04-.1.1-.15.09-.48-.05-.47.26-.47.59,0,.13-.08.32-.17.37-.33.15-.74.16-1,.38-.22.18-.4.3-.67.3-.03,0-.06.08-.09.11-.11.08-.23.15-.35.22-.09.05-.2.1-.29.15-.12.06-.23.13-.35.18-.09.04-.26.03-.28.08-.09.31-.34.2-.55.24-.42.08-.94-.24-1.25.3-.02.03-.1.03-.15.02-.21-.07-.41-.14-.65-.22-.02.03-.09.19-.16.2-.82.02-1.64.06-2.45-.02-.32-.03-.6-.37-.9-.57-.29.4-.48.4-.88.06-.08-.06-.22-.08-.33-.07-.35.02-.67.01-.59-.49,0-.05-.06-.12-.1-.18-.05.04-.11.09-.16.13-.08.06-.16.13-.24.19-.06-.1-.17-.19-.18-.29-.02-.45-.01-.91,0-1.37,0-.31-.09-.65.29-.87h-.86c.16.17.33.27.33.38.03.55.02,1.09,0,1.64,0,.06-.08.15-.13.16-.08.01-.19-.02-.24-.07-.15-.15-.26-.34-.41-.5-.12-.13-.26-.33-.4-.34-.29-.02-.48-.13-.68-.33-.19-.18-.25-.28,0-.44.05-.04.07-.13.1-.2-.23-.02-.46-.06-.68-.05-.07,0-.15.17-.17.27-.03.18.01.37-.24.43-.04.01-.08.13-.08.2-.03.3.11.65-.3.82-.03.01-.01.1-.03.15-.12.33-.24.66-.37.99,0,.02-.04.03-.06.05-.25.25-.67.38-.59.86,0,.03-.03.07-.06.09-.35.37-.86.61-.91,1.21,0,.04-.09.12-.13.12-.56-.05-.76.48-1.11.74-.28.21-.39.63-.84.61-.05,0-.1.07-.14.11-.25.22-.41.6-.85.52-.03,0-.1.02-.1.04-.1.39-.42.22-.66.28-.13.03-.27.1-.36.19-.16.15-.59.16-.72-.01-.05-.06-.11-.11-.17-.17-.03.08-.07.15-.1.23-.06.14-.12.39-.18.39-.29,0-.61.17-.87-.13-.09-.11-.28-.15-.44-.17-.04,0-.15.21-.15.33,0,.26-.11.34-.35.34-.77,0-1.54,0-2.3,0-.11,0-.28-.03-.31-.1-.11-.26-.32-.22-.52-.22-.26,0-.52.02-.78-.01-.13-.02-.25-.12-.37-.2-.27-.2-.43-.53-.87-.47-.28.04-.66.16-.82-.27-.01-.03-.13,0-.18-.03-.33-.12-.65-.25-.97-.38-.02,0-.05-.04-.05-.06.06-.33-.2-.51-.35-.74-.03-.05-.07-.09-.11-.14-.05.05-.12.08-.14.14-.12.3-.24.25-.4.03-.15-.21-.43-.36-.37-.69,0-.03-.13-.11-.2-.12-.39-.07-.66-.34-.72-.74,0-.05-.02-.14-.03-.14-.52.01-.62-.41-.79-.76-.04-.08-.1-.15-.15-.23.09-.06.17-.14.27-.17.12-.04.26-.05.38-.07,0-.04,0-.08,0-.12-.13-.02-.26-.03-.38-.05-.39-.06-.54.08-.51.49.03.44,0,.88.01,1.33,0,.12.07.23.12.34.06.13.17.25.18.38.02.51,0,1.02.01,1.52,0,.12.02.27.1.35.34.36.31,1.26-.1,1.56.49.29.7.69.64,1.28-.06.57-.02,1.14,0,1.72,0,.11.02.31.07.32.34.1.23.36.24.58.01.27,0,.55,0,.82,0,.09.05.25.1.26.29.05.25.26.25.45,0,.21-.01.42,0,.62.02.24-.12.54.25.65,0,0-.03.2-.08.3-.03.05-.11.08-.09.07.1.27.11.57.26.69.4.33.25.74.29,1.13.01.12.1.23.16.35.04.08.15.19.13.23-.05.08-.16.14-.25.18-.1.04-.22.04-.33.06.05.11.09.15.13.15.34-.03.52.08.48.46,0,.07.07.15.11.22.07.13.16.25.2.39.05.17,0,.48.07.51.35.15.21.43.25.67.02.13.05.36.11.37.26.06.23.24.25.41,0,.07.03.19.08.21.31.09.2.34.26.54.09.36.23.72.35,1.07,0,.03.07.03.09.06.17.28.34.55.49.84.02.04-.07.14-.13.2-.04.05-.11.08-.2.15.11.04.17.09.22.08.33-.02.48.1.45.45,0,.07.1.18.18.23.21.13.2.25.02.38-.06.05-.14.08-.32.19.31.05.55.02.69.13.3.25-.14.31-.2.51.23.14.68,0,.63.5-.03.28.51.42.29.77-.15.24-.38.44-.59.67.06.04.14.08.19.14.06.07.08.22.13.22.18.02.48.05.53-.04.17-.32.26-.36.41,0,.02.06.12.08.17.13.06.06.14.13.14.19,0,.06-.1.12-.16.17-.05.05-.1.09-.15.14.07.04.13.1.21.13.14.04.33.02.43.11.25.23.45.51.36.9-.02.09.03.2.07.42.1-.17.13-.25.18-.29.07-.06.17-.14.24-.13.06.01.16.15.14.22-.09.39.26.52.44.7.25.25.6.4.58.84,0,.05.06.11.1.15.26.25.53.49.79.73.1.1.27.2.28.31.02.17-.08.34-.14.56.12,0,.32.01.52.03.11.01.29.02.32.08.25.55,1.04.71,1.04,1.44,0,.04.14.12.21.11.38-.06.52.28.74.46.38.31.54.87,1.17.9.15,0,.31.25.43.41.03.04-.1.23-.19.28-.12.06-.28.05-.42.06.04-.02.09-.04.13-.06.1.18.21.36.31.53.3-.41.54-.43.88-.08.04.04.12.1.16.08.42-.11.49.32.73.47.41.27.61.77,1.18.9.21.05.53.19.69.33.2.17.37.26.61.29.07.01.18.17.17.25-.03.35.15.41.45.39.16-.01.44,0,.46.07.09.27.27.23.46.25.08,0,.16.07.23.11.12.07.24.14.37.21.1.06.21.11.31.18.2.15.38.37.61.44.27.09.64-.09.78.33.01.03.12.02.18.05.32.12.65.24.97.35.01,0,.02.02.03.03.06.37.35.22.55.25.15.03.3.04.44.1.15.06.29.15.43.23.08.05.16.1.24.15.09.05.19.16.28.14.58-.09.87.27,1.13.7.05-.04.08-.05.1-.08.08-.08.16-.17.24-.26.07.07.14.15.21.22.15.14.31.28.46.43.18-.27.65-.45.75-.26.2.37.52.19.77.28.22.08.41.27.57.45.03.04-.14.26-.18.32.06.19.19.48.15.5-.31.18-.6.1-.8-.24-.32.52.24.61.39.97.04-.46.34-.37.58-.39.04,0,.09-.02.1-.05.13-.3.5-.48.38-.9-.03-.1.05-.31.11-.33.17-.04.47-.07.51,0,.17.35.46.27.73.27.25,0,.34.1.36.34.04.34.21.39.52.15-.09-.06-.19-.1-.24-.18-.04-.06-.02-.19.02-.24.05-.05.22-.05.24-.03.17.37.5.24.77.28.09.01.18.1.27.16-.05.09-.11.17-.16.25-.04.06-.08.11-.12.17.06.03.12.08.19.1.25.04.4-.03.38-.32,0-.11.09-.31.16-.33.16-.03.45-.02.5.07.14.27.35.22.57.23.19.01.45-.07.46.26.08-.01.18,0,.25-.04.1-.05.18-.2.27-.21,1.04-.01,2.08-.01,3.12,0,.08,0,.16.09.24.14-.05.08-.11.17-.15.25-.04.07-.06.15-.09.22.13,0,.26.05.38.02.06-.02.14-.15.14-.23-.04-.37.16-.43.47-.42,1.21,0,2.42.01,3.63,0,.16,0,.31-.16.48-.21.12-.03.29-.04.37.03.15.13.25.32.37.48.02.03.11.05.13.04.04-.04.09-.11.09-.15-.09-.57.29-.51.65-.51.2,0,.51.03.58-.09.18-.25.39-.22.61-.22.35,0,.7,0,1.05,0,.1,0,.26-.02.28-.07.13-.32.39-.22.63-.25.14-.02.28-.07.41-.13.11-.05.21-.16.33-.18.22-.03.44.01.66-.01.25-.03.6.17.72-.26,0,0,.22.02.32.07.06.03.1.12.19.25.06-.27.1-.46.15-.66.16.07.33.15.5.23.16-.17.32-.52.54-.56.41-.08.78-.16,1.15-.35.24-.12.63.1.78-.3,0-.03.1-.04.15-.03.5.08.83-.15,1.08-.55.03-.04.24.02.36.06.06.02.09.12.19.24.09-.46.37-.41.64-.38.05,0,.12.07.13.12,0,.07-.02.19-.06.2-.47.14-.18.52-.25.78,0,.03.07.09.11.13.05-.05.14-.11.13-.15-.11-.39.25-.56.44-.72.18-.16.25-.3.18-.47-.04-.09-.25-.1-.37-.17-.09-.05-.15-.13-.23-.2.07-.07.14-.16.23-.2.11-.05.25-.05.36-.09.16-.06.31-.16.47-.23.07-.03.2-.04.21-.07.06-.27.25-.25.45-.26.07,0,.19-.05.19-.09.05-.27.25-.21.43-.23.07,0,.16-.03.21-.08.25-.28.44-.64.9-.61.04,0,.07-.06.12-.09.12-.07.23-.15.35-.22.1-.06.21-.11.31-.16.1-.05.19-.14.29-.14.25,0,.36-.1.35-.35-.01-.24.11-.31.34-.31.1,0,.23-.03.31-.1.24-.23.37-.61.81-.58.05,0,.11-.06.15-.11.25-.26.5-.54.77-.78.04-.04.21-.02.27.03.27.27.86.33,1.16.15-.11-.27-.22-.54-.38-.91-.03.25-.02.4-.07.54-.03.08-.15.14-.22.2-.06-.07-.15-.13-.17-.21-.06-.24.24-.77.46-.8.07-.01.18.06.25.12.06.05.08.13.15.26.11-.39.55-.48.5-.92-.02-.13.31-.4.52-.43.29-.05.43-.11.4-.42,0-.07.03-.16.08-.2.16-.16.38-.29.5-.47.15-.23.56-.34.42-.73,0-.03.02-.08.04-.1.22-.22.44-.43.66-.65.35-.36.84-.61.91-1.19,0-.05.09-.14.12-.13.34.09.51-.18.72-.35.1-.08.16-.24.27-.29.24-.11.24-.17.01-.3-.07-.04-.15-.24-.13-.26.17-.17.35-.38.57-.44.45-.12.73-.39.73-.86,0-.17-.01-.34,0-.51,0-.09.05-.24.11-.26.52-.2.48-.8.8-1.16.12-.14.15-.43.33-.63.18-.19.44-.36.38-.69,0-.03.05-.11.09-.11.27-.02.24-.22.25-.4,0-.07.01-.17.06-.22.28-.29.58-.56.87-.84-.41-.26-.42-.52-.07-.87.05-.05.05-.14.08-.21.12-.33.2-.68.38-.98.11-.18.35-.29.55-.41.11-.07.25-.08.37-.12-.13-.05-.25-.1-.38-.15-.02,0-.06,0-.08,0-.06-.04-.16-.08-.16-.13,0-.07.05-.21.1-.21.26-.03.2-.22.22-.38.01-.11.06-.21.11-.31.06-.14.21-.28.19-.4-.09-.45.22-.67.49-.87.21-.16.22-.18,0-.31-.07-.04-.1-.32-.09-.32.35-.12.24-.41.26-.66,0-.1,0-.27.05-.29.41-.18.21-.53.26-.81.03-.18,0-.46.09-.51.3-.16.22-.4.25-.64.01-.12.04-.34.1-.35.34-.06.24-.31.26-.52,0-.14-.03-.38.03-.41.39-.2.19-.57.3-.84.11-.28.36-.5.36-.84,0-.02.16-.06.24-.07.36-.05.4-.14.21-.53-.05.09-.08.19-.15.22-.09.04-.21.02-.31.02,0-.11,0-.3.02-.3.32-.09.23-.34.24-.54,0-.27,0-.55,0-.82,0-.09.06-.26.1-.26.29-.03.51-.16.72-.35.1-.09.31-.07.46-.11-.1-.11-.22-.21-.28-.33-.09-.2-.15-.21-.28-.03-.05.08-.16.11-.25.17-.05-.09-.15-.18-.16-.27-.02-.36-.02-.73,0-1.09,0-.1.08-.2.13-.3.1.06.19.12.29.17.07.03.16.04.23.05-.04-.17-.06-.34-.12-.51-.04-.11-.19-.2-.2-.31-.02-.45-.03-.91,0-1.37,0-.12.15-.22.21-.34.03-.07.03-.16.04-.24-.3-.01-.26-.24-.26-.43,0-.59,0-1.17,0-1.76,0-.12-.01-.33-.08-.36-.32-.13-.25-.39-.25-.63,0-.34,0-.68,0-1.02,0-.21-.02-.39.24-.51.15-.07.23-.31.34-.46.04.02-.01-.02-.07-.03-.26-.05-.64,0-.75-.15-.14-.2-.06-.55-.07-.83,0-.05,0-.1,0-.16-.01-.21.07-.45-.24-.55-.04-.01-.02-.2-.03-.3.11,0,.22-.02.31.02.07.03.1.14.14.22.04,0,.08-.02.11-.03,0-.23.01-.45,0-.68,0-.06-.1-.15-.17-.17-.66-.18-.77-.31-.77-.99,0-.33,0-.65,0-.98,0-.09,0-.24-.05-.25-.38-.13-.22-.44-.26-.68-.02-.12-.08-.23-.13-.33-.07-.15-.2-.28-.22-.44-.04-.28,0-.57-.02-.86,0-.1-.03-.21-.07-.29-.06-.12-.15-.23-.23-.34.15-.04.3-.09.46-.12.06-.01.14.01.19,0,.11-.04.2-.09.31-.14-.1-.04-.19-.11-.29-.12-.35-.02-.78.11-.71-.5,0-.04-.08-.09-.12-.14-.06-.1-.18-.22-.16-.3.04-.2.14-.39.19-.52-.08-.21-.14-.4-.21-.59-.03-.07-.04-.19-.09-.2-.36-.09-.25-.38-.2-.57.03-.1.28-.14.42-.2.05-.02.1-.05.19-.1-.08-.05-.12-.09-.16-.09-.6-.11-.8-.34-.8-.95,0-.14,0-.29,0-.43-.02-.24.11-.53-.25-.66-.03-.01,0-.2,0-.31.1.03.2.05.28.09.07.04.11.11.17.16.04-.09.1-.18.1-.26.01-.39,0-.78,0-1.17,0-.42-.13-.49-.59-.28.5.19.29.6.31.93,0,.07-.1.14-.16.21-.06-.08-.15-.14-.19-.23-.05-.11-.04-.33-.09-.35-.34-.08-.27-.34-.27-.56,0-.27.01-.55-.01-.82,0-.11-.11-.2-.17-.31-.05-.08-.14-.18-.12-.24.02-.07.14-.13.23-.16.13-.04.28-.05.48-.09-.46-.3-.62-.53-.75-.99-.01-.05-.03-.1-.07-.13-.35-.36-.34-.87.07-1.2-.07-.04-.15-.07-.19-.12-.26-.29-.47-.67-.95-.65-.03,0-.08-.04-.09-.07-.04-.35-.3-.23-.5-.26-.17-.02-.34-.06-.5-.11-.14-.05-.26-.17-.4-.19-.27-.04-.67.08-.79-.06-.27-.31-.56-.24-.87-.27-.08,0-.2-.09-.22-.16-.01-.07.07-.17.12-.24.04-.05.1-.09.15-.13-.17-.09-.33-.12-.45-.08-.1.04-.15.23-.24.26-.54.16-1.24-.04-1.23-.8,0-.26,0-.51,0-.77-.07,0-.14,0-.2,0-.01.3,0,.59-.04.89-.01.12-.07.31-.16.34-.15.05-.44.05-.47-.02-.17-.35-.46-.22-.71-.25-.1-.01-.27-.02-.29-.07-.14-.41-.47-.27-.75-.28-.27-.02-.58.09-.73-.27-.02-.04-.14-.05-.22-.04-.25.02-.36-.09-.35-.34,0-.09-.04-.18-.06-.28-.17.12-.28.27-.42.29-.29.04-.6.03-.9,0-.09,0-.25-.13-.24-.18.07-.39-.29-.5-.45-.79-.05.1-.1.15-.11.2-.02.24-.02.46-.37.46-.35,0-.37-.18-.37-.44,0-.05-.05-.11-.08-.16-.06.03-.12.08-.18.09-.2.05-.54.19-.6.12-.29-.39-.68-.21-1.03-.26-.13-.02-.34-.05-.37-.13-.1-.26-.28-.22-.48-.23-.17,0-.45,0-.47-.06-.12-.36-.39-.22-.61-.25-.1-.01-.27.02-.3-.03-.29-.46-.74-.22-1.12-.29-.09-.02-.25-.05-.26-.1-.07-.26-.26-.2-.44-.22-.18-.02-.46.02-.51-.08-.18-.33-.47-.3-.71-.24-.67.16-1.18-.44-1.83-.35-.02,0-.06-.01-.07-.03-.14-.49-.55-.24-.84-.29-.16-.03-.44,0-.47-.07-.13-.31-.36-.22-.59-.25-.29-.03-.66.16-.83-.28-.01-.03-.15-.04-.22-.03-.29.03-.41-.09-.39-.38,0-.08-.04-.16-.04-.14-.27.07-.49.15-.71.19-.13.02-.26,0-.39,0-.21,0-.36-.02-.52-.23-.2-.27-.49-.49-.91-.42-.32.05-.65.02-.97,0-.11,0-.24-.04-.31-.11-.17-.17-.31-.36-.46-.55-.26.34-.65.42-.84.2-.08-.1-.22-.15-.35-.21-.09-.04-.26-.02-.28-.08-.11-.31-.37-.23-.59-.24-.26,0-.52,0-.78,0-.1,0-.2-.08-.3-.12-.14-.06-.27-.16-.42-.18-.26-.04-.66.07-.75-.06-.25-.36-.58-.25-.89-.3-.08-.01-.2-.1-.21-.17-.01-.06.1-.15.15-.22.04-.06.08-.11.11-.17-.06-.03-.14-.1-.19-.09-.12.04-.21.13-.33.17-.12.05-.25.06-.37.09-.06-.38-.35-.26-.58-.27-.27-.01-.55,0-.82-.01-.09,0-.22-.07-.24-.13-.02-.07.06-.17.11-.25.04-.06.1-.09.15-.14-.01-.04-.02-.07-.03-.11-.16.03-.32.05-.47.11-.15.05-.29.17-.44.21-.53.12-.81-.26-1.12-.65-.12.42-.42.39-.69.32-.11-.03-.17-.25-.27-.27-.37-.06-.69-.06-1.05-.31-.33-.23-.88.03-1.3-.33-.2-.17-.7.08-.86-.37,0-.01-.05,0-.07-.02-.21-.07-.42-.14-.68-.23-.04.03-.14.18-.27.21-.48.11-.87-.06-1.16-.47-.04-.05-.11-.09-.16-.13-.04.06-.09.12-.1.19-.02.1-.02.21,0,.31.04.31-.04.51-.41.48-.07,0-.16.06-.21.13-.27.33-.57.6-1.05.51-.08-.02-.18.04-.37.08.17.09.29.12.31.18.04.1.04.33.02.33-.32.05-.23.29-.25.49-.02.16,0,.43-.08.47-.29.14-.23.37-.23.6,0,.24,0,.48,0,.73-.21.01-.36,0-.49.04-.04.01-.1.17-.07.21.09.12.21.23.33.33.32.26.32.49,0,.79-.06.05-.05.16-.09.24-.07.13-.16.24-.21.38-.03.07,0,.22.04.24.27.15.23.27,0,.42-.23.15-.16.33-.1.45.21-.06.38-.11.54-.16-.06.17-.11.34-.14.41.07.24.17.44.18.63.03.39,0,.78.01,1.17,0,.1.07.21.11.3.06.13.17.24.18.37.03.31,0,.62.01.94,0,.09,0,.24.04.26.48.2.27.61.31.94.02.19-.04.39.22.48.06.02.07.18.11.26.06.13.1.28.2.38.14.15.16.26-.03.37-.28.16-.18.36-.08.6.06-.05.08-.08.11-.1.09-.07.18-.14.27-.21.06.1.12.19.16.3.04.09.03.27.08.28.27.06.23.26.25.45,0,.09.09.16.14.24.05.09.1.18.15.27-.09.04-.17.08-.26.12-.11.05-.23.1-.34.15.12.04.25.09.37.11.17.03.49,0,.51.07.07.3.36.54.38.77.04.56.55.71.79,1.09.25.42.88.56.9,1.18,0,.04.06.08.09.12.27.25.55.49.81.75.47.47.79,1.12,1.53,1.26.06.01.08.19.14.29.06.12.14.23.21.35.04.08.08.17.11.26.03.1.06.21.08.32.07-.07.14-.14.22-.2.05-.04.11-.07.17-.08.38-.07.81.26.85.65.01.09.04.18.05.22.2-.07.4-.22.5-.17.31.15.59.39.88.58.24.16.28.28-.02.41-.05.02-.1.07-.12.12-.01.03.05.12.07.12.17-.02.43-.01.48-.1.16-.31.51-.25.6-.16.21.22.63.23.68.33.19.44.8.08.91.56.5-.08.54.28.61.62,0,.01.05.01.07.02.22-.24,1.18-.45,1.36-.22.29.35.63.21.95.25.14.02.37.01.4.08.13.37.43.27.68.28.37.01.72.35.67.72-.02.17-.16.32-.26.5.45.3.54-.27.85-.34-.04-.06-.07-.09-.09-.12-.07-.1-.15-.2-.22-.3.11-.04.22-.1.34-.12.47-.1.78.14,1.04.5.03.04.23.04.24.01.13-.35.54-.25.6-.16.23.35.56.26.86.28.06,0,.16.02.18.06.11.35.42.31.65.25.51-.13.81.39,1.28.37.02,0,.06.05.07.08.09.33.18.33.3.01.02-.06.14-.1.21-.1.04,0,.11.1.12.16.02.1,0,.21.02.31,0,.05.06.13.1.14.04,0,.11-.04.15-.09.23-.28.52-.28.76-.01.06.07.17.09.26.12.1.03.24,0,.3.05.26.25.49.53.75.78.28.28.57.54.84.82.05.05.11.16.09.22-.02.06-.11.13-.18.15-.13.05-.26.06-.4.09,0,.04.01.08.02.12.13,0,.27.04.4.02.33-.03.57.02.51.44,0,.05.03.15.07.17.29.1.23.33.24.55,0,.26-.02.52,0,.78.01.12.1.27.2.35.21.18.2.58-.03.72-.06.04-.11.08-.17.12.06.05.15.09.18.15.07.15.13.31.15.47,0,.07-.1.15-.16.22-.1-.08-.2-.16-.3-.24-.02-.01-.05-.01-.14-.03-.02.11-.06.23-.05.34.02.17.03.41.13.47.18.11.41.07.5-.2,0-.02.29-.01.33.05.17.27,0,1.16-.27,1.4.51.2.27.63.3.97.03.35.13.75-.32.98q.64.2.64.87c0,.1-.01.21,0,.31.02.08.08.15.12.22.07.12.18.24.19.36.02.62,0,1.25.01,1.87,0,.12.06.23.11.34.06.14.19.26.19.4.02.72,0,1.43.01,2.15,0,.11,0,.3.06.33.38.16.21.48.25.74.05.32-.11.41-.4.4-.6-.01-1.2-.01-1.8,0-.13,0-.25.07-.38.13-.1.05-.2.11-.29.17-.05-.11-.11-.22-.13-.34-.03-.19.03-.43-.06-.57-.34-.53-.36-.55-.05-.84-.08-.28-.17-.49-.2-.72-.03-.27,0-.55-.02-.82,0-.1-.07-.22-.15-.27-.24-.16-.23-.28,0-.43.24-.15.22-.39.04-.5-.22-.14-.18-.3-.22-.49-.08-.44.26-.97-.29-1.31-.03-.02-.02-.1-.02-.15,0-.79.02-1.59.03-2.38.1-.09.25-.17.27-.28.04-.19.03-.36.25-.48.08-.05.06-.3.09-.52-.48.3-.69.61-.6,1.08.01.06-.02.13-.02.19Zm11.41-86.7c.14.03.24.03.32.07.12.06.32.12.34.21.04.18.15.46-.19.53-.05.01-.08.08-.12.12.05.04.1.1.16.13.24.09.24.28.06.36-.28.11-.2.31-.24.51-.08.42.26.93-.29,1.25-.02.01,0,.08-.02.11-.07.2-.14.41-.22.64.17.12.48.28-.03.51-.05.02-.06.19-.06.29,0,.31,0,.62,0,.94,0,.1-.02.27-.07.29-.33.12-.26.39-.25.62.03.43.02.81-.56.81-.01,0-.03.04-.04.06.24.21.46,1.21.23,1.36-.36.24-.26.54-.29.84,0,.07-.03.2-.08.21-.37.1-.27.39-.27.63,0,.35,0,.7,0,1.05,0,.1-.03.26-.08.28-.29.09-.22.31-.23.51-.03.33.16.74-.29.95-.02,0-.01.07-.02.11-.07.19-.15.38-.23.6.2.16.33.59.17.74-.18.18-.38.34-.63.56.47.1.48.53.32.66-.41.34-.2.76-.27,1.13-.02.11-.07.21-.12.31-.06.14-.18.27-.2.41-.03.28,0,.57-.01.86,0,.11-.03.3-.09.31-.35.11-.25.38-.26.61-.02.23.04.62-.06.66-.36.15-.23.42-.25.66-.02.26,0,.52-.01.78,0,.09-.07.17-.12.26-.06.12-.17.24-.19.36-.03.2-.02.42,0,.62.01.25-.1.35-.35.35-.19,0-.38.02-.57.04,0,.04,0,.07,0,.11.07.02.14.04.2.07.13.06.36.11.36.18.02.27.07.66-.08.81-.19.18-.2.33-.2.53,0,.29,0,.57,0,.86,0,.1-.04.26-.09.27-.27.08-.24.28-.23.47.02.3,0,.57-.44.67.16.07.27.09.3.15.05.1.07.32.06.32-.4.09-.31.42-.28.66.07.49-.14.8-.53,1.06-.18.12-.15.44.04.57.2.13.21.52.06.7-.1.12-.18.28-.21.44-.04.19,0,.39-.02.58,0,.09-.06.18-.11.27-.07.13-.18.26-.2.39-.03.26,0,.52-.01.78,0,.52-.29.8-.82.8-.12,0-.24-.02-.35.01-.05.01-.08.12-.11.19.27.06.33.48.7.39.22-.05.36.21.21.3-.41.25-.22.62-.28.93-.03.14-.06.39-.12.4-.27.06-.23.24-.23.42,0,.41,0,.82,0,1.2-.26.05-.45.08-.68.13.17.17.36.28.35.37-.04.31.24.72-.24.92-.03.01-.05.09-.05.14-.04.45.04.88-.29,1.32-.28.38-.38.92-.72,1.3-.16.17-.34.36-.55.43-.41.13-.76.5-1.25.38-.03,0-.09.11-.15.16-.17.17-.53.17-.68-.02-.19-.24-.4-.23-.61-.01-.07.07-.3.11-.31.09-.16-.36-.48-.23-.74-.26-.09-.01-.2-.02-.25-.07-.16-.17-.27-.46-.45-.51-.37-.11-.67-.22-.66-.68-.48.04-.47-.38-.69-.62-.26-.29-.16-.49-.18-.78.17,0,.31,0,.45-.03.05,0,.12-.06.13-.11,0-.04-.07-.13-.1-.13-.3.04-.44-.18-.66-.31-.26-.15-.22-.35-.18-.52.03-.1.23-.17.36-.23.08-.04.18-.05.36-.09-.15-.08-.2-.12-.26-.13-.6-.11-.83-.37-.83-.97,0-.23,0-.47,0-.7,0-.09-.06-.18-.1-.27-.07-.15-.18-.3-.19-.46-.03-.28,0-.57-.02-.86,0-.1-.07-.21-.11-.31-.06-.15-.16-.29-.2-.45-.08-.33.19-.76-.29-.98-.01,0,.05-.21.11-.31.03-.05.11-.08.16-.12-.04,0-.09,0-.13,0-.06-.19-.14-.38-.17-.57-.04-.27.06-.68-.08-.77-.26-.18-.23-.37-.23-.59,0-.2.05-.42-.24-.5-.05-.01-.09-.21-.08-.22.38-.19.3-.37,0-.55-.02-.01-.03-.08-.02-.11.07-.21.16-.42.25-.66.04.02,0-.02-.05-.02-.47.06-.59-.18-.54-.6.02-.12.03-.24,0-.35-.04-.14-.1-.29-.2-.4-.16-.18-.14-.54.06-.71.21-.18.17-.41,0-.6-.21-.23-.5-.38-.51-.8,0-.44.29-.6.5-.87.04-.05.09-.1.14-.15-.07-.04-.14-.1-.21-.11-.09-.02-.18-.02-.27,0-.37.06-.48-.12-.45-.46.02-.24.07-.64-.05-.71-.39-.24-.21-.57-.26-.86-.06-.33.21-.77-.3-.97-.02,0,0-.2.04-.27.05-.07.17-.09.16-.09-.1-.26-.19-.47-.27-.68-.02-.05-.03-.13-.06-.13-.35-.09-.22-.38-.26-.61-.07-.4.23-.89-.28-1.18.05-.08.08-.2.16-.25.06-.04.18,0,.27-.02.05-.01.13-.05.14-.1.01-.04-.03-.12-.08-.15-.59-.44-1.02-.95-.85-1.76.02-.09,0-.18,0-.27,0-.07-.03-.2-.07-.21-.33-.09-.24-.36-.24-.58,0-.36,0-.73,0-1.09,0-.09,0-.23-.04-.26-.47-.23-.26-.42.05-.59-.23-.22-.49-.38-.64-.61-.19-.28,0-.82.3-1.02-.57-.51-.72-.42-.68-1.34,0-.14-.16-.29-.19-.44-.03-.11.02-.25.05-.37.03-.18.13-.5.1-.52-.34-.14-.22-.43-.26-.66-.03-.14-.16-.26-.2-.4-.03-.11-.04-.32,0-.34.27-.1.25-.31.18-.48-.04-.09-.25-.1-.38-.16-.08-.04-.15-.1-.22-.15.06-.07.11-.14.17-.21.04-.04.09-.07.14-.11-.44-.41-.44-.84-.01-1.38-.14-.14-.64-.25-.07-.49.02,0,.02-.19-.02-.21-.35-.15-.31-.27-.03-.47.09-.06.06-.29.08-.44-.08.05-.16.11-.25.15-.07.03-.23.07-.23.07-.11-.28-.56-.34-.47-.76.03-.16-.05-.34-.11-.5-.06-.16-.17-.31-.21-.48-.1-.43.22-.96-.29-1.3-.02-.01-.02-.08-.02-.11.06-.44-.22-.96.33-1.29-.42-.29-.77-.58-.66-1.13.01-.06,0-.17-.04-.18-.43-.17-.22-.55-.27-.84-.03-.16.02-.44-.06-.48-.49-.25-.21-.42-.03-.6-.11-.2-.18-.4-.22-.61-.04-.21.1-.49-.27-.55-.01,0-.02-.23.02-.32.03-.07.16-.09.24-.14-.43-.11-.34-.44-.36-.72-.01-.13-.03-.36-.1-.38-.26-.09-.21-.29-.23-.48-.04-.32.17-.71-.26-.94-.01,0,.06-.21.11-.31.03-.06.1-.09.16-.13-.04,0-.08,0-.12,0-.06-.23-.11-.46-.19-.69-.05-.15-.16-.28-.21-.44-.03-.11-.03-.24,0-.35.02-.06.12-.09.1-.08-.09-.25-.16-.43-.22-.61-.03-.07-.04-.2-.07-.2-.34-.06-.23-.33-.24-.53-.01-.29,0-.57,0-.86,0-.09-.04-.25-.09-.26-.27-.06-.21-.26-.21-.43,0-.29,0-.57,0-.86,0-.1-.02-.26-.07-.28-.37-.12-.26-.43-.28-.68-.02-.22.02-.55-.09-.62-.27-.17-.23-.38-.23-.6,0-.26,0-.52,0-.78,0-.1-.07-.2-.12-.3-.06-.13-.15-.25-.18-.38-.08-.36.19-.81-.3-1.05-.03-.01-.03-.1-.02-.15.06-.21.14-.41.2-.58-.07-.18-.13-.36-.21-.54-.04-.09-.11-.15-.16-.24-.06-.09-.14-.18-.14-.28-.02-.23,0-.47-.01-.7,0-.1-.07-.21-.11-.3-.06-.14-.17-.26-.19-.41-.03-.22,0-.44-.01-.66,0-.08-.05-.22-.09-.23-.31-.05-.23-.28-.26-.48-.03-.17-.08-.33-.13-.49-.05-.14-.16-.27-.18-.42-.04-.26.06-.54-.28-.68-.1-.04-.17-.16-.25-.25-.15-.19-.3-.37-.42-.57-.15-.23-.22-.56-.42-.69-.4-.27-.67-.53-.59-1.05.01-.07-.04-.15-.07-.22-.1.1-.11.19-.14.28-.04.11-.11.21-.16.31-.09-.07-.18-.14-.27-.21-.2-.14-.4-.35-.62-.4-.27-.05-.35-.16-.35-.4,0-.2-.03-.4-.03-.5-.27.08-.47.18-.66.19-.23,0-.54.14-.64-.24,0-.03-.12-.06-.17-.05-.57.12-.91-.2-1.19-.64q-.31.37-.71,0c-.1.36-.38.34-.67.32-.08,0-.16,0-.23,0-.23-.02-.5.09-.62-.25-.02-.06-.26-.07-.39-.04-.05,0-.1.15-.12.24-.03.11-.03.22-.04.37-.33,0-.62,0-.92,0-.1,0-.24.04-.3.11-.26.27-.7.21-.92.54-.02.03-.12,0-.19.02-.05,0-.13.02-.14.05-.14.36-.46.28-.73.27-.24,0-.31.07-.37.32-.05.23-.27.58-.43.59-.32.02-.5.2-.69.37-.17.15-.4.35-.42.54-.03.4-.22.48-.55.46-.04,0-.09.06-.08.05.08.2.15.35.22.5-.28.04-.3.49-.66.39-.07-.02-.15.05-.23.08.05.06.11.12.14.18.04.11.1.33.09.33-.42.17-.21.53-.26.81-.03.16,0,.43-.08.47-.29.13-.22.35-.23.56,0,.33-.01.65,0,.98.02.32-.04.54-.44.49-.07,0-.16.08-.24.12.08.04.15.1.24.13.07.02.16,0,.23.01.24.06.25.2.11.37-.05.06-.14.09-.22.15.11.09.25.15.27.24.08.38.09.74.3,1.12.17.32.28.93-.26,1.25q.64.51.64,1.22c0,.2,0,.39,0,.59,0,.09.03.24.07.24.35.08.2.36.25.57.11.52-.28,1.13.3,1.56,0,0,0,.03,0,.04-.1.42.26.92-.25,1.28-.07.05,0,.31,0,.47.08-.07.15-.14.23-.19.06-.04.13-.1.19-.09.06,0,.17.07.17.12.02.26.05.53-.01.77-.02.09-.3.11-.46.17-.05.02-.1.06-.19.11.21.16.39.39.58.4.37.02.47.16.45.5-.01.28.02.56-.31.67.01.06.01.09.03.11.08.11.17.22.26.32-.14.05-.28.13-.43.16-.17.04-.35.03-.52.05,0,.02,0,.05.01.07.26.11.52.22.78.32.09-.05.22-.13.35-.2.05.15.12.3.14.45.02.28,0,.57.01.86,0,.1.03.25.09.27.28.1.23.32.23.52,0,.38,0,.76,0,1.13,0,.11.03.29.09.31.27.09.22.29.22.48,0,.3,0,.6,0,.9,0,.1.06.22.13.28.24.21.23.86,0,1.07-.09.08-.12.26-.12.4,0,.06.16.17.23.16.38-.04.46.17.41.47-.05.25-.15.5-.23.77.23.05.26.3.24.59-.01.19-.04.39.22.48.06.02.1.17.1.27.02.23,0,.47.01.7,0,.1.07.2.11.3.06.13.17.24.18.37.03.23,0,.47.01.7,0,.22-.07.48.24.6.02,0,0,.23-.05.33-.02.06-.12.09-.19.13.04,0,.08,0,.13,0,.07.22.14.43.19.65.1.41-.23.93.3,1.24.01,0,0,.05.01.07.05.43-.15.93.31,1.26-.07.46.26,1.01-.3,1.36.22.18.46.32.6.52.09.12.06.35.02.52-.01.06-.21.08-.33.12-.09.03-.18.06-.27.09.03.05.06.15.08.15.42-.05.62.12.61.56,0,.04.1.07.14.12.05.08.14.18.12.25-.02.07-.14.12-.23.15-.13.04-.27.05-.4.07.06.12.12.17.17.16.47-.05.53.22.51.6,0,.13.06.26.11.38.06.14.18.27.19.41.02.6,0,1.2.01,1.8,0,.12.02.32.09.35.3.11.21.35.23.56.01.15,0,.41.07.43.34.1.24.36.24.57.01.38,0,.76,0,1.13,0,.09.04.26.09.27.29.07.22.28.22.47,0,.27,0,.55,0,.82,0,.17-.05.35.22.43.08.02.1.31.11.48,0,.06-.1.12-.15.19-.08-.07-.15-.17-.24-.22-.06-.04-.2-.06-.22-.02-.14.19.02.46.25.5.13.02.24.09.36.14-.08.1-.18.18-.23.29-.06.12-.07.26-.09.39,0,.05.06.1.09.16.06-.08.12-.16.2-.22.06-.05.16-.1.23-.08.06.02.15.12.15.18.02.27.01.55.01.82,0,.3.07.63-.29.77.22.13.5.2.58.36.1.22.03.51.03.77,0,.12-.02.24,0,.35.02.1.08.21.16.27.31.25.12.58.13.87,0,.05-.25.12-.38.18-.07.04-.13.09-.2.13.07.04.14.13.2.12.38-.04.43.17.41.48-.01.19-.01.39,0,.59,0,.08.04.23.08.23.32.07.2.31.23.5.02.16.05.32.1.47.05.15.18.29.2.44.03.3,0,.6.01.9,0,.09,0,.24.05.25.49.17.4.68.27.87-.22.33-.23.51.03.77.07.07.02.3.08.32.37.14.22.44.27.69.07.37-.22.84.27,1.11.03.02.03.12.03.19,0,.33.11.7-.37.91.66.3.76.8.7,1.38-.02.24-.01.49,0,.74.01.24-.12.53.25.64.04.01.05.16.05.25,0,.25,0,.49,0,.74,0,.08.04.23.08.23.33.05.25.31.27.51.03.31-.13.69.28.89.05.02.05.17.05.26,0,.34.02.68,0,1.01-.01.13-.13.25-.19.38-.05.11-.11.23-.11.34,0,.07.13.18.2.18.35-.01.46.17.43.48,0,.04,0,.1.02.11.5.23.21.67.29,1.02.02.11.03.29.09.31.27.1.21.32.23.52.03.33-.16.73.28.96.05.03.01.2.04.3.02.07.06.14.13.3.15-.43.42-.42.71-.4.21.01.42-.03.51.24.02.06.18.08.28.08.21.01.42.01.62,0,.24,0,.35.08.37.34,0,.11.09.28.18.31.16.06.27-.02.4-.18.1-.12.61-.11.62-.08.11.39.4.25.63.28.3.03.66-.14.83.28,0,.02.07.03.11.03.38-.06.67.1.98.32.49.35.57.56.19.85.34.2.48.14.49-.21,0-.12-.02-.24.01-.35.03-.1.13-.18.2-.28.07.09.17.16.2.26.04.11,0,.24.02.35.02.11.09.2.14.31.04-.1.08-.19.12-.29.05-.1.1-.28.17-.29.17-.02.37,0,.5.09.19.13.33.33.5.52.16-.37.56-.43.71-.25.3.37.65.19.98.26.15.03.29.1.44.16.12.06.24.15.37.18.17.04.4-.03.53.06.21.14.36.38.57.61.14-.42.56-.47.71-.29.25.32.53.22.82.26.06,0,.17,0,.18.04.21.44.6.24.92.28.14.02.36,0,.4.08.2.39.69.22.93.55.11.15.38.19.65.31-.08.04-.04.03-.04.01.09-.31.32-.34.58-.29.32.06.15.33.2.51.01.05-.01.11,0,.15.03.1.08.19.12.29.05-.09.14-.18.14-.27-.01-.29.12-.36.38-.35.29.02.53.02.81.26.25.21.77.01,1.09.36.13.14.37.16.6.25.12-.22.3-.46.52.02.02.04.12.05.18.05.21.01.46-.05.61.05.14.1.17.36.26.58.22-.42.62-.36.91-.27.28.09.5.39.77.61.01-.03.04-.08.07-.13.12-.21.62-.29.68-.08.1.32.32.22.52.25.17.02.33.07.49.13.13.05.25.15.38.18.34.08.78-.19,1.02.29.02.04.15.02.22.03.18,0,.36,0,.55,0,.19,0,.33.01.48.22.2.28.48.53.92.45.31-.06.65-.02.97,0,.11,0,.21.06.32.11.15.06.29.17.45.19.23.04.5-.05.61.28.01.05.15.07.24.08.23.01.47,0,.7,0,.09,0,.25.04.26.09.07.29.29.2.47.22.17.02.35.04.52.09.15.05.29.15.43.23.08.05.2.09.22.15.02.07-.06.17-.12.25-.04.05-.11.08-.13.1.1.16.24.28.26.42.08.45.1.48.62.31-.05-.16-.05-.41-.15-.46-.34-.17-.15-.43-.16-.65,0-.02.18-.05.27-.08.08.28.53.35.43.74,0,.04.06.09.14.21.04-.17.07-.26.07-.36,0-.23.1-.32.33-.32.26,0,.43.05.41.36,0,.08.05.16.08.24.05-.02.15-.03.16-.06.11-.31.38-.23.55-.17.1.04.17.28.18.44.03.47.28.66.73.49.05-.02.11-.08.11-.12,0-.04-.07-.11-.12-.12-.1-.02-.21,0-.31-.03-.06-.02-.15-.1-.14-.14,0-.07.05-.18.11-.21.25-.14.74,0,.93.22.05.06.15.09.23.09.21.01.42,0,.62,0,.38,0,.7.3.76.66.01.1.09.26.14.26.14,0,.28-.04.42-.09.13-.05.23-.18.36-.19.24-.03.49-.02.74,0,.09,0,.24.05.26.11.09.28.32.24.48.17.08-.03.13-.25.13-.39.01-.92,0-1.85.01-2.77,0-.14.1-.29.19-.4.17-.19.16-.35,0-.53-.09-.1-.19-.24-.19-.36-.01-1.42-.01-2.84,0-4.26,0-.11.02-.25.08-.32.16-.18.35-.33.53-.49-.15-.24-.62.08-.6-.35,0-.23.13-.45.21-.7-.34-.24-.35-.58.09-.94-.54-.16-.23-.6-.32-.92-.14-.53.26-.58.64-.68-.12-.08-.22-.09-.31-.12-.11-.04-.21-.1-.32-.15.07-.09.13-.19.2-.28.03-.05.08-.1.1-.15.08-.21.15-.43.24-.67-.2-.16-.38-.91-.15-1.04.32-.18.22-.42.25-.67.06-.39-.2-.86.28-1.16.04-.03.03-.15.03-.23,0-.21-.01-.42,0-.62.01-.1.09-.19.13-.29.09.06.19.11.28.18.05.03.09.07.14.11.04-.06.11-.11.12-.17.06-.3-.06-.43-.38-.41-.09,0-.19-.09-.28-.14.05-.09.1-.18.15-.28.05-.11.14-.21.15-.32.02-.31,0-.62.01-.94,0-.1.02-.27.07-.29.4-.13.27-.45.28-.72.01-.33,0-.65,0-.98,0-.34.31-.61.48-.62.38-.03.52-.3.76-.51-.2-.06-.4-.05-.6-.09-.11-.02-.29-.08-.3-.15-.03-.17-.02-.48.05-.5.35-.11.23-.37.24-.58.01-.35.01-.7,0-1.05,0-.25.04-.39.34-.38.26,0,.45-.36.25-.5-.48-.36-.18-.83-.25-1.25,0-.05.05-.11.08-.17.07-.14.18-.28.21-.43.08-.35-.17-.79.3-1.03.03-.01.03-.1.03-.15.02-.18-.02-.39.26-.39,0-.08.02-.21-.03-.24-.2-.15-.37-.89-.17-.98.41-.18.25-.5.3-.78.02-.1.12-.18.18-.27.06.1.12.19.17.29.05.11.07.32.12.32.45.02.91.02,1.36,0,.04,0,.1-.19.1-.29,0-.08-.05-.16-.09-.23,0-.01-.12,0-.13.03-.19.49-.61.17-.91.24-.04,0-.17-.13-.17-.19.01-.3-.08-.47-.41-.44-.07,0-.2-.07-.2-.12,0-.08.06-.17.1-.26.06-.12.17-.24.18-.37.02-.52,0-1.04.01-1.56,0-.11.03-.3.08-.31.3-.08.23-.3.23-.5,0-.27,0-.55,0-.82,0-.1.02-.27.07-.29.33-.12.25-.39.25-.62,0-.33-.05-.66.01-.97.07-.35.24-.68.37-1.02,0-.02.05-.02.07-.04.07-.11.18-.22.19-.33.02-.24.11-.34.36-.36.11,0,.26-.1.31-.19.11-.18.16-.4.24-.62-.05-.05-.14-.14-.23-.24-.05-.05-.09-.11-.13-.16-.04.05-.09.11-.14.15-.07.06-.14.11-.21.17-.06-.08-.18-.17-.18-.25.02-.31-.19-.7.28-.86.03-.01.04-.09.05-.14.07-.2.15-.4.19-.53-.07-.23-.18-.43-.18-.62.01-.37-.18-.81.29-1.06-.04-.39.1-.59.52-.54.03,0,.11-.09.1-.13,0-.04-.07-.11-.12-.11-.15-.02-.3-.03-.51-.04.04-.24,0-.55.11-.61.28-.16.23-.38.23-.6,0-.35,0-.7,0-1.05,0-.1,0-.27.06-.29.34-.15.29-.44.26-.7-.07-.61.07-1.11.62-1.42-.11-.15-.27-.26-.26-.38,0-.11.17-.21.26-.32-.35-.27-.36-.59-.15-.83.24-.26.51-.38.85-.47-.11-.08-.21-.08-.29-.12-.13-.07-.32-.14-.35-.24-.05-.17-.12-.43.2-.5.05,0,.08-.08.12-.12-.05-.04-.1-.11-.16-.13-.23-.07-.23-.28-.08-.32.31-.09.24-.29.25-.48,0-.3,0-.6,0-.9,0-.09.04-.26.09-.27.29-.07.22-.29.22-.47,0-.3,0-.6,0-.9,0-.09.02-.24.06-.25.37-.09.25-.38.25-.6.01-.35,0-.7.01-1.05,0-.11.08-.23.13-.34.06-.13.17-.24.18-.37.02-.42,0-.83.02-1.25,0-.11.09-.26.18-.33.11-.07.26-.06.4-.09-.08-.09-.17-.18-.23-.28-.03-.05-.04-.12-.04-.19,0-.27-.01-.55,0-.82,0-.09.08-.17.13-.26.06-.13.16-.25.18-.38.03-.2-.02-.42.01-.62.05-.36-.21-.83.32-1.05.03-.01.03-.12.03-.18.02-.31-.12-.68.37-.8-.38-.27-.46-.66-.27-.87.1-.11.17-.28.21-.43.03-.16,0-.33,0-.51.16-.02.26,0,.36-.04.1-.03.25-.08.26-.15.02-.13,0-.36-.06-.39-.3-.11-.23-.34-.24-.55,0-.39,0-.78,0-1.17,0-.26.08-.38.36-.38.25,0,.4.07.38.35,0,.11.04.22.06.33-.03-.06-.06-.12-.08-.17.18-.12.36-.24.56-.37-.18-.1-.39-.28-.62-.33-.25-.05-.35-.14-.32-.38.05-.4-.16-.84.27-1.18.15-.12.16-.43.25-.69-.43-.36-.35-1.07.49-1.6-.38-.09-.38-.36-.38-.66.01-.56,0-1.12,0-1.68,0-.1,0-.28-.04-.3-.4-.17-.26-.51-.29-.8,0-.07-.04-.15-.07-.21-.07-.15-.16-.29-.24-.43-.04-.08-.06-.17-.12-.23-.28-.26-.28-.5.01-.75.04-.03.09-.14.07-.15-.14-.15-.28-.35-.45-.4-.23-.06-.39-.1-.56-.3-.38-.45-.79-.89-1.26-1.25-.35-.26-.51-.84-1.1-.76-.06,0-.12-.11-.19-.16-.08-.06-.17-.14-.25-.14-.31,0-.42-.13-.39-.43,0-.07-.06-.15-.09-.23-.06.05-.14.09-.17.16-.11.2-.21.16-.35.03-.1-.09-.23-.18-.35-.19-.23-.03-.47,0-.7-.02-.09,0-.21-.05-.25-.12-.15-.28-.18-.31-.41-.21-.29.13-1.15-.04-1.3-.19-.25.08-.44.15-.64.21-.05.02-.13.01-.14.04-.17.46-.56.22-.86.28-.15.03-.4,0-.43.08-.14.3-.37.22-.6.24-.19.01-.44-.09-.49.24,0,.01-.24,0-.36-.03-.05-.02-.08-.13-.16-.29-.06.31-.03.62-.14.68-.39.22-.53.8-1.09.74-.03,0-.09.02-.1.04-.29.52-1.01.74-1.06,1.44,0,.05-.16.13-.25.13-.37-.03-.39.17-.39.46,0,.16-.06.34-.11.49-.05.13-.14.23-.19.35-.04.09-.03.26-.08.28-.33.12-.23.39-.25.62,0,.1,0,.27-.04.3-.44.22-.21.61-.27.92-.03.15-.01.39-.1.43-.27.13-.23.35-.23.56,0,.2,0,.39,0,.59,0,.55,0,.54-.54.55-.14,0-.28.03-.42.04,0,.03,0,.07,0,.1l.57.15c-.07.17-.14.34-.2.48.07.14.13.28.2.43-.49.19-.21.61-.28.93-.03.14-.01.38-.07.4-.34.1-.26.36-.25.57.02.31-.04.51-.41.48-.06,0-.13.06-.2.1.12.1.24.1.34.13.09.03.17.09.25.13-.05.09-.11.18-.15.27-.05.09-.12.18-.14.28-.1.5.2,1.07-.3,1.52-.15.14-.17.42-.24.64.04.1.11.25.17.4-.18-.05-.36-.11-.5-.15-.18.07-.37.14-.55.21-.07.03-.13.06-.19.1.04.06.08.11.12.17.06.08.16.16.17.25.02.18,0,.34.24.43.15.05.27.21.36.35.04.08,0,.31-.04.31-.31.04-.21.27-.23.45-.02.18,0,.47-.07.51-.31.13-.23.37-.24.59,0,.36,0,.73,0,1.09,0,.1-.02.27-.07.28-.33.1-.23.36-.24.58-.02.23.04.62-.07.66-.34.16-.24.42-.25.66-.01.22-.01.44,0,.66.01.27-.05.43-.37.4-.09,0-.18.06-.16.05.09.27.23.47.2.65-.1.61-.69.08-1,.44Zm-59.09,43.73c-.21.37-.7.53-.79.3-.11-.29-.3-.25-.51-.28-.07,0-.12-.11-.18-.15-.08-.05-.15-.11-.24-.14-.19-.07-.38-.13-.55-.19-.15.04-.32.08-.49.12-.06-.35-.34-.25-.56-.25-.46,0-.91-.02-1.37,0-.25.01-.59-.15-.71.26,0,.03-.12.06-.18.04-.22-.06-.43-.13-.7-.21-.17.15-.3.51-.71.53-.26.01-.59-.13-.69.29-.01.04-.17.04-.25.07-.1.03-.22.03-.28.1-.24.27-.43.6-.87.56-.05,0-.13.06-.14.1-.09.33-.37.21-.55.18-.09-.02-.14-.24-.21-.38-.03-.06-.05-.14-.05-.15-.14.13-.28.26-.42.4.14.13.33.28.49.46.05.05.05.22,0,.27-.14.16-.36.27-.48.44-.16.25-.48.35-.49.75,0,.19-.31.43-.3.73,0,.02-.06.04-.09.06-.29.25-.58.49-.52.95.03.21.04.56-.07.62-.29.16-.22.38-.23.6,0,.22,0,.44,0,.66,0,.19-.07.32-.19.49-.13.19-.05.55-.01.83.02.15.18.29.19.44.03.3,0,.6.01.9,0,.09,0,.23.05.25.53.23.11.41-.06.61.1.06.21.09.24.15.1.26.07.58.39.73-.05.09-.1.18-.16.26-.04.05-.1.09-.13.12.15.17.26.32.41.44.29.24.29.52.03.77-.09.09-.13.27-.11.4,0,.07.17.13.28.17.09.03.2.03.3.05.01.09.02.15.03.21.04.28-.14.64.29.78,0,0-.04.21-.09.31-.03.06-.13.08-.21.12.14.12.31.19.33.29.05.24.25.45.28.59.08.44.26.84.38,1.26.04.14-.15.34-.25.53.33.26.71.52.59,1.06-.02.11-.02.24,0,.35.02.1.08.2.13.29.06.11.16.21.18.32.03.23-.03.48.02.7.08.4.22.79.34,1.18,0,.03.07.04.09.07.08.12.2.24.22.37.04.24-.04.49.26.67.09.05.08.45-.01.59-.1.15-.3.06-.35-.17,0-.03-.12-.07-.15-.05-.04.02-.07.1-.09.15-.05.14-.05.36-.15.42-.21.13-.25.18,0,.3.07.03.1.13.16.19.04.04.1.1.14.09.04,0,.09-.08.11-.13.02-.07,0-.16.02-.23.03-.08.09-.2.15-.22.07-.02.17.06.25.11.31.21.37.51.33.86,0,.07.01.2.05.21.35.14.24.44.27.7.02.27-.13.61.27.76.04.01.04.14.05.22.04.28-.14.63.28.79.03.01.03.14.03.22,0,.22-.01.44,0,.66,0,.1.08.2.13.29.07.13.2.26.21.4.03.3,0,.6.02.9,0,.11.04.22.09.32.07.15.16.29.24.43.04.08.07.16.11.23.07.15.18.3.19.46.03.28,0,.57.01.86,0,.1.03.26.08.28.25.09.24.27.24.47,0,.07.02.2.06.21.37.09.23.38.25.6.02.22-.04.57.06.63.35.19.22.48.26.74.02.12.05.26.12.33.2.17.36.88.16.97-.43.2-.26.54-.28.83,0,.15.06.31.1.46.06-.13.11-.27.17-.4.04-.07.09-.17.15-.19.07-.02.2.03.23.08.13.32.2.68.37.97.16.26.36.47.33.79,0,.02.06.04.08.07.32.36.87.55.9,1.14,0,.05.08.09.13.13.31.26.58.53.5.99-.02.1.03.21.05.31.04,0,.08,0,.12,0,.03-.14.02-.31.09-.41.06-.09.31-.17.32-.14.23.32.46.63.92.61.04,0,.11.21.13.32.03.18.03.37.04.56.04,0,.08,0,.13,0,.02-.09.02-.19.05-.28.04-.1.1-.19.15-.29.09.05.18.1.27.15.09.05.19.1.29.14.1.04.28.05.3.11.08.27.29.22.48.22.3,0,.6,0,.9,0,.1,0,.26.05.27.1.05.32.28.25.48.25.39,0,.78,0,1.17,0,.1,0,.23-.06.28-.13.2-.29.53-.31.73-.03.16.24.38.21.56,0,.16-.19.36-.38.58-.5.3-.16.76-.16.94-.39.26-.32.53-.23.82-.27.1-.01.26-.09.26-.14.01-.25.07-.42.3-.59.33-.24.73-.42.86-.89.05-.18.28-.33.45-.47.24-.19.39-.55.79-.5.05,0,.12-.07.17-.11-.05-.05-.09-.11-.14-.15-.23-.17-.21-.54,0-.73.28-.24.53-.51.8-.78-.41-.28-.41-.31-.09-.6-.07-.18-.13-.33-.19-.48.17.04.35.08.61.14-.02-.34.07-.78-.1-1.07-.29-.48-.35-.9-.01-1.17-.08-.25-.15-.46-.22-.66-.02-.05-.03-.12-.06-.14-.43-.16-.21-.53-.25-.8,0-.09.09-.18.15-.28.09.05.17.11.27.16.07.03.2.09.23.06.12-.11.21-.25.32-.37-.61.13-.64-.37-.77-.77-.07.12-.07.2-.11.28-.06.13-.15.25-.22.37-.06-.13-.14-.26-.18-.39-.05-.18-.02-.48-.12-.53-.23-.11-.19-.27-.22-.44-.06-.34.22-.79-.28-1.02-.03-.01-.03-.1-.02-.15.06-.22.14-.43.21-.67-.4-.24-.54-.48-.58-1.02,0-.11-.06-.21-.11-.31-.07-.15-.18-.28-.21-.43-.04-.25.07-.64-.06-.75-.37-.31-.21-.68-.26-1.03-.02-.13-.06-.26-.12-.38-.06-.14-.16-.26-.2-.41-.06-.24.12-.56-.28-.67-.03,0-.04-.14-.04-.22-.03-.27.12-.61-.27-.76-.04-.02-.04-.17-.04-.26,0-.23,0-.47,0-.7,0-.08-.04-.22-.09-.23-.33-.06-.25-.31-.27-.51-.01-.13.02-.34-.05-.37-.44-.23-.22-.64-.28-.97-.1-.55-.22-1.11-.33-1.66,0-.03-.04-.08-.07-.09-.31-.06-.21-.31-.23-.5-.02-.15,0-.38-.08-.43-.32-.19-.34-.3,0-.51.09-.05.04-.32.06-.49-.08.02-.16.03-.24.05-.13-.25.11-.64-.31-.82-.11-.05-.06-.29.17-.32.13-.01.26-.03.39-.05,0-.05,0-.09,0-.14-.19-.01-.39,0-.57-.05-.14-.03-.34-.12-.36-.23-.04-.17-.14-.43.17-.51.06-.01.09-.1.14-.15-.05-.04-.09-.07-.14-.11-.27-.22-.62-.39-.53-.85.02-.12-.01-.35-.09-.39-.26-.13-.27-.36-.22-.57.14-.62-.52-1.07-.34-1.69,0-.02-.02-.06-.04-.06-.43-.11-.23-.45-.26-.7-.02-.19.01-.5-.08-.55-.32-.15-.23-.4-.24-.63,0-.26,0-.52,0-.78,0-.1-.07-.2-.13-.29-.07-.12-.15-.24-.22-.35-.06-.1-.12-.21-.18-.31-.05-.1-.14-.19-.14-.29-.02-.35-.11-.73.38-.88-.06-.06-.09-.1-.12-.1-.34,0-.67-.03-.61-.51,0-.04-.08-.09-.11-.14-.07-.12-.14-.25-.19-.38-.03-.07,0-.21-.04-.22-.41-.13-.27-.47-.28-.74,0-.23-.1-.28-.31-.3-.13-.01-.27-.1-.37-.19-.3-.26-.59-.54-.87-.82-.24-.24-.64-.47-.66-.73-.04-.43-.38-.56-.53-.92Zm22.97.46c-.25-.03-.41-.07-.56-.06-.35.03-.48-.1-.47-.47,0-.33.19-.74-.27-.95-.04-.02-.03-.15-.03-.22,0-.23.01-.47,0-.7,0-.1-.09-.19-.14-.28-.06-.11-.19-.2-.2-.31-.03-.33-.1-.7.43-.87-.17-.05-.24-.1-.31-.09-.4.04-.47-.17-.47-.52,0-.31.17-.69-.25-.89-.04-.02-.06-.13-.04-.18.06-.21.14-.41.24-.7.05.02,0,.01-.04-.02-.17-.13-.39-.25-.48-.42-.05-.09.12-.3.2-.46-.26-.21-.36-.62-.15-.79.07-.06.13-.12.19-.19-.09-.03-.18-.07-.27-.1-.1-.02-.2-.03-.28-.04-.02-.05-.04-.07-.04-.1,0-.36.04-.74-.03-1.09-.06-.35-.24-.68-.36-1.01,0-.02-.05-.01-.07-.03-.08-.1-.15-.2-.22-.3-.08-.12-.12-.26-.22-.36-.16-.17-.15-.54,0-.7.1-.12.14-.29.2-.43-.13-.05-.25-.14-.39-.15-.24-.03-.5.06-.64-.28-.07-.16-.31-.34-.47-.35-.38,0-.53-.3-.77-.49-.37-.3-.53-.89-1.15-.86-.04,0-.07-.06-.11-.09-.13-.07-.25-.15-.38-.21-.09-.04-.25-.04-.27-.09-.09-.28-.32-.21-.51-.23-.15-.01-.4,0-.43-.08-.12-.3-.35-.22-.56-.23-.22,0-.44,0-.66,0-.2,0-.35-.04-.53-.21-.15-.14-.64-.14-.79,0-.18.17-.33.2-.53.21-.38,0-.76,0-1.13,0-.09,0-.24,0-.26.04-.17.37-.49.25-.77.28-.08,0-.18.03-.24.09-.27.23-.43.61-.88.56-.05,0-.1.13-.16.18-.06.05-.15.11-.22.1-.06-.01-.17-.12-.16-.16.07-.4-.3-.49-.48-.81-.08.29-.19.49.11.66.1.06.13.32.11.48-.01.08-.19.18-.31.2-.21.04-.43.03-.64.04,0,.04-.01.07-.02.11.17.12.48.19.23.47-.18.2-.36.42-.58.58-.07.05-.25-.01-.37-.05-.05-.02-.08-.1-.12-.16-.06.22-.25.45.08.59.05.02.07.29.04.31-.5.27-.51.9-.92,1.22-.2.16-.41.3-.62.44-.09.06-.2.1-.3.15.1.04.19.12.29.12.27,0,.33.11.33.36,0,.84.03.7-.64.71-.03,0-.06,0-.08,0-.07.04-.14.08-.22.12.07.05.15.15.22.14.36-.04.4.16.39.45-.01.6,0,1.2,0,1.8,0,.11.03.29.09.31.28.08.2.29.23.47.05.33-.2.76.28.98.04.02.03.15.03.22,0,.22-.01.44,0,.66,0,.1.08.19.13.28.07.12.18.23.21.36.05.26-.1.59.29.72.02,0,.01.19-.03.27-.04.07-.15.11-.22.17.04,0,.08,0,.13.01.06.2.14.39.18.59.03.15-.02.32.01.47.03.14.12.28.21.39.22.28.54.5.42.93-.02.07,0,.16,0,.23.01.19-.07.41.23.51.07.02.06.32.07.5,0,.05-.12.15-.14.14-.1-.06-.17-.15-.27-.21-.26-.16-.4-.54-.81-.43-.13.04-.26.06-.39.1.09.07.18.14.27.21.02.02.03.04.05.06.23.25.39.58.82.56.05,0,.11.09.17.13.09.06.18.16.27.15.34-.02.38.17.37.44,0,.18,0,.49.06.51.43.12.25.45.29.71.03.2,0,.5.1.58.26.17.2.39.23.61.06.41-.21.89.27,1.2.05.03.02.17.03.26.01.08,0,.2.04.22.47.19.22.6.27.91.03.18-.05.4.22.48.02,0,.01.33-.03.35-.27.09-.2.3-.16.45.02.08.21.11.33.16.07.02.15.02.27.04,0,.41,0,.81,0,1.21,0,.17-.06.38.23.41.02,0,.08.25.03.3-.17.19-.38.34-.57.51.02.05.04.1.06.14.17-.06.35-.12.52-.18.09-.04.18-.1.27-.15.05.1.12.19.14.29.03.19-.04.49.06.56.39.26.22.62.26.95.02.14,0,.37.07.4.49.24.17.41-.08.58.4.33.76.64.65,1.21-.04.23-.08.51.25.61,0,0-.02.28-.09.32-.22.12-.22.15,0,.3.3.21.61.45.52.92-.04.19-.03.52.07.59.3.18.24.43.25.68,0,.34,0,.68,0,1.02,0,.11.03.26.11.31.45.31.6.73.53,1.26-.02.14-.02.29,0,.43.01.09.07.18.11.27.07.14.14.27.2.4.03.07.01.2.05.22.42.14.23.49.27.75.03.18-.02.48.06.52.39.16.27.48.31.76.02.12.11.24.2.32.16.16.16.27-.02.4-.16.11-.34.21-.46.36-.07.09-.06.26-.07.4,0,.04.07.09.11.13.05-.07.1-.19.17-.21.12-.03.29-.06.37,0,.3.23.39.55.35.93,0,.08.12.17.17.26.05.08.12.17.11.25,0,.05-.12.13-.2.13-.21.02-.44,0-.41.32.02.19.02.38.04.57.05,0,.09,0,.14,0,.01-.13,0-.27.05-.39.03-.09.13-.15.2-.23.07.07.16.14.2.23.05.11.02.34.07.36.37.12.23.41.26.64.02.22-.04.57.07.63.32.18.21.43.25.67.02.13.06.31.15.38.29.22.29.88-.02,1.07-.05.03-.08.11-.12.16.06.03.12.08.19.1.13.02.33-.03.37.04.27.41.91.61.75,1.27-.02.07.03.22.07.24.28.09.23.31.24.51,0,.07.06.13.09.19.05-.04.13-.07.16-.13.11-.26.24-.21.39-.04.15.16.28.33.45.48.14.13.3.32.46.32.34.02.43.17.39.46-.01.12-.01.24,0,.35,0,.07.06.13.1.19.05-.04.12-.08.16-.13.14-.23.61-.32.69-.1.12.3.33.23.54.24.14.01.39,0,.4.05.13.4.44.21.68.26.13.03.25.08.37.13.13.05.25.17.37.17.66.02.58-.02.6.6,0,.12.04.3.11.33.12.06.29.02.44.02-.25-.28-.41-.68-.26-.84.29-.31.33.17.51.14.19-.12.38-.18.57-.23.17-.04.45-.03.49-.11.1-.25.27-.2.44-.21.23-.02.51.09.62-.25,0-.01.22.03.33.08.05.02.08.1.12.17.28-.29.53-.56.79-.83.06-.06.16-.16.22-.14.07.02.14.13.17.21.04.13.05.28.07.42.06,0,.12,0,.18,0,0-.22-.02-.44,0-.65.02-.11.13-.3.2-.3.55-.02.78-.49,1.07-.81.22-.24.48-.04.6-.22.13-.18.14-.44.26-.63.12-.21.39-.36.44-.57.08-.37.53-.57.44-1,0-.01.07-.03.09-.06.06-.08.13-.15.15-.24.07-.38.34-.67.73-.73.07-.01.14-.08.2-.13-.07-.04-.13-.12-.2-.13-.29-.05-.66.14-.82-.29,0-.02-.1-.03-.15-.03-.21,0-.4.02-.51-.25-.06-.15-.26-.35-.4-.35-.44,0-.58-.36-.85-.57-.23-.17-.34-.57-.75-.48-.05.01-.13-.11-.2-.18.06-.07.11-.16.19-.2.12-.05.26-.07.39-.1,0-.05-.01-.1-.02-.15-.25,0-.5,0-.76,0-.45,0-.57-.13-.45-.56.03-.12.18-.21.29-.34-.22-.07-.41-.18-.57.09-.12.21-.25.17-.39,0-.24-.28-.47-.56-.74-.82-.38-.37-.78-.72-1.17-1.08-.04-.04-.05-.12-.05-.18,0-.2-.14-.31-.24-.46-.24-.37-.76-.51-.79-1.08-.01-.18-.28-.45-.29-.75,0-.02-.04-.03-.06-.05-.27-.23-.63-.39-.61-.84,0-.04-.09-.08-.12-.13-.07-.1-.14-.2-.18-.31-.13-.31-.24-.63-.36-.95,0-.02-.04-.03-.06-.05-.07-.09-.13-.18-.2-.27.1-.05.19-.12.29-.14.36-.07.4-.14.22-.55-.05.07-.08.17-.13.18-.21.04-.43.05-.65.07,0-.22,0-.44.03-.65.01-.07.13-.12.2-.18-.1-.04-.2-.08-.3-.11-.08-.02-.17-.02-.26-.03-.16-.73-.08-1.21.3-1.51-.38-.03-.69-.1-.86-.41-.05-.09-.11-.17-.16-.26.08-.05.16-.11.25-.14.13-.04.26-.06.4-.08-.07-.11-.13-.15-.18-.14-.41.06-.53-.14-.49-.52.02-.21,0-.39-.22-.53-.1-.06-.09-.34-.06-.5.01-.07.19-.13.29-.18.09-.04.19-.06.28-.08,0-.04-.01-.07-.02-.11-.13-.01-.29,0-.4-.06-.08-.05-.17-.25-.13-.31.09-.15.24-.28.38-.4.25-.2.26-.3.09-.54-.13.09-.26.18-.39.27-.05-.16-.11-.32-.14-.49-.03-.19.07-.43-.23-.51-.03,0-.02-.23.01-.34.02-.06.13-.09.24-.16-.12-.07-.19-.09-.24-.14-.17-.15-.14-1.51.01-1.67.09-.1.19-.24.19-.37.02-.52.01-1.04,0-1.56,0-.23.06-.37.33-.37.1,0,.27-.06.28-.12.04-.13,0-.29-.02-.43-.13.04-.14.09-.18.12-.08.07-.15.14-.24.18-.02.01-.15-.1-.14-.14.02-.08.1-.15.14-.24.06-.12.1-.24.15-.36.04-.1.08-.23.15-.27.06-.03.18.08.27.13.06.03.12.06.18.1.03-.05.07-.11.08-.16.01-.1.01-.21,0-.31-.02-.27.13-.62-.29-.74.03-.11.04-.24.11-.33.15-.21.37-.38.48-.6.07-.16.02-.36.26-.45.15-.06.25-.26.38-.38.08-.08.18-.13.29-.18.01,0,.12.11.11.13-.06.1-.14.19-.21.28-.02.03-.04.07-.05.1.4.19.51.13.52-.3.02-.6.31-.89.9-.91.13,0,.25-.04.28-.04-.07-.27-.15-.48-.18-.69-.03-.24.06-.65-.06-.71-.42-.23-.22-.59-.27-.89-.06-.38.02-.65.49-.6.03,0,.07-.05.2-.15Zm-11.07,77.72c.03.22,0,.44.06.46.25.12.31.31.29.56,0,.04.09.09.14.14.04-.05.11-.1.1-.14-.02-.25.02-.46.29-.55.03,0,.02-.12.03-.18.07-.26-.24-.28-.28-.42-.09-.29-.3-.26-.46-.2-.11.04-.15.25-.18.32Zm-3.57-59.78c.41.26.39.24.09.58-.09.09-.07.45-.01.48.43.18.38.31.02.52-.07.04-.03.28-.05.42.07,0,.17.03.2,0,.19-.25.46-.45.37-.84-.06-.26,0-.54-.01-.81,0-.47-.09-.52-.6-.34Zm-13.68,33.51c-.14-.04-.22-.09-.29-.08-.31.02-.47-.08-.44-.42,0-.05,0-.13-.02-.15-.09-.05-.19-.1-.29-.12-.06,0-.13.05-.19.08.05.06.09.13.15.18.19.16.21.54.01.71-.25.22-.28.58-.07.9.14-.15.39-.3.39-.45,0-.44.19-.57.58-.54.04,0,.08-.05.17-.11Zm18.52-111.7c-.25-.02-.44-.01-.63-.05-.12-.02-.23-.1-.34-.17-.06-.04-.11-.11-.17-.16-.04.08-.08.15-.1.23-.05.14-.06.36-.16.43-.25.17-.16.33-.1.51.18-.1.34-.27.49-.26.43.05.71-.14,1.02-.52Zm7.36,143.36c-.06-.23-.16-.52-.14-.53.43-.18.19-.54.24-.82,0-.04-.06-.11-.11-.14-.03-.01-.12.03-.12.06-.04.3-.27.21-.44.25-.07.02-.12.13-.18.2.4.11.24.44.28.7.02.1.06.27.12.29.13.04.29,0,.35,0Zm45.14-12.04s.07.01.11.02c.15-.25.5-.37.44-.77,0-.04.14-.13.21-.14.05,0,.14.09.17.16.03.09,0,.21.03.31.01.05.07.1.12.12.03.01.12-.04.12-.07,0-.23.04-.47-.02-.69-.02-.07-.28-.1-.44-.11-.16,0-.4-.1-.42.19,0,.23-.05.41-.27.55-.08.05-.03.28-.05.43Zm9.5-140.8s.03.1.04.14c-.07-.19-.14-.38-.21-.57-.03-.08-.08-.16-.13-.24-.04.08-.1.15-.13.23-.02.06,0,.13-.01.19-.02.08-.07.2-.11.21-.08,0-.18-.04-.26-.09-.06-.04-.09-.11-.13-.17.06.08.13.16.19.24-.2.06-.41.12-.65.2.38.21.9-.14,1.03.28.11-.13.24-.27.36-.42Zm-52.89,60.05c-.42-.36-.43-.55-.07-.89.03-.03.07-.11.05-.13-.03-.05-.09-.1-.14-.1-.25-.01-.49-.02-.74,0-.1,0-.19.08-.29.12.1.05.2.11.3.14.08.03.17.02.31.04,0,.18,0,.34,0,.51,0,.44.08.49.58.32Zm-3.13-12.23c.02.41-.28.3-.51.33-.07.01-.13.13-.19.19.3.16.53.52.95.38.09-.03.21-.09.22-.16.02-.13,0-.29-.07-.39-.08-.12-.23-.21-.41-.36Zm19.7,106.26c0-.12,0-.33,0-.54,0-.08-.05-.21-.1-.22-.12-.02-.34-.03-.36.02-.15.35-.44.23-.69.26-.12.01-.23.08-.35.13.12.04.23.11.35.13.13.02.26-.02.39,0,.23.05.46.12.77.2Zm9.92-73.95s-.02.07-.03.1c.19.06.47.07.56.2.1.16.03.42.06.64.01.09.11.21.19.22.11.02.24-.04.35-.07-.07-.07-.14-.13-.2-.21-.04-.06-.09-.14-.08-.2.05-.22.12-.44.2-.68h-1.06Zm29.83-77.27c0-.09.02-.19,0-.27-.03-.11-.09-.29-.15-.29-.14,0-.3.06-.43.12-.06.03-.1.11-.14.16-.05.06-.1.12-.15.18.08.03.15.06.23.1.12.06.28.09.36.18.1.11.12.28.18.43.04-.18.07-.36.1-.53,0-.02,0-.05,0-.08Zm-86.49,110.82c-.1.15.09.53-.29.61,0,0,.01.16.03.16.23.02.48.08.69.02.17-.05.3-.26.44-.4-.06-.05-.11-.12-.18-.15-.2-.08-.41-.14-.68-.24Zm79.48-52c.21-.09.38-.15.54-.23.09-.04.23-.11.24-.18.01-.12-.02-.3-.1-.37-.07-.06-.33-.03-.35.02-.11.29-.34.27-.57.27-.06,0-.12.06-.17.11-.01.01.03.1.06.12.13.1.27.19.35.25Zm3.25-13.65c.05.07.15.2.26.31.04.04.16.04.19.01.13-.12.23-.26.28-.32-.09-.25-.16-.45-.24-.65-.03-.06-.08-.11-.13-.16-.04.05-.1.1-.13.16-.08.19-.14.4-.23.65Zm-12.44-41.54c0,.26-.01.48,0,.71.01.17.04.46.11.48.24.06.5.02.76.02v-.15c-.12-.02-.26-.02-.38-.07-.09-.03-.17-.12-.25-.19.06-.07.12-.13.17-.21.04-.07.12-.21.1-.23-.13-.12-.29-.21-.52-.37Zm-8.49,142.9h0c-.16,0-.31-.01-.46.01-.06,0-.15.11-.14.16.02.15.57.47.7.4.12-.06.21-.19.31-.3.05-.06.1-.12.15-.18-.08-.03-.16-.07-.24-.09-.1-.02-.21,0-.31,0Zm7.74-135.92s.06-.04.1-.06c-.15-.23-.3-.46-.46-.68-.02-.02-.16,0-.18.03-.16.22.14,1.05.39,1.1.04,0,.13-.07.15-.12.03-.08,0-.18,0-.27Zm-31.4,114.62c.21.21.44.51.87.39.08-.02.15-.07.22-.11-.07-.05-.15-.15-.22-.14-.37.04-.4-.18-.39-.46,0-.16-.03-.31-.04-.47-.02,0-.05,0-.07,0-.12.25-.23.51-.36.79Zm48.68-101.16c.13,0,.26.01.39,0,.07-.01.14-.07.21-.11-.07-.05-.14-.14-.22-.14-.19-.01-.37,0-.45-.25-.02-.06-.3-.08-.42-.03-.07.03-.11.24-.09.36.02.08.17.14.27.18.09.03.2,0,.31,0Zm-85.18,89.25c.04.47-.12.76-.62.71-.01,0-.03.01-.03.02-.02.13-.04.27-.04.41,0,.01.18.04.18.04.07-.3.34-.21.52-.28.18-.07.31-.26.46-.4.01-.01-.03-.11-.07-.15-.1-.1-.21-.18-.4-.34Zm48.67-64.34c-.28.09-.49.15-.7.22-.06.02-.1.11-.16.16.19.14.36.3.56.41.06.03.28-.05.28-.1.03-.25.01-.51.01-.69Zm-19.55,36.43c-.2-.04-.41-.19-.56.13-.03.07-.16.11-.25.12-.15.02-.31,0-.47.02-.07,0-.13.09-.19.13.07.04.13.12.2.12.49.01,1.03.14,1.27-.52Zm18.47-41.33c.07.23.11.46.21.65.1.18.26.33.4.48.01.01.15-.06.14-.07-.03-.16-.06-.33-.11-.48-.04-.1-.16-.19-.17-.29-.06-.39-.14-.44-.47-.29Zm33.39-1.89c.49.16.54.13.6-.28.01-.08.05-.17.1-.23.05-.07.13-.13.19-.19-.1-.03-.2-.09-.31-.1-.14-.02-.29-.02-.43.01-.04,0-.08.2-.08.21.54.23.15.39-.08.59Zm-28.23,108.38c.24-.07.43-.14.63-.19.12-.03.27.02.39-.02.07-.02.14-.14.14-.22,0-.1-.04-.21-.08-.31,0,0-.13,0-.13.03-.08.36-.37.25-.59.25-.43.02-.49.11-.35.46Zm-43.42-83.65c-.41-.13-.32-.45-.33-.73,0-.1.02-.21,0-.31-.03-.12-.09-.23-.14-.35-.04.12-.11.24-.12.36-.02.26,0,.52,0,.78,0,.41.16.48.59.25Zm71.67,40.02c.12.18.65.35.05.58-.01,0,.01.18.02.18.25,0,.51,0,.76,0-.02-.07-.02-.15-.06-.21-.06-.11-.18-.2-.19-.31-.06-.37-.17-.43-.58-.23Zm-57.18-67.26c.24-.22.46-.41.68-.61.04-.04.08-.09.11-.13-.05-.04-.1-.1-.17-.12-.27-.09-.35.14-.51.28-.2.17-.3.33-.18.54.01.02.04.03.07.05Zm39.55,39.63c-.36-.31-.68-.66-1.26-.28.56,0,.25.46.39.61.32-.12.59-.22.87-.33Zm-26.27-76.36c.19-.16.31-.26.43-.36.13-.11.26-.21.38-.33.03-.03.03-.11.04-.17-.2-.02-.4-.06-.6-.06-.08,0-.24.07-.24.12-.03.24-.01.49-.01.8Zm21.57,46.26c-.08,0-.16-.02-.23,0-.06.02-.11.08-.17.12.05.05.1.14.15.13.41-.04.56.31.79.53.04.04.1.07.14.1.04-.06.1-.11.11-.18.05-.3-.4-.71-.79-.7Zm-58.59,67.54c-.07.04-.19.11-.3.19-.05.04-.07.11-.11.17.05.03.1.07.16.09.2.08.4.15.6.23.05-.04.15-.13.25-.22.06-.05.11-.1.17-.16-.07-.04-.14-.08-.22-.11-.19-.07-.38-.13-.56-.18Zm38.72-1.46c-.08.11-.13.21-.2.3-.05.07-.12.13-.17.2.09.03.19.06.28.09.11.05.26.07.31.16.15.26.33.16.56.09-.27-.29-.5-.54-.77-.83Zm39.78-26.19c0-.06.08-.19.04-.25-.13-.2-.28-.4-.46-.56-.06-.05-.27-.03-.32.04-.07.08-.09.25-.06.36.02.08.15.13.25.18.17.08.34.15.55.25Zm-83.73-20.73c.1,0,.22.03.3,0,.07-.03.15-.13.16-.21,0-.11-.03-.27-.1-.33-.14-.12-.75.21-.76.4,0,.05.08.12.13.14.08.02.18,0,.27,0Zm48.98-40.69h0c.14,0,.29.01.43,0,.07-.01.13-.09.19-.14-.06-.04-.11-.1-.17-.11-.19-.02-.43.05-.48-.26,0,0-.15,0-.21.03-.05.04-.06.13-.11.19-.06.08-.13.14-.2.21.11.03.21.06.32.08.08.01.16,0,.23,0Zm2.47,11.42s0,.03-.01.04c-.1,0-.21-.02-.31,0-.05.01-.09.1-.13.15.18.14.36.3.55.41.07.04.26-.03.29-.09.05-.1.06-.3,0-.36-.09-.09-.26-.1-.4-.15Zm-35.68,30.8s0,0,0,0c0-.1.01-.21,0-.31,0-.05-.07-.1-.11-.12-.03-.01-.11.04-.12.06-.03.27-.24.2-.41.23-.08.02-.15.09-.22.14.07.04.14.1.21.11.18.02.4-.04.43.25.08-.02.2-.02.22-.06.03-.09.01-.2.01-.31Zm28.06-65.68c-.14-.09-.24-.2-.37-.22-.16-.04-.35.02-.37-.23,0-.01-.14-.02-.21-.02,0,.13-.04.26,0,.38.02.06.15.09.24.13.12.05.25.08.36.14.07.03.11.11.17.17.05-.08.09-.16.19-.33Zm-12.12,46.76c0-.09.03-.18,0-.24-.05-.08-.13-.18-.22-.19-.1-.02-.21.04-.32.06.06.07.13.14.19.21.13.14.16.26-.06.35-.06.02-.1.09-.15.14.07.04.13.1.21.12.4.07.36-.21.35-.45Zm54.11-3.68c0,.12,0,.16,0,.2.04.11.05.27.13.32.1.05.3.05.36-.02.08-.08.12-.29.07-.38-.09-.17-.25-.31-.39-.44-.01-.01-.14.05-.15.1-.03.1-.02.2-.02.23Zm-36.55-22.26c-.63-.59-.74-.62-1.18-.43.17.15.31.35.5.42.2.07.45.02.68.02Zm-42.62,80.18h0c0-.14.01-.29,0-.43,0-.07-.06-.13-.09-.19-.06.04-.12.07-.16.12-.06.07-.06.45-.02.55.01.03,0,.08.02.11.04.13.09.26.14.39.04-.13.09-.27.13-.4.01-.05,0-.1,0-.15Zm20.05-78.59s.09-.03.14-.05c-.07-.16-.1-.35-.21-.47-.15-.17-.21-.28.04-.4.05-.03.07-.11.11-.16-.06-.03-.13-.08-.19-.09-.2-.03-.29.04-.33.26-.09.44.18.67.44.91Zm24.3,48.49c-.25-.2-.4-.32-.5-.4-.21.08-.38.18-.56.22-.19.04-.38.03-.58.04v.14h1.63Zm31.46,2.51c-.09-.08-.18-.15-.28-.23-.06-.05-.12-.09-.18-.14-.03.08-.07.15-.09.23-.04.11-.06.24-.11.35-.04.08-.13.13-.19.19.05.03.1.1.15.09.13,0,.29,0,.39-.08.13-.1.2-.26.31-.41Zm-73.11-12.33l.03.12c.17-.03.46-.03.49-.11.07-.21.04-.46.02-.69,0-.05-.19-.1-.29-.11-.08,0-.16.04-.23.08,0,0,.02.14.05.15.53.24.1.38-.07.54Zm37.14-45.55c.24-.08.43-.14.62-.21.07-.03.14-.08.21-.12-.05-.05-.1-.1-.14-.15-.05-.06-.1-.13-.16-.19-.05-.04-.12-.11-.17-.1-.27.08-.44.55-.36.76Zm-33.32,118.05c.19-.2.3-.32.42-.43.07-.06.14-.11.22-.17-.1-.04-.19-.1-.29-.11-.11-.02-.23,0-.35,0-.26-.01-.27.18-.23.34.02.11.12.2.24.37Zm1.6-76.58c-.02-.24.01-.52-.06-.55-.33-.15-.23-.42-.25-.66-.01-.11-.04-.22-.05-.33-.04,0-.08.02-.12.03-.09.53-.18,1.06.49,1.51Zm19.82.19c.06-.14.11-.31-.12-.47-.09-.06-.12-.2-.16-.32-.03-.1-.04-.21-.07-.41-.16.37-.27.64-.38.91.19.08.43.17.73.3Zm12.82,49.85s.09.02.13.03c.15-.16.27-.34.44-.47.17-.13.39-.2.64-.32-.45-.16-.81-.13-1.05.24-.1.15-.11.34-.16.52Zm-50.1-32.58c.31.11.85-.15.88-.42.01-.12-.04-.24-.06-.36-.06.02-.14.03-.18.07-.21.22-.41.46-.64.71Zm70.63-52.34c.09-.03.12-.03.12-.04.09-.34.15-.71.65-.61,0,0,.04-.12.07-.18-.28.01-.61-.06-.82.07-.12.07-.02.48-.02.76Zm-69.66,52.88c0,.07,0,.13,0,.2.27,0,.55.05.81-.01.25-.07.46-.25.69-.39l-.05-.14c-.15.02-.4,0-.43.07-.13.3-.37.22-.59.24-.14,0-.29.02-.43.04Zm57.64-17.53s0,.07,0,.1c.25,0,.52.04.76-.02.07-.02.08-.31.11-.48,0-.05.02-.11,0-.15-.03-.07-.08-.13-.13-.2-.04.07-.13.14-.13.2.05.39-.14.51-.49.49-.04,0-.08.04-.12.07Zm30.94,47.19c.23.18.58.12.69.47,0,.03.3-.03.46-.04-.08-.07-.15-.15-.23-.22-.02-.02-.04-.03-.05-.05-.22-.44-.56-.18-.87-.15Zm-29.35-33.26c.15.21.23.37.36.47.08.07.24.1.35.07.07-.02.15-.16.15-.25,0-.09-.07-.27-.12-.28-.23-.03-.46-.01-.73-.01Zm-32.35,71.79c-.29-.22-.49-.41-.72-.53-.12-.06-.3,0-.45.02.08.08.15.17.23.25.02.02.04.03.05.06.23.43.56.17.89.2Zm-21.75-45.26h1.25s0-.08.01-.12c-.11-.02-.23-.03-.34-.07-.09-.03-.22-.06-.25-.13-.11-.32-.19-.32-.31,0-.04.1-.18.16-.36.31Zm22.76-83.34c-.14-.17-.24-.3-.35-.43-.03-.03-.11-.05-.13-.03-.14.13-.29.26-.38.42-.05.08.02.24.04.36.07-.06.14-.12.23-.17.07-.04.15-.08.23-.1.11-.03.23-.03.37-.05Zm35.81,40.87c-.24-.01-.43-.04-.61-.02-.1.01-.26.08-.28.16-.03.09.04.32.08.32.15.02.33,0,.46-.07.12-.06.19-.21.35-.4Zm-9.96-15.35c-.01.23-.04.43-.02.62.01.1.1.24.18.26.1.02.3-.05.31-.11.03-.13,0-.3-.07-.42-.07-.12-.21-.19-.41-.36Zm-5.79,53.75s-.06.03-.09.05c.03.15.05.43.09.43.26.02.52-.01.78-.05.01,0-.01-.25-.02-.39-.06,0-.16,0-.17.02-.22.45-.39.14-.58-.06Zm-41.44,21.95h1.2s.02-.08.03-.12c-.29-.1-.72.05-.76-.44-.17.2-.29.35-.47.55Zm79.86-68.2c.08.14.14.34.27.47.07.07.27.06.39.02.06-.02.11-.22.07-.3-.04-.09-.17-.16-.27-.18-.18-.03-.38,0-.46,0Z"/>
</svg>