<?xml version="1.0" encoding="UTF-8"?>
<svg id="Layer_1" data-name="Layer 1" xmlns="http://www.w3.org/2000/svg" viewBox="0 0 180 180">
  <path d="m119.76,70.79c.4-.35.79-.68,1.3-1.12-.57,0-1.02,0-1.48,0q-.87,0-.87-.85c0-2.81.01-5.63-.01-8.44,0-.55.06-.93.72-.88.04,0,.08-.06.16-.12-.25-.23-.52-.42-.72-.66-.1-.12-.14-.32-.14-.49-.01-.89-.02-1.78,0-2.67,0-.35-.11-.5-.47-.47-.25.02-.51.04-.76,0-.26-.04-.5-.16-.81-.26-.14.4-.6.27-1.01.27-.4,0-.8.01-1.2-.01-.1,0-.23-.1-.27-.19-.03-.06.05-.19.11-.27.07-.1.17-.18.25-.27-.13-.04-.26-.13-.38-.11-.11.01-.3.15-.29.22.08.74-.42.65-.88.65-1.81,0-3.63.01-5.44-.01-.43,0-.6.13-.55.56.02.16,0,.33,0,.49.02.4.06.79-.57.97.71.25.56.74.56,1.18,0,1.29,0,2.58,0,3.87v.61c-.2.02-.34.02-.47.06-.13.04-.25.12-.38.19.13.06.26.13.4.17.12.03.25.03.45.05,0,.98.01,1.96-.02,2.93,0,.11-.25.27-.4.3-.51.11-.56.19-.32.76.08-.09.13-.18.21-.23.11-.07.24-.15.36-.15.06,0,.17.18.17.29.01,1.49.02,2.98,0,4.46,0,.16-.22.32-.36.51.51.17.38.63.38,1.04,0,4.41-.02,8.82.02,13.23,0,.57-.19.95-.55,1.31-.25.25-.52.47-.92.83.44.03.71.06.98.06.3,0,.48.08.47.43-.02.67.08,1.36-.04,2.01-.07.38-.48.69-.76,1.07-.01-.01.03.05.08.07.23.08.62.1.66.22.1.33.08.72.02,1.07-.02.1-.3.22-.46.23-.46.03-.39.34-.39.62,0,.29-.05.62.4.6.32-.01.49.09.49.47-.01,2.63,0,5.26-.01,7.9,0,.1-.03.21-.04.27-.3.1-.76.15-.78.28-.09.48-.04.98-.04,1.47.04,0,.09.01.13.02.06-.07.12-.17.2-.22.11-.07.24-.15.36-.14.07,0,.16.19.16.29.01,1.63.01,3.27,0,4.9,0,.11-.13.23-.2.33-.06.08-.17.13-.21.22-.12.29-.21.6-.35.98.15.12.42.32.65.55.08.08.11.26.11.39,0,3.21,0,6.43,0,9.64,0,.15-.19.3-.23.46-.06.24-.14.71-.09.72.4.13.33.42.34.71q0,1.22,1.24,1.22c1.02,0,2.03,0,3.05,0,.71,0,.71,0,.71.72,0,.35,0,.74.49.59.28-.09.49-.37.74-.57-.11-.08-.22-.16-.34-.23-.16-.09-.33-.17-.49-.26.17-.08.33-.22.5-.24.32-.04.65-.03.98,0,.14.01.29.1.39.21.27.31.58.3.85-.03.08-.1.26-.18.39-.18,2.47-.01,4.93,0,7.4-.01.35,0,.43.15.43.46,0,2.14,0,4.28,0,6.42,0,.48-.46.6-.68.91-.05.08-.12.15-.18.22.07.05.13.12.2.14.21.07.42.12.63.17-.12.18-.24.36-.38.58.54.15.4.62.4,1.03,0,1.45,0,2.9,0,4.36,0,.25-.1.5-.16.74-.2-.11-.4-.21-.6-.32-.13.29-.27.62-.45,1.05.2.08.43.17.67-.16.07-.1.26-.13.39-.19.05.12.15.25.15.37.01,1.45.01,2.9,0,4.36,0,.12-.09.3-.18.33-.09.03-.29-.06-.34-.16-.2-.34-.45-.28-.8-.14.11.1.19.15.24.22.07.11.19.26.15.35-.03.1-.21.2-.33.2-1.16.01-2.32.02-3.48-.01-.17,0-.34-.24-.49-.35-.19.12-.36.31-.57.36-.37.08-.68.02-.68-.5,0-.13-.24-.27-.4-.37-.08-.05-.21-.01-.32-.01-.97,0-.96,0-1.03-.97-.01-.14-.15-.28-.23-.41-.07-.12-.2-.24-.2-.36,0-.07.2-.2.31-.21.43-.03.87-.02,1.31-.02,1.2,0,2.4-.03,3.59.01.57.02.72-.18.68-.71-.04-.65,0-1.31-.01-1.96,0-.34.09-.5.46-.51.14,0,.39-.15.39-.23,0-.33-.04-.66-.11-.98-.03-.14-.19-.24-.29-.36.14-.08.27-.2.42-.23.5-.1.56-.22.32-.71-.18.12-.48.37-.52.33-.26-.22-.63-.51-.64-.79-.06-1.45-.07-2.9,0-4.35.01-.28.44-.78.67-.78.49.02.59-.41.92-.54.02,0-.02-.29-.07-.31-.15-.05-.32-.02-.48-.02-.66,0-1.06-.4-1.06-1.04,0-.51-.03-1.02,0-1.52.04-.5-.16-.61-.62-.61-.32,0-.64-.15-1.05-.26-.41.47-2.63.46-3.09-.2-.28.69-.86.47-1.36.47-1.81.01-3.63-.01-5.44.02-.51,0-.81-.08-.74-.67,0-.06-.05-.12-.1-.25-.27.29-.5.56-.75.79-.08.07-.22.1-.34.11-.29.02-.58-.01-.87.01-.44.04-.7-.06-.67-.58,0-.1-.17-.29-.28-.3-.3-.03-.47-.19-.7-.36-.35-.26-.33-.51-.33-.82,0-3.18,0-6.35,0-9.53,0-.32.16-.64.24-.96-.07-.26-.24-.56-.24-.87-.02-4.23-.01-8.46-.01-12.69,0-.05-.01-.11,0-.16.05-.19.11-.39.16-.58.17.11.34.22.57.37.02-.04.12-.12.13-.21.02-.27,0-.54.02-.82.03-.4-.03-.67-.53-.65-.11,0-.33-.23-.33-.36-.03-1-.04-2,0-2.99,0-.19.23-.38.38-.6-.54-.17-.39-.65-.4-1.07,0-1.05-.02-2.11.01-3.16,0-.19.24-.37.26-.56.05-.4.06-.8.02-1.2-.02-.18-.28-.35-.28-.53-.02-1.36,0-2.72-.02-4.08,0-.37.11-.5.49-.51.62-.02.97-.66.68-1.23-.24.27-.46.55-.72.78-.07.06-.4-.05-.4-.09-.03-.52-.11-1.07.02-1.57.08-.3.5-.5.83-.8-.7-.11-.25-.94-.82-1.23-.15-.07-.08-.65-.06-.99.02-.29-.18-.67.31-.82.06-.02,0-.49-.05-.74-.04-.18-.24-.34-.25-.51-.03-.62.04-1.24-.03-1.85-.07-.67.24-1.07.73-1.42.06-.04.09-.13.13-.2-.09-.05-.18-.15-.26-.14-.62.09-.61-.29-.6-.73.02-1.07.06-2.15-.02-3.21-.04-.55.38-.75.58-1.1.12-.2.4-.3.55-.5.12-.16.19-.4.17-.6,0-.08-.32-.2-.47-.17-.12.03-.21.24-.3.38-.09.14-.17.3-.25.45-.09-.16-.25-.33-.25-.49-.02-2.07-.02-4.14,0-6.21,0-.2.09-.54.21-.58.29-.1.66-.17.82.26.01.04.08.06.13.08.28-.52.19-.71-.35-.71-1.01,0-.82-.12-.82-.84,0-1.34.01-2.69-.01-4.03,0-.47.04-.79.63-.72.08,0,.17-.08.13-.06-.12-.36-.22-.66-.32-.95-.02-.06-.05-.15-.1-.18-.5-.24-.19-.36-.05-.7.22-.54.5-.72.98-.98.38-.21.45-.39.73.05.06.09.49-.01.73-.07.16-.04.3-.24.45-.24,4.26-.01,8.53-.02,12.79,0,.23,0,.48.25.68.44.39.35.8.68.72,1.33-.08.66-.01,1.34-.02,2.01,0,.4.14.88-.59.95.85.38.58,1.05.59,1.61.02,3.67,0,7.33,0,11,0,.76,0,.76.75.76,2.09,0,4.17,0,6.26,0,.26,0,.62-.12.68.34,0,.01.28.04.32-.01.22-.29,1.14-.49,1.37-.24.11.12.08.37.13.55.03.1.09.18.14.27.08-.06.17-.1.23-.17.35-.45.69-.81,1.38-.76,1.16.08,2.32,0,3.48.03.44,0,.6-.13.59-.59-.02-2.76,0-5.52,0-8.28,0-.62.37-1.02.96-1.11.13-.02.33-.18.34-.28.02-.16-.08-.44-.18-.47-.17-.05-.4.04-.58.11-.14.05-.25.17-.37.26-.05-.16-.15-.31-.15-.47-.01-1.18-.02-2.36,0-3.54,0-.27.18-.53.3-.85-.47-.18-.31-.69-.32-1.15,0-.56,0-1.12,0-1.64.09-.06.12-.09.15-.1.23-.06.47-.11.7-.17-.19-.22-.35-.49-.59-.65-.35-.23-.33-.34-.04-.63.28-.28.75-.47.68-1.03-.02-.13.23-.29.43-.52-.16-.05-.3-.08-.44-.14-.15-.06-.29-.13-.44-.2.09-.13.18-.26.28-.39.04-.05.09-.1.13-.14-.04-.05-.06-.1-.08-.1q-.77-.21-.77-1.04c0-1.72,0-3.45,0-5.17,0-.36-.15-.8.54-.88-.68-.26-.53-.74-.54-1.16,0-.69-.03-1.38,0-2.07.02-.47-.11-.64-.6-.63-1.2.03-2.39.03-3.59,0-.34,0-.68-.15-1.09-.25-.13.37-.59.26-1,.26-1.8,0-3.59-.01-5.39,0-.48,0-.65-.16-.62-.63.02-.31.15-.71-.35-.84-.06-.01-.04-.24-.09-.35-.07-.16-.17-.43-.25-.43-.19,0-.38.13-.56.23-.15.09-.28.22-.46.36.27.23.57.41.74.67.13.19.14.5.12.75,0,.09-.27.22-.41.22-1.67.02-3.34,0-5.01.02-.38,0-.52-.15-.5-.52,0-.11-.11-.22-.18-.33-.06.11-.18.23-.17.34.03.43-.2.52-.57.51-.71-.01-1.42.02-2.12-.02-.23-.01-.43-.23-.67-.29-.22-.05-.46-.05-.68,0-.24.06-.45.28-.68.29-3.1.02-6.2,0-9.31.02-.47,0-.67-.15-.62-.63.02-.24-.02-.48-.04-.72-.07,0-.14,0-.21-.01-.02.25-.07.51-.06.76.02.44-.15.6-.6.6-7.65,0-15.31-.01-22.96,0-.49,0-.65-.18-.61-.64.02-.24-.03-.48-.05-.79-.29.28-.51.48-.76.72.08.05.18.08.24.15.08.1.21.23.19.32-.02.1-.19.22-.3.22-1.47.02-2.94.02-4.41,0-.18,0-.35-.23-.4-.27-.41.11-.72.26-1.03.28-.78.04-1.56.03-2.34,0-.2,0-.41-.13-.61-.2.11-.18.22-.35.33-.54-.4-.3-.65-.2-.72.31-.02.13-.06.31-.15.37-.35.25-1.65,0-1.94-.39-.28.6-.81.44-1.28.44-5.28,0-10.56,0-15.84,0-.34,0-.66.05-.96-.31-.15-.18-.88-.17-1.07.02-.25.26-.46.28-.74.29-.27,0-.55.01-.82,0-.13-.01-.32-.04-.38-.13-.37-.56-.83-.22-1.14-.24.1.36.26.67.26.97.02,4.99.01,9.98.01,14.97,0,.74-.29,1.06-1.03,1.23-.51.11-.26.46-.21.85.18-.21.28-.4.43-.46.52-.21.81.01.81.58,0,1.25.02,2.51-.01,3.76,0,.3-.17.6-.27.92.08.25.21.57.27.91.08.45-.01.8-.6.74-.08,0-.25.13-.25.21-.03.33-.01.66-.01.99.05,0,.09.01.14.02.05-.06.1-.13.16-.17.13-.1.26-.18.39-.27.06.13.18.27.18.4.01,1.27.02,2.54,0,3.81,0,.2-.19.39-.32.63.4.13.34.53.33.92,0,.47.07.96-.02,1.41-.11.59.26.94.5,1.36.02.04.28,0,.29-.02.05-.44.38-.37.66-.37,1.58,0,3.16-.01,4.73,0,.22,0,.61.15.62.24.01.41-.08.82-.15,1.22-.01.06-.13.1-.2.15,0,.05.01.1.02.15.51,0,1.02,0,1.53-.02.04,0,.06-.22.11-.33.09-.18.22-.35.3-.53.06-.14.13-.29.12-.44-.01-.33.12-.46.44-.46,1.56,0,3.12,0,4.68.01.13,0,.27.16.39.26.08.06.13.14.2.2.06-.06.13-.11.17-.18.18-.4.35-.37.6-.05.1.13.34.21.51.21.08,0,.22-.26.22-.4.02-.8.01-1.6.01-2.4,0-4.65.02-9.29-.03-13.94,0-.65.37-.96.66-1.38.38-.55.95-.52,1.5-.46.3.03.6.17.98.28.2-.52.79-.29,1.29-.28.48.01,1.06-.26,1.34.5.1-.15.14-.24.21-.3.08-.08.22-.2.26-.18.1.06.2.18.22.3.04.17-.02.37.02.54.04.16.13.39.26.43.15.05.35-.08.52-.13-.07-.2-.12-.4-.2-.6-.05-.14-.13-.26-.19-.39.12-.06.24-.16.36-.16,2.79,0,5.59,0,8.38-.01.31,0,.42.13.42.42,0,.14.04.27.07.48.12-.1.18-.15.24-.19.13-.08.27-.16.41-.24.06.14.16.28.16.42.01,2.16.01,4.32,0,6.48,0,.14-.1.28-.16.41-.14-.08-.29-.14-.41-.24-.21-.17-.4-.37-.63-.58-.21.22-.44.82-.76.06,0-.01-.29.06-.29.09,0,.34-.09.79.09.98.34.36.79.72,1.38.5.08-.03.13-.11.2-.16.13-.09.27-.16.41-.25.06.15.16.31.16.46,0,2.89.01,5.77,0,8.66,0,.21-.18.42-.32.71.06.07.27.23.29.41.01.13-.23.28-.38.44,0,.02,0,.09.04.12.12.13.24.25.37.37-.17.09-.34.18-.51.27-.12.06-.33.13-.33.2.01.6-.5.82-.79,1.21-.2.27-.12.74-.16,1.13.05,0,.1,0,.15,0,.32-.29.66-.57.96-.89.09-.1.06-.31.13-.45.07-.15.2-.28.3-.42.09.15.24.3.25.45.02,1.56.01,3.12.01,4.68,0,.69.02,1.38-.01,2.07-.01.27-.15.53-.23.79.07.28.22.59.23.92.03,1.29.02,2.58,0,3.87,0,.16-.1.32-.15.48-.14-.08-.3-.13-.42-.24-.28-.24-.52-.28-.76.05-.05.07-.12.19-.17.18-.57-.04-.88.18-.83.79,0,.03-.15.12-.21.1-.09-.02-.2-.1-.22-.18-.04-.15-.03-.32-.03-.49,0-1.83-.01-3.67.01-5.5,0-.3.17-.6.28-.98-.49-.19-.29-.75-.29-1.24,0-4.1,0-8.2,0-12.31,0-.28-.06-.54.3-.78.17-.11.14-.9-.07-1.12-.33-.33-.22-.63-.16-.93.02-.09.55-.21.65-.12.18.17.26.49.28.76.06.56.15.63.57.46-.09-.38-.22-.72-.23-1.07,0-.42-.12-.58-.56-.56-.78.02-.78,0-.78-.8,0-2.12,0-4.25,0-6.37,0-.26.07-.57-.37-.56-.58.02-1.28.19-.97-1.03-.07.06-.13.11-.2.17-.07.08-.12.19-.2.25-.11.07-.24.15-.36.14-.06,0-.17-.19-.16-.28.06-.52-.21-.62-.65-.58-.23.02-.49-.05-.7.03-.15.05-.3.25-.34.41-.07.26.07.4.36.39.24-.01.47-.02.71.02.08.01.21.16.21.24,0,.08-.13.2-.22.23-.15.04-.32.02-.49.02-2.68,0-5.37,0-8.05,0-.15,0-.29-.02-.43.01-.08.02-.15.11-.23.17.08.06.16.18.22.17.64-.08.65.32.63.78-.02.4.01.8-.02,1.2,0,.13-.1.29-.21.38-.29.24-.3.58-.03.84.12.12.24.31.24.48.01,2.58,0,5.15.02,7.73,0,.69-.46.51-.82.52-.57.03-.68.27-.36.8.12-.15.21-.35.36-.42.45-.23.81.01.81.52,0,1.18.02,2.36-.01,3.54,0,.2-.2.4-.29.61-.05.11-.14.22-.13.33.03.46-.22.53-.61.53-.91-.02-1.81,0-2.72-.01-.34,0-.77.16-.97-.35-.02-.05-.46.03-.69.09-.18.05-.34.25-.51.25-2.88.02-5.77.02-8.65,0-.23,0-.46-.21-.73-.34-.16.5-.64.36-1.07.36-1.34,0-2.68-.01-4.03,0-.43,0-.58-.14-.56-.57.02-.32.13-.7-.33-.88-.07-.03-.1-.26-.1-.39,0-1.83-.02-3.67.01-5.5,0-.23.21-.45.34-.71-.49-.16-.35-.65-.35-1.07,0-.78,0-1.56,0-2.34,0-.27.07-.4.37-.48.32-.09.6-.33.89-.52.03-.02,0-.17-.05-.23-.03-.04-.13-.04-.2-.05-.32-.03-.81.04-.91-.12-.17-.27-.1-.69-.1-1.05,0-2.43.01-4.86-.02-7.3,0-.55.15-.76.7-.72.2.01.52-.06.6-.2.15-.26-.09-.43-.28-.64-.22-.24-.39-.36-.7-.39-.11-.01-.28-.22-.29-.35-.03-.71-.04-1.42,0-2.12.01-.19.24-.37.4-.59-.54-.14-.42-.58-.42-.98,0-2.58,0-5.15,0-7.73,0-.39.08-.57.52-.63.28-.04.52-.34.92-.63-.48-.23-.86-.41-1.24-.6-.07-.04-.15-.11-.17-.18-.32-.86.28-1.74,1.2-1.74.25,0,.51.01.76,0,.5-.03.92-.01.83.69,0,.07.24.26.35.25.15,0,.42-.18.41-.26-.08-.7.35-.71.85-.69.56.02,1.12,0,1.69,0,.33,0,.67-.09.88.34.12.25.98.13,1.18-.09.11-.11.27-.24.41-.24,1.11-.02,2.21-.03,3.32,0,.2,0,.4.19.52.25.36-.09.68-.25,1.01-.26,2.59-.02,5.19-.01,7.78,0,.25,0,.53-.07.69.29.04.09.48.05.72,0,.22-.05.41-.27.61-.28,3.88-.02,7.76,0,11.65-.02.41,0,.63.11.57.56-.02.14-.03.3,0,.43.04.15.14.36.24.38.16.03.46-.03.51-.13.07-.17.04-.53-.06-.58-.27-.15-.45-.3-.22-.55.07-.07.41.12.68.21.52-.49,3.05-.49,3.56.09.52-.58,3.08-.57,3.63.02q.47-.52.91-.02c.3-.34,1.45-.58,1.87-.35.12.07.12.33.2.5.07.14.15.38.24.39.31.02.63-.04.95-.07-.05-.09-.08-.22-.16-.26-.11-.05-.26,0-.37-.04-.11-.05-.25-.17-.25-.26,0-.1.15-.27.24-.28.6-.03,1.2-.03,1.79,0,.09,0,.18.17.27.26-.1.1-.18.22-.3.29-.17.09-.36.14-.54.21.21.06.41.14.62.17.18.03.36,0,.54,0,.37.04.55-.09.51-.48-.03-.35.14-.48.48-.48,1.22,0,2.43,0,3.65.02.17,0,.36.15.5.28.28.24.54.25.79-.01.22-.24,1.09-.43,1.32-.22.12.1.1.35.16.53.04.12.11.23.17.35.07-.11.2-.22.18-.32-.07-.54.22-.63.67-.62,2.76.01,5.51,0,8.27.02.29,0,.58.16.82.23.35-.08.7-.23,1.04-.23,6.6-.01,13.21-.01,19.81,0,.37,0,.8-.12.86.28.4-.1.73-.26,1.06-.27,2.43-.02,4.86,0,7.29-.02.49,0,.7.14.65.65-.04.38.02.76-.02,1.14-.03.27-.15.54-.26.88.45.39.45,1.76-.17,2.19.58.21.44.69.44,1.11,0,7.04,0,14.08,0,21.13,0,.3-.16.6-.27.98.5.23.28.82.28,1.33.01,2.74,0,5.48,0,8.22,0,.64-.43,1.07-1.07,1.07-1.6,0-3.19,0-4.79,0-.19,0-.39-.11-.58-.17.11-.15.21-.32.33-.46.31-.36.63-.7,1.03-1.14-.35-.02-.7-.08-1.04-.03-.1.01-.14.34-.23.52-.06.13-.15.25-.23.38-.12-.08-.23-.2-.36-.25-.2-.07-.42-.15-.63-.13-.07,0-.19.33-.14.44.06.13.28.18.43.27.16.1.32.2.48.3-.16.1-.33.27-.49.27-4.24.02-8.49.01-12.73,0-.47,0-.94-.51-.95-.98,0-.44-.03-.87.01-1.31.02-.19.15-.48.29-.52.27-.07.64-.15.74.3,0,.05.06.08.01.02Zm2.93.38c-.35.11-.61.2-.88.26-.23.06-.55,0-.7.14-.33.29-.58.67-.93,1.11.38,0,.71.01,1.04-.01.07,0,.2-.15.19-.21-.1-.74.41-.65.86-.65.54,0,.63-.2.42-.64Zm-17.35-6.89c-.03.07-.09.16-.1.26-.03.26.02.57-.38.61-.01,0-.05.24,0,.31.1.13.24.25.38.3.2.07.47.17.62.1.22-.11.36-.38.53-.58-.04.04-.08.08-.12.11-.31-.36-.62-.72-.94-1.1Zm.13,49.87c-.26.18-.46.29-.63.45-.05.05,0,.29,0,.29.39.02.36.31.4.58.02.12.16.31.26.32.15.02.32-.07.46-.15.08-.05.12-.16.18-.25.07-.1.15-.19.23-.28-.11-.04-.23-.12-.33-.11-.38.03-.52-.14-.5-.5,0-.11-.05-.23-.07-.35Zm-35.8-61.14s0-.04-.03-.05c-.04-.03-.1-.04-.15-.06-.87-.33-.97.46-1.3.91-.09.13-.13.31-.15.48-.01.09.07.2.07.21.52-.5,1.03-.98,1.55-1.47Z"/>
  <path d="m61.44,146.05c-.37.11-.67.23-.98.28-.26.04-.55-.03-.81.02-.61.11-.94-.29-1.24-.69-.18-.23-.46-.34-.48-.76-.04-.75.35-1.15.89-1.55-.25-.23-.51-.44-.73-.69-.08-.09-.12-.26-.12-.39,0-1.56-.01-3.12,0-4.68,0-.15.14-.33.27-.44.21-.21.21-.59,0-.79-.13-.13-.26-.32-.26-.49-.02-3.18-.01-6.35-.01-9.53,0-.48.46-.94.94-.95.44,0,.87,0,1.31,0,.25,0,.49-.05.61.3.03.08.65.08.68.01.14-.41.45-.31.72-.31,3.81,0,7.62,0,11.43,0,.46,0,.72-.07.68-.61-.01-.16.22-.35.26-.4-.11-.37-.27-.67-.27-.98-.02-2.9-.01-5.81-.01-8.71,0-.34-.1-.73.5-.81-.57-.23-.51-.63-.51-1.02,0-2.54,0-5.08,0-7.62,0-.36-.14-.8.53-.89-.69-.27-.53-.77-.53-1.21,0-1.13-.02-2.25,0-3.38,0-.3.16-.6.27-.99-.49-.21-.28-.79-.28-1.28,0-3.14,0-6.28,0-9.42v-.76c.73.1.96-.5,1.4-.82.29-.21.83-.17,1.22-.1.12.02.15.54.21.79-.38.14-.79.18-.88.37-.13.27-.03.66-.03.99.07,0,.14,0,.21.01.03-.13.04-.27.1-.38.09-.16.21-.3.32-.46.08.17.23.33.24.5.02.83.03,1.67,0,2.5-.01.31-.16.61-.24.87.08.28.24.58.24.89.02,3.09-.01,6.17.03,9.26,0,.58-.15,1.02-.53,1.39-.39.39-.82.75-1.24,1.28.31.02.63.09.92.03.12-.02.17-.33.28-.49.09-.13.21-.23.31-.34.08.11.22.22.23.35.03.38.05.77,0,1.14-.03.21-.22.39-.26.44.11.4.24.72.27,1.05.04.49.02.98,0,1.47,0,.26.07.53-.3.67-.09.03-.08.66-.02.68.43.12.31.43.32.7,0,.14,0,.29,0,.44,0,.39.12.85-.52,1.01.16.11.25.15.32.22.08.08.18.19.17.27-.01.08-.14.17-.24.21-.08.04-.19-.01-.27.02-.11.05-.21.13-.32.2.1.06.21.17.3.16.54-.06.56.26.56.67,0,4.59,0,9.18,0,13.77,0,.41-.03.73-.56.66-.07,0-.19,0-.21.04-.31.67-.91.38-1.38.39-1.47.03-2.94,0-4.41.02-.4,0-.79.05-.94-.46-.19.17-.34.42-.51.43-.63.04-1.27.02-1.9-.02-.07,0-.15-.25-.17-.39-.04-.28-.03-.57-.05-.86-.07-.02-.15-.03-.22-.05-.24.4-.48.8-.72,1.2l.1.15c-.28,0-.57,0-.85,0-1.36,0-2.72.01-4.08-.01-.18,0-.35-.22-.54-.27-.33-.08-.68-.13-1.02-.12-.07,0-.19.31-.19.48,0,.23,0,.58.15.68.26.18.51.03.69-.28.1-.17.4-.2.46.15.02.12.01.25.01.38,0,2.94,0,5.88,0,8.82,0,.05.02.12,0,.16-.08.15-.16.3-.25.45-.11-.13-.23-.26-.31-.41-.06-.12-.07-.28-.13-.53-.21.47-.36.81-.55,1.24.11.02.29.05.47.09.25.05.49.11.74.16-.12.18-.24.37-.38.58.54.15.4.61.4,1.03,0,.65,0,1.31,0,1.96q0,.75.78.76c1.65,0,3.3,0,4.95,0,.4,0,.51.15.69.53.25.53.28.92-.04,1.38-.1.15-.16.32-.24.49-.12-.1-.23-.23-.37-.29-.17-.07-.38-.13-.55-.1-.09.02-.21.24-.21.36.01.4-.18.5-.54.49-1.05-.01-2.1.01-3.16-.02-.24,0-.47-.2-.64-.27Zm13.41-29.38c.07,0,.14.01.21.02.31-.46.62-.92.92-1.39.03-.05.01-.13.02-.2-.39,0-1.06-.09-1.11.05-.18.47-.13,1.02-.04,1.53Z"/>
  <path d="m25.76,167.42c.62.14.57.56.57.98-.01.63.01,1.27-.01,1.9,0,.17-.13.34-.21.51-.12-.09-.24-.2-.38-.27-.08-.04-.18-.04-.28-.06,0,.2.01.41.04.61,0,.02.09.04.15.05.25.07.7-.09.66.35-.05.56.29,1.14-.3,1.69-.4.37-.76.37-1.18.37-3.97,0-7.94,0-11.91,0-.3,0-.65.11-.83-.33-.02-.06-.54-.03-.71.11-.33.28-.7.22-1.06-.02-.52-.35-.42-.81-.43-1.27,0-.87-.02-1.74.01-2.61,0-.17.13-.37.26-.51.26-.27.3-.59.02-.78-.54-.36-.22-.85-.25-1.28,0-.06.36-.17.56-.23.26-.07.4-.53.2-.74-.19-.2-.43-.34-.61-.55-.1-.12-.18-.31-.18-.46-.01-1.83-.03-3.67.02-5.5,0-.29.31-.58.5-.84.38-.5.91-.6,1.5-.51.11.02.28.11.28.16,0,.11-.11.22-.16.33-.08.17-.17.35-.22.53-.02.07.09.17.13.26.07-.06.14-.12.22-.18.33-.25.49-.78,1.05-.68.05,0,.14,0,.15-.03.29-.65.87-.38,1.33-.38,3.01-.02,6.02-.01,9.03,0,.32,0,.69-.12.87.34.04.1.4.08.61.09.23.01.47.02.71,0,.31-.02.42.14.42.42,0,.96.01,1.92-.01,2.88,0,.15-.16.33-.29.44-.25.21-.25.53-.02.76.15.14.29.35.31.55.04.54.02,1.09.01,1.63,0,.29.07.62-.37.74-.08.02-.12.62-.05.64.86.35.24.58-.14.86Zm-4.72,3.53c.29-.08.58-.2.87-.23.36-.04.72-.02,1.09,0,.35.02.49-.11.48-.47-.02-.58.06-1.17-.02-1.74-.09-.62.27-.97.6-1.37.14-.17.24-.39.26-.6,0-.06-.32-.15-.49-.24-.11-.06-.29-.11-.31-.2-.02-.1.09-.24.16-.34.05-.08.14-.13.22-.19-.06,0-.12,0-.17,0-.08-.27-.23-.54-.24-.81-.03-1.07-.02-2.14,0-3.21,0-.42,0-.78-.58-.7-.09.01-.19-.15-.29-.22.09-.1.18-.23.29-.31.06-.05.18-.02.27-.03.43-.06.39-.5.25-.59-.24-.15-.6-.14-.91-.13-.1,0-.24.23-.26.37-.09.51-.53.93-1.05.93-.89,0-1.78.01-2.67-.01-.17,0-.36-.14-.49-.27-.21-.21-.59-.21-.79,0-.12.13-.32.26-.49.27-.83.03-1.67.04-2.5,0-.32-.01-.64-.16-.99-.25-.03.27-.57.31-.56.88.06,2.87.04,5.73.02,8.6,0,.49.15.66.65.65,2.27-.02,4.53-.02,6.8,0,.3,0,.59.15.88.23Zm-10.1-10.42c0,.1-.1.39-.02.45.54.38.38.67,0,1.07-.2.2-.23.56-.34.86.13.15.3.36.47.57.28-.31.53-.63.83-.91.35-.32.37-.51.01-.82-.23-.2-.31-.4.06-.54.1-.04.19-.07.37-.15-.58-.22-.95-.37-1.39-.53Z"/>
  <path d="m22.46,6.9c.04-.07.08-.15.14-.2.1-.08.21-.14.32-.2.06.1.13.19.17.3.07.17.11.35.16.53.1-.11.18-.26.31-.31.36-.14.49-.57,1.01-.58.6-.01.84.39,1.23.64.65.41.51,1.05.52,1.65,0,.45-.01.91,0,1.36.01.39-.07.64-.54.6-.12-.01-.25.12-.37.19.12.06.23.15.35.16.24.03.58-.05.54.34-.04.39.27.89-.3,1.14-.06.03-.11.08-.23.16.56.14.56.52.56.93,0,2.58,0,5.15,0,7.73,0,.65-.44,1.1-1.08,1.1-4.77,0-9.54,0-14.31,0-.42,0-.67-.09-.62-.56,0-.07,0-.19-.04-.2-.64-.27-.36-.83-.39-1.27-.04-.56,0-1.12,0-1.69,0-.89.21-1.15,1.07-1.37.08-.02.15-.12.22-.18-.08-.06-.15-.12-.23-.17-.01,0-.04,0-.05,0-.32-.04-.78.04-.91-.14-.17-.23-.09-.66-.09-1,0-2.61,0-5.23,0-7.84,0-.59.38-1.02.96-1.1.09-.01.23,0,.26-.05.31-.62.88-.38,1.34-.38,3.01-.02,6.02-.01,9.03,0,.37,0,.8-.13.86.56.05-.04.1-.09.15-.13Zm-4.25,2.08c-.02.44-.46.33-.83.33-1.27,0-2.54,0-3.81,0-.82,0-.84,0-.85.82,0,.39-.15.56-.55.53-.43-.03-.87,0-1.31,0-.31,0-.41.12-.42.42,0,.32.15.4.44.4.39,0,.83-.13,1.03.4.06.16.24.27.36.4.61.64.62,1.04.03,1.59-.05.04-.06.12-.09.19-.1.3-.19.61-.3.97-.03-.01.05.05.12.04.59-.07.69.25.68.75-.02,1.03,0,2.07,0,3.1,0,.7,0,.74.72.7.53-.03.64.19.63.66-.02.8.59,1.29,1.37,1.12.11-.02.26-.14.29-.25.2-.65,0-.94-.68-.95-.11,0-.24.03-.32-.02-.11-.07-.19-.2-.28-.31.1-.08.2-.22.3-.22,1.63-.01,3.26-.01,4.9,0,.1,0,.25.1.27.18.03.09-.04.24-.11.32-.07.09-.19.13-.31.21.47.23,1.03.21,1.24.01.14-.13.32-.21.5-.3.12-.06.25-.09.38-.15.2-.09.4-.24.61-.28.26-.05.54-.03.81,0,.33.02.45-.11.45-.44-.01-.41-.12-.88.42-1.1.2-.08.38-.2.56-.3.11-.06.28-.11.33-.21.26-.62-.02-1.06-.69-1.03-.52.03-.64-.18-.63-.66.02-1.89-.04-3.78.04-5.66.03-.66-.35-.99-.7-1.54-.11.73-.59.61-1,.61-.85,0-1.71.03-2.56-.01-.32-.02-.62-.19-1.03-.32Zm-6.07,9.1c-.67-.26-.8-.18-.81.43,0,.54,0,1.09,0,1.63,0,.13.08.25.14.42.27-.28.46-.48.68-.72-.76-.27-.46-.57,0-.83-.6-.43-.6-.54-.02-.93Zm4.05-9.18c.32-.26.55-.4.71-.6.12-.15.22-.38.21-.57,0-.09-.28-.22-.43-.23-.32-.02-.83.57-.78.89.02.15.16.28.29.5Z"/>
  <path d="m160.65,158.93c.09-.06.14-.07.15-.1q.27-.78,1.15-.78c3.1,0,6.2,0,9.3,0,.66,0,1.06.4,1.07,1.05,0,.4,0,.8,0,1.2,0,.24.05.5-.3.61-.07.02-.03.48.02.72.04.19.26.37.27.55.02,3.61,0,7.22.02,10.83,0,.44-.16.56-.57.56-3.12-.01-6.24,0-9.36-.02-.2,0-.53-.12-.56-.24-.06-.3-.21-.71.31-.83.03,0,.05-.08,0,0-.33-.13-.61-.24-.89-.35q-.18.13-.49-.29c-.25.09-.48.18-.71.26l-.19-.79c-.06,0-.12.01-.17.02,0,.36-.05.73.03,1.06.03.1.44.11.68.14.14.02.29.01.43,0,.38-.03.6.04.6.52,0,.49-.26.52-.62.51-.36-.01-.73,0-1.09,0-.28,0-.48-.05-.74-.28-.21-.19-.79-.08-1.16.05-.26.09-1.13.36-1.35.17-.09-.08-.13-.25-.13-.38,0-1.42,0-2.83,0-4.25,0-.31.12-.42.42-.43.29,0,.58-.03.86-.05v-.23c-.27-.02-.54-.05-.8-.05-.34,0-.48-.12-.48-.48.01-1.23-.04-2.47.03-3.7.02-.32.41-.61.6-.93.13-.21.21-.44.31-.66-.06-.03-.12-.06-.18-.09-.06.05-.12.1-.19.14-.12.08-.25.16-.37.24-.07-.13-.18-.26-.19-.39-.03-.36-.08-.75.01-1.08.09-.31.34-.59.57-.85.21-.24.47-.44.75-.7-.34-.12-.58-.22-.8.11-.06.1-.23.13-.34.19-.07-.13-.15-.26-.19-.4-.15-.57.1-1.01.5-1.37.08-.07.41,0,.5.11.26.32.48.26.77.06.17-.12.37-.19.57-.28.03-.01.07,0,.11,0,.8-.09,1.5.03,1.85.88Zm-2.04,11.74c.37.02.57.04.78.04,2.34,0,4.68,0,7.01,0,.41,0,.88-.12,1.09.56.22-.68.69-.55,1.1-.56.14,0,.29-.01.43,0,.37.04.51-.11.5-.5-.02-1.16-.01-2.32,0-3.48,0-.15,0-.35.1-.45.23-.26.5-.48.87-.82-.63-.02-1.12-.09-.98-.82.09-.47-.2-1.04.29-1.24-.11-.39-.23-.7-.27-1.03-.04-.32-.03-.65,0-.98.04-.43-.12-.56-.55-.56-2.08.02-4.17.01-6.25,0-.42,0-.91.15-1.09-.46q-.47.59-.84.18c-.38.11-.69.2-.99.28-.21.06-.44.08-.64.16-.17.07-.32.22-.49.27-.25.06-.83.61-.85.86-.02.26.07.4.36.41.37.02.47-.14.47-.48,0-.13.16-.25.25-.38.08.13.19.26.23.41.04.11,0,.25,0,.38,0,1.92,0,3.84,0,5.77,0,.51.22,1.11-.46,1.42.6.4.61.51-.08,1.02Z"/>
  <path d="m171.25,21.07c-.3.28-.48.46-.67.63,0,.03,0,.07,0,.1.12.15.24.3.37.45-.21.06-.41.17-.62.18-.62.02-1.23,0-1.85,0q-.63,0-.92-.35c-.29.12-.54.28-.81.33-.14.02-.3-.19-.47-.23-.23-.06-.56-.16-.69-.05-.51.44-.84.44-1.24-.11-.69.77-1.59.37-2.38.34-.23,0-.57-.39-.97-.42-.06,0-.12-.3-.16-.47-.07-.33-.53-.53-.66-.27-.37.7-.59.27-.75.04-.37.13-.67.22-.97.34-.07.03-.15.1-.18.16-.02.04.05.12.09.17.09.12.19.24.29.35-.21.06-.42.16-.62.16-.13,0-.3-.15-.36-.28-.08-.16-.06-.36-.09-.6-.22.19-.35.4-.52.44-.58.15-.74,0-.74-.6,0-.33,0-.65,0-.98-.01-.38-.06-.76.46-.88-.86-.76-.26-1.69-.49-2.55.26-.02.44-.02.61-.06.1-.02.18-.12.28-.18-.1-.06-.18-.15-.29-.17-.15-.04-.32-.03-.53-.04-.01-.2-.04-.37-.04-.55,0-2.81,0-5.63,0-8.44,0-.42.08-.67.56-.62.08,0,.23-.02.25-.07.2-.53.65-.37,1.02-.37,3.43,0,6.86,0,10.28,0,.29,0,.62-.1.77.33.02.05.62.04.7-.09.23-.39.55-.24.81-.2.11.02.19.32.25.5.04.12-.03.27.02.37.07.15.2.28.3.41.15-.12.31-.21.43-.35.13-.15.23-.34.34-.51.08.19.23.38.23.57.02,2.07,0,4.14.02,6.21,0,.44-.14.56-.56.55-.82-.02-1.01.37-.64,1.2.14-.12.26-.3.42-.36.52-.18.77.02.77.59,0,.51.03,1.02-.01,1.52-.03.31-.17.61-.24.86.08.27.22.55.24.84.04.69-.04,1.38.03,2.07.05.56-.11.98-.51,1.33-.08.07-.25.11-.34.07-.09-.03-.17-.18-.18-.29-.04-.31-.04-.63-.06-1.04Zm-2.46-.6c.06,0,.11,0,.17,0,.03-.16.04-.33.08-.49.03-.11.09-.3.15-.31.42-.05.33-.36.33-.62,0-1.89,0-3.77.01-5.66,0-.21.2-.4.26-.62.06-.22.12-.62.06-.65-.45-.19-.33-.56-.33-.88-.01-.47.02-.94,0-1.41-.02-.43.05-.71.58-.66.09,0,.27-.14.28-.23.02-.16,0-.38-.09-.5-.13-.18-1.35-.04-1.51.1.12.2.24.38.35.57-.23.07-.45.18-.68.19-.58.03-1.16.01-1.74,0q-.76,0-.89-.76c0-.06-.07-.1-.13-.17-.26.39-.49.74-.81.08-.11-.21-.94-.08-1.1.09.12.2.24.39.35.57-.23.07-.45.18-.68.19-1.25.02-2.5.02-3.75,0-.42,0-.56.13-.56.57.02,3.07.02,6.13,0,9.2,0,.47.16.6.6.57.34-.02.7-.11.9.36.09.21.4.32.61.47.05-.24.1-.48.16-.71,0-.03.04-.05.11-.13,1.33,0,2.71,0,4.09,0,.35,0,.75-.13.94.38.08.2.36.32.53.46.2-.18.49-.33.58-.55.19-.47.54-.28.82-.25.1.01.17.33.24.51.04.09.06.19.08.29Zm-11.85-2.92c.19.24.38.37.43.55.17.56.42.74,1.01.58.11-.03.24-.17.25-.27.02-.14-.04-.31-.12-.43-.06-.09-.25-.1-.3-.19-.34-.55-.78-.25-1.27-.24Zm3.38-8.82c.03-.14.09-.25.08-.36-.05-.48.22-.59.63-.57.11,0,.23.03.32,0,.16-.07.36-.15.42-.28.05-.11-.09-.42-.15-.43-.21,0-.42.07-.62.14-.12.05-.22.24-.31.22-.56-.08-.66.47-1.03.65.24.22.43.4.66.62Z"/>
  <path d="m79.41,143.78c.45-.12.77-.29,1.09-.29,2.08-.02,4.17-.02,6.25,0,.32,0,.65.17,1.04.28.16-.43.66-.29,1.1-.29,8.21,0,16.43,0,24.64,0,.24,0,.69.13.69.21,0,.42.34.93-.21,1.27-.06.04-.13.15-.11.21.02.06.15.15.2.13.51-.17.61.39.96.52.06.02.12.2.09.27-.04.09-.15.19-.25.22-.13.04-.29.02-.43.02-2.59,0-5.19,0-7.78-.01-.29,0-.59-.15-.95-.26-.18.21-1.46.44-1.83.22-.27-.15-.23-.8.05-.97.09-.06.17-.14.25-.22-.08-.05-.17-.1-.24-.17-.14-.12-.27-.25-.41-.37-.14.13-.33.25-.46.42-.2.27-.22.54.07.79.1.09.13.25.2.38-.12.06-.24.14-.37.17-.12.03-.25,0-.38,0-1.04,0-1.03,0-1.12-1.03-.01-.12-.11-.23-.17-.34-.06.11-.17.21-.18.33-.09.79-.97,1.31-1.72,1.01-.08-.03-.18-.15-.18-.22,0-.1.11-.2.16-.3.09-.21.2-.41.22-.63,0-.05-.3-.19-.46-.2-.65-.04-1.12.35-1.19.99-.04.31-.19.4-.46.39-.73,0-1.45-.02-2.18,0-.43.01-.72-.06-.67-.58,0-.08-.07-.17-.12-.29q-.53.92-.97.42c-.19.56-.65.44-1.06.44-2.07,0-4.13-.02-6.2.01-.55,0-.76-.15-.7-.71.02-.22-.1-.45-.16-.67-.07.23-.2.47-.18.7.04.53-.16.69-.68.68-1.87-.03-3.73,0-5.6-.02-.23,0-.45-.19-.67-.29-.08-.04-.16-.12-.23-.12-.69.09-.66-.37-.63-.82,0-.11,0-.22,0-.33,0-1.32.3-1.57,1.62-1.27.17.04.31.25.35.28Zm17.57.29c-.2,0-.41-.05-.59.02-.12.04-.24.25-.24.38,0,.13.13.37.23.38.39.04.79.04,1.18,0,.1-.01.24-.24.24-.38,0-.13-.12-.34-.24-.38-.17-.07-.39-.02-.59-.02Z"/>
  <path d="m19.22,98.76c.1.37.27.7.25,1.01-.01.21-.29.4-.46.59-.25.28-1.58.08-1.88-.11-.66-.41-.46-1.01-.47-1.57-.02-1.38.06-2.76-.03-4.13-.04-.65.33-.97.64-1.38.1-.13.22-.31.35-.33.32-.04.65-.01.97.04.13.02.24.25.35.24.54-.05.57.25.57.67-.02,1.32,0,2.65,0,3.97,0,.41.13.88-.28,1Z"/>
  <path d="m17.33,35.87c-.86-.51-.89-1.68-.27-2.22.17-.15.33-.32.49-.5.4-.46.69-.46,1.11-.03.08.08.22.13.33.12.48-.06.53.23.52.6-.02.43,0,.87,0,1.31-.02.4.2.9-.54,1.05.66.24.54.7.54,1.12,0,.78,0,1.56,0,2.34,0,.44-.5.94-.93.95-.22,0-.43,0-.65,0-.87,0-1.26-.4-1.26-1.27,0-.82-.01-1.63,0-2.45,0-.42-.2-.95.68-1.02Z"/>
  <path d="m19.2,125.29c.35.11.31.49.3.89-.01,1.07,0,2.14,0,3.21,0,.6-.45,1.06-1.03,1.06-.24,0-.47-.02-.71,0-.41.04-.68-.06-.61-.55.01-.08-.02-.23-.06-.25-.63-.2-.4-.73-.42-1.14-.03-.54-.01-1.09,0-1.63,0-.28-.07-.61.37-.66.01,0,.01-.21-.02-.32,0-.03-.19-.03-.19-.05,0-.76-.08-1.54.04-2.28.05-.3.46-.62.78-.76.26-.12.64-.02.96.03.14.02.27.25.4.24.43-.02.54.18.51.56-.02.22.03.44-.01.65-.06.31-.17.6-.29,1.01Z"/>
  <path d="m162.69,66.83c0-.62,0-1.23,0-1.85,0-.36-.14-.78.35-.97.03-.01.07-.1.06-.14-.07-.56.21-.74.73-.68.07,0,.19-.06.21-.12.21-.47.36-.42.59,0,.06.11.35.08.53.14.12.04.3.1.33.18.03.09-.06.27-.15.35-.35.28-.38.52-.01.81.12.09.2.3.21.45.01,1.7,0,3.4.01,5.1,0,.32-.12.47-.45.46-.51-.01-1.01,0-1.52,0-.12,0-.32-.02-.35-.09-.2-.44-.47-.89-.52-1.36-.09-.75-.02-1.52-.02-2.28Z"/>
  <path d="m163.5,44.51c.09-.26.25-.55-.18-.76-.08-.04-.18-.23-.15-.29.05-.11.19-.21.3-.23.28-.05.59.02.69-.38,0-.03.35-.03.36,0,.09.4.41.35.69.37.37.03.34.31.34.56,0,1.87,0,3.73,0,5.6,0,1.41.18,1.18-1.24,1.26-.59.03-.8-.39-1.13-.66-.5-.39-.51-.96-.49-1.56.04-1.21,0-2.43.02-3.64,0-.21.12-.41.19-.62.18.1.35.2.6.35Z"/>
  <path d="m84.01,164.67c.3-.12.53-.28.77-.29,1.34-.03,2.68-.02,4.02-.01.53,0,.98.46,1,.99,0,.24,0,.47,0,.71,0,.7-.43,1.14-1.12,1.15-1.72,0-3.44,0-5.16,0-.59,0-1.06-.47-1.06-1.06,0-.27,0-.54,0-.81.01-.56.5-1.03,1.04-.96.21.03.39.21.52.28Z"/>
  <path d="m164.73,140.06c-.14.45-.54.39-.93.41-.46.02-.74-.09-.68-.63.01-.08-.02-.23-.06-.25-.53-.2-.35-.65-.36-1.01-.02-.85.01-1.7-.01-2.55-.02-.48.08-.79.64-.72.05,0,.1-.03.15-.06.01,0,.02-.03.06-.1-.1-.04-.2-.08-.29-.12-.18-.08-.48-.14-.5-.26-.06-.26-.19-.61.22-.8.09-.04.17-.23.16-.35-.03-.44.18-.57.58-.57.13,0,.26-.13.39-.21.11-.07.21-.13.32-.2.06.12.14.23.18.35.03.1-.01.22.02.32.03.09.11.16.17.23.06-.05.12-.11.19-.16.12-.1.24-.19.36-.28.08.14.22.29.22.43.01,2.16.01,4.31,0,6.47,0,.15-.14.3-.21.44-.19-.12-.38-.23-.61-.37Z"/>
  <path d="m163.52,113.89c-.15-.23-.26-.4-.37-.56.2-.08.39-.17.59-.24.07-.02.15,0,.21-.04.21-.12.26-.82.67-.13.15.25.56.33.48.74-.01.06.01.18.05.2.59.29.39.84.39,1.29.02,1.56,0,3.12.02,4.68,0,.48-.16.66-.63.61-.34-.03-.69-.02-1.03,0-.45.02-.86.03-.78-.62-.89-1.21-.23-2.6-.42-3.89-.06-.43,0-.87-.01-1.3-.02-.41.07-.68.55-.65.09,0,.19-.06.28-.09Z"/>
  <path d="m19.19,44.53s.25.16.28.33c.07.37.11.77-.5.76-.55,0-.31.46-.35.74-.04.26-.02.54.37.5.42-.05.53.16.51.54-.02.56,0,1.12,0,1.69,0,1.3-.24,1.47-1.51,1.56-.61.04-.87-.35-1.25-.62-.08-.06-.09-.27-.09-.41,0-1.79.02-3.59-.02-5.38,0-.54.51-.63.71-1,.11-.22.42-.41.67-.47.18-.04.41.16.62.26.09.04.17.11.26.16.2.11.56.21.56.31,0,.3-.14.59-.27,1.03Z"/>
  <path d="m114.43,167.22c-.47,0-.94,0-1.41,0-.27,0-.59.08-.69-.35-.01-.05-.6-.09-.73.05-.39.42-1.12.34-1.53,0-.49-.4-.39-.85-.4-1.32-.01-.89.34-1.23,1.22-1.23,1.7,0,3.4,0,5.1,0,.53,0,1,.46,1.01.98,0,.24,0,.47,0,.71,0,.72-.44,1.15-1.16,1.16-.02,0-.04,0-.05,0-.45,0-.91,0-1.36,0Z"/>
  <path d="m104.26,13.26c.89,0,1.77,0,2.66,0,.46,0,1.01.55,1.03,1,0,.27-.01.54,0,.81.02.4-.12.62-.56.58-.1,0-.28.02-.3.08-.17.53-.6.35-.95.36-.67.02-1.34.02-2.01,0-.35,0-.77.15-.98-.35-.02-.05-.49-.02-.63.1-.37.34-.75.36-1.05,0-.09-.1-.26-.14-.4-.19-.13-.04-.31-.01-.41-.09-.25-.16-.08-1.59.08-1.82.44-.64,1.07-.49,1.67-.5.62,0,1.23,0,1.85,0Z"/>
  <path d="m18.63,116c0,.33-.03.67.02.99.02.09.27.21.41.21.33,0,.45.14.44.46-.01.38-.02.76,0,1.14.02.45.01.86-.62.77-.07,0-.15.08-.22.12.05.08.1.16.15.24.07.11.14.21.21.32-.11.06-.23.17-.34.18-.4.02-.83.1-1.19-.02-.36-.12-.82-.34-.82-.83-.02-1.87-.04-3.73.02-5.6,0-.3.37-.64.65-.85.24-.18.32-.67.78-.48.18.07.35.18.52.27.1.06.21.17.31.16.53-.04.58.27.57.68-.02.63.01,1.27-.01,1.9,0,.23-.11.46-.17.69-.2-.1-.4-.2-.69-.35Z"/>
  <path d="m163.59,38.92c-.1-.07-.16-.14-.21-.14-.72.09-.71-.35-.7-.87.02-1.07,0-2.14.02-3.2,0-.2.19-.38.25-.59.16-.55.38-1.02,1.08-.96.2-.52.39-.53.63-.01.04.08.3.1.45.09.34-.02.44.15.44.46,0,1.99,0,3.98,0,5.97,0,.42-.54.87-.96.94-.57.09-.98-.16-1.35-.53-.25-.25-.11-.78.35-1.17Z"/>
  <path d="m140.54,13.26c.87,0,1.74,0,2.61,0,.92,0,1.41,1.26.98,1.75-.31.34-.87.48-.99,1.06,0,.04-.27.04-.41.04-1.47,0-2.93.01-4.4-.01-.2,0-.4-.19-.6-.29-.12-.06-.25-.15-.38-.14-.39.01-.51-.18-.48-.53.02-.23,0-.47,0-.71,0-.75.41-1.17,1.17-1.17.83,0,1.66,0,2.5,0Z"/>
  <path d="m49.82,13.26c.89,0,1.77,0,2.66,0,.51,0,1.03.53,1.04,1.04,0,.24-.01.47,0,.71.03.43-.09.71-.6.66-.08,0-.23.02-.25.06-.19.58-.67.36-1.05.37-.76.03-1.52.02-2.28,0-.18,0-.38-.13-.52-.26-.26-.26-.5-.26-.73-.01-.37.4-.72.39-1.05-.02-.16-.2-.37-.35-.57-.52-.52-.47-.42-1.05-.05-1.59.36-.52.77-.42,1.21-.43.72-.01,1.45,0,2.17,0Z"/>
  <path d="m165.21,107.98c.49.39.44,1.59.02,2.12-.56.72-1.25.28-1.88.37-.04,0-.12-.04-.13-.08-.18-.47-.48-.93-.5-1.41-.07-1.46-.04-2.93-.01-4.4,0-.2.2-.4.3-.59.04-.08.12-.16.11-.23-.08-.65.31-.68.81-.68.44,0,.77.05.68.61,0,.03-.01.08,0,.11.04.07.09.18.15.19.06.01.14-.07.2-.12.13-.09.25-.18.38-.26.07.15.21.29.21.44.02,1.09.03,2.17,0,3.26,0,.22-.21.44-.32.67Z"/>
  <path d="m43.35,165.21c.02-.18.03-.37.08-.54.03-.1.12-.23.21-.26.09-.02.23.05.32.12.13.1.24.23.37.35.25.24,0,1.59-.15,1.88-.38.69-.97.44-1.5.46-.67.03-1.34.02-2.01,0-.34-.01-.8.18-.91-.4,0,0-.28.02-.28.04-.04.45-.38.35-.66.37-.2.01-.4,0-.6,0-.67,0-1.12-.47-1.13-1.14,0-.25.02-.51,0-.76-.04-.51.4-.7.69-.9.37-.26.72.01.8.48.02.12.12.22.19.33.06-.11.17-.23.17-.34-.03-.43.17-.52.55-.51.98.02,1.96.03,2.94,0,.48-.01.78.08.72.64,0,.07.07.14.11.21.04,0,.08,0,.12,0Z"/>
  <path d="m137.74,166.36c-.26-.04-.52-.09-.78-.13-.23-.69-.1-1.28.42-1.77.09-.08.27-.09.41-.09,1.68,0,3.37-.01,5.05,0,.16,0,.33.15.49.23.12.06.24.2.35.19.49-.03.58.24.55.65-.01.2,0,.4,0,.6,0,.72-.44,1.17-1.15,1.17-.58,0-1.16.02-1.74,0-.34-.01-.8.18-.9-.4-.11.03-.23.04-.32.09-.1.07-.17.19-.25.28-.09-.09-.21-.16-.26-.27-.12-.25-.19-.24-.37-.04-.13.15-.32.28-.51.33-.24.06-.51.04-.76,0-.21-.03-.42-.12-.63-.18.11-.18.22-.37.4-.67Z"/>
  <path d="m18.19,135.07c0,.34-.04.69.03,1.02.02.1.36.17.55.18.73.03.73.02.73.76,0,.69,0,1.38,0,2.07,0,1.06-.32,1.31-1.39,1.4-.62.05-.96-.29-1.37-.6-.04-.03-.06-.09-.06-.14,0-.78-.15-1.6.05-2.32.11-.38.44-.6-.06-.89,0-.92-.04-1.85.04-2.77.02-.24.4-.46.61-.69.1-.11.18-.26.3-.33.12-.07.34-.13.41-.07.26.25.48.54.74.84.03-.03.08-.07.12-.11.13-.11.27-.22.4-.32.07.15.19.29.2.44.03.45.03.91,0,1.36-.01.18-.11.49-.23.51-.27.07-.62.19-.79-.22-.03-.07-.05-.14-.07-.21-.07.03-.14.06-.21.09Z"/>
  <path d="m17.63,68.88c-.31-.24-.6-.43-.86-.67-.09-.08-.11-.26-.11-.4,0-1.23-.05-2.47.03-3.7.02-.31.36-.67.65-.88.23-.17.33-.65.78-.47.18.07.34.17.52.26.1.05.21.17.31.16.54-.06.59.24.57.66-.02.49.02.98-.02,1.47-.02.29-.16.56-.27.94.42.16.29.67.27,1.12,0,.16-.13.34-.25.46-.25.23-.25.6.02.81.34.25.28,1.15.04,1.47-.51.66-1.18.4-1.81.43-.1,0-.27-.11-.31-.21-.17-.46.03-1.13.45-1.45Z"/>
  <path d="m125.32,14.25c-.27.62-.2.75.34.84.14.03.26.17.39.26-.14.1-.27.21-.41.3-.16.11-.33.21-.5.29-.14.07-.29.15-.43.15-.58.02-1.16.03-1.74,0-.27-.02-.54-.15-.8-.23-.28.07-.6.2-.93.24-.38.04-.76.04-1.14,0-.18-.02-.35-.17-.52-.26-.12-.06-.24-.17-.36-.17-.41.01-.55-.18-.52-.56.02-.22,0-.43,0-.65,0-.75.43-1.19,1.18-1.2.62,0,1.23-.03,1.85.01.3.02.59.19.95.31.15-.48.69-.32,1.17-.33.42,0,.83,0,1.25,0,.46.01.98.55.95,1.01,0,.16-.11.3-.17.46-.14-.11-.28-.21-.41-.32-.04-.03-.07-.07-.15-.15Z"/>
  <path d="m132.58,14.54c.2-.31.39-.63.6-.94.35-.51,1.04-.35,1.53-.02.7.48.36,1.07.44,1.61.02.11-.02.31-.1.35-.43.21-.87.51-1.32.53-1.5.07-3.01.04-4.51.01-.18,0-.35-.2-.54-.29-.14-.07-.29-.14-.44-.14-.39.01-.52-.17-.5-.53.01-.23,0-.47,0-.71,0-.72.45-1.17,1.16-1.17.98,0,1.96-.01,2.93,0,.18,0,.37.14.55.21-.11.12-.25.23-.33.37-.04.08-.04.25.02.31.15.15.34.26.49.37Z"/>
  <path d="m162.98,57.01c-.25-.2-.44-.82-.26-1.29.04-.11.22-.21.36-.24.56-.1.62-.22.37-.77-.03,0-.08,0-.1.02-.14.12-.26.25-.41.35-.02.02-.21-.11-.21-.18,0-.24.02-.49.09-.73.07-.22.21-.41.31-.61.04-.08.03-.23.08-.24.4-.13.84-.15,1.11-.55.09.07.26.16.25.21-.14.6.48.72.68,1.1.11.2.28.41.29.61.03.81.02,1.63.01,2.45,0,.35.08.75-.47.79.19.25.43.41.44.59.04.61.01,1.23-.02,1.84,0,.07-.18.18-.28.18-.6.02-1.2,0-1.79,0-.07,0-.18-.02-.2-.07-.19-.43-.42-.85-.53-1.3-.08-.34-.05-.73,0-1.08.04-.33.16-.64.28-1.08Z"/>
  <path d="m49.83,164.37c.91,0,1.81,0,2.72,0,.43,0,.96.53.97.96.01.31.01.62,0,.92-.01.38-.58.96-.96.96-1.83,0-3.66,0-5.49,0-.15,0-.3-.13-.45-.2.09-.12.16-.27.28-.36.25-.19.28-1.11-.01-1.23-.41-.18-.34-.51-.26-.77.04-.13.35-.26.54-.26.89-.03,1.78-.01,2.66-.01Z"/>
  <path d="m112.93,15.46c.2.02.41.02.59.08.12.04.21.19.31.29-.11.09-.22.26-.33.27-.87.02-1.74.02-2.61,0-.11,0-.23-.13-.34-.2-.12-.08-.25-.23-.37-.22-.47.02-.55-.23-.52-.61.01-.11,0-.22,0-.33,0-.92,0-.92.93-.98.12,0,.32-.04.33-.1.13-.48.51-.39.84-.39,1.4,0,2.79,0,4.19,0,.57,0,1.04.49,1.05,1.05,0,.27-.01.54,0,.82.02.36-.1.56-.49.53-.1,0-.26,0-.3.07-.48.72-1.19.24-1.78.34-.07.01-.21-.16-.26-.27-.09-.18-.11-.52-.21-.54-.33-.07-.68-.03-1.02-.03,0,.07,0,.14,0,.21Z"/>
  <path d="m165.28,126.45c.11.38.24.67.26.96.04.58-.06,1.17.03,1.73.1.59-.3.88-.59,1.22-.15.17-.41.14-.45-.19-.01-.11.01-.22-.02-.32-.03-.09-.1-.16-.16-.24-.07.09-.18.17-.19.26-.01.32,0,.6-.47.6-.42,0-.61-.13-.57-.56.02-.2-.02-.4.02-.59.02-.11.13-.25.24-.29.07-.03.21.07.31.13.1.07.19.15.28.23.04-.13.12-.27.1-.39-.02-.13-.14-.36-.2-.36-.42.05-.71-.11-.92-.46-.09-.15-.24-.31-.25-.47-.02-1.09-.02-2.17,0-3.26,0-.16.19-.31.24-.48.17-.54.37-1.03,1.08-.96.2-.51.39-.54.63-.02.04.08.3.1.45.09.34-.01.45.14.44.46,0,.8.02,1.59-.02,2.39,0,.21-.2.41-.26.52Z"/>
  <path d="m162.98,86.07c-.53-.24-.19-.82-.29-1.27-.15-.7.33-.79.98-.82-.21-.16-.3-.21-.35-.28-.07-.11-.16-.24-.14-.36,0-.07.18-.16.29-.18.27-.04.6.06.69-.36,0-.02.38-.01.39.02.07.36.35.32.6.32.3,0,.43.14.42.43,0,.14-.01.29,0,.43.04.43-.1.65-.57.61-.12,0-.24.12-.37.19.12.05.24.16.36.15.46-.04.62.15.58.6-.02.27.03.55-.02.81-.03.18-.16.35-.26.52-.06.1-.16.2-.18.3-.05.26.02.55-.38.62-.07.01-.13.35-.11.52.01.1.22.24.33.23.56-.05.61.27.61.71-.03,1.44.15,1.18-1.21,1.21-.22,0-.44-.01-.65,0-.37.03-.61-.06-.57-.49,0-.07.01-.18-.03-.21-.73-.54-.3-1.32-.4-1.99-.04-.28-.04-.58,0-.87.04-.26.16-.51.28-.86Z"/>
  <path d="m56.86,165.23c.43-.45.76-1.03,1.51-.86.19.04.38.12.57.18-.11.19-.23.37-.36.59.14.12.35.31.63.55.04-.16.08-.28.1-.4.06-.49.53-.92,1.02-.92.36,0,.72,0,1.09,0,.82,0,1.19.37,1.19,1.18,0,.22-.01.44,0,.65.02.36-.09.55-.49.52-.11,0-.32.04-.33.1-.15.49-.55.39-.9.39-1.54,0-3.08,0-4.62,0-.51,0-.99-.5-1-1.01,0-.27.05-.56-.01-.81-.12-.53.47-.61.59-.98,0-.02.26-.01.33.05.25.24.46.5.7.76Z"/>
  <path d="m107.31,165.96c-.37.14-.63.23-.88.33-.1.04-.18.13-.26.19.08.05.15.13.24.16.1.03.23-.02.32.02.11.05.26.16.26.24,0,.1-.14.28-.23.28-.92.02-1.84.02-2.77,0-.09,0-.19-.18-.28-.28-.23-.28-.56-.31-.7-.02-.16.33-.39.33-.65.34-.24,0-.47,0-.71,0-.63,0-1.1-.48-1.11-1.12,0-.24,0-.47,0-.71.01-.55.48-1.02,1.03-1.02,1.77,0,3.55,0,5.32,0,.37,0,.59.06.57.5,0,.13.13.3.25.4.21.18.35.76.15.91-.09.07-.32-.01-.47-.07-.07-.03-.1-.16-.09-.14Z"/>
  <path d="m165.24,74.45c.05.07.26.25.29.45.15.97.06,1.06-.92,1.11-.15,0-.43.14-.42.19.03.21.12.42.22.62.08.16.22.28.36.46.07-.08.12-.14.18-.19.11-.09.22-.17.34-.26.08.12.24.23.24.35.02.69.02,1.38,0,2.06,0,.11-.08.23-.14.33-.1.18-.28.35-.3.54-.04.35-.2.47-.53.46-.23-.01-.47-.02-.71,0-.49.05-.83-.06-.75-.66,0-.08-.03-.22-.08-.24-.67-.3-.24-.49.15-.73-.7-.35-.48-.94-.49-1.46-.02-.85-.01-1.7,0-2.55,0-.33-.15-.75.35-.9-.02-.66.45-.74.92-1.01.42-.25.5-.36.72.08.02.03.1.04.15.05.25.07.67-.11.68.33,0,.3-.16.6-.28.98Z"/>
  <path d="m79.02,166.63c-.09.63-.48.6-.86.59-1.25,0-2.5,0-3.75,0-.55,0-1.05-.51-1.06-1.05,0-.22,0-.44,0-.65,0-.71.43-1.14,1.14-1.14,1.09,0,2.18-.02,3.26.01.31,0,.61.16.98.27.22-.56.81-.21,1.29-.25.07,0,.22.17.2.24-.02.11-.13.27-.23.29-.21.05-.43.02-.65.03-.41.02-.89.52-.84.9.01.12.1.3.19.32.14.04.35.03.46-.05.22-.16.46-.36.56-.59.18-.44.52-.31.77-.24.13.04.2.36.26.56.2.63-.32.93-.64,1.29-.22.25-.73.02-1.08-.53Z"/>
  <path d="m133.35,165.68c.39.02.76,0,1.11.05.24.04.59.12.65.27.11.26-.05.49-.26.78-.46.64-1.01.41-1.52.43-1.49.03-2.97.01-4.46,0-.64,0-1.1-.48-1.11-1.12,0-.24,0-.47,0-.71.01-.56.47-1.02,1.04-1.02,1.16,0,2.32,0,3.48,0,.27,0,.55-.05.67.31.02.07.18.09.27.13.18.08.37.15.55.22-.12.18-.23.35-.42.63Z"/>
  <path d="m69.98,13.84c.44-.74.69-.66,1.29-.2.72.56.21,1.22.35,1.8,0,.03-.02.08-.04.09-.45.19-.89.52-1.34.54-1.52.07-3.04.03-4.56.01-.17,0-.35-.17-.52-.26-.12-.06-.24-.17-.36-.17-.41.01-.55-.18-.52-.56.02-.2,0-.4,0-.6,0-.84.4-1.25,1.23-1.25,1.18,0,2.35,0,3.53,0,.4,0,.81-.04.94.59Zm-3.78.42c-.2,0-.4-.03-.59.01-.11.02-.26.15-.27.25-.02.16.04.48.09.48.48.04.97.04,1.45.02.04,0,.1-.14.12-.22.11-.47-.02-.55-.8-.55Z"/>
  <path d="m61.76,14.3c-.02.22-.02.44-.07.66-.05.23-.14.44-.22.66-.17-.11-.34-.22-.53-.35q-.48.4-.94,0s-.04.01-.05.03q-.28.81-1.19.81c-.38,0-.76.03-1.14-.01-.26-.03-.51-.16-.86-.29-.01.02-.19.28-.25.26-.43-.18-.84-.42-1.25-.65-.04-.02-.02-.17-.02-.26,0-.29,0-.58,0-.87,0-.55.49-1.02,1.04-1.02,1.74,0,3.48,0,5.22,0,.61,0,1.07.47,1.08,1.08,0,.31.03.62-.02.92-.02.14-.18.25-.28.38-.09-.13-.24-.25-.26-.39-.04-.31-.01-.62-.01-.93-.09,0-.17,0-.26,0Z"/>
  <path d="m95.23,164.37c.89,0,1.77,0,2.66,0,.47,0,.95.48.96.95,0,.24,0,.47,0,.71,0,.79-.41,1.19-1.21,1.19-.53,0-1.05,0-1.58,0-.33,0-.51-.12-.5-.47,0-.25-.02-.46-.37-.47-.39,0-.4.22-.39.49.02.34-.17.48-.47.44-.38-.05-.91.26-1.05-.41-.1.02-.25,0-.29.07-.36.49-.62.38-1.1.02-.51-.38-.39-.82-.39-1.27-.02-.88.36-1.25,1.22-1.25.83,0,1.67,0,2.5,0Zm2.98,1.35c0-.06,0-.12,0-.17-.14-.15-.25-.34-.42-.44-.15-.09-.46-.17-.52-.1-.27.29-.58.42-.97.44-.06,0-.13.29-.15.45,0,.09.1.2.15.3.07-.1.13-.24.23-.3.14-.09.31-.16.47-.17.4-.02.8,0,1.21,0Z"/>
  <path d="m85.6,14.22c.04.09.05.1.05.12.07.24.14.48.21.71.21-.27.53-.51.61-.81.09-.35.17-.52.54-.49.1,0,.27-.01.3-.07.46-.82,1.2-.37,1.8-.35.24.01.51.53.67.87.1.21,0,.5.02.75.02.42-.01.78-.58.72-.07,0-.18.01-.2.06-.26.56-.76.37-1.18.38-1.32.02-2.64.02-3.97,0-.19,0-.37-.17-.56-.27-.09-.05-.18-.16-.26-.15-.6.06-.64-.29-.6-.74.02-.18,0-.36,0-.54,0-.69.42-1.13,1.1-1.13.63,0,1.27-.02,1.9,0,.25,0,.68-.16.67.3,0,.44-.41.21-.64.26-.14.03-.29-.01-.43.02-.08.02-.15.11-.23.17.08.06.14.15.23.17.17.03.35.03.54.04Z"/>
  <path d="m78.41,13.26c.33,0,.66-.03.98,0,.28.03.61.06.83.21.72.51.55,1.27.47,1.99,0,.03-.03.08-.05.09-.44.19-.87.43-1.33.53-.4.09-.83.02-1.25.02-.26,0-.54.07-.67-.31-.02-.07-.48-.02-.73.03-.18.04-.33.25-.51.26-.47.04-.94.03-1.41,0-.16-.01-.3-.17-.46-.25-.17-.08-.35-.11-.51-.2-.15-.08-.28-.2-.41-.31.13-.09.26-.18.41-.26.17-.09.45-.13.5-.25.08-.23.12-.53-.29-.63-.1-.02-.15-.44-.13-.67,0-.1.24-.25.38-.26.4-.04.8-.02,1.2-.02.77,0,.79,0,.77.79,0,.44.11.67.58.57.09-.02.15-.11.23-.17-.05-.06-.1-.16-.16-.18-.47-.11-.33-.48-.27-.74.03-.12.31-.25.49-.27.45-.04.91-.01,1.36-.01Z"/>
  <path d="m17.31,58.97c.14-.28.27-.53.39-.78.1.07.2.14.3.2-.22-.02-.44-.09-.65-.07-.56.06-.76-.19-.7-.72.02-.14,0-.29.02-.43.01-.09.07-.24.08-.24.82.13.73-.76,1.17-1.06.03-.02.07-.05.07-.08-.04-.57.18-.88.8-.81.02,0,.1-.14.08-.17-.04-.07-.12-.14-.19-.15-.4-.01-.8-.03-1.19,0-.1,0-.23.2-.25.32-.03.34.01.69-.03,1.03-.02.15-.17.29-.26.43-.1-.15-.27-.29-.28-.44-.03-.63,0-1.27-.02-1.9,0-.38.17-.52.53-.5.26.02.52,0,.78,0,.01-.05.02-.1.03-.15-.09-.06-.2-.1-.26-.18-.07-.09-.14-.22-.13-.32.02-.09.15-.21.24-.21.28,0,.63-.16.79.26.03.07.17.16.25.15.6-.06.61.31.61.75-.01,1.87,0,3.73,0,5.6,0,.55-.46,1-1.01,1.01-.22,0-.43,0-.65,0-.87,0-1.44-.8-1.16-1.64.03-.1.21-.25.24-.23.17.09.31.23.39.29Z"/>
  <path d="m18.81,89.43c.06-.1.1-.26.19-.29.13-.05.29,0,.44,0-.02.15-.01.31-.07.43-.07.14-.29.25-.29.37.02.48-.22.59-.64.55-.23-.02-.47,0-.71,0-.6,0-1.07-.46-1.08-1.05,0-1.74.03-3.48-.02-5.22-.02-.58.5-.67.67-1.04.17.11.35.21.54.33.14-.1.32-.31.52-.35.99-.18,1.13-.05,1.13.95,0,.44.03.87-.01,1.3-.02.2-.13.5-.26.54-.26.08-.63.17-.78-.25-.01-.04-.07-.07-.21-.19v2.26c.19-.24.27-.41.4-.48.45-.24.84.02.85.53,0,.47.11.99-.66.94-.07,0-.17.38-.26.58.08.03.15.05.23.08Z"/>
  <path d="m121.82,164.65c.37-.44.71-.43,1.27.14q.45-.51.89.05c.21-.61.71-.47,1.16-.46.43,0,.91.5.92.93,0,.22,0,.43,0,.65,0,.95-.69,1.47-1.63,1.24-.08-.02-.18-.06-.23-.12-.46-.51-.88-.51-1.36,0-.09.1-.29.13-.44.13-.9.01-1.81.01-2.71,0-.45,0-.96-.55-.97-1.01,0-.24,0-.47,0-.71,0-.71.42-1.12,1.14-1.12.31,0,.62-.03.92,0,.33.05.65.16,1.05.27Zm-.65.32c-.55-.03-1.11.57-.98.99.06.18.27.31.42.46.07.07.16.14.24.2.04-.09.11-.18.12-.28.01-.29-.03-.57.34-.71.08-.03.1-.33.08-.49-.02-.09-.19-.16-.22-.18Z"/>
  <path d="m96.49,15.38c.19.08.31.1.37.17.08.1.16.24.15.36,0,.07-.17.19-.27.19-1.2.01-2.39,0-3.59,0-.38-.5-.95-.44-1.48-.49-.03,0-.06-.03-.09-.06-.23-.24.04-1.55.19-1.83.35-.64.9-.45,1.4-.46.6-.02,1.2.04,1.79-.02.44-.04.68.16.88.49.24-.25.41-.58.87-.49.28.06.58,0,.87.01.88,0,1.26.38,1.27,1.25,0,.2-.02.4,0,.6.03.38-.08.58-.5.57-.13,0-.26.13-.39.2-.13.07-.25.14-.38.21-.06-.12-.16-.23-.18-.36-.1-.56-.19-.61-.91-.34Zm-2.27-1.03s.01-.21-.03-.36c-.02-.05-.24-.11-.27-.08-.3.3-.61.61-.86.95-.09.12-.08.35-.03.51.02.08.23.14.36.15.41.02.85-.52.85-1.16Z"/>
  <path d="m67.31,164.8c.25-.37,1.1-.59,1.45-.39.07.04.15.15.14.2-.14.56.43.69.71,1.08.04-.15.09-.3.11-.45.05-.32.56-.81.85-.87.57-.12.81.36,1.01.67.23.33.07.78-.44.99.12.09.19.14.25.2.08.09.16.2.23.29-.11.07-.21.19-.32.2-.28.01-.53,0-.63.36-.03.09-.28.14-.43.14-1.67.01-3.34.01-5,0-.16,0-.31-.12-.47-.18.08-.13.21-.25.24-.4.09-.38.14-.76.2-1.17-.17,0-.22-.01-.24,0-.17.11-.34.23-.51.35-.06-.21-.22-.48-.15-.62.16-.3.39-.64.68-.78.33-.15.76-.11.88.4.75-.6.97-.6,1.44-.01Z"/>
  <path d="m39.38,14.25c0-.14,0-.29-.02-.43-.06-.44.15-.57.56-.56,1.18.01,2.36,0,3.54,0,.53,0,1.03.56.97,1.09-.01.14-.12.27-.2.4-.06.1-.19.17-.22.27-.24.91-.46,1.09-1.41,1.09-1.32,0-2.65,0-3.97,0-.28,0-.59.07-.71-.32-.02-.06-.18-.12-.28-.11-.48.04-.6-.22-.56-.63.02-.18,0-.36,0-.54,0-.91.83-1.51,1.68-1.2.1.04.2.19.22.31.03.21,0,.43,0,.65-.14.08-.35.13-.39.24-.05.14-.03.44.06.49.35.21.73.37,1.12.51.11.04.3,0,.41-.07.17-.11.34-.26.43-.44.08-.16.09-.39.04-.56-.03-.09-.25-.15-.39-.16-.29-.03-.57-.02-.86-.02Z"/>
  <path d="m17.2,106.35c0-.38-.26-.84.31-1.06.04-.02.08-.13.07-.19-.07-.57.42-.76.72-1.08.11-.12.17-.34.16-.51,0-.1-.19-.2-.31-.27-.17-.09-.36-.15-.53-.24-.01,0,.08-.3.13-.3.27,0,.56.02.82.09.11.03.19.28.28.28.74-.05.67.44.67.93-.01,1.81,0,3.63,0,5.44,0,.63-.46,1.07-1.09,1.08-.16,0-.34-.04-.49,0-.59.18-.79-.41-1.2-.59.07-.15.12-.3.2-.44.05-.08.14-.13.21-.2-.06-.06-.13-.11-.18-.17-.1-.14-.28-.28-.29-.43-.03-.63-.01-1.27-.02-1.9,0-.38.14-.55.53-.42.01.16,0,.33.05.48.04.13.14.32.23.33.17.02.37-.05.53-.12.08-.03.08-.2.16-.26.38-.32.45-.81.12-1.28-.04.14-.11.25-.11.36.03.45-.21.57-.6.52-.12-.02-.25-.03-.37-.04Z"/>
  <path d="m17.23,76.7c.11.05.29.09.3.15.02.16,0,.44-.08.49-.44.21-.78-.01-.79-.51-.01-.71.06-1.42-.02-2.12-.08-.72.26-1.16.77-1.56.22-.17.28-.59.69-.45.19.06.36.17.53.26.14.07.27.19.41.19.4,0,.48.21.47.56-.01,1.03.01,2.07-.02,3.1,0,.21-.17.42-.29.61-.18.27-.26.53.07.72.41.25.28.63.16.9-.06.12-.49.11-.74.09-.07,0-.16-.25-.19-.39-.04-.27-.04-.55-.05-.83-.05,0-.1-.02-.16-.02-.04.11-.09.22-.12.34-.04.14-.03.39-.09.4-.6.17-.4.65-.4,1.02,0,.38-.18.46-.5.46-.33,0-.52-.1-.51-.46,0-.27-.03-.55,0-.81.03-.23.15-.44.22-.66.17.12.34.24.61.42.01-.03.09-.11.07-.19-.09-.6.42-.81.72-1.16.12-.14.18-.38.16-.56,0-.09-.25-.21-.4-.22-.27-.02-.54.02-.81.03,0,.07,0,.14,0,.2Z"/>
  <path d="m165.18,97.07c.51.41.51,1.14.06,1.65-.12.14-.09.64.04.72.38.25.3.58.21.86-.04.12-.38.2-.59.2-.82.03-.82.02-.82-.82,0-.24.02-.47,0-.71-.01-.1-.11-.19-.17-.28-.06.09-.17.18-.18.28-.02.36.01.73-.03,1.08-.02.15-.17.29-.26.44-.1-.14-.22-.27-.31-.41-.1-.15-.17-.32-.25-.48-.07-.15-.17-.31-.18-.47-.03-.4-.03-.8,0-1.19.02-.24.11-.46.17-.7.2.1.39.2.72.38,0-.46,0-.89,0-1.33,0-1,.63-1.53,1.61-1.32.14.03.32.24.34.38.05.39.05.8,0,1.19-.03.19-.22.36-.35.54Z"/>
  <path d="m19.5,144.48c0,.25-.02.51,0,.76.03.42-.04.72-.57.68-.1,0-.24.12-.33.21-.29.31-.75.27-1.04-.06-.21-.24-.47-.43-.7-.66-.09-.09-.18-.22-.2-.34-.04-.19.02-.4-.02-.6-.14-.68.26-1.07.73-1.43.22-.17.44-.37.69-.43.16-.04.38.16.56.26.07.04.14.15.2.15.77-.09.68.44.66.91,0,.18,0,.36,0,.54Z"/>
  <path d="m165.55,144.47c0,.25-.02.51,0,.76.03.45-.14.57-.59.73-.49.17-.78.19-1.25-.01-.35-.15-.62-.16-.59-.62,0-.12-.1-.3-.21-.38-.36-.28-.31-.69-.09-.89.25-.23.31-.44.34-.73,0-.09.1-.23.17-.24.36-.05.75-.02.92-.46,0-.02.19-.02.2,0,.17.44.56.4.92.46.08.01.17.22.18.34.02.34,0,.69,0,1.03h0Z"/>
  <path d="m164.68,93.99c0,.52-.24.63-.64.63-.76,0-.76.01-.77.77,0,.24.03.48-.02.7-.02.12-.18.21-.28.31-.09-.1-.25-.19-.25-.29-.02-.6-.07-1.2.02-1.79.04-.26.36-.48.57-.71.1-.11.21-.23.33-.31.11-.07.32-.16.36-.12.25.25.46.54.69.81Z"/>
</svg>