<?xml version="1.0" encoding="UTF-8"?>
<svg id="Layer_1" data-name="Layer 1" xmlns="http://www.w3.org/2000/svg" viewBox="0 0 180 180">
  <path d="m90.9,93.23c-.4-.39-.33-.67.26-1.16.15-.12.22-.33.33-.51.07-.11.11-.24.19-.34.27-.31.68-.51.68-1.02,0-.09.27-.21.42-.25.24-.05.49-.05.85-.07-.38-.41-.68-.76-.33-1.18.05-.06.4.13.67.22.15-.21.2-.43-.16-.63-.3-.16-.28-.34,0-.53.29-.19.49-.47.91-.48.18,0,.34-.34.52-.51.49-.48.74-.48,1.24.04.14-.13.33-.24.42-.41.09-.17.08-.39.11-.59-.22,0-.52-.07-.64.05-.22.21-.37.4-.6.06-.17-.25-.78-.41-.13-.85.28-.19.64-.49.56-.97-.01-.08.13-.18.2-.27.08-.08.24-.17.24-.24-.04-.54.41-.74.7-1.05.07-.07.16-.17.15-.25-.03-.37.16-.59.41-.83.47-.44.66-1.05.89-1.63.04-.1.15-.26.21-.26.57.1.73-.4,1.04-.67-.46-.45-.45-.46.2-1.09.13-.13.19-.33.29-.49.13-.21.24-.46.42-.6.44-.32.49-.88.79-1.29.29-.4.51-.86.89-1.22.08-.08.03-.27.08-.39.06-.14.17-.36.27-.37.7-.03.91-.72,1.4-1.04.17-.11.05-.65.09-.99.02-.19.11-.37.17-.56.17.07.34.15.5.21.29-.12.6-.25.91-.38,0-.04.01-.07.02-.11-.23-.02-.46-.03-.69-.07-.15-.03-.3-.12-.45-.18.08-.13.16-.27.24-.4.21-.33.61-.51.6-1.02,0-.21.35-.43.52-.66.11-.14.18-.31.28-.46.09-.15.19-.29.28-.44.06-.09.15-.17.2-.27.17-.31.32-.64.52-.93.04-.06.32-.05.39.02.36.37.69.76,1.03,1.15.05,0,.11-.02.16-.03,0-.26,0-.52,0-.78,0-.4-.35-.27-.56-.38-.24-.13-.45-.35-.64-.56-.04-.05.04-.26.11-.34.29-.32.71-.53.72-1.06,0-.08.25-.23.39-.23.36,0,.5-.15.48-.5-.01-.35.14-.64.29-.97.23-.51.51-.92.92-1.27-.14-.84.97-1.04.94-1.83,0-.03.29-.1.44-.08.08,0,.14.17.24.31.14-.3.26-.55.38-.82-.32-.37-.21-.34.1-1.07.22-.53.6-.86.88-1.3.19-.3.18-.74.52-.99.08-.06.16-.13.25-.17.35-.16.7-.31,1.09-.49-.55-.56-.54-.59.12-1.18.4-.36.7-.74.75-1.36.04-.45.44-.87.7-1.3.19-.32.39-.64.6-.95.18-.26.37-.51.58-.74.04-.04.3.05.3.08,0,.26.05.56-.07.77-.14.25-.43.42-.65.63.36.35.82.28,1.12-.06.27-.3.42-.59.39-1-.02-.42,0-.79-.59-.8-.27,0-.29-.23-.13-.46.12-.18.26-.39.29-.6.06-.37.32-.32.57-.38.51-.13,1-.31,1.49-.5.08-.03.09-.24.12-.37.08-.34.16-.67.26-1.08-.21-.08-.3-.71-.93-.4.1.09.18.15.23.22.22.27.14.44-.19.5-.12.02-.24.01-.36.01-3.05,0-6.1,0-9.14,0-.27,0-.54-.14-.89-.23-.58.53-1.41.19-2.18.17-.11,0-.21-.44-.32-.69-.04.02-.11.05-.11.07,0,.65-.38.72-.92.7-1.14-.03-2.29,0-3.43-.02-.25,0-.5-.15-.71-.21-.34.07-.68.2-1.02.21-1.14.03-2.29.02-3.43,0-.27,0-.54-.14-.82-.22-.25.07-.55.21-.86.22-.9.03-1.8.03-2.7,0-.26,0-.51-.14-.72-.21-.36.07-.71.2-1.07.21-1.4.02-2.81,0-4.21.02-.51.01-.75-.14-.69-.68.02-.17-.03-.35-.11-.53-.23.78-.65,1.3-1.5,1.19-.66-.08-1.42.34-1.87-.24-.48.09-.88.17-1.29.24-.09.01-.25,0-.29-.07-.37-.58-.93-.27-1.41-.34-.06,0-.17,0-.2.04-.34.56-.88.36-1.35.36-3.24.01-6.48,0-9.71,0-.14,0-.28.02-.41,0-.14-.03-.27-.11-.4-.17.06-.13.12-.25.19-.37.03-.05.08-.1.12-.14-.64-.29-1.26-.57-1.83-.83-.11.13-.25.3-.46.54.22.11.54.27.85.46.1.06.17.18.25.27-.09.08-.18.2-.29.24-.12.04-.27.02-.41.02-3.72,0-7.45,0-11.17-.01-.3,0-.6-.15-1.01-.26-.57.43-2.48.45-2.94-.07-.53.51-1.67.5-2.17-.08-.26.54-.75.42-1.2.43-1.51,0-3.01.01-4.52,0-.25,0-.51-.15-.84-.25-.54.43-2.9.41-3.27.01-.5.1-.9.23-1.3.24-2.06.02-4.12.02-6.18,0-.51,0-.65.16-.64.65.02,3.74,0,7.48,0,11.22,0,.29.04.56-.28.78-.1.07-.04.45.01.68.05.23.26.44.26.66.03,1.37,0,2.74.02,4.1,0,.36-.06.59-.49.63-.12,0-.28.24-.33.4-.06.19,0,.41-.02.62-.01.31.08.51.43.5.31,0,.4.18.41.47.02.48.02.93-.44,1.22-.09.06-.23.17-.29.14-.1-.05-.2-.18-.22-.3-.04-.22,0-.45-.03-.67-.03-.28-.39-.45-.57-.25-.22.24-.44.53-.53.84-.09.32-.21.44-.52.44-2.46,0-4.92,0-7.38-.02-.22,0-.43-.19-.52-.23-.5.09-.9.23-1.31.24-1.23.03-2.46,0-3.69.02-.5.01-.7-.17-.66-.66.02-.2-.04-.41-.07-.7-.23.27-.39.46-.52.62.09.18.18.36.27.54-.2.06-.4.17-.61.17-1.4.02-2.81,0-4.21,0-.75,0-.76,0-.76.74,0,5.11,0,10.22,0,15.33,0,.32.05.64-.31.87-.09.06-.03.43.03.64.06.23.27.44.27.66.02,1.78.02,3.57,0,5.35,0,.2-.13.39-.2.59-.17-.09-.33-.17-.56-.29v1.15c.14-.18.19-.28.28-.34.21-.16.39-.13.46.15.03.13.02.28.02.41,0,1.75.01,3.5-.01,5.25,0,.24-.15.5-.29.71-.18.27-.16.9.05,1.16.12.14.23.35.24.52.02,2.27.02,4.54,0,6.81,0,.24-.18.47-.3.75.47.63.47,1.59-.09,2.15.38.26.6.56-.01.86.47.27.55.54.01.82.36.26.57.51.08.83-.09.06,0,.43.05.64.06.23.26.44.26.67.02,2.49.02,4.99,0,7.48,0,.27-.14.54-.21.78.07.3.2.61.21.92.03.86,0,1.73.02,2.6,0,.43-.04.77-.59.74-.05,0-.11.05-.17.08.02.06.03.12.04.12.65.01.78.4.72.96-.04.36.02.73-.02,1.09-.03.31-.14.62-.21.89.07.28.2.57.21.86.02,1.16,0,2.32.02,3.48,0,.43-.04.77-.59.73-.04,0-.09.04-.14.06-.01,0-.01.03-.02.05,0,.03.02.09.03.09.69.02.73.45.72,1.01-.03,1.94,0,3.88-.02,5.82,0,.31-.14.62-.21.87.07.3.19.59.21.88.03.57-.03,1.15.02,1.71.06.67-.11,1.19-.68,1.59-.3.21-.22.63.08.74.2.08.52.19.54.32.03.26-.1.54-.18.84.06.23.19.54.21.85.04.64,0,1.28.01,1.92,0,.3-.09.51-.44.5-.42-.01-.4.29-.4.57,0,.29-.06.63.4.63.35,0,.44.2.44.5,0,2.6,0,5.2-.02,7.79,0,.22-.2.43-.32.7.27.22.6.51-.01.79.33.65.89.62,1.47.61,2.39-.01,4.78-.01,7.17,0,.32,0,.64.15.96.24.28-.07.59-.19.92-.24.39-.06.68.04.68.53,0,.1.25.26.39.27.11,0,.34-.17.34-.27,0-.55.34-.55.73-.54,1.68,0,3.36.01,5.04,0,.49,0,.92,0,.88.67,0,.03.07.06.18.16-.02-1.08.72-.81,1.3-.82,1-.01,2.01-.02,3.01.01.24,0,.47.21.71.27.19.05.41.05.6,0,.26-.06.51-.27.76-.28,1.59-.03,3.19-.02,4.78-.01.57,0,1.29-.24,1.24.77.1-.04.16-.05.16-.07.02-.65.4-.75.96-.72.79.04,1.59.02,2.39,0,.43,0,.77.03.73.59,0,.07.07.14.14.26.08-.12.19-.19.18-.27-.03-.51.26-.61.69-.59.47.02.94-.02,1.4.02.21.02.41.14.62.22-.12.16-.24.32-.36.48.04-.06.08-.12.12-.17.2.29.39.58.59.88.02.03.04.06.05.09.09.22-.56,1.22-.81,1.22-1.78,0-3.57.01-5.35,0-.21,0-.41-.18-.51-.22-.35.09-.64.22-.93.23-1.47.02-2.94,0-4.42.01-.37,0-.62-.05-.66-.51-.02-.37-.52-.45-1.16-.18.12.07.23.11.31.18.07.07.14.19.12.26-.03.09-.14.2-.23.23-.13.04-.27.03-.41.03-2.16,0-4.33,0-6.49,0-.4,0-.78.02-.77-.56,0-.09-.19-.2-.31-.27-.17-.1-.37-.18-.55-.26.13-.16.27-.31.48-.56-.21-.04-.4-.12-.55-.08-.11.04-.23.24-.24.38-.02.31-.12.67.28.87.06.03.03.24.04.36-.25.02-.62.15-.72.03-.39-.44-.68-.44-1.04.01-.07.09-.29.06-.45.06-3.83,0-7.65,0-11.48,0-.09,0-.19.02-.26-.01-.12-.07-.22-.17-.32-.26.11-.09.21-.25.32-.26.45-.03.9,0,1.35-.03.16-.01.43-.13.44-.22,0-.19-.08-.4-.2-.56-.22-.31-.48-.6-.9-.3,0,.06-.01.1,0,.13.1.16.21.31.32.47-.19.07-.38.17-.58.21-.22.04-.45-.01-.67.02-.13.02-.32.12-.35.23-.08.28-.04.64-.48.58-.26-.03-.51-.15-.74-.22-.26.08-.53.19-.8.22-.34.04-.7.04-1.04,0-.23-.03-.45-.17-.67-.27-.06-.03-.11-.11-.17-.11-.75.03-.64-.5-.64-.96,0-.99-.01-1.97.01-2.96,0-.21.13-.44.26-.62.18-.25.19-.44-.02-.68-.13-.15-.24-.38-.24-.57-.02-2.13-.02-4.26,0-6.39,0-.19.16-.38.25-.57.06-.15.1-.32.18-.46.08-.13.19-.3.32-.33.62-.16.78-.55.41-1.21-.08.07-.13.17-.21.19-.23.08-.47.18-.7.15-.1-.01-.24-.31-.25-.48-.02-1.19-.01-2.39-.01-3.58,0-1.32-.02-2.63.01-3.95,0-.26.19-.5.29-.76.06-.16.1-.32.12-.49.05-.48-.15-1.01.36-1.38.07-.05.01-.3.01-.51-.12.07-.16.09-.2.11-.13.08-.26.16-.4.24-.06-.15-.18-.3-.18-.45-.02-1.02,0-2.04-.01-3.06,0-.87-.02-1.73.01-2.6.01-.35.14-.7.23-1.14-.02-.1-.07-.32-.12-.55.2.06.4.12.65.19.12-.1.31-.25.51-.41-.19-.16-.38-.32-.56-.47-.17.09-.35.18-.53.27-.06-.22-.18-.43-.18-.65-.01-4.05-.01-8.1,0-12.16,0-.25.23-.49.29-.75.04-.22,0-.47-.05-.69-.05-.2-.24-.38-.24-.57-.02-1.7-.02-3.39,0-5.09,0-.18.11-.39.23-.53.23-.26.24-.46,0-.71-.12-.14-.23-.35-.23-.53-.01-4.02,0-8.03-.01-12.05,0-.36.11-.55.5-.55.4,0,.34-.32.34-.57,0-.24.08-.53-.3-.62-.19-.04-.48-.18-.49-.3-.03-.34-.04-.76.13-1.03.3-.47.35-.89,0-1.31-.11-.13-.16-.34-.16-.51-.01-2.55-.01-5.09,0-7.64,0-.24.16-.48.22-.67-.08-.33-.22-.65-.22-.98-.03-1.35-.03-2.7,0-4.05,0-.37.14-.74.21-1.13-.07-.28-.21-.62-.21-.96-.02-1.97-.02-3.95,0-5.92,0-.29.15-.58.25-.96-.39-.2-.26-.71-.26-1.18,0-1.39.04-2.77-.02-4.16-.02-.57.2-.94.56-1.29.57-.56,1.12-1.14,1.71-1.68.13-.12.38-.12.58-.13.34-.02.68,0,1.02,0,0-.08,0-.15,0-.23-.17-.02-.35-.03-.52-.06-.31-.05-.4-.25-.19-.47.56-.6,1.07-1.3,1.76-1.69.51-.29.94-.61,1.37-.97.08-.06.21-.12.22-.19.15-.89.91-1.34,1.45-1.92,1.03-1.13,2.17-2.16,3.25-3.24.9-.9,1.79-1.82,2.69-2.72.09-.09.29-.16.42-.14.57.09.92-.2,1.26-.63-.45-.27-.48-.51-.04-.86.52-.42.95-.95,1.46-1.39.11-.09.4.04.61.13.37-.22.63-.53.61-1.09-.01-.27.26-.6.48-.83.45-.47.95-.9,1.42-1.35.24-.23.44-.5.68-.73.31-.3.58-.59,1.08-.68.36-.07.72-.49.96-.84.26-.39.59-.34.94-.35.52-.02,1.09-.1,1.05.71,0,.03.07.06.15.11.06-.09.15-.17.15-.25-.03-.52.27-.58.69-.58,2.2.01,4.4,0,6.6.02.24,0,.46.22.71.27.2.04.43.01.63-.04.2-.05.38-.24.57-.24,1.56-.02,3.12-.02,4.68,0,.22,0,.44.15.64.22.29-.07.61-.2.93-.21.22,0,.61.1.64.22.06.27-.07.57-.12.87-.05,0-.11,0-.16,0,.13.15.23.34.4.43.15.08.37.05.56.07,0-.19.03-.39-.03-.56-.05-.16-.24-.29-.28-.45-.07-.36.06-.6.49-.58.55.02,1.11.01,1.66,0,.35,0,.55.09.58.48,0,.12.2.3.34.33.09.02.25-.16.33-.28.1-.14.15-.32.22-.48.18.1.35.2.54.31.64-.5,2.98-.52,3.45,0,.54-.5,2.13-.5,2.51-.1.38-.1.68-.23.99-.24,1.04-.03,2.08-.03,3.12,0,.26,0,.51.15.84.25.44-.38.47-.37,1.16.08.15.1.38.04.54.13.13.07.21.25.31.37.11-.07.19-.1.18-.12-.02-.73.44-.74.99-.73,1.12.03,2.25,0,3.38.02.16,0,.31.1.47.15-.06.12-.08.31-.17.36-.44.21-.9.38-1.36.57.66.49,1.8.08,1.98-.68.04-.16.25-.29.42-.39.09-.05.24-.01.36-.01,5.13,0,10.25,0,15.38,0,.05,0,.11-.01.16,0,.2.05.41.12.61.17-.09.18-.18.37-.26.55.42.18.53.15.59-.29.04-.33.19-.44.51-.44,4.05,0,8.1,0,12.16.02.22,0,.43.2.68.32.69-.53.7-.52,1.35.54-.04-1.12.7-.86,1.28-.87.5,0,1.01-.03,1.51,0,.36.03.71.14,1.04.21.33-.07.68-.2,1.03-.21,1.52-.02,3.05-.01,4.57,0,.3,0,.61-.05.83.29.06.09.49.09.57-.01.37-.49.86-.26,1.29-.24.26.01.29.27.08.46-.08.07-.19.12-.34.2.61.4.8-.22,1.14-.38.23-.11.46-.3.69-.3,1.44-.03,2.88-.07,4.31,0,.7.04,1.14-.26,1.57-.7.23-.24.38-.5.49-.84.18-.54.58-1.01.9-1.51.22-.34.43-.69.67-1.02.44-.6.93-1.17,1.33-1.8.24-.38.34-.85.51-1.28.04-.09.11-.17.18-.24.3-.31.64-.56.69-1.08.02-.24.41-.45.63-.68.08-.08.16-.17.22-.26.15-.25.24-.54.43-.75.43-.51.6-1.15.88-1.74.13-.27.42-.47.64-.7.08-.08.19-.15.22-.25.28-.93.36-1,1.34-1.1.09,0,.18-.05.29-.2-.15-.03-.3-.04-.44-.09-.1-.04-.24-.1-.27-.19-.03-.08.03-.24.1-.31.35-.32.57-.67.78-1.12.17-.39.23-.97.76-1.24.27-.14.44-.52.56-.9.13-.42.61-.73.93-1.1.11-.13.26-.32.24-.46-.06-.62.27-.98.75-1.27.06-.03.14-.09.14-.14.02-.8.51-1.16,1.25-1.27-.47-.51-.46-.5.18-1.13.14-.14.2-.36.3-.54.31-.59.51-1.25,1.1-1.66.09-.06.22-.18.21-.26-.07-.55.38-.76.65-1.09.06-.08.18-.15.18-.23.06-.75.7-1.03,1.16-1.45.35-.32.75-.64,1.18-.82.28-.11.66.04,1,.07,0,.05,0,.1,0,.16.03-.02.08-.04.08-.06,0-.64.38-.76.92-.7.31.03.63-.02.93.02.18.02.36.14.53.23.07.04.14.16.2.15.62-.12,1.11.24,1.61.47.28.13.5.41.74.63.06.06.09.17.15.2.44.17.89.32,1.33.49.12.05.21.15.32.23.32.24.5.62,1,.65.21.01.5.28.6.51.15.33.39.29.64.39.28.1.52.36.71.6.05.06-.15.32-.24.5.14.11.32.25.52.41.01-.05.03-.19.08-.32.05-.12.1-.28.2-.32.08-.03.22.08.33.15.1.06.18.19.28.19.73.05,1.05.46,1.09,1.16,0,.04.05.08.11.18.08-.12.11-.26.19-.29.14-.05.38-.1.46-.03.34.32.63.69.94,1.04.04.05.11.11.16.11.81-.04,1.05.72,1.56,1.1.13.1.28.22.36.36.22.37,0,.8-.4.89-.11.02-.21.07-.3.23.23.02.46.05.68.05.35,0,.51.13.5.49-.01.88,0,1.77-.01,2.65,0,.13-.07.26-.12.38-.09.19-.18.38-.3.54-.2.28-.37.62-.64.8-.35.23-.68,0-.76-.43-.03-.15-.11-.35-.22-.4-.13-.05-.42-.02-.47.07-.3.5-.52.3-.76-.09-.08.11-.13.22-.2.26-.12.05-.27.05-.4.07,0-.14-.03-.33.04-.4.34-.33.57-.7.8-1.13.2-.35.42-.63.39-1.06-.02-.33.03-.63-.37-.87-.27-.16-.31-.66-.55-.91-.32-.34-.5-.67-.44-1.14.02-.12-.04-.25-.07-.37-.05,0-.09,0-.14,0-.03.17-.03.36-.11.5-.07.11-.34.23-.36.21-.36-.47-.83-.71-1.39-.91-.37-.13-.62-.6-.94-.91-.1-.1-.27-.22-.38-.2-.65.14-.99-.29-1.35-.7-.08-.09-.18-.22-.26-.21-.35.01-.55-.18-.77-.42-.23-.26-.6-.35-.87-.51-.54-.32-1.29-.38-1.57-1.08-.03-.07-.12-.17-.17-.17-.57.02-.82-.45-1.2-.74-.12-.09-.31-.11-.48-.13-.3-.03-.6.03-.82-.31-.06-.1-.43-.04-.64.02-.21.05-.4.19-.6.3-.09.05-.21.07-.26.15-.32.45-.96.68-.93,1.38,0,.07-.26.18-.41.2-.26.04-.53.04-.71.05.1.35.24.64.24.92,0,.31-.22.37-.46.16-.1-.09-.18-.2-.28-.29-.63-.55-.67-.56-1.18.07-.11.14-.12.51-.01.63.16.17.43.15.59-.15.05-.1.23-.14.35-.21.06.11.18.23.18.34-.02.41.2.89-.31,1.16.04.81-.99,1.04-.99,1.86,0,.21-.4.42-.62.63-.08.08-.22.18-.22.26.03.38-.22.58-.45.81-.47.47-.58,1.12-.87,1.69-.17.33-.39.7-.85.71-.33,0-.39.16-.49.45-.17.52-.46.99-.74,1.54.24.02.49.02.74.06.14.02.27.11.4.17-.06.13-.1.27-.19.37-.33.38-.19.77.03,1.18.05-.09.15-.2.13-.28-.11-.48.33-.64.54-.93.04-.05.3-.02.39.05.37.29.53.86,1.14.81.05,0,.1.08.15.13.31.32.59.61,1.1.72.49.11.94.51,1.36.86.1.08-.04.44-.08.75.08.07.27.25.42.38.26-.09.58-.31.81-.24.22.07.35.44.54.7.2-.25.47-.53.74.01.81-.04,1.08.95,1.87.98.13,0,.23.23.37.33.58.44,1.14.92,1.75,1.3.38.24.85.34,1.27.52.09.04.18.1.23.18.15.25.28.51.39.78.04.09.02.28-.04.32-.56.37-.37.68.05.99.09.06.14.18.27.36.07-.21.13-.32.14-.44.02-.21,0-.42,0-.62.01-.57-.24-1.3.86-1.23-.13-.14-.18-.18-.21-.23-.07-.12-.18-.25-.17-.37,0-.07.2-.16.33-.18.87-.12.87-.12.87-1,0-.26-.02-.52.01-.78.02-.14.12-.26.2-.39.09-.15.26-.28.27-.43.03-.4.26-.43.57-.43.32,0,.41.19.42.47,0,.23.03.46.05.8.39-.37.7-.63.98-.94.29-.32-.11-.99-.63-1.12-.17-.04-.33-.13-.49-.2.1-.14.18-.3.3-.43.45-.52.74-1.11.96-1.77.09-.28.44-.48.65-.73.1-.12.15-.28.24-.42.18-.27.36-.55.56-.8.04-.04.23-.03.28.02.06.08.1.23.06.32-.05.11-.19.18-.38.36.49.07.86.24,1.21-.16.07-.08.33-.02.49.02.17.04.32.15.47.23.14.07.39.13.4.23.03.22-.02.46-.09.68-.03.1-.17.16-.26.24-.55.46-.72,1.13-.96,1.77-.04.1-.16.16-.23.26-.22.32-.61.5-.63,1,0,.18-.58.29-.73.53-.16.26-.06.67-.56.63-.11,0-.22.04-.42.08.35.3.53.5.09.89-.3.27-.32.84-.53,1.25-.14.28-.35.54-.58.73-.08.06-.35-.13-.57-.22-.12.1-.31.26-.59.48.2.04.35.05.49.1.13.05.25.13.38.2-.07.12-.14.25-.22.36-.04.06-.08.11-.13.15-.55.46-.65,1.23-1.25,1.7-.31.24-.34.83-.55,1.23-.15.29-.38.54-.58.81-.07.09-.17.17-.22.27-.14.26-.25.53-.42.89.12.02.31.08.5.08,2.16,0,4.33,0,6.49,0,.28,0,.57-.05.77.29.06.1.45.03.67-.02.23-.05.44-.25.66-.26,2.79-.02,5.58-.02,8.36,0,.19,0,.39.13.58.2-.09.17-.18.33-.24.44.15.15.33.32.53.52-.01.01.04-.05.11-.1.1-.07.21-.14.32-.21.08.12.21.23.22.36.03.44.25.52.66.37-.24-.4-.49-.78-.7-1.17-.14-.25,0-.41.26-.42.83-.01,1.66-.01,2.49,0,.1,0,.23.13.29.23.18.32.34.65.54,1.05.29-.43.82-.55.74-1.1,0-.03.33-.17.34-.15.21.29.6.43.59.9-.02,4.02,0,8.03-.02,12.05,0,.18-.11.39-.23.53-.21.24-.21.43-.02.68.13.18.23.41.25.62.04.43-.03.87.02,1.3.07.6-.25.96-.7,1.25-.35.23-.27.48-.1.73.23-.15.42-.27.61-.4.06.26.17.51.17.77.01,2.42.02,4.85,0,7.27,0,.31-.14.62-.21.92.07.25.21.52.21.79.01,3.48.02,6.96,0,10.44,0,.29-.16.58-.22.78.08.4.2.76.23,1.12.04.5.01,1,0,1.51,0,.32.06.66-.3.87-.07.04-.09.22-.1.33-.03.37.08.77-.42.96-.05.02-.04.55.07.61.65.36.78.88.77,1.58-.03,2.7-.02,5.4,0,8.1,0,.51-.03.91-.7.84-.06,0-.13.08-.27.17.16.08.26.17.35.16.55-.05.61.27.61.71-.01,2.87,0,5.75-.02,8.62,0,.29-.14.58-.24.97.37.21.25.71.25,1.18,0,.66,0,1.32,0,1.97,0,.34-.13.46-.48.53-.3.06-.55.32-.83.49.2.25.37.45.61.74.06-.22.08-.39.15-.54.06-.14.17-.26.25-.39.1.14.2.27.28.41.03.05,0,.14,0,.21,0,3.07,0,6.13,0,9.2,0,.27-.14.55-.21.79.07.3.21.61.21.92.02,3.1,0,6.2.02,9.3,0,.53,0,1-.73.91-.03,0-.07.02-.09.04-.02.02-.04.06-.07.11.15.4.93-.06.87.61-.04.38-.11.75-.18,1.19.05.19.18.49.18.78.01,4.21.01,8.42,0,12.62,0,.29-.14.59-.21.87.07.24.21.51.21.79.01,4.49.01,8.97,0,13.46,0,.24-.17.48-.27.72-.02.06-.11.12-.11.17.03.52-.37.54-.69.78-.77.57-1.55.27-2.32.34-.26.02-.54-.13-.81-.21-.25.07-.54.21-.83.21-2.46.02-4.92.01-7.38,0-.74,0-1.11-.38-1.12-1.14-.01-.73-.47-1.13-1.01-.98.08.37.2.72.21,1.08.03.6-.41,1.02-1.01,1.03-.36,0-.73.03-1.09,0-.26-.03-.51-.15-.75-.22-.29.07-.59.22-.9.22-5.47.01-10.94.01-16.42,0-.3,0-.61-.14-.98-.24-.19.33-.46.36-.72-.13-.54.64-1.25.44-1.83.31-.52-.12,0-.42.16-.7h-.91c.03.26.15.63.08.67-.37.21-.73.13-.98-.36-.34.58-.86.45-1.34.45-3.03,0-6.06,0-9.09-.01-.26,0-.51-.23-.77-.26-.34-.04-.7-.03-1.05.02-.22.03-.42.24-.63.24-2.98.02-5.96.02-8.94,0-.19,0-.42-.11-.57-.24-.24-.21-.43-.2-.68-.02-.18.13-.41.25-.62.26-.97.03-1.94.02-2.91,0-.17,0-.34-.11-.51-.16.07-.17.14-.34.23-.56-.11-.14-.27-.34-.37-.46-.34.18-.64.34-1.05.55.23.04.39.05.52.1.11.05.26.15.26.24,0,.09-.14.26-.23.26-.86.02-1.73.02-2.6,0-.08,0-.19-.09-.25-.16-.29-.34-.54-.33-.85,0-.12.12-.37.17-.56.17-1.94.01-3.88,0-5.82.01-.36,0-.6-.06-.62-.5,0-.12-.22-.29-.35-.32-.11-.02-.33.12-.37.23-.09.23,0,.57-.38.56-.41,0-.89.22-1.09-.23-.38.09-.7.24-1.03.24-3.01.02-6.03.02-9.04,0-.29,0-.58-.14-.95-.23-.39.4-2.03.4-2.4-.01-.36.09-.67.24-.98.24-1.75.02-3.5.02-5.25,0-.24,0-.47-.22-.72-.26-.34-.04-.7-.04-1.05.01-.23.03-.45.24-.68.24-1.49.02-2.98.02-4.47,0-.2,0-.4-.12-.6-.18.09-.14.21-.28.28-.43.17-.37.15-.74-.04-1.2-.28.42-.67.59-.7,1.11-.01.25-.42.58-.72.68-.6.21-.62-.32-.7-.79-.32.22-.15,1.47-.81.56-.48.1-.86.25-1.25.25-4.19.02-8.38.01-12.57.01-.17,0-.35.02-.52-.02-.12-.03-.25-.11-.3-.21-.03-.06.06-.22.13-.3.34-.36.32-.89.02-1.27-.14-.17-.18-.47-.14-.7.02-.1.32-.23.49-.23,1.84-.02,3.67-.02,5.51,0,.19,0,.37.2.57.25.21.06.5.15.65.06.86-.56,1.69-.46,2.34.33.04.05.09.1.15.17.18-.16.39-.27.49-.45.23-.43.61-.4.99-.37.17.01.33.12.5.18-.08.17-.16.33-.26.53.13.16.3.37.52.65.07-.16.13-.25.15-.35.11-.7.45-1.02,1.14-1.02,1.45,0,2.91-.01,4.36,0,.27,0,.55.14.9.24.43-.38.67-.38,1.1.01.43-.1.77-.2,1.11-.25.36-.06.55.08.62.49.05.28.32.52.53.83.06-.14.12-.22.13-.31.08-.61.53-1.03,1.15-1.03,2.15,0,4.29-.01,6.44,0,.32,0,.64.15,1.04.26.21-.38.69-.29,1.15-.25.11.01.21.17.31.27-.11.09-.22.25-.32.25-.47-.03-.9.06-1.18.45-.12.17-.11.44-.17.66.21.01.45.09.62.02.2-.09.32-.34.5-.49.15-.13.34-.22.51-.34.29-.2.57-.4.85-.61.05-.04.08-.12.13-.15.38-.25,2.37-.02,2.58.18.47-.1.84-.24,1.21-.24,7.55-.01,15.1-.01,22.65,0,.32,0,.65.14.95.21.27-.07.56-.2.85-.2,3.15-.02,6.3-.02,9.45,0,.32,0,.64.15,1.06.26.5-.4.72-.41,1.2.08.42-.44.45-.44.72-.11.41-.09.75-.22,1.09-.22,2.29-.02,4.57-.02,6.86,0,.24,0,.47.18.71.28.09.04.18.09.28.12.18.07.37.13.55.2-.1.18-.19.36-.32.61.47.2.95.11,1.52.04-.11-.15-.19-.22-.22-.3-.07-.25-.17-.5-.15-.75,0-.09.33-.21.51-.21,1-.02,2.01-.01,3.01-.01,1.3,0,2.6-.02,3.9.01.36,0,.71.14,1.05.21.33-.07.68-.2,1.04-.21,1.7-.02,3.39-.02,5.09,0,.26,0,.51.14.72.2.36-.07.72-.18,1.08-.2.48-.04.97-.01,1.45,0,.34,0,.68-.06.93.31.06.09.43.02.64-.04.23-.06.44-.26.66-.26.92-.03,1.84-.03,2.75,0,.26,0,.51.15.74.22.27-.07.56-.21.85-.22.9-.03,1.8-.03,2.7,0,.28,0,.55.14.82.21.28-.07.61-.21.93-.21,2.84-.02,5.68-.02,8.52,0,.53,0,.68-.17.67-.69-.02-3.01-.01-6.03-.01-9.04,0-.16-.03-.32,0-.47.04-.2.13-.39.2-.59.17.09.33.17.51.26.33-.51.18-.91-.41-1.11-.12-.04-.27-.23-.28-.35-.01-.39-.16-.83.3-1.12.07-.05.01-.37-.04-.55-.07-.24-.27-.47-.27-.71-.02-2.79-.02-5.58,0-8.36,0-.27.14-.54.25-.91.02.02-.11-.04-.15-.13-.04-.11-.01-.24-.01-.37.13,0,.29-.04.37.03.23.19.42.43.71.74v-2.03c-.11.07-.14.09-.16.11-.14.21.09.75-.37.63-.31-.08-.68-.38-.66-.86.02-.52-.02-1.04.01-1.56.02-.27.14-.54.22-.81-.07-.24-.22-.53-.22-.82-.02-3.78,0-7.55-.01-11.33,0-.41.03-.72.56-.72.09,0,.21-.18.28-.3.11-.21.19-.44.31-.74-.18-.02-.41-.06-.63-.06-.38,0-.52-.16-.52-.53.01-1-.01-2.01.02-3.01,0-.22.16-.44.22-.61-.08-.33-.23-.65-.23-.97-.01-7.32-.01-14.65,0-21.98,0-.3.13-.61.21-.95-.06-.22-.2-.5-.21-.79-.02-1.3-.01-2.6-.01-3.9,0-.31-.05-.61.3-.82.08-.05.03-.39-.02-.58-.06-.25-.26-.48-.26-.72-.02-5.8-.01-11.6,0-17.4,0-.2.11-.41.16-.61.18.08.36.17.55.25.27-.49.16-.87-.4-1.45-.16-.16-.31-.42-.31-.63-.02-1.97-.02-3.95,0-5.92,0-.24.15-.48.21-.66-.08-.35-.21-.68-.21-1.02-.02-2.86-.01-5.71,0-8.57,0-.68.01-.7.69-.71.34,0,.57-.06.59-.47,0-.12.12-.3.23-.35.3-.15.34-.43.17-.58-.12-.11-.5-.08-.66.04-.21.15-.31.45-.47.68-.09.13-.18.25-.27.37-.09-.14-.26-.28-.26-.42-.02-1.06-.01-2.11-.02-3.17q0-.74-.75-.74c-2.37,0-4.74,0-7.12-.01-.32,0-.63-.15-1.05-.26-.41.34-1.15.42-1.46.07-.57-.64-.59-.84-.06-1.37-.29-.15-.54-.21-.76.12-.05.08-.15.13-.24.17-.44.19-.89.37-1.34.68.26.02.53,0,.78.07.14.03.25.18.37.27-.13.09-.25.25-.38.25-1.78.02-3.57.02-5.35,0-.12,0-.28-.11-.35-.21-.03-.05.08-.24.17-.32.68-.64.76-.88.42-1.6-.28.33-.57.61-.77.93-.12.18-.15.45-.15.67,0,.4-.16.55-.56.55-1.33-.01-2.67,0-4,0-.3,0-.55,0-.72.35-.11.24-.42.38-.63.58-.07.07-.19.15-.18.22.02.35-.17.55-.41.77-.25.23-.43.49-.5.89-.06.34-.39.71-.89.7-.25,0-.49.03-.74.05,0,.05,0,.11-.01.16.16.03.34.03.49.09.12.05.22.17.33.26-.1.09-.19.22-.31.27-.15.05-.32.04-.51.16.09.06.21.1.25.18.07.11.13.37.11.38-.74.35-.76,1.22-1.27,1.73-.44.45-.66,1.03-.86,1.62-.09.28-.41.48-.62.71-.08.08-.23.16-.23.24.01.35-.19.54-.42.77-.47.47-.64,1.12-.89,1.72-.05.12-.16.21-.24.31-.24.31-.59.51-.63,1-.02.26-.42.48-.65.72-.08.08-.15.18-.21.27-.14.24-.26.48-.39.72-.16.3-.5.45-.5.9,0,.34-.28.69-.48,1.01-.04.06-.27.03-.39-.01-.09-.03-.15-.16-.22-.25-.05,0-.1,0-.15.01-.02.3-.05.61-.05.91,0,.41,0,.68-.56.78-.31.05-.7.45-.7.93,0,.32-.03.58-.3.87-.29.32-.34.85-.56,1.25-.16.29-.43.53-.65.79-.08.09-.23.17-.23.25.02.53-.4.75-.7,1.05-.04.04-.09.06-.11.11-.17.43-.29.88-.5,1.28-.15.29-.41.51-.63.76-.08.1-.25.2-.24.28.03.38-.17.59-.42.82-.25.22-.52.45-.47.86,0,.06-.08.14-.14.2-.32.31-.57.62-.74,1.09-.2.55-.45,1.18-1.03,1.53-.08.05-.2.14-.2.21.01.36-.19.58-.42.82-.48.5-.64,1.21-1.19,1.7-.33.3-.42.88-.62,1.33-.04.09-.09.18-.16.25-.29.32-.65.54-.72,1.06-.04.24-.47.54-.76.57-.16.02-.4-.43-.56-.69-.07-.11-.06-.28-.11-.55-.4.44-.72.79-1.09,1.21.24.03.47.03.68.08.21.05.58.16.58.25.01.37-.07.75-.16,1.11-.04.17-.18.32-.29.48-.11.16-.31.31-.32.47-.04.64-.65.95-.84,1.43-.2.49-.48.82-.83,1.16-.08.08-.06.26-.11.39-.05.14-.1.28-.17.41-.1.18-.21.35-.33.51-.17.24-.36.48-.52.72-.12.19-.2.4-.32.58-.12.18-.25.35-.39.5-.49.51-.53,1.33-1.26,1.71-.21.11-.38.63-.43.88-.15.77-.55,1.15-1.3,1.26q.45.48-.15,1.1c-.09.1-.28.19-.27.28.03.44-.26.64-.53.92-.44.46-.73,1.03-.87,1.67-.03.12-.16.21-.23.31-.22.31-.64.47-.63.95,0,.1-.25.25-.4.28-.26.05-.53.01-.84.01.15.3.29.5.36.73.15.49-.35.65-.54.97-.06.1-.21.15-.24.25-.24.78-.71,1.42-1.15,2.1-.3.46-.63.85-.97,1.27-.27.34-.32.85-.52,1.25-.15.29-.39.53-.6.79-.07.09-.16.17-.22.27-.18.3-.28.66-.52.88-.4.36-.76.69-.89,1.26-.1.4-.56.72-.65,1.12-.14.61-.67.95-.86,1.43-.21.52-.55.8-.9,1.14-.04.03-.07.08-.08.13-.16.45-.3.91-.48,1.34-.07.16-.27.26-.37.41-.29.42-.5.9-.85,1.25-.5.51-.58,1.31-1.25,1.69-.08.04-.05.26-.1.38-.05.12-.11.28-.2.31-.09.03-.26-.07-.33-.16-.22-.29-.43-.26-.65-.09.11.23.33.54.27.61-.21.24-.5.42-.78.6-.26.17-.57.28-.79.49-.36.35-.62.79-1.21.83-.14,0-.27.24-.41.36-.52.41-1.04.83-1.58,1.21-.29.21-.64.34-.94.53-.22.14-.46.29-.62.5-.2.25-.43.32-.71.41-.27.09-.45.42-.68.64-.07.07-.15.19-.23.19-.78-.03-1.02.71-1.52,1.06-.11.07-.21.16-.32.23-.21.12-.43.22-.63.35-.34.22-.52.57-1.03.66-.39.06-.69.6-1.04.93-.07.07-.13.17-.21.22-.32.17-.69.27-.96.49-.5.41-1.14.61-1.55,1.18-.19.26-.62.34-.93.53-.2.12-.35.31-.54.44-.43.3-.91.53-1.29.88-.67.62-1.42.95-2.33.87-.2-.02-.42-.12-.58-.24-.28-.21-.53-.26-.76.03-.18.23-.38.31-.53.04-.13-.23-.76-.34-.25-.79.12-.11.19-.32.2-.49.03-.45,0-.9.01-1.35,0-.32-.08-.67.36-.82.08-.02.12-.23.13-.36.02-.36-.03-.73.02-1.09.03-.24.19-.47.28-.71.05-.14.12-.28.13-.43.02-.43,0-.87,0-1.3,0-.33-.08-.69.31-.92.09-.05.09-.28.1-.43.01-.48-.02-.97.02-1.45.02-.23.18-.44.27-.66.05-.14.13-.28.13-.43.02-.4-.02-.8.02-1.19.02-.18.15-.35.23-.53.07-.17.17-.33.18-.51.03-.43,0-.87,0-1.3,0-.32.01-.6.29-.89.18-.18.07-.62.13-.94.06-.3.18-.58.27-.87h.17c-.08-.05-.16-.09-.23-.15-.06-.05-.16-.11-.17-.18-.01-.09.03-.27.06-.27.56-.07.2-1.23,1.07-.9.1.04.23.14.24.23.13.76.57,1.06,1.32,1.03.12,0,.28.11.35.22.03.05-.11.21-.17.32-.07.16-.19.32-.19.49-.03.47.02.94-.02,1.4-.03.26-.14.54-.3.75-.3.41-.08,1.03.4,1.18.22.07.41.27.61.41.68.51,1.55.8,1.97,1.63.04.08.25.11.38.1.43-.03.82.01,1.07.42.07.11.2.23.18.32-.02.09-.19.21-.29.21-.35.01-.49.16-.51.51-.02.31-.19.46-.48.23-.42-.35-.64-.39-1.18-.17.38.74,1.08.7,1.68.54.39-.11.7-.56,1.03-.87.16-.15.27-.5.54-.21.07.08-.09.38-.16.61.35.22,1.11.1,1.51-.14.46-.27.98-.45,1.5-.59.3-.08.64-.01,1.02-.01-.41-.61-.4-.75.18-1.28.19-.17.43-.28.65-.42.07.23.14.47.22.7,0,.03.04.05.04.05.14-.23.29-.46.44-.69.07.05.15.1.22.15-.09-.05-.22-.08-.27-.16-.07-.11-.14-.35-.09-.38.27-.21.58-.37.86-.56.27-.18.53-.38.79-.58.08-.06.14-.21.21-.21.71,0,.93-.71,1.43-1.02.09-.05.12-.29.09-.42-.02-.09-.19-.22-.29-.22-.52.03-.72-.38-1.01-.69-.08-.08-.17-.22-.25-.22-.35.02-.55-.18-.77-.42-.23-.26-.48-.54-.9-.47-.06.01-.16-.07-.21-.12-.32-.32-.56-.69-1.1-.76-.24-.03-.42-.4-.64-.62-.08-.08-.18-.22-.25-.21-.4.05-.61-.21-.87-.44-.47-.42-1.11-.57-1.61-.9-.55-.36-1.37-.35-1.65-1.11-.02-.07-.13-.15-.19-.15-.47.03-.65-.19-.66-.64,0-.07-.24-.22-.35-.2-.7.11-1.11-.3-1.56-.91-.05.27-.06.43-.1.57-.09.27-.22.54-.3.81-.06.18-.09.36-.1.55-.02.35,0,.69,0,1.04,0,.13-.01.36-.08.39-.57.24-.36.74-.42,1.15-.03.24-.16.47-.25.7-.23-.23-.65-.45-.66-.69-.04-.62-.37-.65-.82-.62-.03,0-.07,0-.1,0-.25-.06-.63-.04-.73-.2-.17-.27-.14-.62.23-.84.09-.05.11-.28.11-.43.01-.45,0-.9,0-1.35,0-.31-.05-.62.3-.82.09-.05.11-.28.11-.43.01-.45,0-.9,0-1.35,0-.31.15-.55.27-.82.23-.54.56-.93.93-1.34.13-.14.02-.47.08-.7.04-.16.13-.36.26-.44.33-.19.69-.32,1.08-.49-.54-.56-.53-.59.15-1.27.12-.12.16-.31.26-.46.37-.56.46-1.29,1.1-1.67.09-.05.22-.18.21-.25-.07-.41.24-.6.44-.87.3-.4.57-.83.85-1.25.18-.28.33-.24.56,0,.29.29.51.82,1.02.59-.13-.54-.25-1.05-.38-1.55-.05-.03-.1-.06-.15-.09-.03.08-.03.21-.09.24-.12.08-.28.11-.42.16.03-.16.03-.32.08-.47.05-.15.13-.3.21-.44.08-.13.18-.25.27-.38.09.14.2.27.28.41.06.11.07.24.1.36.05,0,.1,0,.14.01.04-.13.11-.25.12-.38.02-.28.02-.55,0-.83-.03-.44.03-.82.41-1.15.22-.19.27-.56.47-.78.17-.19.46-.27.72-.42Zm15.17,13.4s0-.02-.01-.03c-.38-.2-.31-.56-.33-.9-.03-.45.12-.69.6-.69.07,0,.19-.09.19-.14.02-.53.11-1.01.54-1.39.13-.11.16-.34.24-.51.16.1.33.19.45.26.42-.33.86-.67,1.31-1.02-.14-.02-.34,0-.46-.09-.11-.08-.19-.39-.17-.4.39-.21.29-.58.34-.92.02-.17.13-.34.24-.47.2-.26.52-.46.63-.75.24-.62.51-1.2.93-1.72.1-.13.34-.24.33-.35-.04-.56.4-.8.7-1.12.06-.06.12-.13.15-.2.19-.46.26-1.05.6-1.34.56-.48.69-1.22,1.21-1.68.26-.23.45-.45.42-.82,0-.09.1-.21.19-.28.6-.48.92-1.12,1.16-1.84.04-.13.3-.21.48-.26.23-.06.47-.05.63-.07-.12-.39-.23-.67-.28-.96-.01-.08.14-.25.23-.26.08-.01.22.12.27.23.19.33.35.67.54,1,.08.15.2.28.28.43,0,.01-.16.16-.17.14-.15-.11-.29-.24-.43-.36-.02-.02-.06,0-.19,0,0,.21-.03.43,0,.64.03.16.13.41.24.43.16.03.43-.04.52-.17.3-.39.55-.83.88-1.35-.37-.17-.72-.33-1.07-.49-.08-.04-.17-.07-.21-.13-.23-.29-.03-1.46.24-1.7.23-.21.47-.46.58-.74.24-.62.46-1.25.94-1.7.24-.22.36-.42.37-.74,0-.11.12-.25.22-.32.56-.38.86-.99,1.04-1.56.24-.74.96-1.14,1.13-1.88,0-.01.03-.01.04-.03.2-.31.64-.49.58-.97-.01-.1.16-.23.26-.33.2-.21.51-.37.58-.61.21-.63.5-1.2.88-1.73.22-.31.28-.77.55-.98.58-.46.83-1.12,1.24-1.68.11-.15.31-.26.35-.42.17-.66.51-1.2.93-1.72.11-.14.3-.26.34-.42.22-.76.5-1,1.33-1.07.15-.01.36-.1.4-.21.05-.12-.02-.36-.12-.45-.31-.24-.33-.42.02-.62.06-.04.1-.13.13-.21.17-.45.32-.9.5-1.34.03-.08.15-.14.22-.21.21-.21.6-.42.6-.63,0-.55.41-.75.68-1.08.06-.08.18-.16.18-.23-.05-.52.4-.71.66-1.03.05-.06.15-.11.17-.18.17-.43.31-.87.48-1.3.04-.1.12-.22.21-.27.8-.46,1.07-1.31,1.51-2.04.32-.53.53-1.13.9-1.62.22-.29.55-.48.5-.91,0-.07.12-.16.2-.22.56-.38.75-1.03.98-1.57.32-.75.46-1,1.26-1.03.16,0,.32-.04.47-.06,0-.05,0-.1,0-.15-.14-.03-.28-.03-.41-.08-.14-.06-.27-.15-.41-.23.09-.11.17-.22.26-.33.24-.3.69-.46.64-.97-.01-.09.04-.22.1-.28.66-.5.93-1.22,1.18-1.97.03-.09.13-.15.2-.23.22-.24.61-.47.63-.74.04-.49.42-.67.65-.99.07-.11.2-.2.23-.31.19-.76.49-1.01,1.28-1.05.14,0,.28-.04.49-.07-.67-.54-.65-1.13-.1-1.68.25-.25.46-.54.6-.95.15-.46.71-.8,1.13-1.14.29-.23.66-.37.99-.55-.02-.06-.03-.11-.05-.17-.16-.02-.32-.03-.47-.08-.13-.04-.28-.11-.35-.22-.03-.05.09-.22.17-.32.26-.35.8-.5.74-1.08,0-.06.15-.13.21-.2.2-.24.41-.48.57-.75.13-.23.19-.5.29-.79-.5-.73-1.33-1.08-2.2-1.36-.09-.03-.22-.19-.2-.24.03-.1.15-.21.25-.26.15-.07.33-.08.55-.12-.74-.85-.82-.86-1.67-.34-.07.04-.2.07-.24.04-.43-.43-.94-.7-1.48-.98-.38-.19-.58-.7-1.12-.71-.07,0-.13-.14-.2-.21-.08-.08-.18-.23-.25-.22-.43.07-.63-.26-.92-.46-.23-.17-.51-.28-.76-.42-.1-.06-.18-.15-.26-.22-.54-.45-.94-1.15-1.81-1.04-.11.01-.25-.14-.35-.24-.23-.21-.44-.6-.68-.62-.54-.03-.76-.4-1.08-.68-.09-.08-.19-.14-.29-.19-.17-.09-.35-.16-.52-.24.09-.16.19-.33.24-.42-.14-.37-.27-.71-.43-1.12-.06.16-.12.25-.11.34.04.5-.08.88-.5,1.24-.38.33-.59.85-.88,1.28-.1.15-.29.25-.36.41-.19.44-.33.89-.5,1.34-.03.08-.14.14-.22.21-.21.21-.58.41-.6.63-.03.41-.27.63-.48.91-.17.23-.27.52-.43.76-.07.11-.21.19-.34.25-.1.05-.3,0-.34.07-.32.52-.61.32-.88-.05-.29.52-.19.9.12,1.24.15.16.24.62.14.72-.42.41-.7.88-1.01,1.37-.43.66-.88,1.29-1.14,2.05-.03.09-.12.16-.19.23-.22.22-.63.44-.64.66-.01.52-.38.73-.63,1.06-.07.09-.24.19-.22.25.09.45-.29.64-.51.89-.23.26-.55.44-.84.65-.14.1-.38.16-.4.28-.03.12.11.33.23.43.3.24.27.37-.04.57-.24.16-.58.41-.59.63-.02.44-.31.66-.51.96-.15.23-.26.48-.4.72-.06.1-.14.19-.21.27-.2.23-.44.43-.58.69-.23.44-.28,1.05-.62,1.34-.58.49-.72,1.22-1.2,1.74-.12.14-.31.26-.35.42-.2.67-.54,1.26-1.02,1.77-.16.17-.24.4-.35.61-.06.12-.1.25-.18.35-.27.33-.72.54-.69,1.07,0,.07-.12.15-.19.22-.37.39-.92.72-1.05,1.18-.15.54-.38.6-.82.59-.14,0-.29.04-.37.05.11.3.22.55.28.82.15.67-.29,1.04-.75,1.38-.15.11-.32.2-.47.29-.05-.19-.13-.37-.16-.57-.04-.23-.05-.46-.09-.83-.29.35-.45.56-.64.79.36.22.53.48.03.76-.05.03-.07.15-.08.24-.1.54-.38.88-.95.94-.1.01-.19.09-.33.16.11.09.17.17.21.16.43-.07.65.25.89.49.08.08.11.33.05.43-.13.19-.32.4-.52.45-.14.04-.35-.17-.52-.27-.04.01-.08.02-.12.04.08.19.11.43.24.57.23.23.21.34-.02.58-.26.28-.42.66-.63,1-.06.1-.12.19-.18.29-.1.17-.21.35-.31.52-.07.11-.12.24-.2.33-.28.32-.71.54-.65,1.07,0,.08-.09.17-.16.25-.29.32-.72.54-.7,1.07,0,.08-.15.17-.23.25-.21.23-.53.42-.62.69-.22.66-.51,1.28-.97,1.8-.1.11-.29.22-.29.32.02.4-.21.61-.44.88-.2.23-.3.54-.46.81-.06.1-.16.17-.24.25-.22.23-.56.43-.61.69-.08.34-.18.59-.43.82-.25.22-.46.45-.5.85-.03.32-.23.66-.44.92-.29.35-.53.81-1.15.67-.28-.06-.58-.01-.88-.01,0,.08,0,.16,0,.23.28.02.56,0,.83.07.13.03.32.29.3.34-.29.49-.62.96-.95,1.43-.07.11-.22.2-.23.3-.06.66-.4,1.01-1.06,1.08-.1.01-.26.13-.26.19.02.51-.21.9-.42,1.35-.28.61-.47,1.27-.96,1.75-.23.22-.36.42-.37.74,0,.11-.13.23-.22.32-.21.21-.61.41-.62.62-.01.44-.3.65-.53.88-.24.23-.33.46-.4.78-.08.37-.29.74-.51,1.06-.38.56-.83,1.08-1.23,1.63-.3.42-.57.88-.86,1.31-.1.15-.29.25-.36.41-.19.43-.33.89-.5,1.33-.02.06-.09.1-.13.15-.29.34-.83.51-.77,1.1,0,.05-.07.12-.13.15-.67.33-.65,1.12-1.05,1.64-.34.44-.55.99-.78,1.51-.07.15-.07.38-.01.54.03.08.3.16.39.11.12-.06.19-.25.23-.4.04-.18-.01-.38.03-.57.02-.11.13-.24.23-.28.06-.03.19.09.28.16.1.08.19.27.27.26.6-.03.6.35.6.78,0,.16.11.45.2.46.19.02.39-.1.58-.17.13-.05.36-.17.37-.14.36.52.93.72,1.44,1.02.01,0,.01.03.03.04.29.21.55.49.87.62.39.15.61.58.32.9-.62.65-.18,1.37-.23,2.1.34-.52.64-.42.94,0,.28-.5-.19-1.21.59-1.49-.25-.08-.45-.08-.64-.14-.09-.03-.2-.16-.21-.24,0-.09.13-.25.19-.24.24.02.48.08.71.16.17.05.33.14.47.23.28.18.56.35.8.57.04.04-.19.32-.26.51-.05.12-.05.27-.08.4-.07.34-.15.68-.23,1.1.07.07.24.22.41.39.1-.28.18-.52.27-.75.08-.21.2-.4.26-.62.05-.16,0-.35.04-.51.09-.27.33-.32.45-.09.14.3.34.33.61.35.13.01.26.13.37.22.23.19.45.41.69.58.22.16.49.25.7.41.11.09.16.26.24.39-.15.06-.29.17-.45.18-.37.03-.73,0-1.19,0,.19.27.33.4.39.57.07.18.06.38.1.63.41-.41.4-.4.87-.09.12.08.35.1.49.05.1-.04.16-.23.19-.37.03-.17,0-.35.02-.52.02-.12.09-.32.16-.33.12-.02.28.06.38.15.24.21.42.49.68.66.23.16.52.21.71.28.17-.25.36-.52.52-.81.27-.46.56-.43.82-.01.31-.32.59-.61.91-.94ZM23.71,66.63c.06-.03.11-.07.17-.1.02-.19.06-.39.06-.58.02-.7.02-.72.74-.72,1.11,0,2.22,0,3.32,0,.75,0,.75,0,.77.74,0,.19.06.38.11.65.27-.48.52-.82.63-1.2.08-.25.06-.68-.09-.82-.29-.26-.28-.53-.28-.83,0-3.48.02-6.96-.02-10.44,0-.68.17-1.15.71-1.57.61-.47.76-1.37.33-2-.03.28-.06.48-.06.67,0,.35-.05.6-.5.6-.47,0-.47-.29-.47-.62,0-.62,0-1.25,0-1.87,0-.17-.06-.33-.12-.65-.33.41-.53.71-.79.97-.86.88-1.73,1.74-2.59,2.6-.88.88-1.75,1.75-2.64,2.62-.46.45-.94.87-1.4,1.32-.41.4-1.2.46-1.18,1.27,0,.02-.06.03-.08.06-.82.84-1.64,1.68-2.47,2.51-.89.89-1.78,1.78-2.68,2.66-1.07,1.06-2.15,2.11-3.22,3.16.17.19.27.38.43.44.17.07.41.08.6.03.26-.06.51-.28.76-.28,2.91-.02,5.82-.01,8.72-.01.14,0,.29-.02.41.03.1.04.21.17.23.28.01.06-.13.19-.22.22-.16.06-.33.07-.64.12.56.36,1.3-.12,1.45.75Zm61.76,39.73c.42.17.78.3,1.13.47.09.04.21.17.21.25-.01.53.32.61.72.55.55-.09.6.48.94.66-.08.13-.12.3-.24.37-.13.08-.32.08-.48.12.01.05.02.11.04.16.4-.03.84.26,1.17-.26.04-.06.2-.11.28-.08.32.13.73.22.91.46.45.62,1.21.75,1.74,1.22.15.13.28.42.4.41.49-.03.65.4.97.59.12.07.21.22.34.27.44.18.93.27,1.32.52.6.38,1.17.84,1.7,1.33.23.21.4.39.72.37.1,0,.2.1.3.17.5.35.98.72,1.49,1.04.11.07.39.04.48-.05.6-.58,1.17-1.19,1.8-1.83-.56-.25-.5-.51-.08-.79.2-.14.41-.31.53-.52.15-.25.22-.56.35-.9-.25-.23-.71-.38-1.02-.61-.57-.43-1.24-.7-1.74-1.21-.23-.23-.44-.41-.78-.4-.1,0-.2-.15-.3-.24-.29-.26-.45-.68-.95-.68-.1,0-.23-.2-.3-.33-.07-.13-.08-.3-.13-.52-.29.19-.4.72-.78.29-.29-.32-.53-.72-1.06-.71-.08,0-.17-.15-.25-.23-.24-.21-.46-.48-.74-.63-.42-.22-1.02-.24-1.28-.56-.46-.56-1.15-.7-1.66-1.14-.28-.24-.82-.29-.96-.56-.33-.68-1.08-.68-1.53-1.13-.08-.08-.42-.02-.56.09-.52.4-.55,1.1-.9,1.62-.1.15-.16.32-.28.45-.19.21-.57.38-.58.59-.05.6-.53.87-.92,1.41Zm1.86,18.49c.28-.12.5-.2.71-.31.12-.06.28-.16.31-.27.03-.13-.01-.33-.1-.42-.21-.22-1.23-.05-1.44.22-.2.25-.84.32-.95.05-.29-.7-1.01-.82-1.54-1.1-.44-.23-.8-.5-1.18-.78-.13-.09-.44-.15-.5-.08-.25.27-.61.46-.6.95.01.6.24,1.29-.36,1.78-.03.02-.03.1-.03.15-.03.43.12.93-.56,1.06.7.51.71.68.16,1.26-.21.22-.14,1.28.06,1.47.21-.14.39-.35.6-.39.28-.06.43-.15.45-.45,0-.13.11-.3.21-.37.27-.18.58-.29.86-.46.44-.27.88-.55,1.3-.84.17-.12.28-.42.44-.45.54-.08.84-.45,1.18-.79.61-.62.62-.62.96-.22Zm35.6-81.42c.02-.06.05-.12.07-.18-.23.04-.52.01-.67.15-.4.35-.58.83-.46,1.37.04.17.12.45.2.46.19.02.42-.06.58-.17.33-.23.54-.6,1.04-.66.48-.05.7-.67.51-1.09-.19.21-.4.4-.57.62-.26.33-.58.28-.87.1-.05-.03.11-.39.17-.6Zm25.54-4.03c-.33.31-.62.56-.87.84-.11.12-.17.34-.15.49.02.11.22.19.36.27.14.08.33.1.43.21.24.28.47.24.8.07-.8-.47-.14-1.31-.56-1.89Zm-4.85-4.7c-.54.53-.68.84-.45,1.04.32.28,1.07,0,1.47-.56-.33-.16-.66-.31-1.01-.48Zm-48.01,130.98c.44-.82,1.31-.1,1.9-.58-.15-.14-.29-.24-.39-.36-.28-.35-.55-.33-.84-.01-.08.09-.22.15-.34.18-.51.11-.56.2-.33.78Zm-15.12-42.52c.26.05.67.23.96-.13.28-.35-.03-.95-.61-1.31-.11.47-.22.93-.34,1.44Zm-71.39.21c-.09.08-.13.12-.18.16-.31.25-.63.49-.94.74-.13.1-.31.18-.37.32-.04.07.1.34.18.35.18.01.41-.02.55-.13.24-.18.4-.46.63-.63.32-.23.24-.47.14-.8Zm109.87,42.65c.19-.32.41-.62.54-.97.05-.14-.05-.46-.16-.51-.45-.2-.58.31-.84.5-.09.06-.03.42.06.6.08.17.28.27.41.38Zm30.35-.38c.19-.35.88-.54.44-1.02-.16-.17-.84-.16-.98,0-.45.56.37.64.53,1.01Zm14.74-.55c-.5.13-.96.26-1.55.42.44.19.77.34,1.04.45.36-.14.71-.27,1.02-.39-.21-.19-.4-.37-.52-.48Zm-54.02-119.94c-.55-.09-1.04-.2-.94-.99-.35.55-.65.45-.96.02-.16.42-.14.66.32.7.14.01.3.08.4.18.37.39.75.2,1.18.08Z"/>
  <path d="m46.72,139.81c-.28.44-.51.61-.8.17-.06-.09-.25-.07-.37-.13-.14-.07-.27-.17-.4-.26-.06-.05-.09-.16-.16-.19-.44-.17-.91-.29-1.33-.49-.41-.19-.78-.46-1.17-.7-.03-.02-.05-.05-.08-.06-.71-.16-1.41-.33-2.13-.47-.3-.06-.59.01-.83-.3-.12-.14-.48-.12-.73-.12-.9-.01-.98.05-.95-.88,0-.13-.04-.25-.17-.39-.04.1-.08.19-.11.29-.03.11-.02.3-.09.34-.46.23-.91.48-1.4.62-.32.09-.69-.01-1.03.03-.21.03-.41.16-.62.25-.06.03-.12.12-.17.11-.62-.12-1.08.3-1.6.5-.48.18-.9.5-1.35.76-.29.17-.44.57-.9.51-.11-.01-.25.29-.39.42-.77.73-1.56,1.43-2.3,2.19-.26.26-.36.67-.57.98-.15.23-.35.44-.56.62-.39.33-.8.6-.81,1.21,0,.19-.33.36-.48.57-.13.2-.22.42-.32.64-.11.25-.21.5-.31.76-.04.11-.08.22-.1.34-.02.1,0,.23-.05.3-.24.38-.52.73-.76,1.11-.08.12-.1.29-.11.43-.02.32.05.65-.32.86-.1.06-.09.35-.09.53-.02.47.08.93-.37,1.31-.25.22-.33.63-.51.94-.05.09-.18.18-.28.19-.55.02-1.11.03-1.66,0-.33-.02-.5-.66-.23-.92.26-.24.46-.63.93-.54.07.01.15-.04.41-.13-.47-.24-.8-.44-1.15-.58-.28-.12-.36-.25-.15-.49.07-.08.23-.14.22-.2-.09-.66.42-1.17.46-1.77.03-.46.12-.74.64-.69.08,0,.17-.07.33-.14-.45-.29-.56-.5-.12-.91.3-.28.33-.84.53-1.25.21-.44.48-.84.71-1.27.18-.33.4-.66.49-1.02.08-.3.18-.48.43-.69.27-.21.49-.51.58-.95.09-.4.56-.73.89-1.06.96-.96,1.94-1.91,2.91-2.86.08-.08.19-.2.28-.2.33,0,.55-.13.77-.39.44-.52,1.07-.77,1.71-1.01.45-.17.85-.47,1.27-.72.01,0,.03-.03.04-.03.69-.16,1.38-.33,2.07-.47.38-.07.5.16.54.52.01.11.21.28.33.28.11,0,.25-.16.34-.28.12-.16.18-.44.32-.49.28-.11.58-.05.73.29.01.02.06.03.07-.09.39-.08.77-.2,1.16-.23.59-.04,1.18-.01,1.77,0,.35,0,.69-.04.98.31.12.15.52.08.79.1.32.02.66-.07.86.32.03.07.22.06.33.11.18.08.35.18.53.24.25.08.52.11.77.19.15.05.29.13.43.2-.07.12-.13.26-.23.35-.61.57-.72.92-.43,1.56.45-.74,1.26-.14,1.91-.53-.18-.06-.28-.12-.39-.12-.37,0-.5-.2-.45-.53.03-.17.13-.32.2-.48.12.09.25.18.37.28.05.04.09.12.14.14.43.17.9.25,1.27.51.32.22.61.39.99.44.07,0,.16.19.16.29,0,.44.26.47.61.5.24.02.48.18.72.28.11.04.23.07.33.13.16.09.32.2.47.31.08.05.17.18.23.17.43-.08.65.24.91.47.48.41,1.04.65,1.64.84.41.13.77.42,1.16.64.12.06.24.12.36.17.06.02.15,0,.2.03.41.25.8.53,1.22.74.45.22.94.38,1.41.56.24.09.46.22.7.3.21.07.43.13.64.12.51-.03.69.18.65.67-.02.2.04.41.07.7.23-.28.39-.47.57-.69-.07-.06-.2-.1-.22-.18-.04-.13-.01-.27-.02-.41.12.02.26.01.37.05.26.09.5.26.76.28.64.04,1.28.02,1.92.01.32,0,.65.06.87-.31.05-.09.28-.1.43-.11.35-.01.74.1,1.03-.03.64-.27,1.38-.26,1.95-.7.04-.03.08-.06.13-.08.45-.16.96-.23,1.32-.5.32-.24.65-.41,1-.58.58-.29,1.09-.71,1.81-.74.29-.01.57-.36.84-.56.08-.06.14-.2.22-.2.77-.03,1.04-.72,1.53-1.12.09-.07.16-.17.26-.23.27-.16.59-.25.8-.46.28-.28.75-.29.94-.49.49-.48,1.02-.32,1.54-.34.41-.02.87.47.89.88.01.28,0,.55,0,.83-.01.43-.47.88-.88,1.03-.28.1-.51.36-.76.55-.11.08-.21.25-.3.24-.54-.05-.75.39-1.08.66-.09.07-.2.19-.28.18-.48-.07-.68.33-.89.59-.19.22-.35.3-.61.37-.39.1-.78.28-1.12.5-.54.34-1.04.74-1.57,1.09-.1.07-.27.06-.4.07-.3.02-.63-.06-.81.31-.03.06-.18.07-.28.11-.45.21-.9.43-1.35.63-.22.1-.44.24-.67.27-.43.06-.87-.08-1.23.36-.13.16-.56.07-.85.08-.3.01-.6-.04-.83.29-.09.13-.45.12-.67.07-.1-.03-.17-.3-.2-.47-.05-.22-.05-.45-.07-.68-.06-.02-.13-.04-.19-.06-.18.31-.34.64-.55.93-.1.14-.28.3-.43.32-.45.04-.9.05-1.35,0-.22-.02-.43-.2-.66-.32-.5.47-.5.44-1.23.01-.23-.13-.57-.08-.86-.09-.32-.02-.65.05-.87-.31-.06-.09-.29-.07-.43-.12-.27-.09-.54-.2-.81-.3-.11-.04-.22-.09-.34-.1-.4-.03-.75.03-1.08-.41-.22-.3-.79-.34-1.19-.53-.44-.21-.84-.55-1.3-.64-.68-.13-.77-.72-1.13-1.11-.03-.04-.06-.08-.09-.13-.26-.39-.56-.4-.81-.03-.19.29-.33.28-.54,0-.25-.33-.5-.6-.97-.74-.56-.17-1.06-.57-1.54-.93-.13-.1-.12-.4-.21-.75Z"/>
</svg>