<?xml version="1.0" encoding="UTF-8"?>
<svg id="Layer_1" data-name="Layer 1" xmlns="http://www.w3.org/2000/svg" viewBox="0 0 180 180">
  <path d="m172.69,82.62c.28-.55.21-.73-.32-.75-.32-.02-.42-.17-.42-.45,0-2.31,0-4.62.02-6.92,0-.21.22-.42.37-.67-.55-.19-.39-.74-.38-1.23.01-.47-.23-1.05.62-1.32-.76-.21-.62-.71-.62-1.15,0-1.33.01-2.65,0-3.98,0-.5.04-.87.68-.79.04,0,.09-.03.14-.05.01,0,.02-.03.04-.08-.54-.23-.33-.72-.37-1.14-.02-.3.13-.68-.35-.8-.05-.01-.03-.26-.04-.4.14,0,.29-.02.41.03.08.04.13.18.24.35.08-.18.15-.27.15-.37.02-.27.02-.55,0-.83-.02-.53-.08-1.07.72-1,.03,0,.06-.07.07-.08-.22-.16-.43-.32-.64-.47.05-.04.1-.08.16-.12-.22.19-.43.39-.65.57-.09.08-.25.21-.3.18-.11-.07-.21-.21-.23-.33-.04-.24-.02-.48-.02-.72,0-1.05,0-2.1,0-3.15,0-.25-.05-.53.32-.61.07-.02.17-.2.15-.28-.08-.48.3-1.08-.38-1.41-.08-.04-.09-.28-.09-.43,0-1.4-.02-2.79.01-4.18,0-.25.21-.5.33-.77-.42-.1-.35-.52-.35-.92,0-.96,0-1.93,0-2.89,0-.68.35-1.06,1.03-1.16.08-.01.15-.05.24-.19-.18-.04-.38-.03-.53-.12-.16-.09-.26-.27-.48-.51-.05.24-.06.42-.13.57-.06.14-.17.25-.26.37-.1-.12-.24-.22-.28-.35-.21-.65-.49-1.26-.96-1.75-.53-.55-1.1-1.08-1.64-1.62-.04-.04-.08-.11-.1-.11-.69.17-1.17-.48-1.82-.47-2.55,0-5.1,0-7.65,0-.15,0-.31.01-.46-.01-.32-.06-.39-.33-.17-.47.43-.26.3-.62.28-.96,0-.11-.23-.27-.36-.28-.09-.01-.27.18-.29.3-.04.32-.02.65-.02.98,0,.3-.12.44-.43.44-1.77,0-3.55.03-5.32-.03-.28,0-.54-.42-.82-.62-.14-.09-.33-.17-.49-.16-.09,0-.19.18-.26.3-.09.15-.14.32-.21.48-.17-.09-.35-.19-.41-.22-.36.1-.66.24-.96.24-1.76.02-3.51,0-5.27.02-.38,0-.64-.05-.63-.51,0-.39-.32-.33-.57-.34-.26,0-.55-.02-.54.37,0,.39-.19.5-.55.49-.41-.02-.83-.01-1.24,0-.32,0-.55-.06-.52-.45.02-.28-.12-.46-.39-.38-.14.04-.26.23-.36.37-.1.14-.16.41-.24.42-.23.01-.53-.02-.69-.15-.39-.32-1.32-.32-1.69.04-.09.09-.27.13-.41.14-.27.02-.55.03-.83,0-.18-.02-.35-.13-.52-.2.09-.16.18-.32.25-.45-.06-.21-.13-.43-.2-.65.24-.06.48-.12.73-.18-.47-.7-1.42-.92-1.96-.5.28.15.69.23.81.47.1.19-.15.55-.26.91-.03-.02.08.01.15.09.07.08.14.21.12.3-.02.09-.15.17-.24.21-.11.04-.24.02-.36.02-1.64,0-3.27,0-4.91,0-.4,0-.67-.05-.67-.54,0-.1-.23-.3-.32-.28-.13.03-.34.2-.34.32,0,.43-.22.53-.6.51-.34-.02-.69.03-1.03-.01-.29-.03-.56-.14-.87-.22-.23.06-.52.2-.82.22-.72.04-1.45-.04-2.17.03-.75.07-1.28-.23-1.7-.81-.06.05-.13.08-.13.1.05.66-.34.71-.87.71-2.84-.02-5.68-.01-8.53,0-.39,0-.7,0-.72-.54-.01-.42-.33-.33-.67-.22.11.1.2.14.24.22.06.11.14.23.13.34,0,.07-.16.15-.27.18-.11.03-.24.02-.36.02-2.46,0-4.93,0-7.39,0-.28,0-.56-.14-.84-.21-.25.06-.54.21-.84.21-3.31.02-6.61.02-9.92,0-.3,0-.59-.15-.96-.24-.29.37-.61.36-1.07-.01-.14-.11-.47-.04-.7.01-.21.04-.4.24-.6.24-1.7.02-3.41.02-5.12.01-.73,0-.91.15-.89-.82,0-.14-.11-.38-.21-.39-.15-.03-.33.08-.48.16-.15.09-.28.22-.46.37.1.05.22.09.28.16.07.08.15.21.13.3-.02.09-.15.21-.24.21-1,.01-2,.02-3,0-.09,0-.21-.18-.26-.3-.06-.14-.05-.31-.08-.47-.05,0-.1-.01-.16-.02-.04.12-.13.24-.12.36.01.38-.19.46-.52.46-2.43,0-4.86,0-7.29-.01-.17,0-.39-.1-.51-.23-.25-.25-.44-.24-.7-.02-.15.13-.36.23-.56.25-.36.04-.72.03-1.08,0-.21-.01-.41-.1-.61-.15.08-.19.17-.39.27-.61-.55-.26-.71.37-1.08.52-.17.07-.33.24-.5.24-3.72.01-7.44.02-11.16,0-.21,0-.42-.17-.68-.28-.45.41-.48.43-1.03-.3-.25-.33-.46-.24-.82-.16.13.11.23.15.27.22.06.11.14.24.12.35-.01.07-.18.17-.27.17-.69.01-1.38.02-2.07,0-.1,0-.29-.19-.28-.21.09-.17.22-.33.41-.6-.26.04-.53,0-.69.11-.42.31-.4.33-.72-.02-.17.24-.3.6-.54.69-.2.08-.53-.15-.86-.26-.24.23-1.78.5-2.15.25-.12-.08-.17-.35-.16-.53,0-.13.13-.3.26-.36.14-.08.34-.06.62-.1-.82-.44-1.24-.24-1.23.5,0,.44-.17.57-.58.56-.81-.02-1.62,0-2.43-.02-.18,0-.36-.16-.53-.25.16-.1.32-.21.49-.31.08-.05.17-.07.29-.12-.67-.31-.94-.2-1.11.39-.03.09-.08.2-.15.25-.34.22-1.59,0-1.75-.2-.34.1-.62.24-.9.24-1.76.02-3.51.02-5.27,0-.2,0-.39-.12-.59-.18.09-.18.18-.35.24-.48-.09-.24-.15-.5-.27-.72-.08-.15-.23-.32-.37-.35-.25-.05-.51.01-.77.03,0,.05-.01.11-.02.16.09.05.18.12.28.14.57.09.57.12.55.95-.01.47-.29.46-.62.46-1.1,0-2.21-.06-3.31.02-.65.04-1.01-.31-1.4-.69-.04-.04-.09-.08-.15-.13q-.33.8-1.27.8c-3.41,0-6.82,0-10.23,0-.29,0-.64-.11-.77.32-.02.05-.19.05-.28.09-.18.08-.36.19-.54.27-.13.06-.28.09-.41.15-.13.06-.29.1-.38.2-.31.36-.37.36-.6-.09-.02-.04-.08-.06-.2-.15-.04.21-.13.39-.1.53.13.58-.29.88-.6,1.24-.11.13-.18.29-.25.45-.06.12-.09.25-.14.37-.09.2-.28.41-.25.59.08.6-.31.89-.69,1.19-.3.23-.36.62-.04.75.37.16.31.45.25.68-.04.14-.3.23-.48.32-.1.05-.22.05-.4.09.11.09.15.15.2.16q.71.13.71.85c0,2.53,0,5.06,0,7.6q0,.99-.88,1.34c.08.06.15.14.2.13.62-.07.69.28.69.79-.02,1.98,0,3.96-.02,5.94,0,.31-.18.61-.29.96.39.1.3.54.3.94,0,.62,0,1.24,0,1.86,0,.4.1.85-.53.98.2.19.34.32.49.46-.14.13-.27.26-.44.42.69.29.47.9.47,1.43,0,4.32,0,8.65,0,12.97,0,.09.02.18,0,.26-.07.22-.13.6-.25.62-.43.07-.24-.33-.31-.54-.02-.08-.07-.14-.14-.29-.19.4-.34.75-.52,1.14,0,0,.09.07.17.09.74.13,1.05.49,1.05,1.23,0,1.14,0,2.27,0,3.41,0,.62-.05.66-.69.67-.26,0-.52.03-.77-.01-.15-.02-.28-.14-.41-.23-.12-.07-.23-.24-.34-.23-.5.03-.51-.27-.51-.63,0-2.02,0-4.03,0-6.05,0-3.19,0-6.37,0-9.56,0-.28.14-.56.24-.91-.19-.16-.43-1.41-.19-1.74.06-.08.31-.07.46-.03.07.02.1.19.15.31.2-.22.37-.42.45-.51-.17-.16-.34-.32-.51-.48-.04.02-.22.12-.4.21-.07-.19-.18-.39-.19-.59-.03-.45-.01-.9,0-1.34,0-.32-.03-.59.31-.85.26-.2.38-.63.5-.97.08-.24.07-.55-.33-.53-.36.02-.48-.14-.48-.49.01-1.58,0-3.17,0-4.75,0-.32.11-.49.44-.49.42.01.4-.28.4-.57,0-.29.01-.57-.4-.56-.34,0-.44-.17-.44-.49,0-2.45,0-4.89.01-7.34,0-.17.13-.36.25-.49.22-.24.21-.92-.01-1.17-.12-.14-.24-.33-.24-.51-.02-1.57-.01-3.13,0-4.7,0-.13,0-.35.07-.39.49-.26.32-.7.34-1.09.02-.32.01-.58.29-.87.29-.3.36-.82.56-1.22.1-.2.3-.36.46-.53.59-.64,1.17-1.28,1.77-1.91.08-.08.25-.07.38-.1.13-.03.34-.03.38-.1.3-.63.48-.22.73.2.08-.22.16-.34.16-.46-.01-.37.17-.48.51-.47.33,0,.71.11.87-.35,0-.02.36,0,.43.08.29.36.48.3.82.04.26-.2.71-.2,1.07-.21.1,0,.21.31.3.48.05.11.06.24.09.36.05,0,.09,0,.14.01.04-.11.12-.23.11-.33-.05-.49.23-.56.63-.56,3.77,0,7.54.01,11.32,0,.5,0,.69.17.64.66-.02.21.03.42.06.75.26-.41.5-.69.6-1,.1-.33.06-.7.08-1.05-.06,0-.11-.02-.17-.03-.06.07-.11.16-.18.21-.1.07-.23.15-.34.14-.07,0-.18-.17-.18-.26-.01-.98-.02-1.96.01-2.94,0-.1.2-.24.34-.29.15-.06.34-.06.46-.08-.13-.32-.31-.57-.32-.83-.01-.27.09-.77.2-.79.4-.07.89-.29,1.21.22.04.06.14.13.21.12.64-.04.63.39.59.82-.04.41.2.9-.34,1.2-.06.03,0,.43.11.56.33.38.34,1.13-.02,1.49-.24.23-.21.42.02.69.34.4.75.43,1.22.43,1.19-.02,2.38-.02,3.56,0,.2,0,.39.12.59.19-.09.17-.19.34-.27.48.1.27.15.6.33.83.12.15.43.21.65.21.16,0,.43-.13.46-.24.07-.26.03-.55.37-.66.04-.01.08-.12.07-.18-.08-.66.35-.65.82-.65,2.82,0,5.65,0,8.47,0,.32,0,.61-.03.84.33.1.16.56.13.85.11.08,0,.19-.29.19-.46.03-.48.06-.97,0-1.44-.11-.78.27-1.26.88-1.65-.05-.07-.07-.13-.11-.14q-.76-.17-.76-.97c0-2.82,0-5.65.01-8.47,0-.27.17-.53.28-.88.03,0-.08-.02-.19-.05-.13-.03-.35,0-.39-.07-.29-.52-.78-.34-1.2-.35-.96-.02-1.93-.01-2.89,0-.39,0-.76,0-.93-.59-.17.63-.57.6-.96.59-.91-.01-1.83,0-2.74,0-.4,0-.84.08-1.01-.55-.2.68-.71.54-1.15.54-.38,0-.76.04-1.13-.01-.22-.03-.45-.16-.62-.31-.26-.21-.45-.25-.69.02-.12.13-.31.28-.47.29-.88.03-1.76.04-2.63,0-.23-.01-.44-.24-.69-.39-.42.36-.62.84-.56,1.48.06.56.01,1.14.01,1.7,0,.27.02.52-.28.72-.1.06-.01.46.04.69.04.18.23.33.23.5.02,1.12.02,2.24,0,3.36,0,.18-.17.35-.26.52-.1-.17-.28-.34-.28-.5,0-.41-.03-.77-.42-1-.12-.07-.27-.22-.37-.19-.54.13-.88-.2-1.23-.49-.1-.08-.14-.27-.14-.42,0-2.02-.02-4.03.01-6.05,0-.22.25-.44.4-.71-.04-.02-.18-.05-.22-.12-.07-.12-.13-.39-.1-.41.54-.24.67-1.06,1.42-.99.75-.77,1.71-.36,2.56-.39,1.88-.07,3.75-.03,5.63,0,.31,0,.62.15.9.23.36-.08.73-.22,1.11-.23,2.22-.02,4.44,0,6.67-.02.52,0,.73.15.67.67-.02.18.04.37.07.56.07,0,.14,0,.21,0,.02-.25.06-.49.06-.74,0-.35.13-.5.49-.49.45.02.9-.01,1.34.02.14,0,.28.14.41.21.11.06.21.17.33.19.59.1.92.41,1,.98.01.08,0,.22.05.24.55.24.35.72.36,1.12.02,1.19.02,2.38,0,3.56,0,.28-.14.55-.24.91.38.19.25.69.25,1.14,0,1.07,0,2.14,0,3.2,0,.35-.04.6-.49.6-.11,0-.32.25-.32.37,0,.13.22.34.35.35.38.02.46.2.46.53-.01.57.01,1.14-.01,1.7,0,.16-.13.31-.21.47-.12-.09-.23-.2-.37-.26-.19-.08-.39-.12-.59-.18-.03.08-.07.16-.1.24.33.18.67.34.97.55.14.1.26.29.29.45.05.27.01.55.1.86.35-.67.92-.48,1.42-.49.76-.01,1.52-.02,2.27.01.19,0,.37.22.57.29.2.06.58.13.6.08.2-.49.61-.37.97-.38.24,0,.49-.02.72.03.1.02.23.17.23.26,0,.09-.14.21-.25.25-.19.06-.4.07-.6.1,0,.07.01.14.02.21.48,0,.97.01,1.45-.02.05,0,.12-.23.12-.36,0-.36.2-.47.53-.47,3.15,0,6.3,0,9.46.01.16,0,.37.13.48.26.24.28.56.28.78,0,.09-.12.24-.22.39-.25.18-.04.38-.02.57-.02,5.87,0,11.75,0,17.62,0q.76,0,.76-.77c0-3.48,0-6.96,0-10.44,0-.82.29-1.16,1.11-1.31.06-.01.11-.06.16-.22-.27-.01-.54-.04-.81-.04-.33,0-.47-.14-.46-.46,0-.46-.02-.93.01-1.39.01-.16.13-.33.24-.46.23-.25.25-.46-.02-.69-.34-.29-.31-.67,0-.99.1-.11.2-.3.18-.44-.06-.63.24-1.02.74-1.32.09-.06.16-.22.16-.34,0-.32.13-.41.44-.5.31-.09.56-.4.83-.62.05-.04.06-.15.1-.17.48-.18.95-.37,1.44-.5.26-.07.5-.01.7-.31.22-.32,1.14-.14,1.37.12.45-.1.81-.24,1.17-.25,2.2-.02,4.41-.01,6.61-.01.81,0,.8,0,.82.78,0,.16.03.32.05.48.05,0,.11,0,.16,0,.02-.21.07-.43.06-.64-.04-.46.12-.66.61-.64.93.03,1.86.02,2.79,0,.45-.01.64.14.6.6-.02.24.03.48.04.61.37-.31.73-.62,1.11-.9.17-.13.38-.28.58-.29,1.24-.03,2.48-.03,3.72,0,.25,0,.5.15.73.22.29-.07.61-.22.92-.22,2.41-.02,4.82-.01,7.23-.01.05,0,.11-.01.15,0,.19.07.38.15.57.22-.09.16-.18.32-.28.48.44.31.96.16,1.48-.44.12-.13.32-.24.5-.25.5-.03,1-.04,1.5,0,.31.02.6.15.97.24.35-.42,1.58-.41,2,.13.68-.53,1.33-.54,1.73-.02.48-.48.5-.48,1.17.27.2.22.39.44.63.7.1-.32.22-.57-.13-.78-.09-.05-.19-.27-.15-.32.07-.11.23-.21.35-.21,1.07-.02,2.14-.02,3.2,0,.12,0,.24.17.36.26-.12.09-.22.21-.35.28-.11.05-.25.04-.38.06,0,.04-.01.09-.02.13.14.03.28.08.43.09.34.01.7.06,1.03,0,.55-.12,1.12-.32,1.62-.52.42-.17.6-.4.88.17.21-.55.62-.48,1.01-.48,1.71,0,3.41,0,5.12.01.22,0,.43.19.65.26.23.07.49.16.72.14.65-.07,1.11.18,1.43.74.04.08.16.16.23.16.73-.04,1.09.62,1.35,1.01.29.43.59.85.89,1.27.19.27.06.77.08,1.16.02.35-.1.73.33.95.08.04.09.28.09.43,0,1.69.01,3.38,0,5.06,0,.24-.18.48-.24.62.09.41.23.77.24,1.13.02,2.19,0,4.37.02,6.56,0,.51,0,.94-.68.9-.04,0-.08.05-.21.13.77.18,1.3.71,2.09.57.55-.09,1.13-.01,1.7-.02.32,0,.55.09.5.47-.04.4.2.45.52.43.31-.02.71.11.67-.44-.03-.38.2-.46.52-.46.98,0,1.96-.01,2.94.02.18,0,.35.26.55.31.22.06.64.09.68,0,.15-.34.4-.33.68-.33.1,0,.21,0,.31,0,.41,0,.88-.11,1.05.66.22-.8.72-.66,1.16-.66,1.36,0,2.72,0,4.08,0,.28,0,.58-.05.72.33.04.1.32.12.5.15.29.04.64-.11.77.32.01.04.09.08.13.08.79-.08,1.04.64,1.51,1.02.6.49,1.11,1.08,1.67,1.63.02.02.05.05.06.08.17.42.25.91.52,1.25.38.45.19,1.12.46,1.42.55.62.3,1.25.34,1.88.06.82.04,1.65,0,2.48-.01.29-.17.58-.27.92.37.13.29.55.29.93,0,2.82,0,5.65,0,8.47,0,.28.09.6-.3.73-.06.02-.08.17-.11.27-.09.25-.17.5-.28.84-.05-.08-.03-.03-.01-.03.66-.02.73.36.73.92-.02,6.68-.01,13.37-.01,20.05,0,.35.12.76-.49.87.58.22.49.65.49,1.03,0,.62,0,1.24,0,1.86,0,.36.04.68-.32,1.01-.3.27-.34.82-.53,1.23-.08.18-.23.34-.43.61.28.02.52.07.75.06.36-.01.54.1.53.5-.02,1.15,0,2.31-.01,3.46,0,.13-.02.29-.1.38-.43.51-.44.86-.03,1.32.09.1.13.28.13.42,0,1.45.02,2.89,0,4.34,0,.21-.18.43-.24.56.09.3.24.58.24.86.02,2.57.01,5.13,0,7.7,0,.37.11.78-.45.89q.55.55.09.95c.52.42.52,1.69,0,2.15.32.28.5.95.32,1.32-.05.11-.26.21-.4.21-.43,0-.4.29-.39.57.01.27-.1.64.38.63.37-.01.46.19.46.52,0,3.43,0,6.85-.02,10.28,0,.23-.18.45-.3.74.46.23.31.75.31,1.22,0,.6.02,1.21,0,1.81-.01.27-.14.53-.22.79.07.27.22.58.22.89.02,4.12.01,8.23,0,12.35,0,.37.11.78-.44.9.59.61.6,1.35.19,1.69.1.34.24.62.24.9.02,1.6.01,3.2.01,4.81,0,.09.03.19,0,.26-.08.14-.19.27-.28.4-.09-.12-.19-.24-.27-.36-.1-.15-.17-.33-.3-.43-.05-.04-.35.11-.35.16,0,.2.09.39.16.58.04.11.11.21.17.32-.11.05-.22.13-.35.16-.16.04-.33.06-.44.07.21.38.39.71.56,1.02.35-.34.88-.23,1.07.26.1.26-.05.38-.31.39-.29.01-.58.03-.84.04.15.36.23.63.37.87.07.12.23.26.36.26.37,0,.47.19.46.52-.01.41.08.85-.02,1.23-.15.56-.34,1.11-.5,1.66-.17.56-.54,1.1-.81,1.67-.19.42-.66.71-1.02,1.06-.05.05-.15.06-.17.11-.27.57-.51.36-.82-.21-.04.37-.04.56-.09.74-.05.21-.14.41-.22.62-.17-.11-.34-.21-.49-.31-.3.28-.7.53-.93.9-.24.39-.55.33-.88.35-.38.03-.83-.17-1.09.33-.04.08-.29.07-.44.07-2.81,0-5.61,0-8.42,0-.36,0-.61-.07-.59-.5,0-.09-.05-.18-.09-.29-.08.06-.15.09-.15.12.03.67-.39.72-.91.69-.46-.03-.93,0-1.39-.02-.15,0-.29-.12-.43-.19.07-.12.16-.23.21-.36.08-.22.14-.45.21-.65-.39.16-.68.26-.96.4-.1.05-.17.18-.24.28-.1.17-.18.49-.28.5-.38,0-.83.24-1.13-.2-.03-.04-.07-.07,0,0-.43.09-.76.23-1.1.23-1.41.02-2.82.02-4.24,0-.28,0-.56-.14-.81-.21-.37.07-.77.18-1.17.22-.41.04-.83,0-1.24.01-.43.01-.86.04-1.12-.41-.07-.12-.14-.24-.21-.36.14-.07.27-.18.42-.2.51-.07.59-.24.3-.77-.06.06-.14.1-.17.17-.17.35-.33.31-.58.06-.12-.12-.34-.19-.51-.18-.07,0-.13.27-.19.42,0,.01,0,.03,0,.05q-.04,1.23-1.25,1.23c-.38,0-.76.03-1.14,0-.32-.04-.63-.15-1.04-.26-.14.19-.33.46-.72-.04-.22-.28-.7-.37-1.08-.52-.1-.04-.25.03-.48.07.14.11.21.15.25.2.09.11.16.22.24.33-.12.07-.24.2-.36.21-.58.02-1.17.01-1.76.01-1.41,0-2.82.01-4.24-.01-.27,0-.53-.14-.81-.22-.25.07-.55.21-.85.22-1.89.02-3.79.01-5.68.01q-.91,0-1.18-.76s-.12.05-.12.07c.03.65-.35.72-.89.7-.95-.04-1.89,0-2.84-.02-.32,0-.63-.14-1.02-.24-.36.41-1.13.4-1.63-.16-.18.49-.6.41-.98.41-2.53,0-5.06,0-7.6,0-.41,0-.72,0-.75-.57-.03-.43-.4-.26-.62-.22.1.24.3.51.24.67-.09.25-.67.09-1.05-.3-.19.47-.6.41-.99.41-3.08,0-6.17,0-9.25,0-.17,0-.35.01-.52-.02-.31-.06-.4-.31-.16-.46.33-.21.28-.47.29-.76,0-.28-.03-.55.01-.83.03-.22.14-.42.21-.63.17.11.34.21.54.34.18-.48.61-.37,1.01-.37,2.19,0,4.37,0,6.56,0q.76,0,.9.73s.05.08.1.17c.12-.16.23-.29.32-.43.31-.46.75-.47,1.25-.47,2.5.02,4.99,0,7.49.02.23,0,.45.21.69.27.22.05.61.11.67.01.22-.36.52-.29.82-.29,5.34,0,10.68,0,16.02,0,2.7,0,5.41,0,8.11,0,.42,0,.71.05.69.57,0,.11.21.31.33.32.11,0,.33-.2.33-.31-.03-.53.26-.58.68-.58,1.21.01,2.41,0,3.62.02.25,0,.5.15.73.22.29-.07.6-.21.92-.22.79-.03,1.58-.02,2.38,0,.34,0,.72-.11.94.33.04.08.53.08.58-.02.21-.38.54-.31.86-.31,5.12,0,10.23,0,15.35,0,.3,0,.64.09.78-.31,0-.03.06-.06.08-.06.6.09,1.07-.25,1.58-.47.09-.04.25-.03.28-.09.23-.5.67-.29,1.04-.33.31-.03.51.07.5.42,0,.26.08.43.38.42.34-.02.28-.26.32-.48.12-.56-.34-.78-.6-1.12-.09-.12-.21-.37-.16-.44.43-.58.81-1.18.77-1.95,0-.06.01-.17.05-.19.54-.3.36-.81.36-1.24.02-1.48,0-2.96,0-4.44,0-.41-.11-.88.54-1.06-.66-.18-.54-.67-.54-1.09,0-3.34,0-6.68,0-10.02,0-.33-.11-.7.37-.86.05-.02.01-.41-.05-.6-.06-.2-.3-.38-.3-.57-.02-1.84-.01-3.69-.02-5.53,0-.35.11-.57.5-.55.03,0,.09,0,.1,0,.38-.48.96-.42,1.52-.47-.4-.25-.78-.42-1.04-.69-.25-.26-.44-.51-.85-.48-.07,0-.21-.25-.22-.39-.01-1.76,0-3.51,0-5.27,0-.05,0-.11.02-.15.27-.43.54-.85.82-1.29-.03-.03-.06-.08-.1-.09-.78-.2-.81-.22-.73-1,.02-.17.15-.36.28-.48.25-.24.24-.48-.02-.71-.13-.12-.27-.32-.27-.48-.02-2.17-.02-4.34,0-6.51,0-.22.21-.43.34-.67-.37-.1-.38-.46-.36-.85.02-.55-.02-1.1.01-1.65.01-.23.12-.46.19-.69.18.11.37.21.56.32.28-.42.19-.67-.3-.69-.34-.01-.45-.16-.45-.47,0-1.15,0-2.31,0-3.46,0-.32.12-.48.46-.47.13,0,.25-.04.46-.2-.06-.02-.13-.04-.19-.06q-.72-.16-.72-.91c0-1.67,0-3.34,0-5.01q0-.98.71-1.21c-.08-.35-.17-.67-.22-1.01-.04-.23.04-.49-.3-.57-.08-.02-.15-.21-.17-.33-.03-.18-.01-.38-.01-.57q0-.68.51-1.1c-.63-.14-.51-.63-.51-1.05,0-1.19,0-2.38,0-3.57,0-.4,0-.75.64-.9-.81-.27-.62-.82-.63-1.31,0-.45-.02-.9,0-1.34.02-.22.13-.43.2-.64.17.12.34.24.58.4.22-.35.12-.72.02-1.22-.14.16-.19.24-.27.29-.1.07-.23.16-.33.15-.07,0-.17-.16-.19-.26-.03-.22-.04-.45,0-.66.02-.14.14-.27.22-.41.12.09.23.19.35.28.04.03.08.06.16.12Zm-43.06-45.02c.25-.07.51-.21.78-.21,1.46-.02,2.93-.02,4.39,0,.25,0,.49.21.75.28.18.05.5.1.55.01.24-.36.59-.31.92-.31,3.63,0,7.27,0,10.9,0,.37,0,.74.12,1.15.2,0-.05.05-.31-.03-.36-.55-.36-.29-.9-.35-1.36-.06-.49.15-.71.65-.66.1.01.21,0,.31,0,.35,0,.46-.27.33-.48-.16-.26-.45-.58-.71-.61-.51-.06-.58-.3-.57-.71.01-1.84,0-3.69.01-5.53,0-.34.14-.68.23-1.1-.03-.04-.21-.18-.22-.33-.03-.84-.02-1.69,0-2.53,0-.1.18-.19.28-.28.08.1.19.18.23.29.1.3.06.76.25.9.39.27.55-.31.86-.43.02,0,.02-.06.02-.06-.14-.16-.25-.34-.39-.46-.24-.2-.48-.46-.76-.51-.4-.07-.52-.23-.52-.6,0-.24-.06-.5-.16-.71-.2-.42-.52-.78-.66-1.21-.18-.58-.41-.87-1.02-.99-.11-.02-.2-.11-.3-.16-.15-.08-.31-.16-.47-.24-.14-.08-.27-.16-.41-.24-.13-.07-.26-.14-.39-.18-.36-.1-.72-.18-1.11-.27-.15.07-.38.25-.61.25-2.7.02-5.41.02-8.11,0-.18,0-.36-.21-.55-.25-.23-.05-.48-.05-.71,0-.21.04-.4.25-.6.25-2.67.02-5.34.02-8.01,0-.2,0-.39-.21-.6-.26-.2-.05-.43-.05-.63,0-.21.05-.4.27-.6.27-3.25.02-6.51.02-9.76,0-.2,0-.39-.21-.6-.25-.22-.05-.61-.12-.66-.03-.19.35-.48.3-.76.3-3.75,0-7.51,0-11.26,0-.28,0-.57-.14-.84-.21-.25.07-.53.2-.81.21-.98.03-1.96.03-2.94,0-.33-.01-.66-.15-1.09-.25-.29.17-.71.55-1.18.64-.46.09-.69.39-.99.62-.43.33-.81.76-1.14,1.2-.32.42-.57.54-.9-.03-.14.43-.14.7.33.7.35,0,.41.22.41.51,0,4.29,0,8.58,0,12.86,0,.32-.07.53-.46.52-.12,0-.24.08-.46.16.18.1.24.16.29.16.56-.05.69.26.62.73-.06.49.2.57.62.56,1.96-.01,3.93,0,5.89,0,.15,0,.32-.02.46.02.11.03.25.12.3.22.03.06-.07.2-.13.29-.05.07-.13.13-.21.2.62.35,1.01.21,1.12-.37.06-.33.28-.35.53-.35.71,0,1.41,0,2.12,0,.92,0,.9,0,.91.9,0,.39-.12.58-.53.57-.09,0-.17.06-.29.11.77.4,1.16.2,1.16-.54,0-.22-.02-.45.02-.67.02-.12.15-.31.25-.32.43-.04.86-.03,1.29,0,.09,0,.2.16.23.27.01.06-.14.23-.21.22-.52-.06-.67.4-.89.55.16.38.3.7.43,1.01.17-.15.35-.29.52-.45.36-.33.67-.68.55-1.24-.06-.29.14-.39.41-.4.48,0,.97-.03,1.45,0,.34.03.67.15,1.07.24.19-.39.49-.26.69,0,.32-.1.55-.25.79-.25,1.24-.02,2.48-.01,3.72-.01q.84,0,1.07.78s.05.04.11.07c.04-.05.11-.1.1-.15-.06-.68.36-.71.88-.71,4.25.01,8.51,0,12.76.02.31,0,.61.14.9.21Zm-54.98,1.05c0-.08,0-.16,0-.24-.16-.02-.31-.06-.47-.06-.4,0-.79.02-1.19-.02-.17-.02-.36-.13-.49-.25-.26-.24-.49-.21-.79.03.41.21.58.71,1.12.61.02,0,.12.3.13.46,0,.06-.16.13-.36.28.43.06.75.18.75-.33,0-.39.22-.45.53-.44.26,0,.51-.03.77-.04Zm48.17-20.69c0-.07,0-.14,0-.2-.13-.03-.27-.05-.4-.08-.13-.03-.33-.05-.35-.13-.13-.34-.43-.37-.62-.25-.25.16-.43.45-.6.72-.05.08.06.35.14.37.16.05.48.04.52-.04.19-.4.52-.31.84-.33.16,0,.31-.04.47-.06Zm47.02,143.84c0-.05,0-.1,0-.15-.14-.08-.27-.17-.42-.25-.19-.1-.47-.31-.56-.25-.25.16-.44.43-.6.69-.05.08.07.38.16.41.14.04.33-.05.5-.12.17-.07.33-.18.5-.25.13-.05.27-.05.41-.08Zm-16.85-.08c0-.06,0-.13,0-.19-.41,0-.83-.03-1.24.02-.12.02-.29.25-.3.39-.01.1.18.29.32.33.55.16.89-.19,1.22-.55Zm19.97-18.88s.09-.03.14-.04c.19-.3.42-.59.55-.92.06-.15-.02-.45-.15-.56-.08-.07-.51.05-.51.11-.04.47-.02.94-.02,1.41Z"/>
  <path d="m80.93,99.79c-.1-.4-.23-.73-.24-1.06-.03-1.31-.02-2.62,0-3.93,0-.2.17-.4.25-.61.06-.15.14-.31.15-.46.02-.43,0-.86,0-1.29,0-.34-.03-.64.31-.92.16-.12.14-.55.1-.83-.08-.58.32-.83.65-1.16.11-.1.19-.24.25-.37.1-.22.18-.45.28-.73-.41-.42-.43-1.47.05-2.03.02-.03.06-.05.06-.08.02-.8.75-1.07,1.15-1.59.11-.15.09-.54-.03-.69-.31-.38-.34-.68.02-1.03.01-.01.04-.02.04-.03.1-.5.3-.91.92-.87.03,0,.09-.21.09-.32.01-.29-.02-.59.02-.88.02-.16.14-.32.22-.47.06-.11.13-.22.19-.33.11-.19.22-.37.32-.56.05-.09.06-.19.1-.28.09-.2.19-.4.28-.6.04-.09.09-.18.13-.26.1-.2.25-.38.3-.59.15-.59.45-1.05,1-1.34.03-.02.04-.1.03-.15-.04-.34.11-.54.37-.76.25-.22.56-.47.52-.92-.01-.16.27-.35.43-.5.38-.37.77-.72,1.16-1.08.04-.03.09-.08.09-.12-.09-.75.64-.94.96-1.42.32-.47.77-.86,1.21-1.24.36-.31.68-.7,1.28-.63.22.03.56-.22.71-.44.22-.32.48-.39.82-.38.06,0,.13-.08.27-.16-.5-.18-.67-.51-.5-.93.08-.21.32-.36.49-.53.29-.29.57-.59.87-.86.22-.21.78-.05,1.12.37.02-.65.15-1.15,1.03-.9-.03-.06-.07-.12-.1-.19-.08-.06-.18-.11-.25-.19-.2-.22-.18-.48.13-.47.52.01.68-.42,1-.66.09-.07.18-.2.26-.2.53,0,.8-.38,1.08-.74.03-.04.06-.09.1-.11.42-.17.85-.31,1.25-.51.43-.21.83-.46,1.25-.69.11-.06.25-.08.37-.14.15-.07.29-.17.45-.25.13-.06.27-.11.4-.17.16-.07.31-.16.46-.24.1-.05.19-.15.3-.16.28-.02.56.02.63-.36,0-.04.07-.08.12-.09.66-.16,1.33-.42,2-.44.52-.02.92-.18,1.16-.54.23-.34.48-.3.78-.33.41-.05.86.19,1.19-.34.1-.16.62-.03.94-.09.23-.04.44-.17.66-.26.14-.05.27-.13.42-.14.36-.02.72,0,1.08,0,.27,0,.55.05.67-.32.03-.09.29-.15.45-.16,3.57,0,7.13-.01,10.7,0,.18,0,.36.21.55.31.13.07.27.15.4.15.57.02,1.14.02,1.7,0,.33,0,.47.12.45.45-.02.39,0,.79,0,1.18.09,0,.19,0,.28.01.02-.23.07-.46.06-.68-.02-.39.11-.59.53-.55.35.04.72-.11,1,.33.1.16.58.08.88.09.3.02.63-.07.8.31.03.07.21.1.32.11.36.03.66.04,1.01.32.4.32,1.03.35,1.55.53.18.06.34.2.51.31.04.03.06.1.1.11.43.16.87.3,1.29.48.13.05.24.2.31.32.06.12.05.29.09.55.32-.45.52-.6.91-.13.26.31.86.31,1.27.52.28.15.5.42.75.64.11.09.22.18.33.25.18.11.37.21.56.32.04.02.09.08.13.08.82-.06,1.06.72,1.57,1.1.08.06.16.16.24.16.54-.01.73.43,1.04.74.26.26.64.4.96.61.24.16.5.32.7.52.86.84,1.7,1.69,2.55,2.54.86.86,1.72,1.72,2.58,2.59.04.05.09.12.09.18.05.76.73,1.04,1.13,1.52.06.07.18.15.17.23-.02.52.39.74.69,1.04.07.07.16.16.16.25,0,.52.42.75.7,1.08.06.07.15.17.14.25-.05.51.36.74.67.96.33.23.25.49.22.77,0,.08-.18.21-.24.19-.1-.02-.22-.14-.26-.24-.06-.16-.05-.35-.1-.66-.4.41-.26.78-.23,1.1,0,.08.33.17.51.18.73.03.99.28,1.21.98.13.42.43.78.65,1.17.07.13.1.27.17.4.08.16.18.32.27.48.05.1.13.2.14.3.01.25.02.45.32.57.11.05.14.35.17.54.04.29-.07.62.3.8.09.04.1.28.11.43.02.32-.07.66.33.85.03.01-.06.29-.1.45-.06.19-.17.39-.17.58,0,.07.26.18.4.19.28.02.4.13.4.41,0,.36-.07.72.33,1.01.15.11.06.55.09.84.03.3-.13.67.32.83.07.02.09.25.09.38.01.36,0,.72,0,1.08,0,.28-.07.59.34.7.08.02.13.26.13.41.02.38,0,.76.01,1.14.02.39-.15.83.33,1.1.07.04.07.26.07.39,0,.52.03,1.04,0,1.55-.02.25-.16.5-.27.82.4.23.28.73.28,1.19,0,2.31,0,4.62,0,6.92,0,.3.05.6-.29.82-.12.08-.12.41-.12.62,0,.38-.11.62-.53.55-.61-.09-.88.32-1.26.68-.36.35-.37.72-.41,1.14-.02.18-.22.35-.38.6.2.02.38.1.52.05.09-.04.15-.24.17-.38.03-.18-.01-.38.03-.57.02-.12.13-.3.21-.3.55-.03.83-.41,1.16-.76.06-.06.43.03.45.09.06.28.17.61-.24.79-.1.04-.17.24-.18.37-.03.34,0,.69-.01,1.03,0,.3.05.6-.3.81-.12.07-.08.41-.12.62-.06.38.18.84-.34,1.08-.05.02-.05.19-.07.29-.02.12.01.31-.05.34-.56.34-.3.88-.38,1.34-.03.19-.17.36-.27.54-.03.06-.12.12-.11.16.14.63-.3,1.1-.46,1.65-.02.08-.04.22-.09.23-.53.15-.34.58-.4.93-.03.18-.16.34-.25.5-.02.04-.09.06-.11.11-.16.44-.29.89-.49,1.31-.19.41-.46.79-.69,1.19-.04.07-.08.14-.12.22-.13.24-.26.47-.39.71-.17.31-.52.45-.59.92-.07.49-.5.93-.81,1.36-.06.08-.42.07-.48-.01-.3-.41-.69-.18-1.04-.19-.06,0-.18.21-.16.31.02.12.13.29.24.32.23.05.48,0,.72.05.11.02.27.11.3.2.03.08-.07.24-.15.32-.34.34-.7.65-1.04.99-.06.06-.09.19-.08.29.03.36-.15.49-.49.49-.11,0-.32.12-.31.18.03.56-.4.8-.74,1.1-.07.06-.14.17-.13.26.03.55-.36.79-.74,1.05-.07.05-.11.13-.18.17-.11.08-.24.19-.35.19-.07,0-.14-.19-.2-.31-.08-.16-.16-.32-.21-.48-.05-.15-.07-.32-.11-.47.16.06.31.12.47.19.05.03.09.08.26.24.02-.32.08-.54.02-.7-.04-.09-.28-.15-.44-.15-.69-.03-.7-.02-.7.66,0,.43-.07.88.01,1.29.2.96-.53,1.38-1.05,1.93-.36.37-.75.71-1.13,1.07-.07.07-.15.2-.21.19-.57-.1-.72.42-1.04.68-.34.27-.56.66-1.08.71-.23.02-.45.31-.64.51-.32.36-.59.72-1.16.76-.22.01-.42.42-.63.64-.06.06-.1.15-.17.18-.42.17-.94.22-1.25.5-.49.43-1.21.41-1.62,1.02-.23.35-.79.51-1.24.66-.31.11-.57-.04-.54-.46,0-.13-.05-.27-.08-.4-.07,0-.14,0-.2,0-.02.23-.06.46-.06.69.01.38-.07.55-.51.65-.43.09-.81.43-1.22.65-.16.08-.34.12-.52.15-.46.07-.88,0-1.36.32-.46.3-1.08.74-1.8.53-.25-.07-.54-.05-.66.32-.03.09-.26.14-.4.15-.38.02-.76-.02-1.13.02-.21.02-.4.18-.6.26-.14.06-.28.14-.42.14-.43.02-.86,0-1.29.01-.34,0-.73-.11-.95.32-.04.08-.28.09-.43.09-2.41,0-4.82,0-7.23,0-.19,0-.37-.17-.56-.25-.17-.06-.34-.14-.52-.15-1.07-.01-2.14,0-3.2-.02-.21,0-.4-.19-.61-.25-.27-.08-.55-.13-.83-.16-.34-.04-.74.12-.9-.38-.02-.08-.31-.08-.47-.1-.46-.07-1,.2-1.34-.37-.05-.09-.32-.04-.5-.05-.26-.01-.57.07-.67-.31,0-.04-.09-.09-.12-.08-.62.13-1.11-.24-1.63-.46-.45-.2-.87-.46-1.31-.68-.13-.07-.28-.13-.42-.14-.34-.03-.74.09-.89-.4-.02-.06-.22-.04-.33-.09-.15-.07-.3-.16-.44-.25-.07-.04-.14-.15-.19-.14-.59.06-.84-.39-1.17-.73-.07-.08-.21-.08-.32-.13-.15-.07-.43-.16-.43-.24,0-.24.1-.49.17-.73.05-.18.17-.36.16-.53,0-.08-.24-.16-.37-.23-.2-.11-.41-.21-.72-.38-.02.24-.03.5-.07.76-.02.16-.1.3-.15.46-.14-.09-.28-.18-.41-.27-.08-.05-.16-.11-.25-.15-.19-.1-.53-.18-.54-.28-.02-.27.1-.56.18-.9-.27-.18-.74-.14-1,.18-.2.24-.34.18-.53-.03-.43-.5-.89-.98-1.34-1.47-.04-.04-.13-.09-.18-.07-.49.15-.59-.43-.97-.51-.03,0-.08-.22-.04-.27.08-.09.21-.17.33-.18.29-.04.58-.04.87-.06v-.14c-.48-.1-.96-.21-1.52-.33-.3.36-.43.3-1.01-.39-.35-.42-.89-.71-1.13-1.17-.24-.46-.42-.83-.96-.97-.08-.02-.03-.45-.07-.68-.03-.15-.1-.41-.18-.42-.94-.12-1.28-1.01-1.94-1.48-.3-.22-.52-.5-.49-.93,0-.12-.26-.23-.36-.37-.28-.4-.58-.8-.79-1.23-.06-.12.13-.37.25-.66.03.09.02.03.01.03-.78.04-1.01-.75-1.56-1.05-.04-.02-.06-.09-.06-.13,0-.08.02-.23.05-.23.55-.09.09-1.05.85-.97.12.01.26-.12.39-.17.23-.08.48-.23.71-.22.32.02.33.28.13.48-.31.31-.68.58-.97.9-.12.14-.16.38-.16.57,0,.06.31.2.41.15.14-.06.28-.26.3-.41.03-.29.11-.47.42-.46.3,0,.42-.12.45-.43.01-.14.19-.26.29-.39.09.12.18.25.26.37.2.31.4.62.61.92.05.08.2.14.2.19-.04.39.19.58.46.81.25.21.42.5.54.87.14.43.6.75.94,1.11.29.31.75.5.71,1.06,0,.09.25.19.36.3.7.72,1.4,1.44,2.1,2.16.03.04.08.09.07.13-.07.54.25.64.7.7.2.03.37.3.54.48.19.2.37.42.55.62.04.05.1.13.15.12.75-.02,1.03.66,1.51,1.02.37.27.51.81,1.12.8.18,0,.45.26.54.46.14.3.36.28.6.35.25.07.47.28.68.47.21.19.36.45.58.61.14.11.37.14.56.16.3.03.62-.04.77.36.03.08.23.11.36.13.5.07.93.57.84,1.04-.04.19-.21.35-.31.52.43.19.51.15.61-.26.04-.16.15-.41.26-.42.23-.03.49.04.72.11.19.06.37.18.55.28.4.22.8.46,1.21.67.17.09.37.14.56.16.3.03.64-.05.77.35.01.04.07.09.11.1.71.15,1.42.31,2.14.44.29.05.62-.08.8.31.04.09.31.09.47.11.46.06,1.01-.19,1.35.37.04.07.26.05.39.05.45,0,.9-.03,1.34.02.26.03.5.19.75.28.16.05.32.08.48.12.3.07.6.15.97.25.36-.4,1.64-.41,2.03.1.64-.52,2.95-.5,3.39-.07.39-.11.71-.18,1.01-.28.19-.06.4-.14.55-.26.25-.2.71-.21.92.03.28.34.54.34.82,0,.07-.09.23-.13.35-.17.11-.04.31,0,.34-.07.25-.5.69-.33,1.09-.36.33-.02.66.09.89-.33.07-.13.48-.07.73-.09.34-.03.73.12.95-.33.03-.07.22-.07.33-.08.37-.04.82.15.98-.4,0-.02.06-.05.09-.05.65.15,1.11-.36,1.68-.5.42-.11.78-.42,1.17-.64.13-.07.26-.12.4-.17.11-.04.3-.03.33-.09.27-.53.75-.29,1.15-.31.12,0,.35.22.37.36.04.48.27.53.78.25-.09-.03-.21-.04-.28-.1-.08-.07-.18-.26-.16-.28.31-.28.33-.71.52-1.03.18-.29.44-.61.94-.59.22,0,.44-.35.66-.55.08-.07.16-.21.25-.22.77-.04,1.03-.74,1.52-1.14.04-.03.05-.1.09-.12.4-.18.81-.33,1.2-.52.15-.08.27-.23.38-.37.1-.13.17-.42.26-.42.78-.04,1.04-.71,1.49-1.15.49-.48.96-.97,1.44-1.45.6-.6,1.33-1.04,1.61-1.95.12-.41.6-.74.97-1.05.35-.29.77-.5.74-1.06,0-.09.14-.24.24-.27.81-.26.89-.43,1.03-1.24.06-.34.37-.77.68-.88.35-.13.84-.26,1.2.24.26.37.68.17,1.16.08-.16-.14-.22-.23-.27-.23-.74.04-.94-.68-1.41-1.02-.12-.08-.12-.51-.01-.68.44-.67.74-1.45,1.45-1.93.13-.09.14-.39.17-.6.06-.43-.12-.86.39-1.23.31-.22.29-.84.53-1.2.31-.48.26-1.07.49-1.5.21-.38.19-.77.36-1.08.28-.5.24-1.11.5-1.5.29-.45.28-.84.31-1.28.02-.25-.03-.51.32-.62.1-.03.14-.31.16-.49.04-.33-.09-.69.34-.89.08-.04.08-.28.08-.43,0-.74.02-1.48,0-2.22-.01-.44.04-.76.59-.7.07,0,.14-.06.3-.14-.61-.27-.47-.76-.47-1.2,0-1.53,0-3.07,0-4.6q0-.97.99-.97c.26,0,.52,0,.77,0,.28,0,.4-.1.41-.4,0-.31-.15-.39-.42-.37-.32.02-.68-.12-.86.35-.04.1-.44.12-.66.08-.1-.02-.22-.28-.23-.44-.02-.69,0-1.38-.02-2.07,0-.18-.16-.36-.25-.54-.04-.09-.13-.17-.13-.26-.01-.41-.03-.83,0-1.24.02-.15.2-.28.34-.46-.64-.43-.92-1.05-.8-1.85.02-.12-.04-.34-.12-.36-.41-.13-.35-.45-.36-.76-.02-.42.1-.85-.33-1.22-.17-.15-.07-.62-.08-.95-.01-.27.06-.55-.29-.71-.04-.02.08-.4.15-.69.04.03-.03-.06-.09-.05-.56.05-.65-.25-.64-.72,0-.2-.16-.41-.25-.61-.03-.06-.13-.12-.11-.16.18-.65-.38-1.09-.46-1.67-.01-.1-.1-.21-.19-.27-.39-.3-.4-.73,0-1.01.26-.18.28-.75-.03-1.23-.06.22-.08.37-.13.51-.05.13-.11.28-.21.35-.04.03-.23-.08-.31-.17-.45-.5-.74-1.07-.9-1.73-.06-.25-.35-.47-.58-.63-.29-.2-.29-.37-.02-.54.31-.2.26-.42.09-.77-.1.13-.15.24-.24.28-.12.06-.35.14-.38.1-.21-.26-.37-.57-.56-.85-.19-.28-.4-.54-.59-.81-.1-.14-.18-.29-.25-.44-.06-.12-.08-.25-.13-.37-.07-.16-.15-.32-.22-.48.28,0,.55-.03.83,0,.07,0,.1.2.18.23.14.05.32.07.44.02.08-.04.15-.23.14-.34-.01-.1-.16-.29-.22-.27-.53.09-.6-.49-.97-.63-.2-.08-.38-.19-.56-.31-.11-.07-.2-.17-.3-.26.1-.09.2-.26.31-.26.36-.01.52-.14.53-.52,0-.16.19-.32.31-.5-.13-.16-.29-.35-.45-.55-.02,0-.08.02-.08.03.01.61-.42.92-.82,1.27-.11.1-.13.33-.16.51-.06.32-.26.4-.46.2-.62-.63-1.19-1.32-1.82-1.95-.61-.62-1.27-1.19-1.91-1.79-.08-.08-.17-.17-.2-.27-.21-.85-.4-1.06-1.26-1.03-.48.02-.6-.38-.88-.59-.36-.27-.62-.68-.95-1-.08-.08-.26-.06-.38-.12-.14-.06-.28-.15-.41-.22.09-.13.18-.25.26-.38.03-.04.04-.09.13-.26-.37-.01-.68-.02-.98-.03-.29-.02-.64.1-.77-.32-.01-.04-.12-.09-.17-.09-.76.09-.93-.7-1.44-.98-.04-.02,0-.34.08-.38.36-.19.38-.51.17-.72-.25-.24-.52-.11-.69.22-.09.17-.24.33-.4.42-.11.07-.41.04-.42.02-.07-.35-.35-.28-.58-.37-.44-.16-.84-.43-1.25-.66-.07-.04-.14-.14-.2-.13-.64.07-.64-.33-.62-.78,0-.15-.04-.31-.07-.54-.28.27-.51.43-.67.65-.2.27-.35.28-.57.04-.09-.1-.24-.2-.37-.21-.37-.05-.74.04-1.05-.36-.13-.17-.62-.06-.94-.08-.28-.01-.61.06-.7-.35-.01-.06-.13-.12-.2-.12-.31,0-.49-.11-.71-.36-.4-.45-.45-.41.09-.75-.2-.16-.39-.32-.62-.51-.25.49-.54.47-.88-.16-.05.31-.05.48-.11.63-.04.11-.15.27-.24.28-.31.03-.62.01-.76.39,0,.02-.26-.03-.39-.08-.22-.08-.43-.2-.65-.27-.27-.09-.55-.16-.8-.23-.26.07-.54.21-.83.21-2.05.02-4.1.01-6.15,0-.27,0-.53.04-.71-.29-.05-.1-.46-.11-.63-.02-.21.12-.33.4-.52.57-.1.09-.26.15-.4.15-.48.02-.96,0-1.45.01-.29,0-.58-.07-.8.3-.08.14-.51.09-.78.11-.34.02-.72-.1-.92.36-.05.1-.37.1-.57.12-.42.05-.84-.11-1.21.34-.16.2-.64.17-.9.46-.03.03-.33-.18-.57-.31-.03.06-.11.17-.11.28.03.43-.2.53-.58.51-.3-.01-.62-.07-.8.31-.03.07-.25.06-.37.11-.16.07-.3.16-.45.24-.03.01-.03.07-.05.09-.43.19-.87.36-1.29.58-.44.22-.86.48-1.29.72-.06.03-.12.09-.18.08-.53-.06-.72.41-1.03.68-.07.06-.15.17-.23.17-.55.01-.85.37-1.12.77-.03.05-.11.11-.16.11-.75.02-.98.74-1.49,1.08-.09.06-.18.2-.27.2-.77,0-1,.7-1.46,1.1-.2.17-.32.46-.54.57-.14.07-.4-.11-.64-.19-.12.1-.31.25-.42.34.09.25.26.49.22.69-.04.18-.3.31-.47.47-.38.36-.75.72-1.12,1.08-.54.52-1.12,1.02-1.62,1.58-.25.27-.64.46-.61.97.01.21-.28.47-.49.65-.36.32-.76.59-.8,1.15,0,.14-.31.23-.41.38-.28.4-.68.8-.76,1.25-.11.6-.55.86-.86,1.26-.27.34-.34.84-.5,1.26-.04.11-.07.29-.14.3-.3.08-.33.28-.35.55,0,.12-.14.24-.22.35-.03.04-.1.05-.12.09-.16.42-.27.87-.49,1.25-.29.5-.37,1.02-.49,1.57-.09.41-.48.75-.7,1.15-.07.12-.04.3-.05.45-.02.28.06.59-.35.7-.08.02-.15.27-.13.4.12.59-.23.94-.61,1.28-.32.28-.31.49,0,.81.09.09.1.42.05.44-.35.17-.28.48-.29.76,0,.31,0,.62,0,.93,0,.12.01.31-.05.34-.6.34-.31.91-.37,1.38-.03.29,0,.59-.01.88,0,.12,0,.31-.07.34-.53.28-.35.77-.35,1.18-.01,3-.01,5.99,0,8.99,0,.23.19.46.28.69.05.14.12.28.13.43.02.46,0,.93,0,1.39,0,.3-.09.63.31.79.07.03.1.24.1.37.01.36,0,.72,0,1.08,0,.27-.06.54.29.7.1.04.1.33.12.52.03.28-.06.58.3.75.1.05.09.34.12.52.07.45-.21.97.4,1.3.23.13.45.57.42.84-.1.74.54,1.24.52,1.94,0,.17.16.34.22.51.08.21.14.43.18.65.05.25-.07.52.27.7.25.13.18.38-.11.48-.74.24-.75.26-.21.85.06.07.1.16.24.39.05-.32.06-.5.12-.65.04-.1.18-.23.27-.22.09,0,.25.18.23.25-.05.24-.17.46-.24.7-.07.22-.15.44-.15.66,0,.37-.03.66-.51.64-.32-.01-.31.23-.36.46-.03.13-.18.23-.28.35-.09-.12-.19-.24-.27-.37-.1-.16-.19-.33-.27-.5-.06-.13-.13-.27-.14-.42-.02-.27-.02-.55,0-.83.01-.29-.08-.47-.41-.45-.35.03-.42-.16-.53-.47-.15-.46-.45-.88-.69-1.32-.02-.03-.07-.05-.07-.07.14-.69-.5-1.17-.49-1.83,0-.26.08-.56-.28-.69-.07-.03-.11-.2-.12-.31-.04-.37.1-.8-.37-1.03-.07-.03-.05-.26-.06-.39-.02-.34.12-.73-.38-.89-.09-.03-.09-.37-.1-.58-.03-.41.08-.82-.32-1.18-.17-.15-.08-.59-.09-.89-.01-.29.04-.58-.3-.76-.09-.05-.12-.27-.12-.42-.02-.43,0-.86,0-1.29,0-.33.1-.69-.32-.9-.08-.04-.1-.28-.1-.43,0-1.98-.01-3.96,0-5.94,0-.23.18-.45.24-.59Zm21.16,35.95c-.05,0-.11.02-.16.02,0,.43,0,.87,0,1.3,0,.07.12.2.18.21.45.02.89,0,1.34,0,.03-.07.07-.14.1-.21-.49-.44-.98-.88-1.48-1.32Zm53.66-17.92s-.07.06-.11.09c.15.15.27.39.45.44.27.08.77-.47.78-.78,0-.43-.3-.36-.57-.39-.49-.05-.61.21-.54.64Zm-27.54,23.26c.33.21.54.7,1.09.54.15-.05.38-.07.43-.17.07-.15,0-.35-.02-.5-.24.13-.42.22-.59.31-.06-.18-.12-.36-.19-.53-.04-.1-.09-.18-.14-.27.06.08.11.17.17.25-.24.12-.48.24-.75.38Zm-37.76-65.61c-.42-.3-.72.2-.91.46-.18.25-.09.69-.12,1.04.06,0,.11.01.17.02.2-.22.43-.43.58-.68.13-.23.18-.51.28-.83Z"/>
  <path d="m105.93,79.69c-.41.25.15.96-.49.95.11.29.26.52.28.77.01.15-.15.33-.26.47-.32.37-.65.74-.99,1.09-.09.09-.25.17-.37.16-.07,0-.14-.2-.17-.32-.04-.15-.04-.32-.05-.47-.07,0-.14,0-.2,0,0,.3-.01.61-.03.91-.02.32.11.72-.38.84-.04,0-.08.08-.08.12-.02.78-.71,1.09-1.12,1.59-.03.04-.09.06-.11.11-.17.44-.32.88-.51,1.31-.07.16-.23.28-.37.39-.55.46-.55,1.33-1.26,1.69-.06.03-.06.22-.07.34-.02.36.1.77-.35.99-.06.03-.07.19-.07.29-.02.36.1.77-.36.99-.06.03-.07.22-.07.34-.02.35.02.68-.31.98-.16.14-.08.55-.11.84-.03.31.1.67-.37.8-.07.02-.11.23-.11.36-.02.34,0,.69,0,1.03,0,.29.09.63-.32.78-.07.03-.09.24-.1.37-.01.5.01,1-.01,1.5,0,.2-.11.4-.16.6-.18-.09-.36-.18-.58-.29-.1.24-.19.45.16.7.38.28.66.64.61,1.22-.07.73-.02,1.48-.01,2.22,0,.33-.1.7.33.89.07.03.08.25.08.38.01.4-.02.8.02,1.19.02.18.18.35.27.52.08.16.18.33.19.49.03.52,0,1.03.01,1.55,0,.34.01.67-.48.73.02.05.03.1.05.15.25.02.5.05.74.05.36-.01.56.11.53.5,0,.03-.01.09,0,.1.65.38.19,1.22.72,1.71.21.2.26.67.52.96.31.35.56.75.81,1.15.06.09.06.29,0,.37-.46.64-1.47.75-1.91.17-.39.66-.18,1.1.54,1.11.26,0,.5-.02.63.3.04.09.34.1.51.07.07-.01.15-.2.17-.32.03-.22-.02-.46.04-.67.03-.11.3-.27.33-.25.22.19.58.41.59.64.06.78.73,1.03,1.15,1.5.25.29.64.46.66.96,0,.23.27.46.46.67.26.29.55.56.83.83.05.04.12.09.18.09.8-.02,1.03.71,1.51,1.11.3.25.46.64.97.68.27.02.5.37.76.56.1.08.2.17.31.23.29.17.6.31.87.52.06.04,0,.38-.09.44-.34.22-.23.47-.14.76q.5-.47.92,0c.5-.52.54-.51,1.25-.04.09.06.23.06.35.07.34.02.72-.1.93.35.03.07.28.06.44.07.31.02.66-.08.85.32.04.09.28.09.42.11.32.02.66-.07.85.32.04.07.25.09.38.09.46.01.93,0,1.39,0,.3,0,.62-.07.8.31.04.09.28.11.42.11,1.34,0,2.69,0,4.03,0,.12,0,.3.01.35-.05.43-.62,1.06-.3,1.61-.37.3-.04.57.02.82-.29.13-.16.54-.1.82-.13.32-.04.71.14.88-.33,0-.03.06-.06.08-.05.62.12,1.09-.3,1.63-.47.14-.04.27-.15.4-.23.03-.02.03-.07.05-.09.41-.2.83-.38,1.25-.58.13-.06.25-.14.38-.22.1-.06.19-.18.28-.18.3-.01.52-.26.73-.32.57-.15.93-.48,1.27-.9.03-.04.14-.07.19-.05.5.15.67-.33.94-.54.37-.28.62-.72.95-1.06.08-.08.29-.03.44-.05-.02.14-.03.28-.08.4-.07.2-.22.39-.23.6,0,.06.31.15.48.23.1.05.2.11.3.16.13.08.26.16.4.24.17.1.44.16.49.3.08.26.08.52-.27.73-.39.24-.68.66-1.02,1-.08.08-.18.21-.26.2-.54-.05-.73.4-1.03.68-.11.11-.27.17-.42.23-.12.05-.34.03-.38.11-.29.57-.54.25-.73,0-.2.3-.37.61-.59.87-.13.14-.36.19-.53.3-.46.29-.96.4-1.5.49-.41.06-.76.48-1.13.75-.37.26-1.61.03-1.91-.39-.04.11-.11.2-.11.28.03.42-.12.67-.59.61-.05,0-.13,0-.15.02-.58.71-1.37.26-2.05.38-.29.05-.62-.08-.78.32-.03.08-.28.1-.42.1-1.71,0-3.41.01-5.12,0-.17,0-.35-.15-.52-.22-.15-.06-.3-.17-.45-.18-.46-.02-.93,0-1.39-.01-.3,0-.57.01-.82-.28-.14-.16-.54-.1-.83-.13-.3-.03-.68.12-.83-.32,0-.03-.05-.06-.08-.06-.64.05-.84-.35-.81-.98-.54.58-.68.58-1.3.11-.07-.06-.2-.09-.29-.07-.89.21-1.26-.54-1.71-1-.26-.26-.16-.75.33-.95-.25-.16-.47-.29-.69-.43.05-.05.09-.11.14-.16-.04.03-.09.06-.11.1-.11.26.09.75-.37.72-.53-.03-1.12.33-1.6-.3-.19-.25-.42-.61-.91-.61-.25,0-.52-.35-.75-.57-.32-.31-.62-.65-.93-.98-.03-.04-.09-.08-.13-.07-.53.12-.69-.4-1-.63-.43-.31-.77-.75-1.14-1.14-.1-.1-.16-.24-.24-.36-.19-.32-.34-.67-.58-.94-.31-.35-.7-.62-1.05-.93-.05-.04-.07-.12-.1-.18-.14-.25-.25-.52-.41-.76-.2-.3-.49-.51-.5-.95,0-.21-.35-.4-.52-.62-.11-.13-.18-.29-.27-.44-.09-.15-.18-.29-.26-.44-.06-.1-.14-.2-.15-.3-.02-.28.02-.56-.36-.63-.04,0-.07-.07-.09-.12-.14-.27-.4-.55-.38-.82.03-.63-.35-1.09-.51-1.64-.03-.11-.05-.29-.12-.32-.42-.16-.35-.51-.26-.77.05-.14.37-.19.57-.28.06-.03.11-.06.13-.07-.32-.21-.68-.38-.93-.64-.15-.16-.18-.48-.18-.72,0-.07.28-.2.44-.21.32-.02.4-.21.34-.45-.13-.58.2-.96.58-1.25.41-.31.24-.68.22-1.02,0-.07-.43-.22-.47-.18-.22.28-.68.41-.62.9.04.33.08.69-.32.9-.07.04-.04.23-.09.33-.08.14-.2.26-.3.38-.08-.15-.22-.29-.23-.44-.03-.55,0-1.1-.02-1.65,0-.17-.17-.32-.25-.48-.08-.16-.21-.32-.21-.47-.01-2.45-.01-4.89,0-7.34,0-.14.05-.39.13-.41.45-.15.34-.5.35-.81,0-.38,0-.76,0-1.14,0-.3-.07-.61.31-.8.11-.05.08-.37.11-.57.05-.39-.18-.87.35-1.13.05-.03.05-.19.06-.29.03-.38-.11-.8.35-1.04.07-.04.06-.25.07-.39.02-.31-.09-.67.33-.83.04-.01.06-.08.07-.13.16-.44.27-.91.48-1.33.2-.39.51-.73.76-1.1.05-.08.06-.19.1-.28.1-.21.21-.42.31-.63.03-.06.09-.12.09-.18-.07-.54.41-.72.67-1.03.07-.09.18-.19.18-.28,0-.54.41-.75.73-1.07.25-.25.67-.41.63-.9-.01-.12.2-.27.32-.39.44-.47.87-.95,1.32-1.41.53-.53,1.17-.97,1.59-1.57.34-.49.98-.38,1.28-.86.1-.16.29-.26.42-.41.46-.51,1.28-.53,1.62-1.2.03-.06.2-.02.29-.07.17-.09.33-.2.51-.29.13-.07.26-.13.39-.18.12-.05.32-.05.36-.14.3-.56.52-.22.79.16.06-.21.11-.33.11-.45,0-.3.15-.41.45-.44.17-.02.32-.17.48-.26.1-.05.21-.09.31-.15.18-.09.36-.19.53-.29.04-.02.08-.1.11-.1.82.17,1.42-.67,2.26-.47.25.06.49.03.67-.31.19-.37,2.02-.2,2.25.16.03.04.05.09.1.17.08-.1.14-.14.15-.2q.13-.73.89-.73c1.98,0,3.96,0,5.94.01.23,0,.47.19.7.28.14.05.28.12.42.13.38.02.76,0,1.14.01.15,0,.4.01.43.1.23.52.67.36,1.06.38.31.02.64-.08.84.32.05.1.38.06.58.1.2.04.4.11.6.16-.08.18-.17.37-.23.51.18.11.38.23.58.35.31-.32.9-.33,1.45.13.07.06.19.06.28.1.2.09.4.2.6.29.1.05.22.08.32.14.17.1.34.22.51.31.12.07.26.11.39.17.14.07.27.14.4.22-.09.1-.19.2-.28.3-.03.04-.06.08-.09.12.15.18.27.43.45.49.2.07.55.04.69-.09.26-.25.37-.25.59.03.42.51.89.97,1.33,1.45.02.02.06.05.09.04.78-.1,1.05.62,1.51,1,.58.47,1.06,1.07,1.59,1.61.06.06.16.12.16.18.01.75.7,1.01,1.1,1.47.23.26.28.36-.02.59-.2.15-.3.43-.48.69.14.09.36.16.58-.15.2-.28.34-.31.57.02.37.54.82,1.02,1.22,1.54.07.09.05.23.09.34.07.17.17.33.26.49,0,.01.04.01.04.03.18.41.4.81.52,1.24.09.33-.08.73.36.93.04.02.05.29-.02.35-.06.06-.26.04-.36,0-.09-.04-.13-.18-.33-.27,0,.61-.01,1.22.02,1.83,0,.05.3.12.45.1.09,0,.21-.16.23-.27.04-.2-.01-.42.03-.62.02-.12.15-.22.24-.32.1.09.22.17.29.29.36.62.25,1.42.51,1.97.29.61.09,1.32.4,1.73.6.78.22,1.57.37,2.34.04.18.15.35.23.52.06.15.17.3.17.45.01,1.45.02,2.89,0,4.34,0,.23-.19.45-.3.71.45.47.47,1.44.01,1.99-.08.09-.1.25-.1.38-.01.43,0,.86,0,1.29,0,.34.09.7-.32.96-.13.08-.08.48-.1.73-.03.36.13.78-.34.99-.01,0-.03.03-.03.04-.16.61-.31,1.23-.48,1.84-.06.22-.2.42-.31.63-.04.07-.15.13-.15.19.06.64-.53.82-.82,1.21.12.17.36.44.33.48-.23.26-.48.54-.78.67-.25.1-.36.17-.46.44-.11.31-.39.55-.58.83-.11.16-.25.33-.28.51-.05.27.01.55-.02.82-.02.15-.13.29-.21.42-.05.08-.18.15-.18.23,0,.75-.71.98-1.09,1.44-.15.18-.39.29-.59.43-.06-.24-.12-.48-.19-.71-.01-.04-.07-.07-.05-.05-.35.31-.78.55-.99.92-.14.25.03.68.09,1.03.02.13.12.25.19.37-.13.06-.25.17-.39.17-.45.02-.9.03-1.34,0-.16-.01-.43-.12-.44-.21-.03-.23-.02-.55.12-.71.35-.42.37-.87-.03-1.28-.07-.07-.1-.29-.05-.35.59-.62,1.2-1.22,1.8-1.83.06-.06.17-.11.18-.17.08-.78.79-1.08,1.2-1.6.03-.04.1-.06.11-.1.17-.43.3-.88.5-1.3.21-.43.48-.82.72-1.24.06-.1.05-.23.11-.33.08-.15.18-.29.27-.44.07-.11.14-.2.21-.31.11-.18.21-.37.31-.56.02-.03.07-.06.07-.07-.15-.69.41-1.2.46-1.84.02-.27-.06-.57.31-.68.04-.01.09-.08.08-.12-.15-.86.7-1.53.47-2.41-.07-.26-.01-.55,0-.82,0-.12,0-.3.06-.34.52-.34.34-.85.34-1.31.02-1.53.02-3.07,0-4.6,0-.22-.23-.43-.25-.65-.05-.55-.05-1.1-.07-1.65.29.02.58.02.87.06.06,0,.11.14.12.16.19-.21.36-.41.53-.6-.22-.12-.34-.55-.88-.55-.35,0-.7-.29-1.04-.47-.05-.02-.09-.12-.09-.18,0-.46.02-.92-.43-1.23.2-.65-.39-1.1-.45-1.68,0-.09-.09-.19-.16-.24-.33-.21-.32-.37,0-.61.12-.09.15-.36.14-.54,0-.07-.23-.19-.35-.18-.34,0-.42-.15-.54-.46-.24-.61-.5-1.24-.99-1.71-.06-.06-.17-.08-.2-.14-.17-.43-.3-.88-.48-1.31-.09-.2-.27-.37-.43-.53-.36-.36-.75-.7-1.12-1.05-.07-.07-.17-.17-.16-.24.07-.5-.36-.7-.61-.97-.31-.34-.32-.69-.01-1.03.14-.15.15-.42.19-.55-.47.08-.87.18-1.27.21-.15.01-.31-.13-.47-.22-.07-.04-.13-.16-.19-.16-.78.04-.97-.73-1.48-1.06-.37-.24-.53-.78-1.1-.75-.09,0-.17-.2-.28-.25-.34-.18-.48-.68-.99-.58-.05.01-.17-.06-.17-.09,0-.42-.27-.66-.51-.97-.23-.3-.32-.72-.48-1.1-.19.34-.32.57-.45.8-.07-.04-.14-.07-.21-.11.17.03.34.04.5.1.12.05.2.18.3.27-.1.09-.22.27-.31.25-.23-.03-.45-.14-.67-.22-.14-.05-.26-.13-.4-.18-.11-.04-.31-.04-.33-.1-.15-.54-.58-.37-.93-.39-.46-.02-.91-.46-.92-.93,0-.22,0-.45,0-.67-.01-.53-.21-.63-.73-.34.14.1.31.17.39.3.24.38,0,.8-.46.81-.48,0-.96,0-1.45,0-.31,0-.65.08-.84-.32-.04-.09-.31-.09-.48-.1-.93,0-1.86,0-2.79-.02-.19,0-.37-.18-.57-.23-.21-.05-.57-.13-.62-.05-.21.35-.52.29-.82.3-.31,0-.62,0-.93,0-.1,0-.26-.02-.3.03-.51.67-1.23.28-1.85.4-.19.04-.36.17-.54.27-.04.02-.08.1-.11.1-.7-.19-1.18.48-1.84.46-.27-.01-.57-.06-.64.33,0,.03-.04.06-.07.07-.44.17-.89.32-1.31.52-.41.2-.79.46-1.2.67-.19.09-.41.15-.62.15-.37,0-.65.04-.63.51,0,.1-.15.3-.21.29-.62-.08-.75.52-1.13.75-.22.14-.64.17-.87.06-.27-.14-.42-.49-.66-.78Zm15.84-4.99c.39.25,1.64.24,1.87.05-.14-.29-.28-.54-.38-.81-.09-.24-.43-.36-.62-.17-.3.3-.58.62-.87.93Zm-26.34,29.8s.1,0,.14-.01c.19-.34.43-.66.57-1.02.08-.21.05-.48,0-.71-.02-.1-.21-.21-.33-.21-.12,0-.36.09-.37.16-.03.6-.02,1.2-.02,1.8Z"/>
  <path d="m6.9,130.35c.15-.14.25-.29.39-.35.45-.2.77.02.77.53,0,3.98-.01,7.96.02,11.94,0,.53-.5.58-.64.95-.07.2-.2.38-.24.59,0,.04.28.19.44.2.32.01.42.17.42.45,0,1.6.01,3.2-.02,4.8,0,.22-.22.43-.36.68.39.1.39.47.38.86-.02.62.01,1.24-.02,1.86,0,.16-.17.32-.25.48-.1-.15-.2-.29-.29-.45-.05-.1-.06-.21-.13-.45-.2.44-.35.77-.52,1.13q.42.36-.12.85c.3.17.54.27.78-.08.06-.09.23-.18.31-.15.09.03.19.19.21.3.03.29.01.58.02.88,0,.37-.1.77.34.99.04.02.07.1.06.13-.2.66.36,1.11.47,1.69.04.21.29.39.46.57.43.44.87.87,1.31,1.3.06.05.15.08.23.1.56.09.99.51,1.63.51.41,0,.82.43,1.11.59.38-.1.68-.25.98-.25,4.55-.01,9.09-.01,13.64-.01q.75,0,.88.74s.05.08.1.15c.05-.07.11-.11.12-.16q.12-.72.84-.73c.78,0,1.55,0,2.33,0,.39,0,.79-.06.98.41.58-.58,1.74-.58,2.2.01.25-.56.74-.42,1.18-.42.43,0,.86-.02,1.29.02.12.01.22.19.33.29-.11.08-.21.23-.32.24-.28.03-.51.03-.5.42,0,.37.25.32.48.38.2.05.37.22.47.29.16-.19.32-.38.48-.58.04.05.08.09.13.14-.12-.18-.37-.46-.33-.52.19-.26.46-.62.71-.63,1.24-.06,2.48-.04,3.72-.02.12,0,.25.14.35.23.25.25.48.23.75.01.16-.12.37-.25.56-.25,4.12-.01,8.23,0,12.35-.01.32,0,.57.03.58.45.02.51.23.59.73.32,0-.03,0-.08-.02-.1-.13-.15-.27-.29-.4-.44.2-.08.4-.21.61-.22.71-.03,1.41-.03,2.12,0,.33.02.66.15,1.06.24.12-.32.53-.25.92-.25,1.41,0,2.82-.01,4.24.01.27,0,.53.14.81.22.25-.07.54-.21.84-.22,1-.03,2-.02,3,0,.24,0,.47.11.7.17-.12.19-.23.38-.4.66.16.02.37.08.55.03.09-.02.18-.24.18-.37-.01-.43.22-.52.59-.51.62.01,1.24-.01,1.86.01.22,0,.44.11.66.17-.09.19-.19.38-.29.58.18.09.4.21.62.33-.07.04-.14.09-.21.13.36-.15.72-.29,1.14-.46-.13-.09-.24-.14-.3-.22-.07-.08-.13-.21-.11-.3.02-.09.16-.21.24-.2.41.02.89-.23,1.21.3.05.07.39,0,.58-.05.21-.06.4-.25.61-.25.76-.03,1.52,0,2.27-.02.46-.01.79.06.71.63-.01.08.06.18.09.26.43-.29.8-.63,1.24-.81.33-.13.75-.08,1.12-.07.4.01.87-.17,1.15.34.04.07.39.05.51-.03.6-.46,1.22-.46,1.58-.07.37-.1.67-.23.97-.24,1.31-.02,2.62.03,3.93-.03.52-.02.68.37,1,.59.05.03.04.25-.02.32-.16.19-.35.35-.54.5-.32.25-.28.5-.03.77.09.1.14.24.21.36-.13.07-.25.19-.38.19-.77.02-1.55.03-2.32,0-.2,0-.39-.2-.45-.24-.47.1-.85.24-1.23.25-2.79.02-5.58.01-8.37,0-.28,0-.6.08-.75-.3-.03-.06-.18-.07-.27-.11-.23-.1-.45-.2-.75-.33-.19.23-.49.63-.78-.05-.06.04-.11.05-.11.07.01.66-.37.76-.93.72-.65-.04-1.31-.07-1.96,0-.77.08-1.32-.21-1.75-.81-.8.91-2.03,1.12-2.48.57-.42.09-.77.22-1.12.22-1.79.02-3.58.02-5.37,0-.31,0-.63-.15-.89-.22-.37.08-.73.22-1.1.22-1.81.02-3.62,0-5.43.01-.39,0-.74,0-.7-.55,0-.09-.22-.28-.33-.27-.14,0-.39.17-.39.26.02.54-.3.56-.7.56-9.63,0-19.26,0-28.88,0-.44,0-.76-.06-.69-.6,0-.06-.07-.14-.14-.26-.08.13-.18.21-.17.27.05.51-.22.59-.65.59-3.91-.01-7.82,0-11.73-.02-.22,0-.43-.18-.65-.26-.17-.06-.34-.11-.52-.14-.46-.07-.88-.02-1.37-.32-.46-.28-.81-.8-1.25-.91-1.1-.27-1.47-1.33-2.3-1.85-.09-.06-.11-.23-.17-.35-.09-.18-.19-.36-.3-.53-.02-.03-.07-.05-.07-.07.02-.61-.66-1.01-.5-1.69.07-.3.14-.69-.32-.88-.07-.03-.08-.28-.08-.43,0-7.15,0-14.3,0-21.44,0-.24.19-.48.31-.76-.42-.14-.32-.56-.32-.94,0-1.36-.02-2.72.01-4.08,0-.31.15-.62.23-.89-.08-.36-.21-.74-.23-1.12-.03-.96-.01-1.93,0-2.89,0-.51.39-.91.88-1.02.15-.03.35-.23.36-.36.04-.58.04-1.17,0-1.75,0-.13-.23-.25-.35-.38-.11.12-.3.23-.31.36-.02.32-.15.7.28.91.05.03,0,.26,0,.4,0,0-.03.02-.04.03-.22.14-.45.28-.67.42-.05-.27-.15-.55-.15-.82,0-5.08-.01-10.16,0-15.24,0-.33.15-.66.22-.98h.17s-.08-.09-.12-.14c-.08-.11-.18-.21-.24-.33,0-.02.13-.16.16-.15.13.04.28.1.36.2.22.29.4.6.61.93.37-.52-.33-1.41.64-1.81-.37-.14-.59-.2-.86.08-.15.15-.48.19-.72.17-.09,0-.2-.31-.21-.49-.03-.34-.02-.69,0-1.03,0-.32-.1-.7.62-.74-.75-.36-.61-.86-.62-1.32,0-.76-.02-1.52.01-2.27.01-.28.15-.56.26-.91-.41-.17-.27-.66-.27-1.1,0-1.79,0-3.58,0-5.37,0-.19.13-.38.2-.57.16.09.33.18.51.27.27-.26,1.07-.48,1.34-.26.35.29.8.56.67,1.18-.07.36-.02.76-.01,1.13.01.38.03.76-.61.91.67.17.61.59.61.98,0,.55,0,1.1,0,1.65,0,.28.05.56-.34.71-.26.1-.17.93.06,1.14.13.12.27.32.27.48.02,2.15.02,4.31,0,6.46,0,.24-.22.47-.35.72.57.38.56,1.52-.09,2.07.63.54.63.86.02,1.29.56.43.56.47-.07.87.47.23.67.58.38,1.04-.04.06-.41-.09-.71-.16,0,.05-.09.23-.04.36.03.09.24.18.37.18.4,0,.5.2.5.55,0,4.86,0,9.71-.01,14.57,0,.18-.13.4-.27.53-.27.24-.29.61.03.77.38.19.33.56.19.74-.21.28-.54.52-.88.65-.4.15-.48.24-.22.68Zm15.31,32.16c-.26-.08-.36-.13-.46-.14-.56,0-1.13-.02-1.69,0-.13,0-.34.09-.36.18-.04.17.02.37.06.69.51-.67.81-.68,1.32-.25.36-.16.67-.29,1.14-.49Zm25.9,0c0,.06,0,.13,0,.19.41,0,.82.03,1.22-.02.13-.02.32-.25.32-.37,0-.12-.2-.31-.34-.35-.55-.18-.86.24-1.2.55Z"/>
  <path d="m19.96,135.87c-.12-.08-.18-.15-.26-.16-.23-.05-.6.07-.59-.32.01-.38-.2-.78.24-1.13.53-.43.97-.97,1.47-1.44.13-.12.32-.26.49-.26,1-.02,2,0,3-.02.33,0,.54.09.51.46-.02.28.05.46.39.46.36,0,.39-.21.37-.47-.02-.35.16-.47.47-.44.35.03.67.11,1.02.26.51.22.89.89,1.57.64.14-.05.27-.2.35-.33.1-.16.13-.36.2-.54.18.09.36.18.56.27.43-.45,1.05-.44,1.63,0,.12.09.41,0,.62-.06.18-.05.34-.23.52-.23,4.6-.01,9.2-.01,13.79,0,.22,0,.43.17.6.24.3-.08.6-.24.9-.24,2.72-.02,5.44,0,8.16-.01.42,0,.76.01.72.59,0,.1.23.32.33.3.15-.02.39-.2.39-.3-.03-.52.25-.61.67-.59.29.02.59-.03.88.01.32.04.63.15.93.22.25-.07.51-.21.78-.22,2.17-.02,4.34-.01,6.51,0,.3,0,.61-.06.81.3.05.08.51.08.56-.01.2-.33.48-.29.77-.29,1.27,0,2.55,0,3.82,0,.78,0,.77,0,.79.76,0,.17.03.34.05.51.06,0,.13,0,.19,0,.01-.27,0-.55.04-.82.02-.15.14-.28.21-.42.11.08.24.13.34.23.51.49,1.02.99,1.51,1.49.11.11.21.27.22.41.02.62.02,1.24,0,1.86,0,.14-.07.3-.16.4-.36.38-.35.82.01,1.23.1.11.15.3.15.46,0,2.29.01,4.58,0,6.87,0,.23-.18.45-.27.65.09.24.34.59.25.77-.28.56-.41,1.25-.98,1.6-.39.25-.94.25-1.32.51-1.2.81-2.51.2-3.75.37-.21.03-.45-.18-.71-.3-.26.25-1.56.55-1.78.26-.39-.52-.88-.31-1.34-.35-.11-.01-.31.01-.33.08-.18.44-.56.33-.88.33-1.14,0-2.27-.01-3.41.01-.45.01-.74-.07-.7-.6,0-.06-.05-.12-.11-.25-.07.14-.12.22-.15.29-.07.17-.14.35-.2.53-.17-.09-.35-.19-.42-.23-.37.09-.69.24-1,.24-4.7.01-9.4.01-14.1.01-.05,0-.11.01-.15,0-.2-.06-.39-.13-.58-.19.11-.15.21-.3.37-.53-.16-.03-.33-.1-.47-.07-.09.02-.2.2-.2.3,0,.47-.27.51-.64.51-1.19-.01-2.38-.02-3.56,0-.47.01-.78-.07-.72-.63,0-.05-.06-.11-.11-.21-.46.68-1.06.87-1.85.86-2.39-.05-4.79-.02-7.18-.02-.73,0-.72,0-.76-.73,0-.17-.07-.43-.18-.48-.27-.12-.49-.03-.52.34-.08.92-.16.98-1.08.86-.11-.01-.21-.12-.32-.18.07-.1.13-.21.21-.31.04-.05.09-.09.13-.14-.42-.32-.62-.25-.67.23-.03.31-.15.42-.45.42-.9,0-1.79.02-2.69-.02-.21,0-.41-.2-.65-.33-.24.54-.8.41-1.23.3-.42-.1-.78-.45-1.17-.68-.08-.05-.18-.09-.28-.11-.55-.09-.9-.41-1-.93-.01-.07,0-.17-.05-.19-.58-.35-.36-.91-.37-1.39-.02-2.22,0-4.44,0-6.66,0-.8,0-.79.78-.81.17,0,.35-.04.46-.05-.16-.35-.27-.65-.44-.92-.06-.1-.24-.19-.37-.19-.34-.01-.43-.19-.44-.5-.02-.65-.03-.65.87-1.08Zm4.55-1.37c-.03.08-.1.17-.1.25.03.47-.24.54-.62.52-.31-.02-.62,0-.93,0-.66,0-1.04.39-1.04,1.06,0,2.81,0,5.61,0,8.42,0,.47-.06.92.37,1.35.39.39.68.77,1.31.7.39-.05.79-.04,1.19,0,.2.02.38.21.59.26.21.06.6.13.63.06.22-.45.6-.33.94-.33,10.68,0,21.36,0,32.03-.01.52,0,.93.01.89.69,0,.03.07.07.13.12.04-.07.1-.13.1-.18-.06-.56.24-.63.72-.63,3.6.01,7.2.01,10.8,0,.4,0,.74.01.67.56-.01.09.09.18.13.28.05,0,.1.01.16.02.16-.36.32-.72.5-1.07.04-.09.18-.19.27-.18.55.05.55-.29.55-.69,0-1.88,0-3.75,0-5.63,0-1.03,0-2.07,0-3.1,0-.24-.01-.54.35-.51.56.06.6-.27.54-.67-.03-.18-.12-.47-.21-.48-.17-.03-.37.12-.56.19-.13.05-.36.16-.37.14-.21-.3-.7-.43-.6-.92.13-.58-.27-.86-.7-1.27-.05.49-.21.87.09,1.24.1.13.18.27.28.4-.17.06-.33.17-.5.17-5.7,0-11.4.01-17.1,0-.2,0-.39-.2-.6-.26-.21-.06-.56-.14-.64-.05-.49.62-1.12.21-1.68.29-.06,0-.21-.17-.2-.23.03-.1.14-.22.24-.27.15-.07.37-.02.48-.12.31-.28.59-.61.96-1.02-.5-.02-.91-.3-1.24.23-.1.16-.24.34-.41.42-.13.06-.43.04-.46-.03-.21-.48-.48-.25-.91-.15.55.3.66.67.43,1.07-.04.06-.42-.07-.7-.12-.32.38-.97.38-1.5-.03-.14-.11-.46-.03-.68.02-.21.05-.4.23-.61.25-.37.04-.76.04-1.13,0-.2-.02-.5-.14-.55-.28-.09-.24-.13-.56.26-.73.09-.04.03-.44.04-.68-.33.03-.69-.01-.98.1-.19.07-.04.86.16,1.06.08.09.18.24.16.33-.03.09-.2.2-.3.2-.57-.05-1.24.28-1.56-.24-.37.1-.65.23-.94.24-.58.03-1.17.03-1.76,0-.22,0-.43-.11-.65-.18.09-.18.17-.36.3-.61-.3-.04-.59-.16-.63.35-.04.71-.59.39-.94.44-.42.06-.47-.22-.46-.56,0-.25-.03-.5-.05-.75-.05,0-.09,0-.14,0-.17.21-.34.42-.48.59.11.18.2.34.3.5-.19.07-.38.16-.57.21-.13.03-.27,0-.41,0-3.79,0-7.58,0-11.37,0q-.88,0-1.18-.74s-.03-.01-.09-.03Zm30.09,13.03c-.21.22-1.52.4-1.83.15-.65-.51-1.22-.47-1.61.2-.18.31-.17.73.08,1.11.7-1.05,1.52-1.26,2.18-.58.22-.28.42-.62.74-.06.05.09.45.04.66-.04.16-.06.26-.27.39-.41-.05.05-.09.09-.14.14-.15-.17-.31-.34-.45-.5Zm15.57-14c-.21,0-.41-.02-.62,0-.13.02-.35.11-.36.18-.02.18.05.38.12.55.02.06.18.07.2.13.2.53.66.34.96.27.26-.06.53-.35.66-.6.13-.25.06-.56-.36-.54-.21,0-.41,0-.62,0Zm-27.78,1.2c.27-.11.74.21.78-.39.02-.29-.47-.81-.76-.81s-.78.51-.77.81c.03.56.47.3.75.39Zm-17.42,12.83c-.27.38-.6.84-1,1.4.46,0,.86.01,1.25,0,.31-.01.49-.36.32-.63-.2-.3-.43-.57-.57-.77Z"/>
  <path d="m40.91,62.75c-.13-.34-.3-.59-.29-.84,0-.49-.24-1.09.41-1.41.06-.03.04-.22.05-.34.02-.32-.11-.7.34-.87.06-.02.07-.18.08-.28.02-.4.13-.73.31-1.11.23-.49.53-.83.86-1.22.2-.24.14-.63.47-.9.58-.47,1.07-1.06,1.61-1.59.16-.16.38-.29.5-.47.18-.29.4-.38.72-.36.08,0,.17-.08.26-.13.18-.11.35-.25.54-.34.36-.18.76-.3,1.09-.52.65-.43.73-.45,1.15-.03.22-.17.47-.31.67-.51.25-.26.75-.3.97-.01.26.34.5.33.79.03.11-.11.3-.2.47-.21.52-.03,1.03-.01,1.55,0,.27,0,.54-.05.69.3.04.1.33.09.51.12.44.07.9-.13,1.31.34.27.31.84.35,1.27.53.11.05.21.15.3.24.07.06.14.2.21.2.76-.06.96.67,1.44,1.01.44.31.82.72,1.16,1.14.25.32.72.51.66,1.05,0,.08.14.17.2.26.21.33.6.5.66,1,.05.41.47.77.68,1.18.1.2.13.44.17.67.06.38-.15.84.34,1.11.02.01-.09.28-.15.42,0,.02-.1.02-.15.01-.58-.12-.97.17-1.3.54.26.13.51.25.76.38-.06.09-.12.19-.19.28.11-.14.2-.33.35-.4.46-.2.76.02.76.53,0,1.1.01,2.2,0,3.3,0,.19-.17.36-.25.55-.07.18-.14.37-.17.56-.06.45-.08.86-.3,1.33-.2.44-.52.86-.69,1.35-.26.73-.74,1.45-1.44,1.96-.56.41-.99,1-1.49,1.5-.33.34-.63.68-1.22.65-.3-.01-.62.36-.92.56-.02.02-.02.08-.04.09-.47.21-.94.42-1.42.63-.23.1-.47.19-.7.29-.14.05-.28.14-.42.14-1.45.01-2.89.01-4.34,0-.17,0-.34-.16-.51-.24-.1-.05-.2-.16-.3-.16-.5.03-.61-.24-.6-.67,0-.7-.38-.88-1.21-.44.29.06.48.08.64.14.1.04.18.15.27.23-.09.08-.2.23-.28.22-.24-.05-.47-.15-.7-.25-.09-.04-.17-.13-.26-.14-.26-.02-.53.02-.61-.33,0-.04-.08-.08-.12-.08-.79.09-1.05-.64-1.52-1.02-.58-.46-1.05-1.05-1.57-1.59-.08-.08-.2-.19-.19-.27.06-.51-.42-.65-.63-.98-.05-.08-.22-.15-.21-.2.11-.62-.21-1.14-.48-1.62-.28-.49-.46-.97-.43-1.53-.76-.37-.39-1.07-.44-1.63-.05-.6-.03-1.21.02-1.8.01-.15.24-.28.28-.32Zm1.56,2.88s.05.08.07.12c.24.02.49.05.73.05.31,0,.48.1.47.45,0,.37-.13.81.39.98.05.02.05.15.08.23.16.43.31.85.47,1.28.02.04.07.07.11.1.7.69,1.39,1.38,2.11,2.05.28.26.47.7.98.58.04,0,.1.08.16.11.16.09.32.19.49.27.1.05.3.05.32.11.12.41.45.29.72.32.2.02.51,0,.57.11.2.37.5.3.8.3.69,0,1.38.02,2.07,0,.43-.01.71.08.66.59,0,.07.09.15.18.3.22-.32.49-.57.54-.86.09-.44.38-.7.69-.83.24-.1.6.11.87.17.16-.21.36-.5.6-.76.51-.56,1.09-1.05,1.54-1.65.36-.49,1.17-.66,1.09-1.49,0-.07.12-.15.19-.22.2-.22.45-.4.6-.65.15-.24.21-.54.33-.86-.36-.33-.35-.37-.16-.62.13-.17.26-.39.27-.6.03-.93-.01-1.86.02-2.79.01-.38.15-.76.24-1.21-.02,0-.18,0-.33-.06-.12-.04-.3-.12-.31-.2-.04-.48,0-.98-.44-1.33-.02-.01-.01-.07-.01-.1.01-.27-.02-.47-.33-.61-.22-.1-.48-.33-.52-.54-.11-.6-.69-1.07-.49-1.75.01-.05-.07-.12-.13-.2-.35.57-.35.55-.75.1-.3-.34-.6-.77-.99-.91-.61-.2-1.12-.57-1.68-.8-.48-.19-1.08-.11-1.52-.51-1.04.18-2.13-.35-3.16.34-.37.25-.99.14-1.46.47-.36.25-.82.34-1.24.51-.03.01-.05.05-.07.07-.56.55-1.14,1.08-1.65,1.67-.23.27-.61.46-.57.95.02.29-.27.3-.48.12-.07-.07-.12-.16-.18-.25-.05.01-.1.02-.15.03,0,.44-.01.88,0,1.31.02.46,0,.85-.63.78-.07,0-.17.04-.22.1-.29.3-.57.62-.88.96.1.04.19.12.28.11.49-.05.57.22.55.63-.02.57-.04,1.14,0,1.7.06.75-.04,1.41-.86,1.78Zm16.79-8.98s-.08.06-.12.09c.16.15.3.39.48.44.3.08.8-.48.81-.8,0-.45-.33-.34-.58-.37-.47-.06-.69.12-.58.62Z"/>
</svg>