<?xml version="1.0" encoding="UTF-8"?>
<svg id="Layer_1" data-name="Layer 1" xmlns="http://www.w3.org/2000/svg" viewBox="0 0 180 180">
  <path d="m154.78,22.66c.18.07.52.17.52.21-.09.52.35.74.6,1.02.37.42.9.68.9,1.37,0,.21.32.51.57.62.44.2.33.55.26.82-.04.14-.37.19-.55.32-.26.18-.5.39-.57.58.08.37.2.73.24,1.1.05.58.21.67.72.43-.13-.24-.36-.47-.39-.72-.12-1.01.18-1.26,1.19-1.07.11.02.26.06.3.13.21.45.36.93.59,1.37.16.31.41.57.63.85.04.06.16.07.18.12.19.48.38.96.56,1.44.02.05,0,.16.02.16.59.17.37.88.78,1.18.1.08.13.26.2.38.1.19.2.37.3.56.06.11.16.22.17.34.02.29,0,.57.36.7.07.03.07.24.13.35.09.19.2.36.3.55.06.11.1.23.16.35.1.2.22.4.32.6.06.11.14.23.14.35,0,.3.02.54.38.67.12.04.1.4.17.61.09.27.2.53.31.79.05.12.09.25.14.36.1.2.21.39.31.59.06.11.1.23.16.34.1.2.21.39.32.59.03.05.11.09.1.12-.21.79.56,1.34.52,2.1-.01.21.24.41.29.64.07.29.08.61.09.91,0,.03-.22.13-.28.1-.46-.25-.91-.53-1.31-.77-.09.24-.19.49-.29.75l-.36-.15c.38.18.79.3,1.12.55.3.23.51.57.72.89.09.13.07.33.1.5.08,0,.16,0,.24,0,.02-.29.01-.59.07-.87.04-.19.18-.35.27-.53.11.17.23.33.33.5.09.15.16.32.24.47.04.06.14.1.15.16.19.77.38,1.54.53,2.32.07.33-.12.75.37.91.03,0,.05.06.06.09.17.77.35,1.55.5,2.32.06.33-.09.7.35.94.14.08.06.53.13.8.06.2.2.38.29.58.08.16.2.31.22.48.03.4-.02.8.03,1.2.03.24.22.45.26.69.04.24-.03.49-.15.71.12.29.22.59.35.87.06.12.23.2.27.33.08.26.16.53.13.79-.01.1-.31.21-.49.24-.32.04-.65-.03-.97.03-.16.03-.35.23-.4.39-.09.3.09.46.41.44.17,0,.34,0,.51,0,.33-.02.51.11.51.45,0,.33.14.49.48.48.39-.02.48.21.47.55-.01.38,0,.76,0,1.14,0,.29-.07.61.31.77.09.04.13.3.13.46.02.42-.03.84.02,1.25.03.22.2.43.29.65.07.17.15.34.15.51.02.72,0,1.45,0,2.17,0,.26-.05.52.32.64.12.04.2.34.2.53.02.88,0,1.75.02,2.63,0,.22.18.42.25.64.08.22.18.45.18.68.02,1.29,0,2.59.02,3.88,0,.22.19.44.28.67.07.17.17.34.17.51.01,2.38.01,4.76,0,7.14,0,.17-.12.33-.18.5-.16-.09-.31-.2-.48-.26-.19-.06-.42-.16-.58-.1-.37.15-.7.4-1.04.6.12.14.24.4.43.47.22.08.65.08.73-.05.24-.38.58-.34.85-.23.16.06.27.41.28.64.02,1.98,0,3.96.02,5.94,0,.39-.06.64-.55.65-.43,0-.54.65-.15,1.32.04-.25.03-.42.09-.55.07-.14.2-.26.31-.38.1.14.21.27.29.41.03.06,0,.15,0,.23,0,1.98.01,3.96-.01,5.94,0,.24-.22.47-.31.71-.07.19-.14.39-.15.58-.01,1.31,0,2.63-.02,3.94,0,.24-.19.48-.3.72-.02.05-.1.09-.09.13.06.9-.58.74-1.11.75-.12,0-.24.06-.43.11.25.27.46.48.69.73.07-.08.12-.18.2-.24.1-.08.23-.19.34-.19.08,0,.2.16.23.26.17.58,0,1.08-.49,1.43.13.07.29.11.33.2.06.14.07.46.05.46-.53.12-.34.55-.4.88-.05.28-.17.55-.28.89.49.23.26.8.29,1.3,0,.06,0,.14-.03.16-.77.49-.32,1.26-.42,1.9-.04.22.02.46-.02.68-.03.15-.17.28-.26.42-.11-.12-.25-.23-.32-.38-.07-.14-.06-.31-.09-.47l-.17-.04c-.31.54-.61,1.08-.97,1.7.31.02.58.05.86.04.37-.01.54.15.5.51-.04.4.19.89-.37,1.15-.09.04-.09.31-.09.48-.01.42,0,.84,0,1.26,0,.15,0,.39-.09.43-.53.26-.37.73-.38,1.15-.02.37,0,.71-.34,1.02-.17.15-.09.61-.11.93-.03.34.11.74-.4.88-.08.02-.1.29-.13.45-.1.53.23,1.14-.4,1.6-.18.13-.02.69-.08,1.04-.04.25-.2.48-.3.72-.06.13-.11.27-.15.41-.04.13-.01.34-.08.37-.58.26-.35.77-.38,1.19-.03.35.04.69-.35.95-.15.11-.1.53-.13.8-.04.37.14.81-.35,1.05-.08.04-.05.25-.11.36-.31.57-.67,1.12-.59,1.81-.55.22-.28.74-.43,1.1-.23.57-.32,1.2-.55,1.73-.26.6-.48,1.28-.88,1.78-.37.47-.38.94-.44,1.45-.01.09-.13.16-.21.23-.07.06-.2.08-.23.14-.19.48-.32.98-.53,1.44-.21.45-.49.87-.74,1.3-.03.05-.12.08-.11.12.06.66-.29.94-1.09.9.53.39.55.54.27,1.01-.3.51-.47.93-1.12.85.15.31.27.54.38.77-.27.09-.54.19-.83.28.55.57.53.63-.23,1.26-.12.1-.25.23-.28.37-.14.76-.52,1.11-1.33,1.1-.47,0-.63.15-.63.62,0,.32-.16.65-.26,1.02.07.21.26.54.24.85-.02.24-.29.49-.48.7-.21.23-.46.42-.69.63-.07.06-.17.14-.17.21,0,.86-.78,1.15-1.24,1.66-.63.7-1.34,1.33-2.02,1.99-.05.05-.09.14-.08.21.1.61-.47.8-.76,1.14-.52.62-1.12,1.17-1.7,1.74-.08.08-.18.19-.26.18-.83-.02-1.06.77-1.59,1.16-.37.27-.56.73-1.13.77-.28.02-.59.35-.79.61-.31.4-.58.72-1.14.85-.46.1-.85.48-1.27.74-.03.02-.04.07-.08.08-.48.18-.96.35-1.44.53-.12.04-.22.11-.33.17-.16.09-.33.19-.49.29-.16.1-.33.18-.49.29-.06.04-.1.17-.14.17-.68-.03-1.11.75-1.87.55-.33-.09-.65-.02-.95.33-.22.26-.71.27-1-.09-.29-.35-.53-.37-.82,0-.08.1-.24.15-.37.22-.2.11-.39.25-.6.31-.32.09-.65.15-.97.15-.43,0-.94.2-1.15-.42-.61.6-1.5.6-1.95.04-.74.78-3.81.46-4.8-.52-.25.38-.49.7-.88.09-.09-.14-.49-.09-.75-.12-.4-.04-.86.14-1.09-.37-.02-.04-.11-.07-.15-.06-.59.13-.82-.39-1.11-.7-.23-.25-.42-.33-.71-.32-.33,0-.69.08-.86-.36-.03-.07-.24-.05-.36-.1-.19-.08-.38-.18-.56-.28-.05-.02-.07-.1-.11-.12-.46-.19-.95-.34-1.38-.57-.3-.16-.57-.4-.76-.67-.05-.08.21-.38.4-.7-.34-.02-.68-.1-1-.05-.67.11-.98-.34-1.39-.71-.5-.44-.79-1.14-1.61-1.23-.27-.03-.58-.44-.73-.75-.21-.45,0-.71.53-.8.1-.02.2-.07.35-.26-.37-.18-.76-.35-1.12-.56-.48-.27-.94-.58-1.44-.9-.01.02-.06.09-.12.15-.11.1-.23.19-.35.28-.08-.11-.25-.23-.24-.33.07-.57-.44-.74-.7-1.06-.29-.36-.78-.56-.76-1.14,0-.09-.26-.19-.41-.27-.17-.09-.49-.17-.5-.26-.03-.89-.83-1.16-1.28-1.7-.06-.07-.16-.15-.16-.22,0-.61-.41-.94-.83-1.26-.04-.03-.09-.09-.09-.13.1-.68-.52-.86-.84-1.24-.08-.09-.11-.23-.17-.34-.1-.2-.21-.4-.32-.6-.04-.08-.14-.16-.14-.23.02-.39-.14-.63-.44-.9-.25-.22-.68-.46-.53-.95-.58-.25-.21-1.13-.87-1.33-.04-.01-.06-.09-.08-.14-.16-.67-.51-1.24-.89-1.81-.28-.43-.38-.98-.56-1.48-.03-.07-.04-.17-.09-.2-.65-.32-.27-.58.15-.89-.22-.06-.36-.09-.49-.12-.13-.03-.36-.07-.36-.1.03-.56-.49-.85-.62-1.31-.11-.38.09-.83-.38-1.11-.05-.03.1-.41.17-.7.03.02-.06-.07-.15-.07-.43.01-.64-.15-.61-.61,0-.13-.11-.26-.17-.39-.09-.18-.24-.36-.27-.55-.06-.36.07-.75-.36-1-.12-.07-.09-.42-.1-.64-.02-.29.07-.62-.34-.75-.06-.02-.11-.19-.12-.29-.01-.27-.03-.48-.35-.62-.28-.12-.24-.39.06-.56.11-.07.27-.2.27-.3-.04-.51.18-.69.67-.64.08,0,.16-.06.24-.1,0-.06.01-.11.02-.17-.21-.04-.43-.04-.62-.13-.18-.09-.32-.26-.56-.47-.05.23-.06.43-.13.59-.06.13-.19.23-.28.34-.1-.11-.29-.24-.28-.34.02-.24.14-.47.22-.71.07-.22.15-.44.22-.66-.06-.02-.11-.05-.17-.07-.06.07-.11.17-.19.21-.12.07-.26.16-.38.14-.08-.01-.19-.19-.2-.29-.03-.32.02-.65-.03-.97-.04-.23-.22-.43-.29-.65-.05-.16-.08-.4,0-.51.24-.3.5-.6.82-.81.21-.14.52-.17.78-.15.09,0,.2.31.23.49.05.26.04.54.07.99.2-.23.26-.37.36-.4.26-.07.54-.16.79-.12.1.01.21.31.24.49.04.22.04.46,0,.68-.13.73.16,1.26.75,1.66.05.03.13.08.12.11-.19.78.55,1.33.53,2.07,0,.28-.05.58.33.7.09.03.13.21.19.32.12.23.25.46.36.69.22.45.16.84-.39,1.19.23.06.36.12.49.12.33,0,.5.15.48.48,0,.02,0,.05,0,.06.7.47.21,1.42.82,2,.34.33.39.97.57,1.47.01.03,0,.11.01.11.61.15.36.88.78,1.17.09.06.12.22.18.33.11.22.26.42.34.65.08.24.14.51.1.75-.02.11-.35.27-.48.23-.65-.19-.94.3-1.29.64-.12.12-.06.42-.11.78.35-.29.56-.45.76-.63.66-.6,1.53-.53,2,.18.06.1-.04.32-.1.48-.07.19-.22.37-.23.56,0,.08.28.15.42.25.32.23.69.44.95.72.49.53.76,1.19,1.01,1.86.11.3.42.53.64.79.05.05.18.09.18.12-.14.89.76,1.57.52,2.47-.03.13-.14.23-.22.35-.08.12-.17.22-.22.35-.11.27-.19.55-.31.88h1.2c-.4-.33-.84-.6-.15-.94.1-.05.05-.35.11-.53.03-.11.12-.29.19-.3.12,0,.27.07.37.16.25.24.47.5.7.76.1.11.17.25.26.37-.13.08-.27.22-.4.23-.53.03-.59.29-.45.65.34-.11.65-.22.96-.3.09-.02.23.04.3.11.64.62,1.27,1.25,1.89,1.88.04.04.08.1.08.15-.05.81.71,1.07,1.1,1.57.34.45.82.8,1.25,1.18.17.14.39.22.58.34.27.17.55.33.78.55.4.39.76.83,1.15,1.23.07.07.21.15.29.13.54-.13.62.49,1,.6-.05.16-.1.32-.16.47-.07.19-.22.4-.19.57.02.1.32.21.5.22.3.02.66.12.82-.31.03-.07.26-.15.34-.1.41.24.8.52,1.21.76.12.07.28.08.42.13.14.05.36.09.38.18.09.36.34.34.61.37.15.01.28.13.42.21.16.08.31.16.46.25.17.09.33.19.5.28.13.07.26.13.39.17.14.05.39.03.42.11.17.44.53.41.86.36.74-.11,1.23.2,1.68.74.12.14.57.18.73.07.6-.43.79-.46,1.19-.06.44-.1.79-.22,1.15-.26.38-.04.76-.03,1.14,0,.16.01.32.14.47.22-.09.14-.19.28-.28.42-.03.05-.05.09-.08.14.44.32.94.25,1.25-.11.33-.4.67-.8,1.31-.71.18.03.39-.2.6-.28.2-.08.41-.13.63-.18.48-.1,1.08.27,1.41-.4.01-.03.29.05.43.11.19.08.39.29.54.25.13-.03.19-.33.29-.51.07-.12.15-.33.23-.33.36-.03.65-.1.86-.43.02-.03.41.17.75.31.01-.14.1-.37.04-.55-.04-.11-.3-.2-.46-.2-.91-.02-1.83,0-2.74-.02-.21,0-.41-.18-.62-.26-.2-.08-.4-.16-.61-.19-.47-.08-1.05.21-1.36-.41-.01-.02-.07-.04-.1-.03-.73.23-1.22-.42-1.86-.52-.11-.02-.2-.14-.29-.23-.08-.08-.14-.25-.2-.24-.66.03-.91-.65-1.37-.82-.6-.23-.97-.79-1.45-.96-1.27-.44-1.84-1.58-2.74-2.38-.55-.5-1.07-1.03-1.58-1.57-.14-.14-.2-.36-.29-.55-.02-.05,0-.11,0-.17-.01-.75.18-1.56-.71-2.08-.03.18-.03.39-.11.58-.05.13-.19.23-.3.34-.09-.12-.29-.25-.27-.35.1-.57-.46-.7-.66-1.06-.1-.19-.26-.35-.36-.54-.2-.4-.28-.9-.57-1.21-.25-.28-.3-.56-.41-.87-.16-.45-.49-.83-.73-1.25-.07-.12-.09-.28-.15-.41-.08-.17-.19-.33-.27-.51-.07-.14-.17-.29-.18-.44-.02-.26,0-.5-.35-.55-.05,0-.13-.1-.14-.16-.04-.36-.41-.75-.39-.91.07-.81-.6-1.37-.61-2.13,0-.2-.15-.43-.29-.59-.32-.36-.19-1.3.28-1.69-.03-.04-.05-.13-.08-.13-.52-.02-.93-.16-.84-.81-.7-.44-.37-1.14-.43-1.74-.04-.36.12-.77-.41-.93-.08-.02-.11-.27-.12-.41-.02-.42.03-.84-.02-1.25-.03-.23-.19-.44-.28-.66-.07-.17-.15-.35-.15-.52-.02-.53,0-1.07-.01-1.6,0-.3.06-.61-.33-.77-.1-.04-.13-.3-.14-.46-.02-.28,0-.57-.01-.86-.02-.4.08-.65.56-.66.13,0,.32-.27.34-.43.01-.11-.23-.36-.35-.36-.49,0-.56-.25-.55-.65.01-.45.3-.46.62-.46.26,0,.53-.04.79-.06,0-.06,0-.12,0-.19-.25-.02-.5-.07-.75-.05-.49.04-.67-.16-.66-.66.02-2.21,0-4.42,0-6.62,0-.76-.01-1.52,0-2.28,0-.43-.15-.92.38-1.22.09-.05.09-.32.09-.48,0-.74,0-1.48,0-2.23,0-.38-.09-.79.35-1.07.12-.08.09-.42.1-.64.01-.36,0-.72,0-1.08,0-.15.02-.39.1-.42.61-.23.39-.73.43-1.15.03-.34-.13-.74.36-.9.07-.02.09-.23.1-.36.03-.41-.12-.87.39-1.15.09-.05.08-.36.07-.54-.03-.46.04-.8.63-.73.09.01.18-.08.29-.13-.59-.66-.59-.68-.06-1.43.06-.09.07-.21.08-.32.03-.4-.09-.84.39-1.09.08-.04.04-.29.08-.43.04-.14.09-.36.18-.38.39-.11.34-.39.35-.68,0-.32-.11-.69.35-.85.08-.03.06-.31.11-.47.05-.14.15-.26.23-.4.12.07.23.16.35.22.2.09.41.17.61.25.06-.16.21-.35.17-.48-.05-.14-.25-.25-.4-.35-.15-.09-.32-.15-.48-.22.09-.14.2-.28.28-.42.21-.37.52-.64.71-1.06.28-.61.43-1.38,1.13-1.76.11-.06.22-.21.24-.34.09-.65.41-1.03,1.09-1.07.1,0,.28-.13.28-.21.02-.39.37-.71.4-.97.09-.81.75-1.21,1.21-1.5.48-.3.69-.54.95-1.03.33-.62,1.05-1.02,1.58-1.54.27-.27.51-.44.92-.5.25-.03.44-.45.68-.67.13-.12.29-.19.45-.28.19-.11.38-.23.59-.3.15-.05.43-.1.47-.03.36.53.81.29,1.24.26-.12-.26-.36-.59-.3-.66.25-.27.55-.54.89-.65.38-.12.87.12,1.12-.42.03-.06.25-.05.38-.06.38-.02.81.1,1.01-.41.03-.09.31-.12.47-.12,2.04,0,4.07-.01,6.11,0,.2,0,.41.18.6.3.06.03.11.17.14.16.75-.18,1.26.51,1.96.52.31,0,.65-.08.83.33.04.09.27.08.4.14.16.07.31.16.46.24.12.07.24.15.36.22.2.11.4.21.6.32.1.05.21.15.29.13.54-.14.68.39,1,.61.06.04.03.36-.06.46-.19.21-.5.32-.66.55-.12.17-.13.47-.06.67.05.16.33.23.42.4.09.16.08.38.09.49.4-.14.87-.16,1.06-.4.36-.47.8-.36,1.23-.35.17,0,.38.12.51.26.81.82,1.59,1.68,2.4,2.5.37.38.8.7,1.19,1.05.07.06.17.15.16.21-.06.44.19.72.5.97.31.26.51.55.51.98,0,.14.26.28.41.41.56.54.77,1.25,1.04,1.95.18.45.54.82.79,1.25.06.1.02.27.02.41-.16,0-.33.03-.46-.02-.09-.04-.13-.2-.2-.32q-.7.81-.52,1.18c.18-.11.36-.24.56-.33.03-.01.21.17.2.21-.08.19-.2.36-.33.58.25.15.49.21.71-.13.2-.31.33-.23.61,0,.44.37.49.79.45,1.29,0,.06-.01.15.01.17.48.24.5.76.7,1.16.12.25.24.53.23.79,0,.11-.37.19-.55.31-.29.2-.63.38-.81.66-.16.25-.05.53.3.73.17.09.14.53.21.81.05,0,.1.01.15.02.05-.12.13-.24.14-.36.02-.32.03-.65,0-.97-.03-.41.13-.59.56-.59.39,0,.54.17.53.55,0,.38-.13.81.38,1.02.07.03.07.24.08.37.02.38-.04.74.35,1.06.19.16.09.68.11,1.03.02.31-.08.65.34.82.08.03.11.27.12.41.02.44,0,.88,0,1.31,0,.27-.04.52.33.63.11.03.18.31.19.48.03.49,0,.99.01,1.48,0,.35-.09.71.34.95.11.06.11.38.11.59.01,1.16-.01,2.32.02,3.48,0,.22.2.43.29.65.07.17.16.34.16.52.02.93.03,1.87,0,2.8,0,.2-.17.42-.3.6-.29.42-.61.82-.92,1.24-.06-.02-.12-.04-.18-.06.29.02.57.06.86.05.42-.01.58.17.57.58-.02.57,0,1.15,0,1.72.09,0,.18,0,.27,0,.02-.29.03-.59.05-.88.03-.36-.12-.77.35-.99.08-.04.09-.27.1-.42.04-.39-.14-.86.44-1.04.06-.02.11-.21.09-.31-.15-.73.35-1.12.76-1.58.12-.13.09-.55-.04-.7-.33-.4-.35-.74.03-1.13.1-.1.15-.29.16-.45.02-.36,0-.72.01-1.08.01-.34-.1-.71.35-.93.11-.06.09-.41.11-.64.05-.46-.18-1,.39-1.32.08-.05.08-.28.08-.43,0-.49.03-.99,0-1.48-.03-.52.08-.87.7-.81.08,0,.16-.06.27-.09-.44-.38-.71-1.6-.45-2.06.25-.43.56-.83.86-1.24.18-.25.1-1.05-.16-1.23-.38-.28-.32-.75-.1-.93.33-.27.37-.54.35-.88-.03-.43.08-.69.59-.68.11,0,.31-.26.31-.4,0-.14-.18-.31-.32-.41-.16-.12-.53-.17-.53-.27-.02-.42.04-.84.12-1.25.04-.23.27-.44.27-.66.03-1.33,0-2.66.03-4,0-.22.21-.43.29-.66.08-.22.16-.46.16-.69.01-3.31,0-6.62.02-9.94,0-.31.15-.62.24-.97-.07-.24-.22-.57-.24-.9-.04-.84.02-1.68-.02-2.51-.03-.62.06-1.16.61-1.52.53-.35.31-.8.27-1.29-.11.04-.16.05-.2.08-.14.09-.29.18-.43.28-.08-.15-.22-.31-.23-.46-.02-1.16,0-2.32-.02-3.48,0-.32.08-.65-.34-.87-.32-.17-.12-.85.14-1.03-.1-.43-.23-.8-.25-1.17-.04-.66,0-1.33-.02-2-.01-.39.16-.84-.36-1.09-.09-.04-.08-.31-.09-.48,0-.86,0-1.71,0-2.57,0-.17.02-.4-.08-.49-.79-.7-.32-1.6-.32-2.39,0-.41.49-.82.72-1.25.09-.18.17-.56.1-.61-.32-.21-.42-.74-.94-.66-.35.05-.46-.17-.46-.49,0-.39.03-.74-.34-1.08-.19-.18-.08-.68-.12-1.04-.04-.46.19-1-.39-1.32-.07-.04-.07-.25-.08-.38,0-.4-.04-.8,0-1.2.04-.34.16-.67.38-.97-.02-.03-.04-.09-.05-.09-.71.02-.91-.36-.81-1,.02-.13.02-.35-.05-.38-.58-.28-.38-.8-.4-1.24-.02-.33.04-.64-.34-.89-.16-.11-.09-.56-.13-.85-.04-.38.18-.87-.42-1.02-.03,0-.05-.06-.06-.09-.17-.8-.36-1.6-.5-2.4-.06-.31.03-.62-.34-.84-.14-.08-.12-.44-.14-.68-.03-.29.08-.62-.33-.77-.04-.02.07-.45.13-.82-.41-.31-.7-.82-.8-1.59-.06-.5-.44-1.02-.44-1.61,0-.06-.18-.11-.27-.17-.26-.19-.29-.45.02-.56.37-.13.35-.4.27-.63-.04-.12-.31-.22-.48-.23-.31-.02-.43-.13-.48-.43-.03-.19-.2-.36-.3-.54-.06-.11-.11-.23-.16-.34-.1-.2-.23-.4-.3-.61-.08-.26-.14-.53-.12-.79,0-.08.29-.14.44-.23.15-.08.41-.17.41-.26,0-.19-.11-.39-.2-.58-.04-.09-.16-.15-.21-.25-.19-.37-.36-.75-.51-1.08-.32.15-.62.38-.71.31-.28-.2-.53-.48-.71-.78-.31-.51-.55-1.06-.82-1.59-.06-.11-.08-.25-.13-.36-.09-.19-.21-.36-.3-.55-.06-.13-.1-.27-.17-.4-.1-.2-.21-.39-.3-.59-.06-.13-.09-.27-.16-.4-.08-.17-.18-.34-.27-.5-.02-.03-.08-.03-.09-.06-.22-.48-.4-.98-.65-1.44-.17-.31-.43-.57-.65-.85-.08-.1-.24-.19-.24-.28,0-.37-.17-.6-.44-.85-.27-.25-.57-.53-.57-1.03,0-.24-.44-.48-.67-.71-.09-.09-.25-.2-.24-.27.09-.49-.3-.72-.55-.99-.38-.43-.8-.74-.96-1.39-.11-.44-.66-.78-1.05-1.13-.38-.33-.78-.59-.82-1.18-.02-.24-.32-.47-.53-.67-.76-.77-1.54-1.54-2.31-2.3-.06-.06-.15-.15-.22-.15-.84.06-1.06-.76-1.58-1.14-.43-.32-.75-.79-1.13-1.19-.03-.04-.11-.07-.15-.06-.62.09-.83-.44-1.17-.76-.04-.04-.08-.12-.11-.12-.46.02-.76-.3-1.13-.47-.6-.27-1.18-.56-1.74-.91-.46-.28-1.15-.29-1.48-.65-.48-.52-1.2-.18-1.5-.5-.5-.53-1.03-.29-1.55-.39-.2-.04-.54-.16-.54-.24,0-.28.13-.56.22-.84.02-.06.1-.09.16-.15-.47-.21-.81-.14-1.21.45-.21.31-.43.32-.7.32-1.75,0-3.5,0-5.25,0-.31,0-.63-.07-.82.34-.06.12-.41.1-.63.13-.47.08-1.04-.23-1.36.39-.03.07-.25.05-.38.06-.36.03-.77-.13-.99.36-.02.04-.45-.1-.75-.18.01-.03-.06.06-.05.16.02.44-.16.59-.61.69-.48.11-.9.46-1.35.71-.13.07-.26.12-.39.19-.19.1-.37.19-.56.29-.09.05-.19.17-.28.16-.59-.08-.85.37-1.14.73-.22.26-.38.27-.59.04-.34-.37-.86-.41-1.35-.08.1.07.17.14.27.18.34.14.3.32.1.56-.15.18-.22.42-.37.61-.23.29-.46.76-.74.79-.8.1-1.07.78-1.56,1.2-.57.5-1.05,1.11-1.61,1.62-.09.08-.44-.15-.73-.25-.06.51.05,1.21-.23,1.65-.28.43-.67,1.05-1.32,1.05-.55,0-1.23.33-1.71-.5-.12.54-.29.94.12,1.32.2.18.4.37.57.58.07.09.11.31.06.35-.47.4-.88.81-1,1.48-.04.22-.41.38-.63.56-.04.03-.11.04-.15.07q-.49.45-.89-.04c-.15.34-.28.62.14.86.1.05.2.29.15.36-.24.42-.53.82-.8,1.24-.19.3-.07.68-.47.96-.57.41-.5.5-.85-.08-.31.25-.35.59-.05.79.38.24.35.42,0,.66-.11.08-.13.28-.2.43-.09.17-.18.33-.28.49-.03.05-.1.07-.12.11-.18.48-.32.98-.54,1.45-.2.45-.49.86-.73,1.29-.08.14-.12.3-.19.44-.1.19-.2.36-.31.54-.06.11-.15.2-.21.31-.13.22-.25.45-.36.68-.05.11-.06.26-.12.37-.32.56-.43,1.16-.54,1.79-.08.44-.55.8-.77,1.24-.11.22-.07.52-.08.78-.01.3-.1.45-.43.56-.74.24-1.49.51-1.98,1.19-.09.13-.24.22-.36.33.35.19.7.38,1.11.6.02-.15.02-.37.1-.57.04-.11.2-.25.3-.24.09,0,.25.18.25.28,0,.28.16.62-.28.77-.08.03-.14.21-.16.33-.12.95-.12.95-.77,1.19.1.32.38.74.27.91-.35.53-.28,1.19-.54,1.65-.23.42-.33.78-.4,1.21-.02.14-.27.27-.44.37-.16.1-.44.12-.49.25-.08.23-.1.5.26.64.32.13.35.88.04,1.01-.35.14-.34.35-.34.62,0,.1,0,.19,0,.29,0,.92-.1,1.12-.74,1.57.1.41.36.94.23,1.07-.6.56-.35,1.25-.42,1.88,0,.06,0,.14-.04.16-.75.46-.32,1.2-.42,1.8-.05.31.06.66-.35.82-.06.02-.09.16-.12.24-.11.27-.21.55-.34.88.46.53.45.55-.04,1.3-.08.13-.09.33-.09.49-.01.57-.01,1.14,0,1.71,0,.39-.17.55-.55.55-.38,0-.81-.11-1.04.38-.02.03-.43-.12-.77-.23.1-.05.05-.04.04-.02-.33.51.38.63.38.99,0,.46.12.65.63.71.28.03.6.41.74.7.11.24.17.63-.24.83-.11.06-.17.32-.17.49-.02.88.01,1.75-.02,2.63,0,.22-.2.43-.29.66-.07.18-.15.38-.15.57-.01,1.31,0,2.63,0,3.94,0,.29.07.61-.32.77-.09.04-.13.3-.14.45-.01.67,0,1.33,0,2,0,.33.07.67-.34.89-.09.05-.01.49.05.73.05.21.27.4.28.61.03,1.08.03,2.17,0,3.25,0,.24-.16.47-.23.65.08.41.22.81.23,1.22.03,1.48.01,2.97.01,4.45q0,.86-.88.88c-.64,0-.73.18-.43.84.08-.08.15-.18.23-.21.26-.09.53-.21.8-.2.1,0,.26.34.26.52.02,1.79.01,3.58.01,5.37,0,.3-.05.59.32.78.12.06.14.37.14.56.01,1.22,0,2.44,0,3.65,0,.13-.04.28,0,.4.12.27.39.52.39.77,0,.26-.26.51-.39.78-.03.06-.01.19.03.22.69.46.34,1.16.41,1.76.04.35-.08.73.37.93.08.04.1.27.1.42.01.65,0,1.29,0,1.94,0,.37-.1.77.4.95.09.03.12.3.13.47.02.49,0,.99,0,1.48,0,.34-.06.68.33.9.1.06.11.31.12.47.02.4,0,.8,0,1.2,0,.13-.03.33.04.39.72.57.32,1.36.44,2.05.03.2.16.38.25.57.06.13.19.25.19.38.02.44.01.87,0,1.31,0,.07-.01.16-.05.22-.45.74-.51.82.17,1.32.72.51.88,1.12.82,1.92-.01.18.16.41.3.57.2.2.32,1.28.09,1.43-.1.07-.33.07-.41,0-.24-.2-.42-.49-.67-.69-.13-.1-.35-.13-.52-.1-.09.01-.18.22-.2.35-.03.3-.03.61-.01.91.02.39-.09.61-.53.61-.42,0-.58-.18-.55-.59.02-.26.04-.54,0-.8-.03-.19-.19-.36-.26-.55-.08-.22-.16-.44-.18-.67-.03-.31.05-.63-.36-.81-.12-.05-.15-.4-.17-.61-.06-.48.09-.96-.36-1.41-.23-.23-.08-.83-.1-1.27-.02-.38.09-.76-.36-1.05-.17-.11-.09-.6-.11-.92-.04-.47.3-.44.62-.53.3-.09.55-.38.85-.61-.24-.19-.46-.38-.71-.58-.12.11-.24.3-.41.35-.55.19-.82-.03-.83-.61,0-.4.03-.8-.02-1.2-.02-.21-.18-.4-.28-.59-.05-.1-.16-.2-.14-.29.11-.61-.34-1.31.37-1.82.27-.2.02-.7-.35-.7-.42,0-.51-.19-.5-.56.02-.63.01-1.26,0-1.88,0-.37.15-.81-.4-.99-.09-.03-.12-.34-.12-.52-.01-.84,0-1.67,0-2.51,0-.19-.04-.38-.07-.57-.06,0-.12,0-.18,0-.02.17-.06.34-.07.51,0,.53-.02,1.07,0,1.6.02.47-.11.74-.63.7-.08,0-.16.06-.32.13.72.37.39.98.49,1.49.18.85-.55.7-1.01.85.02.05.03.1.05.16.19.02.38.03.56.08.13.04.31.12.34.22.03.1-.09.25-.15.37-.09.19-.24.37-.26.56-.04.51,0,1.03-.02,1.54,0,.33.08.7-.4.83-.08.02-.12.26-.13.4-.02.48,0,.95-.01,1.43-.02.39.16.85-.37,1.08-.07.03-.07.24-.07.37,0,.46.02.92-.02,1.37-.02.19-.19.36-.26.55-.08.22-.15.44-.18.67-.04.29.08.61-.33.76-.08.03-.13.26-.13.4-.02.42.03.84-.02,1.25-.03.25-.2.47-.3.72-.06.17-.12.35-.14.52-.07.53.18,1.11-.41,1.56-.17.12-.06.61-.07.93-.01.34.05.68-.38.86-.11.05-.16.37-.14.56.03.51-.05.88-.69.79-.06,0-.13.05-.2.09.58.58.58,1.21.05,1.89-.06.08-.08.21-.09.32-.03.41.12.88-.41,1.13-.07.03-.05.25-.06.38-.02.38-.2.72-.3,1.06-.19.58-.81.99-.65,1.71.04.17-.21.38-.3.59-.09.19-.17.39-.2.6-.05.31.12.7-.35.86-.07.02-.06.24-.11.36-.09.18-.21.34-.3.53-.07.16-.14.34-.16.51-.04.38,0,.7-.36,1.05-.34.32-.35.95-.59,1.4-.16.31-.46.55-.7.82-.06.07-.23.11-.22.15.05.66-.43,1.2-.48,1.78-.05.64-.34,1.01-.72,1.41-.11.11-.18.26-.26.39-.11.19-.23.39-.33.59-.06.13-.08.28-.14.41-.07.17-.17.33-.26.5-.13-.12-.27-.25-.4-.37-.04-.04-.09-.07-.13-.1-.33.34-.31.6.05.82.35.22.31.37,0,.63-.33.27-.79.49-.74,1.05,0,.1-.11.21-.18.31-.09.15-.26.29-.25.43.02.48-.23.6-.64.57-.09,0-.19,0-.29,0-.97,0-.95,0-1.05.94-.02.23-.23.45-.38.72.08.06.25.14.36.27.24.3.03,1.1-.22,1.41-.41.53-1.07.81-1.22,1.61-.08.44-.64.81-1.02,1.17-.4.39-.84.72-1.24,1.1-.64.61-1.27,1.24-1.89,1.87-.66.68-1.28,1.41-1.96,2.08-.32.32-.56.78-1.17.75-.21-.01-.46.31-.66.51-.37.39-.71.82-1.07,1.22-.06.06-.16.13-.24.13-.6-.05-.87.4-1.19.77-.04.04-.06.1-.11.12-.48.19-.98.33-1.44.55-.46.23-.89.53-1.34.79-.11.06-.25.06-.37.11-.18.09-.35.21-.53.29-.21.09-.42.19-.65.23-.32.05-.69-.09-.88.34-.03.08-.23.1-.36.12-.4.04-.8-.07-1.1.39-.18.27-1.12.02-1.43-.19-.18-.12-.52-.06-.77,0-.19.04-.36.2-.55.29-.08.04-.23,0-.27.06-.47.75-1.21.31-1.82.38-.18.02-.38-.22-.58-.35-.48.56-1.34.55-1.9-.09-.18.58-.65.46-1.06.47-.4,0-.8.01-1.2,0-.34-.01-.71.11-.93-.35-.06-.12-.45-.06-.69-.12-.28-.07-.55-.17-.93-.29-.19.24-.5.54-.82-.11-.04-.08-.28-.06-.43-.07-.37-.02-.77.09-1-.36-.05-.09-.28-.06-.42-.11-.14-.06-.27-.16-.39-.25-.05-.04-.06-.17-.11-.19-.53-.19-1.05-.39-1.59-.53-.28-.07-.62.04-.76-.35-.02-.05-.13-.11-.19-.1-.62.08-.82-.45-1.17-.77-.09-.08-.21-.15-.33-.18-.7-.13-.97-.42-1.14-1.12-.03-.14-.26-.3-.41-.32-.41-.06-.8.04-1.13-.41-.2-.27-.62-.48-1.05-.61-.46-.15-.79-.72-1.17-1.12-.23-.24-.47-.48-.69-.73-.1-.11-.17-.24-.26-.36.14-.08.26-.18.41-.23.15-.05.32-.05.6-.09-.46-.36-.84-.57-1.22-.81-.42-.25-1.13-.13-1.3-.78-.01-.05-.12-.09-.19-.1-.73-.07-1.04-.48-1.27-1.17-.15-.46-.72-.76-1.07-1.16-.3-.35-.75-.59-.77-1.18,0-.24-.32-.51-.56-.69-.45-.33-.91-.62-.9-1.29,0-.14-.27-.27-.4-.42-.47-.56-.8-1.19-.99-1.9-.05-.17-.29-.28-.4-.44-.33-.45-.78-.87-.91-1.37-.17-.65-.63-1-.98-1.48-.3-.41-.32-1-.55-1.47-.22-.45-.55-.84-.81-1.26-.06-.1-.12-.26-.08-.35.04-.09.2-.15.31-.17.52-.09.82-.64.56-1.12-.06-.11-.28-.18-.42-.18-.12,0-.27.1-.35.2-.06.07,0,.24-.04.33-.07.13-.19.23-.28.35-.11-.13-.33-.29-.3-.37.22-.73-.49-1.16-.56-1.82-.04-.42-.51-.79-.77-1.2-.06-.09-.07-.21-.08-.32-.03-.42.12-.88-.4-1.14-.07-.04-.02-.29-.07-.43-.05-.14-.14-.27-.23-.4-.04-.05-.17-.06-.19-.11-.2-.53-.42-1.07-.57-1.62-.07-.28.04-.62-.35-.75-.02,0-.04-.03-.04-.04.13-.89-.77-1.56-.53-2.47.04-.14.21-.27.35-.34.15-.07.34-.06.52-.08,0-.05.02-.1.02-.14-.1-.06-.19-.14-.29-.16-.61-.11-.98-.47-1.09-1.07-.02-.12-.12-.22-.17-.33-.09-.19-.19-.37-.28-.56-.07-.14-.09-.33-.2-.42-.29-.24-.52-1.14-.25-1.4.27-.27.61-.49.97-.62.35-.12.56.1.55.5,0,.27.04.54.06.88.25-.22.49-.33.56-.51.08-.2.03-.47-.01-.7-.03-.17-.15-.33-.23-.49.23-.05.47-.14.69-.12.12.01.27.23.31.37.05.19.01.42.02.62.01.35-.05.67.33.96.14.11-.02.65-.08.99-.04.2-.2.38-.21.57,0,.07.28.16.43.23.12.05.36.1.36.11-.1.68.82.97.65,1.7-.04.17.17.4.27.6.06.11.13.22.17.34.03.09-.02.23.03.28.43.43.27,1.12.52,1.5.31.48.19,1.16.45,1.38.48.4.15,1.15.78,1.38.06.02.05.24.07.37.02.11.01.3.06.32.62.19.43.71.49,1.13.02.13.12.26.2.38.05.07.17.11.2.19.18.48.35.97.53,1.45.03.09.06.2.12.24.61.35.28.91.27,1.38,0,.07-.42.24-.61.2-.65-.13-.82.49-1.22.73-.08.05-.01.36-.01.67.33-.27.57-.41.72-.61.52-.73,1.25-.31,1.88-.34.29-.01.31.73.05,1.01-.13.14-.26.37-.24.54,0,.1.3.18.47.26.14.07.29.14.44.21.2.1.38.22.58.32.1.05.29.07.3.11.03.44.48.77.5,1.09.03.49.33.77.59.95.46.33.38.72.4,1.14.02.38-.15.81.4,1.06.31.14.12,1.22-.18,1.45-.1.08-.16.22-.21.35-.11.27-.19.54-.31.87h1.24c-.51-.35-.78-.61-.18-.97.14-.09.05-.54.1-.81.03-.17.14-.32.22-.47.13.08.29.13.4.23.28.25.6.48.8.79.13.19.11.51.07.76-.01.09-.25.22-.39.22-.55.03-.56.31-.46.6.42-.1.78-.24,1.15-.26.67-.04,1.08.4,1.23,1.08.06.27.29.53.51.74.7.68,1.45,1.32,2.14,2,.69.68,1.35,1.4,2.02,2.1.1.1.23.25.33.24.59-.04.8.44,1.15.76.32.29.5.72,1.06.76.29.02.56.41.83.63.1.08.19.23.29.23.35,0,.55.17.8.42.24.25.48.65.96.57.08-.01.24.1.25.17.07.39.36.32.62.33.36.02.78-.13.96.37.01.04.1.08.15.07.7-.08.91.56,1.36.93.07-.08.12-.16.2-.23.09-.08.24-.22.29-.2.42.21.84.43,1.23.69.22.15.35.46.58.57.18.09.52.08.67-.03.57-.44.84-.45,1.2-.04.43-.1.78-.22,1.14-.27.3-.04.61-.04.91,0,.24.03.47.14.71.21-.11.19-.22.38-.34.58.35.33.95.24,1.26-.13.3-.35.58-.76,1.18-.7.22.02.46-.22.7-.31.21-.07.43-.11.64-.15.46-.08,1.05.24,1.36-.4.01-.02.31.08.46.14.17.07.36.25.5.22.13-.03.26-.28.29-.45.05-.3.17-.45.48-.43.08,0,.15,0,.23,0,.65.05,1.27.04,1.65-.73-.16-.04-.34-.11-.52-.11-1.03-.01-2.06.01-3.08-.02-.22,0-.43-.19-.64-.3-.05-.02-.09-.11-.12-.1-.79.2-1.35-.51-2.1-.52-.22,0-.43-.2-.64-.31-.11-.06-.24-.09-.35-.15-.21-.11-.42-.24-.63-.36-.03-.02-.04-.08-.07-.09-.46-.18-.94-.33-1.37-.56-.32-.17-.57-.45-.86-.68-.1-.08-.19-.22-.29-.22-.86.03-1.11-.77-1.63-1.19-.45-.36-.82-.81-1.23-1.22-.54-.54-1.09-1.08-1.63-1.63-.18-.19-.3-.48-.52-.59-.54-.27-.49-.75-.4-1.16.14-.68-.4-.93-.72-1.39-.06.11-.1.22-.17.28-.1.09-.23.19-.35.19-.08,0-.24-.19-.22-.26.13-.57-.45-.71-.63-1.1-.09-.2-.22-.38-.33-.57-.08-.14-.15-.27-.24-.4-.03-.04-.13-.06-.13-.1,0-.5-.31-.83-.58-1.21-.35-.49-.58-1.08-.85-1.62-.06-.11-.06-.25-.12-.37-.09-.2-.21-.39-.31-.59-.06-.11-.1-.23-.16-.34-.1-.2-.21-.39-.32-.58-.03-.05-.11-.09-.11-.12.22-.79-.57-1.34-.5-2.09.03-.29.03-.56-.36-.67-.1-.03-.15-.32-.17-.5-.04-.35.07-.72-.35-.95-.06-.03.09-.44.15-.68.06,0,.11,0,.17,0-.14-.13-.27-.28-.43-.38-.59-.37-.46-.96-.48-1.51,0-.29.09-.62-.32-.76-.08-.03-.13-.26-.14-.4-.02-.42.03-.84-.02-1.25-.03-.23-.2-.44-.29-.66-.06-.15-.14-.3-.15-.46-.02-.55,0-1.1,0-1.66,0-.3.04-.6-.32-.78-.1-.04-.12-.3-.13-.46-.01-.57-.01-1.14,0-1.71,0-.3-.1-.64.33-.82.09-.04.09-.64,0-.68-.48-.21-.38-.61-.29-.91.04-.14.42-.18.65-.28.05-.02.09-.05.15-.23-.27-.02-.54-.06-.81-.05-.41.02-.58-.15-.58-.56,0-2.06,0-4.11,0-6.17,0-.13,0-.35.07-.38.76-.34.37-1,.45-1.53.03-.2.01-.42,0-.63-.02-.41-.06-.83.56-1.03-.77-.32-.52-.9-.55-1.39,0-.06,0-.14.03-.16.69-.43.42-1.11.4-1.68-.02-.84.04-1.59.81-1.89-.13-.41-.27-.72-.32-1.05-.05-.35-.07-.71.36-.93.11-.06.1-.42.1-.64-.04-1.15.02-.93.88-1.8-.32-.25-.72-.51-.06-.84.08-.04.09-.23.12-.36.03-.13.03-.35.09-.37.66-.22.4-.76.44-1.19.03-.36-.11-.77.37-.97.07-.03.07-.28.08-.42.02-.38-.02-.71.35-1.05.33-.3.4-.89.59-1.35.17-.42.42-.74.89-.85.19-.05.47-.12.53-.25.09-.22.09-.5-.27-.63-.31-.12-.27-.35,0-.56.14-.11.21-.3.31-.45.11-.17.21-.35.31-.52.05-.08.14-.16.13-.23-.09-.61.42-.85.74-1.21.07-.08.19-.17.19-.25.02-.83.81-1.07,1.23-1.58.08-.09.25-.18.24-.26-.09-.88.73-1.12,1.14-1.64.52-.66,1.18-1.22,1.77-1.82.64-.64,1.28-1.28,1.92-1.92.04-.04.11-.07.15-.06.63.19.87-.38,1.13-.7.24-.3.47-.33.76-.33.55,0,1.1,0,1.65,0,0-.06,0-.12.01-.19-.09-.05-.21-.07-.27-.14-.08-.11-.17-.25-.16-.37,0-.08.17-.19.28-.21.29-.04.62.04.72-.38.01-.05.2-.07.31-.09.13-.02.34.02.38-.05.36-.63.96-.36,1.47-.41.28-.03.57.06.67-.35.02-.1.32-.17.49-.17,2.06-.01,4.11,0,6.17,0,.08,0,.17-.02.22.02.43.27.86.56,1.29.83.13.08.31.11.47.14.54.09,1.1-.18,1.6.4.29.34.95.33,1.4.56.57.29,1.12.63,1.62,1.03.23.19.11.53-.23.47-.54-.08-.63.46-.99.63-.07.03-.07.37,0,.53.07.17.3.28.38.45.08.17.07.38.08.48.35-.11.66-.18.93-.31.44-.21.88-.44,1.26-.73.26-.2.38-.22.6.03.63.71,1.28,1.42,1.94,2.1.36.37.79.69,1.18,1.04.08.07.18.17.18.27.03.8.78,1.08,1.16,1.63.06.08.23.15.22.21-.1.66.49.84.82,1.2.05.05.16.1.16.15,0,.45.3.75.47,1.12.35.76.63,1.52,1.26,2.12.17.16.09.58.1.88,0,.01-.28.09-.34.04-.28-.25-.53-.53-.83-.84-.18.42-.87.58-.55,1.14.29-.09.53-.16.77-.24-.06.24-.11.49-.19.8.18.08.41.16.7-.16.15-.16.49-.22.73-.21.11,0,.22.28.31.44.05.1.02.28.08.32.59.34.43.64-.1.94.12.09.2.18.26.18.69-.08.71.34.7.85,0,.41-.17.89.37,1.14.07.03.06.24.08.37.02.13,0,.35.06.38.56.23.25.78.43,1.1.33.56.47,1.13.47,1.75.85.38.35,1.15.5,1.74.07.27.21.52.31.78.06.15.14.31.15.47.02.4-.03.8.02,1.2.03.25.2.48.29.72.06.15.14.31.14.47.02.51,0,1.03.01,1.54,0,.33-.09.68.34.89.05.02-.1.48-.18.79.42.13.31.6.31,1.01,0,1.64-.05,3.28.03,4.91.03.64-.28,1.01-.65,1.39-.22.23-.48.44-.82.75.35.03.58.08.81.07.46-.02.65.15.63.63-.03.72-.01,1.45,0,2.17,0,.19.05.38.07.57.08,0,.15,0,.23.01.03-.23.06-.46.08-.69.02-.31-.09-.65.33-.82.08-.03.11-.26.12-.4.02-.28-.02-.57.01-.86.02-.19.12-.36.18-.54.15.11.29.24.45.31.17.08.38.15.56.12.08-.01.19-.28.16-.41-.03-.14-.18-.28-.31-.37-.18-.13-.55-.21-.55-.31,0-.42-.28-.91.21-1.25.03-.02.09-.03.1-.06.19-.5.45-.99.55-1.51.09-.48.02-.99.02-1.48,0-.34-.03-.64.33-.9.17-.13.11-.56.15-.85.04-.37-.14-.82.43-.99.07-.02.1-.27.1-.41.01-.42,0-.84,0-1.26,0-.28-.05-.56.31-.72.11-.05.11-.36.14-.56.07-.49-.22-1.07.4-1.43.08-.04.06-.28.07-.43,0-.61,0-1.22,0-1.83,0-.38-.12-.81.37-1.04.08-.04.09-.28.09-.42,0-.57.06-1.15,0-1.71-.08-.7.2-1.16.74-1.55.32-.23.27-.52.03-.82-.14-.17-.27-.4-.28-.61-.04-.61-.02-1.22-.01-1.83,0-.15,0-.39.07-.43.57-.32.39-.86.39-1.32.02-1.43,0-2.85,0-4.28,0-.3-.02-.59.35-.76.13-.06.17-.39.17-.6.01-3.46,0-6.93,0-10.39,0-.17-.02-.35.02-.51.02-.11.11-.24.2-.29.06-.03.19.07.28.11.22.09.43.19.65.28.08-.21.19-.41.23-.63.03-.17-.03-.35-.06-.65-.17.19-.22.32-.31.34-.26.06-.54.13-.8.09-.09-.01-.18-.33-.2-.51-.03-.32-.02-.65,0-.97,0-.14.03-.32.12-.42.46-.54.44-.88.02-1.42-.14-.18-.1-.5-.14-.75-.06-.43.22-.97-.43-1.21-.08-.03-.1-.28-.1-.42,0-1.58,0-3.16,0-4.74,0-.39.12-.62.56-.59.12,0,.25-.04.46-.08-.29-.22-.51-.38-.76-.57,0,0-.06.11-.15.19-.24.2-.49.2-.55-.15-.05-.31-.05-.65,0-.96.02-.13.23-.26.38-.32.17-.07.37-.07.65-.11-.15-.12-.18-.18-.23-.19q-.83-.16-.83-1.01c0-.3,0-.61,0-.91,0-.13,0-.34-.07-.38-.55-.28-.37-.78-.38-1.21-.02-.86,0-1.71,0-2.57,0-.31-.05-.63.33-.84.1-.06.11-.55-.01-.69-.32-.39-.74-.68-1.1-1.04-.09-.09-.14-.26-.14-.4-.02-.42,0-.84-.01-1.26,0-.29.08-.62-.32-.76-.08-.03-.12-.26-.12-.4-.02-.42,0-.84,0-1.26,0-.29.07-.58-.36-.72-.29-.09-.23-.77.06-.98.09-.06.18-.11.16-.1-.15-.33-.21-.68-.42-.86-.64-.57-.18-1.45-.52-1.96-.43-.65-.33-1.26-.41-1.91-.01-.11-.12-.21-.2-.31-.05-.05-.18-.1-.17-.13.13-.89-.75-1.57-.53-2.48.03-.12.08-.29.16-.33.44-.2.9-.35,1.35-.55.13-.06.28-.19.32-.32.03-.11-.05-.36-.13-.38-.16-.05-.46-.06-.52.03-.36.59-.63.4-.9-.21-.03.04-.07.09-.1.13-.04.18-.05.37-.12.54-.06.13-.18.23-.28.34-.08-.11-.22-.21-.23-.33-.05-.45.13-.96-.47-1.21-.07-.03-.07-.24-.08-.37-.03-.38.11-.81-.39-1.03-.05-.02-.08-.17-.08-.26-.02-.44.07-.91-.41-1.21-.08-.05-.05-.29-.06-.44-.03-.34.09-.7-.35-.94-.14-.08-.16-.54-.11-.8.12-.63-.24-1.02-.59-1.45-.15-.18-.24-.4-.35-.61-.04-.08-.03-.24-.09-.26-.65-.22-.42-.77-.43-1.2,0-.14.14-.33.27-.43.33-.24.35-.63.02-.85-.1-.07-.22-.15-.27-.25-.2-.37-.37-.75-.53-1.09-.29.16-.48.26-.66.36-.08-.19-.17-.37-.25-.56-.05-.12-.07-.32-.14-.34-.46-.15-.32-.51-.3-.81.02-.34.25-.34.49-.19.1.06.16.19.29.35.13-.45.85-.54.54-1.1-.32.11-.63.26-.94.3-.47.06-.88.07-.9-.65,0-.27-.45-.53-.69-.8-.06-.07-.19-.1-.21-.17-.19-.48-.22-1.12-.56-1.42-.45-.4-.18-1.13-.8-1.36-.04-.01-.07-.1-.06-.15.1-.44-.24-.65-.47-.93-.48-.58-1.08-1.13-1.34-1.81-.24-.62-.7-.99-.99-1.5-.17-.31-.23-.7-.52-.97-.18-.17-.38-.32-.53-.51-.33-.46-.58-.98-.96-1.39-.69-.75-1.46-1.43-2.17-2.17-.56-.57-1.08-1.18-1.63-1.76-.35-.36-.72-.69-1.09-1.04-.42-.4-.85-.81-1.27-1.21-.08-.07-.17-.21-.24-.2-.64.07-.78-.58-1.21-.8-.09-.05-.17-.2-.25-.2-.59.03-.85-.42-1.18-.78-.03-.03-.04-.08-.07-.09-.48-.19-1-.31-1.42-.58-.45-.3-1.09-.28-1.4-.82-.05-.08-.22-.12-.34-.14-.43-.04-.79-.13-1.22-.34-.56-.29-1.16-.85-1.93-.59-.58.19-.81-.36-1.15-.62-.06-.05.12-.4.22-.74-.17.05-.47.04-.58.18-.45.55-.95.78-1.69.74-1.48-.07-2.97-.03-4.45,0-.22,0-.42.2-.64.3-.15.06-.3.14-.46.15-.4.02-.8-.03-1.2.02-.23.03-.45.18-.67.28-.12.05-.23.15-.34.15-.29.01-.51.04-.68.37-.16.3-.86.1-1.15-.31-.05.06-.13.11-.13.16.04.55-.22.67-.74.87-.58.23-1.31.44-1.69,1.07-.07.11-.23.24-.34.24-.55-.03-.79.42-1.11.71-.27.24-.81.36-1.02.06-.38-.53-.81-.24-1.23-.24-.05.08-.11.15-.16.23.11.03.25.04.31.11.1.11.24.32.2.39-.34.54-.68,1.08-1.09,1.56-.53.61-1.14,1.15-1.71,1.72-.37.37-.69.83-1.13,1.1-.36.22-.86.26-1.08-.42-.24.39-.29.62.05.84.3.19.26.35,0,.61-.31.3-.67.57-.74,1.11-.04.28-.4.54-.65.78-.05.04-.32-.03-.34-.09-.14-.45-.51-.28-.81-.34-.3-.06-.59-.16-.96-.27-.02.31-.26.72.23,1.11.27.21.49.53.62.85.22.55-.41.73-.59,1.11-.09.19-.26.35-.3.54-.1.46-.63.96-1.09.89-.23-.03-.45-.22-.77-.4-.01.18-.08.41-.03.6.02.09.27.13.41.19.14.06.29.13.43.19-.09.14-.18.28-.26.43-.2.37-.69.53-.67,1.09,0,.23-.37.46-.55.71-.13.18-.23.38-.33.57-.08.14-.13.29-.2.44-.09.17-.19.34-.27.51-.06.13-.08.37-.16.39-.38.1-.37.37-.38.66,0,.11-.11.22-.18.31-.04.05-.18.08-.18.11,0,.48-.34.82-.51,1.22-.24.57-.48,1.12-.86,1.61-.05.07-.1.18-.09.26.09.59-.46.76-.72,1.12-.12.16-.26.34-.29.52-.1.54.24,1.19-.43,1.58.07.66-.78,1.07-.51,1.79.02.05,0,.15-.02.16-.61.32-.3.93-.47,1.39-.17.45-.5.84-.76,1.26-.06.11-.12.24-.13.36-.04.44.12.93-.47,1.16-.06.03-.06.24-.07.37-.03.38.13.81-.38,1.02-.07.03-.07.24-.07.37-.03.4.08.8-.37,1.11-.16.11-.09.57-.09.87-.01.84,0,.84-.83.86-.61.01-.7.16-.44.77.04,0,.09,0,.1-.02.13-.2.31-.54.53-.27.16.18.1.59.05.88-.02.15-.24.26-.37.39-.12.11-.25.21-.37.32.58.55.57.84-.03,1.46-.31.33-.61.67-.95,1.04.14.02.33.03.51.09.13.04.29.13.33.24.03.09-.12.22-.19.34-.09.16-.24.31-.27.48-.1.56.2,1.17-.41,1.66-.18.15-.04.69-.06,1.05-.03.44.18.96-.39,1.26-.08.04-.05.28-.07.43-.11.69.28,1.45-.41,2.07-.19.17-.03.69-.06,1.05-.03.41.15.85-.36,1.16-.14.09-.05.54-.1.81-.03.17-.13.33-.2.49-.15-.08-.28-.2-.44-.25-.23-.07-.65-.17-.69-.1-.34.61-.62.37-.88-.03-.05.02-.08.03-.09.04-.35.5.3.64.35.98.06.39,0,.76.6.73.17,0,.36.24.62.44.04-.21.05-.42.13-.6.06-.14.21-.25.32-.37.09.12.28.25.27.35-.04.27-.18.53-.27.79-.06.17-.16.34-.17.51-.02.63,0,1.26-.01,1.88,0,.37.09.77-.4.96-.1.04-.12.34-.13.51-.01,1.16,0,2.32,0,3.48,0,.27.06.56-.31.71-.1.04-.13.33-.14.51-.01,1.35-.01,2.7,0,4.05,0,.4-.07.62-.55.64-.6.03-.37.44-.28.87.13-.16.17-.27.26-.32.12-.07.26-.15.38-.14.07,0,.17.19.18.3.02.44,0,.88,0,1.31,0,.06,0,.14-.03.16-.84.64-.25,1.55-.43,2.31-.07.31-.17.61-.25.9.08.3.23.62.24.95.03,1.56.01,3.12.01,4.68q0,.82-.79.84c-.63.01-.7.11-.48.82.09-.09.14-.2.22-.23.25-.08.52-.18.77-.17.1,0,.2.29.28.46.04.08,0,.24.05.27.66.37.39,1,.41,1.52.04.87.02,1.75,0,2.63,0,.38.14.8-.36,1.04-.08.04-.09.52-.02.55.55.26.35.74.38,1.14.03.37-.15.81.37,1.02.07.03.08.28.08.43,0,.95.02,1.9,0,2.85,0,.19-.18.37-.26.56-.07.16-.18.34-.15.49.02.1.23.26.36.25.55-.01.62.3.61.74-.02.63,0,1.26,0,1.88,0,.33-.09.69.35.87.09.04.11.3.12.47.01.74-.01,1.49.02,2.23,0,.19.17.37.25.56.07.16.17.33.18.5.03.42-.02.84.02,1.25.03.22.2.43.3.64.06.15.14.3.15.46.02.42-.02.84.02,1.25.02.21.19.41.28.61.06.15.16.3.16.45.02.42-.03.84.02,1.25.03.25.24.47.29.71.08.41.13.84.11,1.26,0,.1-.35.18-.52.28-.12.07-.3.14-.32.24-.03.14,0,.35.09.47.13.18.34.32.54.5.06-.08.11-.18.19-.23.11-.08.25-.17.37-.16.08,0,.19.18.21.29.04.2,0,.42.03.63.01.15.02.37.11.42.63.33.32.59.03.77.13.31.22.57.34.82.08.16.27.28.3.44.06.29.03.6.05.9-.32-.04-.68-.01-.95-.14-.24-.11-.37-.44-.6-.61-.13-.09-.37-.08-.54-.03-.09.03-.17.23-.18.36-.03.34.02.69-.03,1.03-.02.16-.2.3-.3.44-.1-.13-.21-.26-.3-.4-.13-.2-.26-.41-.34-.63-.08-.22-.09-.47-.12-.71-.05-.42.16-.9-.37-1.22-.12-.07-.06-.49-.04-.75,0-.06.18-.16.26-.14.11.02.23.12.28.22.19.37.35.75.57,1.22.4-.74.32-1.21-.33-1.77-.28-.24-.49-.7-1.02-.58-.06.01-.24-.22-.26-.35-.04-.34.01-.69-.03-1.02-.03-.19-.17-.37-.27-.55,0-.01-.04-.01-.05-.03-.27-.26-.14-2.18.15-2.44.21-.19.4-.41.58-.6-.23-.17-.47-.34-.71-.52.03-.05.06-.11.09-.16-.06.08-.11.18-.19.24-.11.08-.25.17-.36.16-.08,0-.18-.17-.21-.29-.18-.7-.4-1.39-.48-2.1-.08-.75,0-1.52-.03-2.28,0-.19-.18-.37-.25-.56-.08-.22-.15-.45-.18-.68-.07-.46.19-1.01-.41-1.3,0-1.06-.02-2.12,0-3.18,0-.1.24-.19.47-.37-.22-.07-.34-.16-.46-.15-.5.05-.56-.22-.55-.62.01-1.16.02-2.32,0-3.48,0-.22-.19-.44-.27-.67-.07-.18-.16-.38-.16-.57-.01-1.35-.02-2.7,0-4.05,0-.22.11-.45.17-.67.19.12.37.23.53.33.13-.22.26-.46.4-.7l.23.18c-.27-.12-.55-.25-.82-.37.06-.08.12-.17.18-.25-.06.08-.11.19-.19.24-.1.07-.23.13-.33.11-.07,0-.16-.16-.16-.25-.02-.48-.02-.95,0-1.43,0-.1.16-.19.21-.3.08-.17.21-.37.19-.53-.01-.11-.26-.25-.41-.26-.43-.01-.55-.23-.55-.62,0-1.24-.02-2.47.02-3.71,0-.26.22-.52.36-.81-.45-.11-.38-.56-.38-.99,0-1.43,0-2.86,0-4.28,0-.3-.04-.6.36-.75.11-.04.17-.35.17-.54.01-2.09,0-4.19,0-6.28,0-.32-.06-.64.33-.83.09-.05.11-.3.12-.46.04-.36-.11-.76.37-.98.07-.03,0-.47-.06-.7-.06-.22-.27-.41-.29-.63-.05-.41-.05-.84,0-1.25.03-.22.2-.43.29-.65.07-.17.15-.34.15-.51.02-.74,0-1.48.01-2.23,0-.43-.16-.92.38-1.21.08-.04.08-.28.08-.43,0-.53.02-1.07,0-1.6-.02-.45.08-.75.61-.72.08,0,.16-.05.12-.04-.1-.41-.22-.75-.26-1.1-.04-.38-.01-.76,0-1.14,0-.13-.01-.34.06-.38.6-.35.34-.94.43-1.43.04-.22.22-.41.33-.62.07-.14.17-.29.18-.43.02-.49,0-.99.01-1.48.01-.37-.11-.76.35-1.04.16-.1.07-.6.1-.92.03-.36-.12-.75.36-.99.11-.05.08-.42.1-.64.05-.46-.17-.97.38-1.33.15-.1.07-.53.09-.82.02-.36-.11-.77.36-.98.07-.03.07-.24.09-.37.03-.13,0-.34.07-.38.6-.33.36-.89.4-1.38.02-.28-.03-.57.36-.68.09-.03.15-.28.17-.43.09-.56-.24-1.22.42-1.64.07-.04.03-.25.04-.38.03-.33-.13-.74.36-.9.05-.02.1-.17.09-.25-.22-1.15.78-1.55,1.3-2.17-.13-.3-.28-.58-.35-.87-.03-.13.11-.3.18-.44.09-.17.19-.34.28-.51.09-.15.17-.3.26-.44.13.11.26.21.39.32.04.03.09.06.25.17-.03-.73.31-1.11,1.14-1.04-.37-.35-.59-.58-.84-.79-.27-.23-.29-.79-.04-1.04.12-.12.25-.28.28-.43.06-.41-.02-.77.39-1.14.34-.3.34-.96.57-1.42.23-.46.55-.87.84-1.31.04-.06.13-.12.13-.17-.02-.4.21-.65.4-.98.18-.3.43-.68.47-.96.09-.61.53-.88.84-1.28.07-.08.1-.19.15-.29.11-.22.23-.43.33-.65.06-.13.09-.28.15-.41.09-.17.2-.32.31-.48,0-.01.04,0,.05-.02.4-.2-.14-.98.65-.99.76,0,.27-.68.45-1,.17-.3.44-.56.67-.83.08-.1.23-.2.22-.29-.07-.63.46-.83.8-1.18.3-.31.72-.53.73-1.1,0-.23.31-.46.5-.67.22-.24.47-.44.7-.67.07-.07.12-.19.14-.29.16-.73.56-1.13,1.29-1.05.59.06.7-.47,1.22-.65-.22-.13-.39-.17-.44-.28-.06-.13-.1-.37-.02-.44.55-.53,1.14-1.02,1.7-1.56.38-.37.72-.78,1.07-1.19.13-.16,1.46-.71,1.67-.66.06.01.12.02.16.04q.75.4,1.44-.28c-.15-.04-.27-.1-.38-.09-.4.02-.53-.17-.53-.55,0-.39.15-.5.52-.56.29-.05.56-.3.79-.52.51-.5.49-.52.9.09.07-.09.17-.16.18-.25.16-.94.44-1.13,1.34-1.25.35-.05.65-.4.98-.61.16-.1.33-.19.5-.28.18-.1.34-.22.53-.29.22-.08.45-.14.68-.17.28-.04.58.08.74-.34.11-.28.39-.26.56.05.05.09.1.19.16.31.25-.29.45-.57.71-.78.12-.1.41-.13.53-.05.31.2,1.36.41,1.65.22.11-.07.19-.28.19-.42,0-.36.18-.46.5-.46,2.55,0,5.1,0,7.65,0,.13,0,.34,0,.37.08.26.57.77.36,1.19.39.35.03.72-.07.95.34.06.1.34.09.53.11.32.03.69-.09.83.4.03.09.36.11.56.14.34.04.74-.12.92.36.02.06.21.06.3.11.2.1.39.21.58.31.03.02.05.07.08.08.48.18,1.03.27,1.44.56.59.41,1.31.56,1.82,1.19.32.4.93.51,1.22,1.12.16.33.95.31,1.37.57.44.27.8.69,1.18,1.06.42.42.85.83,1.21,1.29.26.32.76.5.69,1.06-.01.09.17.3.25.29.86-.07.97.88,1.58,1.15.02.01-.06.31-.12.46-.09.22-.21.44-.31.65.06.03.11.06.17.09.18-.13.35-.32.55-.38.38-.12,1.19.34,1.21.74.05.83.81,1.08,1.2,1.62.26.37.73.55.76,1.14.02.28.39.6.67.79.49.34.22.79.25,1.19.03.38-.33.29-.57.39-.3.12-.55.36-.64.55.08.36.21.72.23,1.09.05.6.15.68.65.49-.09-.37-.2-.71-.26-1.06-.08-.47.01-.84.63-.8.08,0,.17-.07.25-.12.16-.1.31-.2.47-.3.07.16.12.33.2.49.07.14.16.28.24.41.07.11.21.21.2.31-.02.38.17.58.42.83.25.25.52.52.58,1,.05.45.51.85.79,1.27.05.08.14.16.14.23-.05.59.44.8.74,1.15.1.12.13.29.21.43.09.17.18.34.27.51.07.13.13.25.19.38.11.21.21.42.33.63.02.03.07.05.07.08-.01.64.15,1.21.58,1.7.15.18.25.41.36.62.06.11.08.25.13.36.09.19.2.36.3.55.06.11.1.23.16.35.1.2.2.4.31.6.03.06.14.13.13.17-.21.72.43,1.2.51,1.84,0,.09.05.23.11.25.46.16.32.54.34.87.02.29-.08.62.36.72.09.02.15.32.16.5.04.35-.09.74.36.94.02,0-.08.47-.16.48-.29.04-.65.19-.83-.24-.04-.09-.2-.13-.32-.18-.27-.1-.55-.2-.79-.28-.07.16-.18.4-.29.65-.11-.04-.23-.08-.34-.12.37.18.78.31,1.1.56.3.24.52.59.74.92.08.12.06.31.08.46.08,0,.15,0,.23.01.03-.26.09-.52.08-.78,0-.4.05-.66.55-.66.49,0,.56.26.55.66-.01.35-.09.74.37.91.06.02.08.2.09.31.03.42-.07.82.39,1.16.18.13.06.68.08,1.04.01.29-.06.59.31.78.12.06.11.4.15.62.08.48-.26,1.08.45,1.37.06.02.07.21.08.32.03.4-.04.78.38,1.12.19.15.08.68.1,1.04.02.29-.04.57.3.79.15.09.12.48.15.73.07.43-.18.92.38,1.26.17.1.07.64.09.98.01.32.1.55.3.84.22.33.09.89.1,1.35,0,.03-.22.11-.29.08-.1-.05-.18-.17-.23-.28-.1-.2-.15-.59-.26-.61-.46-.06-.94-.03-1.41.02-.06,0-.13.33-.11.5.01.1.17.23.29.26.16.05.34.03.51.01.4-.03.67.07.65.55-.02.36.24.38.5.38,1.02-.03.87.09.88.93,0,.97,0,.97-.45,1.34.84.42,1.12,1.11.99,1.99-.04.28,0,.57,0,.86,0,.11-.03.28.03.33.81.76.32,1.74.44,2.62.06.39-.14.85.37,1.11.03.02-.02.36-.12.45-.36.31-.33.57-.02.89.13.13.19.34.23.53.05.25.04.51.05.76l.18.02c.03-.18.09-.36.09-.54,0-1.01-.01-2.02.02-3.03,0-.21.21-.42.32-.63.07-.14.18-.28.19-.43.02-.51,0-1.03.01-1.54,0-.36-.14-.79.37-.95.02,0,.04-.03.04-.04-.05-.65.26-.99,1.04-.95-.17-.15-.21-.2-.26-.22-.24-.1-.68-.19-.68-.3-.01-.45-.31-.99.27-1.33.09-.06.11-.27.12-.41.02-.28.05-.58,0-.85-.13-.7.21-1.15.73-1.54.34-.26.32-.56,0-.84-.31-.27-.32-.75-.09-1.04.15-.18.27-.43.3-.66.05-.37-.02-.76.03-1.14.03-.22.2-.42.26-.64.09-.34.13-.68.18-1.03.05-.33-.12-.74.4-.89.09-.03.11-.36.13-.56.04-.34-.07-.69.35-.94.16-.09.11-.56.11-.86.01-.49-.12-1.02.68-1.01.29,0,.36-.51.07-.71-.38-.27-.41-.44.02-.69.23-.13.47-.35.56-.58.07-.18-.02-.53-.17-.67-.27-.25-.3-.41,0-.62.06-.04.15-.09.17-.14.18-.68.34-1.36.53-2.03.07-.24.22-.47.34-.69.03-.06.1-.11.15-.16l.89-.9c-.54-.55-.53-.68-.02-1.43.2-.29.04-.68.47-.96.54-.35.48-.45.96.21-.09-.89.41-1.1,1.19-1.08-.55-.5-.97-.85-1.35-1.25-.11-.11-.12-.38-.08-.55.05-.21.2-.4.31-.6.06-.11.09-.31.17-.33.36-.08.34-.33.37-.61.01-.15.13-.28.21-.42.08-.16.16-.31.25-.46.09-.17.19-.33.28-.5.07-.13.11-.26.18-.39.09-.18.19-.36.3-.54.03-.05.1-.07.12-.12.18-.48.3-1.01.55-1.45.34-.59.56-1.27,1.12-1.72.16-.13.32-.4.29-.57-.11-.65.32-.98.68-1.36.09-.09.23-.18.24-.28.09-.72.45-1.13,1.19-1.22.11-.01.24-.2.29-.34.05-.13.04-.31.01-.45-.13-.69.22-1.14.74-1.52.07-.05.17-.14.16-.21-.08-.9.82-1.11,1.18-1.7.05-.07.18-.12.19-.19.2-1.06,1.24-1.45,1.77-2.24.34-.5.79-.37,1.23-.47.32-.07.59-.36.89-.55,0-.06,0-.11,0-.17-.21-.03-.42-.05-.62-.11-.11-.03-.29-.11-.3-.18,0-.12.06-.28.15-.37.56-.57,1.13-1.13,1.71-1.67.34-.31.56-.81,1.16-.71.08.01.18-.1.27-.16.02-.02,0-.09.03-.1.33-.2.64-.42.99-.58.39-.18.77-.26,1.1.2.08.11.49.07.7-.01.18-.07.3-.3.5-.53-.15-.04-.29-.11-.41-.09-.54.08-.63-.47-.96-.67.08-.14.19-.4.24-.39.54.14.77-.34,1.05-.58.7-.59.86-.63,1.31-.02.21-.37.41-.77.67-1.13.17-.25.39-.52.65-.62.17-.07.45.15.72.25-.02.02.05-.02.04-.06-.08-.69.31-.77.87-.75.2,0,.4-.18.6-.29.1-.05.19-.14.29-.15.33-.01.58-.03.76-.41.16-.34.83-.11,1.14.38.13-.17.22-.35.37-.48.3-.27.5-.76,1.04-.13.21.24.94.05,1.42.03.06,0,.17-.21.17-.32,0-.48.26-.55.66-.55,2.32.01,4.64,0,6.97.02.22,0,.44.2.66.29.15.06.3.15.46.16.42.02.84-.02,1.25.02.22.02.43.17.64.26.15.06.3.16.45.18.39.05.87-.13,1.02.45,0,.02.03.03.04.04.48.17.98.32,1.44.53.46.21.88.49,1.32.75.05.03.07.1.12.11.48.18,1.01.29,1.45.55.58.35,1.27.54,1.72,1.13.29.37.6.75,1.17.79.24.02.48.31.67.52.37.4.71.83,1.06,1.24.05.05.12.12.18.12,1.07,0,1.34,1.09,2.09,1.54.07.04.08.21.07.32-.02.34.13.46.47.49.48.03.98.6.99,1.08.01.41,0,.81.07,1.27.43-.57.74-.5,1.05.01.22.36.86.43.7,1.05-.93.12-.96.14-.85.94.02.15.23.35.39.39.3.08.44-.1.43-.42,0-.3.03-.6.04-.9ZM49.13,108.75c-.71-.18-1,.7-1.66.66-.04,0-.11.21-.15.33-.2.63.39.89.54,1.21.33-.13.62-.26.92-.36.12-.04.27.02.39-.02.13-.04.32-.11.35-.2.05-.14.03-.43-.06-.47-.55-.27-.34-.72-.31-1.14.45-.02.91-.05,1.36-.04.37,0,.46-.19.43-.5-.03-.31-.62-.84-.92-.8-.12.01-.26.06-.34.14-.34.32-.6.68-.54,1.19Zm20.81,9.3q-.83-.67-1.69-.69c-.13,0-.31.03-.39-.03-.1-.08-.2-.32-.15-.38.18-.24.45-.42.62-.67.39-.55,1.29-.73,1.23-1.63,0-.06.1-.16.17-.19.4-.18,1.2.03,1.5.36.23-.2.45-.39.7-.61-.49-.43-1.32.23-1.59-.58-.16.15-.31.39-.42.38-.47-.06-.75.22-1.02.5-.24.25-.61.52-.62.79-.01.55-.43.76-.69,1.09-.21.28-.43,1.41-.23,1.68.05.07.15.12.24.13.67.09,1.06.43,1.11,1.14,0,.13.19.23.27.36.06.1.13.22.12.33,0,.07-.15.14-.25.17-.2.05-.4.07-.69.12.64.49,1.16.34,1.79-.41-.6-.42-.61-1.34-.02-1.86Zm82.24-4.46c-.19.17-.33.4-.5.44-.92.18-1.32.84-1.61,1.63-.05.13-.15.25-.27.33-.6.43-.81.98-.72,1.71.04.34.11.51.49.52.45.01.92.52,1,.95.04.19.19.36.29.54.05.09.15.22.13.28-.04.1-.17.18-.28.22-.19.06-.39.08-.7.14.7.44,1.11.32,1.83-.42-.71-.48-.72-1.33-.07-1.84-.36-.82-1.08-.76-1.8-.73-.09,0-.24.02-.27-.03-.08-.12-.17-.33-.12-.4.18-.24.46-.41.63-.65.38-.54,1.17-.78,1.18-1.6,0-.08.18-.23.27-.23.51.02,1.12-.27,1.34.21.21-.14.44-.3.71-.49-.47-.33-1.27.22-1.52-.58Zm-97.6,16.03c.07-.01.14-.03.21-.04-.03-.24.02-.64-.09-.68-.28-.12-.63-.12-.93-.08-.11.02-.25.3-.26.46-.02.36-.16.53-.52.51-.51-.02-1.08-.11-.98.72,0,.03-.02.08-.04.1-.6.41-.96,1.26-1.92,1.05-.1-.02-.34.22-.39.38-.09.3.09.45.41.45.49-.01.99.01,1.48-.01.14,0,.28-.14.41-.22.49-.3.47-.77.48-1.26,0-.14.2-.37.34-.4.61-.13.97-.46,1.05-1.1.01-.11.13-.28.21-.29.12-.01.26.08.37.15.08.06.12.16.18.25Zm81.85-.03c.05,0,.1-.02.15-.03-.02-.22.04-.59-.06-.64-.25-.12-.58-.14-.87-.1-.12.02-.19.29-.3.45-.12.18-.24.48-.38.5-.55.06-1.21-.12-1.12.8-.61.37-.9,1.28-1.85,1.08-.3-.06-.51.04-.5.42,0,.39.22.43.52.42.27,0,.53,0,.8,0,1.04,0,1.32-.29,1.41-1.34.02-.2.19-.52.33-.54.68-.11,1.06-.44,1.13-1.14.01-.1.13-.24.23-.27.1-.02.24.06.34.13.08.06.12.16.18.25Zm-64.54,18.61c0-.06.02-.11.02-.17-.27-.23-.55-.45-.82-.69-.25-.23-.21-.54.1-.52.49.02.73-.29,1.02-.54.24-.2.46-.45.62-.72.16-.28.22-.61.32-.92-.27-.12-.62-.29-1.03-.47-.5.32-.68.85-.58,1.51.02.11.04.25,0,.34-.11.16-.26.41-.4.41-.51,0-.92.12-1.29.5-.29.29-.34.98,0,1.28.43-.66.71-.66,1.3-.1.15.14.49.07.75.1Zm79.82.04c.41-.7.73-.71,1.29-.16.13.13.44.08.67.12.01-.06.03-.12.04-.18-.25-.23-.52-.45-.75-.69-.08-.08-.13-.23-.11-.34.01-.08.17-.2.24-.19.52.11.69-.37,1.02-.58.24-.15.47-.36.6-.6.16-.31.22-.67.31-1-.29-.11-.66-.26-1.04-.41-.67.28-.56.93-.55,1.54,0,.06,0,.11,0,.17.02.35-.13.54-.49.52-.45-.02-.84,0-1.17.44-.27.36-.38.9-.04,1.35Zm-105.19-30.89c.19-.58.61-.51,1.02-.54.57-.04.75.2.7.73-.03.26-.03.54.02.8.02.12.19.29.31.31.16.02.41-.05.47-.16.07-.13.02-.47-.07-.5-.52-.2-.41-.63-.41-1.01,0-.34-.09-.56-.48-.53-.31.02-.47-.13-.45-.44.03-.43-.23-.51-.58-.49-.21.01-.42.04-.63,0-.53-.1-.76.36-.96.63-.18.24-.04.71-.04,1.22.57-.68.66-.67,1.1-.01Zm81.84-.08c.26-.64.8-.4,1.26-.44.35-.03.48.16.48.48,0,.32-.02.65.02.97.02.14.14.33.26.36.13.04.39-.02.44-.11.07-.14.06-.47-.02-.51-.46-.25-.37-.66-.37-1.05,0-.34-.09-.55-.48-.52-.31.02-.47-.12-.45-.43.04-.43-.21-.51-.57-.49-.21.01-.43.04-.63,0-.53-.11-.77.36-.97.63-.18.24-.04.71-.04,1.22.54-.67.65-.67,1.06-.09Zm-70.95,38.91c.49.4.49,1.21-.09,1.93.32.06.62.23.83-.2.05-.1.25-.19.37-.18.44.03.9-.17,1.27.35.18.26.68.28,1.06.42.21-.35.19-1.28.01-1.48-.4.12-.71.25-1.03.29-.41.05-.84.03-1.25,0-.15,0-.29-.11-.43-.17.1-.13.2-.26.3-.39.04-.06.08-.12.12-.17-.59-.45-.59-.51-.23-.81-.14-.23-.29-.47-.45-.72-.15.35-.3.69-.48,1.12Zm21.49-22.09c-.05,0-.11.01-.16.02,0,.48-.01.96,0,1.44,0,.08.14.23.21.22.8-.06.7.49.69.99,0,.29.03.52.42.52.37,0,.45-.18.44-.5-.02-.51.42-.7.73-.94.32-.25.73-.36,1.11-.54-.36-.31-.59-.33-.81,0-.17.27-.39.27-.57-.03-.05-.08-.13-.15-.22-.24-.22.23-.32.73-.73.31-.39-.4-.75-.83-1.12-1.25Zm-34.4-3.71c.31.33.56.66.88.92.17.14.44.18.67.2.04,0,.21-.35.15-.46-.07-.15-.3-.32-.46-.32-.46,0-.58-.25-.51-.62.05-.24.22-.46.35-.71-.74-.38-.69-1.62-1.74-1.76,0,0,0-.05-.02-.05-.22-.06-.44-.16-.65-.14-.07,0-.21.35-.16.46.12.26.33.66.53.68.64.06.74.52,1.06.92.4.5.26.62-.11.86Zm81.87-.05c.3.34.57.71.9,1.01.14.13.39.18.58.16.08,0,.21-.33.16-.46-.05-.14-.27-.31-.41-.31-.42-.01-.56-.23-.48-.58.05-.24.21-.46.33-.72-.13-.17-.26-.52-.48-.6-.51-.18-.14-.7-.43-.89-.27-.18-.61-.28-.92-.39-.18-.06-.4-.16-.56-.1-.1.03-.21.35-.16.47.11.25.3.61.51.65.6.11.94.37.96,1,.79.32.36.58.01.77Zm36.23,4.77c-.39.5-.38.49-.83.03-.36-.36-.73-.71-1.24-1.2,0,.55.01.97,0,1.39-.01.33.11.51.46.48.45-.04.56.22.54.6,0,.13-.04.29.01.39.08.17.2.4.35.45.31.1.41-.12.44-.42.05-.53.51-.95,1.04-1.04.14-.02.34-.12.38-.23.04-.15-.05-.33-.11-.6-.5.66-.54.66-1.02.14Zm-23.38,22.92c0,.05.02.1.03.15.2-.03.46,0,.6-.11.62-.48,1.19-.5,1.74,0,.07.06.16.09.25.12.27.1.55.19.86.3v-1.41c-.35.1-.63.23-.92.25-.45.04-.91.02-1.37,0-.15,0-.29-.12-.43-.18.11-.12.21-.25.32-.36.05-.05.13-.06.21-.1q-.72-.64-.11-1.04c-.22-.18-.44-.36-.65-.54-.14.34-.29.69-.45,1.06.49.29.49,1.51-.09,1.87Zm-77.43-25.36c.11.42.2.75.27,1.09.05.2.01.45.12.59.25.33.54.64.88.88.16.11.49.11.67.02.22-.11.35-.38.53-.59-.04-.05-.08-.13-.11-.12-.86.09-.82-.47-.78-1.05.01-.17.02-.35-.01-.51-.02-.11-.13-.29-.2-.29-.5-.03-.99-.01-1.37-.01Zm81.81.02c.13.4.23.73.33,1.07.06.21.05.46.17.62.23.3.5.58.8.81.14.11.42.18.55.1.27-.15.47-.41.71-.63-.07-.06-.11-.12-.15-.13q-.83-.19-.84-1.06c0-.15.02-.31-.02-.45-.03-.12-.11-.31-.18-.31-.51-.03-1.02-.01-1.39-.01Zm-7.73-1.9c0,.07,0,.15,0,.22.27.06.61.04.81.2.38.31.67.73,1.03,1.08.13.12.35.18.53.19.09,0,.27-.17.27-.27,0-.18-.09-.37-.17-.55-.07-.17-.23-.32-.25-.5-.04-.3.03-.61-.03-.91-.03-.17-.2-.38-.36-.43-.26-.09-.5.03-.47.38.04.45-.21.54-.6.53-.25,0-.51.04-.77.06Zm-81.87-.01c0,.08,0,.16-.01.24.28.06.61.03.81.18.4.31.7.75,1.1,1.07.16.13.45.09.68.13-.02-.24-.01-.49-.08-.72-.06-.23-.24-.43-.29-.66-.05-.25.03-.54-.03-.79-.04-.16-.22-.36-.38-.41-.28-.08-.48.06-.45.39.04.41-.17.53-.55.51-.27,0-.54.03-.8.05Zm75.84-19.65c.08-.62.51-.51.89-.55.21-.03.6-.22.59-.24-.16-.5-.36-1-.56-1.49,0-.02-.08-.04-.1-.03-.5.24-1,.48-1.49.73-.05.02,0,.19-.03.27-.22.65.5.79.71,1.31Zm-87.32,34.06c.04.07.08.14.12.21.25-.06.62-.05.72-.21.36-.55.75-.93,1.47-.83.12.02.34-.12.38-.23.05-.13,0-.34-.09-.47-.14-.2-.33-.37-.57-.62-.07.66-.54.54-.95.55-.23,0-.46-.01-.68.01-.35.04-.55.48-.28.65.63.39.33.64-.11.93Zm83.96-2.09c-.13.6-.59.49-.98.5-.19,0-.39-.03-.57.01-.17.03-.45.13-.46.21,0,.19.07.43.2.56.25.25.29.43-.03.62-.09.05-.21.07-.32.1.05.09.11.19.16.28.23-.04.58-.01.66-.14.38-.61.83-.97,1.59-.87.11.01.31-.1.34-.2.04-.14.02-.35-.06-.48-.15-.22-.36-.39-.54-.59Zm-3.46-1.27c.45-.12.8-.2,1.13-.31.2-.07.44-.15.55-.31.17-.24.26-.56.33-.72-.31-.36-.64-.73-.91-1.04-.26.39-.47.91-.85,1.22-.53.43-.25.84-.25,1.17Zm-79.73-1.5c-.29-.26-.68-.61-.97-.88-.31.41-.59.88-.96,1.26-.31.32-.39.87-.17,1.11.43-.11.77-.23,1.12-.29.26-.04.51,0,.58-.38.04-.25.23-.47.41-.82Zm95.94-21.76c.09.04.18.1.28.11.43.04.91-.12,1.19.41.04.07.48.02.64-.1.35-.25.63-.59.94-.88-.16-.19-.31-.33-.42-.49-.17-.23-1.08-.39-1.22-.16-.33.56-.73.98-1.42,1.11Zm-78.94-.68l.19.19c-.16-.15-.33-.28-.47-.44-.2-.24-.99-.4-1.17-.17-.39.51-.79.98-1.51,1.06.13.1.24.15.35.16.44.03.91-.12,1.21.4.04.06.47.02.58-.1.31-.33.55-.73.82-1.09Zm98.68,20.49c-.3.2-.5.43-.68.42-.61-.03-.63.31-.62.75.02.62-.44,1.1-1.06,1.21-.09.02-.17.09-.28.14.41.19.77.35,1.17.53.02-.04.09-.14.09-.23-.03-.42.1-.65.57-.61.37.03.35-.26.36-.51.01-.38-.11-.8.37-1.05.1-.05.05-.38.08-.66Zm-86.78-32.92c-.08.14-.11.26-.18.28-.22.09-.46.18-.7.19-.12,0-.28-.15-.35-.27-.21-.35-.38-.72-.56-1.08-.32.27-.6.41-.74.64-.18.29-.24.66-.38,1.04.22.08.5.24.75-.19.06-.1.43-.16.45-.13.33.66.93.35,1.42.38.54.03.65-.27.28-.87Zm57.02,18.59q.75-.88.76-1.78s0-.04,0-.06c-.04-.42.06-.7.57-.69.12,0,.31-.16.34-.28.03-.13-.06-.38-.16-.42-.15-.06-.43-.04-.51.06-.23.29-.38.64-.57.97-.06.1-.15.26-.23.26-.12,0-.24-.11-.35-.19-.08-.06-.13-.15-.2-.22l-.17.03c.03.25-.01.67.1.72.42.18.32.5.34.81.02.21.04.42.08.77Zm-90.28,9.95c-.35.78-.69.54-.99.04-.17.45-.33.85-.48,1.24.46.1.99.21,1.5.32.47-.29,1.01-.62,1.57-.97-.49-.35-1.29.27-1.6-.63Zm81.75,1.74c.57-.39,1.08-.74,1.63-1.12-.48-.3-1.29.24-1.52-.53-.22.17-.38.39-.54.39-.17,0-.33-.23-.47-.34-.15.38-.3.77-.46,1.18.4.22,1.12-.26,1.36.42Zm33.37-30.27c-.09.17-.11.3-.17.32-.24.08-.48.15-.73.16-.1,0-.31-.17-.3-.24.08-.58-.45-.74-.72-1.22-.38.63-.71,1.17-1.09,1.79.35.01.65.26.89-.2.05-.09.43-.14.44-.11.29.6.82.36,1.26.38.62.02.7-.14.42-.87Zm-106.65,18.46c.6-.39.81-.88.71-1.5-.01-.07,0-.15,0-.23-.04-.44.11-.68.6-.66.13,0,.34-.12.38-.23.05-.13,0-.41-.1-.45-.17-.07-.49-.11-.58,0-.25.27-.41.61-.61.93-.07.12-.14.33-.22.34-.13,0-.28-.1-.39-.2-.07-.07-.08-.2-.12-.31-.09.05-.18.1-.27.15.04.25.01.68.12.71.51.16.38.54.41.88.02.18.04.35.07.56Zm29.71,14.48c-.32.2-.51.41-.71.42-.44.02-.53.23-.53.61,0,.73-.44,1.21-1.17,1.35-.08.02-.15.07-.26.13.42.19.79.36,1.19.55.02-.04.08-.12.08-.2-.02-.43.1-.68.6-.67.11,0,.3-.28.32-.46.06-.39-.08-.83.4-1.1.1-.05.05-.36.08-.63Zm83.24-26.69c-.26-.12-.63-.39-1.04-.47-.51-.11-1.12.17-1.51-.49-.08.33-.12.62-.1.91.01.14.13.36.22.37.18.03.39-.04.57-.11.17-.07.31-.19.46-.28.07.16.16.32.2.49.08.38.41.57.67.33.2-.19.34-.46.53-.73Zm-104.12,29.66c-.69-.26-.45-.79-.48-1.23-.02-.3.1-.44.42-.46.16,0,.45-.13.45-.2,0-.21-.11-.59-.19-.59-.36,0-.81-.27-1.05.21-.15.29-.23.62-.36.96.47.32.47.34-.09.93.42.12.58.85,1.31.39Zm19.65-30.45c0,.19-.02.48.01.77.01.12.13.32.22.33.16.02.35-.05.51-.12.15-.07.28-.19.42-.28.08.17.19.33.23.51.08.36.48.56.74.33.2-.17.36-.39.53-.59-.4-.61-.98-.71-1.66-.66-.28.02-.57-.15-1.01-.28Zm62.19,30.46c-.6-.23-.43-.72-.46-1.15-.02-.37.09-.55.51-.56.14,0,.36-.23.39-.38.02-.12-.18-.42-.28-.42-.33.01-.74.03-.95.22-.22.2-.25.61-.37.97.63.23.31.56-.16.91.49.12.65.89,1.33.4Zm-92.26,13.49c.63.27.91-.27,1.28-.55.1-.08.09-.36.05-.53-.02-.09-.22-.16-.34-.21-.71-.25-1.09.6-1.75.55-.02,0-.08.16-.09.25-.06.76.53.41.85.49Zm118.23-17.3c.1.21.2.41.3.6-.2.07-.4.13-.58.23-.13.07-.31.16-.34.28-.03.13.05.39.14.42.18.06.5.06.57-.04.2-.31.7-.44.59-.95-.02-.08.06-.22.13-.29.38-.4.46-1.24.09-1.86-.33.59-.63,1.12-.9,1.61Zm-36.3,17.47c.41-.23.84-.43,1.21-.7.1-.07.1-.36.06-.53-.02-.09-.21-.17-.34-.21-.72-.25-1.11.59-1.77.55-.03,0-.08.16-.09.25-.05.71.5.43.92.64Zm-66.65,11.1s.02.08.03.13c.38,0,.95.15,1.09-.03.37-.46.79-.33,1.22-.38.13-.02.35-.1.36-.18.04-.19.03-.44-.06-.59-.13-.2-.36-.33-.49-.44-.73.5-1.44,1-2.16,1.49Zm68.85-62.38c-.06,0-.12-.01-.18-.02-.06.24-.06.64-.2.71-.64.29-.39.83-.42,1.28-.02.2.06.42.09.62.06,0,.12,0,.17-.01.04-.1.07-.2.11-.29.09-.19.19-.38.29-.58.11.21.27.4.3.62.05.37.01.75.01,1.13.09,0,.19,0,.28,0,0-.66,0-1.32,0-1.98,0-.04-.05-.11-.1-.13-.4-.13-.32-.46-.33-.76,0-.2-.02-.39-.03-.59Zm-89.05,18.97c-.29.14-.54.24-.76.38-.16.1-.37.23-.41.39-.08.28.06.47.39.47.15,0,.39.02.42.1.24.55.71.32,1.09.33.1,0,.29-.21.28-.32,0-.14-.17-.4-.26-.4-.53,0-.71-.24-.66-.74,0-.08-.09-.18-.1-.2Zm102.12,43.53c.38,0,.94.15,1.09-.03.33-.41.7-.34,1.1-.38.15-.01.38-.1.4-.2.04-.18.01-.42-.08-.58-.12-.19-.33-.32-.49-.46-.3.29-.6.81-.86.79-.66-.04-.77.54-1.16.85Zm-3.49-5.89c-.18-.07-.28-.1-.38-.14-.19-.08-.55-.16-.55-.23,0-.29.13-.57.21-.85.06-.2.11-.4.17-.6-.28-.06-.56-.15-.84-.15-.14,0-.4.18-.4.26.04.38-.3.9.35,1.1.07.02.11.18.14.29.14.63.61.78,1.3.33Zm-16.78-37.56c-.32.12-.6.18-.84.32-.14.08-.31.28-.31.42,0,.14.19.31.33.4.13.08.43.03.47.12.22.47.63.36.98.33.15-.01.28-.21.42-.32-.13-.15-.25-.41-.38-.42-.48-.01-.64-.23-.62-.67,0-.1-.06-.19-.06-.18Zm6.02-20.74c.06-.07.24-.19.28-.34.08-.3-.1-.39-.39-.47-.49-.13-.96-.37-1.43-.57-.04-.02-.04-.12-.08-.14-.21-.1-.42-.2-.65-.24-.04,0-.22.33-.17.44.06.16.26.27.43.36.14.08.33.07.46.15.42.24.83.51,1.25.76.04.03.11.02.31.04Zm-71.1,58.49c0-.08,0-.16,0-.23-.12-.03-.24-.05-.35-.1-.2-.08-.56-.17-.57-.27-.02-.26.12-.54.2-.8.06-.18.22-.48.17-.52-.16-.13-.4-.23-.62-.24-.19,0-.53.14-.54.23-.02.38-.28.84.26,1.11.08.04.14.18.15.28.03.31,0,.64.47.59.28-.03.55-.04.83-.06Zm20.66-19.74s-.08.08-.08.13c.02.51-.13.81-.73.83-.08,0-.19.64-.19.98,0,.08.47.29.55.22.28-.22.51-.52.7-.82.15-.24.21-.53.31-.8-.06.11-.13.22-.19.32-.11-.26-.23-.53-.38-.86Zm3.82-3.16c.48.34.46.35.09.78-.12.14-.1.42-.15.63.3-.13.51-.25.62-.42.11-.18.11-.43.18-.64.03-.08.1-.15.17-.21.4-.3.47-1.35.05-1.83-.33.57-.63,1.11-.96,1.69Zm-35.23-35.6c.06-.08.26-.24.24-.36-.03-.16-.21-.34-.37-.42-.46-.22-.95-.39-1.42-.59-.05-.02-.06-.15-.12-.18-.18-.09-.37-.21-.56-.21-.07,0-.22.31-.19.44.04.15.23.27.39.36.14.08.32.09.46.16.42.24.83.51,1.25.76.04.03.11.01.31.03Zm113.25,38.81c-.02.11-.03.28-.09.44-.06.14-.18.36-.26.36-.82-.04-.68.54-.63,1,.01.13.33.35.38.32.32-.2.66-.42.88-.72.19-.26.22-.63.32-.95-.08.13-.17.25-.25.38-.1-.25-.21-.5-.34-.83Zm-111.9-33.67c.1,0,.19,0,.29,0,0-.65,0-1.29,0-1.94,0-.05-.04-.13-.08-.14-.44-.16-.34-.53-.36-.86-.01-.17-.04-.35-.06-.52-.22.26-.24.58-.41.78-.35.44-.45,1.28-.1,1.81.04-.13.06-.24.11-.33.1-.19.22-.37.32-.55.1.2.25.38.28.59.04.38.01.77.01,1.15Zm18.58,32.91c.04.86-.38,1.32-.91,1.73-.11.09,0,.45,0,.6.75-.39,1.42-.74,2.05-1.07-.33-.36-.66-.73-1.15-1.27Zm52.88-11.18c.39.4.74.75,1.09,1.11.82-.79.86-.85.1-1.54-.61-.55-.81.32-1.19.43Zm-53.17,32.83c-.78-.6.05-1.68-.48-2.49-.2.43-.37.79-.56,1.19.85.61,0,1.74.56,2.59.18-.47.31-.84.48-1.29Zm65.39-52.99c.29-.17.87.28.89-.44.01-.34-.54-.89-.88-.89-.34,0-.88.56-.87.9.03.68.56.28.86.43Zm15.86,33.64c.73-.36,1.41-.7,2.08-1.03-.33-.36-.68-.75-1.06-1.16-.06.09-.13.16-.13.21.03.42-.13.72-.46,1-.28.25-.76.51-.43.98Zm-87.66-17.4c-.3.16-.87-.27-.9.44-.01.35.54.89.89.88.33,0,.88-.56.87-.89-.02-.69-.56-.29-.86-.43ZM16.93,44.75c.36.19.72.38,1.13.6-.05.04.03,0,.03-.02-.03-.68.4-1.05.87-1.43.12-.1.06-.4.08-.57-.48.19-.9.27-1.23.5-.34.24-.59.61-.88.92Zm21.97,85.28c.81-.92.84-.97.1-1.58-.63-.52-.81.33-1.29.49.43.39.81.74,1.19,1.09Zm33.73-6.29c-.18.31-.43.67-.6,1.06-.06.14.04.48.14.53.17.07.56.02.6-.08.12-.35.37-.36.65-.43.14-.03.29-.26.31-.41.01-.1-.2-.25-.34-.33-.24-.13-.5-.23-.78-.35Zm81.86.01c-.17.28-.41.61-.56.97-.07.17-.01.51.11.6.13.09.58.04.6-.04.12-.38.38-.4.69-.45.12-.02.28-.25.28-.37,0-.12-.17-.28-.31-.36-.25-.14-.53-.23-.82-.34Zm4.98-17.08c-.34-.3-.59-.69-.84-.69-.29,0-.59.33-.86.55-.23.19-.14.89.07,1.09.52-.31,1.03-.6,1.63-.95Zm-17.55,18.31c-.3.12-.82-.23-.85.43-.02.31.53.88.83.89.31,0,.86-.55.86-.87,0-.66-.53-.35-.84-.45Zm-105.49-3.1c.74-.51.98-.54,1.44,0,.35-.34.71-.69,1.18-1.15-.47.05-1.06-.06-1.21.15-.42.6-.61.22-.91-.14-.11.45-.84.53-.5,1.14Zm35.85,1.07c-.16-.41-.23-.68-.37-.92-.08-.14-.34-.36-.38-.33-.32.2-.63.43-.88.71-.07.08.07.51.14.51.52.04,1.04.02,1.49.02Zm47.47-1.01c.4-.37.77-.7,1.13-1.03,0-.05-.02-.11-.03-.16-.37.02-.94-.1-1.09.1-.41.55-.65.35-.94-.06q-.62.83-.43,1.12c.32-.56,1.08-.53,1.35.03Zm-42.17-15.23c-.46-.15-.53-1.13-1.17-.66-.62.45-.7.97-.43,1.57.53-.3,1.07-.6,1.6-.91Zm56.81,2.29q.4.28,1.09-.3c.24-.2.25-1.25.02-1.67-.54.34-.81.79-.72,1.46.02.14-.23.32-.39.52Zm-1.15-12.38c-.28-.25-.56-.48-.82-.73-.45-.43-.47-.45-.89-.16.64.21.36.74.43,1.15.03.14.11.35.22.39.16.05.4.03.53-.06.2-.13.33-.36.53-.58Zm-70.71,62.03c.32-.24.69-.38.72-.57.1-.49.06-1,.03-1.51,0-.05-.25-.14-.38-.14-.13,0-.36.1-.36.17-.03.66-.02,1.32-.02,2.05Zm94.84-36.13c.19-.2.38-.39.56-.58.22-.25.11-1.06-.14-1.16-.49-.19-.61.32-.9.5-.11.07-.12.32-.15.49,0,.06.05.14.1.19.16.18.34.36.53.57Zm-81.87,0c.19-.2.47-.37.53-.59.09-.34.18-.87,0-1.05-.49-.48-.73.23-1.06.43-.1.06-.07.45,0,.64.1.21.32.37.52.57Zm78.58.46c-.16-.42-.24-.71-.38-.96-.08-.14-.37-.34-.41-.3-.29.22-.57.47-.79.76-.06.08.11.47.2.48.47.05.95.02,1.38.02Zm-5.27-16.75c.07.17.21.43.26.7.08.45.42.38.65.29.36-.14.68-.4,1.1-.65-.24-.03-.44-.09-.64-.08-.47.02-.78-.08-.72-.65.01-.11-.09-.23-.13-.35.03.07.06.14.08.2-.21.19-.41.37-.59.53Zm-136.84,1.86c-.28-.22-.51-.41-.74-.59-.03.03-.08.05-.08.08-.02.24-.02.49-.05.73-.03.18-.05.39-.16.52-.34.41-.42,1.19-.05,1.8.03-.46-.05-.88.11-1.13.16-.24.59-.31.89-.45-.61-.47-.61-.52.08-.95Zm57.09,15.27c-.02-.38.09-.76-.44-.73-.32.02-.85.54-.87.85-.03.51.32.44.64.47.51.05.77-.11.67-.59Zm78.29,37.12c.83.6,0,1.67.5,2.48.17-.43.32-.8.48-1.19-.77-.62.01-1.66-.48-2.46-.17.41-.32.75-.5,1.17Zm-95.66-46.03c-.07.21-.12.32-.14.44-.05.44.15.95-.41,1.25-.08.04-.06.53.05.6.16.1.49.1.66,0,.21-.13.32-.41.49-.65-.83-.26-.13-1.09-.66-1.62Zm.75-5.5q.42.34,1.1-.21c.3-.24.34-1.22.04-1.76-.2.32-.48.6-.56.92-.1.41.09.93-.58,1.05Zm-1.03-12.36c-.68-.15-.75-1.3-1.64-1,.14.36.28.64.37.94.04.14,0,.3.02.45.05.31.46.46.69.24.18-.17.33-.37.56-.64Zm41.62,11.03s-.04.09-.05.2c-.03.44-.02.83-.36,1.24-.28.34-.15.96.07,1.44.11-.33.03-.72.18-.97.14-.24.53-.33.8-.49q-.45-.42-.03-.88c-.2-.18-.4-.36-.6-.54Zm-47.88-4.8c-.29.07-.53.13-.77.19-.06-.27-.13-.54-.19-.81-.08,0-.15,0-.23.01-.02.43-.05.86-.04,1.29,0,.4.27.57.64.43.39-.15.68-.77.6-1.11Zm99.24,55.83c.91-.48.81-1.2.75-1.88-.01-.12-.22-.29-.36-.31-.11-.02-.37.13-.37.22-.03.63-.02,1.27-.02,1.98Zm-67.82-49.16c-.23-.22-.44-.53-.73-.64-.28-.1-.64,0-.91.02.16.39.26.67.38.95.05.11.14.27.22.27.19.01.42,0,.57-.11.18-.11.29-.31.46-.5Zm11.3,8.29c.35-.04,1.03,0,1.07-.15.14-.5.05-1.05.05-1.59-.36.21-.62.43-.77.7-.16.28-.21.62-.35,1.04Zm62.43,16.17c-.17-.43-.27-.72-.39-1-.05-.1-.15-.25-.24-.26-.32-.03-.65-.01-.9-.01.13.37.22.66.32.94.04.11.11.3.18.31.36.03.72.01,1.03.01Zm8.15-24.46c-.23-.22-.43-.54-.72-.64-.28-.11-.65,0-.92.02.16.4.26.68.39.96.05.11.14.26.22.27.19,0,.41-.02.57-.11.18-.11.29-.31.46-.49Zm-31.47-6.81c-.08.04-.11.05-.14.07-.15.11-.31.22-.46.32-.07-.16-.15-.31-.21-.47-.05-.14-.08-.28-.12-.42-.09,0-.17.01-.26.02,0,.43.01.87,0,1.3-.02.48.3.49.61.42.44-.1.73-.74.59-1.25Zm-72.03-6.09c-.04.05-.17.18-.26.33-.11.19-.21.39-.26.59-.01.06.18.25.24.23.21-.05.39-.19.6-.25.17-.05.37-.05.54-.02.09.02.15.17.29.34.04-.42.26-.74-.22-.89-.28-.09-.56-.21-.93-.35Zm111.04-47.18c-.05,0-.11.02-.16.03-.02.24-.08.49-.06.73.02.16.12.4.23.43.17.05.39-.04.57-.11.21-.08.41-.19.6-.31.13-.08.3-.18.33-.3.03-.13-.06-.38-.15-.42-.15-.06-.45-.03-.51.07-.36.6-.6.3-.85-.11Zm-120.73,90.98c-.17-.08-.26-.14-.36-.16-.53-.1-1,0-1.25.53-.1.2-.08.46-.12.69.24-.02.54.03.71-.09.35-.25.63-.59,1.01-.97Zm81.82,0c-.61-.3-.93-.24-1.56.4-.13.13-.08.43-.12.65.24,0,.56.07.71-.05.35-.27.63-.63.97-1Zm-58.06-33.68c0-.05,0-.1,0-.16-.36-.02-.78.06-1.06-.1-.25-.15-.35-.56-.53-.88-.07.1-.16.24-.28.34-.11.09-.26.14-.29.15.17.35.3.62.45.88.07.12.16.28.27.3.14.02.31-.06.46-.12.22-.09.44-.21.66-.31.11-.05.22-.07.33-.11Zm92.6,23.34c.07-.02.13-.04.2-.06,0-.28.03-.56-.01-.83-.02-.13-.17-.32-.27-.34-.39-.04-.79-.04-1.19,0-.1,0-.27.18-.27.27,0,.18.07.48.18.51.18.06.41-.04.61-.11.15-.06.28-.18.42-.27.07.16.15.31.22.48.05.12.08.24.12.36Zm-25.06-10.96c-.02-.07-.04-.15-.06-.22-.48,0-.96,0-1.44,0-.08,0-.18.13-.22.22-.13.31-.23.63-.38,1.04.19-.02.54.04.67-.1.4-.43.71-.95,1.43-.94Zm1.27-21.29c.34-.46.29-.76-.08-.86-.31-.08-.61-.2-.92-.31-.1.09-.33.19-.4.36-.09.21-.04.48-.05.72.21-.02.54.04.61-.07.38-.61.59-.26.84.16Zm-58.07,32.33c.46-.93.23-1.32-.65-1.32-.17,0-.35-.03-.51.01-.15.04-.36.14-.4.26-.05.15.01.46.1.5.19.07.44.04.64-.02.18-.06.34-.21.5-.32.07.2.13.41.2.61.02.07.05.13.11.29Zm-37.91-8.69c-.37-.4-.72-.78-1.2-1.31-.02.45-.07.77-.04,1.08.03.27.06.65.24.77.28.19.55-.03.7-.34.05-.09.2-.14.3-.19Zm54.02,5.34c.48-.87.26-1.33-.88-2.17-.24.47-.22.55.18.83.07.05.13.13.17.2.18.38.35.76.53,1.14Zm-53.28,26.77s.07-.08.1-.13c.48.08.74-.07.68-.6-.03-.29.08-.64-.41-.64-.31,0-.96.55-.88.83.06.21.33.36.5.53Zm108.27-30.26s.09-.06.13-.09c-.17-.19-.3-.46-.51-.53-.28-.1-.84.51-.86.84-.02.46.3.42.61.45.49.04.72-.15.63-.66Zm-28.39-3c0,.35-.03.69.01,1.03.03.23.09.56.25.65.26.15.53.01.66-.32.04-.11.23-.16.28-.19-.39-.38-.76-.74-1.2-1.17Zm-53.96,13.52c-.17-.2-.37-.34-.42-.53-.08-.28.02-.64-.46-.61-.27.02-.55.03-.84.05.21.27.43.42.47.61.17.68.53.85,1.25.48Zm-13.76-14.79s-.01-.09-.02-.13c-.51,0-1.02,0-1.53,0-.05,0-.12.09-.15.15-.15.33-.3.67-.46,1.04.23.08.48.19.78-.18.3-.36.57-.9,1.22-.77.04,0,.1-.08.16-.12Zm24.71-11.43c-.56-.24-1.31.23-1.27.76.01.14.14.27.22.4.09.14.22.27.29.42.06.14.07.3.12.59.49-.76-.21-1.67.64-2.15Zm1.47,11.77c-.46-.01-.93-.05-1.39-.02-.13,0-.34.26-.33.38.02.16.2.37.35.42.61.22.96-.24,1.36-.79Zm66.43,23.5c.06-.06.11-.12.17-.17-.36-.01-.76-.13-1.06,0-.16.07-.2.55-.19.84,0,.14.25.37.39.38.14,0,.32-.2.42-.36.13-.21.19-.45.29-.68Zm-9.5-48.18c-.21.12-.44.25-.67.4-.15.1-.33.2-.41.34-.04.08.07.36.13.37.21.03.57.03.62-.07.18-.38.48-.3.77-.32.21-.02.41-.04.72-.08-.47-.26-.83-.45-1.16-.64Zm-81.82.03c-.23.11-.49.23-.74.37-.14.08-.34.17-.39.3-.04.11.06.39.14.42.18.05.52.05.57-.05.22-.43.59-.34.93-.36.16,0,.32-.05.56-.09-.45-.25-.79-.44-1.08-.6Zm-13.5,19.61c.39-.13.71-.21,1-.35.12-.06.29-.23.27-.33-.03-.18-.18-.48-.28-.48-.33,0-.81-.26-.97.24-.09.29-.02.64-.02.9Zm88.52,16.1c.15.12.29.21.4.33.09.11.14.25.27.5.25-.5.52-.84.6-1.22.08-.38-.02-.8-.04-1.2h-.18c-.04.07-.13.15-.13.22.09.71-.03,1.27-.92,1.38Zm2.57-15.84h-.12c-.03.13-.07.27-.08.4-.02.42.1.87-.4,1.15-.08.05.03.43.06.66.21-.05.46-.06.64-.17.17-.11.27-.33.4-.5-.06,0-.12.01-.18.02-.11-.52-.22-1.05-.33-1.57Zm-82.39,34.56c.24-.24.56-.43.67-.72.11-.28,0-.65-.01-.95-.49.23-.87.41-1.13.53.17.41.31.76.47,1.14Zm72.75-31.05c.56.24.7.17.72-.32.01-.43.02-.87,0-1.3-.01-.15-.12-.36-.24-.43-.11-.06-.4.01-.44.1-.07.17-.11.5,0,.58.63.48.46.92-.03,1.37Zm1.19,34.75s.08-.06.13-.09c-.17-.19-.34-.37-.5-.56-.28.28-.69.51-.82.84-.15.38.26.39.55.4.42.02.73-.06.65-.59Zm-83.03-34.73c.54.21.68.14.69-.35.02-.44.03-.88,0-1.31-.01-.15-.14-.35-.27-.41-.11-.05-.4.04-.43.12-.06.18-.08.45.02.59.5.74.51.76-.01,1.36Zm120.7,1.23c-.61,0-1.09-.02-1.56.02-.09,0-.21.29-.2.45,0,.12.16.29.28.33.61.18,1.01-.17,1.48-.8Zm-39.33-10.63c-.06.27-.12.41-.11.54.03.4-.12.61-.55.58-.35-.02-.46.24-.35.48.07.15.39.29.56.26.65-.14.93-1.1.44-1.86Zm-57.94,33.96c-.22-.01-.5-.07-.77-.03-.14.03-.35.24-.35.38,0,.29.11.59.18.88.18-.07.45-.1.54-.23.17-.26.25-.59.4-1Zm58.84-28.27c.33-.19.51-.36.71-.39.29-.05.57-.06.5-.43-.03-.16-.21-.41-.32-.41-.3,0-.74-.23-.88.24-.08.3-.02.65-.02,1Zm8.63,34.77c.79-.85.87-1.13.6-1.61-.38.16-.74.31-1.12.47.15.17.32.29.4.46.08.19.08.42.13.68Zm-63.36-50.11l.11-.15c-.19.16-.42.29-.54.5-.1.15-.1.41-.05.58.03.09.32.21.41.16.3-.16.57-.38.78-.53-.26-.2-.49-.38-.71-.55Zm82.66.41c-.14-.08-.28-.13-.38-.22-.11-.11-.17-.25-.26-.39-.22.2-.46.32-.54.52-.09.21-.03.48-.04.72.23-.02.49.03.68-.06.19-.09.31-.32.53-.57Zm-88.81,26.31s.03.05.09.06c.37.08,1.04-.32,1.1-.68.04-.24.11-.56-.31-.59-.29-.02-.5,0-.54.39-.02.25-.2.48-.35.82Zm81.85-.02s.06.07.12.09c.35.08,1.03-.32,1.09-.68.04-.24.12-.56-.29-.6-.33-.04-.52.04-.55.44-.02.23-.21.45-.37.75Zm-84.75,3.86c.08,0,.17,0,.25,0,.03-.14.06-.27.08-.41.04-.38-.15-.82.39-1.06.09-.04.01-.45.01-.69-.07-.01-.14-.02-.21-.03-.19.33-.46.63-.54.99-.09.38,0,.81.02,1.22Zm11.26-106.12c.17.17.32.45.52.49.51.1.44-.32.43-.63,0-.3.1-.67-.43-.66-.55,0-.37.4-.53.8Zm-6.02,86.13l.15-.04c.21-.35.47-.69.62-1.07.06-.16-.03-.5-.16-.57-.14-.08-.58.04-.58.1-.05.52-.03,1.05-.03,1.57Z"/>
</svg>