<?xml version="1.0" encoding="UTF-8"?>
<svg id="Layer_1" data-name="Layer 1" xmlns="http://www.w3.org/2000/svg" viewBox="0 0 180 180">
  <path d="m122.79,29.43c-.36.11-.65.21-.94.29-.07.02-.19-.01-.24-.06-.48-.49-.94-.99-1.41-1.49-.05-.05-.09-.13-.14-.13-.83-.04-1.12-.78-1.62-1.24-.06-.05-.15-.11-.22-.11-.68-.03-1-.39-1.09-1.05-.01-.11-.31-.28-.45-.26-.66.13-.9-.42-1.31-.71-.39-.27-.43-.66-.47-1.04-.26.16-.46.28-.66.38,0,0-.14-.16-.12-.19.1-.17.23-.32.36-.49-.54-.66-.54-1.22.1-1.85h-1.22c-.15.26.15.79-.43.84.06.11.13.22.19.32.06.09.15.18.16.28,0,.06-.11.19-.18.19-.1,0-.24-.04-.31-.12-.33-.35-.54-.8-1.16-.78-.19,0-.38-.35-.59-.51-.16-.12-.35-.2-.52-.3-.26-.16-.53-.31-.75-.51-.2-.18-.32-.47-.53-.63-.16-.12-.41-.17-.61-.16-.46.03-.76-.06-.69-.61.01-.09-.08-.19-.16-.38-.09.18-.12.28-.19.34-.08.07-.27.17-.27.16-.26-.39-.81-.31-1.05-.57-.18-.2-.31-.24-.53-.27-.14-.02-.27-.1-.39-.17-.15-.08-.3-.17-.45-.26-.16-.09-.32-.18-.48-.28-.07-.04-.12-.14-.19-.15-.29-.06-.52-.1-.78-.35-.22-.21-.68-.45-.98-.51-.57-.1-.84-.41-1.13-.81-.02-.03-.22.09-.34.12-.16.03-.33.09-.48.05-.19-.05-.35-.19-.53-.28-.09-.04-.27-.02-.29-.07-.16-.5-.57-.35-.91-.36-.23-.01-.47.02-.5-.32,0-.03-.04-.07-.06-.08-.48-.16-.95-.35-1.44-.48-.28-.07-.65.09-.73-.39,0-.06-.31-.07-.48-.09-.32-.04-.7.14-.88-.35-.03-.09-.38-.06-.59-.08-.26-.03-.57.11-.68-.31-.02-.07-.3-.09-.47-.11-.32-.04-.72.14-.88-.35-.02-.06-.22-.08-.33-.09-.3-.01-.6,0-.89,0-.12,0-.33,0-.34-.06-.19-.58-.68-.35-1.05-.39-.34-.04-.74.1-.93-.36-.03-.07-.26-.06-.4-.06-.42,0-.84.02-1.26-.02-.15-.01-.29-.17-.44-.26-.12-.07-.24-.18-.37-.18-.42-.02-.84,0-1.26-.01-.24,0-.49.05-.59-.29-.02-.08-.26-.13-.41-.13-.58-.01-1.16,0-1.74-.02-.14,0-.28-.16-.41-.25.13-.08.25-.24.38-.24.4.01.54-.16.49-.54-.02-.19,0-.39,0-.58,0-.73.38-1.1,1.13-1.11.23,0,.46,0,.68,0,.1,0,.28,0,.3.04.27.73.94.26,1.51.53-.09.34-.19.69-.32,1.14.25,0,.6.05.92-.03.1-.03.1-.43.16-.66.05-.19.12-.36.18-.55.12.11.23.23.37.32.09.06.22.09.34.09.32.01.63,0,.95,0,.1,0,.28-.01.3.04.34.66.95.34,1.44.37.52.03,1-.03.93.72,0,.05.08.1.14.18.12-.16.2-.33.33-.4.4-.23.78.02.81.48.02.27.1.54.15.81.08-.25.16-.5.25-.75,0-.02.02-.03.02-.05.64-.21,1.21-.12,1.66.4.07.08,0,.31-.05.45-.04.1-.15.17-.24.25.08.04.18.13.25.12.16-.02.33-.07.44-.16.07-.06,0-.24.05-.35.05-.13.15-.23.22-.35.1.09.19.2.3.26.17.08.35.17.53.18.82.03.76-.11.83.79.02.33.32.63.49.95.06-.01.13-.02.19-.03.02-.26.02-.52.07-.77.03-.17.13-.32.19-.48.11.1.23.19.34.29.02.02.04.07.06.08.52.16,1.04.35,1.57.47.25.06.46.27.6.31.57.15.94.37.94,1.01.52.13.29.56.31.87.02.33.12.48.47.46.38-.02.77,0,1.19,0,.01-.2.04-.35.03-.5,0-.07-.07-.2-.11-.2-.08,0-.21.05-.24.11-.2.41-.56.27-.81.18-.11-.04-.13-.41-.15-.64,0-.07.13-.22.17-.21.41.13.96-.38,1.28.31.06.13.48.1.76.16.03.35.2.68-.24,1-.18.13-.07.68-.03,1.04,0,.04.41.15.51.07.25-.19.43-.48.66-.71.07-.07.21-.1.31-.11.05,0,.15.12.15.17-.02.1-.09.2-.15.29-.07.1-.15.18-.22.27.11.04.21.1.32.11.12.02.24,0,.43-.01.02-.26.03-.51.05-.79.38-.05.75-.26.99.25.03.06.19.09.28.09.31.02.64-.02.57.43.35.12.8-.13.88.41,0,.03.12.05.19.06.67.12.96.4,1.11,1.02.03.12.21.26.35.28.26.05.52.01.79.02.25,0,.54-.06.65.29.02.05.11.11.17.1.59-.03.83.43,1.13.8.04.05.11.11.16.1.6-.07.85.39,1.16.74.04.05.11.11.16.11.6-.07.82.41,1.14.76.04.05.1.12.16.12.8.01,1.05.77,1.56,1.16.08.06.16.18.23.17.6-.07.77.44,1.12.74.27.24.45.65.97.62.2-.01.45.27.64.46.35.35.67.73,1,1.09.05.06.12.15.18.15.85-.02,1.1.76,1.59,1.21.35.32.67.67,1.02.99.21.19.46.34.64.55.06.07-.01.39-.05.39-.44.05-.3.38-.35.63-.06.33-.18.64-.28,1h1.48c.02-.19-.02-.4.07-.55.06-.11.36-.22.42-.18.34.31.6.71.96.98.6.45.44,1.07.47,1.65,0,.12.06.24.1.36.05,0,.1,0,.15,0,.02-.19.03-.38.08-.56.03-.11.12-.27.21-.28.09-.02.23.09.32.17.34.35.65.73,1,1.08.38.37.78.72,1.17,1.08.27.25.54.51.8.76.05.04.1.11.1.17-.06.6.4.83.77,1.14.32.27.61.59.9.9.04.04.07.13.07.19-.07.58.47.73.73,1.08.38.53,1.21.8,1.04,1.65.42.27.79.51.91,1.05.07.31.44.54.66.82.08.1.17.21.19.32.04.24-.08.55.33.59.04,0,.09.11.09.17-.05.59.44.78.76,1.13.24.27.63.48.62,1,0,.23.39.47.59.71.1.12.18.25.25.38.1.17.17.36.3.51.34.4-.05.47-.3.74.26.06.52.11.78.17.02.03.06.06.05.09-.12.59.36.83.67,1.16.09.09.2.19.22.3.04.28,0,.57.37.67.06.02.09.18.1.27.02.25-.05.55.34.59.04,0,.08.14.09.22.03.26-.08.58.34.65.05,0,.04.23.09.33.08.18.22.34.29.52.09.23.14.48.22.78.39.04.41.37.39.73,0,.27-.08.57.3.7.07.03.07.25.12.37.07.16.19.3.26.46.11.26.2.52.32.84.23.03.55.2.69-.27.01-.05.11-.11.16-.11.86.06,1.04-.79,1.57-1.16.34-.23.49-.72,1.05-.67.2.02.45-.26.63-.45.2-.2.34-.45.52-.67.06-.07.16-.15.24-.15.55.03.73-.46,1.09-.7.51-.35.71-1.12,1.53-1.09.2,0,.45-.3.6-.52.28-.41.54-.79,1.13-.8.19,0,.38-.28.54-.45.36-.37.7-.76,1.04-1.14.26-.29,1.25-.11,1.52.28.18-.15.36-.29.53-.44.04-.04.08-.14.06-.18-.03-.06-.12-.13-.19-.14-.14-.03-.3.02-.41-.03-.09-.04-.22-.25-.2-.28.18-.23.38-.61.59-.61.61-.02.86-.42,1.18-.8.05-.06.21-.11.27-.08.08.04.17.16.18.26.03.27-.05.57.35.64.06.01.1.24.12.37.08.49.27.56.78.24-.51-.14-.43-.53-.46-.9-.04-.38.28-.9-.36-1.09.06-.14.16-.41.19-.41.5.11.73-.32.97-.56.38-.36.63-.77,1.26-.87.24-.04.56-.37.97-.37.02-.18,0-.35.06-.47.08-.15.22-.36.36-.38.48-.04.69-.41.98-.69.09-.09.22-.21.31-.2.7.11,1.13-.25,1.5-.77.06-.08.25-.1.38-.1.89,0,1.79-.02,2.68,0,.15,0,.29.16.44.23.19.08.41.21.59.17.59-.12.82.35,1.17.63.16.13.29.31.43.46.26.28.58.53.45.98,0,.02,0,.05,0,.05.82.36.3,1.09.44,1.64.02.08,0,.17,0,.26-.01.43.15.93-.52,1.07.49.33.65.8.5,1.35-.03.09-.15.16-.22.25-.08.11-.2.22-.22.34-.03.26.03.53-.33.61-.04,0-.1.11-.1.17.06.79-.7,1.01-1.07,1.5-.3.39-.73.67-1.1,1.01-.04.04-.06.14-.04.2.17.53-.35.69-.57.97-.47.58-1.06,1.07-1.6,1.59-.39.38-.85.7-1.17,1.13-.22.29-.72.43-.6.96.02.09-.11.22-.2.32-.38.4-.76.81-1.15,1.19-.36.35-.77.66-1.13,1.01-.35.34-.67.72-1.01,1.08-.26.27-.58.48-.51.95.02.14-.24.39-.42.47-.55.26-.7,1.1-1.48,1.03-.06,0-.18.1-.18.16-.04.83-.83,1.06-1.23,1.6-.21.29-.71.47-.58.99.02.08-.12.22-.21.31-.37.39-.75.78-1.13,1.16-.34.34-.71.64-1.01,1.01-.41.5-1.14.75-1.18,1.56-.01.22-.34.42-.53.62-.4.42-.8.85-1.22,1.24-.38.35-.93.58-1.15,1-.29.53-1.13.69-1,1.49,0,.05-.01.14-.04.15-.53.1-.33.57-.44.86-.04.03-.07.07-.1.07-.71.09-.72.09-.31.63.18.23.37.5.62.61.42.18.27.5.24.76-.01.1-.31.15-.47.25-.24.15-.5.29-.71.47-.2.18-.36.41-.58.68h1.2c.01-.07.06-.18.04-.27-.05-.44.18-.51.56-.52.44,0,.42.25.42.55,0,.61-.01,1.23,0,1.84,0,.28-.15.66.34.74.04,0,.07.15.08.23,0,.56.09,1.14-.03,1.68-.07.3-.48.52-.77.75-.11.09-.3.07-.46.22.08.04.16.1.24.11.67.07,1.03.46,1.03,1.13,0,.65-.02,1.3.01,1.95,0,.16.17.32.26.48.07.13.18.26.18.39.01,1.07.03,2.14,0,3.21,0,.21-.24.41-.39.65.65.18.45.76.37,1.19-.05.27-.36.55-.62.72-.26.17-.61-.02-1.01-.47-.05.38-.29.67.19.9.08.04.13.34.07.4-.37.38-.78.74-1.18,1.1.2.24.38.46.56.67.39-.44.76-.87,1.15-1.27.04-.04.3.07.4.17.06.06.02.23.02.36,0,1.16,0,2.32,0,3.47,0,.33.18.76-.35.92-.06.02-.07.25-.07.39,0,.63,0,1.26,0,1.9,0,.29.12.65-.33.78-.06.02-.08.25-.08.38,0,.49,0,.98,0,1.47,0,.29.1.6-.32.79-.13.06-.09.54-.11.83-.03.38.15.84-.57.96.54.3.86.54.19.84-.07.03-.07.22-.08.34-.01.3.02.6-.02.89-.02.14-.14.27-.21.41-.1-.09-.19-.19-.3-.27-.07-.06-.14-.13-.22-.15-.03,0-.11.11-.14.18-.1.3-.19.61-.3.98.07,0,.26,0,.45.06.11.03.26.13.27.22.02.09-.11.2-.18.31-.08.13-.22.25-.23.38-.03.4,0,.81-.01,1.21,0,.27.08.56-.32.68-.09.03-.08.37-.11.57-.04.26.14.63-.33.7-.04,0-.08.18-.08.28,0,.27.02.52-.33.62-.06.02-.07.21-.11.32-.09.22-.19.43-.33.76-.04-.05,0,.03.05.06.35.18.42.35.01.55-.06.03-.15.1-.15.12.19.72-.48,1.24-.47,1.92,0,.32.06.67-.47.63,0,.31.03.58-.01.83-.03.17-.16.32-.26.48-.04.07-.15.14-.14.19.1.64-.29.72-.81.66-.03.34-.26.67.24.85.04.01.02.3-.03.44-.06.17-.17.33-.27.49-.09.15-.17.3-.26.44-.03.04-.11.04-.12.08-.17.43-.32.87-.5,1.3-.05.13-.15.24-.24.35-.04.05-.16.06-.17.11-.07.37,0,.79-.47.96.07.61-.41.87-.76,1.21-.07.07-.12.23-.1.33.16.6-.2,1.01-.59,1.28-.31.22-.28.43-.3.69-.02.3.1.66-.36.75-.04,0-.1.12-.09.17.1.6-.36.82-.72,1.11-.07.05-.13.16-.13.25-.02.29.04.61-.37.7-.03,0-.06.09-.06.14.07.6-.42.82-.76,1.13-.06.05-.1.14-.12.22-.05.27.07.64-.4.65-.03,0-.08.12-.07.18.09.59-.38.82-.72,1.14-.06.05-.13.14-.13.2.06.59-.43.77-.75,1.1-.25.26-.38.64-.58.95-.18.27-.37.56-.61.78-.34.3-.73.5-.73,1.07,0,.21-.32.43-.5.64-.14.16-.27.37-.46.45-.32.13-.27.39-.35.62-.09.25-.29.48-.49.67-.5.49-1.03.96-1.55,1.44-.06.05-.13.14-.13.21,0,.56-.39.8-.79,1.08-.37.27-.63.68-.96,1.01-.38.39-.83.74-1.14,1.18-.27.39-.59.45-1.03.4,0,.93-.7,1.32-1.25,1.83-.51.47-.93,1.05-1.45,1.51-.3.27-.47.79-1.04.65-.03,0-.08,0-.1.02-.49.48-.97.96-1.46,1.43-.46.45-.72,1.14-1.52,1.21-.22.02-.43.27-.61.45-.2.2-.36.44-.53.67-.2.28-1.25.18-1.4-.13-.03-.06-.07-.1-.12-.16-.51.52-1.01,1.01-1.53,1.53.09.05.2.08.24.15.07.13.1.29.15.43-.36.09-.45.58-.95.56-.24-.01-.5.4-.75.62-.08.07-.17.22-.25.21-.57-.04-.83.34-1.08.74-.02.03-.03.07-.06.08-.45.17-.91.31-1.34.52-.29.14-.52.38-.78.58-.12.09-.23.23-.37.25-.24.04-.44,0-.55.33-.09.28-.39.15-.68-.45-.07.3-.09.48-.15.65-.04.12-.11.23-.17.34-.12-.07-.23-.13-.35-.2-.08-.05-.16-.1-.23-.14-.04.09-.11.17-.13.26-.1.58-.46.94-.99,1.02-.12.02-.23.11-.33.19-.04.03-.04.12-.07.13-.43.18-.87.34-1.3.52-.13.06-.25.16-.38.24-.1.07-.22.2-.3.18-.09-.02-.2-.16-.23-.27-.05-.16-.03-.34-.04-.48-.63-.43-.74.42-1.16.4-.15.29.1.63-.32.89-.26.16-.46.33-.78.43-.42.12-.76.48-1.16.69-.2.1-.46.1-.69.13-.23.04-.56-.12-.6.3,0,.02,0,.04-.02.05-.51.18-1.01.38-1.53.54-.24.07-.54-.08-.7.3-.05.11-.4.11-.62.13-.27.03-.53-.03-.7.32-.06.12-.44.13-.67.1-.08,0-.14-.26-.21-.4-.07-.13-.14-.26-.21-.39-.05.13-.12.26-.16.39-.02.08-.02.18,0,.26.07.48-.12.67-.61.62-.29-.03-.64-.12-.79.31-.03.07-.28.06-.43.1-.45.11-1.06-.3-1.36.39-.02.05-.23.03-.35.04-.4,0-.8,0-1.21,0,.02.06.03.12.05.18-.22.1-.44.23-.67.28-.46.1-1.02-.21-1.36.38-.02.03-.21-.04-.33-.06.03-.12.04-.35.08-.36.34-.05.25-.3.31-.51.07-.23.24-.43.39-.7h-1.19v1.52c-.51.22-.95.5-1.42.59-.53.1-1.09,0-1.63.04-.16.01-.31.19-.47.27-.15.07-.31.15-.46.15-.72.02-1.44,0-2.16.02-.15,0-.29.16-.45.23-.16.07-.34.17-.5.17-1.25.01-2.49,0-3.74.01-.24,0-.54-.1-.61.31-.01.06-.23.11-.36.11-1.37,0-2.74,0-4.11,0-.47,0-.55-.47-.85-.68-.06-.04-.1-.12-.16-.19-.07.05-.13.08-.14.11q-.16.75-.93.75c-.75,0-1.51.02-2.26-.01-.16,0-.3-.18-.47-.26-.14-.07-.3-.15-.45-.15-1.37-.01-2.74-.05-4.11.01-.58.02-.83-.34-1.1-.67-.18-.21-.23-.26-.39-.03-.26.39-2.01.37-2.28,0-.06-.08-.18-.13-.28-.17-.26-.1-.52-.2-.76-.28-.25.08-.54.19-.84.27-.07.02-.22-.03-.24-.07-.13-.49-.53-.32-.85-.38-.21-.04-.39-.19-.6-.28-.14-.06-.29-.12-.43-.12-.39-.02-.77.02-1.16-.02-.19-.02-.5-.12-.53-.24-.07-.29-.19-.69.32-.79.04,0,.06-.07.17-.2h-1.28c.17.23.31.43.46.63-.03.05-.07.09-.1.14-.5,0-1.01,0-1.51,0-.07,0-.19-.02-.19-.05-.11-.56-.55-.34-.87-.37-.24-.02-.5.03-.58-.31-.01-.05-.13-.09-.21-.11-.22-.06-.61.13-.59-.3.01-.29.15-.57.27-.98-.1,0-.33-.05-.52.02-.09.04-.11.29-.14.45-.02.12.01.25,0,.37-.03.14-.09.28-.13.41-.13-.08-.26-.16-.39-.23-.13-.07-.26-.15-.39-.17-.21-.03-.42,0-.63-.02-.31-.03-.38-.35-.21-.43.68-.32.24-.84.36-1.23-.66-.38-.85.28-1.19.49-.27.17-1.15.46-1.35.2-.25-.33-.44-.71-.72-1.17-.26.08-.76-.35-1.12.28-.06.1-.55,0-.84-.07-.17-.04-.33-.17-.48-.26-.14-.09-.28-.18-.42-.28-.04-.03-.07-.12-.09-.11-.45.04-.72-.26-1.06-.47-.4-.24-1.05-.2-1.28-.52-.38-.52-.81-.35-1.25-.42-.09-.01-.17-.13-.25-.21-.07-.06-.15-.19-.21-.19-.6.05-.88-.35-1.14-.79,0-.01-.02-.03-.04-.03-.45-.17-.9-.34-1.35-.52-.12-.05-.23-.13-.34-.19-.14-.08-.28-.15-.42-.23-.16-.09-.29-.22-.46-.29-.25-.11-.52-.17-.8-.26q-.04-.21.48-.76c-.53,0-.96.03-1.38-.01-.18-.02-.35-.18-.52-.28-.06-.03-.1-.12-.15-.12-.62.05-.87-.44-1.22-.8-.04-.05-.13-.1-.18-.08-.52.16-.6-.49-1-.54.03-.15.02-.39.09-.43.45-.2.25-.48.18-.88-.28.31-.48.56-.71.77-.09.08-.33.16-.39.11-.34-.3-.63-.64-.96-.95-.15-.13-.35-.21-.52-.32-.23-.15-.47-.27-.67-.45-.22-.21-.4-.47-.6-.71-.04-.05-.09-.13-.14-.13-.87.02-1.19-.71-1.66-1.22-.04-.05-.12-.1-.18-.09-.78.04-1-.71-1.49-1.07-.43-.32-.78-.75-1.17-1.14-.14-.14-.27-.29-.39-.44-.24-.3-.53-.44-.94-.48-.22-.02-.41-.34-.6-.54-.19-.21-.31-.55-.55-.66-.72-.34-.22-.52.16-.81-.21-.06-.34-.15-.46-.13-.5.07-.89-.09-1.22-.46-.49-.55-.93-1.17-1.5-1.6-.43-.32-.38-.62-.35-1.06.25-.03.51-.05.75-.07.15-.83-.26-1.26-1.09-1.14-.02.04-.04.09-.06.14-.08.22-.16.44-.23.66-.25-.22-.67-.43-.7-.67-.06-.55-.45-.77-.75-1.1-.06-.07-.15-.17-.14-.25.05-.58-.39-.79-.75-1.06-.04-.03-.09-.06-.11-.11-.16-.44-.32-.89-.49-1.33-.04-.1-.13-.18-.2-.28-.08-.12-.21-.23-.23-.36-.04-.25.02-.51-.34-.61-.09-.03-.09-.37-.11-.57-.03-.28.11-.61-.31-.74-.06-.02-.09-.21-.1-.32-.02-.24.06-.51-.33-.54-.04,0-.1-.2-.1-.31-.01-.32,0-.63,0-.95,0-.12,0-.33-.05-.35-.65-.21-.35-.75-.41-1.15-.03-.22,0-.46,0-.68,0-.09.02-.21-.03-.26-.76-.66-.24-1.53-.38-2.3-.07-.38.15-.82-.38-1.09-.25-.12-.02-1.09.17-1.31.24-.29.74-.44.6-.97-.02-.07-.08-.13-.17-.25-.07.14-.1.24-.16.3-.08.07-.21.15-.3.14-.09-.02-.21-.15-.21-.24-.02-.58-.03-1.16.01-1.73,0-.1.29-.23.46-.27.28-.06.57-.06.85-.08v-.16c-.05-.03-.1-.09-.16-.1q-.72-.14-.72-.9c0-.3,0-.6,0-.89,0-1.07.2-1.31,1.31-1.46,0-.3.01-.61,0-.91,0-.08-.09-.16-.15-.24-.07.06-.14.11-.21.17-.1.08-.2.17-.32.22-.03.01-.18-.14-.17-.19.03-.11.13-.2.2-.31.08-.13.21-.26.22-.4.04-.27.01-.55.01-.84.49-.14.89-.16,1.13.44.18-.38.29-.63-.08-.87-.22-.14-.42-.34-.58-.56-.05-.06.06-.26.13-.38.05-.09.24-.17.23-.24-.08-.6.25-.72.74-.69.04,0,.08-.05.17-.12-.11-.09-.18-.16-.27-.22-.25-.16-.22-.3-.01-.49.13-.12.2-.31.29-.47.09-.15.17-.3.25-.46.06-.1.12-.2.16-.31.03-.08-.01-.24.03-.25.52-.23.28-.92.76-1.21.15-.09.12-.47.18-.75-.01.01,0-.01,0-.01.96.03.63-.75.86-1.23.21-.46.77-.75,1.24-1.17-.11-.56.34-.88.77-1.23.34-.27.63-.6.93-.91.04-.04.07-.14.06-.19-.15-.48.29-.68.51-.93.54-.63,1.14-1.2,1.74-1.77.53-.5,1.08-.98,1.61-1.47.05-.04.09-.12.09-.17-.05-.57.35-.83.75-1.1.05-.03.11-.11.11-.16-.09-.62.43-.85.77-1.2.06-.06.1-.15.11-.22.06-.68.44-1.02,1.11-1.04.07,0,.19-.09.19-.12-.01-.08-.07-.18-.14-.23-.36-.27-.36-.7,0-.99.08-.07.15-.19.16-.29.03-.25-.04-.53.34-.61.07-.01.09-.31.11-.47.03-.33-.11-.7.36-.88.09-.04.07-.35.1-.54.08-.42-.22-.93.36-1.25.12-.06.06-.46.06-.71,0-.32,0-.63,0-.95,0-.1,0-.28.05-.3.72-.27.31-.88.4-1.34.06-.3.01-.62.01-.93.05-.04.11-.08.16-.11.25.22.58.4.72.67.11.22.23.62-.19.81-.06.03-.14.16-.12.19.05.07.14.15.22.16.31.02.63.03.95,0,.14-.01.37-.12.38-.21.02-.18-.06-.38-.13-.56-.04-.1-.22-.17-.22-.24.03-.6-.43-.82-.79-1.14-.09-.07-.11-.24-.13-.36-.03-.15-.04-.31-.06-.51-.26.2-.46.35-.65.5-.05-.04-.09-.07-.14-.11,0-1.1,0-2.2,0-3.31,0-.25.07-.53-.32-.6-.07-.01-.13-.23-.14-.36-.02-.39,0-.77-.01-1.16,0-.27.08-.58-.31-.69-.06-.02-.09-.18-.1-.28-.04-.41.13-.89-.42-1.13-.06-.03-.04-.26-.05-.4-.03-.32.15-.72-.36-.85-.05-.01-.07-.19-.07-.29,0-.25.03-.49-.3-.59-.07-.02-.1-.24-.12-.36-.02-.22.03-.42-.3-.52-.12-.04-.13-.45-.3-.65-.1-.23-.2-.46-.31-.68-.06-.13-.15-.25-.23-.37-.05-.08-.17-.16-.16-.24.06-.6-.44-.79-.77-1.1-.05-.04-.12-.1-.12-.15-.01-.83-.72-1.14-1.21-1.6-.36-.34-.67-.75-1.01-1.11-.36-.37-.78-.68-1.09-1.08-.25-.31-.75-.45-.69-1.02.02-.2-.29-.45-.49-.64-.21-.2-.46-.36-.69-.54-.04-.03-.08-.09-.08-.13.09-.64-.29-.77-.85-.71.15-.96-.74-1.17-1.13-1.73-.04-.05-.16-.07-.17-.11-.04-.4-.38-.7-.44-1-.12-.56-.38-.85-.8-1.14-.06-.04.02-.33.07-.49.06-.19.17-.36.23-.55.01-.05-.08-.16-.14-.18-.06-.01-.14.06-.21.1-.13.08-.25.16-.37.24-.05-.13-.1-.27-.17-.4-.08-.16-.19-.31-.28-.47-.05-.1-.11-.21-.13-.32-.03-.24.02-.5-.33-.57-.04,0-.09-.35-.02-.43.21-.24.48-.43.81-.71-.21-.06-.34-.15-.45-.12-.57.17-.88-.26-1.25-.53-.06-.05-.07-.19-.08-.28-.02-.23.06-.49-.31-.57-.08-.02-.1-.36-.12-.56-.04-.29.13-.65-.34-.76-.07-.02-.11-.24-.12-.36-.02-.35,0-.7-.01-1.05-.01-.3.07-.6-.3-.82-.11-.06.03-.56.08-.85.02-.09.11-.17.17-.26-.09-.04-.18-.12-.26-.11-.5.06-.58-.21-.56-.63.02-.58,0-1.16,0-1.74,0-.38-.08-.78.58-.96-.68-.19-.58-.62-.58-1,0-.58,0-1.16,0-1.74,0-.31-.1-.68.5-.66-.13-.15-.16-.23-.23-.27-.35-.18-.41-.35-.01-.56.06-.03.03-.22.05-.34-.37-.04-.3-.32-.31-.56,0-.28,0-.56,0-.84,0-.1-.01-.27.04-.3.74-.4.29-1.09.41-1.63.06-.28-.1-.61.32-.8.12-.06.09-.48.11-.74.03-.55.6-1.04,1.13-.9.1.03.24.34.21.38-.19.21-.44.37-.66.55-.06.05-.13.12-.13.18,0,.06.09.12.14.18.1.15.22.29.3.45.06.12.05.33.13.37.61.31.2.5-.18.79.24.06.38.11.53.13.47.07.9.63.84,1.1,0,.05,0,.14-.02.15-.7.39-.35,1.04-.4,1.59-.05.6-.01.61-.29.85.11.38.26.69.27.99.03,1.23.02,2.46,0,3.68,0,.18-.21.35-.26.54-.08.3-.16.62-.14.93,0,.1.29.24.47.26.29.03.41.14.39.43-.02.26,0,.53,0,.79,0,.23-.04.44.28.58.32.14.14.8-.3,1.09.25.22.51.44.75.66.06.05.1.14.11.21.03.27.06.46.33.7.34.31.4.93.55,1.43.02.08-.1.24-.19.31-.33.23-.3.63-.09.74.39.2.27.48.29.75.03.36.04.72.06,1.2.3-.33.48-.53.57-.62-.1-.4-.2-.72-.25-1.04,0-.06.17-.19.28-.21.06,0,.21.13.22.21.02.32-.02.63.39.76.05.02,0,.26.06.34.32.4.34.95.73,1.34.24.24.63.44.61.94-.01.23.28.5.47.71.19.2.47.33.65.54.07.08.04.3,0,.44-.03.08-.17.12-.28.2.07.08.1.15.13.15.82-.05,1.08.73,1.61,1.1.18.13.34.29.47.48.31.45.56.94.89,1.37.28.37.59.78.98.99.37.2.32.46.31.73-.03.46.11.75.61.62.59-.15.79.36,1.11.62.28.23.59.5.55,1-.01.17.27.46.47.52.35.11.33.33.36.6.01.13.13.25.22.36.06.08.19.15.19.21-.05.59.35.86.76,1.14.08.05.1.21.11.32,0,.25,0,.46.32.56.1.03.11.36.15.56.05.28-.14.65.32.78.05.01.08.18.09.28.03.24-.02.48.32.58.09.02.11.33.14.51.04.31-.11.68.35.83.07.02.07.28.09.43.09.47-.22.99.36,1.41.19.14.03.75.03,1.2-.22.01-.41,0-.59.04-.08.01-.14.11-.21.17.07.06.13.16.2.18.91.22,1.06.41,1.06,1.35,0,2.32,0,4.63,0,6.95,0,.25.08.54-.31.63-.06.01-.11.23-.12.36-.01.4.02.81-.02,1.21-.02.2-.18.39-.27.58-.04.09-.1.17-.13.27-.02.1-.03.21,0,.31.15.79-.21,1.34-.91,1.76.12.08.23.12.27.19.07.13.19.36.14.41-.46.48-.51,1.28-.9,1.64-.39.37-.13,1.06-.74,1.2-.05.01-.03.26-.08.39-.06.14-.15.27-.24.39-.05.07-.16.13-.16.17.09.63-.4.86-.77,1.18-.07.06-.13.18-.13.27.02.61-.45.83-.9,1.12.17.62-.33.87-.7,1.23-.52.5-.95,1.12-1.52,1.56-.3.23-.45.79-1,.65-.06-.02-.22.07-.22.1,0,.39-.37.67-.42.94-.15.81-.86,1.06-1.26,1.6-.22.29-.65.44-.62.97.01.23-.36.49-.57.73-.07.08-.16.17-.25.21-.55.28-.38,1.03-.88,1.35-.33.21-.58.5-.49.94-.66.11-.15,1.01-.78,1.15-.04,0,0,.24-.05.35-.06.14-.15.28-.23.41-.05.08-.19.15-.18.22.07.58-.44.76-.73,1.09-.09.1-.15.26-.16.4-.02.31.02.64-.03.95-.02.15-.19.27-.26.42-.08.15-.15.31-.18.48-.06.33.15.73-.35.93-.11.05-.05.49-.09.74-.05.34.21.8-.35.96-.05.02-.06.22-.06.34,0,.49,0,.98,0,1.47-.01.3.15.69-.35.81-.06.01-.08.25-.08.39,0,.49,0,.98,0,1.47,0,.29.12.64-.34.77-.09.03-.1.38-.11.58,0,.33.02.66.04.99.05,0,.1,0,.15.01.05-.06.09-.13.15-.18.11-.08.23-.16.34-.23.07.12.19.24.2.36.02.74,0,1.47.02,2.21,0,.17.16.33.23.5.06.13.16.26.17.4.03.33,0,.67.01,1,0,.11.04.29.11.32.59.24.38.42-.03.61-.04.02-.05.08-.07.12.35.41.97.63.9,1.31.56.28.28.85.44,1.26.16.41.49.77.73,1.15.06.09.11.22.1.32,0,.06-.14.12-.23.15-.2.07-.55.09-.58.18-.07.33-.03.68-.03,1.03.05,0,.1,0,.16.01.23-.25.44-.51.68-.75.06-.06.23-.1.27-.07.21.17.57.38.55.56-.05.65.46.84.78,1.19.1.11.14.31.14.47.02.56.01,1.12,0,1.68,0,.27.08.43.39.44.29,0,.39-.13.42-.41.02-.16.15-.3.24-.45.09.16.17.32.27.47.17.28.32.59.54.83.39.42.84.79,1.26,1.18.37.34.74.68,1.1,1.03.36.35.7.73,1.05,1.09.07.07.15.2.21.19.84-.09,1.01.75,1.52,1.11.45.32.82.76,1.22,1.15.13.12.25.26.36.4.24.3.58.36.9.5.43.19.71.69,1.06,1.06.07.07.14.2.2.2.83-.04,1.06.74,1.55,1.14.06.05.12.14.19.14.85.02,1.14.74,1.61,1.24.04.05.11.11.16.11.61-.1.82.42,1.16.73.06.05.15.13.21.12.58-.08.77.42,1.1.71.19.16.48.2.79.31,0,.05.02.17.05.28.04.16.08.31.12.47.1-.11.17-.27.29-.31.13-.04.32,0,.45.06.11.05.19.17.25.28.31.53,1.1.35,1.36.88.28.55.73.37,1.14.42.12.01.23.11.34.19.05.04.05.15.1.18.4.18.79.41,1.21.48.35.06.49.17.48.52,0,.13.06.26.11.47.36-.55.63-.64.73-.32.06.2.06.43.09.74.15-.13.24-.18.28-.25.16-.32.31-.32.52-.04.08.11.26.15.39.22.17.1.35.2.52.29.1.05.21.13.31.14.25.02.5-.01.58.32.01.06.13.12.21.13.56,0,.84.36,1.08.8.01.02.23-.04.34-.1.09-.05.17-.22.22-.21.11.02.2.13.29.21.07.06.14.2.2.2.83-.04,1.07.72,1.55,1.15.2.19.62.22.79-.03.24-.35.74-.35,1-.03.1.12.3.18.47.2.34.05.75-.13.93.37.02.07.25.07.39.09.34.04.68-.08.96.33.11.17.62.07.95.09.28.02.6-.09.72.33.03.09.36.09.56.13.27.05.66-.16.75.34,0,.05.21.08.33.09.3.01.6,0,.89,0,.1,0,.27-.03.3.03.46.7,1.16.3,1.75.39.27.04.56-.05.68.33.02.07.24.11.37.11.44.01.88,0,1.32.01.36.02.78-.15.98.36.03.08.29.08.44.09.68,0,1.37-.01,2.05.02.17,0,.34.17.51.24.18.07.38.16.56.16,1.23.01,2.46,0,3.68,0,.24,0,.48-.03.58.3.03.09.29.15.44.15.81.02,1.61,0,2.42,0,.19,0,.38,0,.59,0,.09.57-.39.68-.63.92-.3.29-.26.5-.08.8.51-.55.5-.59.95.07.06-.26.08-.45.15-.62.05-.12.17-.21.26-.31.08.11.18.2.24.32.04.09-.01.22.02.31.03.08.12.14.18.2.06-.07.14-.14.17-.22.03-.1.01-.21.01-.31,0-.89.82-1.46,1.64-1.14.07.03.1.3.06.43-.02.09-.2.13-.28.32h1.17c.02-.23.05-.47.07-.72.32-.15.82.1.94-.46.01-.06.32-.07.49-.07,1.19,0,2.39,0,3.58,0,.26,0,.56.09.7-.29.03-.09.31-.11.47-.12.68-.01,1.37.01,2.05-.02.17,0,.33-.17.5-.25.15-.07.3-.17.45-.18.38-.03.77,0,1.16-.01.25,0,.54.09.62-.3.01-.07.23-.12.36-.13.39-.02.77,0,1.16,0,.28,0,.61.11.71-.32.01-.06.25-.07.38-.09.48-.1,1.05.24,1.45-.38.1-.15.6-.04.91-.05.29-.01.59.1.76-.34.11-.3,1.15-.12,1.34.17.05.07.27.14.3.1.33-.36.61-.75.95-1.1.11-.11.33-.15.5-.18.32-.06.74.17.91-.36.02-.05.68-.05.79.11.27.37.51.23.79.17,0-.08.01-.12,0-.15-.12-.16-.24-.32-.36-.49.21-.05.41-.11.62-.15.27-.06.63.16.76-.34.02-.1.5-.08.75-.12.35.52-.76.77-.17,1.26.34-.29.68-.58,1-.88.05-.05.07-.16.08-.24.11-.62.39-.9,1.02-1.02.1-.02.2-.11.29-.17.14-.09.28-.19.43-.28.16-.1.31-.2.47-.28.11-.06.24-.1.36-.16.18-.09.34-.21.53-.28.14-.05.31-.08.44-.03.11.04.18.19.27.3.05-.17.11-.33.15-.5.02-.08.03-.17.05-.33.75,0,1.5,0,2.25,0,.18,0,.35.02.53-.01.08-.01.14-.11.21-.17-.07-.06-.13-.12-.2-.18-.01,0-.04,0-.05,0-.2-.06-.57.15-.54-.26,0-.1.38-.15.55-.27.25-.18.45-.41.69-.6.13-.11.28-.19.43-.27.16-.09.33-.18.49-.27.07-.04.14-.14.2-.13.59.06.86-.34,1.11-.77.02-.04.07-.1.11-.1.4,0,.69-.34.98-.4.57-.11.83-.45,1.13-.83.05-.07.17-.11.27-.12.25-.02.53.04.62-.32.01-.05.22-.09.32-.07.07.01.14.15.15.23.04.26-.06.57.34.67.06.02.05.29.1.43.04.11.12.21.18.32.06-.1.18-.21.18-.31.02-.58,0-1.16.01-1.74,0-.51.42-.96.93-.95.47,0,.84.01.86-.66,0-.23.46-.65.65-.62.53.08.77-.35.97-.57.35-.4.61-.78,1.2-.84.22-.02.43-.29.6-.48.33-.36.62-.75.95-1.12.07-.07.22-.08.34-.09.35-.01.7-.03,1.05,0,.14.02.27.17.41.26.08.05.21.14.23.13.19-.2.41-.4.54-.64.14-.27.2-.58.33-.94-.04,0-.21,0-.35-.06-.14-.06-.25-.17-.37-.26.12-.09.22-.21.35-.27.12-.05.27-.03.28-.03.67-1.19,1.3-2.25,2.84-2.35-.1-.07-.25-.11-.28-.2-.05-.14-.08-.36,0-.44.19-.21.57-.32.65-.54.18-.52.56-.39.9-.38.39,0,.52-.13.51-.52-.01-.81.27-1.05,1.01-1.25.36-.1.78-.4.71-.89-.1-.67.38-.93.74-1.32.25-.27.47-.45.84-.41.05,0,.15-.1.15-.16,0-.06-.07-.15-.13-.18-.41-.18-.29-.28-.03-.56.42-.46,1.1-.73,1.13-1.51,0-.21.31-.42.5-.6.22-.2.47-.38.7-.57.02-.02.05-.06.05-.09-.12-.82.69-1.03,1.06-1.51.15-.2.25-.35.29-.59.02-.13.12-.31.22-.34.27-.09.66.06.75-.39.14.04.33.05.42.14.29.29.84.31,1.23-.06-.27-.03-.57.03-.68-.09-.25-.29-.52-.46-.9-.43,0-.17-.02-.34.02-.5.02-.07.22-.12.22-.16-.07-.65.44-.89.82-1.24.07-.07.06-.23.11-.34.08-.17.18-.33.28-.49.03-.06.12-.11.11-.16-.03-.6.41-.86.83-1.14.07-.04.09-.18.09-.28,0-.26-.03-.53.32-.63.06-.02.09-.17.1-.27.03-.25-.07-.55.33-.61.05,0,.1-.17.11-.27.02-.26-.04-.54.35-.59.05,0,.1-.18.1-.27.01-.26,0-.52.32-.64.07-.03.08-.25.11-.38.03-.12.03-.33.07-.34.53-.1.36-.54.42-.89.35-.1.83.06.96-.47,0-.03.16-.05.25-.05.38.03.54-.14.54-.52,0-.12.15-.24.21-.37.07-.16.18-.34.15-.49-.02-.11-.23-.19-.37-.26-.14-.08-.3-.13-.45-.19.11-.12.24-.23.31-.37.07-.17.1-.36.12-.54.04-.31-.1-.68.33-.85.07-.03.06-.25.1-.39.03-.11.05-.32.1-.33.48-.08.35-.44.36-.73.01-.28-.08-.59.32-.73.09-.03.14-.36.1-.52-.15-.57.38-.76.58-1.13.09-.17.25-.33.28-.51.05-.27,0-.56.02-.84,0-.12,0-.32.07-.34.57-.2.35-.68.38-1.06.03-.34-.07-.69.34-.9.1-.05.06-.36.08-.55.03-.27-.1-.62.36-.69.05,0,.1-.2.11-.31.01-.32-.02-.64.02-.95.02-.17.17-.32.25-.49.06-.11.15-.23.16-.34.02-.31,0-.63.01-.95,0-.1-.02-.27.04-.3.63-.33.29-.92.39-1.39.04-.18.21-.34.28-.52.07-.2.15-.41.14-.62,0-.41.02-.68.57-.71.27-.02.52-.36.79-.56-.2-.2-.41-.38-.58-.59-.13-.17-.27-.38-.29-.58-.05-.4-.04-.81,0-1.21.02-.2.18-.39.28-.58.02-.04.09-.09.09-.12-.07-.75.72-.93.98-1.46.03-.06.29-.03.43.02.09.03.13.17.22.28.28-.56.22-.71-.28-.77-.1-.01-.27,0-.3-.06-.2-.35-.37-.59-.57,0-.14-.06-.38-.1-.41-.2-.06-.2-.02-.44-.02-.67.2-.02.32-.02.44-.05.14-.03.28-.08.42-.13-.1-.09-.21-.17-.28-.27-.07-.11-.12-.24-.12-.37,0-1.51-.01-3.02,0-4.53,0-.14.19-.26.25-.41.04-.1.03-.25,0-.35-.05-.12-.17-.2-.23-.32-.01-.03.11-.17.14-.17.13.04.25.12.37.19.07.04.12.11.22.21.09-.35.28-.62-.16-.82-.09-.04-.15-.26-.15-.4-.01-.91,0-1.82,0-2.74,0-.09-.02-.22.03-.25.82-.62-.19-.67-.31-.99-.05-.12-.14-.24-.14-.36,0-1.39,0-2.77,0-4.16,0-.05-.02-.14,0-.15.38-.26.48-.51,0-.78,0,0,.08-.19.14-.28.02-.03.1-.03.15-.02.61.13,1.02-.19,1.4-.66-.29-.2-.54-.26-.77.08-.31.45-.77.17-1.16.18-.08,0-.23-.37-.24-.58-.03-.72,0-1.44-.01-2.16,0-.3.1-.63-.31-.81-.09-.04-.08-.32-.1-.48-.03-.25-.04-.49-.05-.65-.36.12-.66.2-.94.33-.08.04-.14.23-.12.32.05.15.18.27.27.4-.08.05-.21.15-.24.13-.13-.1-.24-.24-.41-.43-.07,0-.23-.02-.39,0-.08.01-.16.09-.24.14.05.07.09.17.17.22.35.23.33.71,0,.99-.38.33-.7.73-1.06,1.09-.37.37-.79.69-1.12,1.08-.23.28-.68.42-.65.91,0,.12-.12.25-.19.37-.11-.08-.22-.17-.33-.25-.06-.05-.12-.1-.23-.2-.04.17-.11.28-.09.38.14.67-.26,1.04-.72,1.44-.55.48-1.01,1.06-1.51,1.59-.14.15-.31.27-.43.43-.29.4-.55.83-.86,1.21-.32.39-.68.74-1.04,1.09-.38.37-.78.73-1.16,1.09-.26.24-.52.49-.77.73-.05.04-.12.1-.11.15.03.82-.71,1.09-1.14,1.58-.33.38-.67.77-1.06,1.08-.32.25-.48.69-1.04.7-.24,0-.67.54-.66.82.03.6-.28.94-.62,1.3-.55.57-1.09,1.15-1.67,1.7-.52.5-1.22.87-1.6,1.45-.34.52-.74.32-1.12.45-.28.09-.49.36-.84.62.41.1.7.31.91-.15.04-.08.19-.13.29-.14.05,0,.16.1.16.16,0,.11-.03.25-.1.32-.54.57-1.09,1.13-1.65,1.68-.36.35-.74.67-1.11,1.01-.19.17-.39.34-.56.52-.41.44-.42.44-.69-.06-.21.14-.42.28-.62.43-.04.03-.08.14-.05.18.03.06.11.13.18.14.14.02.32-.04.41.03.11.08.25.35.21.39-.32.35-.68.66-1.01.99-.37.37-.74.74-1.11,1.11-.16.16-.29.34-.47.47-.31.22-.38.51-.45.87-.04.21-.31.39-.48.57-.71.72-1.43,1.43-2.15,2.14-.45.45-.89.9-1.34,1.34-.03.03-.1.05-.14.05-.38-.04-.6.1-.83.42-.19.26-.47.53-.93.52-.22,0-.44.39-.65.61-.04.05-.05.16-.09.17-.45.17-.93.29-1.35.5-.29.14-.52.42-.77.64-.08.07-.16.22-.24.22-.56-.02-.81.41-1.11.75-.05.06-.14.14-.2.14-.58-.06-.81.37-1.11.73-.02.03-.04.08-.06.08-.38.06-.71.36-.98.42-.58.13-.86.46-1.18.85-.06.07-.22.07-.33.1-.13.03-.36.02-.39.09-.31.72-.55.26-.81-.1-.07.14-.15.23-.15.31.03.54-.45.71-.71,1.04-.27.34-.75.28-.88.45-.43.55-1.33.43-1.55,1.19-.01.04-.12.09-.18.09-.59-.07-.81.39-1.11.75-.03.04-.07.1-.11.1-.67-.02-1.16.72-1.89.47-.03,0-.06.02.03-.01-.25.45-.45.81-.65,1.17-.02.03-.03.09-.05.09-.46,0-.77.42-1.14.48-.52.08-.73.41-1.01.72-.05.06-.13.16-.18.15-.64-.11-.82.46-1.17.78-.06.05-.15.12-.22.11-.58-.07-.76.42-1.07.73-.06.06-.12.16-.18.16-.59-.04-.84.4-1.19.76-.15.15-.48.12-.68.26-.21.11-.42.2-.62.33-.26.16-.61.28-.74.52-.33.61-.53.39-.85-.06-.03.17-.09.33-.09.5-.01.49,0,.98,0,1.47,0,.27.07.58-.34.65-.05,0-.11.1-.11.16,0,.58-.02,1.16,0,1.74,0,.07.17.12.25.2.07.08.17.19.16.27,0,.08-.16.22-.22.21-.3-.04-.6-.13-.97-.22-.12.3-.55.38-.85.19-.32-.2-.77-.46-.64-1.02.04-.18.02-.39,0-.58-.04-.41.03-.64.55-.65.58-.01.9-.71.6-1.2-.22.24-.43.48-.66.71-.07.07-.21.15-.3.13-.08-.02-.17-.16-.18-.25-.03-.21-.04-.43,0-.63.12-.63-.3-.93-.71-1.27-.38-.32-.71-.69-1.05-1.05-.04-.04-.03-.18-.06-.19-.76-.27-.31-.51.1-.77-.44-.2-.74-.48-1.12-.69-.43-.23-1.11-.58-1.12-1.33,0-.11-.11-.32-.17-.33-.86-.02-1.14-.75-1.61-1.26-.16-.17-.37-.29-.51-.46-.14-.17-.27-.36-.32-.57-.08-.3-.58-.79-.89-.8-.67,0-1.33-.02-2,0-.44.02-.73-.05-.65-.59.01-.08-.06-.17-.09-.26-.06,0-.11,0-.17,0-.02.27-.03.54-.07.81-.03.15-.11.41-.19.41-.24.02-.65.03-.72-.1-.19-.4-.47-.27-.79-.25-.02.16-.03.31-.05.46-.01.09,0,.22-.05.25-.42.19-.84.36-1.31.56-.02-.3-.03-.54-.05-.83-.15-.01-.3-.05-.45-.03-.1,0-.2.08-.31.13.06.08.16.15.19.25.08.24.26.61.18.7-.25.25-.35.69-.83.71-.17,0-.35.19-.5.32-.33.3-.63.63-.96.93-.07.06-.19.06-.31.09.12.63-.31.94-.68,1.3-.13.13-.14.39-.18.6-.05.26.13.62-.33.71-.07.01-.12.27-.12.42-.01.53,0,1.05-.01,1.58,0,.24.11.55-.29.63-.02,0-.04.28-.01.28.48.16.32.55.24.83-.03.11-.37.13-.58.19-.08.02-.16.05-.32.09.92.6.4,1.45.53,2.18,0,.05,0,.14-.02.15-.67.3-.33.95-.48,1.44-.34.11-.82-.11-.93.45-.01.05-.32.04-.5.06-.21.02-.42.05-.63.07,0,.07,0,.14,0,.21.25.02.5.04.74.05.19,0,.39-.02.58.01.12.02.23.11.34.17-.07.12-.13.25-.2.36-.05.08-.19.15-.18.21.07.6-.41.8-.76,1.1-.06.05-.13.14-.13.2.02.6-.4.85-.8,1.17-.37.3-.65.72-.98,1.09-.05.06-.14.15-.19.13-.58-.18-.71.42-1.07.61-.18.1-.35.24-.54.28-.33.07-.75-.13-.91.39-.02.06-.23.04-.34.09-.17.08-.32.19-.5.26-.18.07-.37.13-.56.17-.3.05-.67-.14-.82.34-.03.09-.42.07-.64.08-.25.02-.55-.08-.62.31,0,.05-.12.12-.16.11-.61-.19-.71.47-1.11.74.13.02.28.02.4.07.17.07.33.18.5.25.18.07.36.14.55.18.3.05.68-.13.82.35.02.07.31.08.48.1.31.03.62-.06.87.31.11.16.59.08.89.12.3.04.7-.15.79.37,0,.05.28.09.42.09.7,0,1.39,0,2.08,0,.15.36-.07.81.44.96.09.03.05.51.07.84-.44.02-.81.04-1.23.06-.02.31-.29.64.23.8.07.02.11.19.11.3,0,.05-.11.16-.17.15-.11,0-.3-.05-.31-.11-.06-.4-.35-.32-.6-.32-.47,0-.95,0-1.42,0-.28,0-.61.11-.72-.32-.02-.07-.31-.07-.47-.1-.45-.09-.98.23-1.37-.35-.09-.14-.7.06-1.07.13-.13.02-.24.13-.36.2-.05-.12-.12-.23-.15-.35-.03-.13-.03-.27-.04-.41h-1.31c.5.46.9.81,1.27,1.19.08.09.12.36.06.43-.66.64-1.43,1.18-1.98,1.89-.3.39-.61.29-.92.38l.05.12c-.21.11-.42.2-.62.32-.27.17-.62.32-.76.57-.16.29-.34.29-.59.31-.33.03-.75-.17-.9.37-.02.06-.32.05-.49.07-.29.03-.65-.13-.78.32-.02.06-.25.09-.38.09-1.63,0-3.26.01-4.9,0-.16,0-.31-.18-.48-.26-.11-.06-.23-.13-.35-.14-.31-.02-.63.01-.95-.02-.14-.02-.28-.13-.42-.21-.04-.02-.04-.12-.08-.13-.44-.19-.89-.36-1.33-.54-.12-.05-.22-.12-.33-.18.08-.11.15-.22.23-.33.05-.07.11-.14.17-.21-.09-.05-.18-.14-.28-.15-.17-.03-.35,0-.53,0q-.85,0-1.03-.82c-.62.06-.92-.37-1.26-.81-.32-.4-.78-.69-1.16-1.04-.07-.06-.11-.17-.12-.27-.02-.25-.14-.41-.3-.62-.31-.39-.4-.97-.55-1.47-.02-.07.13-.19.21-.29.06-.07.12-.14.18-.21-.09-.06-.18-.13-.28-.16-.1-.03-.21,0-.31-.02-.09-.03-.2-.09-.22-.16-.02-.08.02-.26.07-.27.55-.18.28-.64.32-.98.01-.08-.11-.17-.17-.26-.06.09-.15.16-.18.26-.03.1.02.22-.02.31-.04.09-.13.22-.21.23-.08,0-.27-.13-.26-.16.1-.41-.41-.97.33-1.24.21-.08.41-.35.48-.58.05-.17-.05-.44-.17-.61-.21-.3-.46-.58-.9-.48-.03-.15-.06-.3-.09-.45.41-.08.3-.41.31-.67.01-.77,0-1.54,0-2.32,0-.25-.05-.53.32-.63.08-.02.11-.29.14-.45.06-.32-.19-.76.36-.89.04-.01.06-.19.07-.29.02-.21-.06-.48.29-.51.05,0,.12-.1.12-.14-.06-.86.76-1.09,1.15-1.62.04-.05.14-.09.14-.13-.06-.75.71-.94.97-1.47.03-.06.15-.12.22-.11.57.07.72-.47,1.07-.71.1-.07.23-.21.32-.19.54.11.64-.44.98-.61.13-.07.24-.22.38-.24.25-.03.46-.01.56-.33.03-.1.36-.11.56-.14.28-.05.64.13.78-.32.02-.08.31-.07.48-.1.46-.07,1.03.22,1.34-.4.03-.07.26-.05.4-.05.95,0,1.9.02,2.84-.01.5-.02.72.13.66.64-.03.22,0,.45,0,.73-.24.01-.43,0-.61.04-.1.02-.18.11-.27.16.08.07.15.18.24.19.59.11,1.09-.15,1.41-.64.15-.23.36-.43.58-.61.06-.05.24.04.36.09.17.08.31.23.48.26.34.07.8-.15.94.41.01.04.19.06.29.07.23.02.51-.07.55.31,0,.04.12.12.15.11.51-.19.65.39,1.01.49.02,0,0,.39-.09.47-.34.26-.35.55.01.81.15.11.24.3.42.52.05-.18.08-.28.12-.38.07-.19.13-.52.23-.53.27-.04.53-.14.82.22.23.29.33.53.39.87.04.2.27.37.44.53.2.19.43.34.64.52.07.06.18.15.18.23,0,.58.4.86.81,1.16.08.06.09.24.11.37.05.35-.15.76.35.99.11.05.06.45.08.7.02.23-.09.51.3.56.06,0,.12.22.13.35.02.28,0,.55,0,.86.36,0,.72.24.84-.28,0-.03.04-.06.07-.07.52-.18,1.04-.35,1.54-.52.26-.28.52-.54.76-.83.26-.31.68-.49.69-1.03,0-.24.4-.47.62-.7.07-.07.18-.13.19-.21.04-.32-.02-.66.43-.79.07-.02.04-.39.06-.59.03-.25-.12-.59.32-.66.05,0,.1-.2.1-.32.01-.39,0-.77,0-1.16,0-.28-.11-.61.31-.74.07-.02.1-.28.1-.42,0-.88.06-1.76-.01-2.63-.06-.65.34-.94.73-1.29.05-.04.1-.09.2-.17-.71-.26-.62-.98-.41-1.25.4-.53.37-1.37,1.13-1.64.06-.02.15-.13.14-.18-.07-.61.4-.82.76-1.14.36-.31.69-.67.98-1.05.24-.31.3-.25.57,0,.2.19.67.13,1.01.14.06,0,.15-.28.15-.43,0-.1-.14-.2-.21-.3-.07-.11-.19-.23-.17-.33.02-.09.19-.2.29-.2.27-.01.52,0,.61-.34.02-.06.22-.05.33-.09.17-.08.32-.2.49-.26.27-.09.56-.15.9-.24.05.52.09.93.13,1.34.06,0,.12,0,.18,0,.03-.12.1-.25.07-.36-.17-.56.24-.88.51-1.26.05-.07.18-.08.28-.1.12-.02.31.02.35-.05.45-.64,1.11-.32,1.67-.37.52-.04,1.05,0,1.63,0,.02.29.03.53.05.73.23.2.43.37.53.46.34-.11.62-.19.9-.3.09-.04.23-.15.23-.22,0-.6.4-.86.82-1.16.22-.16.34-.45.55-.64.11-.1.3-.11.45-.17.12-.04.24-.09.36-.14-.08-.08-.2-.15-.25-.25-.06-.13-.14-.36-.08-.42.33-.34.7-.65,1.05-.97.06-.06.15-.13.15-.19-.02-.6.52-.78.81-1.15.21-.28.67-.48.57-1-.03-.17.26-.43.45-.6.38-.35.92-.59,1.15-1.01.29-.54,1.12-.69,1.02-1.48-.01-.08.12-.18.19-.26.06-.07.21-.15.2-.19-.17-.52.37-.67.55-1,.06-.12.37-.11.57-.14.22-.04.45-.05.68-.07,0-.06,0-.12,0-.19-.19-.02-.38-.03-.56-.08-.11-.03-.27-.12-.28-.21-.02-.09.1-.22.17-.32.37-.5,1.13-.7,1.13-1.52,0-.19.28-.38.45-.55.21-.21.45-.39.67-.59.05-.04.13-.1.13-.15.01-.84.82-1.07,1.22-1.62.05-.07.12-.15.12-.21-.05-.59.45-.77.76-1.12.23-.26.64-.43.6-.93-.01-.2.28-.44.46-.64.17-.2.38-.36.55-.56.12-.14.26-.31.27-.47.01-.33.15-.43.45-.42.33.01.67.02,1,0,.11,0,.22-.1.33-.16-.11-.07-.22-.16-.34-.2-.13-.03-.28,0-.41,0-.04-.07-.1-.14-.08-.15.3-.39.37-.88.68-1.29.36-.47,1.12-.67,1.06-1.48-.01-.17.28-.38.46-.55.21-.21.45-.39.67-.59.05-.04.12-.1.12-.15-.02-.62.49-.83.85-1.18.65-.62,1.23-1.33,1.85-2,.05-.06.14-.13.2-.13.6.06.78-.43,1.13-.75.25-.23.44-.62.94-.61.24,0,.51-.27.71-.47.34-.35.6-.79.97-1.09.2-.16.56-.13.89-.19.05.36.08.61.11.87.07,0,.14,0,.21,0,.02-.27.11-.55.05-.8-.15-.6.31-.91.56-1.31.03-.04.14-.07.19-.06.53.16.67-.37.97-.58.4-.28.67-.73,1-1.11.04-.04.13-.07.19-.07.56.04.74-.49,1.1-.7.34-.2.88-.05,1.34-.02.09,0,.17.16.26.25.04-.07.13-.14.13-.2-.02-.18-.02-.46-.12-.51-.48-.26-.48-.38.03-.61.24-.11.37-.44.55-.67.05-.06.13-.15.19-.15.58.03.82-.42,1.17-.76.17-.16.5-.16.8-.24.02-.21.04-.45.07-.73.9.12,1.14-.74,1.7-1.14.35-.25.5-.8,1.08-.68.35-.58,1-.37,1.63-.51-.18-.15-.27-.19-.33-.27-.07-.1-.16-.22-.17-.33,0-.05.18-.18.26-.16.57.12.68-.46,1.03-.67.36-.21.48-.73,1.05-.72.18,0,.39-.26.56-.43.36-.37.71-.77,1.06-1.15.05-.06.14-.13.2-.13.8,0,1.01-.77,1.53-1.13.08-.06.15-.19.22-.18.6.06.77-.47,1.14-.74.48-.35.68-1.09,1.46-1.06.2,0,.43-.28.61-.46.2-.2.33-.47.54-.65.09-.08.31-.04.44,0,.08.03.12.17.19.28.08-.06.15-.1.15-.13-.02-.83.72-1.11,1.15-1.63.26-.32.61-.42.99-.55.36-.12.71-.49.89-.85.22-.44.55-.33.82-.36.42-.46.79-.91,1.2-1.31.26-.25.49-.57.97-.51.17.02.4-.25.56-.43.2-.22.35-.47.53-.71.02-.03.05-.08.07-.07.61.09.94-.66,1.6-.5.29.07.62-.02.93-.03,0-.07,0-.14,0-.22-.2-.03-.41-.04-.61-.09-.1-.03-.21-.12-.24-.21-.03-.07.02-.21.07-.28.12-.14.27-.37.4-.37.5,0,.78-.46,1.21-.51.35-.04.51-.12.5-.49,0-.13.11-.38.17-.38.84-.02,1.09-.79,1.6-1.22.11-.1.33-.07.46-.15.15-.09.35-.22.37-.36.06-.31.03-.63,0-.94,0-.12-.11-.23-.18-.34-.09-.15-.18-.3-.27-.44-.1-.16-.2-.32-.29-.48-.05-.08-.13-.17-.14-.26-.02-.29.06-.61-.36-.7-.04,0-.05-.19-.07-.29-.02-.12.02-.27-.04-.36-.37-.66-.37-.65-.42-1.36-.04.02-.09.05-.13.07-.24-.5-.46-1.01-.74-1.48-.31-.52-.6-1.04-.45-1.66q-.97-.22-.44-.83c-.06-.04-.12-.1-.17-.1-.49.04-.78-.09-.7-.67.01-.07-.14-.16-.22-.24-.07-.08-.21-.17-.21-.25.03-.56-.35-.82-.74-1.08-.06-.04-.14-.14-.14-.2.06-.59-.38-.84-.75-1.14-.06-.05-.12-.15-.11-.21.07-.59-.39-.79-.74-1.08-.1-.08-.11-.26-.17-.4-.06-.15-.12-.31-.19-.45-.06-.12-.14-.24-.2-.36.13-.06.26-.13.39-.16.13-.03.27-.03.43-.04v-.73c-.3.02-.66-.26-.81.27-.02.06-.38.1-.39.08-.24-.56-1.1-.68-1.01-1.49.02-.15-.26-.35-.42-.5-.38-.35-.77-.69-1.15-1.04-.06-.06-.15-.13-.15-.19-.02-.8-.78-1.03-1.14-1.56-.22-.33-.74-.44-.68-1,.02-.17-.25-.4-.41-.57-.34-.35-.71-.68-1.05-1.03-.24-.24-.44-.52-.69-.75-.36-.35-.75-.66-1.11-1.01-.38-.38-.72-.79-1.09-1.17-.34-.35-.7-.68-1.06-1.01-.36-.33-.73-.65-1.08-1-.17-.17-.06-.74.17-.85.26-.13.27-.24.02-.38-.08-.05-.17-.1-.23-.17-.06-.07-.09-.16-.07-.13Zm-8.7,53.52s.02-.09,0-.17c-.04-.14-.1-.26-.15-.39-.08.09-.15.23-.24.26-.15.04-.33.02-.47-.03-.08-.03-.12-.16-.19-.25-.06,0-.12.02-.18.03,0,.37,0,.74,0,1.11,0,.27.05.52-.3.7-.26.13-.21.45.04.68.06-.06.1-.09.13-.13.18-.24.76-.39.9-.19.24.32-.05.4-.27.5-.04.02-.03.15-.07.18-.25.22-.49.45-.76.63-.31.21-.71.3-.96.56-.34.34-.53.84-1.14.78-.05,0-.13.05-.17.1-.33.37-.65.77-.99,1.12-.19.19-.43.47-.65.47-.55-.01-.7.45-1.02.7-.36.29-.6.77-1.2.66-.18-.04-.37.01-.55.02.04.05.07.09.11.14-.21.35-.39.73-.63,1.06-.16.22-.41.5-.63.51-.56.04-.77.46-1.12.76-.32.28-.59.77-1.16.57-.08-.03-.18-.02-.26,0-.09.03-.16.1-.24.15.08.07.14.18.23.2.16.05.39-.02.51.07.33.27.62.6.92.91.17.18.46.39.46.59,0,.79.71,1.03,1.12,1.47.26.27.31.34.03.58-.13.11-.18.32-.22.5-.01.07.14.24.2.23.18-.03.36-.12.54-.18.14-.05.36-.19.42-.14.35.31.65.66.98,1,.36.37.71.74,1.07,1.11.36.36.86.62.72,1.13.34.38.61.7.91.99.69.66,1.42,1.28,2.1,1.96.64.64,1.22,1.33,1.85,1.99.21.22.48.4.73.58.56.41.6.67.16,1.1.19.2.38.39.52.55.69-.42.94-1.38,1.95-1.27.05-.39-.08-.83.41-.99.02,0,.04-.1.03-.15-.08-.56.4-.75.7-1.05.34-.33.73-.63,1.06-.97.37-.38.67-.82,1.04-1.2.31-.32.79-.51.74-1.08,0-.05,0-.12.04-.15.47-.47.93-.94,1.41-1.39.18-.17.38-.4.6-.45.58-.13.89-.41,1-1.02.02-.09.05-.22.12-.27.43-.28.83-.55.78-1.15,0-.06.12-.14.19-.21.37-.35.74-.7,1.1-1.06.51-.52,1.04-1.02,1.51-1.57.41-.48,1.18-.7,1.16-1.52,0-.07.12-.15.19-.22.36-.34.74-.67,1.08-1.02.35-.36.66-.77,1.01-1.14.17-.18.4-.45.58-.43.58.06.69-.48,1.05-.64-.15-.19-.27-.35-.4-.51.27-.11.53-.21.82-.33.09-.28-.13-.72.4-.88.21-.06.34-.34.51-.52.48-.51.96-1.02,1.46-1.51.32-.31.75-.53.73-1.07,0-.08.04-.18.09-.24.44-.45.88-.88,1.32-1.32.42-.42.82-.85,1.26-1.23.08-.07.33.01.48.06.07.02.1.14.08.11.43-.18.79-.32,1.14-.47-.21-.14-.42-.16-.61-.22-.09-.03-.22-.13-.23-.21-.01-.08.08-.21.16-.27.22-.2.47-.35.67-.56.17-.18.44-.43.42-.62-.05-.54.38-.73.64-1.01.49-.56,1.06-1.04,1.6-1.56.13-.12.39-.26.38-.36-.05-.45.19-.71.49-.97.14-.12.3-.21.42-.34.32-.33.51-.84,1.11-.77.05,0,.12-.01.15-.05.35-.45.67-.95,1.4-.92-.12-.15-.28-.2-.31-.29-.05-.13-.06-.36.01-.42.37-.3.8-.55.75-1.13,0-.06.07-.15.13-.2.23-.2.49-.37.7-.59.51-.53.97-1.1,1.49-1.62.49-.49,1.02-.93,1.53-1.4.04-.04.05-.13.06-.19.16-.81.47-1.07,1.29-1.07.25,0,.49,0,.74,0,.65,0,.68-.05.53-.73-.18-.02-.4.02-.55-.06-.11-.06-.21-.36-.16-.42.27-.33.57-.65.9-.91.4-.31.81-.57.8-1.16,0-.07.13-.14.18-.22.25-.38.63-.51,1.03-.47.08-.31.08-.59.21-.79.2-.28.49-.49.74-.74.33-.34.62-.74,1-1.03.41-.31.84-.55.78-1.16,0-.03,0-.08.03-.1.48-.47.96-.94,1.43-1.41.4-.4.72-.94,1.2-1.16.51-.23.74-.5.98-.99.29-.59,1.25-.75,1.2-1.65,0-.05.12-.1.18-.16.36-.35.72-.7,1.08-1.06.43-.43.87-.86,1.34-1.32.02-.15-.04-.44.08-.59.42-.49.9-.92,1.36-1.38.49-.49,1.24-.78,1.24-1.64,0-.05.1-.09.13-.14.1-.15.25-.31.26-.47.04-.4.01-.81.01-1.21,0-.87-.21-1.14-1.05-1.33-.08-.02-.2-.05-.22-.11-.12-.38-.43-.29-.7-.3-.14,0-.35.04-.41-.03-.3-.38-.44-.31-.86-.05-.35.22-.7.24-.63.75,0,.04-.04.12-.07.13-.36.09-.45.7-.97.52-.05-.02-.15.02-.19.06-.2.23-.36.49-.57.69-.21.21-.44.43-.71.52-.23.09-.49.03-.62.35-.07.18-.29.31-.45.46-.21.18-.45.53-.63.5-.53-.09-.73.34-.99.56-.53.44-.79,1.22-1.65,1.24-.06,0-.12.14-.19.21-.21.22-.4.56-.65.61-.29.06-.64-.13-1.03-.24,0,0-.03.14-.06.28-.03.12-.03.32-.08.34-.37.11-.33.39-.35.67,0,.07-.01.18-.05.19-.58.21-.71,1.1-1.5,1.01-.06,0-.13.09-.18.15-.23.23-.45.46-.68.69-.15.15-.34.43-.45.4-.59-.14-.72.41-1.04.64-.55.39-.78,1.22-1.64,1.19-.05,0-.15.07-.15.11-.03.35-.29.26-.51.31-.14.03-.25.16-.38.24-.11.06-.24.18-.32.15-.09-.03-.17-.18-.2-.3-.05-.16-.06-.34-.08-.51-.07,0-.14,0-.21,0-.02.34-.05.68-.06,1.02-.01.31.05.61-.33.79-.22.1-.38.35-.55.54-.28.32-.48.75-1.03.69-.07,0-.17.04-.23.09-.3.3-.58.61-.88.9-.12.11-.27.19-.41.28-.05-.17-.1-.34-.15-.51-.07-.25-.14-.51-.21-.76-.06.25-.12.5-.16.75-.06.4.16.84-.39,1.12-.35.18-.66.53-.88.87-.26.4-.37.47-.61,0-.05-.11-.37-.1-.56-.11-.06,0-.12.09-.18.14.09.08.23.14.26.23.05.14.08.43.03.45-.54.24-.69,1.1-1.47.96-.04,0-.09.09-.14.13-.51.41-.75,1.17-1.58,1.14-.04,0-.1.03-.13.07-.17.21-.3.57-.51.63-.42.11-.95.21-1.31.04-.27-.13-.69-.5-.56-1.01,0-.03-.1-.1-.19-.18-.27.52.21,1.24-.55,1.6.48.09.92.07,1.35.1.14.01.26.18.39.28-.12.08-.24.19-.37.25-.14.05-.35,0-.45.09-.2.18-.32.43-.5.63-.19.21-.4.53-.63.56-.8.09-1.12.73-1.58,1.21-.06.07-.19.15-.25.12-.09-.03-.18-.14-.22-.23-.06-.19-.08-.4-.13-.62-.25.2-.45.33-.6.5-.2.23-.36.5-.52.76-.12.2-.22.41-.32.62-.04-.02-.09-.03-.13-.05-.01.24-.03.48-.04.72-.34.13-.73-.02-.93.45-.12.29-.53.46-.78.71-.35.34-.6.84-1.15.67-.27.31-.47.63-.75.83-.28.2-.42.67-.91.52-.05-.02-.16.06-.21.12-.34.37-.68.75-1.02,1.11-.16.17-.34.45-.52.45-.6.03-.89.38-1.19.82-.15.21-.4.52-.6.51-.8-.04-1,.72-1.5,1.06-.36.25-.53.77-1.1.74-.08,0-.18.08-.24.15-.33.36-.63.73-.98,1.07-.06.05-.3-.07-.44-.13-.07-.03-.11-.13-.27-.35.01.83-.45,1.2-.92,1.57-.19.15-.34.35-.47.56-.19.3-.35.29-.54.01-.25-.35-.91-.37-1.28.04.25.02.45.04.64.06.32.03.36.36.21.44-.53.27-.71,1.08-1.48.97-.05,0-.11.06-.16.11-.33.38-.65.77-1.01,1.13-.05.05-.28-.04-.41-.1-.14-.06-.25-.18-.38-.26-.16-.09-.33-.16-.5-.23.12-.14.24-.27.44-.51Zm-24.52,26.14c-.19.01-.33,0-.47.03-.12.03-.23.1-.34.15.07.08.14.16.22.23.19.17.42.32.57.53.05.07,0,.31-.09.39-.2.21-.47.35-.68.55-.18.17-.45.38-.45.56.01.62-.46.83-.81,1.15-.19.17-.52.4-.5.57.06.48-.26.71-.51.96-.25.25-.56.57-.88.61-.86.13-.87.07-.87.96,0,.12.03.26,0,.37-.05.16-.17.29-.24.44-.16.36-.73.44-.63.98.02.09-.11.22-.19.32-.21.25-.64.51-.62.72.06.56-.44.67-.65.99-.28.44-.76.74-1.12,1.08.46.68,1.38.97,1.3,1.91.29.06.58.05.78.19.24.17.39.48.61.69.53.5,1.08.98,1.61,1.48.16.15.44.36.42.51-.06.49.31.71.55.96.12.12.51.1.69,0,.38-.23.53-.81,1.13-.72.06,0,.15-.11.22-.17.08-.07.17-.22.24-.22.6.06.81-.4,1.12-.76.07-.08.26-.07.4-.1,0,.14.04.4,0,.41-.64.19-.25.7-.33,1.05-.01.05.11.14.17.21.06-.08.19-.18.18-.25-.11-.55.38-.74.66-.99.25-.22.3-.24,0-.42-.1-.06-.16-.4-.14-.41.35-.16.46-.73,1-.56.05.02.16-.07.2-.13.29-.38.55-.81,1.15-.73.06,0,.14-.12.2-.19.19-.21.34-.47.56-.64.27-.21.76,0,.98.4.3-.3.55-.74.69-1.1.04-.1.22-.17.34-.22.15-.06.34-.06.46-.15.52-.42.78-1.21,1.64-1.16.05,0,.12-.13.17-.21.38-.75,1-.86,1.56-.3.51-.31,1.02-.61,1.55-.93-.09-.11-.12-.15-.15-.19-.1-.11-.22-.22-.31-.34-.02-.02.11-.19.12-.18.14.06.25.17.39.22.22.08.46.13.69.19.02-.06.04-.12.06-.19-.09-.06-.2-.11-.26-.19-.07-.1-.18-.28-.14-.33.18-.22.37-.51.61-.59.65-.21,1.28-.44,1.78-.92.08-.08.16-.16.22-.25.17-.28.34-.26.52-.02.26.34.83.39,1.34.03-.29-.05-.5-.07-.7-.12-.09-.02-.2-.09-.23-.16-.03-.08,0-.24.06-.28.33-.23.69-.43,1.03-.63.03.04.06.08.08.12.28-.4.48-.88,1.1-.87.11,0,.22-.12.32-.21.23-.21.41-.57.67-.62.29-.06.64.14,1.03.24.02-.27.05-.67.08-1.06.3-.07.64-.05.8-.21.44-.42.43-.45.65.09h.72c0-.33-.02-.62,0-.91.01-.13.15-.37.19-.36.55.11.69-.46,1.2-.62-.86-.3-.36-1.01-.62-1.46-.07-.01-.12-.02-.17-.03-.2-.08-.55-.14-.57-.25-.05-.26-.19-.58.26-.78.37-.17.64-.57.94-.88.04-.04,0-.16,0-.24-.37.02-.74,0-1.1.08-.17.04-.29.28-.5.5,0,.12-.02.36-.04.66-.16-.02-.33,0-.41-.07-.33-.29-.62-.62-.93-.93-.39-.4-.77-.8-1.18-1.18-.24-.22-.19-1.21.09-1.38.07-.05.12-.13.18-.2-.09-.05-.18-.15-.28-.16-.2,0-.47-.11-.54.25-.01.06-.27.07-.41.11-.07-.41-.4-.34-.68-.39-.11-.02-.2-.22-.28-.34-.1-.17-.16-.38-.29-.52-.32-.35-.67-.65-.99-.99-.35-.37-.68-.78-1.03-1.15-.38-.41-.78-.8-1.18-1.18-.38-.37-.78-.72-1.18-1.07-.18-.16-.46-.3-.51-.5-.05-.18.14-.42.26-.72-.47-.53-1.44-.59-1.88-1.4-.08.21-.08.38-.11.54-.03.12-.08.25-.16.34-.43.49-1.17.76-1.18,1.58,0,.06-.06.12-.11.16-.23.18-.49.33-.71.53-.18.16-.42.37-.43.57-.02.39-.17.64-.46.88-.46.39-.87.85-1.27,1.24-.1.27-.14.54-.29.74-.25.35-.74.52-.67,1.08,0,.07-.08.18-.15.24-.22.19-.47.34-.67.54-.19.2-.45.46-.45.69,0,.54-.48.66-.71.99-.23.33-.73.46-.66,1.01.01.09-.17.2-.26.3-.09-.1-.22-.19-.26-.31-.06-.17-.06-.37-.09-.56-.06,0-.12,0-.17,0-.03.15-.06.31-.1.46-.04.14-.06.32-.16.4-.4.35-.9.62-.73,1.3-.32.03-.57.06-.82.08-.02.28-.04.51-.07.78Zm-49.98,24.82c.1.05.24.09.28.17.06.13.05.3.06.45-.42.05-.32.37-.35.63-.01.09-.06.2-.13.25-.37.3-.78.55-.78,1.12,0,.08-.14.17-.21.25-.33.36-.83.63-.66,1.27.06.22-.04.37-.28.53-.4.27-.71.67-.57,1.24.06.25,0,.71.09.74.49.16.32.52.33.82.02.47-.02.95.01,1.42.03.35-.23.83.36.99.04.01.05.19.06.29,0,.51.01,1.02,0,1.53,0,.12-.09.32-.15.33-.37.05-.26.32-.26.53,0,.09.1.18.16.28.07-.06.15-.11.21-.18.18-.2.33-.43.53-.6.06-.05.32,0,.38.09.21.29.66.47.52.96-.01.04.07.11.11.15.24.24.46.51.73.71.51.37.73,1.15,1.54,1.11.06,0,.13.05.17.1.3.38.56.82,1.16.77.04,0,.12.04.13.07.09.51.49.31.79.36.2.03.39.08.58.15.19.07.37.25.55.25,1.09.02,2.17.01,3.26,0,.14,0,.37,0,.4-.06.21-.49.63-.32.98-.36.13-.02.35-.04.37-.12.15-.42.48-.32.78-.34.26-.01.54.09.66-.32.06-.21.35-.48.56-.49.39-.03.66-.15.88-.46.11-.16.24-.31.38-.44.37-.34.78-.63,1.11-1.01.1-.11.04-.51-.08-.64-.25-.26-.48-.55-.97-.57-.22-.01-.7-.25-.9-.43-.29-.27-.55-.33-.88-.38-.06,0-.14-.15-.14-.24-.01-.3,0-.56-.36-.72-.11-.05-.09-.69-.04-.7.56-.13.31-.63.44-.94.26-.06.65-.05.73-.2.16-.34.4-.33.68-.35.09,0,.17-.09.26-.14.18-.1.34-.24.53-.28.32-.07.75.15.91-.36.02-.05.22-.05.34-.07.12-.02.33-.01.34-.06.14-.55.64-.29.99-.44,0-.59,0-1.19,0-1.78,0-.08-.09-.17-.14-.25-.1-.17-.21-.34-.31-.51-.08-.14-.15-.28-.22-.41-.06-.11-.13-.22-.19-.33-.11-.19-.22-.37-.33-.56-.05-.1-.14-.22-.12-.32.09-.51-.4-.66-.62-.95-.28-.38-.74-.62-1.07-.97-.14-.15-.12-.46.2-.44.32.03.62.16.96.26.33-.7.13-1.05-.72-1.05-.18,0-.35-.01-.53.01-.11.02-.21.09-.31.14-.13.07-.26.16-.39.23-.06-.15-.15-.29-.17-.45-.04-.27-.04-.55-.05-.82-.05,0-.1,0-.15-.01-.05.08-.11.15-.16.23-.15.23-.84.3-.89.08-.1-.44-.4-.28-.65-.32-.23-.04-.61-.02-.67-.14-.15-.35-.4-.27-.65-.28-.35-.01-.9.11-1.01-.06-.38-.59-.9-.3-1.36-.37-.23-.04-.51.06-.57-.31,0-.05-.14-.11-.2-.1-.06.02-.12.12-.13.19-.03.2-.03.4-.05.65-.46,0-.86,0-1.26,0-.13,0-.36.02-.38.09-.16.46-.53.29-.84.33-.18.03-.49.05-.5.13-.07.34-.29.29-.52.3-.12,0-.27.01-.33.08-.33.36-.63.76-.98,1.11-.07.07-.41.05-.44-.01-.22-.49-.51-.27-.83-.08Zm36.84,35.75c.08.54-.16,1.02.38,1.42.23.17.41.31.63.22.12-.05.18-.31.22-.49.07-.3-.16-.73.36-.84.03,0,.06-.16.04-.18-.07-.06-.16-.12-.25-.13-.43-.01-.86,0-1.38,0Zm-38.65-35.02c.19-.19.29-.32.41-.4.33-.2.43-.75.98-.66.09.01.27-.21.31-.35.06-.25-.49-.82-.75-.85-.46-.06-.47.23-.46.56.01.41.07.84-.57.77-.34-.03-.37.24-.31.47.04.15.21.27.38.47Zm109.02-59.73c-.14.15-.26.38-.43.43-.65.21-.73.26-.62.92.02.13.26.32.39.31.27,0,.65.2.81-.23.1-.28.2-.57.32-.9-.1-.11-.27-.3-.47-.54Zm-107.42,72.91c-.16-.13-.37-.39-.64-.48-.28-.09-.61,0-.92,0-.02.05-.04.11-.05.16.48.14.53.47.52.88-.02.63.07.67.61.53.17-.39.32-.73.48-1.1Zm119.97-87.17c.15.1.32.15.36.25.12.32.4.42.62.29.26-.14.51-.4.63-.67.12-.25,0-.46-.37-.53-.59-.11-.85.29-1.25.66Zm-47.09,99.22c.14-.28-.14-.79.43-.85-.02-.09-.04-.27-.05-.27-.21.02-.49-.02-.62.1-.37.34-.62.83-1.23.8-.04,0-.08.09-.2.22h1.67Zm16.62-64.66c-.28.12-.52.22-.75.33-.11.05-.21.12-.31.18.1.06.21.19.31.18.43-.05.56.15.53.54,0,.1.06.21.1.34.84-.82.96-.76.13-1.57Zm-13.08,15.14c-.03-.16-.03-.21-.05-.22-.26-.21-.75-.39-.04-.66.04-.02.09-.13.07-.17-.03-.06-.11-.14-.17-.15-.31-.04-.59-.06-.59.41,0,.17-.14.35-.26.49-.23.25-.2.88.17,1.2-.12-.73.2-1.01.88-.89Zm-89.99-21.51c.16-.34-.1-.82.45-.88-.05-.1-.07-.26-.14-.29-.12-.05-.27-.02-.41-.02-.58,0-.61.06-.58.8.02.57.37.41.7.39Zm79.4,10.6c-.06.04-.12.09-.19.13-.09.32-.1.54.28.84.26.2.46.39.71.25.13-.07.13-.41.17-.63.01-.07.02-.15,0-.21-.04-.1-.1-.19-.15-.28-.07.06-.17.1-.21.17-.2.37-.37.33-.53-.02-.04-.08-.06-.17-.09-.25Zm27.39-9.55v.57c.22.24.32.42.48.5.19.08.42.07.63.09.01-.09.02-.19.03-.28-.58-.06-.27-.58-.44-.88h-.69Zm11.38-30.09c-.15-.11-.2-.16-.26-.18-.28-.09-.71.11-.74-.43,0-.02-.14-.07-.18-.04-.06.04-.13.12-.13.19-.01.32,0,.65,0,.91.68.39.81-.3,1.31-.45Zm5.36,32.07c.28-.14.49-.33.71-.34.37-.02.42-.2.41-.5-.01-.39-.29-.33-.52-.31-.36.04-.77.78-.64,1.12.01.04.08.05.03.02Zm-66.84,77.39s0,0,0,0c-.21,0-.42-.01-.63,0-.06,0-.13.1-.15.17-.01.04.04.12.08.17.11.13.22.26.35.36.07.05.18.03.28.05.04-.48.4-.36.69-.39.07,0,.14-.11.2-.17-.07-.06-.13-.17-.2-.18-.21-.02-.42,0-.63,0Z"/>
  <path d="m30.39,21.44c0,.39-.04.78,0,1.16.07.54-.46.9-.66.93-.57.09-.84.45-1.15.82-.04.05-.11.1-.17.1-.81-.05-1.02.75-1.55,1.1-.08.05-.13.2-.2.2-.81.01-1.05.77-1.57,1.17-.06.05-.13.16-.18.15-.84-.08-1,.78-1.54,1.1-.12.07-.24.22-.36.22-.43-.02-.45.24-.56.57-.1.3-.48.73-.71.71-.53-.03-.66.41-.96.61-.49.33-.89.81-1.3,1.25-.34.37-.63.79-.98,1.15-.34.35-.73.65-1.07.99-.53.53-.98,1.14-1.57,1.59-.33.25-.39.49-.43.83,0,.08-.2.18-.31.19-.31.03-.63,0-.95.02-.16,0-.31.05-.5.14.7.32.47.91.41,1.37-.03.25-.4.46-.6.69-.08.09-.19.21-.2.32-.03.26.03.54-.34.61-.05,0-.09.14-.1.22-.02.28.02.55-.36.66-.08.03-.07.35-.12.53-.03.1-.1.22-.19.26-.06.03-.2-.03-.27-.08-.11-.09-.2-.22-.29-.33-.04.17-.08.35-.12.52,0,.05,0,.1.09.11.12.17.31.33.35.52.05.24.13.59-.32.63-.03,0-.08.04-.08.05.14.62-.69.94-.48,1.59.05.14,0,.32,0,.47.05.4-.13.56-.51.49-.15-.03-.29-.12-.44-.18.09-.13.23-.24.25-.38.05-.23.11-.63,0-.69-.54-.32-.22-.8-.24-1.19,0-.08.39-.19.6-.3.07-.03.13-.09.19-.13,0-.05,0-.1-.01-.15-.36-.01-.73-.06-1.09-.03-.45.03-.65-.12-.6-.59.03-.29,0-.6.01-.89,0-.11.04-.3.1-.32.36-.1.3-.37.32-.63,0-.1.1-.2.16-.29.09-.15.17-.29.26-.43.1-.16.2-.31.3-.46.03-.04.1-.07.1-.1.02-.38.34-.69.4-.98.15-.79.82-1.03,1.23-1.54.05-.06.15-.13.14-.18-.09-.63.4-.87.78-1.17.05-.04.11-.11.1-.17-.02-.59.39-.83.8-1.14.37-.28.63-.69.96-1.04.36-.38.72-.75,1.09-1.12.24-.25.46-.52.73-.74.09-.08.35-.09.43-.02.24.22.42.5.66.8.22-.3.45-.55.6-.84.06-.1-.05-.29-.08-.44-.04,0-.09,0-.13,0-.04.08-.07.19-.13.25-.1.08-.22.15-.34.15-.07,0-.16-.15-.19-.25-.17-.58.36-.78.63-1.1.35-.43.72-.87,1.18-1.17.32-.21.43-.72.99-.64.18.03.44-.26.62-.45.5-.52.97-1.06,1.46-1.59.03-.04.09-.08.13-.07.85.04,1.07-.78,1.59-1.19.06-.05.13-.16.19-.15.61.07.86-.38,1.15-.77.02-.03.04-.06.07-.07.53-.19,1.06-.37,1.46-.51.26-.45.47-.82.68-1.18.03-.05.11-.11.17-.1.59.06.8-.43,1.15-.74.1-.09.28-.08.41-.15.16-.08.29-.22.45-.28.26-.09.53-.13.86-.21.03.26.01.45.08.59.07.13.25.31.36.3.15-.01.4-.2.4-.3-.01-.51.45-.65.67-.98.06-.09.23-.17.22-.23-.11-.66.32-.7.83-.67.02-.21.02-.38.05-.54.02-.09.06-.23.13-.26.51-.2,1.03-.37,1.51-.63.21-.11.41-.21.62-.32.13-.07.25-.13.37-.21.04-.02.04-.12.07-.13.47-.18.94-.36,1.41-.54.1-.04.2-.1.29-.16.14-.09.27-.19.41-.27.15-.09.34-.15.46-.28.42-.42.49.07.74.39.09-.38.15-.64.22-.94.23-.01.47-.03.75-.05-.03-.48.31-.44.63-.45.3,0,.64.09.79-.33.02-.06.22-.06.34-.09.12-.03.32-.02.34-.08.21-.52.65-.34,1.02-.39.15-.02.29-.16.42-.26.04-.03.07-.12.09-.12.63.12.97-.68,1.63-.48.2.06.42.04.52-.28.07-.25,1.2-.19,1.36.05.22.34.54.26.82.02.51-.43.78-1.3,1.7-1.1.1.02.27,0,.3-.05.31-.62.87-.35,1.33-.4.25-.03.47.01.65-.3.07-.13.62-.17.79-.04.26.2.05.41-.23.5-.04.01-.04.14-.09.17-.32.22-.46.7-.98.66-.1,0-.28.18-.3.3-.02.14.06.42.14.44.17.04.44.02.56-.09.35-.33.64-.74.98-1.08.1-.1.32-.09.49-.1.39-.01.77,0,1.16,0,0-.05,0-.11,0-.16-.18-.19-.37-.39-.59-.63-.07.12-.11.26-.21.33-.1.06-.26.08-.37.04-.06-.02-.11-.28-.06-.32.23-.21.47-.49.75-.55.24-.05.54.16.89.29.11-.13.3-.37.52-.58.1-.09.26-.15.39-.16.51-.02,1.02,0,1.53-.01.29,0,.59.1.76-.34.12-.31.78-.1,1.12.41.13-.68.63-.51,1.05-.53.07,0,.17.01.2-.03.27-.28.53-.66.83-.02,0,.02.17,0,.18-.02.27-.65.51-.24.77.09.21-.51.62-.44,1.01-.44.39,0,.77,0,1.16,0,.27,0,.56.07.69-.31.03-.08.27-.13.41-.13,3.82,0,7.65,0,11.47,0,.15,0,.3.17.46.24.18.08.36.19.54.2.95.02,1.9.05,2.84,0,.51-.03.6.45.94.59.03.01.01.27-.05.32-.42.3-.73.62-.84,1.19-.04.22-.38.71-.9.65-.36-.04-.74,0-1.1,0-.28,0-.61.1-.72-.33-.01-.06-.21-.1-.32-.1-.35-.01-.71-.05-1.05,0-.79.11-1.37-.18-1.85-1.01-.07.33-.08.5-.14.66-.04.12-.11.26-.21.3-.07.02-.19-.13-.3-.18-.11-.05-.24-.06-.36-.09-.06.4-.37.3-.62.3-2.37,0-4.74,0-7.11,0-.26,0-.58-.1-.67.31-.01.06-.24.11-.36.12-.77.01-1.54.02-2.32,0-.15,0-.29-.18-.45-.23-.21-.07-.45-.19-.63-.13-.21.07-.48.27-.53.46-.12.44-.43.33-.7.33-.42.01-.84-.02-1.26,0-.29.02-.7-.19-.78.35,0,.04-.22.07-.34.07-.33,0-.67,0-1,0-.32.02-.72-.16-.85.36-.01.06-.25.09-.38.09-.37.01-.74,0-1.11,0-.27,0-.55-.06-.71.3-.05.1-.34.09-.53.12-.43.09-.99-.24-1.27.39-.03.07-.29.05-.45.06-.31.02-.68-.1-.83.35-.02.07-.28.06-.43.09-.47.09-1.04-.25-1.4.37-.06.11-.43.03-.66.05-.23.01-.51-.09-.56.3,0,.06-.26.1-.4.13-.34.06-.78-.19-.95.38-.02.08-.39.11-.59.08-.69-.08-1.21.1-1.56.75-.06.11-.34.11-.52.14-.31.04-.69-.12-.82.35-.01.05-.15.08-.23.08-.26.03-.58-.08-.65.34,0,.04-.18.08-.28.09-.24.02-.5-.04-.57.31-.01.06-.23.11-.36.12-.28.02-.56,0-.84,0,.02.05.03.1.05.15-.21.11-.42.21-.62.32-.14.08-.26.17-.39.26-.03.02-.03.08-.06.09-.47.18-.94.36-1.41.54-.1.04-.2.1-.29.16-.14.09-.27.19-.41.27-.15.09-.31.18-.47.27-.08.05-.16.14-.25.14-.29.02-.57-.01-.72.36-.05.11-.45.08-.68.11-.29.39-.5.85-1.1.87-.1,0-.21.14-.31.22-.09.07-.18.2-.26.2-.56-.01-.82.39-1.11.76-.06.08-.21.11-.32.11-.26.02-.53.04-.79,0-.29-.05-.57-.16-.86-.25-.05-.05-.11-.09-.16-.14Zm3.28-2.78c.08.2.23.55.37.89.2-.15.38-.41.57-.41.61,0,.58-.32.5-.63-.42-.19-.75-.33-.95-.42-.15.17-.31.37-.49.58Z"/>
  <path d="m107.74,46.3c.35-.33.71-.65,1.06-.98.03-.03.04-.1.03-.15-.13-.68.33-.63.76-.62.24,0,.48-.24.57-.25.73-.08,1.47-.06,2.2-.03.2,0,.38.24.58.27.36.05.74-.02,1.1.03.2.03.39.19.59.27.18.07.38.13.57.16.29.05.64-.11.78.33.02.07.26.05.38.1.15.07.28.18.41.28.05.04.08.16.11.15.42-.04.72.36,1,.39.46.05.69.32.95.54.14.13.13.48.11.72,0,.08-.25.18-.4.2-.27.03-.54,0-.79,0,.19.45.35.83.5,1.2.19-.16.49-.29.55-.5.15-.47.49-.36.8-.37.3,0,.54-.01.76.36.24.4.72.66,1.09.99.08.07.13.2.14.31.01.27.01.47.33.63.14.07.12.47.27.67.11.21.18.44.32.61.39.45.22,1.2.5,1.49.54.56.34,1.13.35,1.68.04,1.4.03,2.81,0,4.21,0,.2-.2.38-.28.59-.08.2-.19.43-.15.62.09.55-.37.74-.61,1.07-.1.14-.23.28-.28.45-.05.18-.05.4,0,.57.17.59-.31.84-.6,1.17-.29.33-.77.5-.72,1.07,0,.08-.12.19-.19.27-.38.4-.73.84-1.17,1.17-.29.22-.44.63-.96.62-.25,0-.51.39-.75.61-.05.04-.05.16-.1.17-.48.17-.96.36-1.46.49-.26.07-.56-.05-.68.33-.02.07-.24.08-.36.14-.17.08-.32.19-.49.28-.13.06-.27.15-.41.15-1.93,0-3.86.01-5.79,0-.15,0-.3-.16-.45-.23-.19-.08-.39-.15-.6-.19-.28-.06-.67.13-.75-.35,0-.03-.05-.05-.08-.06-.44-.16-.89-.32-1.33-.48-.09-.03-.26-.07-.27-.12-.06-.37-.34-.29-.58-.36-.24-.07-.45-.26-.64-.44-.33-.3-.65-.62-.96-.95-.22-.23-.39-.49-.61-.71-.36-.35-.75-.67-1.12-1.01-.03-.03-.06-.1-.05-.14.17-.57-.46-.68-.61-1.06-.07-.19-.2-.35-.29-.54-.05-.11-.05-.32-.1-.33-.47-.1-.34-.45-.35-.75-.01-.27.06-.57-.33-.67-.06-.02-.1-.24-.1-.37-.01-.37,0-.74,0-1.1,0-.27.12-.61-.32-.71-.05-.01-.09-.21-.09-.33,0-.79,0-1.58,0-2.37,0-.09-.01-.23.03-.25.64-.3.28-.92.45-1.41.14-.01.3,0,.44-.05.14-.05.35-.16.36-.25,0-.18-.05-.42-.18-.52-.34-.29-.36-1.17.01-1.43.07-.05.17-.11.17-.17.03-.35.03-.7.41-.87-.09-.77.71-.94.99-1.47.05-.1.31-.07.47-.12.1-.03.2-.09.3-.14-.07-.08-.16-.14-.2-.24-.06-.14-.17-.36-.12-.43.26-.31.57-.59.88-.87.06-.06.24-.09.28-.06.21.2.4.42.57.65.02.03-.09.18-.16.27-.07.09-.15.18-.23.26.1.04.21.11.31.11.26.02.52,0,.78,0,.21-.63.13-.82-.51-1.23-.33-.21-.34-.37.03-.57.13-.07.18-.28.31-.37.31-.2.52-.65,1-.48.11-.63.9-.24,1.13-.76.05-.11.41-.09.63-.12.25-.03.48.03.66-.28.09-.15.52-.09.8-.12.01.14.09.34.03.41-.18.2-.47.31-.61.53-.13.2-.12.48-.18.73.05,0,.1.01.15.02Zm7.07-.32c-.21.19-.49.33-.61.55-.38.66-.92.88-1.64.76-.12-.02-.25.02-.37-.02-.1-.03-.22-.1-.28-.18-.19-.24-1.04-.42-1.14-.18-.25.55-.69.33-1.07.37-.31.03-.45-.1-.45-.42,0-.14-.12-.27-.19-.41-.06.13-.15.25-.17.38-.05.43-.51.88-.95.89-.35.01-.75-.12-.91.37-.01.03-.14.06-.19.04-.53-.15-.74.34-.97.59-.37.41-.65.83-1.28.74-.35-.05-.58.13-.49.48.15.59-.28.92-.59,1.21-.36.34-.77.58-.76,1.15,0,.08-.15.16-.22.24-.07.09-.17.18-.18.28-.06.41.15.91-.42,1.15-.06.02-.04.23-.05.35,0,.3,0,.6-.01.89,0,.13-.08.25-.13.37-.09.18-.24.35-.26.54-.04.36-.02.74,0,1.1,0,.14.02.36.09.39.44.17.32.54.33.85.02.47-.01.95.01,1.42,0,.15.09.35.2.42.33.23.31.33,0,.59-.27.23-.77.44-.59.93.1.27.37.47.57.69.06.02.13.03.19.05-.19-.57.12-.86.44-1.14.09-.08.2-.14.3-.21.07.12.17.23.2.36.04.23-.06.51.32.55.05,0,.1.2.11.31.02.19-.01.39.01.58.02.12.1.23.15.34.07-.08.14-.18.23-.22.13-.06.33-.15.41-.09.2.13.34.36.53.52.51.42.72,1.17,1.59,1.22.22.01.52.4.9.39.04,0,.11.06.11.09.07.38.37.29.62.31.22.02.61,0,.63.1.15.48.51.35.81.35.62.01,1.24,0,1.87,0,.02.35.04.59.06.93.28-.06.61-.04.73-.18.29-.37.52-.77,1.07-.77.08,0,.21-.05.22-.11.13-.44.48-.31.78-.34.2-.02.39-.06.58-.14.18-.07.34-.21.51-.29.12-.06.3-.04.37-.13.3-.41.58-.82,1.19-.74.04,0,.11-.07.15-.11.34-.39.65-.81,1.02-1.17.33-.32.78-.52.75-1.09,0-.06.02-.16.07-.19.45-.28.85-.59.83-1.2,0-.05.06-.15.11-.16.38-.08.27-.39.29-.63.02-.21-.02-.57.06-.6.54-.18.41-.62.36-.95-.11-.64.27-.98.66-1.35.07-.07.13-.17.19-.25-.11-.04-.22-.13-.31-.12-.45.06-.56-.17-.52-.55.01-.12.01-.25,0-.37-.03-.37.13-.51.49-.49.28.02.56,0,.84,0,0-.09,0-.18.01-.28-.28-.02-.57-.06-.85-.07-.46-.03-.91-.48-.92-.94-.01-.34.14-.74-.36-.91-.05-.02-.04-.23-.06-.34-.02-.12-.02-.33-.06-.34-.53-.14-.3-.59-.47-.84-.9-.9-1.79-1.79-2.75-2.75-.41-.14-.94-.29-1.44-.51-.21-.09-.37-.31-.51-.51-.05-.07-.03-.27.04-.33.23-.24.5-.44.75-.66-.19-.21-.37-.42-.55-.63Zm-5.08,21.49s0,0,0,0c-.33,0-.67-.03-.99.02-.11.01-.23.21-.27.34-.03.1.06.24.1.36.09-.09.2-.17.28-.27.18-.22,1.16-.15,1.38.06.14.13.39.17.6.2.03,0,.19-.33.14-.42-.08-.14-.28-.25-.45-.29-.25-.05-.52-.01-.78-.01Zm11-13.35c.06.05.11.1.17.16.2-.08.49-.11.59-.26.18-.27.26-.62.4-.99-.42-.33-.69.17-.97.42-.15.13-.13.45-.19.68Z"/>
  <path d="m30.2,41.84c-.13-.33-.26-.57-.33-.83-.04-.16.53-.85.69-.82.51.08.69-.38,1-.59.22-.15.34-.45.53-.64.08-.08.26-.05.38-.11.16-.07.33-.15.46-.28.2-.19.31-.18.5.04.11.14.37.21.55.21.09,0,.21-.26.24-.42.08-.42.55-.86.99-.86.26,0,.53,0,.79,0,.1,0,.27,0,.3-.06.24-.52.71-.34,1.1-.35,1.12-.02,2.25-.02,3.37,0,.2,0,.4.18.6.26.12.05.25.12.37.13.26.02.53.02.79,0,.32-.01.61.01.58.43.35.1.81-.12.94.41,0,.04.16.05.24.06.1.01.29-.02.3.02.21.52.88.25,1.19.73.15.23.45.69.97.61.15-.02.36.25.53.4.34.32.73.62.99,1,.13.19.05.54.06.82,0,.16-.01.32,0,.47.01.09.07.18.11.27.09-.06.2-.09.26-.17.18-.26.28-.18.52-.02.46.32.41.75.48,1.21.04.26.27.61.5.72.39.18.31.44.34.73.03.28-.17.66.34.74.05,0,.08.28.08.43,0,.98,0,1.96,0,2.95,0,.22-.03.41.28.53.35.13.25,1.17-.09,1.37-.08.05-.14.16-.18.26-.11.27-.19.54-.32.89-.03-.02.12.02.14.09.05.16.05.48.04.48-.38.05-.28.34-.3.57-.03.32.14.72-.35.87-.05.01-.03.2-.07.29-.08.18-.19.35-.28.53-.05.1-.13.2-.14.31-.03.24.03.51-.32.57-.05,0-.13.14-.12.2.04.59-.39.82-.78,1.13-.38.31-.63.77-1,1.08-.58.5-1.01,1.35-2,1.08-.52-.14-.68.36-1.01.56-.24.14-.37.45-.57.66-.07.07-.22.08-.33.09-.21.02-.47-.06-.51.29,0,.05-.18.14-.24.11-.09-.03-.18-.13-.22-.23-.08-.18-.09-.53-.18-.55-.32-.07-.66-.03-1-.03,0,.06-.02.13-.03.19.17.04.35.07.52.13.11.04.21.13.32.2-.07.1-.14.2-.21.3-.39.62-1.01.41-1.56.43-.4.02-.81,0-1.21,0-.32,0-.71.12-.67-.61-.58.98-1.34.49-1.97.6-.4-.68-1.07-.32-1.62-.42-.11-.02-.21-.14-.31-.21-.11-.07-.21-.18-.32-.19-.27-.02-.53.02-.61-.35-.01-.05-.18-.09-.27-.1-.24-.02-.51.03-.56-.32,0-.05-.14-.13-.21-.12-.59.04-.86-.36-1.12-.79-.03-.05-.11-.11-.16-.1-.83.04-1.02-.79-1.56-1.13-.53-.33-.38-1.12-.9-1.33-.57-.23-.21-1-.81-1.15-.04,0-.02-.2-.06-.29-.08-.18-.19-.35-.28-.53-.06-.12-.11-.24-.13-.37-.03-.21.06-.46-.29-.52-.08-.01-.11-.32-.14-.49-.05-.31.15-.72-.37-.84-.06-.01-.09-.25-.09-.38,0-1.77-.01-3.54,0-5.31,0-.15.19-.3.28-.46.07-.14.14-.28.17-.44.06-.34-.18-.79.37-.97.05-.02.03-.23.07-.34.07-.17.19-.31.27-.48.06-.11.12-.23.14-.35.03-.22-.04-.47.3-.51.05,0,.14-.14.12-.19-.15-.52.39-.67.55-1.02.01-.03.36.02.41.11.17.3.25.32.41,0,.07-.15.26-.24.32-.29Zm3.54-1.56s-.08-.04-.13-.06c-.24.31-.47.89-.75.09-.1.06-.3.15-.29.19.14.53-.32.75-.58,1.03-.37.4-.4.93,0,1.32.08.08.11.35.1.35-.38.15-.48.75-1.06.6-.31-.08-.66,0-1-.02-.39-.02-.59.1-.55.53.03.37.01.74,0,1.1,0,.22.1.52-.3.56-.03,0-.09.25-.05.28.19.18.42.33.63.5.23.19.22.35-.04.53-.11.07-.18.21-.24.33-.08.16-.15.34-.22.51-.13-.12-.25-.24-.38-.35-.03-.03-.09-.03-.14-.04.01.05.02.09.03.14-.24.09-.48.17-.71.28-.11.05-.27.13-.29.22-.03.16-.02.37.06.5.12.2.96.06,1.13-.13.09-.1.23-.14.35-.2.05.12.14.23.15.35.02.58-.02,1.16.02,1.74.02.37-.25.87.36,1.04.03,0,.05.13.05.19.04.43-.17.95.43,1.19.05.02.03.2.04.3.01.1,0,.23.05.31.26.39.53.77.81,1.14.13.17.44.34.41.45-.12.57.47.74.56,1.15.36.04.61.03.92.34.38.39.69,1.07,1.44.99.04,0,.12.04.12.08.07.39.38.33.65.36.1.01.19.11.29.17.16.08.31.19.47.23.33.08.8-.17.92.41,0,.04.19.06.29.06,1.05,0,2.1,0,3.16,0,.11,0,.3-.06.3-.11.06-.43.38-.32.64-.35.21-.02.54.02.6-.09.23-.45.62-.3.96-.34.15-.02.35-.03.43-.12.3-.39.53-.85,1.15-.79.06,0,.15-.12.21-.19.35-.36.7-.72,1.04-1.1.44-.48,1.14-.76,1.15-1.55,0-.06.07-.15.11-.16.36-.05.3-.32.33-.56.02-.12.1-.24.16-.36.08-.16.18-.3.25-.46.05-.11.03-.32.08-.34.58-.16.32-.64.39-.99.03-.14.1-.33.21-.39.31-.16.32-.25,0-.39-.33-.15-.3-.32-.01-.51.11-.07.2-.23.22-.36.03-.33.02-.67,0-1,0-.11-.07-.29-.13-.3-.39-.05-.29-.33-.29-.56-.01-.28-.06-.58,0-.84.18-.69-.66-1-.56-1.64-.39-.07-.3-.4-.36-.66-.02-.1-.13-.18-.2-.26-.22-.24-.52-.44-.64-.72-.11-.26-.04-.52-.39-.73-.48-.3-.83-.81-1.25-1.21-.16-.15-.33-.32-.52-.41-.41-.19-.84-.33-1.26-.49-.03-.01-.06-.05-.06-.08,0-.43-.32-.31-.56-.34-.1,0-.27-.03-.28-.08-.13-.48-.51-.31-.82-.35-.18-.02-.49-.04-.51-.13-.1-.35-.35-.29-.58-.29-.86,0-1.72.01-2.58-.01-.14,0-.4-.19-.39-.26.06-.54-.41-.69-.52-.84-.22.15-.43.3-.69.47.1.03.21.1.31.09.4-.03.55.12.55.54,0,.47-.29.39-.58.45-.53.11-1.04.3-1.56.47-.04.01-.04.12-.08.18-.06.08-.12.19-.19.2-.3.05-.6.02-.79.38-.06.11-.46.05-.69.03-.05,0-.13-.17-.12-.25.01-.08.11-.18.19-.2.2-.04.4-.04.65-.06-.02-.29-.04-.51-.05-.74Zm.89,18.53c-.37.13-.63.2-.87.31-.11.05-.26.24-.25.25.16.18.31.41.52.49.16.06.55-.04.57-.13.07-.33.03-.68.03-.93Zm5.98-21.18c-.16.17-.28.3-.39.42-.06.07-.12.13-.19.2.07.06.14.12.21.18.07.06.13.13.2.19.08.07.15.14.23.21.05-.1.13-.19.14-.29.03-.25-.06-.54.34-.58.03,0,.08-.13.07-.17-.03-.06-.1-.14-.17-.15-.17-.02-.34,0-.44,0Z"/>
  <path d="m78.32,24.05c-.04.09-.1.17-.11.26-.13.76-.46,1.05-1.23,1.05-.32,0-.63-.02-.95.01-.16.02-.32.15-.48.22-.13.06-.27.12-.39.19-.17.1-.34.2-.5.31-.03.02-.04.08-.06.08-.42,0-.72.4-1.03.45-.55.09-.78.41-1.09.75-.34.37-.8.65-1.08,1.05-.36.52-1.07.74-1.17,1.52-.03.26-.38.57-.4.95,0,.04-.25.14-.29.11-.23-.18-.59-.38-.6-.59-.04-.84-.79-1.07-1.2-1.59-.08-.1-.03-.33.01-.49.02-.07.22-.1.23-.16.05-.84.76-1.16,1.27-1.65.36-.34.6-.81.99-1.09.51-.36.73-1.11,1.53-1.12.21,0,.52-.29.6-.52.13-.37.37-.3.62-.32.31-.02.68.11.82-.35.02-.06.22-.07.33-.08.22-.02.46.05.52-.3.01-.06.26-.12.4-.12.86-.01,1.72,0,2.58-.02.16,0,.3-.2.47-.25.16-.05.48-.06.48-.03.07.36.34.29.58.29.6,0,1.19-.01,1.79,0,.3.01.67-.16.82.33.03.09.42.06.64.08.25.02.54-.08.64.29.02.07.2.13.3.14.25.02.5-.01.58.32.02.06.16.12.26.13.25.04.54-.03.62.34,0,.04.15.09.23.09.77-.03.91.77,1.44,1.09.13.08.04.53.06.81,0,.09.06.18.11.37.12-.15.17-.27.25-.32.11-.07.33-.16.38-.11.36.35.68.73,1.02,1.1.06.07.17.11.22.19.07.1.15.22.14.33,0,.07-.17.13-.27.17-.19.08-.55.18-.54.23.05.35-.31.82.27,1.05.06.02.05.31,0,.44-.04.11-.28.17-.29.27-.03.29,0,.59.02.89,0,.03.18.09.21.06.19-.17.5-.36.5-.55,0-.42.15-.71.48-.93.12-.08.25-.17.37-.17.06,0,.16.2.17.32.01.27-.01.5.35.6.08.02.07.41.08.64.02.25-.08.54.31.63.07.02.12.23.12.36,0,.93.02,1.86,0,2.79,0,.14-.19.27-.25.41-.04.1-.03.23-.04.35.4,0,.3.31.3.53,0,.51.02,1.02,0,1.53,0,.26.15.62-.33.7-.06,0-.07.34-.1.53-.04.3.15.7-.34.82-.04,0-.08.12-.07.18.06.57-.44.74-.71,1.08-.26.32-.52.49-.93.49-.05,0-.15.19-.14.28.05.46-.16.59-.58.56-.09,0-.18.06-.25.08.14.25.3.45.38.68.17.48-.35.62-.54.91-.32.48-.8.86-1.23,1.26-.09.08-.24.11-.37.12-.22.02-.47-.04-.52.3,0,.06-.2.12-.31.12-.25.01-.42.24-.56.28-.45.15-.8.49-1.24.59-.23.05-.52-.2-.85-.34-.02.16-.06.41-.1.73h-.9c-.03-.29-.06-.56-.08-.72-.37.14-.78.17-.98.4-.62.7-1.39.31-2.08.37-.75.07-1.59.2-2.24-.06-.51-.2-.99-.32-1.51-.38-.09-.66-1-.16-1.13-.8,0-.04-.23-.03-.34-.07-.15-.05-.28-.13-.42-.19.1-.12.19-.23.29-.35.04-.05.08-.1.19-.23-.39-.05-.7-.3-.91.2-.03.07-.33.13-.38.08-.49-.52-.95-1.07-1.43-1.59-.32-.34-.68-.65-1.03-.96-.21-.18-.45-.34-.63-.54-.07-.08.01-.27.02-.41.37.09.43-.81.77-.35.28.38.52.27.82.28.18-.3-.13-.82.44-.88-.03-.1-.04-.22-.1-.29-.04-.05-.17-.03-.25-.02-.57.07-1.01,0-.96-.73,0-.03-.07-.06-.11-.1-.05.03-.12.06-.12.08-.01.47-.08.88-.71.77-.05,0-.18.12-.17.14.03.08.11.14.17.21.07.1.17.19.21.3.01.04-.14.2-.18.19-.12-.04-.22-.15-.34-.21-.55-.27-.39-.78-.43-1.23,0-.07-.02-.17-.06-.19-.74-.34-.2-.94-.4-1.48.44,0,.79,0,1.13,0,.28,0,.56.08.73-.33.05-.14.52-.11.82-.16.08.45.02.79.43,1.08.32.23.32.86.52,1.28.13.27.34.52.56.73.35.34.75.62,1.11.95.31.28.59.6.87.9.09.1.18.3.26.29.68-.06.79.33.72.81.25.29.91-.15.81.58-.29.05-.55.1-.81.15,0,.07,0,.14,0,.21.38.02.76.04,1.16.06.02-.18.02-.28.05-.38.06-.16.14-.45.21-.45.25,0,.51.09.75.17.14.05.27.19.41.21.33.03.67,0,1,.01.37,0,.79-.09.94.56.3-.79.85-.53,1.32-.54.09,0,.21.14.26.24.08.19.09.55.19.57.33.07.68.03,1.03.03.01-.06.03-.12.04-.18-.14-.13-.37-.22-.42-.38-.18-.51,0-.71.57-.73.29-.01.65.14.78-.32.01-.05.26-.03.4-.05-.02.14,0,.39-.06.4-.33.09-.28.33-.33.57-.05.2-.23.37-.4.62h1.75c-.18-.15-.27-.19-.32-.26-.08-.11-.13-.24-.2-.37.11-.06.23-.15.34-.16.3-.02.59,0,.89,0,0-.07.01-.15.02-.22-.27-.06-.53-.13-.77-.18-.35-.65.18-.94.5-1.3.39-.43.81-.83,1.22-1.23.12-.12.25-.26.41-.33.56-.25.26-1.05.84-1.29.17-.07.32-.26.48-.27.33-.02.42-.17.41-.47,0-.37,0-.74,0-1.11,0-.27-.07-.58.33-.66.06-.01.12-.17.12-.25,0-1.39,0-2.77,0-4.16,0-.08-.03-.23-.06-.24-.57-.09-.33-.55-.41-.87-.04-.18-.16-.35-.24-.52-.06-.12-.14-.23-.16-.35-.04-.23.03-.51-.33-.55-.04,0-.11-.1-.11-.15,0-.81-.74-1.08-1.17-1.58-.34-.39-.66-.81-1.06-1.11-.3-.23-.47-.73-1.01-.62-.07.02-.19-.11-.27-.18-.05-.04-.04-.16-.09-.18-.45-.18-.9-.35-1.35-.52-.05-.02-.13,0-.15-.03-.57-.72-1.35-.32-2.03-.37-.78-.07-.78-.02-.79-.78,0-.18-.03-.35-.05-.53-.06,0-.11,0-.17-.01Zm10.64,13.13c-.22.19-.5.31-.54.49-.09.34-.08.72-.03,1.06.01.07.41.08.61.11.07-.33.05-.71.18-.78.44-.22.47-.33,0-.51-.09-.04-.13-.22-.21-.38Z"/>
  <path d="m64.52,148.51c0-.42,0-.82,0-1.22,0-.53.47-.99.98-.93.21.02.4.21.63.33.16-.47.63-.31,1.04-.36.49-.06,1.09.28,1.43-.39.02-.05.2-.03.3-.03.4,0,.81,0,1.21,0,.23,0,.46.06.58-.29.04-.12.45-.14.69-.13.08,0,.16.25.22.39.06.14.1.3.16.45.08-.11.15-.29.25-.31.57-.11.33-.59.47-.95.21-.01.44-.03.66-.04.26-.01.53.03.64-.31.03-.08.23-.12.36-.14.22-.03.48.04.5-.31,0-.03.03-.07.06-.08.43-.16.86-.32,1.29-.48.11-.04.3-.05.32-.11.09-.36.36-.32.62-.32.02,0,.05,0,.05,0,.24-.45.78-.41,1.14-.68.32-.25.48-.73,1.04-.69.21.01.47-.26.66-.45.48-.5.91-1.05,1.4-1.55.38-.38.82-.7,1.21-1.06.31-.29.6-.6.9-.9.03-.03.04-.1.04-.15-.09-.6.41-.81.74-1.14.02-.02.07-.03.08-.06.17-.51.4-1.01.47-1.53.06-.41.13-.62.58-.57.34.04.73-.12.96.33.04.08.47.05.64-.06.21-.13.34-.41.52-.59.07-.07.22-.11.32-.09.06.01.15.17.14.23-.1.4.32.95-.35,1.21-.08.03-.08.36-.06.54.04.47-.04.8-.63.73-.07,0-.14.06-.32.14.19.11.35.15.39.25.05.12.03.41,0,.41-.37.05-.23.36-.33.56-.15.3-.41.54-.62.8-.06.08-.2.14-.2.21,0,.84-.8,1.05-1.21,1.56-.19.23-.38.48-.59.7-.08.08-.23.12-.35.14-.05,0-.17-.12-.16-.16.04-.11.11-.22.19-.31.35-.36.71-.7,1.06-1.05-.18-.2-.36-.39-.47-.52-.65.3-1.27.59-2.02.94,0,.32,0,.78,0,1.25,0,.08.1.16.18.22.35.25.31.72,0,.99-.38.33-.7.73-1.05,1.1-.07.07-.15.18-.23.18-.58,0-.87.39-1.15.81-.05.07-.21.09-.32.1-.22.02-.47-.05-.53.29,0,.03-.31.04-.46,0-.07-.02-.11-.18-.29-.28-.05.25-.1.51-.17.82-.22.01-.46.03-.69.05l.05.13c-.24.11-.48.21-.72.33-.1.05-.2.11-.29.17-.13.08-.27.16-.4.24-.18.1-.35.2-.53.3-.1.05-.2.13-.31.15-.25.04-.55-.07-.59.34,0,.04-.24.11-.26.09-.09-.12-.15-.27-.22-.41-.07-.14-.11-.36-.22-.41-.13-.06-.36-.02-.49.06-.18.13-.3.34-.47.54.06.04.15.09.2.17.07.1.16.21.17.33,0,.06-.17.16-.27.16-.3.02-.6,0-.89.01-.25,0-.55-.09-.61.31,0,.05-.17.11-.26.11-.49.01-.98,0-1.47,0-.14,0-.27-.02-.53-.04.29-.56.55-1.05.84-1.62-.23-.07-.42-.17-.75.12-.53.46-.41.99-.4,1.53,0,.33-.1.48-.45.47-1.49,0-2.98,0-4.47-.01-.14,0-.28-.16-.42-.25.14-.09.26-.2.41-.25.12-.05.27-.03.46-.04Z"/>
  <path d="m66.29,37.58c-.01-.27-.02-.53-.04-.79-.03-.36.14-.78-.34-1.01-.09-.04-.07-.32-.07-.49,0-.4-.03-.81.01-1.21.02-.17.15-.45.25-.46.23-.02.58-.22.69.23.02.06.14.12.22.14.03,0,.12-.12.13-.19.04-.28-.08-.62.37-.69.02,0,.06-.18.02-.23-.14-.17-.29-.33-.46-.47-.05-.04-.19.01-.27.06-.13.09-.24.21-.36.31-.06-.09-.18-.19-.17-.27.03-.22.1-.44.19-.64.04-.08.18-.11.35-.22-.18-.08-.3-.1-.34-.16-.07-.14-.1-.31-.15-.46.55-.07.35-.53.41-.84.3-.2.83.14.94-.47.02-.11.48-.11.42.19-.1.55.4.69.6,1.02.14.23.46.35.64.56.06.07-.03.29-.08.43-.07.16-.25.3-.26.46-.04.38,0,.77-.01,1.16,0,.25.05.5-.3.64-.25.1-.15,1.02.08,1.19.45.31.14.77.18,1.15,0,.06-.31.15-.47.25-.24.15-.58.26-.69.49-.27.52-.7.34-1.08.36-.12,0-.24-.02-.4-.04Z"/>
</svg>